<svg xmlns="http://www.w3.org/2000/svg" width="160" height="160" viewBox="0 0 160 160">
  <g id="defaultSubject" transform="translate(-1383 -636)">
    <g id="Group_22153" data-name="Group 22153">
      <g id="hindi" transform="translate(600)">
        <rect id="Rectangle_2558" data-name="Rectangle 2558" width="160" height="160" rx="40" transform="translate(783 636)" fill="#8cc178" opacity="0.2"/>
        <g id="Group_22152" data-name="Group 22152" transform="translate(-307.28 -239.23)">
          <g id="Edusense_subject_icons_Hindi" data-name="Edusense subject icons_Hindi" transform="translate(1144.28 925.23)">
            <g id="Group_21960" data-name="Group 21960" transform="translate(0 0)">
              <path id="Path_15746" data-name="Path 15746" d="M61.27,32.21h7.144V90.593H61.27Z" transform="translate(-17.013 -30.593)" fill="#fcfdfe"/>
              <g id="Group_22073" data-name="Group 22073">
                <path id="Rectangle_2548" data-name="Rectangle 2548" d="M46.764,31.23h34.99v60H46.764A12.5,12.5,0,0,1,34.28,78.725V43.735A12.5,12.5,0,0,1,46.764,31.23Z" transform="translate(-34.28 -31.23)" fill="#8cc178"/>
                <path id="Rectangle_2551" data-name="Rectangle 2551" d="M38.447,59.41H81.754V73.235H43.86a9.591,9.591,0,0,1-9.58-9.552h0a4.179,4.179,0,0,1,4.167-4.191Z" transform="translate(-34.28 -13.235)" fill="#afcda3"/>
              </g>
              <rect id="Rectangle_2553" data-name="Rectangle 2553" width="15.079" height="2.508" transform="translate(16.212 32.487)" fill="#fcfdfe"/>
              <rect id="Rectangle_2553-2" data-name="Rectangle 2553" width="15.079" height="2.508" transform="translate(16.212 25.487)" fill="#fcfdfe"/>
              <rect id="Rectangle_2553-3" data-name="Rectangle 2553" width="15.079" height="2.508" transform="translate(16.212 18.487)" fill="#fcfdfe"/>
            </g>
          </g>
        </g>
      </g>
    </g>
  </g>
</svg>
