<?xml version="1.0" encoding="utf-8"?>
<!-- Generator: Adobe Illustrator 23.0.3, SVG Export Plug-In . SVG Version: 6.00 Build 0)  -->
<svg version="1.1" id="Layer_1" xmlns="http://www.w3.org/2000/svg" xmlns:xlink="http://www.w3.org/1999/xlink" x="0px" y="0px"
	 viewBox="0 0 100 100" style="enable-background:new 0 0 100 100;" xml:space="preserve">
<style type="text/css">
</style>
<g id="more-options" transform="translate(0 -146.811)">
	<g id="Group_1660" transform="translate(0 146.811)">
		<g id="Group_1657" transform="translate(0 0)">
			<path id="Path_7801" class="moreIcon" d="M10.9,60.9C4.9,60.9,0,56,0,50s4.9-10.9,10.9-10.9c6,0,10.9,4.9,10.9,10.9c0,0,0,0,0,0
				C21.8,56,17,60.9,10.9,60.9z"/>
		</g>
		<g id="Group_1658" transform="translate(7.152 0)">
			<path id="Path_7802" class="moreIcon" d="M42.3,60.9c-6,0-10.9-4.9-10.9-10.9c0-6,4.9-10.9,10.9-10.9c6,0,10.9,4.9,10.9,10.9
				c0,0,0,0,0,0C53.1,56,48.3,60.9,42.3,60.9z"/>
		</g>
		<g id="Group_1659" transform="translate(14.532 0)">
			<path id="Path_7803" class="moreIcon" d="M74.6,60.9c-6,0-10.9-4.9-10.9-10.9c0-6,4.9-10.9,10.9-10.9c6,0,10.9,4.9,10.9,10.9
				c0,0,0,0,0,0C85.5,56,80.6,60.9,74.6,60.9z"/>
		</g>
	</g>
</g>
</svg>
