<svg id="Layer_1" data-name="Layer 1" xmlns="http://www.w3.org/2000/svg" viewBox="0 0 100 100"><defs><style>.cls-1{opacity:0.15;}.cls-2{fill:#bec9dc;}.cls-3{fill:#f1f1f2;}.cls-3,.cls-7,.cls-8{stroke:#99aab7;stroke-miterlimit:10;}.cls-4{fill:#99aab7;}.cls-5,.cls-7{fill:#e0e3e9;}.cls-6{fill:#2b374f;}.cls-8{fill:#fff;}</style></defs><g id="Group_21823" data-name="Group 21823" class="cls-1"><path id="Path_12091" data-name="Path 12091" class="cls-2" d="M85,25.1C75.32,24,70.27,39.66,58.22,38c-2.52-.38-8.81-2-12.43-7-2.14-2.9-2.24-5.26-5.37-8.47a24.22,24.22,0,0,0-7.21-4.88c-9.12-3.65-20.64,1.23-26.08,8.9-5,7-3.88,15-2.67,23.2A52.72,52.72,0,0,0,15.64,76.09C18.39,79.52,28,91,45.16,94c21.74,3.74,37.73-9.35,40.47-11.6C90,78.72,100,70.17,101.19,56.25S94.2,26.27,85,25.1Z"/></g><g id="Group_21823-2" data-name="Group 21823"><path id="Path_12091-2" data-name="Path 12091" class="cls-3" d="M35.67,86.79c8.6-1.11,4-5,14.9-6.34a75.6,75.6,0,0,1,14.2-.29c3.4.29,4.8.76,9.2,1,0,0,4.3.22,8.7,0,9.6-.52,16.4-3.1,16.6-5.42.2-2.12-5.2-3.6-10.8-5.11a128.71,128.71,0,0,0-24-3.82,192.91,192.91,0,0,0-34.5.42c-20.1,2.24-26,7.13-27,8-1.5,1.36-5,4.49,1.8,7.5S27.37,87.82,35.67,86.79Z"/></g><g id="Group_21835" data-name="Group 21835"><path id="Path_12108" data-name="Path 12108" class="cls-4" d="M65,65.31a.23.23,0,0,1,0-.3.24.24,0,0,1,.3,0,1.93,1.93,0,0,0,.62.51.23.23,0,0,1,0,.3.24.24,0,0,1-.3,0C65.34,65.67,65.05,65.53,65,65.31Zm-.54-.59h0a1.86,1.86,0,0,1-.46-.67.22.22,0,0,1,.32-.29c.2.22.26.44.46.66a.23.23,0,0,1,0,.3C64.59,64.86,64.52,64.79,64.46,64.72Zm1.78,1.62a.23.23,0,0,1,0-.3.23.23,0,0,1,.29,0,2.31,2.31,0,0,0,.71.44c.06.08.13.15,0,.3s-.16.14-.3,0a1.36,1.36,0,0,1-.7-.44Zm-2.77-3h0c-.12-.3-.33-.52-.45-.82-.07-.07-.05-.22.18-.29.08-.08.22-.08.28.15s.26.44.38.73a.23.23,0,0,1,0,.3.54.54,0,0,1-.36-.07Zm4.11,3.83c-.07-.08-.07-.08-.06-.23a.43.43,0,0,1,.31-.14l.79.36c.14,0,.13.15.12.3s-.16.15-.31.15a.74.74,0,0,1-.85-.44Zm-4.87-5.31h0c-.12-.29-.18-.52-.3-.81-.07-.07.09-.22.18-.3s.21.08.28.15c.12.3.16.66.23.74a.13.13,0,0,1-.09.22l-.08.07a.32.32,0,0,1-.22-.07Zm-.53-1.55h0a2.84,2.84,0,0,0-.22-.88c0-.15,0-.3.18-.3s.29,0,.28.15.1.59.15.81a.39.39,0,0,1-.17.29C62.33,60.29,62.26,60.22,62.18,60.29ZM62,58.59h0a6.35,6.35,0,0,1-.14-1,.22.22,0,0,1,.24-.22c.15,0,.22.07.21.22a1.7,1.7,0,0,0,.07.89.43.43,0,0,1-.18.29Zm-.07-1.7c-.07-.07,0-.14,0,0h0l.09-1a.21.21,0,0,1,.24-.22c.15,0,.22.07.2.22l-.07.89a.23.23,0,0,1-.25.22h0c-.15,0-.15,0-.21-.08ZM62,55.27C62,55.2,62,55.2,62,55.05a2,2,0,0,1,.22-.89c0-.15.16-.15.25-.22s.13.15.2.22c0,.3-.12.52-.15.81a.22.22,0,0,1-.24.23h0a.41.41,0,0,0-.23.07Zm.45-1.77c-.06-.08-.06-.08,0-.23s.2-.59.29-.81a.48.48,0,0,1,.31-.15.37.37,0,0,1,.13.3,1.79,1.79,0,0,0-.3.81c0,.15-.16.15-.38.08Zm.74-1.63c-.07-.07-.07-.07,0-.22s.27-.52.44-.82a.43.43,0,0,1,.31-.14A.33.33,0,0,1,64,51a2.63,2.63,0,0,1-.51.74C63.44,51.94,63.36,52,63.22,51.87Zm.94-1.41a.22.22,0,0,1,0-.29c.08-.08.24-.22.25-.37l.33-.3a.23.23,0,0,1,.29,0,.23.23,0,0,1,0,.3l-.33.29c-.08.08-.24.23-.25.37Zm1.24-1.4h0a.23.23,0,0,1,0-.3l.65-.59a.22.22,0,0,1,.3,0,.23.23,0,0,1,0,.29l-.64.6a.24.24,0,0,1-.3,0Zm1.42-1h0c-.13-.15,0-.22,0-.3.31-.14.47-.29.78-.44.08-.08.23-.08.29.15.06.07,0,.22-.18.29s-.47.3-.78.45c.08-.08-.07-.08-.14-.15Zm8.61,7.44L75,54.94a.23.23,0,0,1,0-.3.23.23,0,0,1,.29,0l.54.59a.23.23,0,0,1,0,.3c-.08.07-.23.07-.37-.07Zm.61.66a.24.24,0,0,1,0-.3.24.24,0,0,1,.3,0c.2.22.41.3.62.52.06.07.13.15,0,.29s-.16.15-.3,0a1.69,1.69,0,0,0-.62-.51ZM74.43,54.2h0c-.2-.22-.32-.51-.52-.73a.23.23,0,0,1,0-.3.24.24,0,0,1,.3,0,2.06,2.06,0,0,0,.46.66.23.23,0,0,1,0,.3c0,.15-.16.15-.23.07Zm3,2.8c-.07-.07-.07-.07-.06-.22a.44.44,0,0,1,.31-.15c.22.07.5.22.72.29s.13.15.12.3-.16.15-.31.15A5.84,5.84,0,0,0,77.45,57Zm-3.86-4.2h0a2.75,2.75,0,0,0-.44-.81c0-.15,0-.29.17-.3s.3,0,.28.15h0a2.35,2.35,0,0,0,.38.74c.07.07.06.22-.17.3-.08.07-.15,0-.22-.08Zm-5.2-5.67h0a.3.3,0,0,1,.1-.37c.31-.15.54-.22.85-.37.08-.08.22.07.29.14s-.1.23-.18.3l-.77.3c-.16.15-.23.07-.29,0Zm4.52,4.12h0a2.84,2.84,0,0,1-.21-.88c0-.15,0-.3.17-.3s.3,0,.28.15a1.55,1.55,0,0,1,.16.81.13.13,0,0,1-.1.22l-.08.08a.34.34,0,0,0-.22-.08ZM79,57.37c-.07-.08-.07-.08,0-.23a.22.22,0,0,1,.24-.22h0a3,3,0,0,0,.82-.07c.15,0,.22.07.2.22a.21.21,0,0,1-.24.22l-1,.08Zm-6.36-7.74h0a1.54,1.54,0,0,1-.13-1,.21.21,0,0,1,.24-.22c.15,0,.21.07.2.22h0a1.89,1.89,0,0,0,.07.88.41.41,0,0,1-.17.3Zm-2.54-3.1h0a.32.32,0,0,1,.11-.37l.83-.22a.35.35,0,0,1,.29.15.43.43,0,0,1-.18.29,1.8,1.8,0,0,0-.83.23c-.08.07-.15,0-.22-.08ZM80.7,57.14h0a.3.3,0,0,1,.1-.37c.23-.07.54-.22.77-.3s.23-.07.29.15,0,.22-.18.3-.54.22-.85.37Zm-8.16-9.21h0V47a.22.22,0,0,1,.24-.22c.15,0,.22.07.21.22a2.74,2.74,0,0,0,0,.81.21.21,0,0,1-.24.22h0c-.07-.07-.15,0-.22-.07Zm-.73-1.77h0c-.06-.22,0-.3.17-.3h0c.23-.07.45,0,.68-.07l0-.59A.21.21,0,0,1,73,45c.15,0,.22.07.2.22s0,.44-.13.66l.07.07c0,.15,0,.15-.09.23s-.17.14-.23.07h-.15c-.23.08-.45,0-.68.08ZM82.25,56.4h0a.23.23,0,0,1,0-.3l.65-.59a.23.23,0,0,1,.29,0,.22.22,0,0,1,0,.29l-.65.6c-.15,0-.23.07-.29,0ZM73.52,46.08h0c0-.29.11-.37.26-.37h.89c.14,0,.21.07.2.22a.21.21,0,0,1-.24.22h-.89c-.15,0-.15,0-.22-.07Zm-.6-1.62c-.06-.08-.06-.08,0-.22a1.85,1.85,0,0,1,.23-.89c0-.15.16-.15.24-.22s.13.15.2.22c-.09.22-.12.52-.23.89a.22.22,0,0,1-.24.22Zm2.37,1.76c-.07-.07-.07-.07-.06-.22a.23.23,0,0,1,.25-.22h0a1.77,1.77,0,0,1,.87.15c.15,0,.14.14.12.29s-.16.15-.31.15A2.82,2.82,0,0,1,75.29,46.22Zm8.26,8.84a.22.22,0,0,1,0-.29c.09-.22.26-.52.36-.74s.16-.15.31-.15.13.15.12.3c-.17.29-.27.51-.44.81-.16.15-.31.15-.38.07ZM73.3,42.76c-.07-.08-.07-.08-.06-.22,0-.3.2-.59.23-.89,0-.15.16-.15.31-.15s.13.15.12.3-.12.51-.23.88c0,.15-.16.15-.24.23Zm3.59,3.76c-.06-.08-.06-.08,0-.23s.16-.14.31-.14.58.14.79.22.14.14.13.29-.16.15-.31.15a6.31,6.31,0,0,1-.87-.29Zm7.25,6.92h0c0-.44,0-.67,0-1s0-.3.17-.3.3,0,.29.15a3.49,3.49,0,0,1,.07.89.23.23,0,0,1-.24.22h0c-.23.07-.3,0-.3,0ZM78.55,47c-.06-.08-.13-.15,0-.22a.4.4,0,0,1,.31-.15c.28.15.5.22.78.37.15,0,.14.14.12.29a.44.44,0,0,1-.31.15L78.55,47Zm-4.73-6c-.07-.08-.07-.08-.06-.22s.2-.59.3-.82.16-.14.31-.14.13.14.12.29-.2.59-.3.81-.16.15-.37.08ZM80,47.76a.22.22,0,0,1,0-.29.4.4,0,0,1,.31-.15c.28.15.42.29.7.44.07.07.13.15,0,.3s-.16.14-.29,0a5.35,5.35,0,0,0-.72-.3Zm4,4h0a2.25,2.25,0,0,0-.38-.74.21.21,0,0,1,0-.29.21.21,0,0,1,.29,0,7.53,7.53,0,0,1,.38.73c.07.08.06.23-.09.23s0,.14-.23.07C84.05,51.89,84,51.81,83.92,51.74Zm-2.54-3.09a.23.23,0,0,1,0-.3.24.24,0,0,1,.3,0c.2.22.48.37.62.51a.23.23,0,0,1,0,.3.23.23,0,0,1-.29,0h0C81.86,49,81.58,48.87,81.38,48.65Zm1.77,1.76-.54-.59a.22.22,0,0,1,.32-.29h0l.54.59a.22.22,0,0,1,0,.29A.2.2,0,0,1,83.15,50.41Zm-8.68-10.9c-.06-.08-.13-.15,0-.23.17-.29.27-.51.44-.81a.44.44,0,0,1,.31-.15.34.34,0,0,1,.12.3c-.09.22-.26.52-.36.74s-.24.22-.46.15Zm.89-1.63c-.07-.07-.07-.07-.06-.22a2.66,2.66,0,0,1,.52-.74.4.4,0,0,1,.3-.15.35.35,0,0,1,.13.29c-.18.3-.34.45-.51.74s-.31.15-.38.08Zm1-1.48a.23.23,0,0,1,0-.3,2.59,2.59,0,0,1,.57-.66.22.22,0,0,1,.3,0,.21.21,0,0,1,0,.29c-.24.22-.33.45-.57.67A.24.24,0,0,1,76.38,36.4ZM77.47,35a.22.22,0,0,1,0-.29l.73-.67a.24.24,0,0,1,.3,0,.23.23,0,0,1,0,.3l-.72.66a.22.22,0,0,1-.3,0Zm1.22-1.26h0a.22.22,0,0,1,0-.29l.64-.59a.2.2,0,1,1,.27.29l-.64.59c0,.15-.16.15-.3,0Zm1.51-1.11h0a.21.21,0,0,1,0-.29c.24-.23.55-.37.71-.52a.22.22,0,0,1,.3,0,.23.23,0,0,1,0,.29,2.66,2.66,0,0,0-.71.52.22.22,0,0,1-.3,0Zm1.49-1h0c-.13-.15,0-.22.11-.37.31-.15.47-.3.78-.45.08-.07.23-.07.28.15s.06.22-.17.3-.47.29-.78.44c-.15,0-.15,0-.22-.07Zm1.56-.89h0c-.13-.15,0-.3.11-.37.23-.08.39-.22.62-.3l.08-.07c.15,0,.3,0,.29.14s0,.3-.18.3l-.08.07c-.23.08-.39.23-.62.3-.08.08-.15,0-.22-.07Zm1.62-.67h0a.32.32,0,0,1,.11-.37c.31-.15.54-.22.85-.37.14,0,.29,0,.28.14s0,.3-.17.3c-.31.15-.54.22-.85.37-.07-.07-.15,0-.22-.07Zm1.7-.74h0a.3.3,0,0,1,.1-.37,1.8,1.8,0,0,1,.84-.23.34.34,0,0,1,.28.15.43.43,0,0,1-.17.3,1.91,1.91,0,0,1-.84.22c-.14,0-.14,0-.21-.07ZM88.16,29h0a.31.31,0,0,1,.1-.37l.84-.22a.32.32,0,0,1,.28.15.41.41,0,0,1-.17.29,1.8,1.8,0,0,0-.84.23c-.06-.08-.13-.15-.21-.08Zm1.74-.37-.07-.08a.22.22,0,0,1,.24-.22h0c.3,0,.53-.07.82-.07s.22.07.21.22a.22.22,0,0,1-.25.22,2.66,2.66,0,0,0-.82.08Zm1.71-.08h0c0-.3.11-.37.25-.37h.45c.15,0,.3,0,.36.07a.18.18,0,0,1,.21.22.24.24,0,0,1-.25.23c-.14,0-.29,0-.36-.08h-.45c-.06-.07-.14,0-.21-.07Zm1.7.07c-.07-.07-.07-.07-.06-.22a.22.22,0,0,1,.25-.22h0a1.76,1.76,0,0,1,.87.14c.15,0,.14.15.12.3s-.16.14-.31.14S93.6,28.6,93.31,28.6ZM95,29c-.07-.07-.07-.07,0-.22s.16-.15.31-.15.58.15.79.22.14.15.12.3-.16.15-.31.15A6.4,6.4,0,0,1,95,29Zm1.59.44c-.06-.07-.13-.14,0-.22a.44.44,0,0,1,.31-.15c.28.15.5.22.78.37a.33.33,0,0,1,.12.3.43.43,0,0,1-.31.14l-.85-.44Zm1.57.74c-.07-.08-.07-.08-.06-.22a.44.44,0,0,1,.31-.15,2.13,2.13,0,0,1,.71.44c.06.07.13.15,0,.29s-.16.15-.3,0a1.94,1.94,0,0,1-.63-.37Zm1.32.95a.23.23,0,0,1,0-.29.22.22,0,0,1,.3,0,2,2,0,0,1,.62.51c.15,0,.13.15,0,.22a.22.22,0,0,1-.29,0C100,31.46,99.75,31.24,99.46,31.09Z"/></g><g id="Group_21842" data-name="Group 21842"><path id="Path_12115" data-name="Path 12115" class="cls-5" d="M76.63,13A4.71,4.71,0,0,1,86,13"/></g><g id="Group_21843" data-name="Group 21843"><path id="Path_12116" data-name="Path 12116" class="cls-5" d="M87.52,13a4.71,4.71,0,0,1,9.4,0"/></g><g id="Group_21844" data-name="Group 21844"><path id="Path_12117" data-name="Path 12117" class="cls-5" d="M82.85,13.05c0-4,2.3-7.2,5-7.2s5,3.2,5,7.2"/></g><g id="Group_21842-2" data-name="Group 21842"><path id="Path_12115-2" data-name="Path 12115" class="cls-5" d="M60,92.47a4.71,4.71,0,0,1,9.4,0"/></g><g id="Group_21843-2" data-name="Group 21843"><path id="Path_12116-2" data-name="Path 12116" class="cls-5" d="M70.91,92.47a4.71,4.71,0,0,1,9.4,0"/></g><g id="Group_21844-2" data-name="Group 21844"><path id="Path_12117-2" data-name="Path 12117" class="cls-5" d="M66.24,92.51c0-4,2.3-7.2,5-7.2s5,3.2,5,7.2"/></g><g id="Group_21848" data-name="Group 21848"><path id="Path_12121" data-name="Path 12121" class="cls-5" d="M9.53,19.56A5.35,5.35,0,0,1,15,14.43a5.35,5.35,0,0,1,5.5,5.13"/></g><g id="Group_21849" data-name="Group 21849" class="cls-1"><circle id="Ellipse_264" data-name="Ellipse 264" class="cls-5" cx="89.92" cy="42.38" r="2.2"/><path id="Path_12122" data-name="Path 12122" class="cls-6" d="M89.92,44.68a2.84,2.84,0,0,1-1.7-.7,2.19,2.19,0,0,1-.7-1.7,2.84,2.84,0,0,1,.7-1.7,2.19,2.19,0,0,1,1.7-.7,2.46,2.46,0,0,1,2.4,2.5,2.41,2.41,0,0,1-.7,1.7A1.75,1.75,0,0,1,89.92,44.68Zm0-4.2a2.11,2.11,0,0,0-1.3.5,1.84,1.84,0,1,0,2.6,0A1.54,1.54,0,0,0,89.92,40.48Z"/></g><g id="Group_21849-2" data-name="Group 21849" class="cls-1"><circle id="Ellipse_264-2" data-name="Ellipse 264" class="cls-5" cx="33.13" cy="6.37" r="2.2"/><path id="Path_12122-2" data-name="Path 12122" class="cls-6" d="M33.13,8.67a2.84,2.84,0,0,1-1.7-.7,2.19,2.19,0,0,1-.7-1.7,2.84,2.84,0,0,1,.7-1.7,2.19,2.19,0,0,1,1.7-.7,2.46,2.46,0,0,1,2.4,2.5,2.41,2.41,0,0,1-.7,1.7A1.75,1.75,0,0,1,33.13,8.67Zm0-4.2a2.11,2.11,0,0,0-1.3.5,1.84,1.84,0,1,0,2.6,0A1.54,1.54,0,0,0,33.13,4.47Z"/></g><g id="Group_21850" data-name="Group 21850" class="cls-1"><circle id="Ellipse_265" data-name="Ellipse 265" class="cls-5" cx="11.93" cy="94.35" r="2.2"/><path id="Path_12123" data-name="Path 12123" class="cls-6" d="M11.93,96.75a2.46,2.46,0,0,1-2.4-2.5,2.44,2.44,0,0,1,.7-1.71h0a2.19,2.19,0,0,1,1.7-.7,2.46,2.46,0,0,1,2.4,2.5,2.41,2.41,0,0,1-.7,1.7A2.07,2.07,0,0,1,11.93,96.75ZM10.73,93a1.87,1.87,0,0,0,0,2.6,1.85,1.85,0,0,0,2.6,0,1.87,1.87,0,0,0,0-2.6,1.74,1.74,0,0,0-2.4-.2Z"/></g><g id="Group_21854" data-name="Group 21854" class="cls-1"><circle id="Ellipse_269" data-name="Ellipse 269" class="cls-5" cx="61.64" cy="14.43" r="1.3"/><path id="Path_12127" data-name="Path 12127" class="cls-6" d="M61.64,16a1.62,1.62,0,0,1-1.6-1.4,1.59,1.59,0,0,1,1.4-1.8h0a1.61,1.61,0,0,1,.4,3.2h-.2Zm-.1-2.6a1,1,0,1,0,1.1.9A1,1,0,0,0,61.54,13.43Z"/></g><rect class="cls-7" x="30.73" y="26.66" width="38.3" height="47.49" rx="4.03"/><path class="cls-8" d="M54.09,23.1V21.29a.72.72,0,0,0-.72-.72H46.63a.72.72,0,0,0-.72.72V23.1a.71.71,0,0,1-.71.71H43.78a.71.71,0,0,0-.72.71V28a.71.71,0,0,0,.72.71H56.22a.71.71,0,0,0,.72-.71V24.52a.71.71,0,0,0-.72-.71H54.8A.71.71,0,0,1,54.09,23.1Z"/><rect class="cls-8" x="37.77" y="37.51" width="5.66" height="5.66" rx="0.73"/><rect class="cls-8" x="37.77" y="48.06" width="5.66" height="5.66" rx="0.73"/><rect class="cls-8" x="37.77" y="58.61" width="5.66" height="5.66" rx="0.73"/><rect class="cls-8" x="47.94" y="38.32" width="14.98" height="3.32" rx="1.66"/><rect class="cls-8" x="47.94" y="49.23" width="14.98" height="3.32" rx="1.66"/><rect class="cls-8" x="47.94" y="60.15" width="14.98" height="3.32" rx="1.66"/></svg>
