<?xml version="1.0" encoding="utf-8"?>
<!-- Generator: Adobe Illustrator 24.2.2, SVG Export Plug-In . SVG Version: 6.00 Build 0)  -->
<svg version="1.1" id="Layer_1" xmlns="http://www.w3.org/2000/svg" xmlns:xlink="http://www.w3.org/1999/xlink" x="0px" y="0px"
	 viewBox="0 0 100 100" style="enable-background:new 0 0 100 100;" xml:space="preserve">
<g id="assesment" transform="translate(0.15 0.267)">
	<g id="nation">
		<path d="M71.7,26.5L87.1,6.2C88.1,5,88.2,3.4,87.5,2c-0.7-1.4-2.1-2.3-3.6-2.3H15.8c-1,0-2.1,0.4-2.8,1.1
			c-0.8,0.8-1.2,1.8-1.2,2.9v96h8.1V53.2h64.1c1.6-0.1,3-0.9,3.6-2.3c0.7-1.3,0.5-3-0.4-4.2L71.7,26.5z M19.8,45.1V7.8h55.8
			L63.4,24.1c-1.1,1.4-1.1,3.4,0,4.9l12.3,16.2L19.8,45.1z"/>
	</g>
</g>
</svg>
