<svg xmlns="http://www.w3.org/2000/svg" width="23.695" height="23.695" viewBox="0 0 23.695 23.695">
    <defs>
        <style>
            <!-- .prefix__cls-1assignment{fill:#203061} -->
        </style>
    </defs>
    <g id="prefix__homework">
        <path id="prefix__Path_16075" d="M60.684 85.913a12.523 12.523 0 0 1 5.3 1.321.694.694 0 1 0 .61-1.247 13.919 13.919 0 0 0-5.9-1.462h-.01a.694.694 0 0 0-.009 1.388z" class="prefix__cls-1assignment" data-name="Path 16075" transform="translate(-57.223 -80.613)"/>
        <path id="prefix__Path_16076" d="M66.6 145.987a13.919 13.919 0 0 0-5.9-1.462h-.01a.694.694 0 0 0-.009 1.388 12.523 12.523 0 0 1 5.3 1.321.694.694 0 0 0 .61-1.247z" class="prefix__cls-1assignment" data-name="Path 16076" transform="translate(-57.224 -137.836)"/>
        <path id="prefix__Path_16077" d="M66.6 205.988a13.919 13.919 0 0 0-5.9-1.462h-.01a.694.694 0 0 0-.009 1.388 12.522 12.522 0 0 1 5.3 1.321.694.694 0 0 0 .61-1.247z" class="prefix__cls-1assignment" data-name="Path 16077" transform="translate(-57.224 -195.06)"/>
        <path id="prefix__Path_16078" d="M301.386 85.986a.694.694 0 1 0 .61 1.247 12.323 12.323 0 0 1 5.258-1.321.694.694 0 0 0-.019-1.388 13.7 13.7 0 0 0-5.849 1.462z" class="prefix__cls-1assignment" data-name="Path 16078" transform="translate(-287.067 -80.612)"/>
        <path id="prefix__Path_16079" d="M23.169.351A10.913 10.913 0 0 0 20.365 0a14.668 14.668 0 0 0-8.515 2.942A14.691 14.691 0 0 0 3.381 0 10.915 10.915 0 0 0 .526.351.694.694 0 0 0 0 1.024v13.63a.694.694 0 0 0 .267.547.708.708 0 0 0 .647.113c1.942-.492 5.889-.8 10.517 2.672a.694.694 0 0 0 .833 0 15.464 15.464 0 0 1 4.443-2.371V23a.694.694 0 0 0 .694.694h2.777a.694.694 0 0 0 .694-.694v-7.97a9.742 9.742 0 0 1 1.929.289.7.7 0 0 0 .894-.666V1.024a.694.694 0 0 0-.526-.673zM1.388 13.791V1.575a9.784 9.784 0 0 1 1.987-.187 13.366 13.366 0 0 1 7.778 2.764V16.1A14.816 14.816 0 0 0 4.6 13.692a11.7 11.7 0 0 0-3.21.1zm17.84-2.638h-.878l.439-1.379zm.255 11.153H18.1v-9.764h1.388zm2.823-8.512a11.532 11.532 0 0 0-1.435-.155V11.85a.693.693 0 0 0-.038-.229l-1.382-4.346A.7.7 0 0 0 18.7 6.8a14.251 14.251 0 0 0-4.379 1.354.694.694 0 1 0 .609 1.246 13.328 13.328 0 0 1 2.848-1.023l-1.033 3.246a.693.693 0 0 0-.038.223v2.316a15.931 15.931 0 0 0-4.165 1.94V4.153a13.344 13.344 0 0 1 7.821-2.764 9.786 9.786 0 0 1 1.942.187z" class="prefix__cls-1assignment" data-name="Path 16079"/>
    </g>
</svg>
