<svg xmlns="http://www.w3.org/2000/svg" width="15.779" height="18.129" viewBox="0 0 15.779 18.129">
    <g id="prefix__education" transform="translate(-33.184)">
        <g id="prefix__Group_21683" data-name="Group 21683" transform="translate(33.184)">
            <path id="prefix__Path_12063" fill="#203061" d="M47.485 1.475a5.048 5.048 0 0 0-7.131 0l-6.911 6.91a.885.885 0 0 0 1.251 1.251l6.911-6.911a3.273 3.273 0 0 1 4.629 4.629l-8.657 8.657a1.194 1.194 0 1 1-1.689-1.689l8.255-8.255a.884.884 0 0 0-1.251-1.251l-8.255 8.255a2.963 2.963 0 0 0 4.191 4.191l8.657-8.657a5.039 5.039 0 0 0 0-7.13z" data-name="Path 12063" transform="translate(-33.184)"/>
        </g>
    </g>
</svg>
