<svg xmlns="http://www.w3.org/2000/svg" width="70" height="70" viewBox="0 0 70 70">
  <g id="audioMute" transform="translate(0.335)">
    <circle id="Ellipse_13" data-name="Ellipse 13" cx="35" cy="35" r="35" transform="translate(-0.335)" opacity="0.3"/>
    <g id="audioMute-3" transform="translate(22.965 19.101)">
      <g id="mic" transform="translate(2.697)">
        <g id="Group_20971" transform="translate(3.135)">
          <g id="Group_20970">
            <g id="Path_11339">
              <path id="Path_11614" data-name="Path 11614" d="M9.5,11.3v4.3a4.225,4.225,0,0,1-4.2,4.2h0a4.157,4.157,0,0,1-3-1.3L.8,20h0a6.837,6.837,0,0,0,4.4,1.9h0a6.231,6.231,0,0,0,6.2-6.2V9.3Zm1.9-7.1A6.134,6.134,0,0,0,9.7.8,6.524,6.524,0,0,0,5.2-1,6.253,6.253,0,0,0-1,5.3V15.6a3.4,3.4,0,0,0,.1,1l1.9-2V5.3A4.247,4.247,0,0,1,5.2,1,4.247,4.247,0,0,1,9.4,5.3v.8Z" transform="translate(1 1)" fill="#fff"/>
            </g>
          </g>
        </g>
        <g id="Group_21120" transform="translate(0 14.776)">
          <g id="Group_20973" transform="translate(8.287 10.214)">
            <g id="Group_20972">
              <g id="Rectangle_1791">
                <rect id="Rectangle_1846" data-name="Rectangle 1846" width="2.2" height="4.9" fill="#fff"/>
              </g>
            </g>
          </g>
          <g id="Group_20975" transform="translate(5.409 14.039)">
            <g id="Group_20974">
              <g id="Path_11340">
                <path id="Path_11615" data-name="Path 11615" d="M6.8,0H1.1A1.11,1.11,0,0,0,0,1.1,1.182,1.182,0,0,0,1.1,2.2H6.9A1.11,1.11,0,0,0,8,1.1,1.278,1.278,0,0,0,6.8,0Z" fill="#fff"/>
              </g>
            </g>
          </g>
          <g id="Group_20977">
            <g id="Group_20976">
              <g id="Path_11341">
                <path id="Path_11616" data-name="Path 11616" d="M2.4,3.6.6,5.3A9.191,9.191,0,0,1,0,2V1.1A1.11,1.11,0,0,1,1.1,0,1.11,1.11,0,0,1,2.2,1.1V2A8.752,8.752,0,0,0,2.4,3.6Z" fill="#fff"/>
                <path id="Path_11617" data-name="Path 11617" d="M18.8,1.1V2a9.391,9.391,0,0,1-8.3,9.2c-.3,0-.7.1-1,.1a4.869,4.869,0,0,1-1.2-.1A10.189,10.189,0,0,1,2.7,8.5L4.2,7A6.934,6.934,0,0,0,9.4,9.2,7.17,7.17,0,0,0,16.6,2V1.1a1.1,1.1,0,0,1,2.2,0Z" fill="#fff"/>
              </g>
            </g>
          </g>
        </g>
      </g>
      <g id="Line_67" transform="translate(0 3.8)">
        <path id="Path_11618" data-name="Path 11618" d="M861.2,778.2l-5.1,5.1-9.2,9.3-1.4,1.4h0l-.8.7-1.5,1.5-4,4-1.4-1.4,4.1-4.2,14.2-14.1,3.7-3.7Z" transform="translate(-837.8 -776.8)" fill="#fff"/>
      </g>
    </g>
  </g>
</svg>
