<svg id="Layer_1" data-name="Layer 1" xmlns="http://www.w3.org/2000/svg" viewBox="0 0 100 100"><defs><style>.file1{fill:#e2e5e7;}.file2{fill:#b0b7bd;}.file3{fill:#cad1d8;}.file4{fill:#50bee8;}.file5{fill:#fff;}</style></defs><path class="file1" d="M23.29-.21A6.27,6.27,0,0,0,17,6V93.62a6.27,6.27,0,0,0,6.25,6.25H85.84a6.27,6.27,0,0,0,6.26-6.25V24.81l-25-25Z"/><path class="file2" d="M73.33,24.81H92.1l-25-25V18.55A6.27,6.27,0,0,0,73.33,24.81Z"/><polygon class="file3" points="92.1 43.57 73.33 24.81 92.1 24.81 92.1 43.57"/><path class="file4" d="M79.59,81.11a3.13,3.13,0,0,1-3.13,3.12H7.65a3.12,3.12,0,0,1-3.12-3.12V49.83A3.13,3.13,0,0,1,7.65,46.7H76.46a3.14,3.14,0,0,1,3.13,3.13Z"/><path class="file5" d="M21.18,63.87v9.26a1.72,1.72,0,0,1-1.8,1.72,1.54,1.54,0,0,1-1.5-1.72V59.05a1.67,1.67,0,0,1,1.5-1.73,2.06,2.06,0,0,1,1.57.9l5.51,7.43,5.7-7.7A1.62,1.62,0,0,1,35,59.05V73.13a1.55,1.55,0,0,1-1.5,1.72,1.57,1.57,0,0,1-1.61-1.72V63.87l-4.15,5.26a1.63,1.63,0,0,1-2.84,0Z"/><path class="file5" d="M39.38,59.05a1.72,1.72,0,0,1,1.7-1.73h5.78a6.25,6.25,0,0,1,0,12.5H42.68v3.31a1.57,1.57,0,0,1-1.6,1.72,1.68,1.68,0,0,1-1.7-1.72V59.05Zm3.3,1.42V66.7h4.17a3.12,3.12,0,0,0,0-6.23Z"/><path class="file5" d="M61.23,60.67H57a1.56,1.56,0,0,1,0-3.12H64.6a1.64,1.64,0,0,1,1.11,2.88L61.56,64.3A4.94,4.94,0,0,1,67,69.15c0,3.08-2.18,5.7-6.76,5.7a5.91,5.91,0,0,1-5.12-2.62c-1.2-1.78,1.37-3.48,2.72-1.73a3.49,3.49,0,0,0,2.83,1.28c1.52,0,3-.65,3-2.63,0-2.6-3.17-2.2-4.9-2a1.63,1.63,0,0,1-1.5-2.83Z"/><path class="file3" d="M76.46,84.23H17v3.13H76.46a3.14,3.14,0,0,0,3.13-3.13V81.11A3.13,3.13,0,0,1,76.46,84.23Z"/></svg>
