<?xml version="1.0" encoding="utf-8"?>
<!-- Generator: Adobe Illustrator 24.1.3, SVG Export Plug-In . SVG Version: 6.00 Build 0)  -->
<svg version="1.1" id="Layer_1" xmlns="http://www.w3.org/2000/svg" xmlns:xlink="http://www.w3.org/1999/xlink" x="0px" y="0px"
	 viewBox="0 0 100 100" style="enable-background:new 0 0 100 100;" xml:space="preserve">
<g id="notification" transform="translate(-30.837 0.15)">
	<path id="Path_11275" class="bell0" d="M111.5,51.3V42c0-13.3-8.7-25-21.4-28.8V9c0.2-4.8-3.5-8.9-8.3-9.2c-4.8-0.2-8.9,3.5-9.2,8.3
		c0,0.3,0,0.6,0,0.8v4.2C60,17.1,51.3,28.8,51.3,42v9.3c0,11.9-4.6,23.3-12.8,31.8c-1.1,1.2-1.1,3,0.1,4.1c0.5,0.5,1.3,0.8,2,0.8
		h26.5c1.6,7.9,9.3,13,17.2,11.4C90,98.2,94.5,93.8,95.7,88h26.5c1.6,0,2.9-1.3,2.9-2.9c0-0.8-0.3-1.5-0.8-2
		C116.1,74.6,111.5,63.2,111.5,51.3z M78.5,9c0-1.6,1.3-2.9,2.9-2.9s2.9,1.3,2.9,2.9v3.1c-1-0.1-1.9-0.1-2.9-0.1s-2,0-2.9,0.1V9z
		 M81.4,93.9c-3.7,0-7-2.3-8.2-5.8h16.5C88.4,91.6,85.1,93.9,81.4,93.9L81.4,93.9z M46.9,82.3c6.7-8.9,10.3-19.8,10.2-30.9V42
		c0-13.4,10.9-24.3,24.3-24.3s24.3,10.9,24.3,24.3v9.3c0,11.1,3.6,22,10.2,30.9L46.9,82.3z"/>
</g>
</svg>
