<svg xmlns="http://www.w3.org/2000/svg" width="14.906" height="20" viewBox="0 0 14.906 20">
    <defs>
        <style>
            .prefix__cls-2{fill:#203061}
        </style>
    </defs>
    <g id="prefix__bin" opacity="0.4" transform="translate(-52.016)">
        <g id="prefix__Group_22439" data-name="Group 22439" transform="translate(52.016)">
            <path id="prefix__Path_16091" d="M74.714 113.633a1.007 1.007 0 0 0 1.006.965h9.4a1.007 1.007 0 0 0 1.006-.965l.671-14.165H74.043zm7.829-10.647a.409.409 0 0 1 .409-.409h.654a.409.409 0 0 1 .409.409v8.093a.409.409 0 0 1-.409.409h-.654a.409.409 0 0 1-.409-.409zm-2.861 0a.409.409 0 0 1 .409-.409h.654a.409.409 0 0 1 .409.409v8.093a.409.409 0 0 1-.409.409h-.654a.409.409 0 0 1-.409-.409v-8.093zm-2.861 0a.409.409 0 0 1 .409-.409h.654a.409.409 0 0 1 .409.409v8.093a.409.409 0 0 1-.409.409h-.654a.409.409 0 0 1-.409-.409z" class="prefix__cls-2" data-name="Path 16091" transform="translate(-72.965 -94.598)"/>
            <path id="prefix__Path_16092" d="M66.291 1.03h-4.335V.211A.211.211 0 0 0 61.745 0h-4.552a.211.211 0 0 0-.211.211v.819h-4.334a.632.632 0 0 0-.632.632v1.984h14.906V1.662a.632.632 0 0 0-.631-.632z" class="prefix__cls-2" data-name="Path 16092" transform="translate(-52.016)"/>
        </g>
    </g>
</svg>
