<svg xmlns="http://www.w3.org/2000/svg" width="50" height="42.155" viewBox="0 0 50 42.155">
    <defs>
        <style>
            .cls-1{fill:#8cc178}
        </style>
    </defs>
    <g id="book_3_" data-name="book (3)" transform="translate(0 -40.166)">
        <path id="Path_16189" d="M48.535 49.58h-4.811v-7.949a1.465 1.465 0 0 0-2.12-1.31L25 48.623l-16.6-8.3a1.465 1.465 0 0 0-2.12 1.31v7.947H1.465A1.465 1.465 0 0 0 0 51.045v29.811a1.465 1.465 0 0 0 1.465 1.465h47.07A1.465 1.465 0 0 0 50 80.856V51.045a1.465 1.465 0 0 0-1.465-1.465zM2.93 79.392V52.51h3.346v19.717a1.465 1.465 0 0 0 .81 1.31l11.709 5.855zm20.605-.905L9.206 71.322V44l14.329 7.165zm2.93-27.32L40.794 44v27.32l-14.329 7.166zM47.07 79.392H31.205l11.709-5.855a1.465 1.465 0 0 0 .81-1.31V52.51h3.346z" class="cls-1" data-name="Path 16189"/>
        <path id="Path_16190" d="M129.336 153.382l4.681 2.341a1.457 1.457 0 0 0 1.3-2.606l-4.681-2.341a1.457 1.457 0 0 0-1.3 2.606z" class="cls-1" data-name="Path 16190" transform="translate(-115.966 -99.661)"/>
        <path id="Path_16191" d="M129.336 231.708l4.681 2.341a1.457 1.457 0 1 0 1.3-2.606l-4.681-2.341a1.457 1.457 0 1 0-1.3 2.606z" class="cls-1" data-name="Path 16191" transform="translate(-115.966 -170.332)"/>
        <path id="Path_16192" d="M129.336 310.032l4.681 2.341a1.457 1.457 0 1 0 1.3-2.606l-4.681-2.341a1.457 1.457 0 0 0-1.3 2.606z" class="cls-1" data-name="Path 16192" transform="translate(-115.966 -241.001)"/>
        <path id="Path_16193" d="M310.751 150.776l-4.681 2.341a1.457 1.457 0 1 0 1.3 2.606l4.681-2.341a1.457 1.457 0 0 0-1.3-2.606z" class="cls-1" data-name="Path 16193" transform="translate(-275.423 -99.661)"/>
        <path id="Path_16194" d="M310.751 229.1l-4.681 2.341a1.457 1.457 0 1 0 1.3 2.606l4.681-2.341a1.457 1.457 0 0 0-1.3-2.606z" class="cls-1" data-name="Path 16194" transform="translate(-275.423 -170.331)"/>
        <path id="Path_16195" d="M310.751 307.426l-4.681 2.341a1.457 1.457 0 1 0 1.3 2.606l4.681-2.341a1.457 1.457 0 0 0-1.3-2.606z" class="cls-1" data-name="Path 16195" transform="translate(-275.423 -241.001)"/>
    </g>
</svg>
