<svg id="Layer_1" data-name="Layer 1" xmlns="http://www.w3.org/2000/svg" viewBox="0 0 100 100"><defs><style>.cls-1{opacity:0.15;}.cls-2{fill:#bec9dc;}.cls-3{fill:#f1f1f2;}.cls-4{fill:#99aab7;}.cls-5,.cls-8{fill:#e0e3e9;}.cls-6{fill:#2b374f;}.cls-7{fill:#fff;}.cls-7,.cls-8{stroke:#99aab7;stroke-miterlimit:10;}</style></defs><g id="Group_21823" data-name="Group 21823" class="cls-1"><path id="Path_12091" data-name="Path 12091" class="cls-2" d="M63.81,14.1c-8.6,4.5-4,20.3-14.9,25.7-2.3,1.1-8.4,3.3-14.2,1.2-3.4-1.2-4.8-3.1-9.2-4a24.23,24.23,0,0,0-8.7,0C7.21,39.1.41,49.6.21,59,0,67.6,5.41,73.6,11,79.7A52.62,52.62,0,0,0,35,95.2c4.2,1.3,18.6,5.4,34.5-1.7,20.1-9.1,26-28.9,27-32.3,1.5-5.5,5-18.2-1.8-30.4S72.11,9.9,63.81,14.1Z"/></g><g id="Group_21824" data-name="Group 21824"><path id="Path_12092" data-name="Path 12092" class="cls-3" d="M51.68,61.26c17.7.5,38.8,6,38.9,11.2S69,83.66,49.48,83.66s-41.2-5.9-41.1-11.2,21-10.7,38.6-11.2A36.84,36.84,0,0,1,51.68,61.26Z"/><path id="Path_12093" data-name="Path 12093" class="cls-4" d="M49.48,84a114.07,114.07,0,0,1-24.7-2.8c-7.7-1.8-13.4-4.2-15.7-6.5a3.46,3.46,0,0,1-1.2-2.4c.1-5.7,21.5-11.1,39-11.6h4.7a115.72,115.72,0,0,1,26.1,3.8c4.9,1.4,13.1,4.2,13.2,7.8a3.46,3.46,0,0,1-1.2,2.4c-2.3,2.3-8,4.6-15.6,6.4A106.77,106.77,0,0,1,49.48,84Zm-.1-22.4H47a113.91,113.91,0,0,0-25.8,3.8c-7.8,2.2-12.4,4.8-12.5,7a2.59,2.59,0,0,0,.9,1.8c4.2,4.2,22,9,39.8,9h0c16.2,0,35.1-4.3,39.8-9a2.59,2.59,0,0,0,.9-1.8c0-2.2-4.7-4.8-12.6-7a110.94,110.94,0,0,0-25.9-3.8A16.08,16.08,0,0,1,49.38,61.56Z"/></g><g id="Group_21842" data-name="Group 21842"><path id="Path_12115" data-name="Path 12115" class="cls-5" d="M5.54,33.74a4.57,4.57,0,0,1,4.7-4.4,4.57,4.57,0,0,1,4.7,4.4"/></g><g id="Group_21843" data-name="Group 21843"><path id="Path_12116" data-name="Path 12116" class="cls-5" d="M16.42,33.74a4.57,4.57,0,0,1,4.7-4.4,4.57,4.57,0,0,1,4.7,4.4"/></g><g id="Group_21844" data-name="Group 21844"><path id="Path_12117" data-name="Path 12117" class="cls-5" d="M11.75,33.78c0-4,2.3-7.2,5-7.2s5,3.2,5,7.2"/></g><g id="Group_21842-2" data-name="Group 21842"><path id="Path_12115-2" data-name="Path 12115" class="cls-5" d="M72.39,92.47a4.71,4.71,0,0,1,9.4,0"/></g><g id="Group_21843-2" data-name="Group 21843"><path id="Path_12116-2" data-name="Path 12116" class="cls-5" d="M83.28,92.47a4.71,4.71,0,0,1,9.4,0"/></g><g id="Group_21844-2" data-name="Group 21844"><path id="Path_12117-2" data-name="Path 12117" class="cls-5" d="M78.61,92.51c0-4,2.3-7.2,5-7.2s5,3.2,5,7.2"/></g><g id="Group_21848" data-name="Group 21848"><path id="Path_12121" data-name="Path 12121" class="cls-5" d="M83.11,9.66a5.51,5.51,0,0,1,11,0"/></g><g id="Group_21849" data-name="Group 21849" class="cls-1"><circle id="Ellipse_264" data-name="Ellipse 264" class="cls-5" cx="83.28" cy="38.98" r="2.2"/><path id="Path_12122" data-name="Path 12122" class="cls-6" d="M83.28,41.28a2.84,2.84,0,0,1-1.7-.7,2.19,2.19,0,0,1-.7-1.7,2.84,2.84,0,0,1,.7-1.7,2.19,2.19,0,0,1,1.7-.7,2.46,2.46,0,0,1,2.4,2.5,2.41,2.41,0,0,1-.7,1.7A1.75,1.75,0,0,1,83.28,41.28Zm0-4.2a2.11,2.11,0,0,0-1.3.5,1.84,1.84,0,1,0,2.6,0A1.54,1.54,0,0,0,83.28,37.08Z"/></g><g id="Group_21850" data-name="Group 21850" class="cls-1"><circle id="Ellipse_265" data-name="Ellipse 265" class="cls-5" cx="12.64" cy="94.95" r="2.2"/><path id="Path_12123" data-name="Path 12123" class="cls-6" d="M12.64,97.35a2.46,2.46,0,0,1-2.4-2.5,2.41,2.41,0,0,1,.7-1.7h0a2.19,2.19,0,0,1,1.7-.7A2.46,2.46,0,0,1,15,95a2.41,2.41,0,0,1-.7,1.7A2.06,2.06,0,0,1,12.64,97.35Zm-1.2-3.7a1.84,1.84,0,1,0,2.6,0,1.73,1.73,0,0,0-2.4-.2Z"/></g><g id="Group_21854" data-name="Group 21854" class="cls-1"><circle id="Ellipse_269" data-name="Ellipse 269" class="cls-5" cx="21.75" cy="14.85" r="1.3"/><path id="Path_12127" data-name="Path 12127" class="cls-6" d="M21.75,16.45a1.62,1.62,0,0,1-1.6-1.4,1.59,1.59,0,0,1,1.4-1.8h0a1.61,1.61,0,1,1,.4,3.2h-.2Zm-.1-2.6a1,1,0,1,0,1.1.9A1,1,0,0,0,21.65,13.85Z"/></g><rect class="cls-7" x="30.23" y="26.66" width="38.3" height="47.49" rx="4.03"/><rect class="cls-8" x="26.45" y="49.77" width="8.04" height="4.96" rx="2.48"/><rect class="cls-8" x="26.45" y="41.31" width="8.04" height="4.96" rx="2.48"/><rect class="cls-8" x="26.45" y="58.21" width="8.04" height="4.96" rx="2.48"/><rect class="cls-5" x="38" y="33.74" width="23.62" height="5.45"/><rect class="cls-5" x="38" y="43.17" width="23.62" height="23.96"/><path class="cls-8" d="M61.89,41.11l-2.43-1.86a1.16,1.16,0,0,0-1.39,0l-2.43,1.86a.57.57,0,0,1-.9-.45v-14h8v14A.57.57,0,0,1,61.89,41.11Z"/></svg>
