<?xml version="1.0" encoding="utf-8"?>
<!-- Generator: Adobe Illustrator 24.1.1, SVG Export Plug-In . SVG Version: 6.00 Build 0)  -->
<svg version="1.1" id="Layer_1" xmlns="http://www.w3.org/2000/svg" xmlns:xlink="http://www.w3.org/1999/xlink" x="0px" y="0px"
	 viewBox="0 0 100 100" style="enable-background:new 0 0 100 100;" xml:space="preserve">
<style type="text/css">
	.end0{fill:#FF385C;}
	.end1{fill:#FFFFFF;}
</style>
<g id="callEnd" transform="translate(0.335)">
	<g id="Ellipse_11">
		<circle class="end0" cx="49.7" cy="50" r="50"/>
	</g>
	<g id="phone_1_" transform="translate(56.34 35.163) rotate(135)">
		<g id="Group_20969" transform="translate(0 0)">
			<g id="Path_11338">
				<path class="end1" d="M11.8-21.7c0.6,0.6,1,1.3,1.3,2.1c1,2.8-0.6,5.9-3.4,6.9c-1.3,0.4-2,1.7-1.6,3C9-5.9,14.3-0.7,18.2,0.3
					c1.2,0.3,2.6-0.4,3-1.7c0.3-0.8,0.7-1.5,1.3-2.1c1-1,2.4-1.5,3.8-1.5c1.4,0,2.8,0.6,3.8,1.6l6,6c2,2.2,2,5.5,0,7.7l-4.1,4.1
					C27.2,19.4,15.3,14.9,4.4,4c0,0,0,0,0,0C-6.3-6.8-10.8-18.6-6.1-23.6l4.1-4.1c2.2-2.1,5.5-2.1,7.7,0L11.8-21.7
					C11.8-21.7,11.8-21.7,11.8-21.7z M10-1.6c-2.3-2.3-4.1-5-4.6-7.4c-0.7-2.7,0.8-5.5,3.5-6.4c1.3-0.4,2-1.9,1.6-3.2
					c-0.1-0.4-0.4-0.7-0.6-1l-6-6c-1-1-2.7-1-3.8,0l-4,4C-7.1-18.4-3.6-8.1,6.4,2c0,0,0,0,0,0c10.2,10.2,20.4,13.6,23.6,10.5
					l4.1-4.1c1-1,1-2.7,0-3.8l-6-6c-0.5-0.5-1.1-0.8-1.8-0.8c-0.7,0-1.3,0.2-1.8,0.7c-0.3,0.3-0.5,0.6-0.6,1c-1,2.6-3.7,4.1-6.4,3.5
					C15,2.5,12.3,0.6,10-1.6z"/>
			</g>
		</g>
	</g>
</g>
</svg>
