<?xml version="1.0" encoding="utf-8"?>
<!-- Generator: Adobe Illustrator 24.2.2, SVG Export Plug-In . SVG Version: 6.00 Build 0)  -->
<svg version="1.1" id="Layer_1" xmlns="http://www.w3.org/2000/svg" xmlns:xlink="http://www.w3.org/1999/xlink" x="0px" y="0px"
	 viewBox="0 0 100 100" style="enable-background:new 0 0 100 100;" xml:space="preserve">
<g id="chat" transform="translate(-0.001 1.332)">
	<path id="Path_16110" d="M86.3,2.7H13.7C6.2,2.7,0,8.8,0,16.4v44.4c0,7.6,6.1,13.7,13.7,13.7v20.1l28.9-20.1h43.6
		c7.6,0,13.7-6.1,13.7-13.7V16.4C100,8.8,93.8,2.7,86.3,2.7L86.3,2.7z M94.1,60.8c0,4.4-3.5,7.9-7.9,7.9H40.8L19.6,83.5V68.7h-5.8
		c-4.4,0-7.9-3.5-7.9-7.9V16.4c0-4.4,3.5-7.9,7.9-7.9h72.5c4.4,0,7.9,3.5,7.9,7.9V60.8z"/>
	<path id="Path_16111" d="M25.7,23.3h48.6v6.1H25.7V23.3z"/>
	<path id="Path_16112" d="M25.7,35.8h48.6v6.1H25.7V35.8z"/>
	<path id="Path_16113" d="M25.7,48.2h48.6v6.1H25.7V48.2z"/>
</g>
</svg>
