<svg xmlns="http://www.w3.org/2000/svg" width="14.773" height="13.815" viewBox="0 0 14.773 13.815">
    <path fill="#656565" stroke="#656565" stroke-width="0.4px" d="M12.936 2H1.437A1.457 1.457 0 0 0 0 3.437v7.905a1.457 1.457 0 0 0 1.437 1.438h1.917v2.4a.24.24 0 0 0 .153.224.24.24 0 0 0 .264-.062l2.324-2.562h6.841a1.457 1.457 0 0 0 1.437-1.437V3.437A1.457 1.457 0 0 0 12.936 2zm.958 9.342a.971.971 0 0 1-.958.958H6.511l.857-1A.24.24 0 0 0 7 10.992l-1.2 1.392-1.967 2.172V12.54a.24.24 0 0 0-.24-.24H1.437a.971.971 0 0 1-.958-.958V3.437a.971.971 0 0 1 .958-.958h11.5a.971.971 0 0 1 .958.958z" transform="translate(.2 -1.8)"/>
</svg>
