<svg xmlns="http://www.w3.org/2000/svg" width="160" height="160" viewBox="0 0 160 160">
  <g id="chemistry" transform="translate(-583 -359)">
    <rect id="Rectangle_2523" data-name="Rectangle 2523" width="160" height="160" rx="40" transform="translate(583 359)" fill="#4cc1b7" opacity="0.2"/>
    <g id="chemistry-2" data-name="chemistry" transform="translate(635.884 409.429)">
      <path id="Path_15708" data-name="Path 15708" d="M161.194,35.907a58.043,58.043,0,0,1-8.513,1.013,20.105,20.105,0,0,0-7.842,1.921,13.358,13.358,0,0,1-12.576,0l-1.377-4.158,5.9-8.77V3.494h-3.528V0H157.98V3.494h-3.533v22.42Z" transform="translate(-118.791)" fill="#92ece4"/>
      <path id="Union_5" data-name="Union 5" d="M19.4-3792.374H-23.693a5.3,5.3,0,0,1-4.677-2.8,5.139,5.139,0,0,1,.316-5.348l9.281-13.906h.036l1.935-2.9,1.371.663a16.1,16.1,0,0,0,6.257,1.572,16.1,16.1,0,0,0,6.26-1.564c.045-.023.464-.229,1.141-.5v-.022a18.983,18.983,0,0,1,6.623-1.4h.042a19.891,19.891,0,0,1,8.472,2.481c.385.567-.4-.625,3.412,5.1l7.031,10.481a5.247,5.247,0,0,1,.876,2.594,5.184,5.184,0,0,1-.05,1.114,5.142,5.142,0,0,1-.546,1.64,5.3,5.3,0,0,1-4.677,2.8Z" transform="translate(28.973 3852.367)" fill="#4cc1b7"/>
      <ellipse id="Ellipse_1675" data-name="Ellipse 1675" cx="2.5" cy="3" rx="2.5" ry="3" transform="translate(15.253 43.971)" fill="#92ece4"/>
      <ellipse id="Ellipse_1676" data-name="Ellipse 1676" cx="1.5" cy="2" rx="1.5" ry="2" transform="translate(30.379 39.922)" fill="#92ece4"/>
      <circle id="Ellipse_1677" data-name="Ellipse 1677" cx="1" cy="1" r="1" transform="translate(35.417 51.063)" fill="#92ece4"/>
      <ellipse id="Ellipse_1678" data-name="Ellipse 1678" cx="3" cy="2.5" rx="3" ry="2.5" transform="translate(24.34 23.784)" fill="#e2faf8"/>
      <ellipse id="Ellipse_1679" data-name="Ellipse 1679" cx="1" cy="0.5" rx="1" ry="0.5" transform="translate(30.374 12.677)" fill="#e2faf8"/>
    </g>
  </g>
</svg>
