<?xml version="1.0" encoding="utf-8"?>
<!-- Generator: Adobe Illustrator 24.1.2, SVG Export Plug-In . SVG Version: 6.00 Build 0)  -->
<svg version="1.1" id="Layer_1" xmlns="http://www.w3.org/2000/svg" xmlns:xlink="http://www.w3.org/1999/xlink" x="0px" y="0px"
	 viewBox="0 0 100 100" style="enable-background:new 0 0 100 100;" xml:space="preserve">
<style type="text/css">
	.close0{fill:#585E6B;}
</style>
<path id="close" class="close0" d="M59.2,50l38.9-38.9c2.5-2.5,2.5-6.6,0-9.2c-2.5-2.5-6.6-2.5-9.2,0c0,0,0,0,0,0L50,40.8L11.1,1.9
	c-2.5-2.5-6.6-2.5-9.2,0s-2.5,6.6,0,9.2l0,0L40.8,50L1.9,88.9c-2.5,2.5-2.5,6.6,0,9.2s6.6,2.5,9.2,0l0,0L50,59.1l38.9,38.9
	c2.5,2.5,6.6,2.5,9.2,0c2.5-2.5,2.5-6.6,0-9.2L59.2,50z"/>
</svg>
