<svg xmlns="http://www.w3.org/2000/svg" width="482" height="359.195" viewBox="0 0 482 359.195">
  <g id="coming_soon" data-name="coming soon" transform="translate(0 -54.953)">
    <g id="Background_Complete" data-name="Background Complete" transform="translate(0 54.953)">
      <g id="Group_22106" data-name="Group 22106">
        <g id="Group_22104" data-name="Group 22104">
          <rect id="Rectangle_2569" data-name="Rectangle 2569" width="482" height="0.241" transform="translate(0 315.657)" fill="#ebebeb"/>
          <path id="Path_15833" data-name="Path 15833" d="M229.857,327.617H43.71a5.509,5.509,0,0,1-5.5-5.5V60.455a5.508,5.508,0,0,1,5.5-5.5H229.857a5.508,5.508,0,0,1,5.5,5.5v261.66A5.509,5.509,0,0,1,229.857,327.617ZM43.71,55.194a5.267,5.267,0,0,0-5.262,5.261v261.66a5.267,5.267,0,0,0,5.262,5.261H229.857a5.267,5.267,0,0,0,5.261-5.261V60.455a5.266,5.266,0,0,0-5.261-5.261Z" transform="translate(-1.375 -54.953)" fill="#ebebeb"/>
          <path id="Path_15834" data-name="Path 15834" d="M446.153,327.617H260.007a5.508,5.508,0,0,1-5.5-5.5V60.455a5.508,5.508,0,0,1,5.5-5.5H446.153a5.509,5.509,0,0,1,5.5,5.5v261.66A5.509,5.509,0,0,1,446.153,327.617ZM260.007,55.194a5.266,5.266,0,0,0-5.261,5.261v261.66a5.267,5.267,0,0,0,5.261,5.261H446.153a5.268,5.268,0,0,0,5.263-5.261V60.455a5.268,5.268,0,0,0-5.263-5.261Z" transform="translate(-9.162 -54.953)" fill="#ebebeb"/>
        </g>
        <g id="Group_22105" data-name="Group 22105" transform="translate(50.57 322.222)">
          <rect id="Rectangle_2570" data-name="Rectangle 2570" width="25.061" height="0.241" transform="translate(117.587 2.616)" fill="#ebebeb"/>
          <rect id="Rectangle_2571" data-name="Rectangle 2571" width="52.154" height="0.241" transform="translate(0 0)" fill="#ebebeb"/>
          <rect id="Rectangle_2572" data-name="Rectangle 2572" width="25.37" height="0.241" transform="translate(91.253 11.568)" fill="#ebebeb"/>
          <rect id="Rectangle_2573" data-name="Rectangle 2573" width="37.434" height="0.241" transform="translate(198.36 9.948)" fill="#ebebeb"/>
          <rect id="Rectangle_2574" data-name="Rectangle 2574" width="10.309" height="0.241" transform="translate(244.377 9.948)" fill="#ebebeb"/>
          <rect id="Rectangle_2575" data-name="Rectangle 2575" width="52.592" height="0.241" transform="translate(330.543 5.878)" fill="#ebebeb"/>
        </g>
      </g>
      <g id="Group_22114" data-name="Group 22114" transform="translate(67.784 25.769)">
        <g id="Group_22108" data-name="Group 22108" transform="translate(93.098 152.937)">
          <g id="Group_22107" data-name="Group 22107" transform="translate(5.864 7.442)">
            <rect id="Rectangle_2576" data-name="Rectangle 2576" width="44.008" height="120.956" transform="translate(244.604 120.956) rotate(180)" fill="#f0f0f0"/>
            <rect id="Rectangle_2577" data-name="Rectangle 2577" width="227.704" height="8.553" transform="translate(236.154 129.51) rotate(180)" fill="#f0f0f0"/>
            <rect id="Rectangle_2578" data-name="Rectangle 2578" width="200.595" height="120.956" fill="#f5f5f5"/>
            <rect id="Rectangle_2579" data-name="Rectangle 2579" width="201.366" height="44.272" transform="translate(0 8.188)" fill="#f0f0f0"/>
            <rect id="Rectangle_2580" data-name="Rectangle 2580" width="201.366" height="44.272" transform="translate(0 60.535)" fill="#f0f0f0"/>
            <rect id="Rectangle_2581" data-name="Rectangle 2581" width="7.613" height="44.272" transform="translate(208.208 52.46) rotate(180)" fill="#e6e6e6"/>
            <rect id="Rectangle_2582" data-name="Rectangle 2582" width="7.613" height="44.272" transform="translate(208.208 104.807) rotate(180)" fill="#e6e6e6"/>
          </g>
          <rect id="Rectangle_2583" data-name="Rectangle 2583" width="206.459" height="7.442" transform="translate(206.459 7.442) rotate(180)" fill="#f0f0f0"/>
          <rect id="Rectangle_2584" data-name="Rectangle 2584" width="50.159" height="7.442" transform="translate(206.459)" fill="#e6e6e6"/>
        </g>
        <g id="Group_22110" data-name="Group 22110" transform="translate(225.683)">
          <rect id="Rectangle_2585" data-name="Rectangle 2585" width="103.565" height="130.182" transform="translate(126.427 130.182) rotate(180)" fill="#f0f0f0"/>
          <rect id="Rectangle_2586" data-name="Rectangle 2586" width="122.459" height="130.182" transform="translate(122.459 130.182) rotate(180)" fill="#f5f5f5"/>
          <rect id="Rectangle_2587" data-name="Rectangle 2587" width="109.664" height="101.941" transform="translate(10.259 119.923) rotate(-90)" fill="#fff"/>
          <g id="Group_22109" data-name="Group 22109" transform="translate(30.46 50.577)">
            <path id="Path_15835" data-name="Path 15835" d="M379.652,160.634l19.482-9.032v-5.684l-19.482-9.047v6.8l11.84,5.1-11.84,5.1Z" transform="translate(-337.595 -134.248)" fill="#e6e6e6"/>
            <path id="Path_15836" data-name="Path 15836" d="M366.342,134.15h-3.561l6.308,29.028h3.526Z" transform="translate(-336.987 -134.15)" fill="#e6e6e6"/>
            <path id="Path_15837" data-name="Path 15837" d="M355.506,153.874l-11.84-5.1,11.84-5.1v-6.8l-19.482,9.047V151.6l19.482,9.032Z" transform="translate(-336.024 -134.248)" fill="#e6e6e6"/>
          </g>
        </g>
        <g id="Group_22111" data-name="Group 22111" transform="translate(0 15.407)">
          <rect id="Rectangle_2588" data-name="Rectangle 2588" width="6.789" height="220.926" transform="translate(51.999 274.481) rotate(180)" fill="#f0f0f0"/>
          <path id="Path_15838" data-name="Path 15838" d="M115.647,373.01l-.184-.948a5.368,5.368,0,0,0,3.206-2.805c1.765-3.125,2.838-9.782-2.07-23.745-7.562-21.51-3.048-38.869,5.943-73.454,1.566-6.024,3.341-12.852,5.183-20.223,6.909-27.636.518-44.778-4.618-58.551-3.987-10.692-7.135-19.136-3.105-28.919l.891.367c-3.885,9.433-.8,17.721,3.119,28.216,5.182,13.9,11.63,31.194,4.649,59.12-1.844,7.376-3.62,14.206-5.186,20.231-8.942,34.4-13.43,51.66-5.967,72.892,5.048,14.359,3.859,21.3,1.971,24.589A6.273,6.273,0,0,1,115.647,373.01Z" transform="translate(-71.844 -100.068)" fill="#f0f0f0"/>
          <path id="Path_15839" data-name="Path 15839" d="M107.992,382.248h24.569l-6.831-4.026H114.823Z" transform="translate(-71.672 -107.767)" fill="#f0f0f0"/>
          <path id="Path_15840" data-name="Path 15840" d="M70.315,179.357h97.21l-10.7-81.69H81.013Z" transform="translate(-70.315 -97.667)" fill="#f5f5f5"/>
        </g>
        <g id="Group_22113" data-name="Group 22113" transform="translate(121.144 33.703)">
          <path id="Path_15841" data-name="Path 15841" d="M219.879,196.376h51.9l-6.831,42.374H226.71Z" transform="translate(-196.843 -119.516)" fill="#f0f0f0"/>
          <g id="Group_22112" data-name="Group 22112">
            <path id="Path_15842" data-name="Path 15842" d="M239.869,209.133c14.152-5.123,24.993-12.814,12.866-28.375s-30.92-15.5-43.582-8.608c-16.14,8.781-12.9,34.176-12.9,34.176S225.719,214.254,239.869,209.133Z" transform="translate(-195.983 -118.484)" fill="#e0e0e0"/>
            <path id="Path_15843" data-name="Path 15843" d="M255.318,194.856c-10.829-7.369-18.5-15.908-5.941-24.91s28.052-4.387,37.363,3.977c11.867,10.662,5.019,29.373,5.019,29.373S266.147,202.225,255.318,194.856Z" transform="translate(-197.671 -118.388)" fill="#e6e6e6"/>
            <path id="Path_15844" data-name="Path 15844" d="M234.723,175.337c12.667-.768,23.289-4.072,17.291-17.793s-21.179-17.555-33.074-15.207C203.777,145.331,200.2,164.3,200.2,164.3S222.056,176.1,234.723,175.337Z" transform="translate(-196.135 -117.547)" fill="#f0f0f0"/>
            <path id="Path_15845" data-name="Path 15845" d="M251.976,167.174c-10.537-3.388-18.8-8.475-10.764-18.771s21.69-10.256,31.233-5.7c12.165,5.807,11.082,22.61,11.082,22.61S262.512,170.56,251.976,167.174Z" transform="translate(-197.495 -117.478)" fill="#ebebeb"/>
            <path id="Path_15846" data-name="Path 15846" d="M231.1,148.765c10.511,3.466,20.184,4.217,19.753-8.835s-11.494-21.061-21.89-23c-13.252-2.469-22.27,11.749-22.27,11.749S220.59,145.3,231.1,148.765Z" transform="translate(-196.369 -116.645)" fill="#f5f5f5"/>
            <path id="Path_15847" data-name="Path 15847" d="M259.236,143.381c-7.524.513-14.037-.625-11.548-9.169s11.145-11.961,18.334-11.484c9.166.609,12.717,11.518,12.717,11.518S266.76,142.868,259.236,143.381Z" transform="translate(-197.825 -116.863)" fill="#fafafa"/>
          </g>
        </g>
      </g>
    </g>
    <g id="Shadow" transform="translate(54.091 392.316)">
      <ellipse id="_Path_" data-name="&lt;Path&gt;" cx="186.909" cy="10.916" rx="186.909" ry="10.916" transform="translate(0 0)" fill="#f5f5f5"/>
    </g>
    <g id="Desk" transform="translate(76.647 105.769)">
      <g id="Group_22134" data-name="Group 22134">
        <g id="Group_22115" data-name="Group 22115" transform="translate(0 138.256)">
          <rect id="Rectangle_2589" data-name="Rectangle 2589" width="327.523" height="11.754" fill="#717171"/>
          <rect id="Rectangle_2590" data-name="Rectangle 2590" width="87.654" height="11.754" fill="#fff" opacity="0.3"/>
          <path id="Path_15848" data-name="Path 15848" d="M171.608,263.278h-7.629l4,147.277h7.267l4-147.277Z" transform="translate(-82.551 -251.524)" fill="#717171"/>
          <path id="Path_15849" data-name="Path 15849" d="M167.979,410.673h3.633V266.561l-7.506,1.372Z" transform="translate(-82.555 -251.643)" fill="#fff" opacity="0.3"/>
          <path id="Path_15850" data-name="Path 15850" d="M96.634,263.278H89.005l4,147.277h7.267l4-147.277Z" transform="translate(-79.852 -251.524)" fill="#717171"/>
          <path id="Path_15851" data-name="Path 15851" d="M93.006,410.673h3.633V266.561l-7.506,1.372Z" transform="translate(-79.856 -251.643)" fill="#fff" opacity="0.3"/>
          <path id="Path_15852" data-name="Path 15852" d="M401.569,263.278h-7.629l4,147.277H405.2l4-147.277Z" transform="translate(-90.829 -251.524)" fill="#717171"/>
          <path id="Path_15853" data-name="Path 15853" d="M397.941,410.673h3.633V266.561l-7.506,1.372Z" transform="translate(-90.834 -251.643)" fill="#fff" opacity="0.3"/>
          <path id="Path_15854" data-name="Path 15854" d="M326.6,263.278h-7.629l4,147.277h7.267l4-147.277Z" transform="translate(-88.13 -251.524)" fill="#717171"/>
          <path id="Path_15855" data-name="Path 15855" d="M322.967,410.673H326.6V266.561l-7.506,1.372Z" transform="translate(-88.135 -251.643)" fill="#fff" opacity="0.3"/>
        </g>
        <g id="Group_22118" data-name="Group 22118" transform="translate(73.41 75.348)">
          <path id="Path_15856" data-name="Path 15856" d="M237.717,185.829H159.792a4.014,4.014,0,0,0-4.02,5.086l10.378,49.5A6.627,6.627,0,0,0,172.3,245.5h77.925a4.014,4.014,0,0,0,4.02-5.086l-10.378-49.5A6.626,6.626,0,0,0,237.717,185.829Z" transform="translate(-155.662 -185.829)" fill="#263238"/>
          <path id="Path_15857" data-name="Path 15857" d="M173.126,242.723a4.613,4.613,0,0,1-4.161-3.468l-10.378-49.5a2.265,2.265,0,0,1,.361-1.931,2.084,2.084,0,0,1,1.668-.7h77.926a4.617,4.617,0,0,1,4.162,3.469l10.378,49.5a2.274,2.274,0,0,1-.361,1.931,2.061,2.061,0,0,1-1.669.7Z" transform="translate(-155.764 -185.875)" fill="#fff"/>
          <path id="Path_15858" data-name="Path 15858" d="M234.293,238.856l-9.833-46.9a1.911,1.911,0,0,1,1.87-2.3h12.644a1.909,1.909,0,0,1,1.869,1.518l9.833,46.9a1.91,1.91,0,0,1-1.869,2.3H236.162A1.91,1.91,0,0,1,234.293,238.856Z" transform="translate(-158.137 -185.967)" fill="#203061" opacity="0.4"/>
          <g id="Group_22116" data-name="Group 22116" transform="translate(8.887 5.721)">
            <path id="Path_15859" data-name="Path 15859" d="M165.307,193.8l-.426-2.034H180.5l.426,2.034Z" transform="translate(-164.88 -191.763)" fill="#203061"/>
            <path id="Path_15860" data-name="Path 15860" d="M172.784,199.032,172.358,197h27.373l.426,2.034Z" transform="translate(-165.15 -191.952)" fill="#ebebeb"/>
            <path id="Path_15861" data-name="Path 15861" d="M174.28,204.266l-.426-2.034h30.679l.426,2.034Z" transform="translate(-165.203 -192.14)" fill="#ebebeb"/>
            <path id="Path_15862" data-name="Path 15862" d="M175.775,209.5l-.426-2.034h24.7l.426,2.034Z" transform="translate(-165.257 -192.329)" fill="#ebebeb"/>
          </g>
          <g id="Group_22117" data-name="Group 22117" transform="translate(13.632 29.046)">
            <path id="Path_15863" data-name="Path 15863" d="M170.229,217.994l-.427-2.034h9.878l.426,2.034Z" transform="translate(-169.803 -215.96)" fill="#203061"/>
            <path id="Path_15864" data-name="Path 15864" d="M177.707,223.228l-.426-2.034h12.036l.426,2.034Z" transform="translate(-170.072 -216.148)" fill="#ebebeb"/>
            <path id="Path_15865" data-name="Path 15865" d="M193.182,223.228l-.426-2.034h12.036l.427,2.034Z" transform="translate(-170.629 -216.148)" fill="#ebebeb"/>
            <path id="Path_15866" data-name="Path 15866" d="M179.2,228.462l-.426-2.034h40.682l.426,2.034Z" transform="translate(-170.126 -216.337)" fill="#ebebeb"/>
            <path id="Path_15867" data-name="Path 15867" d="M180.7,233.7l-.426-2.034h31.018l.427,2.034Z" transform="translate(-170.18 -216.525)" fill="#ebebeb"/>
          </g>
          <path id="Path_15868" data-name="Path 15868" d="M274.538,247.422H172c-2.8,0-4.606,1.589-4.02,3.531H280.69C280.1,249.011,277.335,247.422,274.538,247.422Z" transform="translate(-156.101 -188.046)" fill="#263238"/>
        </g>
        <g id="Group_22130" data-name="Group 22130" transform="translate(45.746)">
          <path id="Path_15869" data-name="Path 15869" d="M136.838,171.009l-9.833-46.9a1.911,1.911,0,0,1,1.87-2.3h79.63a1.909,1.909,0,0,1,1.869,1.518l9.833,46.9a1.91,1.91,0,0,1-1.869,2.3H138.707A1.911,1.911,0,0,1,136.838,171.009Z" transform="translate(-126.964 -108.176)" fill="#203061" opacity="0.1"/>
          <g id="Group_22129" data-name="Group 22129" transform="translate(0.636)">
            <g id="Group_22123" data-name="Group 22123" transform="translate(17.666)">
              <g id="Group_22119" data-name="Group 22119" transform="translate(2.789 13.378)">
                <path id="Path_15870" data-name="Path 15870" d="M165.931,123.343H149.217l-.375-1.8h16.714Z" transform="translate(-148.842 -121.544)" fill="#203061"/>
                <path id="Path_15871" data-name="Path 15871" d="M163.485,126.318h-6.709l-.375-1.8h6.709Z" transform="translate(-149.114 -121.652)" fill="#203061" opacity="0.4"/>
                <path id="Path_15872" data-name="Path 15872" d="M174.93,126.318H164.593l-.375-1.8h10.337Z" transform="translate(-149.396 -121.652)" fill="#203061" opacity="0.4"/>
                <path id="Path_15873" data-name="Path 15873" d="M179.177,129.293H157.4l-.375-1.8H178.8Z" transform="translate(-149.137 -121.759)" fill="#203061" opacity="0.4"/>
                <path id="Path_15874" data-name="Path 15874" d="M176.428,132.267H158.016l-.375-1.8h18.411Z" transform="translate(-149.159 -121.866)" fill="#203061" opacity="0.4"/>
              </g>
              <path id="Path_15875" data-name="Path 15875" d="M189.361,163.949h-11.72l.375,1.8h11.72Z" transform="translate(-147.09 -109.693)" fill="#203061" opacity="0.4"/>
              <g id="Group_22120" data-name="Group 22120" transform="translate(10.115 48.52)">
                <path id="Path_15876" data-name="Path 15876" d="M173.983,159.8H156.817l-.375-1.8h17.166Z" transform="translate(-156.442 -157.999)" fill="#203061"/>
                <path id="Path_15877" data-name="Path 15877" d="M181.207,166.923H165.241l.375,1.8h15.966Z" transform="translate(-156.759 -158.32)" fill="#203061" opacity="0.4"/>
                <path id="Path_15878" data-name="Path 15878" d="M176.341,163.949h-11.72l.375,1.8h11.72Z" transform="translate(-156.737 -158.213)" fill="#203061" opacity="0.4"/>
                <path id="Path_15879" data-name="Path 15879" d="M187.441,160.974H164l.375,1.8h23.44Z" transform="translate(-156.714 -158.106)" fill="#203061" opacity="0.4"/>
              </g>
              <g id="Group_22121" data-name="Group 22121">
                <path id="Path_15880" data-name="Path 15880" d="M165.242,109.465H146.324l-.375-1.8h18.918Z" transform="translate(-145.949 -107.667)" fill="#203061"/>
                <path id="Path_15881" data-name="Path 15881" d="M174.867,116.591H154.011l.375,1.8h20.856Z" transform="translate(-146.239 -107.988)" fill="#203061" opacity="0.4"/>
                <path id="Path_15882" data-name="Path 15882" d="M170.672,113.616H153.391l.375,1.8h17.281Z" transform="translate(-146.217 -107.881)" fill="#203061" opacity="0.4"/>
                <path id="Path_15883" data-name="Path 15883" d="M171.8,110.642H152.771l.375,1.8h19.032Z" transform="translate(-146.195 -107.774)" fill="#203061" opacity="0.4"/>
              </g>
              <g id="Group_22122" data-name="Group 22122" transform="translate(5.555 26.648)">
                <path id="Path_15884" data-name="Path 15884" d="M165.231,137.108H152.087l-.375-1.8h13.144Z" transform="translate(-151.712 -135.309)" fill="#203061"/>
                <path id="Path_15885" data-name="Path 15885" d="M186.2,144.234H160.511l.375,1.8h25.686Z" transform="translate(-152.029 -135.631)" fill="#203061" opacity="0.4"/>
                <path id="Path_15886" data-name="Path 15886" d="M170.532,141.259H159.891l.375,1.8h10.641Z" transform="translate(-152.006 -135.524)" fill="#203061" opacity="0.4"/>
                <path id="Path_15887" data-name="Path 15887" d="M182.512,141.259H171.871l.375,1.8h10.641Z" transform="translate(-152.438 -135.524)" fill="#203061" opacity="0.4"/>
                <path id="Path_15888" data-name="Path 15888" d="M182.711,138.284h-23.44l.375,1.8h23.44Z" transform="translate(-151.984 -135.416)" fill="#203061" opacity="0.4"/>
                <path id="Path_15889" data-name="Path 15889" d="M182.777,153.158H162.372l.375,1.8h20.405Z" transform="translate(-152.096 -135.952)" fill="#203061" opacity="0.4"/>
                <path id="Path_15890" data-name="Path 15890" d="M167.685,150.184h-5.933l.375,1.8h5.933Z" transform="translate(-152.073 -135.845)" fill="#203061" opacity="0.4"/>
                <path id="Path_15891" data-name="Path 15891" d="M177.224,150.184h-8.47l.375,1.8h8.47Z" transform="translate(-152.326 -135.845)" fill="#203061" opacity="0.4"/>
                <path id="Path_15892" data-name="Path 15892" d="M184.571,147.209h-23.44l.375,1.8h23.44Z" transform="translate(-152.051 -135.738)" fill="#203061" opacity="0.4"/>
              </g>
            </g>
            <g id="Group_22127" data-name="Group 22127" transform="translate(65.435 20.493)">
              <g id="Group_22124" data-name="Group 22124" transform="translate(0 15.347)">
                <path id="Path_15893" data-name="Path 15893" d="M204.277,146.643h-8.4l-.375-1.8h8.4Z" transform="translate(-195.503 -144.845)" fill="#203061" opacity="0.4"/>
                <path id="Path_15894" data-name="Path 15894" d="M218.606,146.643H205.665l-.375-1.8h12.941Z" transform="translate(-195.855 -144.845)" fill="#203061" opacity="0.4"/>
                <path id="Path_15895" data-name="Path 15895" d="M223.767,149.618H196.5l-.375-1.8h27.269Z" transform="translate(-195.525 -144.952)" fill="#203061" opacity="0.4"/>
                <path id="Path_15896" data-name="Path 15896" d="M220.169,152.593H197.118l-.375-1.8h23.05Z" transform="translate(-195.547 -145.059)" fill="#203061" opacity="0.4"/>
              </g>
              <g id="Group_22125" data-name="Group 22125" transform="translate(2.127)">
                <path id="Path_15897" data-name="Path 15897" d="M230.774,134.875H204.662l.375,1.8h26.112Z" transform="translate(-197.959 -129.139)" fill="#203061" opacity="0.4"/>
                <path id="Path_15898" data-name="Path 15898" d="M225.677,131.9H204.042l.375,1.8h21.635Z" transform="translate(-197.937 -129.032)" fill="#203061" opacity="0.4"/>
                <path id="Path_15899" data-name="Path 15899" d="M221.537,128.925H197.709l.375,1.8h23.828Z" transform="translate(-197.709 -128.925)" fill="#203061"/>
              </g>
              <g id="Group_22126" data-name="Group 22126" transform="translate(2.766 28.616)">
                <path id="Path_15900" data-name="Path 15900" d="M231.771,164.559H199.613l.375,1.8h32.158Z" transform="translate(-198.417 -158.824)" fill="#203061" opacity="0.4"/>
                <path id="Path_15901" data-name="Path 15901" d="M212.315,161.585H198.993l.375,1.8H212.69Z" transform="translate(-198.395 -158.717)" fill="#203061" opacity="0.4"/>
                <path id="Path_15902" data-name="Path 15902" d="M227.314,161.585H213.991l.375,1.8h13.323Z" transform="translate(-198.935 -158.717)" fill="#203061" opacity="0.4"/>
                <path id="Path_15903" data-name="Path 15903" d="M227.718,158.61H198.372l.375,1.8h29.346Z" transform="translate(-198.372 -158.61)" fill="#203061" opacity="0.4"/>
                <path id="Path_15904" data-name="Path 15904" d="M227.02,173.484H201.473l.375,1.8H227.4Z" transform="translate(-198.484 -159.145)" fill="#203061" opacity="0.4"/>
                <path id="Path_15905" data-name="Path 15905" d="M208.281,170.509h-7.428l.375,1.8h7.428Z" transform="translate(-198.462 -159.038)" fill="#203061" opacity="0.4"/>
                <path id="Path_15906" data-name="Path 15906" d="M220.225,170.509h-10.6l.375,1.8h10.6Z" transform="translate(-198.777 -159.038)" fill="#203061" opacity="0.4"/>
                <path id="Path_15907" data-name="Path 15907" d="M229.579,167.534H200.233l.375,1.8h29.346Z" transform="translate(-198.439 -158.931)" fill="#203061" opacity="0.4"/>
              </g>
            </g>
            <g id="Group_22128" data-name="Group 22128" transform="translate(0 59.937)">
              <path id="Path_15908" data-name="Path 15908" d="M148.853,175.791H128.864l.375,1.8h19.989Z" transform="translate(-127.668 -170.056)" fill="#203061" opacity="0.4"/>
              <path id="Path_15909" data-name="Path 15909" d="M142.917,172.817H128.244l.375,1.8h14.673Z" transform="translate(-127.646 -169.949)" fill="#203061" opacity="0.4"/>
              <path id="Path_15910" data-name="Path 15910" d="M159.218,172.817H144.545l.375,1.8h14.673Z" transform="translate(-128.233 -169.949)" fill="#203061" opacity="0.4"/>
              <path id="Path_15911" data-name="Path 15911" d="M156.97,169.842H127.624l.375,1.8h29.346Z" transform="translate(-127.624 -169.842)" fill="#203061" opacity="0.4"/>
            </g>
          </g>
        </g>
        <g id="Group_22131" data-name="Group 22131" transform="translate(287.854 119.532)">
          <path id="Path_15912" data-name="Path 15912" d="M390.489,231.662H378.113l1.442,18.724h9.492Z" transform="translate(-378.113 -231.662)" fill="#5f72a9"/>
          <path id="Path_15913" data-name="Path 15913" d="M390.489,231.662H378.113l1.442,18.724h9.492Z" transform="translate(-378.113 -231.662)" fill="#5f72a9" opacity="0.4"/>
        </g>
        <g id="Group_22133" data-name="Group 22133" transform="translate(24.411 98.023)">
          <path id="Path_15914" data-name="Path 15914" d="M110.907,218.173H128.7L122.626,249.9H104.833Z" transform="translate(-104.833 -209.668)" fill="#263238"/>
          <path id="Path_15915" data-name="Path 15915" d="M133.7,209.35H108.571l7.034,40.233h25.133Z" transform="translate(-104.967 -209.35)" fill="#707070"/>
          <g id="Group_22132" data-name="Group 22132" transform="translate(2.118)">
            <path id="Path_15916" data-name="Path 15916" d="M107.029,209.35h1.486l7.034,40.233h-1.486Z" transform="translate(-107.029 -209.35)" fill="#5d5959"/>
            <path id="Path_15917" data-name="Path 15917" d="M107.029,209.35h1.486l7.034,40.233h-1.486Z" transform="translate(-107.029 -209.35)" fill="#5d5959" opacity="0.3"/>
          </g>
          <path id="Path_15918" data-name="Path 15918" d="M119.41,245.443l-5.53-31.631h16.4l5.53,31.631Z" transform="translate(-105.158 -209.511)" fill="#fff"/>
          <path id="Path_15919" data-name="Path 15919" d="M135.618,245.443l-5.53-31.631h.779l5.53,31.631Z" transform="translate(-105.742 -209.511)" fill="#585e6b" opacity="0.6"/>
        </g>
      </g>
    </g>
    <g id="Character" transform="translate(188.487 122.834)">
      <g id="Group_22148" data-name="Group 22148">
        <g id="Group_22143" data-name="Group 22143">
          <path id="Path_15920" data-name="Path 15920" d="M263.694,155.924c.357.773.237,1.589-.268,1.822s-1.2-.2-1.562-.976-.237-1.589.268-1.822S263.336,155.152,263.694,155.924Z" transform="translate(-197.907 -126.431)" fill="#263238"/>
          <path id="Path_15921" data-name="Path 15921" d="M264.066,157.577s.3,5.269-.634,8.315c1.957.644,4.011-1.014,4.011-1.014Z" transform="translate(-197.971 -126.528)" fill="#ff5652"/>
          <path id="Path_15922" data-name="Path 15922" d="M263.7,149.36a.494.494,0,0,1-.286.11,3.965,3.965,0,0,0-3.173,1.728.5.5,0,0,1-.866-.5,4.961,4.961,0,0,1,3.983-2.226.5.5,0,0,1,.342.888Z" transform="translate(-197.823 -126.2)" fill="#263238"/>
          <path id="Path_15923" data-name="Path 15923" d="M292.7,154.756c2.98,10.319,6.3,18.335,10.367,22.887,0,0,.072,8.111-13.745,11.968-15.194,4.242-9.366-5.515-9.366-5.515,7.739-4.3,6.977-10.775,1.174-13.24Z" transform="translate(-198.526 -126.427)" fill="#ff8b7b"/>
          <path id="Path_15924" data-name="Path 15924" d="M306.4,176.146c-.275-3.775-.626-8.074-2.955-8.182-2.562-.12-17.405,6.511-20.578,11.188s3.021,9.254,3.021,9.254Z" transform="translate(-198.638 -126.902)" fill="#263238"/>
          <g id="Group_22136" data-name="Group 22136" transform="translate(56.431 60.952)">
            <path id="Path_15925" data-name="Path 15925" d="M275.308,236.991l-12.819-.422.227,10.738s11.186-1.152,11.679-4.091Z" transform="translate(-254.368 -190.324)" fill="#ff8b7b"/>
            <path id="Path_15926" data-name="Path 15926" d="M255.409,241.837l-1.344,5.492,8.349-.022-.228-10.739Z" transform="translate(-254.064 -190.324)" fill="#ff8b7b"/>
            <g id="Group_22135" data-name="Group 22135" transform="translate(15.792)">
              <path id="Path_15927" data-name="Path 15927" d="M327.058,190.634l-.267,2.754c-.088.886-.211,1.759-.323,2.635-.226,1.75-.5,3.488-.8,5.225-.58,3.479-1.333,6.938-2.192,10.42a107.436,107.436,0,0,1-3.205,10.483c-.666,1.763-1.357,3.525-2.192,5.322a45.375,45.375,0,0,1-2.894,5.446c-.267.453-.593.925-.907,1.39s-.631.927-1.006,1.4-.7.932-1.135,1.417l-.628.713a10.119,10.119,0,0,1-.714.748,22.058,22.058,0,0,1-6.676,4.488,39.515,39.515,0,0,1-11.983,3.035c-1.884.224-3.74.31-5.57.351s-3.637.011-5.429-.091c-1.791-.081-3.569-.255-5.336-.461-1.789-.221-3.475-.493-5.353-.87l.308-10.072a155.731,155.731,0,0,0,18.222-4.344,38,38,0,0,0,3.915-1.5,17.694,17.694,0,0,0,3.106-1.68,4.284,4.284,0,0,0,1.4-1.369l.285-.442c.114-.144.236-.4.36-.595a7.817,7.817,0,0,0,.376-.686c.126-.246.257-.473.381-.761a50.387,50.387,0,0,0,2.785-7.646c.788-2.836,1.538-5.8,2.135-8.846.654-3.031,1.173-6.139,1.7-9.253l.734-4.686.658-4.561Z" transform="translate(-270.446 -188.597)" fill="#407bff"/>
              <path id="Path_15928" data-name="Path 15928" d="M327.058,190.634l-.267,2.754c-.088.886-.211,1.759-.323,2.635-.226,1.75-.5,3.488-.8,5.225-.58,3.479-1.333,6.938-2.192,10.42a107.436,107.436,0,0,1-3.205,10.483c-.666,1.763-1.357,3.525-2.192,5.322a45.375,45.375,0,0,1-2.894,5.446c-.267.453-.593.925-.907,1.39s-.631.927-1.006,1.4-.7.932-1.135,1.417l-.628.713a10.119,10.119,0,0,1-.714.748,22.058,22.058,0,0,1-6.676,4.488,39.515,39.515,0,0,1-11.983,3.035c-1.884.224-3.74.31-5.57.351s-3.637.011-5.429-.091c-1.791-.081-3.569-.255-5.336-.461-1.789-.221-3.475-.493-5.353-.87l.308-10.072a155.731,155.731,0,0,0,18.222-4.344,38,38,0,0,0,3.915-1.5,17.694,17.694,0,0,0,3.106-1.68,4.284,4.284,0,0,0,1.4-1.369l.285-.442c.114-.144.236-.4.36-.595a7.817,7.817,0,0,0,.376-.686c.126-.246.257-.473.381-.761a50.387,50.387,0,0,0,2.785-7.646c.788-2.836,1.538-5.8,2.135-8.846.654-3.031,1.173-6.139,1.7-9.253l.734-4.686.658-4.561Z" transform="translate(-270.446 -188.597)" fill="#2eb3db" opacity="0.93"/>
            </g>
          </g>
          <g id="Group_22137" data-name="Group 22137" transform="translate(71.416 48.024)">
            <path id="Path_15929" data-name="Path 15929" d="M270.1,202.921a314.872,314.872,0,0,1,8.031,62.8h56.446c.313-6.978-.867-46.237-6.547-74.671a19.653,19.653,0,0,0-23.522-15.389l-.27.062c-7.041,1.6-17.16,4.191-23.111,6.452l-.243.093A17.677,17.677,0,0,0,270.1,202.921Z" transform="translate(-269.609 -175.186)" fill="#2eb3db"/>
          </g>
          <path id="Path_15930" data-name="Path 15930" d="M273.929,222.292c.447,2.706.9,5.575,1.312,8.585,4.619-4.822,6.083-19.59,6.083-19.59Z" transform="translate(-198.349 -128.462)" opacity="0.2"/>
          <g id="Group_22138" data-name="Group 22138" transform="translate(5.679 61.226)">
            <path id="Path_15931" data-name="Path 15931" d="M224.8,237.682l-12.771-1.2-.422,10.733a12.03,12.03,0,0,0,11.905-3.378Z" transform="translate(-201.784 -190.595)" fill="#ff8b7b"/>
            <path id="Path_15932" data-name="Path 15932" d="M205.53,239.654l-4.113,7.374,9.82.19.422-10.733Z" transform="translate(-201.417 -190.595)" fill="#ff8b7b"/>
            <path id="Path_15933" data-name="Path 15933" d="M289.544,198.507c-.892,1.693-1.678,3.181-2.564,4.726-.87,1.527-1.742,3.046-2.656,4.541q-2.714,4.5-5.677,8.878a148.813,148.813,0,0,1-13.216,17.008,72.542,72.542,0,0,1-8.378,7.966c-.38.321-.821.634-1.232.95-.429.318-.779.607-1.4,1a19.468,19.468,0,0,1-1.7,1.012c-.571.322-1.131.59-1.7.843a30.5,30.5,0,0,1-6.635,2.014,41.891,41.891,0,0,1-12.071.273,51.9,51.9,0,0,1-5.589-1c-.914-.21-1.818-.449-2.718-.725-.925-.264-1.741-.569-2.777-.93l1.6-9.949c6.052-.822,12.6-1.875,17.108-3.912a12.261,12.261,0,0,0,2.808-1.617,6.172,6.172,0,0,0,.909-.8c.075-.086.366-.346.6-.557s.477-.416.719-.667a70.548,70.548,0,0,0,5.793-6.506A187.359,187.359,0,0,0,261.62,205.47c1.734-2.727,3.427-5.5,5.11-8.287l2.492-4.191,2.4-4.11Z" transform="translate(-202.13 -188.881)" fill="#2eb3db"/>
          </g>
          <path id="Path_15934" data-name="Path 15934" d="M275.432,406.691H264.879l-5.3-24.439h10.553Z" transform="translate(-197.832 -134.616)" fill="#ff8b7b"/>
          <path id="Path_15935" data-name="Path 15935" d="M263.947,405.257H275.8a.922.922,0,0,1,.9.721l2.084,9.381a1.551,1.551,0,0,1-1.545,1.876c-4.139-.071-6.15-.313-11.364-.313-3.208,0-7.324.333-11.754.333-4.332,0-5.008-4.379-3.195-4.777,8.131-1.779,8.7-4.231,11.3-6.572A2.56,2.56,0,0,1,263.947,405.257Z" transform="translate(-197.487 -135.445)" fill="#263238"/>
          <g id="Group_22139" data-name="Group 22139" transform="translate(61.742 247.642)" opacity="0.2">
            <path id="Path_15936" data-name="Path 15936" d="M270.131,382.258H259.574l2.943,13.533,10.354-.935Z" transform="translate(-259.574 -382.258)"/>
          </g>
          <path id="Path_15937" data-name="Path 15937" d="M288.683,141.554c3.806,9.758,6.53,15.276,3.99,22.362-3.819,10.66-17.541,11.732-24.186,3.308-5.982-7.582-11.2-22.265-3.66-30.337A14.285,14.285,0,0,1,288.683,141.554Z" transform="translate(-197.886 -125.618)" fill="#ff8b7b"/>
          <path id="Path_15938" data-name="Path 15938" d="M270.08,155.92c-1.585,2.124-2.792,3.73-2.792,3.73s-3.249-8.069-2.006-11.768c-1.582-3.134-4.773,1.484-5.977-4.619s4-12.657,5.977-14.014a7.164,7.164,0,0,1,.263,2.19,27.062,27.062,0,0,1,18.9-5.976,6.526,6.526,0,0,0-1.059,2.839s11.443,1.964,14.043,8.406a12.493,12.493,0,0,0-2.882-1.017,13.987,13.987,0,0,1,2.317,10.341,105.9,105.9,0,0,0-1.3,15.935c.114,2.736-7.4,7.968-11.98,2.373S270.08,155.92,270.08,155.92Z" transform="translate(-197.816 -125.369)" fill="#060000"/>
          <path id="Path_15939" data-name="Path 15939" d="M275.2,154.771a10.683,10.683,0,0,1-.487,6.847c-1.225,2.837-3.736,2.19-4.988-.328-1.125-2.266-1.844-6.474.15-8.491C271.84,150.814,274.444,152.041,275.2,154.771Z" transform="translate(-198.158 -126.321)" fill="#ff8b7b"/>
          <g id="Group_22140" data-name="Group 22140" transform="translate(46.134 138.562)">
            <path id="Path_15940" data-name="Path 15940" d="M294.109,269.105S245.1,286.872,243.656,310.39c-2.662,43.311,15.055,77.6,15.055,77.6l16.235-1.735s-2.887-13.939-5.044-53.178c-2.71-49.3,80.97,1.155,63.736-63.974Z" transform="translate(-243.383 -269.105)" fill="#90ccdd"/>
            <path id="Path_15941" data-name="Path 15941" d="M294.109,269.105S245.1,286.872,243.656,310.39c-2.662,43.311,15.055,77.6,15.055,77.6l16.235-1.735s-2.887-13.939-5.044-53.178c-2.71-49.3,80.97,1.155,63.736-63.974Z" transform="translate(-243.383 -269.105)" fill="#90ccdd" opacity="0.5"/>
          </g>
          <path id="Path_15942" data-name="Path 15942" d="M254.618,386.183c-.077.008,2.584,7.2,2.584,7.2l20.27-1.984-1.017-6.556Z" transform="translate(-197.654 -134.71)" fill="#2eb3db"/>
          <g id="Group_22141" data-name="Group 22141" transform="translate(0 248.832)">
            <path id="Path_15943" data-name="Path 15943" d="M228.221,407.932H217.667l-3.083-24.439h10.553Z" transform="translate(-196.212 -383.493)" fill="#ff8b7b"/>
            <path id="Path_15944" data-name="Path 15944" d="M216.9,405.252l11.525-.015a.918.918,0,0,1,.9.719l2.1,9.378a1.535,1.535,0,0,1-1.515,1.879c-4.158-.065-10.165-.3-15.39-.293-6.11.009-7.281.343-14.447.354-4.332.006-5.541-4.373-3.728-4.772,8.254-1.817,10.889-2.015,18.017-6.423A4.884,4.884,0,0,1,216.9,405.252Z" transform="translate(-195.526 -384.276)" fill="#263238"/>
            <path id="Path_15945" data-name="Path 15945" d="M214.587,383.5l1.677,13.311,10.468-.714-1.587-12.6Z" transform="translate(-196.213 -383.493)" opacity="0.2"/>
          </g>
          <g id="Group_22142" data-name="Group 22142" transform="translate(0.494 138.562)">
            <path id="Path_15946" data-name="Path 15946" d="M275.487,269.105s-80.308,7.122-79.441,47.454c.9,41.95,16.572,70.246,16.572,70.246H228.3s-2.973-21.762-2.446-63.064c.158-12.373,25.159-16.461,49.577-17.9,21.092-1.247,40.835-13.269,49.029-32.745l1.676-3.986Z" transform="translate(-196.039 -269.105)" fill="#90ccdd"/>
            <path id="Path_15947" data-name="Path 15947" d="M275.487,269.105s-80.308,7.122-79.441,47.454c.9,41.95,16.572,70.246,16.572,70.246H228.3s-2.973-21.762-2.446-63.064c.158-12.373,25.159-16.461,49.577-17.9,21.092-1.247,40.835-13.269,49.029-32.745l1.676-3.986Z" transform="translate(-196.039 -269.105)" fill="#90ccdd" opacity="0.5"/>
          </g>
          <path id="Path_15948" data-name="Path 15948" d="M209.433,386.8c-.072.006,2.688,7.249,2.688,7.249l18.927-1.352-1.1-6.562Z" transform="translate(-196.027 -134.756)" fill="#2eb3db"/>
        </g>
        <g id="Group_22147" data-name="Group 22147" transform="translate(35.876 87.176)">
          <g id="Group_22144" data-name="Group 22144">
            <path id="Path_15949" data-name="Path 15949" d="M299.789,221.855,289.6,261.12a122.728,122.728,0,0,0-3.916,30.794v18.252c0,4.608,3.4,8.343,7.587,8.343H345.51c4.191,0,7.587-3.736,7.587-8.343V291.915a122.732,122.732,0,0,1,3.917-30.794l9-34.688c1.382-5.329-2.257-10.633-7.3-10.633H307.085A7.729,7.729,0,0,0,299.789,221.855Z" transform="translate(-234.648 -215.8)" fill="#575f74"/>
            <path id="Path_15950" data-name="Path 15950" d="M232.921,302.232l1.71,9.735c.9,5.123,5.405,9.275,10.062,9.275h58.063c4.658,0,7.7-4.152,6.8-9.275l-1.71-9.735c-1.023-5.828-6.149-10.553-11.449-10.553H240.664C235.364,291.679,231.9,296.4,232.921,302.232Z" transform="translate(-232.742 -218.532)" fill="#575f74"/>
          </g>
          <g id="Group_22146" data-name="Group 22146" transform="translate(34.023 102.711)">
            <path id="Path_15951" data-name="Path 15951" d="M309.922,332.125H279.507l-2.97-9.778h36.355Z" transform="translate(-268.342 -322.346)" fill="#575f74"/>
            <g id="Group_22145" data-name="Group 22145" transform="translate(20.939 9.778)">
              <rect id="Rectangle_2591" data-name="Rectangle 2591" width="10.868" height="72.698" fill="#575f74"/>
              <path id="Path_15952" data-name="Path 15952" d="M300.624,405.253H289.757V334.3l10.868,1.106Z" transform="translate(-289.757 -332.555)" fill="#575f74" opacity="0.7"/>
              <path id="Path_15953" data-name="Path 15953" d="M298.183,405.274h-2.6v-70.38l2.6.264Z" transform="translate(-289.967 -332.576)" fill="#575f74" opacity="0.7"/>
            </g>
            <path id="Path_15954" data-name="Path 15954" d="M319.4,419.085H269.421a1.383,1.383,0,0,1-.817-2.5l7.933-5.816a22.2,22.2,0,0,1,13.126-4.3h9.493a22.2,22.2,0,0,1,13.126,4.3l7.933,5.816A1.383,1.383,0,0,1,319.4,419.085Z" transform="translate(-268.036 -325.375)" fill="#575f74"/>
          </g>
        </g>
      </g>
    </g>
  </g>
</svg>
