<svg xmlns="http://www.w3.org/2000/svg" width="77" height="59.136" viewBox="0 0 77 59.136">
    <g id="prefix__Icon_2" data-name="Icon 2" transform="translate(-914 -584)">
        <circle id="prefix__Ellipse_1667" cx="29.5" cy="29.5" r="29.5" data-name="Ellipse 1667" transform="translate(932 584)" style="fill:#abda99;opacity:.51"/>
        <g id="prefix__Contact" transform="translate(912 584)">
            <path id="prefix__Path_15676" d="M41.829 2C32 2 24 8.314 24 16.076c0 5.323 3.819 10.182 9.8 12.563l-1.333 6.006a.938.938 0 0 0 1.48.95l7.283-5.462c.2.01.4.02.6.02 9.831 0 17.829-6.314 17.829-14.076S51.661 2 41.829 2zm0 26.275c-.188 0-.375-.01-.555-.02l-.3-.014a.975.975 0 0 0-.6.188l-5.524 4.143.961-4.321a.938.938 0 0 0-.606-1.089c-5.668-1.99-9.328-6.341-9.328-11.085 0-6.726 7.156-12.2 15.952-12.2s15.952 5.473 15.952 12.2-7.155 12.198-15.952 12.198z" data-name="Path 15676" transform="translate(-.523)"/>
            <path id="prefix__Rectangle_2392" d="M0 0H20.95V1.905H0z" data-name="Rectangle 2392" transform="translate(30.985 15.113)"/>
            <path id="prefix__Rectangle_2393" d="M0 0H20.95V1.905H0z" data-name="Rectangle 2393" transform="translate(30.985 11.106)"/>
            <path id="prefix__Rectangle_2394" d="M0 0H20.95V1.905H0z" data-name="Rectangle 2394" transform="translate(30.985 18.98)"/>
            <path id="prefix__Path_15677" d="M25.312 46.234l-5.483-1.491V43.63a8.445 8.445 0 0 0 4.692-7.554v-.938a.938.938 0 0 0 .938-.938v-2.816a9.384 9.384 0 1 0-18.768 0V34.2a.938.938 0 0 0 .938.938v.938a8.445 8.445 0 0 0 4.692 7.554v1.113l-5.485 1.492A6.6 6.6 0 0 0 2 52.572V58.6a.938.938 0 0 0 .938.938h26.275a.938.938 0 0 0 .938-.938v-6.028a6.6 6.6 0 0 0-4.839-6.339zm-14.867.966l1.314-.357 3.378 2.815v2.372h1.877v-2.377l3.378-2.815 1.314.357v1.627l-5.63 5.63-5.63-5.63zM8.569 31.384a7.507 7.507 0 0 1 15.014 0v1.831a4.663 4.663 0 0 1-3.532-2.548l-.32-.641a.938.938 0 0 0-1.5-.244l-1.557 1.555a6.526 6.526 0 0 1-4.644 1.924H8.569zm.938 4.692v-.938h2.521A8.386 8.386 0 0 0 18 32.664l.657-.657a6.515 6.515 0 0 0 3.988 2.931v1.138a6.569 6.569 0 1 1-13.137 0zm6.569 8.445a8.418 8.418 0 0 0 1.877-.218v1.157a.928.928 0 0 0 .327.7l-2.2 1.836-2.2-1.835a.928.928 0 0 0 .327-.7V44.3a8.418 8.418 0 0 0 1.877.218zm12.2 13.137H3.877v-5.086a4.714 4.714 0 0 1 3.456-4.528l1.236-.333v1.5a.938.938 0 0 0 .275.663l6.569 6.569a.938.938 0 0 0 1.327 0l6.569-6.569a.938.938 0 0 0 .275-.663v-1.5l1.233.336a4.716 4.716 0 0 1 3.459 4.525z" data-name="Path 15677" transform="translate(0 -.399)"/>
            <path id="prefix__Path_15678" d="M20.507 38H18.63a1.877 1.877 0 0 1-3.754 0H13a3.754 3.754 0 0 0 7.507 0z" data-name="Path 15678" transform="translate(-.502 -1.683)"/>
        </g>
    </g>
</svg>
