<svg xmlns="http://www.w3.org/2000/svg" width="14.889" height="14.889" viewBox="0 0 14.889 14.889">
  <g id="Group_23030" data-name="Group 23030" transform="translate(-1386.25 -659.25)">
    <path id="Path_16270" data-name="Path 16270" d="M7.194,0a7.194,7.194,0,1,0,7.194,7.194A7.2,7.2,0,0,0,7.194,0Zm0,13.909a6.715,6.715,0,1,1,6.715-6.715A6.722,6.722,0,0,1,7.194,13.909Z" transform="translate(1386.5 659.5)" stroke="#000" stroke-width="0.5"/>
    <path id="Path_16272" data-name="Path 16272" d="M4.515.058A.18.18,0,0,0,4.386,0H1.479A.983.983,0,0,0,.5.977v5.5a.983.983,0,0,0,.979.977H5.424A.983.983,0,0,0,6.4,6.474V2.109a.194.194,0,0,0-.052-.126Zm.052.578L5.8,1.926H5a.429.429,0,0,1-.43-.428Zm.857,6.456H1.479A.623.623,0,0,1,.86,6.474V.977A.623.623,0,0,1,1.479.36H4.207V1.5A.787.787,0,0,0,5,2.286H6.043V6.474A.622.622,0,0,1,5.424,7.091Zm0,0" transform="translate(1390.497 662.797)" stroke="#000" stroke-width="0.4"/>
  </g>
</svg>
