<svg id="Layer_1" data-name="Layer 1" xmlns="http://www.w3.org/2000/svg" viewBox="0 0 100 100"><defs><style></style></defs><path class="cls-1ContactUs" d="M68.72,99.37h-.25c-8.52-.18-30.25-2.5-47.95-20C3.43,62.43.33,42.11,0,31.49A11.52,11.52,0,0,1,3.38,23l9-9a11.55,11.55,0,0,1,16.33,0L36.65,22a11.56,11.56,0,0,1-.24,16.57A4.25,4.25,0,0,0,35.06,42,26.28,26.28,0,0,0,59,65.68a4.2,4.2,0,0,0,3.41-1.26l.81-.8a11.55,11.55,0,0,1,16.32,0l6.76,6.75a11.55,11.55,0,0,1-.09,16.42l-9.49,9.28A11.37,11.37,0,0,1,68.72,99.37ZM20.56,17.86a4.31,4.31,0,0,0-3.06,1.27l-9,9a4.33,4.33,0,0,0-1.27,3.13c.24,7.68,2.5,27.23,18.38,43S61,92,68.62,92.16a4.38,4.38,0,0,0,3.07-1.24l9.49-9.29a4.32,4.32,0,0,0,0-6.16l-6.76-6.75a4.33,4.33,0,0,0-6.12,0l-.81.81a11.42,11.42,0,0,1-9.23,3.33,33.48,33.48,0,0,1-30.4-30,11.48,11.48,0,0,1,3.56-9.58,4.34,4.34,0,0,0,.09-6.22l-7.92-7.92A4.31,4.31,0,0,0,20.56,17.86Z"/><path class="cls-1ContactUs" d="M75.67,52.47a3.39,3.39,0,0,1-1.17-.2,3.6,3.6,0,0,1-2.25-4.58A15.41,15.41,0,0,0,52.63,27.85,3.61,3.61,0,1,1,50.33,21,22.63,22.63,0,0,1,79.08,50,3.61,3.61,0,0,1,75.67,52.47Z"/><path class="cls-1ContactUs" d="M94.12,53.34A3.67,3.67,0,0,1,93,53.15a3.6,3.6,0,0,1-2.24-4.58A30.4,30.4,0,0,0,52,9.49a3.61,3.61,0,0,1-2.29-6.84,38.05,38.05,0,0,1,37.41,7.41A38,38,0,0,1,97.53,50.91,3.6,3.6,0,0,1,94.12,53.34Z"/></svg>
