<svg id="Layer_1" data-name="Layer 1" xmlns="http://www.w3.org/2000/svg" viewBox="0 0 500 500"><defs><style>.course-not-publish-1{fill:#f4f4f4;}.course-not-publish-1,.course-not-publish-10,.course-not-publish-11,.course-not-publish-12,.course-not-publish-13,.course-not-publish-14,.course-not-publish-15,.course-not-publish-2,.course-not-publish-3,.course-not-publish-6,.course-not-publish-7,.course-not-publish-8,.course-not-publish-9{isolation:isolate;}.course-not-publish-2{fill:#eaeaea;}.course-not-publish-3{opacity:0.66;}.course-not-publish-4{fill:#fff;}.course-not-publish-13,.course-not-publish-5{fill:#a8bbe2;}.course-not-publish-6{fill:#44392b;}.course-not-publish-7{fill:#9cc979;}.course-not-publish-8{fill:#1a2f44;}.course-not-publish-9{fill:#848484;}.course-not-publish-10{fill:#ffc8b0;}.course-not-publish-11{fill:#1e3551;}.course-not-publish-12{fill:#ffbe9d;}.course-not-publish-14,.course-not-publish-16{fill:#e2e2e2;}.course-not-publish-17{fill:#5a845b;}</style></defs><path class="course-not-publish-1" d="M41.19,281.14c-7.33-14.72-14.06-23.66-10.88-36.8,4.35-17.9,23.53-28.84,27.21-30.94,33.72-19.22,73.33-5.71,118.61-5,109.76,1.69,146.23-73.61,214.36-57.7,44.52,10.4,67.62,51.57,74,76.94,22.38,89-109.87,187.35-194.78,179-42.83-4.24-58.36-34.12-128.41-39.3-37.78-2.8-53.71,4.38-70.73-6.69C49.24,346.69,65.33,329.56,41.19,281.14Z"/><ellipse class="course-not-publish-2" cx="365.07" cy="425.31" rx="66.7" ry="4.69"/><g class="course-not-publish-3"><rect class="course-not-publish-4" x="131.11" y="109.54" width="166.74" height="208.43" rx="11.85"/><path class="course-not-publish-5" d="M286,319H143a12.87,12.87,0,0,1-12.85-12.85V121.4A12.87,12.87,0,0,1,143,108.54H286a12.87,12.87,0,0,1,12.85,12.86V306.12A12.86,12.86,0,0,1,286,319ZM143,110.54a10.87,10.87,0,0,0-10.85,10.86V306.12A10.87,10.87,0,0,0,143,317H286a10.87,10.87,0,0,0,10.85-10.85V121.4A10.87,10.87,0,0,0,286,110.54Z"/></g><path class="course-not-publish-6" d="M380.7,134c-.44,1-2.95,2.73-6.42,4.29-.38.17-5.63,1.61-9.15-.39-1.27-.72-2.2-1.8-2.71-1.44s-.18,1.34,0,2.88c.22,2,.48,4.19,0,5.76-1,3.25-4.86,2.94-5.43,5.77-.28,1.43.59,2.09,1.36,4.32a16.51,16.51,0,0,1,0,10.09c-1.68,4.92-6.27,7.11-9.49,8.64-5.74,2.73-13.74,4-14.92,1.44s5-6.14,5.43-14.41c.08-1.52-.13-1.4,0-2.88.33-3.86,1.79-5.41,4.06-11.53a24.78,24.78,0,0,0,1.36-4.32c.56-3.15-.05-4.72,0-7.2,0-.84.1-5.46,2.71-8.65,3.26-4,9.18-4.18,13.56-4.32,1.81-.06.88-2.64,5.05-3.68,6.11-1.53,5.55-1.18,8.34,0C378.86,120.28,383.51,127.8,380.7,134Z"/><path class="course-not-publish-7" d="M339.54,171s2.08-8.34,8.33-8.34h20.37L365.59,171Z"/><polygon class="course-not-publish-8" points="375.61 233.76 405.19 419.06 392.69 419.06 333.28 234.6 375.61 233.76"/><path class="course-not-publish-9" d="M333.28,418.74l-9.13,5.71a.32.32,0,0,0,.17.6h21.47v-6.31Z"/><path class="course-not-publish-9" d="M392.34,419.06l-9,5.75a.27.27,0,0,0,.15.5h21.67v-6.25Z"/><path class="course-not-publish-10" d="M365.59,143.93c0-8.63-6.3-15.63-14.07-15.63s-14.07,7-14.07,15.63c0,8,5.47,14.67,12.51,15.53v3.23h9.38v-5.76A16.13,16.13,0,0,0,365.59,143.93Z"/><polygon class="course-not-publish-11" points="333.28 234.6 333.28 418.74 345.6 418.74 374.97 233.56 333.28 234.6"/><path class="course-not-publish-12" d="M388.1,194.93a1.61,1.61,0,0,1,2.3.57l5.41,9.92s3,5.63,0,8.61l-14.19,14.2a1.65,1.65,0,0,1-.6.38l-6.8,2.39a1.6,1.6,0,0,1-2-.8l-2.37-4.74a1.6,1.6,0,0,1,1.44-2.32h8a1.59,1.59,0,0,0,1.32-.7l6.56-9.47a1.51,1.51,0,0,0,.25-.58c.21-1,.7-4.36-1-7-1.25-1.88-2.61-3.81-3.5-5a1.6,1.6,0,0,1,.42-2.27Z"/><path class="course-not-publish-12" d="M322.56,198.37l-4.22,14.54a3,3,0,0,1-1.27,1.71l-16.19,10.62a3.07,3.07,0,0,1-1.69.5h-7.62a3.15,3.15,0,0,0-1.73.53l-2.72,1.85a3.09,3.09,0,0,0-.66,4.5l1.52,1.85a3.07,3.07,0,0,0,3.82.77l3.6-1.9a4.25,4.25,0,0,1,.49-.21l6.07-2a2.65,2.65,0,0,0,.49-.2l22.78-12.05a3.06,3.06,0,0,0,1.55-2l4.11-16.66a3.08,3.08,0,0,0-2.6-3.79l-2.39-.3A3.08,3.08,0,0,0,322.56,198.37Z"/><path class="course-not-publish-7" d="M336.36,194.65,334.22,200l-14-2.15,3.22-17.18s1.07-9.66,12.88-9.66H376a14.68,14.68,0,0,1,10.84,9.66,100,100,0,0,1,4.29,14l-9.66,6.44-8.59-8.59s-3.22,20.4-1.07,27.92l4.29,15-42.95,1.08L329.92,200"/><rect class="course-not-publish-13" x="153.52" y="131.95" width="160.49" height="26.05" rx="2.75"/><circle class="course-not-publish-13" cx="191.55" cy="245.02" r="38.04"/><path class="course-not-publish-14" d="M191.55,245l17.64,33.7a38,38,0,1,1,20.4-33.7Z"/><circle class="course-not-publish-13" cx="261.38" cy="218.97" r="11.98"/><path class="course-not-publish-14" d="M261.38,219l-7.52,9.33a12,12,0,1,1,19.5-9.33Z"/><circle class="course-not-publish-13" cx="261.38" cy="270.03" r="11.98"/><path class="course-not-publish-14" d="M261.38,270l-11-4.66a12,12,0,1,1,14.33,16.19Z"/><path class="course-not-publish-5" d="M249.65,178.26H156.9a1.5,1.5,0,1,1,0-3h92.75a1.5,1.5,0,0,1,0,3Z"/><path class="course-not-publish-5" d="M249.65,191.29H156.9a1.5,1.5,0,0,1,0-3h92.75a1.5,1.5,0,0,1,0,3Z"/><g class="course-not-publish-15"><rect class="course-not-publish-16" x="56.6" y="76.72" width="62.53" height="65.65" rx="10.87"/></g><path class="course-not-publish-4" d="M105.31,102.37H70.41a1.5,1.5,0,0,1,0-3h34.9a1.5,1.5,0,0,1,0,3Z"/><path class="course-not-publish-4" d="M105.31,113.52H70.41a1.5,1.5,0,0,1,0-3h34.9a1.5,1.5,0,0,1,0,3Z"/><path class="course-not-publish-4" d="M105.31,124.67H70.41a1.5,1.5,0,0,1,0-3h34.9a1.5,1.5,0,0,1,0,3Z"/><g class="course-not-publish-15"><rect class="course-not-publish-16" x="288.99" y="59" width="39.7" height="41.69" rx="6.9"/></g><path class="course-not-publish-4" d="M319.92,75.84H297.76a1.5,1.5,0,0,1,0-3h22.16a1.5,1.5,0,0,1,0,3Z"/><path class="course-not-publish-4" d="M319.92,82.92H297.76a1.5,1.5,0,0,1,0-3h22.16a1.5,1.5,0,0,1,0,3Z"/><path class="course-not-publish-4" d="M319.92,90H297.76a1.5,1.5,0,0,1,0-3h22.16a1.5,1.5,0,0,1,0,3Z"/><path class="course-not-publish-5" d="M270.76,238.18H252a1.5,1.5,0,0,1,0-3h18.76a1.5,1.5,0,0,1,0,3Z"/><path class="course-not-publish-5" d="M270.76,289.25H252a1.5,1.5,0,0,1,0-3h18.76a1.5,1.5,0,0,1,0,3Z"/><path class="course-not-publish-5" d="M217.61,294.46H161.33a1.5,1.5,0,1,1,0-3h56.28a1.5,1.5,0,0,1,0,3Z"/><g class="course-not-publish-15"><rect class="course-not-publish-16" x="114.96" y="280.97" width="55.23" height="68.08" rx="10.4"/></g><path class="course-not-publish-4" d="M158,307.52H127.16a1.5,1.5,0,1,1,0-3H158a1.5,1.5,0,0,1,0,3Z"/><path class="course-not-publish-4" d="M158,319.08H127.16a1.5,1.5,0,0,1,0-3H158a1.5,1.5,0,0,1,0,3Z"/><path class="course-not-publish-4" d="M158,330.64H127.16a1.5,1.5,0,1,1,0-3H158a1.5,1.5,0,0,1,0,3Z"/><path class="course-not-publish-17" d="M361.42,171.4h-12.5a.37.37,0,0,1-.38-.37.38.38,0,0,1,.38-.38h12.5a.38.38,0,0,1,.38.38A.37.37,0,0,1,361.42,171.4Z"/><path class="course-not-publish-17" d="M334.33,200.58a.39.39,0,0,1-.15,0,.37.37,0,0,1-.2-.49l5.21-12.51a.37.37,0,1,1,.69.29l-5.21,12.5A.36.36,0,0,1,334.33,200.58Z"/><path class="course-not-publish-6" d="M333.81,134c.51,1.08,2.15,3.48,6.25,5.21.45.19,6.65,1.79,10.81-.43,1.5-.8,2.59-2,3.2-1.6s.21,1.49,0,3.2c-.27,2.22-.57,4.66,0,6.41,1.18,3.61,5.74,3.26,6.41,6.4.34,1.6-.7,2.33-1.6,4.81a17.29,17.29,0,0,0,0,11.21c2,5.47,7.4,7.9,11.21,9.61,6.77,3,16.23,4.4,17.62,1.6s-5.89-6.82-6.41-16c-.09-1.69.15-1.56,0-3.2-.39-4.29-2.12-6-4.8-12.81a25.25,25.25,0,0,1-1.6-4.81c-.67-3.5.05-5.24,0-8,0-.93-.12-6.06-3.21-9.61-3.85-4.42-10.84-4.64-16-4.8-2.14-.07-1.88.32-3.21,0-7.2-1.75-10.16-2-13.45-.7C333.81,122.57,330.48,127.1,333.81,134Z"/><path class="course-not-publish-17" d="M334.19,200.58h-.06l-3.5-.54a.37.37,0,0,1-.32-.42.39.39,0,0,1,.43-.32l3.51.54a.38.38,0,0,1,.31.43A.38.38,0,0,1,334.19,200.58Z"/><path class="course-not-publish-17" d="M367.24,222a.37.37,0,0,1-.33-.21.37.37,0,0,1,.16-.5l3.49-1.75L367,217.23a.37.37,0,0,1,.4-.63l4.08,2.61a.37.37,0,0,1,0,.65l-4.08,2A.33.33,0,0,1,367.24,222Z"/><path class="course-not-publish-17" d="M372.87,192.88h-.08a.38.38,0,0,1-.29-.45l1.06-4.8a.38.38,0,0,1,.45-.28.36.36,0,0,1,.28.44l-1.05,4.8A.38.38,0,0,1,372.87,192.88Z"/></svg>
