<svg xmlns="http://www.w3.org/2000/svg" width="319" height="160" viewBox="0 0 319 160">
  <g id="Group_23071" data-name="Group 23071" transform="translate(6859 -3442)">
    <path id="Rectangle_34_copy_4" data-name="Rectangle 34 copy 4" d="M10,0H309a10,10,0,0,1,10,10V160a0,0,0,0,1,0,0H0a0,0,0,0,1,0,0V10A10,10,0,0,1,10,0Z" transform="translate(-6859 3442)" fill="#e7e7e7"/>
    <g id="Group_23056" data-name="Group 23056" transform="translate(-7021 3105.283)">
      <g id="Group_20883" data-name="Group 20883" transform="translate(309 390.521)">
        <g id="Group_20882" data-name="Group 20882" transform="translate(0 0)">
          <path id="Path_42794" data-name="Path 42794" d="M23.035,5.532H9.541c.059-.022-2.422-.007-2.45-.008l-.012.008H1.848A1.85,1.85,0,0,0,0,7.38V28.567a1.85,1.85,0,0,0,1.848,1.848H23.035a1.85,1.85,0,0,0,1.848-1.848V7.38A1.85,1.85,0,0,0,23.035,5.532Zm.616,23.035a.617.617,0,0,1-.616.616H1.848a.617.617,0,0,1-.616-.616V7.38a.617.617,0,0,1,.616-.616H23.035a.617.617,0,0,1,.616.616V28.567Z" transform="translate(0 -5.52)" fill="#9c9c9c"/>
        </g>
      </g>
      <g id="Group_20889" data-name="Group 20889" transform="translate(324.152 393.489)">
        <g id="Group_20888" data-name="Group 20888">
          <path id="Path_42797" data-name="Path 42797" d="M247.056,156.172a.615.615,0,1,0,.181.435A.62.62,0,0,0,247.056,156.172Z" transform="translate(-246.005 -155.992)" fill="#9c9c9c"/>
        </g>
      </g>
      <g id="Group_20891" data-name="Group 20891" transform="translate(311.956 393.489)">
        <g id="Group_20890" data-name="Group 20890">
          <path id="Path_42798" data-name="Path 42798" d="M66.355,155.992h-2.4a.616.616,0,0,0,0,1.232h1.786V166l-4.89-4.89a.616.616,0,0,0-.871,0l-3.263,3.263a.616.616,0,1,0,.871.871l2.827-2.827,5.321,5.321,0,0v3.027H50.1l4.471-4.471,3.322,3.322a.616.616,0,0,0,.871-.871L55.011,165a.616.616,0,0,0-.871,0L49.233,169.9V157.224h8.253a.616.616,0,0,0,0-1.232H48.617a.616.616,0,0,0-.616.616V171.39a.616.616,0,0,0,.616.616H66.355a.616.616,0,0,0,.616-.616V156.608A.616.616,0,0,0,66.355,155.992Z" transform="translate(-48.001 -155.992)" fill="#9c9c9c"/>
        </g>
      </g>
      <g id="Group_20893" data-name="Group 20893" transform="translate(316.001 396.137)">
        <g id="Group_20892" data-name="Group 20892">
          <path id="Path_42799" data-name="Path 42799" d="M115.64,198.992a1.971,1.971,0,1,0,1.971,1.971A1.973,1.973,0,0,0,115.64,198.992Zm0,2.71a.739.739,0,1,1,.739-.739A.74.74,0,0,1,115.64,201.7Z" transform="translate(-113.669 -198.992)" fill="#9c9c9c"/>
        </g>
      </g>
    </g>
    <text id="No_cover_image_available" data-name="No cover image available" transform="translate(-6699 3541)" fill="#666" font-size="12" font-family="Montserrat-Medium, Montserrat" font-weight="500" opacity="0.65"><tspan x="-76.194" y="0">No cover image available</tspan></text>
  </g>
</svg>
