<svg xmlns="http://www.w3.org/2000/svg" width="24.5" height="24.5" viewBox="0 0 24.5 24.5">
  <g id="Group_23055" data-name="Group 23055" transform="translate(-520.75 -4798.75)">
    <g id="Group_22967" data-name="Group 22967" transform="translate(-147 1176)">
      <g id="play-button_3_" data-name="play-button (3)" transform="translate(668 3623)">
        <path id="Path_16167" data-name="Path 16167" d="M12,0A12,12,0,1,0,24,12,12.014,12.014,0,0,0,12,0Zm0,23.2A11.2,11.2,0,1,1,23.2,12,11.213,11.213,0,0,1,12,23.2Z" fill="#203061" stroke="#203061" stroke-width="0.5"/>
      </g>
    </g>
    <g id="surface1" transform="translate(527.697 4804.764)">
      <path id="Path_16222" data-name="Path 16222" d="M7.2.1A.3.3,0,0,0,6.981,0H2.133A1.64,1.64,0,0,0,.5,1.63V10.8a1.64,1.64,0,0,0,1.633,1.63h6.58a1.64,1.64,0,0,0,1.633-1.63V3.518a.323.323,0,0,0-.087-.21Zm.087.964,2.05,2.152H8A.715.715,0,0,1,7.284,2.5ZM8.713,11.828H2.133A1.04,1.04,0,0,1,1.1,10.8V1.63A1.04,1.04,0,0,1,2.133.6H6.684V2.5A1.313,1.313,0,0,0,8,3.812H9.746V10.8A1.038,1.038,0,0,1,8.713,11.828Zm0,0" transform="translate(0.302 -0.264)" fill="#203061" stroke="#203061" stroke-width="0.4"/>
    </g>
  </g>
</svg>
