<svg xmlns="http://www.w3.org/2000/svg" width="24.5" height="24.5" viewBox="0 0 24.5 24.5">
  <g id="Group_23054" data-name="Group 23054" transform="translate(-520.75 -4546.75)">
    <g id="Group_22868" data-name="Group 22868" transform="translate(-147 924)">
      <g id="play-button_3_" data-name="play-button (3)" transform="translate(668 3623)">
        <path id="Path_16167" data-name="Path 16167" d="M12,0A12,12,0,1,0,24,12,12.014,12.014,0,0,0,12,0Zm0,23.2A11.2,11.2,0,1,1,23.2,12,11.213,11.213,0,0,1,12,23.2Z" fill="#203061" stroke="#203061" stroke-width="0.5"/>
      </g>
    </g>
    <g id="link" transform="translate(527 4552.981)">
      <g id="Group_22974" data-name="Group 22974" transform="translate(4.524 4.543)">
        <g id="Group_22973" data-name="Group 22973">
          <path id="Path_16234" data-name="Path 16234" d="M198.351,193.046l-1-1a.509.509,0,0,0-.72.72l1,1a2.733,2.733,0,0,1-3.864,3.864l-1-1a.509.509,0,1,0-.72.72l1,1a3.751,3.751,0,0,0,5.3-5.308Z" transform="translate(-191.895 -191.895)" fill="#203061"/>
        </g>
      </g>
      <g id="Group_22976" data-name="Group 22976" transform="translate(0 0.019)">
        <g id="Group_22975" data-name="Group 22975" transform="translate(0 0)">
          <path id="Path_16235" data-name="Path 16235" d="M7.4,2.111l-1-1a3.751,3.751,0,0,0-5.3,5.308l1,1a.509.509,0,0,0,.72-.72l-1-1A2.732,2.732,0,1,1,5.675,1.829l1,1a.509.509,0,1,0,.72-.72Z" transform="translate(0 -0.019)" fill="#203061"/>
        </g>
      </g>
      <g id="Group_22978" data-name="Group 22978" transform="translate(4.236 4.254)">
        <g id="Group_22977" data-name="Group 22977">
          <path id="Path_16236" data-name="Path 16236" d="M183.1,182.391l-2.581-2.581a.509.509,0,0,0-.72.72l2.581,2.581a.509.509,0,0,0,.72-.72Z" transform="translate(-179.652 -179.66)" fill="#203061"/>
        </g>
      </g>
    </g>
  </g>
</svg>
