<svg xmlns="http://www.w3.org/2000/svg" width="24.5" height="24.5" viewBox="0 0 24.5 24.5">
  <g id="Group_22868" data-name="Group 22868" transform="translate(-667.75 -3622.75)">
    <g id="play-button_3_" data-name="play-button (3)" transform="translate(668 3623)">
      <path id="Path_16167" data-name="Path 16167" d="M12,0A12,12,0,1,0,24,12,12.014,12.014,0,0,0,12,0Zm0,23.2A11.2,11.2,0,1,1,23.2,12,11.213,11.213,0,0,1,12,23.2Z" fill="#203061" stroke="#203061" stroke-width="0.5"/>
    </g>
    <g id="open-book" transform="translate(674.795 3629.795)">
      <g id="Group_22857" data-name="Group 22857" transform="translate(-1 -1)">
        <path id="Path_16194" data-name="Path 16194" d="M9.588-1H6.059A1.507,1.507,0,0,0,5.05-.615,1.507,1.507,0,0,0,4.042-1H.513A1.512,1.512,0,0,0-1,.513V8.58A1.512,1.512,0,0,0,.513,10.092H4.042a.5.5,0,0,1,.5.5.5.5,0,0,0,1.008,0,.5.5,0,0,1,.5-.5H9.588A1.512,1.512,0,0,0,11.1,8.58V.513A1.512,1.512,0,0,0,9.588-1ZM4.042,9.084H.513a.5.5,0,0,1-.5-.5V.513a.5.5,0,0,1,.5-.5H4.042a.5.5,0,0,1,.5.5V9.17A1.511,1.511,0,0,0,4.042,9.084Zm6.05-.5a.5.5,0,0,1-.5.5H6.059a1.511,1.511,0,0,0-.5.086V.513a.5.5,0,0,1,.5-.5H9.588a.5.5,0,0,1,.5.5Z" transform="translate(1 1)" fill="#203061" stroke="#203061" stroke-width="0.2"/>
      </g>
    </g>
  </g>
</svg>
