<svg id="Layer_1" data-name="Layer 1" xmlns="http://www.w3.org/2000/svg" viewBox="0 0 500 500"><defs><style>.course-list-not-found-1{fill:#f4f4f4;}.course-list-not-found-1,.course-list-not-found-10,.course-list-not-found-13,.course-list-not-found-14,.course-list-not-found-15,.course-list-not-found-16,.course-list-not-found-2,.course-list-not-found-3,.course-list-not-found-8,.course-list-not-found-9{isolation:isolate;}.course-list-not-found-2{fill:#eaeaea;}.course-list-not-found-4{fill:#9cc979;}.course-list-not-found-13,.course-list-not-found-5{fill:#c9c9c9;}.course-list-not-found-6{fill:#e2e2e2;}.course-list-not-found-7{fill:#fff;}.course-list-not-found-8{fill:#848484;}.course-list-not-found-9{fill:#ffc8b0;}.course-list-not-found-10,.course-list-not-found-11{fill:#ffbe9d;}.course-list-not-found-12{fill:#212237;}.course-list-not-found-14{fill:#1a2f44;}.course-list-not-found-15{fill:#1e3551;}.course-list-not-found-16{fill:#a8bbe2;}.course-list-not-found-17{fill:#6587c4;}</style></defs><path class="course-list-not-found-1" d="M21.85,304.32C13.71,288,6.24,278.06,9.77,263.48c4.82-19.88,26.12-32,30.2-34.35,37.43-21.34,81.4-6.34,131.65-5.57,121.83,1.87,162.32-81.7,238-64,49.41,11.54,75.05,57.24,82.13,85.39,24.85,98.81-121.95,208-216.2,198.64C228,438.84,210.72,405.67,133,399.92c-41.94-3.1-59.62,4.87-78.51-7.42C30.78,377.08,48.64,358.06,21.85,304.32Z"/><ellipse class="course-list-not-found-2" cx="122.01" cy="464.35" rx="74.03" ry="5.21"/><g class="course-list-not-found-3"><path class="course-list-not-found-4" d="M368.55,112.19H209.78A14.84,14.84,0,0,0,195,127v205a14.84,14.84,0,0,0,14.82,14.81H368.55a14.84,14.84,0,0,0,14.82-14.81V127A14.84,14.84,0,0,0,368.55,112.19Zm0,231.34H209.78a11.5,11.5,0,0,1-11.49-11.48V127a11.5,11.5,0,0,1,11.49-11.49H368.55A11.5,11.5,0,0,1,380,127v205A11.5,11.5,0,0,1,368.55,343.53Z"/></g><rect class="course-list-not-found-4" x="181.67" y="156.08" width="112.31" height="35.46" rx="2.69" transform="translate(475.65 347.62) rotate(180)"/><path class="course-list-not-found-4" d="M342.63,201.35H235.7a3.8,3.8,0,0,1-3.8-3.79V167.47a3.8,3.8,0,0,1,3.8-3.79H342.63a3.8,3.8,0,0,1,3.8,3.79v30.09A3.8,3.8,0,0,1,342.63,201.35ZM235.7,165.9a1.57,1.57,0,0,0-1.58,1.57v30.09a1.57,1.57,0,0,0,1.58,1.57H342.63a1.57,1.57,0,0,0,1.58-1.57V167.47a1.57,1.57,0,0,0-1.58-1.57Z"/><g class="course-list-not-found-3"><path class="course-list-not-found-5" d="M339.53,279.37H238.8a4.26,4.26,0,0,1-4.25-4.25V230.53a4.25,4.25,0,0,1,4.25-4.25H339.53a4.25,4.25,0,0,1,4.25,4.25v44.59A4.26,4.26,0,0,1,339.53,279.37ZM238.8,228.5a2,2,0,0,0-2,2v44.59a2,2,0,0,0,2,2H339.53a2,2,0,0,0,2-2V230.53a2,2,0,0,0-2-2Z"/></g><g class="course-list-not-found-3"><rect class="course-list-not-found-6" x="229.65" y="406.53" width="54.08" height="46.27" rx="8.48" transform="translate(513.38 859.32) rotate(180)"/></g><path class="course-list-not-found-7" d="M241.6,426.88h30.18a1.7,1.7,0,1,0,0-3.33H241.6a1.7,1.7,0,1,0,0,3.33Z"/><path class="course-list-not-found-7" d="M241.6,439.26h30.18a1.7,1.7,0,1,0,0-3.33H241.6a1.7,1.7,0,1,0,0,3.33Z"/><g class="course-list-not-found-3"><path class="course-list-not-found-6" d="M262.67,330.55h-22a6.14,6.14,0,0,1-6.14-6.14V307.05a6.14,6.14,0,0,1,6.14-6.13h22a6.14,6.14,0,0,1,6.14,6.13v17.36A6.14,6.14,0,0,1,262.67,330.55Zm-22-27.41a3.92,3.92,0,0,0-3.92,3.91v17.36a3.93,3.93,0,0,0,3.92,3.92h22a3.93,3.93,0,0,0,3.92-3.92V307.05a3.92,3.92,0,0,0-3.92-3.91Z"/></g><g class="course-list-not-found-3"><path class="course-list-not-found-6" d="M300.16,330.55h-22a6.14,6.14,0,0,1-6.13-6.14V307.05a6.14,6.14,0,0,1,6.13-6.13h22a6.15,6.15,0,0,1,6.14,6.13v17.36A6.15,6.15,0,0,1,300.16,330.55Zm-22-27.41a3.91,3.91,0,0,0-3.91,3.91v17.36a3.92,3.92,0,0,0,3.91,3.92h22a3.93,3.93,0,0,0,3.92-3.92V307.05a3.92,3.92,0,0,0-3.92-3.91Z"/></g><g class="course-list-not-found-3"><path class="course-list-not-found-6" d="M337.64,330.55h-22a6.14,6.14,0,0,1-6.14-6.14V307.05a6.14,6.14,0,0,1,6.14-6.13h22a6.14,6.14,0,0,1,6.14,6.13v17.36A6.14,6.14,0,0,1,337.64,330.55Zm-22-27.41a3.92,3.92,0,0,0-3.92,3.91v17.36a3.93,3.93,0,0,0,3.92,3.92h22a3.93,3.93,0,0,0,3.92-3.92V307.05a3.92,3.92,0,0,0-3.92-3.91Z"/></g><rect class="course-list-not-found-4" x="126.55" y="62.12" width="38.29" height="32.76" rx="6.01" transform="translate(291.39 157) rotate(180)"/><path class="course-list-not-found-7" d="M135,77h21.37c.8,0,1.45-.89,1.45-2s-.65-2-1.45-2H135c-.8,0-1.45.89-1.45,2S134.21,77,135,77Z"/><path class="course-list-not-found-7" d="M135,84.93h21.37c.8,0,1.45-.89,1.45-2s-.65-2-1.45-2H135c-.8,0-1.45.89-1.45,2S134.21,84.93,135,84.93Z"/><g class="course-list-not-found-3"><rect class="course-list-not-found-6" x="338.33" y="304.14" width="69.39" height="75.57" rx="12.28" transform="translate(746.04 683.84) rotate(180)"/></g><path class="course-list-not-found-7" d="M353.66,333.61h38.73a1.68,1.68,0,1,0,0-3.33H353.66a1.68,1.68,0,1,0,0,3.33Z"/><path class="course-list-not-found-7" d="M353.66,346.44h38.73a1.68,1.68,0,1,0,0-3.33H353.66a1.68,1.68,0,1,0,0,3.33Z"/><path class="course-list-not-found-7" d="M353.66,359.27h38.73a1.68,1.68,0,1,0,0-3.33H353.66a1.68,1.68,0,1,0,0,3.33Z"/><path class="course-list-not-found-8" d="M157.3,457.05l10.14,6.35a.36.36,0,0,1-.19.66H143.41v-7Z"/><path class="course-list-not-found-8" d="M91.74,457.41l10,6.39a.3.3,0,0,1-.16.55H77.48v-6.94Z"/><path class="course-list-not-found-9" d="M121.44,152c0-9.58,7-17.35,15.61-17.35s15.62,7.77,15.62,17.35c0,8.93-6.08,16.28-13.88,17.24v3.59H128.38v-6.4A17.89,17.89,0,0,1,121.44,152Z"/><path class="course-list-not-found-10" d="M96.45,208.63a1.78,1.78,0,0,0-2.55.63l-6,11s-3.32,6.25,0,9.56l15.75,15.76a1.81,1.81,0,0,0,.67.42l7.54,2.66a1.78,1.78,0,0,0,2.19-.89l2.63-5.26a1.78,1.78,0,0,0-1.59-2.58h-8.9a1.78,1.78,0,0,1-1.47-.77l-7.28-10.52a1.67,1.67,0,0,1-.28-.64c-.24-1.15-.78-4.84,1.15-7.74,1.39-2.08,2.9-4.23,3.89-5.6a1.78,1.78,0,0,0-.46-2.52Z"/><path class="course-list-not-found-11" d="M209.7,200.81l-5.21,8a2,2,0,0,1-.66.65L181.3,223.36c-4.74,2.92-11-2.7-11-2.7l-10.89-10.08a2.16,2.16,0,0,1,0-3.15l5.53-5.14a2.08,2.08,0,0,1,3,.18c1.3,1.53,3.32,3.9,5.31,6.09,2.76,3.06,7.14,3.47,8.52,3.52a2.08,2.08,0,0,0,.82-.14l14.11-5.51a2.15,2.15,0,0,0,1.3-1.48l2.55-10.35.3-.69v0l2.85-6.39a1.16,1.16,0,0,1,1.58-.61,1.09,1.09,0,0,1,.74,1.52l-2.22,5a.36.36,0,0,1,.15.1l5.27,4.54A2.17,2.17,0,0,1,209.7,200.81Z"/><path class="course-list-not-found-12" d="M117,138.72c.53-8.31,8.87-10.76,24.86-9.84,2.14.12,6-1.32,6.94.55,1.29,2.46,1.52,7.43-1,9.68a9.29,9.29,0,0,1-5,2.33c-2.89.67-5.85,3.39-4.31,6.37.4.78,1.35,2.11.75,2.75a8.67,8.67,0,0,1-1.74.9c-1.15.61-1.08,2.33-.37,3.4s.39,2.26,1.12,3.33c1.7,2.53-.33,7.2-3,8.76-2.35,1.37-10.07,3.67-15.72.8-4.89-2.49-7.82-9.29-7.84-21.51C111.7,141.55,115.25,138.4,117,138.72Z"/><g class="course-list-not-found-3"><rect class="course-list-not-found-6" x="350.33" y="88.31" width="60.54" height="61.82" rx="10.37" transform="translate(761.19 238.44) rotate(180)"/></g><path class="course-list-not-found-7" d="M391.25,117.8l-14.75-8.51A1.64,1.64,0,0,0,374,110.7v17a1.64,1.64,0,0,0,2.46,1.41l14.75-8.51A1.64,1.64,0,0,0,391.25,117.8Z"/><rect class="course-list-not-found-13" x="103.79" y="227.39" width="107.01" height="50.87" rx="3.14" transform="translate(314.59 505.64) rotate(180)"/><polygon class="course-list-not-found-14" points="110.31 251.73 77.48 457.41 91.36 457.41 157.29 252.66 110.31 251.73"/><polygon class="course-list-not-found-15" points="157.29 252.66 157.29 457.05 143.62 457.05 111.03 251.5 157.29 252.66"/><path class="course-list-not-found-16" d="M150.35,182.1s-2-9.25-7.91-9.25H123.11l2.52,9.25Z"/><path class="course-list-not-found-16" d="M153.88,208.32l7.15,6,12.38-6.73-5.23-14.72S167,182.1,153.88,182.1h-44s-8.45,1.19-12,10.73a111.38,111.38,0,0,0-4.76,15.49l10.72,7.15,9.54-9.53s3.57,22.64,1.19,31-6.39,22.25-6.39,22.25l50.07.86,2.8-45.75"/><g class="course-list-not-found-3"><path class="course-list-not-found-17" d="M126.06,182.52h13.88a.42.42,0,1,0,0-.84H126.06a.42.42,0,0,0,0,.84Z"/></g><g class="course-list-not-found-3"><path class="course-list-not-found-17" d="M159.15,215.42a.3.3,0,0,0,.1-.07.49.49,0,0,0,0-.57l-9-11.46a.29.29,0,0,0-.46-.06.49.49,0,0,0,0,.57l8.95,11.45A.32.32,0,0,0,159.15,215.42Z"/></g><g class="course-list-not-found-3"><path class="course-list-not-found-17" d="M159.3,215.36l0,0,3-1.76a.41.41,0,0,0,.11-.55.38.38,0,0,0-.51-.18l-3,1.76a.41.41,0,0,0-.11.55A.38.38,0,0,0,159.3,215.36Z"/></g><g class="course-list-not-found-3"><path class="course-list-not-found-17" d="M119.6,238.62a.42.42,0,0,0,.37-.23.41.41,0,0,0-.18-.56l-3.88-1.94,3.92-2.5a.42.42,0,0,0,.12-.58.41.41,0,0,0-.57-.12l-4.53,2.89a.41.41,0,0,0,0,.72l4.53,2.27A.41.41,0,0,0,119.6,238.62Z"/></g><g class="course-list-not-found-3"><path class="course-list-not-found-17" d="M113.36,206.35h.09a.41.41,0,0,0,.31-.49l-1.17-5.33a.42.42,0,0,0-.5-.32.42.42,0,0,0-.32.5L113,206A.41.41,0,0,0,113.36,206.35Z"/></g></svg>
