<svg xmlns="http://www.w3.org/2000/svg" width="17.436" height="14.982" viewBox="0 0 17.436 14.982">
  <path id="Path_16172" data-name="Path 16172" d="M16.607.5H.63A.63.63,0,0,0,0,1.129V14.653a.63.63,0,0,0,.629.629H16.607a.63.63,0,0,0,.629-.629V1.129A.63.63,0,0,0,16.607.5Zm-.381,1.01V9.5L13.05,6.325a.532.532,0,0,0-.751,0L7.807,10.818,4.938,7.949a.531.531,0,0,0-.751,0L1.011,11.124V1.51ZM1.011,14.272v-1.72L4.562,9,7.431,11.87a.531.531,0,0,0,.751,0l4.492-4.492,3.552,3.552v3.342Zm0,0" transform="translate(0.099 -0.4)" fill="#203061" stroke="#203061" stroke-width="0.2"/>
</svg>
