<?xml version="1.0" encoding="utf-8"?>
<!-- Generator: Adobe Illustrator 24.1.2, SVG Export Plug-In . SVG Version: 6.00 Build 0)  -->
<svg version="1.1" id="Layer_1" xmlns="http://www.w3.org/2000/svg" xmlns:xlink="http://www.w3.org/1999/xlink" x="0px" y="0px"
	 viewBox="0 0 100 100" style="enable-background:new 0 0 100 100;" xml:space="preserve">
<g id="menu_1_" transform="translate(0.3 0.3)">
	<g id="Group_20916">
		<g id="Group_20915">
			<g id="Path_11317">
				<path d="M35.7-0.3H8.2c-4.7,0-8.5,3.8-8.5,8.5v27.5c0,4.7,3.8,8.5,8.5,8.5h27.5c4.7,0,8.5-3.8,8.5-8.5V8.2
					C44.2,3.5,40.4-0.3,35.7-0.3z M37.9,35.7c0,1.2-1,2.2-2.2,2.2H8.2c-1.2,0-2.2-1-2.2-2.2V8.2C6.1,7,7,6.1,8.2,6h27.5
					c1.2,0,2.2,1,2.2,2.2V35.7z"/>
			</g>
		</g>
	</g>
	<g id="Group_20918" transform="translate(11.602)">
		<g id="Group_20917">
			<g id="Path_11318">
				<path d="M79.6-0.3H52.1c-4.7,0-8.5,3.8-8.5,8.5v27.5c0,4.7,3.8,8.5,8.5,8.5h27.5c4.7,0,8.5-3.8,8.5-8.5V8.2
					C88.1,3.5,84.3-0.3,79.6-0.3z M79.6,37.9H52.1c-1.2,0-2.2-1-2.2-2.2V8.2c0-1.2,1-2.2,2.2-2.2h27.5c1.2,0,2.2,1,2.2,2.2l0,27.5
					C81.8,36.9,80.8,37.9,79.6,37.9z"/>
			</g>
		</g>
	</g>
	<g id="Group_20920" transform="translate(0 11.602)">
		<g id="Group_20919">
			<g id="Path_11319">
				<path d="M35.7,43.6H8.2c-4.7,0-8.5,3.8-8.5,8.5v27.5c0,4.7,3.8,8.5,8.5,8.5h27.5c4.7,0,8.5-3.8,8.5-8.5V52.1
					C44.2,47.4,40.4,43.6,35.7,43.6z M6,52.1c0-1.2,1-2.2,2.2-2.2h27.5c1.2,0,2.2,1,2.2,2.2v27.5c0,1.2-1,2.2-2.2,2.2H8.2
					c-1.2,0-2.2-1-2.2-2.2V52.1z"/>
			</g>
		</g>
	</g>
	<g id="Group_20922" transform="translate(11.602 11.602)">
		<g id="Group_20921">
			<g id="Path_11320">
				<path d="M79.6,43.6H52.1c-4.7,0-8.5,3.8-8.5,8.5v27.5c0,4.7,3.8,8.5,8.5,8.5h27.5c4.7,0,8.5-3.8,8.5-8.5V52.1
					C88.1,47.4,84.3,43.6,79.6,43.6z M79.6,81.8H52.1c-1.2,0-2.2-1-2.2-2.2V52.1c0-1.2,1-2.2,2.2-2.2h27.5c1.2,0,2.2,1,2.2,2.2
					l0,27.5C81.8,80.8,80.8,81.8,79.6,81.8z"/>
			</g>
		</g>
	</g>
</g>
</svg>
