<?xml version="1.0" encoding="utf-8"?>
<!-- Generator: Adobe Illustrator 24.2.0, SVG Export Plug-In . SVG Version: 6.00 Build 0)  -->
<svg version="1.1" id="Layer_1" xmlns="http://www.w3.org/2000/svg" xmlns:xlink="http://www.w3.org/1999/xlink" x="0px" y="0px"
	 viewBox="0 0 100 100" style="enable-background:new 0 0 100 100;" xml:space="preserve">
<style type="text/css">
	.st0defaultMaterial{fill:#E2E5E7;}
	.st1defaultMaterial{fill:#B0B7BD;}
	.st2defaultMaterial{fill:#CAD1D8;}
	.st3defaultMaterial{fill:#576D7E;}
	.st4defaultMaterial{display:none;}
	.st5defaultMaterial{display:inline;fill:#FFFFFF;}
	.st6defaultMaterial{fill:#FFFFFF;}
</style>
<path class="st0defaultMaterial" d="M25-0.1c-3.4,0-6.3,2.8-6.3,6.3v87.6c0,3.4,2.8,6.3,6.3,6.3h62.6c3.4,0,6.3-2.8,6.3-6.3V25l-25-25H25z"/>
<path class="st1defaultMaterial" d="M75,25h18.8l-25-25v18.8C68.8,22.2,71.6,25,75,25z"/>
<polygon class="st2defaultMaterial" points="93.8,43.7 75,25 93.8,25 "/>
<path class="st3defaultMaterial" d="M81.3,81.3c0,1.7-1.4,3.1-3.1,3.1H9.3c-1.7,0-3.1-1.4-3.1-3.1V50c0-1.7,1.4-3.1,3.1-3.1h68.8
	c1.7,0,3.1,1.4,3.1,3.1V81.3z"/>
<g class="st4defaultMaterial">
	<path class="st5defaultMaterial" d="M-12.3,97.2c0-10.8,16.9-10.8,16.9,0v50.5c0,20.1-9.6,32.2-31.7,32.2c-10.9,0-20-3-27.9-13.2
		c-6.5-7.8,5.7-19.1,12.4-10.9c5.4,6.7,11.1,8.2,16.8,7.9c7.2-0.3,13.4-3.5,13.6-16.1L-12.3,97.2L-12.3,97.2L-12.3,97.2z"/>
	<path class="st5defaultMaterial" d="M24.3,108.7c2.9-24.8,40.4-29.3,58.1-15.7c8.7,7-0.5,18.2-8.2,12.5c-9.5-6-31-8.8-33.6,4.5
		c-3.5,21,52.2,9,51.3,43c-0.9,32.5-48,33.3-65.6,18.7c-4.2-3.4-4.1-9.1-1.8-12.5c3.3-3.3,7-4.5,11.4-0.9
		c10.5,7.2,37.5,12.5,39.4-5.6C73.5,133.6,20.3,145,24.3,108.7z"/>
</g>
<path class="st2defaultMaterial" d="M78.2,84.4H18.7v3.1h59.5c1.7,0,3.1-1.4,3.1-3.1v-3.1C81.3,83,79.9,84.4,78.2,84.4z"/>
<g>
	<path class="st6defaultMaterial" d="M22.8,72c-0.3-0.3-0.4-0.6-0.4-1.1V57.4c0-0.4,0.1-0.8,0.4-1c0.3-0.2,0.6-0.4,1.1-0.4h8.3c1,0,1.4,0.4,1.4,1.2
		c0,0.8-0.5,1.2-1.4,1.2h-6.8v4.4h6.3c1,0,1.4,0.4,1.4,1.2c0,0.8-0.5,1.2-1.4,1.2h-6.3v5.7c0,0.4-0.1,0.8-0.4,1.1
		c-0.3,0.3-0.6,0.4-1.1,0.4C23.4,72.4,23.1,72.2,22.8,72z"/>
	<path class="st6defaultMaterial" d="M36.2,72c-0.3-0.3-0.4-0.6-0.4-1.1V57.4c0-0.4,0.1-0.8,0.4-1.1c0.3-0.3,0.6-0.4,1.1-0.4c0.5,0,0.8,0.1,1.1,0.4
		c0.3,0.3,0.4,0.6,0.4,1.1v13.5c0,0.4-0.1,0.8-0.4,1.1c-0.3,0.3-0.7,0.4-1.1,0.4C36.8,72.4,36.4,72.2,36.2,72z"/>
	<path class="st6defaultMaterial" d="M42.8,71.9c-0.3-0.2-0.4-0.6-0.4-1V57.4c0-0.4,0.1-0.8,0.4-1.1c0.3-0.3,0.6-0.4,1.1-0.4c0.5,0,0.8,0.1,1.1,0.4
		c0.3,0.3,0.4,0.6,0.4,1.1v12.4h6.6c0.9,0,1.4,0.4,1.4,1.2c0,0.8-0.5,1.2-1.4,1.2h-8.2C43.4,72.2,43,72.1,42.8,71.9z"/>
	<path class="st6defaultMaterial" d="M55.9,71.9c-0.3-0.2-0.4-0.6-0.4-1V57.4c0-0.4,0.1-0.8,0.4-1c0.3-0.2,0.6-0.4,1.1-0.4h8.5
		c0.5,0,0.8,0.1,1.1,0.3c0.3,0.2,0.4,0.5,0.4,0.9c0,0.4-0.1,0.7-0.4,0.9c-0.3,0.2-0.6,0.3-1.1,0.3h-7v4.5H65c0.5,0,0.8,0.1,1.1,0.3
		c0.3,0.2,0.4,0.5,0.4,0.9c0,0.4-0.1,0.7-0.4,0.9c-0.3,0.2-0.6,0.3-1.1,0.3h-6.5v4.7h7c0.5,0,0.8,0.1,1.1,0.3
		c0.3,0.2,0.4,0.5,0.4,0.9c0,0.4-0.1,0.7-0.4,0.9c-0.3,0.2-0.6,0.3-1.1,0.3H57C56.5,72.2,56.2,72.1,55.9,71.9z"/>
</g>
</svg>
