<?xml version="1.0" encoding="utf-8"?>
<!-- Generator: Adobe Illustrator 24.1.0, SVG Export Plug-In . SVG Version: 6.00 Build 0)  -->
<svg version="1.1" id="Layer_1" xmlns="http://www.w3.org/2000/svg" xmlns:xlink="http://www.w3.org/1999/xlink" x="0px" y="0px"
	 viewBox="0 0 100 100" style="enable-background:new 0 0 100 100;" xml:space="preserve">
<g id="delete" transform="translate(-10.599 -1.22)">
	<path id="Path_221" class="" d="M31.6,13.3h15.6C48,5.9,54.6,0.5,62,1.3C68.3,2,73.3,7,74,13.3h15.6c6.3,0,11.4,5.1,11.4,11.3
		c0,0,0,0,0,0.1v0.6c0,4.7-2.8,8.9-7.2,10.7v53.9c0,6.3-5.1,11.4-11.4,11.4c0,0-0.1,0-0.1,0H38.8c-6.3,0-11.4-5.1-11.4-11.3
		c0,0,0,0,0-0.1v-54c-4.3-1.8-7.2-6-7.2-10.7v-0.6c-0.1-6.2,4.8-11.2,11-11.3C31.4,13.3,31.5,13.3,31.6,13.3z M60.6,6.7
		c-3.9,0-7.2,2.8-8,6.6h15.9C67.8,9.5,64.5,6.7,60.6,6.7z M32.8,89.8c0,3.3,2.7,5.9,5.9,6h43.6c3.3,0,6-2.7,5.9-6c0,0,0,0,0,0V36.7
		H32.8V89.8z M25.5,25.3c0,3.3,2.7,6,6,6h58c3.3,0,6-2.7,6-6v-0.6c0-3.3-2.7-6-6-6h-58c-3.3,0-6,2.7-6,6L25.5,25.3L25.5,25.3z"/>
	<path id="Path_222" class="" d="M75.2,88.9c-1.5,0-2.7-1.2-2.7-2.6c0,0,0,0,0,0l0,0V55.7c0-1.5,1.2-2.7,2.7-2.7
		c1.5,0,2.7,1.2,2.7,2.7v30.5C77.8,87.7,76.6,88.9,75.2,88.9L75.2,88.9z"/>
	<path id="Path_223" class="" d="M60.6,88.9c-1.5,0-2.7-1.2-2.7-2.6c0,0,0,0,0,0l0,0V55.7c0-1.5,1.2-2.7,2.7-2.7
		c1.5,0,2.7,1.2,2.7,2.7v30.5C63.3,87.7,62.1,88.9,60.6,88.9C60.6,88.9,60.6,88.9,60.6,88.9L60.6,88.9z"/>
	<path id="Path_224" class="" d="M46,88.9c-1.5,0-2.7-1.2-2.7-2.6c0,0,0,0,0,0l0,0V55.7c-0.1-1.5,1.1-2.8,2.6-2.9
		c1.5-0.1,2.8,1.1,2.9,2.6c0,0.1,0,0.1,0,0.2l0,0v30.5C48.8,87.7,47.6,88.9,46,88.9C46.1,88.9,46.1,88.9,46,88.9z"/>
</g>
</svg>
