<svg xmlns="http://www.w3.org/2000/svg" width="15.193" height="15.193" viewBox="0 0 15.193 15.193">
  <g id="Group_23027" data-name="Group 23027" transform="translate(-1369.945 -562.023)">
    <path id="Path_16273" data-name="Path 16273" d="M7.347,0a7.347,7.347,0,1,0,7.347,7.347A7.355,7.355,0,0,0,7.347,0Zm0,14.2A6.857,6.857,0,1,1,14.2,7.347,6.865,6.865,0,0,1,7.347,14.2Z" transform="translate(1370.195 562.273)" stroke="#000" stroke-width="0.5"/>
    <g id="Group_23026" data-name="Group 23026" transform="translate(1373.744 565.822)">
      <path id="Path_16194" data-name="Path 16194" d="M5.482-1H3.321A.922.922,0,0,0,2.7-.764.922.922,0,0,0,2.087-1H-.074A.926.926,0,0,0-1-.074V4.865a.926.926,0,0,0,.926.926H2.087A.309.309,0,0,1,2.4,6.1a.309.309,0,0,0,.617,0,.309.309,0,0,1,.309-.309H5.482a.926.926,0,0,0,.926-.926V-.074A.926.926,0,0,0,5.482-1Zm-3.4,6.174H-.074a.309.309,0,0,1-.309-.309V-.074A.309.309,0,0,1-.074-.383H2.087A.309.309,0,0,1,2.4-.074v5.3A.925.925,0,0,0,2.087,5.174Zm3.7-.309a.309.309,0,0,1-.309.309H3.321a.925.925,0,0,0-.309.053v-5.3a.309.309,0,0,1,.309-.309H5.482a.309.309,0,0,1,.309.309Z" transform="translate(1 1)" fill="#151616" stroke="#151616" stroke-width="0.2"/>
    </g>
  </g>
</svg>
