<svg xmlns="http://www.w3.org/2000/svg" width="14.03" height="14.433" viewBox="0 0 14.03 14.433">
    <g fill="#6abe52">
        <path d="M20.284 9.812a1.793 1.793 0 0 0 .42-1.2 1.841 1.841 0 0 0-.392-1.038 1.613 1.613 0 0 0-.383-1.856A3.333 3.333 0 0 0 17.5 5.14a9.472 9.472 0 0 0-1.485.19c-.151.027-.311.06-.474.1a5.265 5.265 0 0 1 .377-1.754 3.227 3.227 0 0 0-.077-2.931A1.919 1.919 0 0 0 14.3 0a.758.758 0 0 0-.582.266 2.03 2.03 0 0 0-.254 1.44c-.4 1.068-1.515 3.688-2.46 4.416a.323.323 0 0 0-.048.042 3.242 3.242 0 0 0-.592.887 1.245 1.245 0 0 0-.6-.151H7.93a1.257 1.257 0 0 0-1.255 1.255v4.9a1.257 1.257 0 0 0 1.255 1.26h1.842a1.253 1.253 0 0 0 .724-.229l.709.085a30.387 30.387 0 0 0 4.023.22c.359.027.7.042 1.011.042a6.772 6.772 0 0 0 1.4-.127 2.625 2.625 0 0 0 1.874-1.165 1.847 1.847 0 0 0 .205-1.156 1.925 1.925 0 0 0 .685-1.566 2.039 2.039 0 0 0-.119-.607zM7.93 13.5a.441.441 0 0 1-.441-.441V8.152a.441.441 0 0 1 .441-.441h1.842a.441.441 0 0 1 .441.441v4.9a.441.441 0 0 1-.441.441H7.93zm11.581-4.041a.406.406 0 0 0-.054.492 1.256 1.256 0 0 1 .139.5 1.208 1.208 0 0 1-.567 1.044.411.411 0 0 0-.139.465 1.066 1.066 0 0 1-.081.779 1.888 1.888 0 0 1-1.334.767 7.951 7.951 0 0 1-2.2.066h-.042a29.791 29.791 0 0 1-3.924-.214l-.3-.036a1.279 1.279 0 0 0 .027-.266V8.152a1.277 1.277 0 0 0-.057-.374 2.523 2.523 0 0 1 .561-1.035c1.355-1.074 2.68-4.7 2.737-4.856a.382.382 0 0 0 .018-.2 1.886 1.886 0 0 1 .039-.875 1.083 1.083 0 0 1 .851.407 2.571 2.571 0 0 1-.036 2.194c-.507 1.536-.549 2.345-.148 2.7a.658.658 0 0 0 .658.118c.184-.042.359-.078.525-.106l.039-.009c.927-.2 2.587-.326 3.163.2a.868.868 0 0 1 .1 1.1.4.4 0 0 0 .072.525 1.143 1.143 0 0 1 .335.7 1.121 1.121 0 0 1-.382.818z" transform="translate(-6.675)"/>
        <path stroke="#6abe52" d="M10.719 7.717l2.064-2.229 1.631-2.642v-2l1.011 1.837-.475 1.959V6.6l4.273-.392L19.76 9l-.413 2.167-1.012 1.933-7.452.227H8.7l-1.259-.124v-2.947l.144-2.188z" transform="translate(-6.675)"/>
    </g>
</svg>
