<svg id="Layer_1" data-name="Layer 1" xmlns="http://www.w3.org/2000/svg" viewBox="0 0 100 100"><defs><style>.doc-1{fill:#e2e5e7;}.doc-2{fill:#b0b7bd;}.doc-3{fill:#cad1d8;}.doc-4{fill:#50bee8;}.doc-5{fill:#fff;}</style></defs><path class="doc-1" d="M23,0a6.27,6.27,0,0,0-6.25,6.25v87.5A6.27,6.27,0,0,0,23,100H85.5a6.27,6.27,0,0,0,6.25-6.25V25l-25-25Z"/><path class="doc-2" d="M73,25H91.75l-25-25V18.75A6.27,6.27,0,0,0,73,25Z"/><polygon class="doc-3" points="91.75 43.75 73 25 91.75 25 91.75 43.75"/><path class="doc-4" d="M79.25,81.25a3.14,3.14,0,0,1-3.13,3.13H7.37a3.14,3.14,0,0,1-3.12-3.13V50a3.14,3.14,0,0,1,3.12-3.13H76.12A3.14,3.14,0,0,1,79.25,50Z"/><path class="doc-5" d="M16.08,75a1.56,1.56,0,0,1-1.72-1.55V59.26a1.7,1.7,0,0,1,1.72-1.55H21.8C33.22,57.71,33,75,22,75Zm1.58-14.24V72H21.8c6.75,0,7.05-11.19,0-11.19Z"/><path class="doc-5" d="M42.53,75.25c-4.62.2-9.42-2.88-9.42-9s4.8-9.17,9.42-9.17c4.37.23,8.94,3.25,8.94,9.17A8.71,8.71,0,0,1,42.53,75.25Zm-.27-14.92a5.93,5.93,0,1,0,5.94,5.93A5.73,5.73,0,0,0,42.26,60.33Z"/><path class="doc-5" d="M54.42,66.23c0-4.82,3-9,8.77-9a8.18,8.18,0,0,1,5.72,2.22,1.62,1.62,0,1,1-2.23,2.35,4.32,4.32,0,0,0-3.49-1.37c-3.85,0-5.7,2.72-5.7,5.77s1.83,6,5.7,6a5.86,5.86,0,0,0,3.9-1.6,1.67,1.67,0,0,1,2.29.3,1.73,1.73,0,0,1-.27,2.35,8.21,8.21,0,0,1-5.93,2C57.14,75.18,54.42,71.05,54.42,66.23Z"/><path class="doc-3" d="M76.12,84.38H16.75V87.5H76.12a3.14,3.14,0,0,0,3.13-3.12V81.25A3.14,3.14,0,0,1,76.12,84.38Z"/></svg>
