<?xml version="1.0" encoding="utf-8"?>
<!-- Generator: Adobe Illustrator 24.2.2, SVG Export Plug-In . SVG Version: 6.00 Build 0)  -->
<svg version="1.1" id="Layer_1" xmlns="http://www.w3.org/2000/svg" xmlns:xlink="http://www.w3.org/1999/xlink" x="0px" y="0px"
	 viewBox="0 0 100 100" style="enable-background:new 0 0 100 100;" xml:space="preserve">
<g id="doubts" transform="translate(0.05 0.05)">
	<g id="Path_15529">
		<path d="M40.4,46.4c9.8-6.6,12.7-20,6.2-30c-3.2-4.9-8-8.3-13.8-9.6c-5.7-1.3-11.6-0.2-16.5,3C10,13.7,6.3,20.6,6.2,28.1
			c0,7.4,3.7,14.2,9.9,18.3C6.3,51,0,60.9-0.1,71.8v25c0,0.8,0.3,1.7,0.9,2.3c0.6,0.6,1.4,0.9,2.3,0.9h50.2c0,0,0,0,0,0
			c1.8,0,3.2-1.4,3.2-3.2v-25C56.6,60.9,50.2,51,40.4,46.4z M12.7,28.1L12.7,28.1c0-8.6,6.9-15.7,15.5-15.7h0.1
			c8.6,0,15.6,7,15.6,15.5c0,4.2-1.6,8.1-4.5,11.1c-2.9,3-6.8,4.6-11,4.6h-0.1C19.7,43.7,12.7,36.7,12.7,28.1z M31.4,66.9v13l-3.1,3
			l-3.1-3v-13l3.1-3L31.4,66.9z M28.3,54.8l-4.4-4.4c2.9-0.6,5.9-0.6,8.8,0L28.3,54.8z M50.2,93.6H6.4V71.8c0-7.8,4.2-15,11-18.8
			l6.4,6.4l-4,4c-0.6,0.6-0.9,1.4-0.9,2.3v15.6c0,0.8,0.3,1.7,0.9,2.3l6.3,6.2c1.3,1.2,3.3,1.2,4.5,0l6.3-6.2
			c0.6-0.6,0.9-1.4,0.9-2.3V65.6c0-0.8-0.3-1.7-0.9-2.3l-4-4l6.4-6.4c6.8,3.8,10.9,11,11,18.8V93.6z"/>
	</g>
	<g id="Path_15532">
		<path d="M97.2,2.7L97.2,2.7l-0.1-0.1C95.3,0.9,92.9,0,90.5,0c0,0,0,0,0,0H62.2c-5.2,0-9.5,4.3-9.5,9.5v37.7c0,5.2,4.3,9.5,9.5,9.5
			h3.1v12.5c0,0.9,0.3,1.7,0.9,2.3c0.6,0.6,1.4,0.9,2.3,0.9c0,0,0,0,0,0c0.8,0,1.7-0.3,2.3-0.9l14.8-14.7h5c5.2,0,9.5-4.3,9.5-9.5
			V9.4C100,6.9,98.9,4.5,97.2,2.7z M93.5,47.1c0,1.7-1.4,3.1-3.1,3.1h-6.3c-0.9,0-1.7,0.3-2.3,0.9L71.7,61.3v-8
			c0-1.8-1.4-3.2-3.2-3.2h-6.3c-1.7,0-3.1-1.4-3.1-3.1V9.4c0-1.7,1.4-3.1,3.1-3.1h28.3c1.7,0,3.1,1.4,3.1,3.1L93.5,47.1z"/>
		<path d="M87.4,22v1c0,4.7-3.3,8.8-7.8,9.8V33c-0.1,1.7-1.4,3-3.1,3.1h-0.1c-0.8,0-1.6-0.3-2.2-0.8c-0.6-0.6-1-1.4-1-2.2v-2.2
			c0-2.3,1.9-4.1,4.2-4.1c2,0,3.7-1.7,3.7-3.7v-1c0-2.5-2.1-4.6-4.6-4.6h0c-2.5,0-4.6,2.1-4.6,4.6v1.6c0,1.8-1.4,3.2-3.2,3.2
			c-1.8,0-3.2-1.4-3.2-3.2V22c0-6.1,5-11,11-11c3,0,5.8,1.2,7.8,3.2S87.4,18.9,87.4,22z"/>
		<path d="M79.7,42.1L79.7,42.1c0,1.8-1.4,3.2-3.2,3.2c-1.8,0-3.2-1.4-3.2-3.2c0-1.8,1.4-3.2,3.2-3.2c0.9,0,1.7,0.3,2.3,0.9
			C79.3,40.5,79.7,41.3,79.7,42.1z"/>
	</g>
</g>
</svg>
