<svg xmlns="http://www.w3.org/2000/svg" width="22.695" height="22.695" viewBox="0 0 22.695 22.695">
    <defs>
        <style>
            <!-- .prefix__cls-1doubts{fill:#203061} -->
        </style>
    </defs>
    <g id="prefix__question">
        <path id="prefix__Path_15529" d="M8.992 41.248a4.938 4.938 0 1 0-5.26 0A6.371 6.371 0 0 0 0 47.041v5.7a.665.665 0 0 0 .665.665H12.06a.665.665 0 0 0 .665-.665v-5.7a6.37 6.37 0 0 0-3.733-5.792zM5.6 45.892l.759-.759.759.759V48.9l-.759.759L5.6 48.9zm.759-2.64l-1.114-1.118a5.053 5.053 0 0 1 2.236 0zm-3.605-6.181a3.608 3.608 0 1 1 3.608 3.608 3.612 3.612 0 0 1-3.608-3.608zm8.641 15H1.33v-5.03a5.035 5.035 0 0 1 2.56-4.381l1.533 1.533-.954.954a.665.665 0 0 0-.195.47v3.561a.665.665 0 0 0 .195.47l1.424 1.424a.665.665 0 0 0 .94 0l1.424-1.424a.664.664 0 0 0 .195-.47v-3.561a.664.664 0 0 0-.195-.47l-.957-.954 1.536-1.533a5.035 5.035 0 0 1 2.564 4.381zm0 0" class="prefix__cls-1doubts" data-name="Path 15529" transform="translate(0 -30.709)"/>
        <path id="prefix__Path_15530" d="M339.843 56.234a2.447 2.447 0 0 0-2.445 2.445v.357a.665.665 0 1 0 1.33 0v-.357a1.116 1.116 0 0 1 2.231 0v.215a.9.9 0 0 1-.9.9.881.881 0 0 0-.88.88v.5a.665.665 0 0 0 1.33 0v-.093a2.234 2.234 0 0 0 1.78-2.185v-.216a2.448 2.448 0 0 0-2.446-2.446zm0 0" class="prefix__cls-1doubts" data-name="Path 15530" transform="translate(-322.443 -53.742)"/>
        <path id="prefix__Path_15531" d="M378.9 201.5a.665.665 0 1 1-.665-.665.665.665 0 0 1 .665.665zm0 0" class="prefix__cls-1doubts" data-name="Path 15531" transform="translate(-360.829 -191.93)"/>
        <path id="prefix__Path_15532" d="M283.108.612A2.075 2.075 0 0 0 281.631 0h-6.41a2.09 2.09 0 0 0-2.089 2.089v8.546a2.092 2.092 0 0 0 2.089 2.089h.759v2.9a.665.665 0 0 0 1.135.47l3.366-3.366h1.149a2.092 2.092 0 0 0 2.089-2.089v-8.55a2.074 2.074 0 0 0-.612-1.477zm-.718 10.023a.76.76 0 0 1-.759.759h-1.424a.665.665 0 0 0-.47.195l-2.426 2.426V12.06a.665.665 0 0 0-.665-.665h-1.424a.76.76 0 0 1-.759-.759V2.089a.76.76 0 0 1 .759-.759h6.41a.76.76 0 0 1 .759.759zm0 0" class="prefix__cls-1doubts" data-name="Path 15532" transform="translate(-261.025)"/>
    </g>
</svg>
