<svg xmlns="http://www.w3.org/2000/svg" width="19.46" height="20" viewBox="0 0 19.46 20">
  <g id="XMLID_844_" transform="translate(-4.996)">
    <path id="XMLID_845_" d="M175,8.787v4.93h4.93Z" transform="translate(-160.812 -8.312)" fill="#a5abbf"/>
    <path id="XMLID_846_" d="M12.023,17.838v-1.1a2.416,2.416,0,0,1,.712-1.72l.965-.965H9.05a.811.811,0,1,1,0-1.622h6.272L19.474,8.28c.038-.038.077-.073.116-.108V7.027H13.374a.811.811,0,0,1-.811-.811V0H5.807A.811.811,0,0,0,5,.811V17.027a.811.811,0,0,0,.811.811ZM9.05,9.189h6.487a.811.811,0,1,1,0,1.622H9.05a.811.811,0,0,1,0-1.622Z" fill="#a5abbf"/>
    <path id="XMLID_849_" d="M175.572,172.684l-2.451-2.451a.811.811,0,0,0-1.147,0l-1.03,1.03-5.708,5.708a.811.811,0,0,0-.238.573V180a.811.811,0,0,0,.811.811h2.45a.811.811,0,0,0,.573-.238l6.739-6.739a.811.811,0,0,0,0-1.147Z" transform="translate(-151.354 -160.807)" fill="#a5abbf"/>
  </g>
</svg>
