<?xml version="1.0" encoding="utf-8"?>
<!-- Generator: Adobe Illustrator 24.1.2, SVG Export Plug-In . SVG Version: 6.00 Build 0)  -->
<svg version="1.1" id="Capa_1" xmlns="http://www.w3.org/2000/svg" xmlns:xlink="http://www.w3.org/1999/xlink" x="0px" y="0px"
	 viewBox="0 0 100 100" style="enable-background:new 0 0 100 100;" xml:space="preserve">
<g>
	<g>
		<g>
			<path d="M67.8,5.7h-59C3.9,5.7,0,9.6,0,14.4V85c0,4.8,3.9,8.8,8.8,8.8h59c4.8,0,8.8-3.9,8.8-8.8V14.4C76.6,9.6,72.6,5.7,67.8,5.7
				z M70.7,85c0,1.6-1.3,2.9-2.9,2.9h-59c-1.6,0-2.9-1.3-2.9-2.9V14.4c0-1.6,1.3-2.9,2.9-2.9h59c1.6,0,2.9,1.3,2.9,2.9V85z"/>
		</g>
	</g>
	<g>
		<g>
			<path d="M34.5,44.6c-1.1-1.2-3-1.2-4.1,0l-9.8,9.7l-3.8-3.8c-1.1-1.1-3-1.1-4.1,0s-1.1,3,0,4.1l5.9,5.9c0.6,0.6,1.3,0.9,2.1,0.9
				c0.7,0,1.5-0.3,2.1-0.8l11.9-11.7C35.6,47.6,35.6,45.8,34.5,44.6z"/>
		</g>
	</g>
	<g>
		<g>
			<path d="M34.5,65.1c-1.1-1.2-3-1.2-4.1,0l-9.8,9.7L16.7,71c-1.1-1.1-3-1.1-4.1,0c-1.1,1.1-1.1,3,0,4.1l5.9,5.9
				c0.6,0.6,1.3,0.9,2.1,0.9c0.7,0,1.5-0.3,2.1-0.8l11.9-11.7C35.6,68.1,35.6,66.3,34.5,65.1z"/>
		</g>
	</g>
	<g>
		<g>
			<path d="M28.4,35.8L24.7,32l3.8-3.8c1.1-1.1,1.1-3,0-4.1c-1.1-1.1-3-1.1-4.1,0l-3.8,3.8l-3.8-3.8c-1.1-1.1-3-1.1-4.1,0
				c-1.1,1.1-1.1,3,0,4.1l3.8,3.8l-3.8,3.8c-1.1,1.1-1.1,3,0,4.1c1.1,1.1,3,1.1,4.1,0l3.8-3.8l3.8,3.8c1.1,1.1,3,1.1,4.1,0
				C29.6,38.8,29.6,37,28.4,35.8z"/>
		</g>
	</g>
	<g>
		<g>
			<path d="M61.9,29.1H44.1c-1.6,0-2.9,1.3-2.9,2.9c0,1.6,1.3,2.9,2.9,2.9h17.8c1.6,0,2.9-1.3,2.9-2.9
				C64.8,30.4,63.5,29.1,61.9,29.1z"/>
		</g>
	</g>
	<g>
		<g>
			<path d="M61.9,49.6H44.1c-1.6,0-2.9,1.3-2.9,2.9c0,1.6,1.3,2.9,2.9,2.9h17.8c1.6,0,2.9-1.3,2.9-2.9
				C64.8,50.9,63.5,49.6,61.9,49.6z"/>
		</g>
	</g>
	<g>
		<g>
			<path d="M61.9,70.1H44.1c-1.6,0-2.9,1.3-2.9,2.9s1.3,2.9,2.9,2.9h17.8c1.6,0,2.9-1.3,2.9-2.9S63.5,70.1,61.9,70.1z"/>
		</g>
	</g>
	<g>
		<g>
			<path d="M91.2,11.5c-4.8,0-8.8,3.9-8.8,8.8c0,1.9,0,44.9,0,46.9c0,0.3,0.1,0.6,0.1,0.9l5.9,17.8c0.4,1.2,1.5,2,2.8,2
				s2.4-0.8,2.8-2l5.9-17.8c0.1-0.3,0.1-0.6,0.1-0.9c0-1.9,0-45,0-46.9C100,15.5,96.1,11.5,91.2,11.5z M91.2,75.6l-2.4-7.3
				c0.7-0.4,1.6-0.6,2.4-0.6s1.7,0.2,2.4,0.6L91.2,75.6z M94.1,62.2c-0.9-0.3-1.9-0.4-2.9-0.4s-2,0.1-2.9,0.4V35h5.9V62.2z
				 M94.1,29.1h-5.9v-8.8c0-1.6,1.3-2.9,2.9-2.9s2.9,1.3,2.9,2.9V29.1z"/>
		</g>
	</g>
</g>
</svg>
