<svg id="Layer_1" data-name="Layer 1" xmlns="http://www.w3.org/2000/svg" viewBox="0 0 100 100"><defs><style>.exc-0{fill:#e2e5e7;}.exc-2{fill:#b0b7bd;}.exc-3{fill:#cad1d8;}.exc-4{fill:#84bd5a;}.exc-5{fill:#fff;}</style></defs><path class="exc-0" d="M25.27,0A6.28,6.28,0,0,0,19,6.28V93.94a6.28,6.28,0,0,0,6.26,6.26H87.89a6.28,6.28,0,0,0,6.26-6.26V25.06L69.1,0Z"/><path class="exc-2" d="M75.36,25.06H94.15L69.1,0V18.8A6.28,6.28,0,0,0,75.36,25.06Z"/><polygon class="exc-3" points="94.15 43.84 75.36 25.06 94.15 25.06 94.15 43.84"/><path class="exc-4" d="M81.63,81.41a3.13,3.13,0,0,1-3.13,3.13H9.62a3.13,3.13,0,0,1-3.13-3.13V50.11A3.13,3.13,0,0,1,9.62,47H78.5a3.13,3.13,0,0,1,3.13,3.13Z"/><path class="exc-5" d="M28.47,63.84l4.35-5.46c1.31-1.7,3.84.48,2.41,2.1-1.5,1.78-3.08,3.71-4.58,5.69l5.11,6.36A1.64,1.64,0,1,1,33,74.35l-4.61-5.91-4.53,6c-1.28,1.82-4.11-.23-2.68-1.93l5-6.38c-1.58-2-3.1-3.91-4.63-5.69a1.62,1.62,0,1,1,2.51-2Z"/><path class="exc-5" d="M38.85,59.33a1.56,1.56,0,0,1,1.57-1.53,1.53,1.53,0,0,1,1.48,1.53V71.87h6.81a1.65,1.65,0,1,1,0,3.28H40.43a1.51,1.51,0,0,1-1.58-1.52V59.33Z"/><path class="exc-5" d="M53.46,61.59c.57-4.86,7.9-5.74,11.36-3.08A1.46,1.46,0,1,1,63.22,61c-1.86-1.17-6.06-1.72-6.59.87-.67,4.11,10.22,1.76,10,8.42-.17,6.36-9.39,6.5-12.84,3.65a1.84,1.84,0,0,1-.35-2.45,1.47,1.47,0,0,1,2.23-.17c2,1.4,7.33,2.45,7.7-1.11C63.09,66.47,52.68,68.7,53.46,61.59Z"/><path class="exc-3" d="M78.5,84.54H19v3.13H78.5a3.13,3.13,0,0,0,3.13-3.13V81.41A3.13,3.13,0,0,1,78.5,84.54Z"/></svg>
