<?xml version="1.0" encoding="utf-8"?>
<!-- Generator: Adobe Illustrator 24.1.0, SVG Export Plug-In . SVG Version: 6.00 Build 0)  -->
<svg version="1.1" id="Layer_1" xmlns="http://www.w3.org/2000/svg" xmlns:xlink="http://www.w3.org/1999/xlink" x="0px" y="0px"
	 viewBox="0 0 100 100" style="enable-background:new 0 0 100 100;" xml:space="preserve">
<g id="eye" transform="translate(0 -92.835)">
	<g id="Group_89" transform="translate(0 92.835)">
		<g id="Group_88" transform="translate(0 0)">
			<path id="Path_166" d="M99.4,48C98.5,46.8,77.2,18.1,50,18.1S1.5,46.8,0.6,48c-0.9,1.2-0.9,2.7,0,3.9C1.5,53.2,22.8,81.9,50,81.9
				S98.5,53.2,99.4,52C100.2,50.8,100.2,49.2,99.4,48z M50,75.3c-20,0-37.4-19-42.5-25.3c5.1-6.2,22.4-25.3,42.5-25.3
				s37.4,19,42.5,25.3C87.4,56.2,70.1,75.3,50,75.3z"/>
		</g>
	</g>
	<g id="Group_91" transform="translate(6.961 95.62)">
		<g id="Group_90" transform="translate(0 0)">
			<path id="Path_167" d="M43,27.4c-10.9,0-19.8,8.9-19.8,19.8S32.1,67,43,67s19.8-8.9,19.8-19.8l0,0C62.8,36.3,54,27.4,43,27.4z
				 M43,60.4c-7.3,0-13.2-5.9-13.2-13.2S35.8,34,43,34s13.2,5.9,13.2,13.2c0,0,0,0,0,0C56.2,54.5,50.3,60.4,43,60.4z"/>
		</g>
	</g>
</g>
</svg>
