<svg xmlns="http://www.w3.org/2000/svg" id="file-format" width="53.083" height="60.666" viewBox="0 0 53.083 60.666">
    <defs>
        <style>
            .cls-3{fill:#cad1d8}.cls-5{fill:#fff}
        </style>
    </defs>
    <path id="Path_12031" fill="#e2e5e7" d="M99.794 0A3.8 3.8 0 0 0 96 3.792v53.083a3.8 3.8 0 0 0 3.794 3.792h37.939a3.8 3.8 0 0 0 3.794-3.792V15.167L126.351 0z" transform="translate(-88.444)"/>
    <path id="Path_12032" fill="#b0b7bd" d="M355.778 15.112h11.334L352 0v11.334a3.789 3.789 0 0 0 3.778 3.778z" transform="translate(-314.029)"/>
    <path id="Path_12033" d="M395.334 139.334L384 128h11.334z" class="cls-3" transform="translate(-342.251 -112.821)"/>
    <path id="Path_12034" fill="#f15642" d="M77.527 260.78a1.9 1.9 0 0 1-1.9 1.889H33.9a1.9 1.9 0 0 1-1.9-1.889v-18.891A1.9 1.9 0 0 1 33.9 240h41.73a1.9 1.9 0 0 1 1.9 1.889z" transform="translate(-32 -211.502)"/>
    <g id="Group_21673" transform="translate(8.301 34.9)">
        <path id="Path_12035" d="M101.744 295.363a1.039 1.039 0 0 1 1.026-1.043h3.489a3.776 3.776 0 0 1 0 7.552h-2.522v1.995a.948.948 0 0 1-.967 1.041 1.018 1.018 0 0 1-1.026-1.041zm1.993.86v3.763h2.522a1.883 1.883 0 0 0 0-3.763z" class="cls-5" transform="translate(-101.744 -294.32)"/>
        <path id="Path_12036" d="M188.867 305.924a.945.945 0 0 1-1.043-.935v-8.58a1.027 1.027 0 0 1 1.043-.937h3.459c6.9 0 6.751 10.452.136 10.452zm.952-8.609v6.767h2.507c4.078 0 4.26-6.767 0-6.767z" class="cls-5" transform="translate(-177.661 -295.336)"/>
        <path id="Path_12037" d="M289.112 297.422v2.4h3.852a1.168 1.168 0 0 1 1.088 1.071 1.05 1.05 0 0 1-1.088.907h-3.852v3.172a.9.9 0 0 1-.9.935.959.959 0 0 1-1.071-.935v-8.58a.955.955 0 0 1 1.071-.937h5.3a.942.942 0 0 1 1.058.937 1.044 1.044 0 0 1-1.058 1.028h-4.4z" class="cls-5" transform="translate(-265.248 -295.322)"/>
    </g>
    <path id="Path_12038" d="M132.072 417.889H96v1.889h36.072a1.9 1.9 0 0 0 1.9-1.889V416a1.9 1.9 0 0 1-1.9 1.889z" class="cls-3" transform="translate(-88.444 -366.668)"/>
</svg>
