<svg xmlns="http://www.w3.org/2000/svg" width="40" height="40" viewBox="0 0 40 40">
  <g id="filter" transform="translate(-532 -275)">
    <circle id="Ellipse_1712" data-name="Ellipse 1712" cx="20" cy="20" r="20" transform="translate(532 275)" fill="#fff" opacity="0.8"/>
    <path id="filter-2" data-name="filter" d="M15.874,0H1.125A.625.625,0,0,0,.5.625,6.1,6.1,0,0,0,2.547,5.183L5.284,7.616a2.227,2.227,0,0,1,.747,1.663v6.095a.625.625,0,0,0,.972.52l3.687-2.458a.625.625,0,0,0,.278-.52V9.279a2.227,2.227,0,0,1,.747-1.663l2.737-2.433A6.1,6.1,0,0,0,16.5.625.625.625,0,0,0,15.874,0ZM13.622,4.249,10.885,6.682a3.478,3.478,0,0,0-1.166,2.6v3.3L7.281,14.206V9.279a3.478,3.478,0,0,0-1.166-2.6L3.377,4.249a4.855,4.855,0,0,1-1.587-3H15.209a4.854,4.854,0,0,1-1.587,3Zm0,0" transform="translate(543.5 287)" fill="#203061"/>
  </g>
</svg>
