<svg xmlns="http://www.w3.org/2000/svg" width="160" height="160" viewBox="0 0 160 160">
  <g id="generalKnowledge" transform="translate(-383 -636)">
    <rect id="Rectangle_2555" data-name="Rectangle 2555" width="160" height="160" rx="40" transform="translate(383 636)" fill="#f38498" opacity="0.2"/>
    <g id="generalKnowledge-2" data-name="generalKnowledge" transform="translate(433.181 685.836)">
      <path id="Path_15768" data-name="Path 15768" d="M39.91,22.563a17.571,17.571,0,0,1-6.656,13.8,8.432,8.432,0,0,0-3.191,5.044l-.123-.025H14.979l-.175.025a7.644,7.644,0,0,0-2.842-4.818A17.639,17.639,0,0,1,5.374,18.851,17.458,17.458,0,0,1,39.91,22.563Z" transform="translate(7.543 7.43)" fill="#f69a94"/>
      <g id="Group_22075" data-name="Group 22075" transform="translate(44.495 8.268)">
        <path id="Path_15770" data-name="Path 15770" d="M19.7,10.534a1.884,1.884,0,0,1-1.33-3.215l3.475-3.473A1.883,1.883,0,0,1,24.51,6.508L21.035,9.981A1.888,1.888,0,0,1,19.7,10.534Z" transform="translate(-17.821 -3.294)" fill="#f28079"/>
        <path id="Path_15771" data-name="Path 15771" d="M27.336,15.014H22.424a1.882,1.882,0,0,1,0-3.764h4.912a1.882,1.882,0,1,1,0,3.764Z" transform="translate(-13.714 8.6)" fill="#f28079"/>
        <path id="Path_15772" data-name="Path 15772" d="M23.175,25.06a1.867,1.867,0,0,1-1.33-.553l-3.473-3.473a1.883,1.883,0,1,1,2.662-2.662l3.473,3.477a1.884,1.884,0,0,1-1.332,3.214Z" transform="translate(-17.821 18.404)" fill="#f28079"/>
      </g>
      <path id="Path_15773" data-name="Path 15773" d="M24.287,19.525a7.421,7.421,0,0,0-.123,1.305V26.4a4.413,4.413,0,0,1-4.392,4.392H13.5c-2.107,0-4.392-1.606-4.392-5.119V21.232a7.723,7.723,0,0,0-.176-1.707l.176-.025H24.162Z" transform="translate(13.367 29.208)" fill="#f28079"/>
      <path id="Path_15775" data-name="Path 15775" d="M13.131,8.676A1.883,1.883,0,0,1,11.25,6.793V1.881a1.882,1.882,0,1,1,3.764,0V6.793A1.883,1.883,0,0,1,13.131,8.676Z" transform="translate(16.869 0.002)" fill="#f28079"/>
      <path id="Path_15777" data-name="Path 15777" d="M8.649,10.534a1.867,1.867,0,0,1-1.33-.553L3.846,6.508A1.883,1.883,0,0,1,6.509,3.845L9.982,7.318a1.884,1.884,0,0,1-1.332,3.215Z" transform="translate(4.976 4.974)" fill="#f28079"/>
      <path id="Path_15779" data-name="Path 15779" d="M6.793,15.014H1.881a1.882,1.882,0,1,1,0-3.764H6.793a1.882,1.882,0,1,1,0,3.764Z" transform="translate(0.001 16.869)" fill="#f28079"/>
      <path id="Path_15781" data-name="Path 15781" d="M5.176,25.05a1.884,1.884,0,0,1-1.33-3.211l3.473-3.473a1.883,1.883,0,0,1,2.662,2.659L6.508,24.5A1.878,1.878,0,0,1,5.176,25.05Z" transform="translate(4.976 26.682)" fill="#f28079"/>
      <path id="Path_15783" data-name="Path 15783" d="M22.165,20.047a1.883,1.883,0,0,1-1.881-1.881,6.907,6.907,0,0,0-6.9-6.9,1.882,1.882,0,0,1,0-3.764A10.684,10.684,0,0,1,24.047,18.166,1.883,1.883,0,0,1,22.165,20.047Z" transform="translate(17.223 11.233)" fill="#f28079"/>
    </g>
  </g>
</svg>
