<?xml version="1.0" encoding="utf-8"?>
<!-- Generator: Adobe Illustrator 24.1.2, SVG Export Plug-In . SVG Version: 6.00 Build 0)  -->
<svg version="1.1" id="Layer_1" xmlns="http://www.w3.org/2000/svg" xmlns:xlink="http://www.w3.org/1999/xlink" x="0px" y="0px"
	 viewBox="0 0 160 160" style="enable-background:new 0 0 160 160;" xml:space="preserve">
<style type="text/css">
	.st0{opacity:0.2;fill:#4DC1B7;enable-background:new    ;}
	.st1{fill:#FCFDFE;}
	.st2{fill:#4DC1B7;}
	.st3{fill:#9BD6CE;}
	.st4{enable-background:new    ;}
</style>
<g id="gujarati" transform="translate(-783 -636)">
	<path id="Rectangle_2558" class="st0" d="M823,636h80c22.1,0,40,17.9,40,40v80c0,22.1-17.9,40-40,40h-80c-22.1,0-40-17.9-40-40v-80
		C783,653.9,800.9,636,823,636z"/>
	<g id="Group_22151" transform="translate(-197.28 -239.23)">
		<g id="Edusense_subject_icons_Gujarati" transform="translate(1034.28 925.23)">
			<path id="Path_15746" class="st1" d="M44.3,1.6h7.1V60h-7.1V1.6z"/>
			<path id="Rectangle_2548" class="st2" d="M12.5,0h35v60h-35C5.6,60,0,54.4,0,47.5v-35C0,5.6,5.6,0,12.5,0z"/>
			<path id="Rectangle_2551" class="st3" d="M4.2,46.2h43.3V60H9.6C4.3,60,0,55.8,0,50.5l0,0C0,48.2,1.9,46.3,4.2,46.2L4.2,46.2z"/>
			<rect id="Rectangle_2553" x="16.2" y="32.5" class="st1" width="15" height="2.5"/>
			<g class="st4">
				<path class="st1" d="M28,24.8l1.1-0.7l0.8,1.9c-0.2,0.1-0.4,0.2-0.6,0.3c-0.2,0.1-0.4,0.2-0.7,0.2c-0.2,0.1-0.5,0.1-0.7,0.2
					c-0.2,0-0.5,0.1-0.7,0.1c-0.5,0-0.9-0.2-1.1-0.5c-0.3-0.3-0.4-0.8-0.4-1.4v-2.5c-0.2,0-0.4,0.1-0.6,0.1s-0.4,0-0.6,0
					c-0.4,0-0.7-0.1-1.1-0.2c-0.3-0.1-0.6-0.3-0.9-0.6c-0.2,0.5-0.4,0.9-0.6,1.2s-0.6,0.6-0.9,0.8c-0.3,0.2-0.7,0.4-1.1,0.5
					s-0.8,0.1-1.3,0.1c-0.8,0-1.6-0.3-2.3-0.8c-0.7-0.5-1.3-1.3-1.8-2.4c-0.2,0-0.4,0-0.7,0s-0.4,0-0.6-0.1l0.2-1.9
					c0.2,0,0.3,0,0.5,0.1s0.4,0,0.6,0c0.3,0,0.6,0,0.8-0.1s0.4-0.2,0.6-0.4c0.2-0.2,0.3-0.3,0.4-0.5c0.1-0.2,0.1-0.4,0.1-0.7
					c0-0.3,0-0.5-0.1-0.7s-0.2-0.4-0.4-0.6c-0.2-0.2-0.3-0.3-0.6-0.4c-0.2-0.1-0.5-0.1-0.7-0.1c-0.4,0-0.7,0-0.9,0.1l-0.3-1.9
					c0.2,0,0.4-0.1,0.6-0.1c0.2,0,0.4,0,0.6,0c0.7,0,1.4,0.1,1.9,0.3s1,0.5,1.3,0.9c0.4,0.4,0.6,0.8,0.8,1.2
					c0.2,0.5,0.3,0.9,0.3,1.4c0,0.4-0.1,0.8-0.2,1.1s-0.3,0.7-0.5,0.9s-0.5,0.5-0.8,0.8s-0.6,0.4-1,0.5c0.3,0.5,0.6,0.8,0.9,1.1
					s0.7,0.4,1.1,0.4c0.3,0,0.6-0.1,0.9-0.2s0.5-0.4,0.7-0.7c0.2-0.3,0.3-0.7,0.4-1.2s0.1-1.1,0.1-1.8v-1.9h2.3v1.9
					c0,0.3,0.1,0.6,0.1,0.9c0.1,0.3,0.2,0.5,0.4,0.6s0.3,0.3,0.5,0.4c0.2,0.1,0.4,0.1,0.7,0.1c0.2,0,0.4,0,0.6-0.1s0.4-0.1,0.5-0.3
					v-6.2H28V24.8z"/>
			</g>
		</g>
	</g>
</g>
</svg>
