<?xml version="1.0" encoding="utf-8"?>
<!-- Generator: Adobe Illustrator 24.1.3, SVG Export Plug-In . SVG Version: 6.00 Build 0)  -->
<svg version="1.1" id="Layer_1" xmlns="http://www.w3.org/2000/svg" xmlns:xlink="http://www.w3.org/1999/xlink" x="0px" y="0px"
	 viewBox="0 0 100 100" style="enable-background:new 0 0 100 100;" xml:space="preserve">
<g id="help">
	<g id="Group_173">
		<g id="Group_172">
			<circle id="Ellipse_6" cx="50" cy="73.9" r="4.9"/>
			<path id="Path_11251" d="M50,0C22.4,0,0,22.4,0,50s22.4,50,50,50s50-22.4,50-50S77.7,0,50,0L50,0z M50,92.2
				C26.7,92.2,7.8,73.3,7.8,50S26.7,7.8,50,7.8S92.2,26.7,92.2,50S73.3,92.2,50,92.2L50,92.2z"/>
			<path id="Path_11252" d="M50,25.1c-8.6,0-15.6,7-15.6,15.6c0,2.2,1.8,3.9,3.9,3.9c2.2,0,3.9-1.8,3.9-3.9c0-4.3,3.5-7.8,7.8-7.8
				s7.8,3.5,7.8,7.8s-3.5,7.8-7.8,7.8c-2.2,0-3.9,1.7-3.9,3.9l0,0v9.8c0,2.2,1.8,3.9,3.9,3.9c2.2,0,3.9-1.8,3.9-3.9v-6.3
				c8.4-2.1,13.4-10.6,11.3-19C63.5,29.9,57.2,25.1,50,25.1L50,25.1z"/>
		</g>
	</g>
</g>
</svg>
