<svg xmlns="http://www.w3.org/2000/svg" width="19.122" height="19.084" viewBox="0 0 19.122 19.084">
  <g id="hidepassword" transform="translate(0 -0.516)" opacity="0.6">
    <g id="Group_22" data-name="Group 22" transform="translate(5.306 9.075)">
      <g id="Group_21" data-name="Group 21">
        <path id="Path_10" data-name="Path 10" d="M145.9,233.385a2.769,2.769,0,0,1-2.3-2.3l-1.413-1.413a4.26,4.26,0,0,0,5.124,5.124Z" transform="translate(-142.07 -229.673)" fill="#1d2c3c"/>
      </g>
    </g>
    <g id="Group_24" data-name="Group 24" transform="translate(0.019 0.516)">
      <g id="Group_23" data-name="Group 23" transform="translate(0 0)">
        <path id="Path_11" data-name="Path 11" d="M19.023,10.919c.1-.133.291-.412.312-.443l.284-.419-.284-.419c-.021-.031-.21-.31-.312-.443A20.4,20.4,0,0,0,15.9,5.851a9.2,9.2,0,0,0-5.839-2.4,8.27,8.27,0,0,0-4.27,1.281L1.572.516.516,1.572,18.544,19.6,19.6,18.544l-4.023-4.023A19.917,19.917,0,0,0,19.023,10.919Zm-6.557.491-1-1A1.456,1.456,0,0,0,9.7,8.646l-1-1a2.763,2.763,0,0,1,3.761,3.761Zm1.082,1.082A4.256,4.256,0,0,0,7.623,6.568l-.742-.742a6.618,6.618,0,0,1,3.176-.882c2.526,0,5.132,1.721,7.744,5.114a17.786,17.786,0,0,1-3.29,3.4Z" transform="translate(-0.516 -0.516)" fill="#1d2c3c"/>
      </g>
    </g>
    <g id="Group_26" data-name="Group 26" transform="translate(0 6.582)">
      <g id="Group_25" data-name="Group 25">
        <path id="Path_12" data-name="Path 12" d="M11.24,171.276a5.913,5.913,0,0,1-1.679.251c-2.526,0-5.132-1.721-7.744-5.114a20.391,20.391,0,0,1,2.142-2.42L2.9,162.938A22.007,22.007,0,0,0,.6,165.552c-.1.133-.291.411-.312.443L0,166.414l.284.419c.021.031.21.31.312.443a20.4,20.4,0,0,0,3.126,3.346,9.2,9.2,0,0,0,5.839,2.4,7.644,7.644,0,0,0,2.851-.572Z" transform="translate(0 -162.938)" fill="#1d2c3c"/>
      </g>
    </g>
  </g>
</svg>
