<?xml version="1.0" encoding="utf-8"?>
<!-- Generator: Adobe Illustrator 24.1.2, SVG Export Plug-In . SVG Version: 6.00 Build 0)  -->
<svg version="1.1" id="Layer_1" xmlns="http://www.w3.org/2000/svg" xmlns:xlink="http://www.w3.org/1999/xlink" x="0px" y="0px"
	 viewBox="0 0 160 160" style="enable-background:new 0 0 160 160;" xml:space="preserve">
<style type="text/css">
	.st0{opacity:0.2;fill:#F2B355;enable-background:new    ;}
	.st1{fill:#FCFDFE;}
	.st2{fill:#F2B355;}
	.st3{fill:#F2C89C;}
	.st4{enable-background:new    ;}
</style>
<g id="hindi" transform="translate(-783 -636)">
	<path id="Rectangle_2558" class="st0" d="M823,636h80c22.1,0,40,17.9,40,40v80c0,22.1-17.9,40-40,40h-80c-22.1,0-40-17.9-40-40v-80
		C783,653.9,800.9,636,823,636z"/>
	<g id="Group_22152" transform="translate(-307.28 -239.23)">
		<g id="Edusense_subject_icons_Hindi" transform="translate(1144.28 925.23)">
			<g id="Group_21960" transform="translate(0 0)">
				<path id="Path_15746" class="st1" d="M44.3,1.6h7.1V60h-7.1V1.6z"/>
				<g id="Group_22073">
					<path id="Rectangle_2548" class="st2" d="M12.5,0h35v60h-35C5.6,60,0,54.4,0,47.5v-35C0,5.6,5.6,0,12.5,0z"/>
					<path id="Rectangle_2551" class="st3" d="M4.2,46.2h43.3V60H9.6C4.3,60,0,55.7,0,50.4l0,0C0,48.1,1.9,46.3,4.2,46.2
						C4.2,46.3,4.2,46.3,4.2,46.2L4.2,46.2z"/>
				</g>
				<g id="A" transform="translate(16.215 10.796)">
					<g class="st4">
						<path class="st1" d="M13.7,5.2v2.1h-1.6V17H9.6v-4.2H8v0.1c0,1-0.3,1.7-0.9,2.3c-0.6,0.6-1.4,0.8-2.4,0.8
							c-0.7,0-1.4-0.1-2-0.4c-0.6-0.3-1-0.7-1.3-1.2C1.1,13.9,1,13.3,1,12.7h2.4c0,0.3,0.1,0.6,0.3,0.9s0.5,0.4,0.9,0.4
							c0.4,0,0.7-0.1,0.9-0.3c0.2-0.2,0.3-0.5,0.3-0.9c0-0.4-0.1-0.7-0.4-0.9c-0.3-0.2-0.6-0.4-1.1-0.4H3.6v-2h0.7
							c0.4,0,0.7-0.1,1-0.3c0.3-0.2,0.4-0.5,0.4-0.8c0-0.3-0.1-0.6-0.3-0.8C5.1,7.2,4.9,7.1,4.5,7.1c-0.3,0-0.6,0.1-0.8,0.3
							C3.5,7.6,3.4,7.9,3.4,8.2H1.1c0-0.6,0.1-1.2,0.4-1.7s0.7-0.9,1.2-1.1C3.2,5.1,3.9,5,4.5,5c1,0,1.8,0.3,2.4,0.8
							C7.6,6.3,7.9,7,7.9,7.9c0,0.6-0.1,1.1-0.4,1.5c-0.3,0.4-0.7,0.7-1.2,0.9v0c0.3,0.1,0.6,0.2,0.8,0.4h2.6V5.2H13.7z"/>
					</g>
				</g>
				<rect id="Rectangle_2553" x="16.2" y="32.5" class="st1" width="15.1" height="2.5"/>
			</g>
		</g>
	</g>
</g>
</svg>
