<?xml version="1.0" encoding="utf-8"?>
<!-- Generator: Adobe Illustrator 24.1.1, SVG Export Plug-In . SVG Version: 6.00 Build 0)  -->
<svg version="1.1" id="Layer_1" xmlns="http://www.w3.org/2000/svg" xmlns:xlink="http://www.w3.org/1999/xlink" x="0px" y="0px"
	 viewBox="0 0 1291.8 382.8" style="enable-background:new 0 0 1291.8 382.8;" xml:space="preserve">
<style type="text/css">
	.st0ios{fill:#FFFFFF;}
	.st1ios{display:none;fill:#A6A6A6;}
	.st2ios{display:none;fill:url(#SVGID_1_);}
</style>
<path class="st0ios" d="M1290,344.6c0,21.2-16.6,38.4-37,38.4c0,0,0,0,0,0H40.1C19.6,383,3,365.8,3,344.6V38.4C3,17.2,19.6,0,40.1,0
	h1212.8c20.5,0,37.1,17.2,37.1,38.4c0,0,0,0,0,0L1290,344.6z"/>
<path class="st1ios" d="M1246.1,382.4H44.9c-25,0-45.2-20.2-45.3-45.2V44.9c0-25,20.3-45.2,45.3-45.2h1201.2c25,0,45.2,20.3,45.3,45.2
	v292.3C1291.4,362.1,1271.1,382.4,1246.1,382.4L1246.1,382.4z"/>
<path d="M1290,344.6c0,21.2-16.6,38.4-37,38.4c0,0,0,0,0,0H40.1C19.6,383,3,365.8,3,344.6V38.4C3,17.2,19.6,0,40.1,0h1212.8
	c20.5,0,37.1,17.2,37.1,38.4c0,0,0,0,0,0L1290,344.6z"/>
<path class="st0ios" d="M285.6,189.4c-0.3-32.3,25.5-48,26.7-48.8c-14.6-22.1-37.2-25.1-45.2-25.3c-19-2.1-37.5,11.8-47.1,11.8
	c-9.9,0-24.8-11.6-40.9-11.3c-20.7,0.3-40,12.8-50.7,32c-21.9,39.3-5.6,97.1,15.4,128.9c10.5,15.6,22.8,33,38.8,32.3
	c15.7-0.7,21.6-10.4,40.5-10.4c18.8,0,24.3,10.4,40.7,10c16.9-0.3,27.5-15.6,37.6-31.3c12.1-17.8,17-35.4,17.2-36.3
	C318.3,240.9,286,228.1,285.6,189.4L285.6,189.4z M254.7,94.4c8.4-11,14.2-25.9,12.6-41c-12.2,0.6-27.5,8.8-36.3,19.5
	c-7.8,9.4-14.8,24.9-13,39.5C231.8,113.4,245.9,105.2,254.7,94.4z"/>
<linearGradient id="SVGID_1_" gradientUnits="userSpaceOnUse" x1="542.4084" y1="150.5082" x2="542.4084" y2="186.5532" gradientTransform="matrix(38.317 0 0 -38.2963 -19836.4102 6147.2988)">
	<stop  offset="0" style="stop-color:#1A1A1A;stop-opacity:0.1"/>
	<stop  offset="0.123" style="stop-color:#212121;stop-opacity:0.151"/>
	<stop  offset="0.308" style="stop-color:#353535;stop-opacity:0.227"/>
	<stop  offset="0.532" style="stop-color:#575757;stop-opacity:0.318"/>
	<stop  offset="0.783" style="stop-color:#858585;stop-opacity:0.421"/>
	<stop  offset="1" style="stop-color:#B3B3B3;stop-opacity:0.51"/>
</linearGradient>
<path class="st2ios" d="M1246.1-0.4H602.7l252,382.8h391.4c25,0,45.2-20.2,45.3-45.2V44.9C1291.3,19.9,1271.1-0.3,1246.1-0.4z"/>
<g>
	<path class="st0ios" d="M513.1,306.9h-22l-12-39.2h-41.8l-11.5,39.2h-21.4L446,173.5h25.6L513.1,306.9z M475.5,251.3l-10.9-34.8
		c-1.1-3.6-3.3-11.9-6.5-25.1h-0.4c-1.3,5.7-3.3,14.1-6.1,25.1L441,251.3H475.5z M619.5,257.6c0,16.4-4.3,29.3-12.9,38.8
		c-7.7,8.5-17.2,12.7-28.6,12.7c-12.3,0-21.1-4.5-26.5-13.6v50.5h-20.6V242.3c0-10.3-0.3-20.8-0.8-31.6h18.1l1.1,15.2h0.4
		c6.9-11.5,17.3-17.2,31.3-17.2c10.9,0,20.1,4.5,27.4,13.5C615.8,231.1,619.5,243,619.5,257.6L619.5,257.6z M598.5,258.4
		c0-9.4-2-17.1-6.1-23.2c-4.5-6.3-10.4-9.5-17.9-9.5c-5.1,0-9.7,1.8-13.8,5.2c-4.1,3.5-6.8,8.1-8.1,13.8c-0.6,2.1-0.9,4.3-1,6.5v16
		c0,7,2.1,12.9,6.2,17.7c4.1,4.8,9.5,7.2,16.1,7.2c7.8,0,13.8-3.1,18.1-9.3C596.3,276.7,598.5,268.5,598.5,258.4z M726.1,257.6
		c0,16.4-4.3,29.3-12.9,38.8c-7.7,8.5-17.2,12.7-28.6,12.7c-12.3,0-21.1-4.5-26.5-13.6v50.5h-20.6V242.3c0-10.3-0.3-20.8-0.8-31.6
		h18.1l1.1,15.2h0.4c6.9-11.5,17.3-17.2,31.3-17.2c10.9,0,20.1,4.5,27.4,13.5C722.5,231.1,726.1,243,726.1,257.6L726.1,257.6z
		 M705.1,258.4c0-9.4-2-17.1-6.1-23.2c-4.5-6.3-10.4-9.5-17.9-9.5c-5.1,0-9.7,1.8-13.9,5.2c-4.1,3.5-6.8,8.1-8.1,13.8
		c-0.6,2.6-1,4.8-1,6.5v16c0,7,2.1,12.9,6.2,17.7c4.1,4.8,9.5,7.2,16.1,7.2c7.8,0,13.8-3.1,18.1-9.3
		C703,276.7,705.1,268.5,705.1,258.4L705.1,258.4z M845.4,269.5c0,11.4-3.8,20.6-11.4,27.7c-8.4,7.8-20.1,11.7-35,11.7
		c-13.8,0-24.9-2.8-33.3-8.3l4.8-17.8c9,5.6,19,8.3,29.8,8.3c7.8,0,13.8-1.8,18.1-5.4c4.3-3.6,6.5-8.5,6.5-14.5
		c0-5.4-1.8-10-5.4-13.7c-3.6-3.7-9.5-7.1-17.7-10.3c-22.5-8.7-33.8-21.5-33.8-38.2c0-10.9,4-19.9,11.9-26.9
		c7.9-7,18.5-10.5,31.6-10.5c11.7,0,21.5,2.1,29.2,6.3l-5.2,17.4c-7.3-4.1-15.5-6.1-24.7-6.1c-7.3,0-13,1.9-17.1,5.5
		c-3.4,3.3-5.2,7.3-5.2,12.1c0,5.3,2,9.6,5.9,13.1c3.4,3.2,9.7,6.6,18.7,10.3c11.1,4.6,19.2,10,24.4,16.2
		C842.8,252.5,845.4,260.2,845.4,269.5L845.4,269.5z M913.7,226.7H891v46.7c0,11.9,4,17.8,12,17.8c3.7,0,6.7-0.3,9.2-1l0.6,16.2
		c-4.1,1.6-9.4,2.4-16,2.4c-8.1,0-14.5-2.6-19.1-7.7c-4.6-5.2-6.9-13.8-6.9-25.9v-48.5h-13.5v-16h13.5V193l20.2-6.3v24h22.7V226.7z
		 M1016,258c0,14.8-4.1,26.9-12.2,36.4c-8.5,9.8-19.8,14.6-34,14.6c-13.6,0-24.5-4.7-32.5-14c-8.1-9.4-12.1-21.2-12.1-35.4
		c0-14.9,4.2-27.1,12.5-36.6c8.3-9.5,19.6-14.3,33.7-14.3c13.6,0,24.5,4.7,32.8,14.1C1012.1,231.9,1016,243.6,1016,258L1016,258z
		 M994.7,258.5c0-8.8-1.8-16.4-5.5-22.7c-4.3-7.6-10.5-11.5-18.5-11.5c-8.3,0-14.6,3.8-18.9,11.5c-3.7,6.3-5.5,14-5.5,23.1
		c0,8.8,1.8,16.4,5.5,22.7c4.5,7.6,10.7,11.5,18.7,11.5c7.9,0,14.1-3.9,18.5-11.6C992.8,274.9,994.7,267.3,994.7,258.5L994.7,258.5z
		 M1083,229.5c-2.1-0.4-4.3-0.6-6.5-0.6c-7.2,0-12.9,2.8-16.8,8.5c-3.4,5-5.1,11.3-5.1,19v50.5H1034V241c0-10.1-0.2-20.2-0.6-30.3
		h18l0.8,18.4h0.6c2.2-6.3,5.6-11.4,10.3-15.2c4.3-3.3,9.5-5.1,14.9-5.2c1.9,0,3.6,0.1,5.2,0.4L1083,229.5z M1175.2,254.2
		c0.1,3.2-0.2,6.5-0.8,9.7h-61.8c0.2,9.5,3.2,16.8,9,21.8c5.2,4.5,11.9,6.7,20.2,6.7c9.2,0,17.5-1.5,25-4.5l3.2,14.8
		c-8.8,4-19.1,5.9-31.1,5.9c-14.4,0-25.7-4.4-33.9-13.2c-8.2-8.8-12.3-20.6-12.3-35.3c0-14.5,3.8-26.6,11.5-36.2
		c8-10.3,18.8-15.4,32.4-15.4c13.4,0,23.5,5.1,30.4,15.4C1172.5,232.1,1175.2,242.2,1175.2,254.2L1175.2,254.2z M1155.6,248.7
		c0.1-6.3-1.2-11.8-4-16.4c-3.6-6-9.1-8.9-16.4-8.9c-6.7,0-12.2,2.9-16.4,8.7c-3.4,4.6-5.5,10.2-6.1,16.6L1155.6,248.7z
		 M431.4,126.3c-5.7,0-10.7-0.3-14.8-0.8V61c5.8-0.9,11.6-1.4,17.4-1.4c23.6,0,34.5,12.1,34.5,31.7
		C468.6,114.1,455.7,126.3,431.4,126.3L431.4,126.3z M434.9,67.9c-3.2,0-5.9,0.2-8.2,0.7v49c1.2,0.2,3.6,0.3,6.8,0.3
		c15.5,0,24.3-9.1,24.3-26.3C457.9,76.4,449.9,67.9,434.9,67.9L434.9,67.9z M502.5,126.8c-13.3,0-22-10.3-22-24.3
		c0-14.6,8.8-25,22.7-25c13.1,0,22,9.8,22,24.2C525.2,116.5,516.1,126.8,502.5,126.8z M502.9,85.2c-7.3,0-12,7.1-12,17
		c0,9.7,4.8,16.8,11.9,16.8s11.9-7.6,11.9-17C514.7,92.4,510,85.2,502.9,85.2L502.9,85.2z M601.2,78.5l-14.3,47.3h-9.3l-5.9-20.5
		c-1.5-5-2.7-10.1-3.7-15.3h-0.2c-0.7,5.2-2.2,10.3-3.7,15.3l-6.3,20.5h-9.4l-13.4-47.3h10.4l5.2,22.5c1.2,5.4,2.2,10.4,3.1,15.2
		h0.2c0.7-4,2-9,3.8-15.1l6.5-22.6h8.3l6.2,22.1c1.4,5.1,2.7,10.3,3.7,15.6h0.3c0.7-4.9,1.7-10,3.1-15.6l5.5-22.1L601.2,78.5z
		 M653.6,125.7h-10.1V98.6c0-8.4-3.1-12.6-9.2-12.6c-6,0-10.1,5.4-10.1,11.6v28.1h-10.1V92c0-4.2-0.1-8.7-0.4-13.5h8.9l0.5,7.3h0.3
		c2.7-5.1,8.3-8.3,14.5-8.3c9.6,0,15.9,7.6,15.9,19.9L653.6,125.7z M681.6,125.7h-10.1v-69h10.1V125.7z M718.5,126.8
		c-13.3,0-22-10.3-22-24.3c0-14.6,8.8-25,22.7-25c13.1,0,22,9.8,22,24.2C741.2,116.5,732.1,126.8,718.5,126.8z M718.9,85.2
		c-7.3,0-12,7.1-12,17c0,9.7,4.8,16.8,11.9,16.8c7.1,0,11.9-7.6,11.9-17C730.7,92.4,726,85.2,718.9,85.2L718.9,85.2z M781.2,125.7
		l-0.7-5.4h-0.3c-3.1,4.4-7.6,6.5-13.3,6.5c-8.2,0-14-5.9-14-13.9c0-11.7,9.8-17.7,26.6-17.7v-0.9c0-6.2-3.2-9.3-9.5-9.3
		c-4.5,0-8.4,1.2-11.9,3.5l-2.1-6.9c4.2-2.7,9.5-4.1,15.7-4.1c11.9,0,17.9,6.5,17.9,19.6v17.4c0,4.8,0.2,8.5,0.7,11.3L781.2,125.7z
		 M779.8,102.2c-11.3,0-16.9,2.8-16.9,9.5c0,5,2.9,7.4,6.9,7.4c5.2,0,9.9-4.1,9.9-9.6L779.8,102.2z M838.8,125.7l-0.5-7.6h-0.3
		c-2.9,5.7-7.8,8.7-14.6,8.7c-11,0-19.1-10-19.1-24.1c0-14.8,8.4-25.2,20-25.2c6.1,0,10.4,2.1,12.9,6.4h0.2V56.8h10.1V113
		c0,4.6,0.1,8.9,0.4,12.7L838.8,125.7z M837.3,97.9c0-6.6-4.2-12.3-10.7-12.3c-7.5,0-12.1,6.9-12.1,16.6c0,9.5,4.8,16.1,11.9,16.1
		c6.4,0,10.9-5.7,10.9-12.6L837.3,97.9z M911.8,126.8c-13.3,0-21.9-10.3-21.9-24.3c0-14.6,8.8-25,22.7-25c13.1,0,22,9.8,22,24.2
		C934.5,116.5,925.4,126.8,911.8,126.8L911.8,126.8z M912.1,85.2c-7.3,0-12,7.1-12,17c0,9.7,4.8,16.8,11.9,16.8
		c7.1,0,11.9-7.6,11.9-17C924,92.4,919.3,85.2,912.1,85.2L912.1,85.2z M988.9,125.7h-10.1V98.6c0-8.4-3.1-12.6-9.2-12.6
		c-6,0-10.1,5.4-10.1,11.6v28.1h-10.1V92c0-4.2-0.1-8.7-0.4-13.5h8.9l0.5,7.3h0.3c2.7-5.1,8.3-8.3,14.4-8.3
		c9.6,0,15.9,7.6,15.9,19.9V125.7z M1057.1,86.3H1046v23c0,5.8,2,8.8,5.9,8.8c1.8,0,3.3-0.2,4.5-0.5l0.3,8c-2,0.8-4.6,1.2-7.9,1.2
		c-8,0-12.8-4.6-12.8-16.5V86.3h-6.7v-7.9h6.7v-8.7l9.9-3.1v11.8h11.1L1057.1,86.3z M1110.7,125.7h-10.1V98.8
		c0-8.5-3.1-12.7-9.2-12.7c-5.2,0-10.1,3.7-10.1,11.2v28.5h-10.1v-69h10.1v28.4h0.2c3.2-5.2,7.8-7.7,13.7-7.7
		c9.6,0,15.5,7.8,15.5,20.1V125.7z M1165.7,104.6h-30.4c0.2,9,5.9,14,14.4,14c4.5,0,8.6-0.8,12.3-2.2l1.6,7.3
		c-4.3,1.9-9.4,2.9-15.3,2.9c-14.3,0-22.7-9.3-22.7-23.8c0-14.5,8.6-25.4,21.6-25.4c11.6,0,19,9,19,22.5
		C1166.1,101.5,1166,103.1,1165.7,104.6L1165.7,104.6z M1156.4,97.1c0-7.3-3.6-12.5-10-12.5c-5.8,0-10.4,5.3-11.1,12.5H1156.4z"/>
</g>
</svg>
