<?xml version="1.0" encoding="utf-8"?>
<!-- Generator: Adobe Illustrator 24.2.2, SVG Export Plug-In . SVG Version: 6.00 Build 0)  -->
<svg version="1.1" id="Layer_1" xmlns="http://www.w3.org/2000/svg" xmlns:xlink="http://www.w3.org/1999/xlink" x="0px" y="0px"
	 viewBox="0 0 100 100" style="enable-background:new 0 0 100 100;" xml:space="preserve">
<g id="join" transform="translate(0.001 0)">
	<path id="Path_16085" d="M89.4,47.6H10.9c-5.5,0-9.9,4.5-9.9,9.9v34.2c0,5.5,4.5,9.9,9.9,9.9h78.4c5.5,0,9.9-4.5,9.9-9.9V57.6
		C99.3,52.1,94.9,47.6,89.4,47.6z M93.4,91.8c0,2.2-1.8,4-4,4H10.9c-2.2,0-4-1.8-4-4V57.6c0-2.2,1.8-4,4-4h78.4c2.2,0,4,1.8,4,4
		L93.4,91.8z"/>
	<path id="Path_16086" d="M50.2,32c5.1,0,9.2-4.1,9.2-9.2c0-5.1-4.1-9.2-9.2-9.2c-5.1,0-9.2,4.1-9.2,9.2c0,2.4,1,4.8,2.7,6.5
		C45.4,31.1,47.7,32,50.2,32z M47.8,20.5c1.3-1.3,3.4-1.3,4.6,0c1.3,1.3,1.3,3.3,0,4.6c0,0,0,0,0,0c-1.3,1.3-3.4,1.3-4.6,0
		C46.6,23.8,46.6,21.8,47.8,20.5C47.8,20.5,47.8,20.5,47.8,20.5z"/>
	<path id="Path_16087" d="M61,35.8c1.2,1.2,3,1.2,4.2,0c0,0,0,0,0,0c7.2-7.2,7.2-18.8,0-26c0,0,0,0,0,0c-1.2-1.2-3-1.2-4.2,0
		c-1.2,1.2-1.2,3,0,4.2c4.9,4.8,4.9,12.7,0.1,17.6c0,0,0,0-0.1,0.1C59.9,32.8,59.9,34.7,61,35.8C61,35.8,61,35.8,61,35.8L61,35.8z"
		/>
	<path id="Path_16088" d="M35.1,35.8c1.2,1.2,3,1.2,4.2,0c1.2-1.2,1.2-3,0-4.2l0,0c-4.9-4.8-4.9-12.7-0.1-17.6c0,0,0,0,0.1-0.1
		c1.2-1.2,1.2-3,0-4.2c-1.2-1.2-3-1.2-4.2,0C27.9,17,27.9,28.6,35.1,35.8C35,35.8,35,35.8,35.1,35.8L35.1,35.8z"/>
	<path id="Path_16089" d="M26.9,83.9h-8V62.5c0-1.6-1.3-3-3-3s-3,1.3-3,3v24.3c0,1.6,1.3,3,3,3c0,0,0,0,0,0h11c1.6,0,3-1.3,3-3
		S28.5,83.9,26.9,83.9L26.9,83.9z"/>
	<path id="Path_16090" d="M36.1,59.5c-1.6,0-3,1.3-3,3l0,0v24.3c0,1.6,1.3,3,3,3s3-1.3,3-3V62.5C39.1,60.9,37.7,59.5,36.1,59.5
		C36.1,59.5,36.1,59.5,36.1,59.5z"/>
	<path id="Path_16091" d="M62.1,59.6c-1.6-0.5-3.2,0.4-3.7,2c0,0,0,0,0,0l-4.5,14.9l-4.5-14.9c-0.4-1.6-2.1-2.5-3.6-2.1
		c-1.6,0.4-2.5,2.1-2.1,3.6c0,0.1,0,0.1,0,0.2L51,87.6l0,0c0.6,1.6,2.3,2.4,3.9,1.8c0.9-0.3,1.5-1,1.8-1.8l0,0L64,63.3
		C64.5,61.8,63.6,60.1,62.1,59.6z"/>
	<path id="Path_16092" d="M84.4,65.5c1.6,0,3-1.3,3-3s-1.3-3-3-3H71c-1.6,0-3,1.3-3,3c0,0,0,0,0,0v24.3c0,1.6,1.3,3,3,3c0,0,0,0,0,0
		h13c1.6,0,3-1.3,3-3s-1.3-3-3-3h-10v-7.8h8.5c1.6,0,3-1.3,3-3s-1.3-3-3-3l0,0h-8.5v-4.7L84.4,65.5z"/>
	<path id="Path_16093" d="M75.1,22.8c0,6.6-2.6,12.9-7.3,17.6c-1.2,1.2-1.2,3,0,4.2c1.2,1.2,3,1.2,4.2,0C84,32.6,84,13.1,72,1.1
		c0,0,0,0-0.1-0.1c-1.1-1.2-3-1.4-4.2-0.3c-1.2,1.1-1.4,3-0.3,4.2c0.1,0.1,0.2,0.2,0.3,0.3C72.4,9.9,75.1,16.2,75.1,22.8L75.1,22.8z
		"/>
	<path id="Path_16094" d="M30.4,45.5c1.6,0,3-1.3,3-3c0-0.8-0.3-1.5-0.9-2.1c-9.7-9.7-9.7-25.4,0-35.1c0,0,0,0,0,0
		c1.2-1.2,1.2-3,0-4.2c-1.2-1.2-3-1.2-4.2,0c-12,12-12.1,31.5-0.1,43.5c0,0,0,0,0.1,0.1C28.9,45.1,29.6,45.5,30.4,45.5z"/>
</g>
</svg>
