<?xml version="1.0" encoding="utf-8"?>
<!-- Generator: Adobe Illustrator 24.2.2, SVG Export Plug-In . SVG Version: 6.00 Build 0)  -->
<svg version="1.1" id="learn" xmlns="http://www.w3.org/2000/svg" xmlns:xlink="http://www.w3.org/1999/xlink" x="0px" y="0px"
	 viewBox="0 0 100 100" style="enable-background:new 0 0 100 100;" xml:space="preserve">
<path id="Path_16075" d="M14.6,22.4c7.8,0.2,15.4,2.1,22.4,5.6c1.5,0.7,3.2,0.1,3.9-1.3c0.7-1.5,0.1-3.2-1.3-3.9l0,0
	c-7.7-3.9-16.2-6-24.9-6.2h0c-1.6,0-2.9,1.3-2.9,2.9C11.7,21,13,22.3,14.6,22.4L14.6,22.4z"/>
<path id="Path_16076" d="M39.6,34.4c-7.7-3.9-16.2-6-24.9-6.2h0c-1.6,0-2.9,1.3-2.9,2.9c0,1.6,1.3,2.9,2.9,2.9
	c7.8,0.2,15.4,2.1,22.4,5.6c1.5,0.7,3.2,0.1,3.9-1.3C41.6,36.8,41,35.1,39.6,34.4L39.6,34.4z"/>
<path id="Path_16077" d="M39.6,46.1c-7.7-3.9-16.2-6-24.9-6.2h0c-1.6,0-2.9,1.3-2.9,2.9c0,1.6,1.3,2.9,2.9,2.9
	C22.4,46,30,47.9,37,51.4c1.5,0.7,3.2,0.1,3.9-1.3C41.6,48.6,41,46.8,39.6,46.1L39.6,46.1L39.6,46.1z"/>
<path id="Path_16078" d="M60.4,22.7c-1.5,0.7-2.1,2.5-1.3,3.9c0.7,1.5,2.5,2.1,3.9,1.3c6.9-3.5,14.5-5.4,22.2-5.6
	c1.6,0,2.9-1.4,2.9-3c0-1.6-1.4-2.9-3-2.9l0,0C76.5,16.7,68.1,18.8,60.4,22.7z"/>
<path id="Path_16079" d="M97.8,1.5C93.9,0.5,89.9,0,85.9,0l0,0C73,0.3,60.4,4.6,50,12.4C39.7,4.7,27.2,0.3,14.3,0
	c-4.1,0-8.1,0.5-12,1.5C0.9,1.8,0,3,0,4.3v57.5c0,0.9,0.4,1.8,1.1,2.3c0.8,0.6,1.8,0.8,2.7,0.5c8.2-2.1,24.9-3.4,44.4,11.3
	c1,0.8,2.5,0.8,3.5,0c5.7-4.3,12-7.7,18.7-10v31.2c0,1.6,1.3,2.9,2.9,2.9h0h11.7c1.6,0,2.9-1.3,2.9-2.9l0,0V63.4
	c2.7,0.1,5.5,0.5,8.1,1.2c1.5,0.5,3.2-0.4,3.7-1.9c0.1-0.3,0.1-0.6,0.1-0.9V4.3C100,3,99.1,1.8,97.8,1.5L97.8,1.5z M5.9,58.2V6.7
	c2.8-0.5,5.6-0.8,8.4-0.8c11.9,0.3,23.4,4.4,32.8,11.7V68c-8.3-5.6-17.8-9-27.7-10.2C14.9,57.3,10.3,57.4,5.9,58.2L5.9,58.2z
	 M81.1,47.1h-3.7l1.8-5.8L81.1,47.1z M82.2,94.2h-5.9V52.9h5.9L82.2,94.2z M94.1,58.2c-2-0.3-4-0.6-6.1-0.6V50c0-0.3-0.1-0.7-0.2-1
	l-5.8-18.3c-0.4-1.4-1.8-2.2-3.2-2c-6.4,0.9-12.7,2.8-18.5,5.7c-1.5,0.7-2.1,2.5-1.3,3.9s2.5,2.1,3.9,1.3c3.8-1.9,7.8-3.3,12-4.3
	L70.7,49c-0.1,0.3-0.2,0.6-0.2,0.9v9.8c-6.2,1.9-12.1,4.6-17.6,8.2V17.5c9.5-7.3,21-11.4,33-11.7l0,0c2.8,0,5.5,0.3,8.2,0.8
	L94.1,58.2z"/>
</svg>
