<svg xmlns="http://www.w3.org/2000/svg" width="14.889" height="14.889" viewBox="0 0 14.889 14.889">
  <g id="Group_23051" data-name="Group 23051" transform="translate(-1386.25 -561.861)">
    <path id="Path_16269" data-name="Path 16269" d="M7.194,0a7.194,7.194,0,1,0,7.194,7.194A7.2,7.2,0,0,0,7.194,0Zm0,13.909a6.715,6.715,0,1,1,6.715-6.715A6.722,6.722,0,0,1,7.194,13.909Z" transform="translate(1386.5 562.111)" stroke="#000" stroke-width="0.5"/>
    <g id="Group_23029" data-name="Group 23029">
      <g id="Group_23023" data-name="Group 23023" transform="translate(1392.509 568.121)">
        <g id="Group_22973" data-name="Group 22973">
          <path id="Path_16234" data-name="Path 16234" d="M195.765,192.586l-.6-.6a.305.305,0,0,0-.432.432l.6.6a1.638,1.638,0,1,1-2.317,2.317l-.6-.6a.305.305,0,1,0-.432.432l.6.6a2.249,2.249,0,0,0,3.179-3.182Z" transform="translate(-191.895 -191.895)" stroke="#000" stroke-width="0.2"/>
        </g>
      </g>
      <g id="Group_23024" data-name="Group 23024" transform="translate(1389.797 565.408)">
        <g id="Group_22975" data-name="Group 22975" transform="translate(0 0)">
          <path id="Path_16235" data-name="Path 16235" d="M4.435,1.273l-.6-.6A2.249,2.249,0,0,0,.654,3.853l.6.6a.305.305,0,0,0,.432-.432l-.6-.6A1.638,1.638,0,1,1,3.4,1.1l.6.6a.305.305,0,1,0,.432-.432Z" transform="translate(0 -0.019)" stroke="#000" stroke-width="0.2"/>
        </g>
      </g>
      <g id="Group_23025" data-name="Group 23025" transform="translate(1392.336 567.947)">
        <g id="Group_22977" data-name="Group 22977">
          <path id="Path_16236" data-name="Path 16236" d="M181.721,181.3l-1.547-1.547a.305.305,0,0,0-.432.432l1.547,1.547a.305.305,0,1,0,.432-.432Z" transform="translate(-179.652 -179.66)" stroke="#000" stroke-width="0.2"/>
        </g>
      </g>
    </g>
  </g>
</svg>
