<?xml version="1.0" encoding="utf-8"?>
<!-- Generator: Adobe Illustrator 24.2.0, SVG Export Plug-In . SVG Version: 6.00 Build 0)  -->
<svg version="1.1" id="Layer_1" xmlns="http://www.w3.org/2000/svg" xmlns:xlink="http://www.w3.org/1999/xlink" x="0px" y="0px"
	 viewBox="0 0 100 100" style="enable-background:new 0 0 100 100;" xml:space="preserve">
<style type="text/css">
	.loading0{fill:none;}
	.loading1{fill:#203061;}
</style>
<g id="Ellipse_1736">
	<g>
		<circle class="loading0" cx="50" cy="50" r="50"/>
	</g>
	<g>
		<path class="loading1" d="M50.8,99.5L50.5,79c3.4-0.1,6.7-0.7,9.8-1.9l7.3,19.1C62.3,98.3,56.6,99.4,50.8,99.5z M34,96.9
			c-5.4-1.9-10.5-4.6-15-8.3l12.8-15.9c2.6,2.1,5.6,3.8,8.8,4.8L34,96.9z M82.3,87.5L69,72c2.6-2.2,4.7-4.8,6.4-7.8l17.8,10
			C90.3,79.3,86.7,83.7,82.3,87.5z M7.7,75.7c-3-4.9-5.1-10.3-6.2-15.9l20.1-4c0.7,3.3,1.9,6.4,3.7,9.3L7.7,75.7z M98.9,58.1
			l-20.2-3.3c0.3-1.6,0.4-3.2,0.4-4.8c0-1.8-0.2-3.6-0.5-5.3l20.1-3.7c0.5,2.9,0.8,5.9,0.8,8.9C99.5,52.7,99.3,55.5,98.9,58.1z
			 M21.3,45.7L1,42.7C1.9,37,3.7,31.5,6.4,26.5l18,9.7C22.8,39.2,21.8,42.4,21.3,45.7z M75.1,35.3c-1.7-2.9-3.9-5.5-6.5-7.7
			l13.1-15.7c4.4,3.7,8.2,8.1,11.1,13L75.1,35.3z M30.7,28.3L17,13.1c4.3-3.9,9.2-6.9,14.5-9l7.6,19C36,24.3,33.2,26.1,30.7,28.3z
			 M59.9,22.7c-3.1-1.1-6.5-1.7-9.9-1.7l-1,0L48.3,0.5l1.7,0c5.8,0,11.5,1,16.9,3L59.9,22.7z"/>
	</g>
</g>
</svg>
