<svg id="Layer_1" data-name="Layer 1" xmlns="http://www.w3.org/2000/svg" viewBox="0 0 1712.91 500"><defs><style>.cls-1{fill:#faa44b;}.cls-2{fill:#f47a4f;}.cls-3{fill:#8cc178;}.cls-4{fill:#66b5d1;}.cls-5{fill:#fff;}.cls-6{fill:#629e51;}.cls-7{fill:#4192a5;}.cls-8{isolation:isolate;}.cls-9{fill:#414141;}</style></defs><circle class="cls-1" cx="267.95" cy="169.26" r="56.52"/><circle class="cls-2" cx="61.6" cy="328.28" r="56.52"/><path class="cls-3" d="M278.18,276a106.21,106.21,0,0,1-4.27-212.34,31.58,31.58,0,0,0,8.54,0A31.12,31.12,0,0,0,279,1.71h-1.61a168.07,168.07,0,0,0-4.6,336.06h0c1.79.07,3.59.09,5.39.09s3.61,0,5.4-.09h0A31.13,31.13,0,0,0,278.18,276Z"/><path class="cls-4" d="M44.06,223.93a106.21,106.21,0,0,1,4.27,212.34,31.58,31.58,0,0,0-8.54,0,31.12,31.12,0,0,0,3.46,61.94h1.62a168.07,168.07,0,0,0,4.6-336.06h0q-2.68-.09-5.4-.09c-1.81,0-3.6,0-5.39.09h0a31.13,31.13,0,0,0,5.4,61.78Z"/><path class="cls-5" d="M270.22,59.42a31.58,31.58,0,0,1-8.54,0c1.42-.06,2.84-.09,4.27-.09S268.8,59.36,270.22,59.42Z"/><path class="cls-6" d="M309.3,32.82a31.12,31.12,0,0,1-26.85,30.83,31.58,31.58,0,0,1-8.54,0,31.12,31.12,0,0,1,3.47-61.94H279A31.13,31.13,0,0,1,309.3,32.82Z"/><path class="cls-6" d="M309.3,307.11a31.12,31.12,0,0,1-25.71,30.66h0a31.2,31.2,0,0,1-10.79,0h0a31.13,31.13,0,1,1,36.52-30.66Z"/><path class="cls-7" d="M75.18,193a31.12,31.12,0,0,1-26.85,30.83,31.58,31.58,0,0,1-8.54,0,31.12,31.12,0,0,1,3.46-61.94h1.62A31.12,31.12,0,0,1,75.18,193Z"/><path class="cls-7" d="M75.18,467.28a31.13,31.13,0,0,1-25.71,30.66h0a31.2,31.2,0,0,1-10.79,0h0a31.13,31.13,0,1,1,36.52-30.66Z"/><g id="EduSense" class="cls-8"><g class="cls-8"><path class="cls-9" d="M441.15,190.71v49.75h68v29.36h-68v51.66h76.12V352.2H402.82V160.27H517.27v30.44Z"/><path class="cls-9" d="M637,208.66a50.65,50.65,0,0,1,19.44,24.19V151h38.06V352.2H656.46V320.66A51.43,51.43,0,0,1,637,345q-13.46,9.12-32.49,9.11a64.72,64.72,0,0,1-34.25-9.24q-15.22-9.24-23.79-26.78t-8.56-41.19q0-23.64,8.56-41.18t23.79-26.78a64.72,64.72,0,0,1,34.25-9.25Q623.57,199.68,637,208.66Zm-49.34,36.15q-10.87,11.7-10.88,32.08t10.88,31.95q10.88,11.55,28.82,11.55,17.38,0,28.68-11.83t11.28-31.67q0-20.11-11.28-31.94T616.5,233.12Q598.54,233.12,587.68,244.81Z"/><path class="cls-9" d="M873.4,201.59V352.2H835.07V321.75a48,48,0,0,1-19.71,23.79q-13.73,8.56-31.67,8.56-26.1,0-41.6-17.13T726.6,289.13V201.59h38.06v83.19q0,17.94,9.24,27.86t25,9.92q16.58,0,26.37-10.6t9.79-30.45V201.59Z"/><path class="cls-9" d="M1032.71,326.78q-7.35,12.38-21.75,19.84t-35.07,7.48q-20.39,0-36.43-6.93a61.51,61.51,0,0,1-25.69-20,57.54,57.54,0,0,1-11-30.45h40.78a31.13,31.13,0,0,0,9.38,19.44q8,7.74,21.34,7.74,12,0,18.35-6.38T999,301.09q0-9-5.17-14.82a37.76,37.76,0,0,0-13.05-9.38q-7.89-3.52-21.75-8.15a215.37,215.37,0,0,1-29.36-11.83,54.27,54.27,0,0,1-19.44-17q-8-11.14-8-29.09,0-24.74,17.81-39t47.17-14.27q30.45,0,48.53,14.68t20.52,39.14H994.92a28.85,28.85,0,0,0-8.7-17q-7.08-6.66-19.3-6.66-10.6,0-17.13,5.58t-6.52,16.17a20.11,20.11,0,0,0,5,14,38.37,38.37,0,0,0,12.78,9.11,207,207,0,0,0,21.07,7.88,279.33,279.33,0,0,1,30,12.24,52.92,52.92,0,0,1,19.71,17.12q8.16,11.43,8.16,29.91A52.08,52.08,0,0,1,1032.71,326.78Z"/><path class="cls-9" d="M1208.6,284.23H1098.22q.83,20.13,10.88,29.64t25,9.51q13.32,0,22.15-6.52a28.9,28.9,0,0,0,11.29-17.68h40.5a64.8,64.8,0,0,1-12.77,28.28A66.76,66.76,0,0,1,1170.13,347,80.53,80.53,0,0,1,1136,354.1q-22,0-39.15-9.38a65.94,65.94,0,0,1-26.64-26.78q-9.51-17.38-9.51-41.05t9.51-41.18a64.87,64.87,0,0,1,26.64-26.78q17.13-9.24,39.15-9.25,22.29,0,39,9.25a65.2,65.2,0,0,1,25.83,25.42q9.11,16.17,9.11,36.83A73.09,73.09,0,0,1,1208.6,284.23Zm-46.9-44.85q-10.47-9.52-25.69-9.52-15.49,0-26.1,9.52t-11.69,28h73.13Q1172.18,248.89,1161.7,239.38Z"/><path class="cls-9" d="M1368.45,216.54q15.49,17.13,15.49,48.12V352.2h-38.06V269q0-17.94-9.24-27.87t-25.28-9.92q-16.32,0-26.1,10.6t-9.79,30.45V352.2h-38.33V201.59h38.33v30.17A48,48,0,0,1,1295.18,208q13.72-8.56,31.67-8.57Q1353,199.41,1368.45,216.54Z"/><path class="cls-9" d="M1513.62,213.55q16.58,13.86,20.66,37h-35.89a29.84,29.84,0,0,0-9.79-17.4q-7.61-6.52-19.84-6.52-9.79,0-15.23,4.62t-5.43,12.51a12.68,12.68,0,0,0,4.35,10.05,31.19,31.19,0,0,0,10.87,6q6.53,2.18,18.76,5.16a193.57,193.57,0,0,1,27.87,8,46.13,46.13,0,0,1,18.48,13.32q7.75,9.12,7.75,24.61,0,19.31-15.09,31.26t-40.64,12q-29.37,0-47-13.18t-21.48-37.66h36.7a24.81,24.81,0,0,0,9.79,17.54q8.41,6.39,22,6.39,9.78,0,15-4.76a16,16,0,0,0,5.17-12.37,13.66,13.66,0,0,0-4.49-10.6,30.43,30.43,0,0,0-11.15-6.26Q1478.27,291,1466,288a212.47,212.47,0,0,1-27.32-7.75,43.49,43.49,0,0,1-17.94-12.64q-7.48-8.7-7.48-23.92,0-19.57,15-31.81t41.32-12.24Q1497,199.68,1513.62,213.55Z"/><path class="cls-9" d="M1705,284.23H1594.63q.81,20.13,10.87,29.64t25,9.51q13.32,0,22.16-6.52A28.93,28.93,0,0,0,1664,299.18h40.51a64.93,64.93,0,0,1-12.78,28.28A66.76,66.76,0,0,1,1666.53,347a80.53,80.53,0,0,1-34.12,7.07q-22,0-39.14-9.38a65.9,65.9,0,0,1-26.65-26.78q-9.51-17.38-9.51-41.05t9.51-41.18a64.83,64.83,0,0,1,26.65-26.78q17.12-9.24,39.14-9.25,22.29,0,39,9.25a65.14,65.14,0,0,1,25.83,25.42q9.11,16.17,9.11,36.83A73.09,73.09,0,0,1,1705,284.23Zm-46.9-44.85q-10.45-9.52-25.69-9.52-15.5,0-26.1,9.52t-11.68,28h73.12Q1668.57,248.89,1658.1,239.38Z"/></g></g></svg>
