<svg xmlns="http://www.w3.org/2000/svg" width="160" height="160" viewBox="0 0 160 160">
  <g id="maths" transform="translate(-383 -359)">
    <g id="Group_22150" data-name="Group 22150">
      <rect id="Rectangle_2522" data-name="Rectangle 2522" width="160" height="160" rx="40" transform="translate(383 359)" fill="#004e81" opacity="0.2"/>
      <g id="keys" transform="translate(433.063 409.063)">
        <path id="Path_15688" data-name="Path 15688" d="M30.124,30.124H0V6.9A6.9,6.9,0,0,1,6.9,0H30.124Z" transform="translate(0 0)" fill="#81d4fa"/>
        <path id="Path_15689" data-name="Path 15689" d="M30.124,42.124H6.9a6.9,6.9,0,0,1-6.9-6.9V12H30.124Z" transform="translate(0 17.876)" fill="#03a9f4"/>
        <path id="Path_15690" data-name="Path 15690" d="M30.124,0H6.9A6.9,6.9,0,0,0,0,6.9V30.124H30.124Z" transform="translate(0 0)" fill="#70b9da"/>
        <path id="Path_15691" data-name="Path 15691" d="M30.124,12H0V35.221a6.9,6.9,0,0,0,6.9,6.9H30.124Z" transform="translate(0 17.876)" fill="#0393d4"/>
        <path id="Path_15692" data-name="Path 15692" d="M42.124,30.124H12V0H35.221a6.9,6.9,0,0,1,6.9,6.9Z" transform="translate(17.876 0)" fill="#03a9f4"/>
        <path id="Path_15693" data-name="Path 15693" d="M35.221,42.124H12V12H42.124V35.221A6.9,6.9,0,0,1,35.221,42.124Z" transform="translate(17.876 17.876)" fill="#81d4fa"/>
        <g id="Group_22066" data-name="Group 22066" transform="translate(9.794 13.663)">
          <path id="Path_15694" data-name="Path 15694" d="M28.179,22.266h-11.3a1.883,1.883,0,1,1,0-3.766h11.3a1.883,1.883,0,1,1,0,3.766Z" transform="translate(12.613 14.135)" fill="#f5f5f5"/>
          <path id="Path_15695" data-name="Path 15695" d="M28.179,19.266h-11.3a1.883,1.883,0,1,1,0-3.766h11.3a1.883,1.883,0,1,1,0,3.766Z" transform="translate(12.613 9.603)" fill="#f5f5f5"/>
          <path id="Path_15696" data-name="Path 15696" d="M5.882,26.043a1.884,1.884,0,0,1-1.33-3.216l6.276-6.276a1.883,1.883,0,1,1,2.663,2.663L7.215,25.49A1.878,1.878,0,0,1,5.882,26.043Z" transform="translate(-4 10.358)" fill="#f5f5f5"/>
          <path id="Path_15697" data-name="Path 15697" d="M12.158,26.043a1.868,1.868,0,0,1-1.33-.552L4.552,19.214a1.883,1.883,0,1,1,2.663-2.663l6.276,6.276a1.884,1.884,0,0,1-1.333,3.216Z" transform="translate(-4 10.358)" fill="#f5f5f5"/>
          <path id="Path_15698" data-name="Path 15698" d="M28.179,9.266h-11.3a1.883,1.883,0,1,1,0-3.766h11.3a1.883,1.883,0,1,1,0,3.766Z" transform="translate(12.613 -5.5)" fill="#f5f5f5"/>
        </g>
        <path id="Path_15699" data-name="Path 15699" d="M30.062,6.25H15a1.883,1.883,0,0,0,1.883,1.883h11.3A1.883,1.883,0,0,0,30.062,6.25Z" transform="translate(22.407 9.373)" fill="#d5d5d5"/>
        <path id="Path_15700" data-name="Path 15700" d="M30.062,16.25H15a1.883,1.883,0,0,0,1.883,1.883h11.3A1.883,1.883,0,0,0,30.062,16.25Z" transform="translate(22.407 24.37)" fill="#d5d5d5"/>
        <path id="Path_15701" data-name="Path 15701" d="M30.062,19.25H15a1.883,1.883,0,0,0,1.883,1.883h11.3A1.883,1.883,0,0,0,30.062,19.25Z" transform="translate(22.407 28.826)" fill="#d5d5d5"/>
        <path id="Path_15702" data-name="Path 15702" d="M6.358,18,4.551,19.807a1.882,1.882,0,1,0,2.663,2.661l1.807-1.8Z" transform="translate(5.995 26.983)" fill="#d5d5d5"/>
        <path id="Path_15703" data-name="Path 15703" d="M10.266,18H4.939L7.6,20.663,9.41,22.471A1.883,1.883,0,0,0,12.071,19.8Z" transform="translate(7.401 26.983)" fill="#d5d5d5"/>
        <path id="Path_15704" data-name="Path 15704" d="M7.133,16.552A1.883,1.883,0,0,1,5.25,14.669V5.883a1.883,1.883,0,0,1,3.766,0v8.786A1.883,1.883,0,0,1,7.133,16.552Z" transform="translate(7.871 5.989)" fill="#f5f5f5"/>
        <path id="Path_15705" data-name="Path 15705" d="M14.169,9.516H5.383a1.883,1.883,0,0,1,0-3.766h8.786a1.883,1.883,0,0,1,0,3.766Z" transform="translate(5.286 8.621)" fill="#f5f5f5"/>
        <path id="Path_15706" data-name="Path 15706" d="M9.016,7.25H5.25V9.76a1.883,1.883,0,0,0,3.766,0Z" transform="translate(7.871 10.869)" fill="#d5d5d5"/>
        <path id="Path_15707" data-name="Path 15707" d="M16.052,6.5H3.5A1.883,1.883,0,0,0,5.383,8.383h8.786A1.883,1.883,0,0,0,16.052,6.5Z" transform="translate(5.286 9.748)" fill="#d5d5d5"/>
      </g>
      <g id="maths-2" data-name="maths" transform="translate(433.374 408.67)">
        <path id="Path_15688-2" data-name="Path 15688" d="M29.969,29.969H0V6.868A6.867,6.867,0,0,1,6.869,0h23.1Z" fill="#81d4fa"/>
        <path id="Path_15689-2" data-name="Path 15689" d="M29.969,41.969H6.868A6.867,6.867,0,0,1,0,35.1V12H29.969Z" transform="translate(0 18.031)" fill="#03a9f4"/>
        <path id="Path_15690-2" data-name="Path 15690" d="M29.969,0H6.868A6.867,6.867,0,0,0,0,6.869v23.1H29.969Z" fill="#52a1d4"/>
        <path id="Path_15691-2" data-name="Path 15691" d="M29.969,12H0V35.1a6.867,6.867,0,0,0,6.869,6.868h23.1Z" transform="translate(0 18.031)" fill="#4981a5"/>
        <path id="Path_15692-2" data-name="Path 15692" d="M41.969,29.969H12V0H35.1a6.867,6.867,0,0,1,6.868,6.869Z" transform="translate(18.031)" fill="#004e81"/>
        <path id="Path_15693-2" data-name="Path 15693" d="M35.1,41.969H12V12H41.969V35.1A6.867,6.867,0,0,1,35.1,41.969Z" transform="translate(18.031 18.031)" fill="#89bddf"/>
        <g id="Group_22066-2" data-name="Group 22066" transform="translate(7.78 13.771)">
          <path id="Path_15694-2" data-name="Path 15694" d="M28.12,22.246H16.882a1.873,1.873,0,1,1,0-3.745H28.12a1.873,1.873,0,1,1,0,3.745Z" transform="translate(14.735 13.967)" fill="#4981a5"/>
          <path id="Path_15695-2" data-name="Path 15695" d="M28.12,19.246H16.882a1.873,1.873,0,1,1,0-3.745H28.12a1.873,1.873,0,1,1,0,3.745Z" transform="translate(14.735 9.475)" fill="#4981a5"/>
          <path id="Path_15696-2" data-name="Path 15696" d="M5.872,25.99a1.875,1.875,0,0,1-1.324-3.2l6.244-6.244a1.874,1.874,0,0,1,2.65,2.65L7.2,25.441A1.868,1.868,0,0,1,5.872,25.99Z" transform="translate(-2.037 10.222)" fill="#89bddf"/>
          <path id="Path_15697-2" data-name="Path 15697" d="M12.117,25.99a1.859,1.859,0,0,1-1.324-.55L4.549,19.2a1.874,1.874,0,0,1,2.65-2.65l6.244,6.244a1.875,1.875,0,0,1-1.326,3.2Z" transform="translate(-2.037 10.222)" fill="#89bddf"/>
          <path id="Path_15698-2" data-name="Path 15698" d="M28.12,9.246H16.882a1.873,1.873,0,1,1,0-3.745H28.12a1.873,1.873,0,1,1,0,3.745Z" transform="translate(-14.961 -5.499)" fill="#004e81"/>
        </g>
        <path id="Path_15704-2" data-name="Path 15704" d="M7.123,16.48A1.873,1.873,0,0,1,5.25,14.607V5.865A1.873,1.873,0,0,1,9,5.865v8.741A1.873,1.873,0,0,1,7.123,16.48Z" transform="translate(38.656 4.722)" fill="#89bddf"/>
        <path id="Path_15705-2" data-name="Path 15705" d="M14.106,9.5H5.365a1.873,1.873,0,0,1,0-3.745h8.741a1.873,1.873,0,0,1,0,3.745Z" transform="translate(36.17 7.394)" fill="#89bddf"/>
      </g>
    </g>
  </g>
</svg>
