<svg xmlns="http://www.w3.org/2000/svg" width="66" height="59" viewBox="0 0 66 59">
    <g id="prefix__Icon_3" data-name="Icon 3" transform="translate(-1464 -584)">
        <circle id="prefix__Ellipse_1668" cx="29.5" cy="29.5" r="29.5" data-name="Ellipse 1668" transform="translate(1471 584)" style="fill:#abda99;opacity:.51"/>
        <g id="prefix__message" transform="translate(1438.226 569.251)">
            <path id="prefix__Path_15679" d="M73 24.117a1.025 1.025 0 0 0-1.112-.314L33.057 36.787a1.024 1.024 0 0 0-.308 1.777l9.937 7.809V53.7a1.023 1.023 0 0 0 1.653.808l4.374-3.4 6.234 4.9a1.025 1.025 0 0 0 1.531-.314l16.639-30.432A1.025 1.025 0 0 0 73 24.117zm-6.585 3.676L43.729 44.587l-8.221-6.46zM44.734 51.609v-3.628l2.32 1.823zm10.528 2.039L45.4 45.9l23.687-17.535z" data-name="Path 15679" transform="translate(-2.731)"/>
            <path id="prefix__Path_15680" d="M27.817 96.5a1.025 1.025 0 0 0-1.287.664c-.261.816-.506 1.685-.726 2.583a1.024 1.024 0 0 0 1.99.488c.209-.853.441-1.676.687-2.447a1.023 1.023 0 0 0-.664-1.287z" data-name="Path 15680" transform="translate(0 -30.159)"/>
            <path id="prefix__Path_15681" d="M39.582 76.15a5.937 5.937 0 0 0-3.928.2 10.461 10.461 0 0 1 1.746-3.825 1.024 1.024 0 1 0-1.609-1.267 11.663 11.663 0 0 0-2.336 6.4 14.682 14.682 0 0 0-3.7 4.875 1.024 1.024 0 0 0 1.829.923 14.185 14.185 0 0 1 2.253-3.336q.068.205.15.41a5.022 5.022 0 0 0 5.157 3.312 3.91 3.91 0 0 0 .442-7.691zm.972 3.866a1.893 1.893 0 0 1-1.67 1.794 2.973 2.973 0 0 1-3-2.041 5.2 5.2 0 0 1-.3-1.084 4.242 4.242 0 0 1 3.4-.58 1.931 1.931 0 0 1 1.575 1.911z" data-name="Path 15681" transform="translate(-1.604 -19.546)"/>
        </g>
    </g>
</svg>
