<svg id="Layer_1" data-name="Layer 1" xmlns="http://www.w3.org/2000/svg" viewBox="0 0 100 100"><defs><style>.cls-1{opacity:0.15;}.cls-2{fill:#bec9dc;}.cls-3{fill:#f1f1f2;}.cls-3,.cls-6,.cls-9{stroke:#99aab7;stroke-miterlimit:10;}.cls-4,.cls-6{fill:#e0e3e9;}.cls-5{fill:#2b374f;}.cls-7,.cls-9{fill:#fff;}.cls-8{fill:#99aab7;}</style></defs><g id="Group_21823" data-name="Group 21823" class="cls-1"><path id="Path_12091" data-name="Path 12091" class="cls-2" d="M62.69,8.7c-8.38,4.9-3,20.47-13.67,26.37-2.25,1.21-8.24,3.69-14.13,1.87-3.46-1-4.94-2.88-9.38-3.57a24.13,24.13,0,0,0-8.69.41C7.33,36.33,1,47.14,1.27,56.53,1.47,65.13,7.15,70.87,13,76.7a52.51,52.51,0,0,0,24.7,14.36c4.25,1.1,18.83,4.52,34.38-3.31,19.65-10,24.62-30.09,25.46-33.53,1.24-5.57,4.14-18.42-3.23-30.29S70.79,4.12,62.69,8.7Z"/></g><g id="Group_21823-2" data-name="Group 21823"><path id="Path_12091-2" data-name="Path 12091" class="cls-3" d="M40.82,67.63c7.08,1.11,3.3,5,12.27,6.34a51.29,51.29,0,0,0,11.69.29c2.8-.29,4-.76,7.57-1a66.56,66.56,0,0,1,7.16,0c7.91.52,13.5,3.11,13.67,5.42.16,2.12-4.28,3.6-8.89,5.11a88.9,88.9,0,0,1-19.76,3.82,130.86,130.86,0,0,1-28.4-.42c-16.55-2.24-21.4-7.13-22.23-8-1.23-1.36-4.11-4.49,1.49-7.5S34,66.6,40.82,67.63Z"/></g><g id="Group_21842" data-name="Group 21842"><path id="Path_12115" data-name="Path 12115" class="cls-4" d="M76.45,95.7a4.71,4.71,0,0,1,9.4,0"/></g><g id="Group_21843" data-name="Group 21843"><path id="Path_12116" data-name="Path 12116" class="cls-4" d="M87.33,95.7a4.71,4.71,0,0,1,9.4,0"/></g><g id="Group_21844" data-name="Group 21844"><path id="Path_12117" data-name="Path 12117" class="cls-4" d="M82.66,95.74c0-4,2.3-7.2,5-7.2s5,3.2,5,7.2"/></g><g id="Group_21842-2" data-name="Group 21842"><path id="Path_12115-2" data-name="Path 12115" class="cls-4" d="M5.21,14.37A4.57,4.57,0,0,1,9.91,10a4.57,4.57,0,0,1,4.7,4.4"/></g><g id="Group_21843-2" data-name="Group 21843"><path id="Path_12116-2" data-name="Path 12116" class="cls-4" d="M16.1,14.37A4.57,4.57,0,0,1,20.8,10a4.57,4.57,0,0,1,4.7,4.4"/></g><g id="Group_21844-2" data-name="Group 21844"><path id="Path_12117-2" data-name="Path 12117" class="cls-4" d="M11.43,14.41c0-4,2.3-7.2,5-7.2s5,3.2,5,7.2"/></g><path class="cls-4" d="M90.16,8a3.55,3.55,0,0,0-3,1.55,2.49,2.49,0,0,0-1.52-.52,2.33,2.33,0,0,0-2.39,2.23H93.66A3.4,3.4,0,0,0,90.16,8Z"/><g id="Group_21848" data-name="Group 21848"><path id="Path_12121" data-name="Path 12121" class="cls-4" d="M83.94,39.65a5.51,5.51,0,0,1,11,0"/></g><g id="Group_21849" data-name="Group 21849" class="cls-1"><circle id="Ellipse_264" data-name="Ellipse 264" class="cls-4" cx="18.5" cy="32.3" r="2.2"/><path id="Path_12122" data-name="Path 12122" class="cls-5" d="M18.5,34.6a2.84,2.84,0,0,1-1.7-.7,2.19,2.19,0,0,1-.7-1.7,2.84,2.84,0,0,1,.7-1.7,2.19,2.19,0,0,1,1.7-.7,2.46,2.46,0,0,1,2.4,2.5,2.41,2.41,0,0,1-.7,1.7A1.75,1.75,0,0,1,18.5,34.6Zm0-4.2a2.11,2.11,0,0,0-1.3.5,1.84,1.84,0,1,0,2.6,0A1.54,1.54,0,0,0,18.5,30.4Z"/></g><g id="Group_21849-2" data-name="Group 21849" class="cls-1"><circle id="Ellipse_264-2" data-name="Ellipse 264" class="cls-4" cx="11.43" cy="93.59" r="2.2"/><path id="Path_12122-2" data-name="Path 12122" class="cls-5" d="M11.43,95.89a2.84,2.84,0,0,1-1.7-.7,2.19,2.19,0,0,1-.7-1.7,2.84,2.84,0,0,1,.7-1.7,2.19,2.19,0,0,1,1.7-.7,2.46,2.46,0,0,1,2.4,2.5,2.41,2.41,0,0,1-.7,1.7A1.75,1.75,0,0,1,11.43,95.89Zm0-4.2a2.11,2.11,0,0,0-1.3.5,1.84,1.84,0,1,0,2.6,0A1.54,1.54,0,0,0,11.43,91.69Z"/></g><g id="Group_21854" data-name="Group 21854" class="cls-1"><circle id="Ellipse_269" data-name="Ellipse 269" class="cls-4" cx="96.73" cy="68.8" r="1.3"/><path id="Path_12127" data-name="Path 12127" class="cls-5" d="M96.73,70.4a1.62,1.62,0,0,1-1.6-1.4,1.59,1.59,0,0,1,1.4-1.8h0a1.61,1.61,0,1,1,.4,3.2h-.2Zm-.1-2.6a1,1,0,1,0,1.1.9A1,1,0,0,0,96.63,67.8Z"/></g><g id="Group_21854-2" data-name="Group 21854" class="cls-1"><circle id="Ellipse_269-2" data-name="Ellipse 269" class="cls-4" cx="57.73" cy="8.1" r="1.3"/><path id="Path_12127-2" data-name="Path 12127" class="cls-5" d="M57.73,9.7a1.62,1.62,0,0,1-1.6-1.4,1.59,1.59,0,0,1,1.4-1.8h0a1.61,1.61,0,1,1,.4,3.2h-.2Zm-.1-2.6a1,1,0,1,0,1.1.9A1,1,0,0,0,57.63,7.1Z"/></g><rect class="cls-6" x="31.74" y="24.88" width="39.8" height="52.91" rx="4.03"/><circle class="cls-7" cx="51.57" cy="39.3" r="5.34"/><circle class="cls-8" cx="51.61" cy="37.85" r="1.25"/><path class="cls-8" d="M48.6,41.77c0-1.23,1.35-2.22,3-2.22s3,1,3,2.22"/><rect class="cls-9" x="40.6" y="49.86" width="8.8" height="8.8" rx="1.58"/><rect class="cls-9" x="53.88" y="49.86" width="8.8" height="8.8" rx="1.58"/><rect class="cls-9" x="40.6" y="62.35" width="8.8" height="8.8" rx="1.58"/><rect class="cls-9" x="53.88" y="62.35" width="8.8" height="8.8" rx="1.58"/><path class="cls-9" d="M55.73,23.1V21.29a.72.72,0,0,0-.72-.72H48.27a.71.71,0,0,0-.71.72V23.1a.71.71,0,0,1-.72.71H45.42a.71.71,0,0,0-.72.71V28a.71.71,0,0,0,.72.71H57.86a.71.71,0,0,0,.72-.71V24.52a.71.71,0,0,0-.72-.71H56.44A.71.71,0,0,1,55.73,23.1Z"/></svg>
