<svg xmlns="http://www.w3.org/2000/svg" width="12" height="10.424" viewBox="0 0 12 10.424">
    <defs>

    </defs>
    <g id="next_1_" transform="translate(0 -33.625)">
        <g id="Group_22094" transform="translate(0 38.324)">
            <g id="Group_22093">
                <path id="Path_15825" d="M11.415 235.408H.482a.514.514 0 0 0 0 1.026h10.933a.514.514 0 0 0 0-1.026z" class="next-1" transform="translate(0 -235.408)"/>
            </g>
        </g>
        <g id="Group_22096" transform="translate(5.945 33.625)">
            <g id="Group_22095">
                <path id="Path_15826" d="M274.944 38.5l-5.029-4.729a.536.536 0 0 0-.726 0 .462.462 0 0 0 0 .683l4.666 4.388-4.666 4.388a.462.462 0 0 0 0 .682.536.536 0 0 0 .726 0l5.029-4.729a.462.462 0 0 0 0-.683z" class="next-1" transform="translate(-269.04 -33.625)"/>
            </g>
        </g>
    </g>
</svg>
