<svg xmlns="http://www.w3.org/2000/svg" width="115" height="86" viewBox="0 0 115 86">
  <g id="Group_23114" data-name="Group 23114" transform="translate(-568 -3025)">
    <g id="Teacher_1_" data-name="Teacher (1)" transform="translate(568 3025)" fill="#f4f5f7">
      <path d="M 105 85.5 L 10 85.5 C 4.761676788330078 85.5 0.5 81.23831939697266 0.5 76 L 0.5 10 C 0.5 4.761676788330078 4.761676788330078 0.5 10 0.5 L 105 0.5 C 110.2383193969727 0.5 114.5 4.761676788330078 114.5 10 L 114.5 76 C 114.5 81.23831939697266 110.2383193969727 85.5 105 85.5 Z" stroke="none"/>
      <path d="M 10 1 C 5.037384033203125 1 1 5.037384033203125 1 10 L 1 76 C 1 80.96261596679688 5.037384033203125 85 10 85 L 105 85 C 109.9626159667969 85 114 80.96261596679688 114 76 L 114 10 C 114 5.037384033203125 109.9626159667969 1 105 1 L 10 1 M 10 0 L 105 0 C 110.5228424072266 0 115 4.477157592773438 115 10 L 115 76 C 115 81.52284240722656 110.5228424072266 86 105 86 L 10 86 C 4.477157592773438 86 0 81.52284240722656 0 76 L 0 10 C 0 4.477157592773438 4.477157592773438 0 10 0 Z" stroke="none" fill="#dee1e8"/>
    </g>
    <g id="Group_23056" data-name="Group 23056" transform="translate(304 2665.479)">
      <g id="Group_20883" data-name="Group 20883" transform="translate(309 390.521)">
        <g id="Group_20882" data-name="Group 20882" transform="translate(0 0)">
          <path id="Path_42794" data-name="Path 42794" d="M23.035,5.532H9.541c.059-.022-2.422-.007-2.45-.008l-.012.008H1.848A1.85,1.85,0,0,0,0,7.38V28.567a1.85,1.85,0,0,0,1.848,1.848H23.035a1.85,1.85,0,0,0,1.848-1.848V7.38A1.85,1.85,0,0,0,23.035,5.532Zm.616,23.035a.617.617,0,0,1-.616.616H1.848a.617.617,0,0,1-.616-.616V7.38a.617.617,0,0,1,.616-.616H23.035a.617.617,0,0,1,.616.616V28.567Z" transform="translate(0 -5.52)" fill="#9c9c9c"/>
        </g>
      </g>
      <g id="Group_20889" data-name="Group 20889" transform="translate(324.152 393.489)">
        <g id="Group_20888" data-name="Group 20888">
          <path id="Path_42797" data-name="Path 42797" d="M247.056,156.172a.615.615,0,1,0,.181.435A.62.62,0,0,0,247.056,156.172Z" transform="translate(-246.005 -155.992)" fill="#9c9c9c"/>
        </g>
      </g>
      <g id="Group_20891" data-name="Group 20891" transform="translate(311.956 393.489)">
        <g id="Group_20890" data-name="Group 20890">
          <path id="Path_42798" data-name="Path 42798" d="M66.355,155.992h-2.4a.616.616,0,0,0,0,1.232h1.786V166l-4.89-4.89a.616.616,0,0,0-.871,0l-3.263,3.263a.616.616,0,1,0,.871.871l2.827-2.827,5.321,5.321,0,0v3.027H50.1l4.471-4.471,3.322,3.322a.616.616,0,0,0,.871-.871L55.011,165a.616.616,0,0,0-.871,0L49.233,169.9V157.224h8.253a.616.616,0,0,0,0-1.232H48.617a.616.616,0,0,0-.616.616V171.39a.616.616,0,0,0,.616.616H66.355a.616.616,0,0,0,.616-.616V156.608A.616.616,0,0,0,66.355,155.992Z" transform="translate(-48.001 -155.992)" fill="#9c9c9c"/>
        </g>
      </g>
      <g id="Group_20893" data-name="Group 20893" transform="translate(316.001 396.137)">
        <g id="Group_20892" data-name="Group 20892">
          <path id="Path_42799" data-name="Path 42799" d="M115.64,198.992a1.971,1.971,0,1,0,1.971,1.971A1.973,1.973,0,0,0,115.64,198.992Zm0,2.71a.739.739,0,1,1,.739-.739A.74.74,0,0,1,115.64,201.7Z" transform="translate(-113.669 -198.992)" fill="#9c9c9c"/>
        </g>
      </g>
    </g>
  </g>
</svg>
