<?xml version="1.0" encoding="utf-8"?>
<!-- Generator: Adobe Illustrator 24.1.2, SVG Export Plug-In . SVG Version: 6.00 Build 0)  -->
<svg version="1.1" id="Layer_1" xmlns="http://www.w3.org/2000/svg" xmlns:xlink="http://www.w3.org/1999/xlink" x="0px" y="0px"
	 viewBox="0 0 100 100" style="enable-background:new 0 0 100 100;" xml:space="preserve">
<style type="text/css">
	.st0{display:none;}
	.st1{display:inline;fill:#EDF0F3;}
	.st2{opacity:0.7;}
	.st3{fill:#EDF0F3;}
	.st4{opacity:0.15;}
	.st5{fill:#E0E3E9;}
	.st6{fill:#2B374F;}
	.st7{fill:#99AAB7;}
	.st8{fill:#F6F7F7;}
	.st9{fill:#9FE4FF;}
	.st10{fill:#FFFFFF;}
	.st11{fill:#CDD4E0;}
</style>
<g class="st0">
	<path class="st1" d="M63.3,85.4c3-2,3.9-3.5,4.2-4s1.2-2,1.5-4.3c0.3-2,0-3.6-0.3-4.8c-0.5-2.5-1.4-4-1.8-4.9
		c-2.2-5.3,1.3-12,1.7-12.8c0.5-0.9,4.7-8.5,11.6-8.8c7.9-0.3,12.9,9.4,14.5,12.3C98,64.4,98,70.2,98,74.4c0,6.1,0.1,12.9-4.4,18.1
		c-3.2,3.7-7.1,4.9-10.8,6c-2.9,0.9-12,3.5-19.5-1.3c-3.3-2.1-6.6-5.9-5.8-8.1C58,87.7,59.5,88.1,63.3,85.4z"/>
</g>
<g class="st0">
	<path class="st1" d="M7.6,70C2.4,67.1-1,59.6,1.1,54.3c3.3-8.1,16.7-4.4,25.2-14.7c4.4-5.4,1.8-7.6,7.9-19
		C37.7,14.1,40,9.9,44.3,6.5C54.6-1.6,74.7-3,87.5,6.7c10,7.5,15.5,21.6,10.6,26.7c-5.9,6.1-23.3-5-33.5,3.1
		c-4.9,3.9-5.7,10.3-6.1,13.2c-1.3,10,4.8,12.8,3.8,21.6c-0.8,7.2-5.9,13.8-12.2,17.5c-9.7,5.6-24.1,5.2-27.4,0
		c-3.2-5.1,5.7-12.7,2.3-16.5C22.1,68.9,14.3,73.8,7.6,70z"/>
</g>
<g class="st2">
	<path class="st3" d="M36.1,9.7c8.6,4.5,4,20.4,14.9,25.8c2.3,1.1,8.4,3.3,14.2,1.2c3.4-1.2,4.8-3.1,9.2-4c0,0,4.3-0.9,8.7,0
		c9.6,2.1,16.4,12.6,16.6,22.1c0.2,8.6-5.2,14.6-10.8,20.8c-2.7,3-10.5,11.4-24.1,15.5c-4.2,1.3-18.7,5.4-34.6-1.7
		C10,80.3,4.1,60.4,3.1,57c-1.5-5.5-5-18.3,1.8-30.5C11.9,14.2,27.7,5.4,36.1,9.7z"/>
</g>
<g class="st4">
	<circle class="st5" cx="47.1" cy="11.7" r="1.1"/>
	<path class="st6" d="M47.1,13c-0.7,0-1.4-0.6-1.4-1.4c0-0.7,0.6-1.4,1.4-1.4c0.7,0,1.4,0.6,1.4,1.4C48.5,12.4,47.9,13,47.1,13z
		 M47.1,10.9c-0.4,0-0.8,0.3-0.8,0.8c0,0.4,0.3,0.8,0.8,0.8c0.4,0,0.8-0.3,0.8-0.8S47.5,10.9,47.1,10.9z"/>
</g>
<g class="st4">
	<circle class="st5" cx="42.1" cy="7.9" r="2.3"/>
	<path class="st6" d="M42.1,10.5c-1.4,0-2.6-1.2-2.6-2.6s1.2-2.6,2.6-2.6s2.6,1.2,2.6,2.6C44.7,9.4,43.5,10.5,42.1,10.5z M42.1,5.9
		c-1.1,0-2,0.9-2,2s0.9,2,2,2s2-0.9,2-2S43.2,5.9,42.1,5.9z"/>
</g>
<g class="st4">
	<circle class="st5" cx="62.1" cy="87.2" r="1.5"/>
	<path class="st6" d="M62.1,89c-1,0-1.8-0.8-1.8-1.8s0.8-1.8,1.8-1.8s1.8,0.8,1.8,1.8C63.9,88.2,63.1,89,62.1,89z M62.1,86
		c-0.7,0-1.2,0.5-1.2,1.2s0.5,1.2,1.2,1.2s1.2-0.5,1.2-1.2C63.3,86.6,62.8,86,62.1,86z"/>
</g>
<g class="st4">
	<circle class="st5" cx="90.9" cy="48.2" r="1.5"/>
	<path class="st6" d="M90.9,50c-1,0-1.8-0.8-1.8-1.8s0.8-1.8,1.8-1.8s1.8,0.8,1.8,1.8C92.7,49.2,91.9,50,90.9,50z M90.9,47.1
		c-0.7,0-1.2,0.5-1.2,1.2s0.5,1.2,1.2,1.2s1.2-0.5,1.2-1.2S91.6,47.1,90.9,47.1z"/>
</g>
<g class="st4">
	<circle class="st5" cx="71.2" cy="81.3" r="0.8"/>
	<path class="st6" d="M71.2,82.2c-0.5,0-0.9-0.4-0.9-0.9s0.4-0.9,0.9-0.9s0.9,0.4,0.9,0.9S71.7,82.2,71.2,82.2z M71.2,80.8
		c-0.3,0-0.6,0.3-0.6,0.6c0,0.3,0.3,0.6,0.6,0.6s0.6-0.3,0.6-0.6C71.8,81,71.6,80.8,71.2,80.8z"/>
</g>
<g class="st4">
	<circle class="st5" cx="11.2" cy="63.9" r="1.5"/>
	<path class="st6" d="M11.2,65.7c-1,0-1.8-0.8-1.8-1.8s0.8-1.8,1.8-1.8s1.8,0.8,1.8,1.8C13,64.8,12.2,65.7,11.2,65.7z M11.2,62.7
		c-0.7,0-1.2,0.5-1.2,1.2s0.5,1.2,1.2,1.2s1.2-0.5,1.2-1.2S11.9,62.7,11.2,62.7z"/>
</g>
<g>
	<g>
		<path class="st7" d="M69.7,48.5h-1.9V29.2c0-0.1,0-0.2-0.1-0.3c-0.1-0.1-0.2-0.1-0.3-0.1H32.6c-0.1,0-0.2,0-0.3,0.1
			c-0.1,0.1-0.1,0.2-0.1,0.3v19.3h-1.9c-0.1,0-0.2,0-0.3,0.1c-0.1,0.1-0.1,0.2-0.1,0.3v3.2c0,0.2,0.2,0.4,0.4,0.4h39.5
			c0.2,0,0.4-0.2,0.4-0.4V49C70.2,48.7,70,48.5,69.7,48.5z M33.1,29.7h33.9v18.8H45.7V45c0-0.2-0.2-0.4-0.4-0.4H39
			c-0.2,0-0.4,0.2-0.4,0.4v3.5h-5.4V29.7z M44.8,45.5v3.1h-5.4v-3.1H44.8z M69.3,51.7H30.7v-2.3h38.6V51.7z"/>
		<rect x="30.7" y="49.4" class="st8" width="38.6" height="2.3"/>
		<rect x="39.4" y="45.5" class="st8" width="5.4" height="3.1"/>
		<path class="st5" d="M66.9,29.7v18.8H45.7V45c0-0.2-0.2-0.4-0.4-0.4H39c-0.2,0-0.4,0.2-0.4,0.4v3.5h-5.4V29.7H66.9z"/>
	</g>
	<g>
		<rect x="40.9" y="58" class="st7" width="2.5" height="0.9"/>
	</g>
	<g>
		<rect x="56.7" y="58" class="st7" width="2.5" height="0.9"/>
	</g>
	<g>
		<path class="st7" d="M71.6,56.6c-0.1-0.1-0.2-0.1-0.3-0.1h-8.7l-0.4-1.3c-0.1-0.2-0.2-0.3-0.4-0.3h-7.9c-0.2,0-0.4,0.1-0.4,0.3
			l-0.4,1.3h-6.3l-0.4-1.3c0-0.2-0.2-0.3-0.4-0.3h-7.9c-0.2,0-0.4,0.1-0.4,0.3l-0.4,1.3h-8.7c-0.2,0-0.4,0.2-0.4,0.4V60
			c0,0.3,0.2,0.4,0.4,0.4h1.1V75c0,0.1,0,0.2,0.1,0.3c0.1,0.1,0.2,0.1,0.3,0.1h1.6c0.2,0,0.4-0.2,0.4-0.4l1.5-14.6h2.3L35.4,63
			c0,0,0,0.1,0,0.1v2.4c0,0.9,0.6,1.6,1.4,1.9l0.2,0.1l0.8,7.5c0,0.2,0.2,0.4,0.4,0.4h1.6c0.2,0,0.4-0.2,0.4-0.4l0.8-7.5h2.4
			l0.8,7.5c0,0.2,0.2,0.4,0.4,0.4h1.6c0.2,0,0.4-0.2,0.4-0.4l0.8-7.5l0.2-0.1c0.8-0.3,1.4-1,1.4-1.9v-2.4c0,0,0-0.1,0-0.1l-0.8-2.6
			h3.9L51.2,63c0,0,0,0.1,0,0.1v2.4c0,0.9,0.6,1.6,1.4,1.9l0.2,0.1l0.8,7.5c0,0.2,0.2,0.4,0.4,0.4h1.6c0.2,0,0.4-0.2,0.4-0.4
			l0.8-7.5h2.4l0.8,7.5c0,0.2,0.2,0.4,0.4,0.4h1.6c0.2,0,0.4-0.2,0.4-0.4l0.8-7.5l0.2-0.1c0.8-0.3,1.4-1,1.4-1.9v-2.4
			c0,0,0-0.1,0-0.1l-0.8-2.6h2.3l1.5,14.6c0,0.2,0.2,0.4,0.4,0.4h1.6c0.2,0,0.4-0.2,0.4-0.4V60.5h1.1c0.2,0,0.4-0.2,0.4-0.4v-3.1
			C71.8,56.7,71.7,56.6,71.6,56.6z M31.5,74.6h-0.7V60.5h2.2L31.5,74.6z M29.1,59.6v-2.3h8l-0.7,2.3H29.1z M39.3,74.6h-0.8l-0.7-7
			H40L39.3,74.6z M45.7,74.6h-0.8l-0.7-7h2.2L45.7,74.6z M48,65.5c0,0.6-0.5,1.1-1.1,1.1h-9.5c-0.6,0-1.1-0.5-1.1-1.1l0-2.3l2.2-7.5
			h7.2l2.3,7.6V65.5z M47.8,59.6l-0.7-2.3h5.8l-0.7,2.3H47.8z M55.1,74.6h-0.8l-0.7-7h2.2L55.1,74.6z M61.4,74.6h-0.8l-0.7-7h2.2
			L61.4,74.6z M63.8,65.5c0,0.6-0.5,1.1-1.1,1.1h-9.5c-0.6,0-1.1-0.5-1.1-1.1l0-2.3l2.2-7.5h7.2l2.3,7.6V65.5z M69.3,74.6h-0.7
			l-1.5-14.1h2.2V74.6z M70.9,59.6h-7.3l-0.7-2.3h8V59.6z"/>
		<polygon class="st5" points="40,67.6 39.3,74.6 38.6,74.6 37.9,67.6 		"/>
		<polygon class="st5" points="69.3,60.5 69.3,74.6 68.6,74.6 67.1,60.5 		"/>
		<polygon class="st5" points="70.9,57.3 70.9,59.6 63.6,59.6 62.9,57.3 		"/>
		<polygon class="st5" points="62.1,67.6 61.4,74.6 60.7,74.6 60,67.6 		"/>
		<polygon class="st5" points="55.8,67.6 55.1,74.6 54.3,74.6 53.6,67.6 		"/>
		<polygon class="st5" points="46.4,67.6 45.7,74.6 44.9,74.6 44.2,67.6 		"/>
		<polygon class="st5" points="32.9,60.5 31.5,74.6 30.7,74.6 30.7,60.5 		"/>
		<polygon class="st5" points="37.1,57.3 36.4,59.6 29.1,59.6 29.1,57.3 		"/>
		<path class="st8" d="M61.5,55.7h-7.2L52,63.2l0,2.3c0,0.6,0.5,1.1,1.1,1.1h9.5c0.6,0,1.1-0.5,1.1-1.1v-2.3L61.5,55.7z M59.1,58
			v0.9h-2.5V58H59.1z"/>
		<polygon class="st5" points="52.9,57.3 52.2,59.6 47.8,59.6 47.1,57.3 		"/>
		<path class="st8" d="M45.7,55.7h-7.2l-2.2,7.5l0,2.3c0,0.6,0.5,1.1,1.1,1.1h9.5c0.6,0,1.1-0.5,1.1-1.1v-2.3L45.7,55.7z M43.3,58.9
			h-2.5V58h2.5V58.9z"/>
	</g>
</g>
<path class="st5" d="M23.1,29.9C22.6,30,22.2,30,21.7,30c-3.1,0-5.6-2.5-5.6-5.6s2.5-5.6,5.6-5.6c1.1,0,2.2,0.3,3,0.9
	C24.8,19.7,20.4,24.5,23.1,29.9z"/>
<g>
	<g>
		<path class="st7" d="M21.7,30.5c-3.3,0-6-2.7-6-6c0-3.3,2.7-6,6-6s6,2.7,6,6c0,1.3-0.4,2.5-1.1,3.5c-0.1,0.2-0.3,0.2-0.5,0.1
			c-0.2-0.1-0.2-0.3-0.1-0.5c0.7-0.9,1-2,1-3.1c0-2.9-2.4-5.3-5.3-5.3s-5.3,2.4-5.3,5.3s2.4,5.3,5.3,5.3c1,0,2-0.3,2.8-0.8
			c0.2-0.1,0.4-0.1,0.5,0.1c0.1,0.2,0.1,0.4-0.1,0.5C24,30.1,22.9,30.5,21.7,30.5z"/>
	</g>
	<g>
		<path class="st7" d="M21.7,20.6c-0.2,0-0.3-0.2-0.3-0.4v-1.5c0-0.2,0.2-0.4,0.3-0.4s0.3,0.2,0.3,0.4v1.5
			C22.1,20.4,21.9,20.6,21.7,20.6z"/>
	</g>
	<g>
		<path class="st7" d="M21.7,30.5c-0.2,0-0.3-0.2-0.3-0.4v-1.7c0-0.2,0.2-0.4,0.3-0.4s0.3,0.2,0.3,0.4v1.7
			C22.1,30.3,21.9,30.5,21.7,30.5z"/>
	</g>
	<g>
		<path class="st7" d="M17.6,24.8H16c-0.2,0-0.3-0.2-0.3-0.4s0.2-0.4,0.3-0.4h1.5c0.2,0,0.3,0.2,0.3,0.4S17.8,24.8,17.6,24.8z"/>
	</g>
	<line class="st7" x1="27.4" y1="24.4" x2="25.8" y2="24.4"/>
	<g>
		<path class="st7" d="M23.9,26.8c-0.1,0-0.2,0-0.2-0.1l-2.3-2.3v-2.7c0-0.2,0.2-0.4,0.3-0.4s0.3,0.2,0.3,0.4v2.5l2.1,2.1
			c0.1,0.1,0.1,0.4,0,0.5C24.1,26.8,24,26.8,23.9,26.8z"/>
	</g>
</g>
<path class="st9" d="M20.4,29.9"/>
<rect x="59.1" y="29.6" class="st10" width="3.8" height="18.9"/>
<g>
	<path class="st5" d="M61.4,11.8c0-2.6,2.7-4.8,6-4.8s6.1,2.2,6.1,4.8"/>
</g>
<g>
	<path class="st5" d="M75.4,11.8c0-2.7,2.7-4.8,6.1-4.8s6.1,2.2,6.1,4.8"/>
</g>
<g>
	<path class="st5" d="M69.4,11.8c0-4.3,2.9-7.9,6.4-7.9s6.4,3.5,6.4,7.9"/>
</g>
<g>
	<path class="st5" d="M5.6,92.1c0-2.3,2.3-4.1,5.2-4.1s5.2,1.8,5.2,4.1"/>
</g>
<g>
	<path class="st5" d="M12.4,92.1c0-3.7,2.5-6.7,5.5-6.7s5.5,3,5.5,6.7"/>
</g>
<g>
	<path class="st7" d="M13.9,21.5c0.1,0.1,0.2,0.1,0.1,0.2c0,0.1-0.1,0.3-0.3,0.3l-3,0.3c-0.1,0-0.3-0.1-0.3-0.3
		c0-0.1,0.1-0.3,0.3-0.3l3-0.3C13.7,21.4,13.8,21.5,13.9,21.5z"/>
</g>
<g>
	<path class="st7" d="M11.7,17.3L11.7,17.3l2.4,2.1c0.2,0.1,0.2,0.3,0,0.4c-0.1,0.2-0.3,0.2-0.4,0l0,0l-2.4-2.1
		c-0.2-0.1-0.2-0.3,0-0.4C11.4,17.2,11.6,17.2,11.7,17.3z"/>
</g>
<g>
	<path class="st7" d="M16,15.3c0.1,0.1,0.1,0.1,0.1,0.2l0.4,3.1c0,0.1-0.1,0.3-0.3,0.3c-0.1,0-0.3-0.1-0.3-0.3l-0.4-3.1
		c0-0.1,0.1-0.3,0.3-0.3C16,15.3,16,15.3,16,15.3z"/>
</g>
<g>
	<polygon class="st5" points="74.4,18.1 84,17.2 80.2,22.1 78,20.4 76.7,22 76.7,19.4 	"/>
	<path class="st7" d="M80.2,22.5c-0.1,0-0.2,0-0.2-0.1L78.2,21l-1.1,1.3c-0.1,0.1-0.3,0.2-0.4,0.1c-0.2-0.1-0.3-0.2-0.3-0.4
		l-0.1-2.4l-2.1-1.1C74,18.4,74,18.2,74,18.1c0-0.2,0.2-0.3,0.4-0.3l9.6-1c0.2,0,0.3,0.1,0.4,0.2s0.1,0.3,0,0.4l-3.8,4.9
		C80.5,22.4,80.4,22.5,80.2,22.5L80.2,22.5z M78,20c0.1,0,0.2,0,0.2,0.1l1.8,1.4l3-3.9l-7.4,0.8l1.1,0.6c0.1,0.1,0.2,0.2,0.2,0.3
		v1.6l0.7-0.8C77.8,20.1,77.9,20,78,20z"/>
</g>
<g>
	<path class="st7" d="M76.7,19.8c-0.2,0-0.3-0.1-0.4-0.3c-0.1-0.2,0.1-0.4,0.3-0.5l7.3-2.2c0.2-0.1,0.4,0.1,0.5,0.3
		c0.1,0.2-0.1,0.4-0.3,0.5L76.7,19.8C76.7,19.8,76.7,19.8,76.7,19.8z"/>
</g>
<g>
	<path class="st7" d="M78,20.8c-0.1,0-0.3-0.1-0.4-0.2c-0.1-0.2,0-0.4,0.2-0.5l5.9-3.3c0.2-0.1,0.4,0,0.5,0.2c0.1,0.2,0,0.4-0.2,0.5
		L78,20.8C78.2,20.8,78.1,20.8,78,20.8z"/>
</g>
<g>
	<path class="st7" d="M76.7,22.4c-0.2,0-0.3-0.1-0.4-0.2c-0.1-0.2,0-0.4,0.2-0.5l2.2-0.9c0.2-0.1,0.4,0,0.5,0.2
		c0.1,0.2,0,0.4-0.2,0.5l-2.1,0.9C76.8,22.4,76.8,22.4,76.7,22.4z"/>
</g>
<g>
	<polygon class="st10" points="83.6,17.5 78.2,20.4 80.2,22 	"/>
</g>
<g>
	<g>
		<path class="st11" d="M72.5,45.1c-0.2,0-0.3-0.1-0.4-0.3s0-0.4,0.3-0.5c0.2-0.1,0.4-0.1,0.7-0.2c0.2-0.1,0.4,0,0.5,0.2
			s0,0.4-0.2,0.5c-0.3,0.1-0.5,0.2-0.7,0.2C72.6,45.1,72.6,45.1,72.5,45.1z"/>
	</g>
	<g>
		<path class="st11" d="M74.9,44.2c-0.2,0-0.3-0.1-0.4-0.2c-0.1-0.2,0-0.4,0.2-0.5c0.4-0.2,0.6-0.3,0.9-0.5c0.1,0,0.2-0.1,0.3-0.2
			c0.2-0.1,0.4-0.1,0.6,0.1c0.1,0.2,0.1,0.4-0.1,0.6c-0.1,0.1-0.2,0.2-0.3,0.2c-0.3,0.2-0.6,0.3-1,0.5C75,44.2,74.9,44.2,74.9,44.2z
			 M77.4,42.2c-0.1,0-0.2,0-0.3-0.1c-0.2-0.1-0.2-0.4,0-0.6c0.3-0.3,0.6-0.7,0.8-1.1c0.1-0.2,0.4-0.2,0.6-0.1
			c0.2,0.1,0.2,0.4,0.1,0.6c-0.3,0.4-0.6,0.8-0.9,1.2C77.7,42.2,77.5,42.2,77.4,42.2z M79.2,39.5c-0.1,0-0.1,0-0.2,0
			c-0.2-0.1-0.3-0.3-0.2-0.5c0.2-0.4,0.4-0.8,0.6-1.3c0.1-0.2,0.3-0.3,0.5-0.2c0.2,0.1,0.3,0.3,0.2,0.5c-0.2,0.4-0.4,0.9-0.6,1.3
			C79.5,39.5,79.4,39.5,79.2,39.5z M80.3,36.5L80.3,36.5c-0.3,0-0.4-0.3-0.4-0.5c0.1-0.3,0.1-0.6,0.1-0.9c0-0.1,0-0.3,0-0.4
			c0-0.2,0.1-0.4,0.4-0.4c0.2,0,0.4,0.1,0.4,0.4c0,0.1,0,0.3,0,0.5c0,0.3,0,0.7-0.1,1.1C80.7,36.4,80.5,36.5,80.3,36.5z M79.7,33.4
			c-0.1,0-0.2,0-0.3-0.1c-0.1-0.2-0.3-0.3-0.4-0.4c-0.2-0.2-0.3-0.3-0.5-0.4c-0.2-0.1-0.3-0.3-0.2-0.5c0.1-0.2,0.3-0.3,0.5-0.2
			c0.3,0.1,0.5,0.3,0.7,0.5c0.1,0.1,0.3,0.3,0.5,0.5c0.1,0.2,0.1,0.4,0,0.6C79.9,33.4,79.8,33.4,79.7,33.4z M75.5,32.2
			c-0.2,0-0.4-0.2-0.4-0.4c0-0.2,0.2-0.4,0.4-0.4c0.2,0,0.3,0,0.5,0c0.3,0,0.6,0,0.9,0l0,0c0.2,0,0.4,0.2,0.4,0.4s-0.2,0.4-0.4,0.4
			l0,0h-0.1c-0.3,0-0.5,0-0.7,0C75.8,32.2,75.6,32.2,75.5,32.2L75.5,32.2z M73.7,31.9c-0.1,0-0.1,0-0.2,0c-0.4-0.2-0.7-0.5-0.9-0.9
			c-0.1-0.1-0.1-0.3-0.2-0.4c-0.1-0.2,0-0.4,0.3-0.5c0.2-0.1,0.4,0,0.5,0.3c0,0.1,0.1,0.2,0.1,0.3c0.1,0.3,0.3,0.4,0.5,0.5
			s0.3,0.3,0.2,0.5C74,31.8,73.8,31.9,73.7,31.9z M72.8,29L72.8,29c-0.3,0-0.4-0.3-0.4-0.5c0.1-0.4,0.2-0.9,0.4-1.4
			c0.1-0.2,0.3-0.3,0.5-0.2c0.2,0.1,0.3,0.3,0.2,0.5c-0.2,0.5-0.3,0.9-0.4,1.3C73.2,28.9,73,29,72.8,29z M74,26c-0.1,0-0.1,0-0.2,0
			c-0.2-0.1-0.3-0.3-0.2-0.5c0.2-0.5,0.5-0.9,0.8-1.2c0.1-0.2,0.4-0.2,0.6-0.1c0.2,0.1,0.2,0.4,0.1,0.6c-0.3,0.3-0.5,0.7-0.7,1.1
			C74.2,25.9,74.1,26,74,26z"/>
	</g>
	<g>
		<path class="st11" d="M76.1,23.6c-0.1,0-0.3-0.1-0.3-0.2c-0.1-0.2,0-0.4,0.1-0.5c0.3-0.1,0.5-0.3,0.8-0.3c0.2,0,0.4,0.1,0.5,0.3
			c0,0.2-0.1,0.4-0.3,0.5c-0.1,0-0.3,0.1-0.5,0.2C76.2,23.5,76.1,23.6,76.1,23.6z"/>
	</g>
</g>
</svg>
