<svg xmlns="http://www.w3.org/2000/svg" id="prefix__No_questions_available" width="182.399" height="182.469" data-name="No questions available" viewBox="0 0 182.399 182.469">
    <defs>
        <style>
            .noQuestionIcon-2{fill:#fff}.noQuestionIcon-3{fill:#a4abbe}.noQuestionIcon-4{fill:#d1d4e2}.noQuestionIcon-6{fill:#5b5ba8}.noQuestionIcon-7{fill:#dadfef}.noQuestionIcon-8{fill:#e8e7f4}
        </style>
    </defs>
    <path id="prefix__Path_16143" fill="#f8f8f8" d="M8.475 139.411c-4.965-9.736-11.9-23.346-6.566-35.8C6.79 92.252 17.23 92.719 45.994 75.643 67.392 62.937 78.095 56.586 83.527 46c8.653-16.839-.091-28.475 10.725-38.6 9.948-9.291 26-7.606 29.209-7.27 20.333 2.134 32.619 17.637 39.915 26.848 13.9 17.543 22.161 42.075 17.875 62.652-3.684 17.689-7.744 25.732-7.744 25.732-3.123 6.179-6.1 9.908-6.566 16.78-.409 6.2 1.689 8.16 1.787 14.544a39.1 39.1 0 0 1-5.362 18.458c-11.093 18.929-52.777 17.462-72.086 16.78-19.662-.689-33.487-1.178-49.451-9.506-6.192-3.236-23.235-13.137-33.354-33.007z" data-name="Path 16143" transform="translate(.015 .206)"/>
    <ellipse id="prefix__Ellipse_1727" cx="37.077" cy="5.935" class="noQuestionIcon-2" data-name="Ellipse 1727" rx="37.077" ry="5.935" transform="translate(53.491 157.74)"/>
    <path id="prefix__Path_16144" d="M212.527 440.4s-3.44-.777-4.9 0-.317 4.056 7.416 2.918z" class="noQuestionIcon-3" data-name="Path 16144" transform="translate(-131.539 -279.452)"/>
    <path id="prefix__Path_16145" d="M267.481 440.4s3.44-.777 4.9 0 .317 4.056-7.416 2.918z" class="noQuestionIcon-3" data-name="Path 16145" transform="translate(-168.3 -279.452)"/>
    <path id="prefix__Path_16146" d="M203.054 420.9s-3.4-.777-2.82 3.4c.584 2.718 10.429 6.789 10.429 6.789v-8.2z" class="noQuestionIcon-4" data-name="Path 16146" transform="translate(-127.143 -267.25)"/>
    <path id="prefix__Path_16147" fill="#fff5f3" d="M241.36 368.627v2.4a2.577 2.577 0 0 0 4.122 0v-2.4s-2.758-2.433-4.122 0z" data-name="Path 16147" transform="translate(-153.309 -233.395)"/>
    <path id="prefix__Path_16148" d="M274.3 420.9s3.4-.777 2.82 3.4c-.584 2.718-10.429 6.789-10.429 6.789v-8.2z" class="noQuestionIcon-4" data-name="Path 16148" transform="translate(-169.399 -267.25)"/>
    <path id="prefix__Path_16149" d="M238.054 377.3l-3.283-1.222a10.057 10.057 0 0 0-7.018 0l-3.283 1.222s-4.76 2.619-.875 16.12c0 0 2.331 2.043 7.661 2.043s7.661-2.043 7.661-2.043c3.893-13.499-.863-16.12-.863-16.12z" class="noQuestionIcon-3" data-name="Path 16149" transform="translate(-141.055 -238.414)"/>
    <path id="prefix__Path_16150" d="M231.262 329.472s-2.393-.7-3.52.843 0 3.59 0 3.59a2.821 2.821 0 0 0-2.039 2.535 2.649 2.649 0 0 0 1.335 2.885 3.061 3.061 0 0 0 .142 3.239c.7.985 3.028 0 3.028 0a1.55 1.55 0 0 0 1.054 1.266c.985.365 1.9-.773 1.9-.773a3.166 3.166 0 0 0 3.589.843 2.528 2.528 0 0 0 2.043-2.743 2.547 2.547 0 0 0 2.6-1.054c.846-1.419-.635-3.1-.635-3.1a4.844 4.844 0 0 0 0-4.013c-.985-2.112-2.535-1.339-2.535-1.339s.212-2.043-1.054-2.747-2.747.916-2.747.916.073-2.061-1.477-2.039a1.7 1.7 0 0 0-1.684 1.691z" class="noQuestionIcon-3" data-name="Path 16150" transform="translate(-143.343 -208.135)"/>
    <path id="prefix__Path_16151" d="M225.843 424.72a35.065 35.065 0 0 0 0 7.383c.474 2.915 7.566 3.206 10.966 3.009s5.837-1.554 4.377-10.393c.004.001-7.558 3.842-15.343.001z" class="noQuestionIcon-4" data-name="Path 16151" transform="translate(-143.319 -269.713)"/>
    <path id="prefix__Path_16152" d="M228.16 396.39c.106.919.193 1.824.281 2.758l.241 2.758.2 2.765c.062.919.124 1.842.16 2.765-.15-.912-.263-1.824-.365-2.747s-.182-1.824-.27-2.761-.135-1.842-.175-2.765-.076-1.846-.072-2.773z" class="noQuestionIcon-6" data-name="Path 16152" transform="translate(-144.924 -251.717)"/>
    <path id="prefix__Path_16153" d="M264.639 396.32c0 .927-.029 1.849-.069 2.772s-.113 1.846-.179 2.765-.161 1.842-.266 2.761-.223 1.824-.365 2.747c.033-.923.1-1.846.157-2.769l.208-2.761.241-2.758c.08-.918.167-1.838.273-2.757z" class="noQuestionIcon-6" data-name="Path 16153" transform="translate(-167.538 -251.672)"/>
    <path id="prefix__Path_16154" d="M366.938 79.436c0-15.157-16.915-27.436-37.759-27.436s-37.8 12.279-37.8 27.436 16.915 27.443 37.8 27.443a50.762 50.762 0 0 0 11.834-1.375 5.337 5.337 0 0 1 .171 3.407c-1.43 5.213-8.977 7.062-8.551 8 .339.73 5.435.157 10.3-2.218a26.534 26.534 0 0 0 11.184-10.415 32.55 32.55 0 0 0 2.685-6.121c6.281-4.907 10.136-11.502 10.136-18.721z" class="noQuestionIcon-7" data-name="Path 16154" transform="translate(-185.083 -32.956)"/>
    <path id="prefix__Path_16155" d="M374.151 113.346a13.149 13.149 0 0 1 .664-4.647 7.325 7.325 0 0 1 2.156-2.955 14.224 14.224 0 0 0 2.269-2.287 3.735 3.735 0 0 0 .777-2.287q0-3.05-2.623-3.046a2.437 2.437 0 0 0-1.955.886 3.776 3.776 0 0 0-.784 2.4h-6.815a8.106 8.106 0 0 1 2.553-6.282 10.159 10.159 0 0 1 6.989-2.258q4.5 0 6.967 2.076a7.29 7.29 0 0 1 2.47 5.91 6.891 6.891 0 0 1-.664 3.042 10.328 10.328 0 0 1-2.138 2.805l-2.32 2.156a5.471 5.471 0 0 0-1.361 1.933 7.79 7.79 0 0 0-.423 2.532zm-.828 6.128a3.13 3.13 0 0 1 1.094-2.448 4.253 4.253 0 0 1 5.381 0 3.32 3.32 0 0 1 0 4.9 4.264 4.264 0 0 1-5.381 0 3.133 3.133 0 0 1-1.094-2.462z" class="noQuestionIcon-2" data-name="Path 16155" transform="translate(-233.651 -58.917)"/>
    <path id="prefix__Path_16156" d="M93.83 145.558c0-20.848 23.441-37.748 52.358-37.748s52.362 16.9 52.362 37.748S175.1 183.3 146.188 183.3a71.059 71.059 0 0 1-16.415-1.893 7.3 7.3 0 0 0-.237 4.684c1.984 7.168 12.443 9.714 11.852 11-.474 1.025-7.536.215-14.281-3.05a36.6 36.6 0 0 1-15.5-14.325 44.5 44.5 0 0 1-3.724-8.419c-8.713-6.744-14.053-15.791-14.053-25.739z" class="noQuestionIcon-4" data-name="Path 16156" transform="translate(-59.596 -68.407)"/>
    <path id="prefix__Path_16157" d="M208.538 192.2a17.965 17.965 0 0 1 .919-6.391 10.021 10.021 0 0 1 2.991-4.064 19.823 19.823 0 0 0 3.144-3.148 5.107 5.107 0 0 0 1.076-3.144q0-4.191-3.648-4.188a3.382 3.382 0 0 0-2.71 1.218 5.192 5.192 0 0 0-1.094 3.3h-9.426q.055-5.548 3.52-8.638t9.725-3.093q6.234 0 9.656 2.856t3.44 8.127a9.368 9.368 0 0 1-.923 4.184 14.1 14.1 0 0 1-2.962 3.856l-3.214 2.966a7.54 7.54 0 0 0-1.9 2.678 10.611 10.611 0 0 0-.587 3.48zm-1.145 8.43a4.293 4.293 0 0 1 1.492-3.371 5.946 5.946 0 0 1 7.464 0 4.553 4.553 0 0 1 0 6.741 5.946 5.946 0 0 1-7.464 0 4.294 4.294 0 0 1-1.493-3.373z" class="noQuestionIcon-2" data-name="Path 16157" transform="translate(-126.904 -104.132)"/>
    <path id="prefix__Path_16158" d="M10.66 46.091c0-14.376 16.051-26.031 35.833-26.031s35.829 11.673 35.829 26.031-16.05 26.028-35.829 26.028a48.2 48.2 0 0 1-11.224-1.306 5.081 5.081 0 0 0-.164 3.232c1.357 4.943 8.51 6.7 8.109 7.584-.321.708-5.154.15-9.773-2.1a25.108 25.108 0 0 1-10.619-9.875 31.006 31.006 0 0 1-2.554-5.8c-5.953-4.663-9.608-10.905-9.608-17.763z" class="noQuestionIcon-7" data-name="Path 16158" transform="translate(-6.766 -12.667)"/>
    <path id="prefix__Path_16159" d="M89.156 78.249a12.442 12.442 0 0 1 .631-4.407 6.887 6.887 0 0 1 2.046-2.8 13.672 13.672 0 0 0 2.152-2.189 3.553 3.553 0 0 0 .73-2.189q0-2.889-2.488-2.889a2.3 2.3 0 0 0-1.853.843 3.568 3.568 0 0 0-.73 2.276H83.17a7.7 7.7 0 0 1 2.411-5.957 9.468 9.468 0 0 1 6.646-2.1 9.976 9.976 0 0 1 6.606 1.97 6.915 6.915 0 0 1 2.342 5.6 6.5 6.5 0 0 1-.631 2.889 9.761 9.761 0 0 1-2.024 2.664L96.332 74a5.246 5.246 0 0 0-1.3 1.846 7.365 7.365 0 0 0-.4 2.4zm-.784 5.818a2.969 2.969 0 0 1 1.028-2.323 4.038 4.038 0 0 1 5.107 0 3.148 3.148 0 0 1 0 4.647 4.038 4.038 0 0 1-5.107 0 2.969 2.969 0 0 1-1.025-2.324z" class="noQuestionIcon-2" data-name="Path 16159" transform="translate(-52.825 -37.3)"/>
    <circle id="prefix__Ellipse_1728" cx="2.605" cy="2.605" r="2.605" class="noQuestionIcon-8" data-name="Ellipse 1728" transform="translate(67.856 146.53)"/>
    <circle id="prefix__Ellipse_1729" cx="2.141" cy="2.141" r="2.141" class="noQuestionIcon-8" data-name="Ellipse 1729" transform="translate(4.168 67.356)"/>
    <circle id="prefix__Ellipse_1730" cx="2.612" cy="2.612" r="2.612" class="noQuestionIcon-8" data-name="Ellipse 1730" transform="translate(72.945 6.273)"/>
    <circle id="prefix__Ellipse_1731" cx="1.222" cy="1.222" r="1.222" class="noQuestionIcon-8" data-name="Ellipse 1731" transform="translate(161.066 175.498)"/>
    <circle id="prefix__Ellipse_1732" cx="1.729" cy="1.729" r="1.729" class="noQuestionIcon-8" data-name="Ellipse 1732" transform="translate(174.87 130.899)"/>
    <circle id="prefix__Ellipse_1733" cx="1.729" cy="1.729" r="1.729" class="noQuestionIcon-2" data-name="Ellipse 1733" transform="translate(121.753 134.244)"/>
    <circle id="prefix__Ellipse_1734" cx="1.729" cy="1.729" r="1.729" class="noQuestionIcon-4" data-name="Ellipse 1734" transform="translate(30.983 107.789)"/>
    <circle id="prefix__Ellipse_1735" cx="1.729" cy="1.729" r="1.729" class="noQuestionIcon-7" data-name="Ellipse 1735" transform="translate(153.326 103.047)"/>
    <path id="prefix__Path_16160" d="M64.8 462.465a1.6 1.6 0 1 1-.469-1.136 1.605 1.605 0 0 1 .469 1.136z" class="noQuestionIcon-8" data-name="Path 16160" transform="translate(-39.117 -292.669)"/>
    <path id="prefix__Path_16161" d="M451.88 39.675a1.605 1.605 0 1 1-1.605-1.605 1.605 1.605 0 0 1 1.605 1.605z" class="noQuestionIcon-8" data-name="Path 16161" transform="translate(-284.995 -24.107)"/>
    <path id="prefix__Path_16162" d="M279.88 84.205a1.605 1.605 0 1 1-1.605-1.605 1.605 1.605 0 0 1 1.605 1.605z" class="noQuestionIcon-2" data-name="Path 16162" transform="translate(-175.739 -52.394)"/>
</svg>
