<svg xmlns="http://www.w3.org/2000/svg" xmlns:xlink="http://www.w3.org/1999/xlink" width="500" height="500" viewBox="0 0 500 500">
  <defs>
    <filter id="Rectangle_2748" x="124.734" y="75.748" width="255.665" height="349.112" filterUnits="userSpaceOnUse">
      <feOffset dx="2" dy="4" input="SourceAlpha"/>
      <feGaussianBlur stdDeviation="2.5" result="blur"/>
      <feFlood flood-color="#212837" flood-opacity="0.161"/>
      <feComposite operator="in" in2="blur"/>
      <feComposite in="SourceGraphic"/>
    </filter>
    <filter id="Path_16205" x="255.466" y="19.977" width="75.233" height="76.063" filterUnits="userSpaceOnUse">
      <feOffset dx="7" dy="7" input="SourceAlpha"/>
      <feGaussianBlur stdDeviation="2" result="blur-2"/>
      <feFlood flood-color="#1a1818" flood-opacity="0.031"/>
      <feComposite operator="in" in2="blur-2"/>
      <feComposite in="SourceGraphic"/>
    </filter>
  </defs>
  <g id="graphic" transform="translate(-0.395 0.465)">
    <rect id="Rectangle_2747" data-name="Rectangle 2747" width="500" height="500" rx="43.34" transform="translate(0.395 -0.465)" fill="#e4e4eb"/>
    <g id="Group_22453" data-name="Group 22453">
      <g transform="matrix(1, 0, 0, 1, 0.4, -0.47)" filter="url(#Rectangle_2748)">
        <rect id="Rectangle_2748-2" data-name="Rectangle 2748" width="238.68" height="332.69" rx="18.428" transform="translate(130.23 80.68) rotate(-0.34)" fill="#f6f8f8"/>
      </g>
      <rect id="Rectangle_2749" data-name="Rectangle 2749" width="167.076" height="28.194" transform="translate(167.531 127.92) rotate(-0.343)" fill="#e4e4eb"/>
      <line id="Line_346" data-name="Line 346" y1="0.978" x2="163.457" transform="translate(171.546 217.789)" fill="none" stroke="#b0b8c6" stroke-linecap="round" stroke-linejoin="round" stroke-width="5"/>
      <line id="Line_347" data-name="Line 347" y1="0.978" x2="163.457" transform="translate(168.627 182.098)" fill="none" stroke="#b0b8c6" stroke-linecap="round" stroke-linejoin="round" stroke-width="5"/>
      <line id="Line_348" data-name="Line 348" y1="0.489" x2="81.728" transform="translate(174.169 257.544)" fill="none" stroke="#b0b8c6" stroke-linecap="round" stroke-linejoin="round" stroke-width="5"/>
    </g>
    <g id="Group_22456" data-name="Group 22456">
      <g id="Group_22454" data-name="Group 22454">
        <path id="Path_16165" data-name="Path 16165" d="M65.8,347.3l-1.4-2.771L25.438,373.395l17,26.7L81.22,368.388Z" fill="#bcbbbb"/>
        <path id="Path_16166" data-name="Path 16166" d="M27.071,374.012,42,399.051l.955-.413-13.3-23.411Z" fill="#cecbcb"/>
        <path id="Path_16167" data-name="Path 16167" d="M65.03,346.752l-37.959,27.26a1.67,1.67,0,0,0,1.1.946,3.153,3.153,0,0,0,1.488.269l39.908-26.484a12.257,12.257,0,0,1-3.135-1.123A9.453,9.453,0,0,0,65.03,346.752Z" fill="#f2f1f1"/>
        <path id="Path_16168" data-name="Path 16168" d="M70.544,347.675l-41.6,26.94L42.456,399.44l2.178,3.439,41.6-29.852s-4.382-6.341-7.012-10.169S71.425,350,71.144,349.423A13.449,13.449,0,0,1,70.544,347.675Z" fill="#909bb1"/>
      </g>
      <g id="Group_22455" data-name="Group 22455">
        <path id="Path_16169" data-name="Path 16169" d="M455.715,184.568l1.175-2.327,32.718,24.239L475.334,228.9l-32.568-26.626Z" fill="#bcbbbb"/>
        <path id="Path_16170" data-name="Path 16170" d="M488.237,207,475.7,228.024l-.8-.347,11.167-19.659Z" fill="#cecbcb"/>
        <path id="Path_16171" data-name="Path 16171" d="M456.362,184.107,488.237,207a1.4,1.4,0,0,1-.925.794,2.636,2.636,0,0,1-1.249.226L452.55,185.779a10.31,10.31,0,0,0,2.634-.943A7.945,7.945,0,0,1,456.362,184.107Z" fill="#f2f1f1"/>
        <path id="Path_16172" data-name="Path 16172" d="M451.731,184.882l34.93,22.622-11.344,20.847-1.828,2.887L438.558,206.17s3.68-5.324,5.889-8.538,6.544-10.8,6.781-11.282A11.354,11.354,0,0,0,451.731,184.882Z" fill="#c4cadc"/>
      </g>
    </g>
    <g id="Group_22462" data-name="Group 22462">
      <g id="Group_22461" data-name="Group 22461">
        <g id="Group_22460" data-name="Group 22460">
          <path id="Path_16173" data-name="Path 16173" d="M96.89,147.159a3.849,3.849,0,0,0-.529,4.826c1.707,2.7,8.548,10.42,15.929,8.968.3-.059-11.831-14.353-11.831-14.353Z" fill="#a9a8a8"/>
          <g id="Group_22459" data-name="Group 22459">
            <g id="Group_22457" data-name="Group 22457">
              <path id="Path_16174" data-name="Path 16174" d="M110.3,307.177s-10.585-6.844-13.326-4.892c-3.348,2.385-20.951,26.01-18.636,35.48.948,3.878,5-.206,11.828-9.939a18.459,18.459,0,0,1,17.667-7.717Z" fill="#fff"/>
            </g>
            <g id="Group_22458" data-name="Group 22458">
              <path id="Path_16175" data-name="Path 16175" d="M135.05,317.636l-12.264-4.971s-24.8,31.792-19.687,34.714c3.875,2.216,5.512-.571,12.343-10.3s17.922-6.487,17.922-6.487Z" fill="#fff"/>
            </g>
            <path id="Path_16176" data-name="Path 16176" d="M189.5,217.287l6.775,29.524-48.571-4.853Z" fill="#f09470"/>
            <path id="Path_16177" data-name="Path 16177" d="M147.869,242.985s41.225-3.818,46.377-6.481c0,0,20.244,77.122,7.372,87.8s-46.667,3.281-46.667,3.281l5.954-18.257,18.356-4.112-4.727-30.2-1.282.511Z" fill="#909bb1"/>
            <path id="Path_16178" data-name="Path 16178" d="M105.065,304.453s-9.606,5.835-4.676,15.584c0,0,39.351,22,55.413,12.986,9-5.049,15.021-33.765,18.576-58.049l19.868-38.47s-11.825,2.461-15.8,3.068c-7.6,1.16-30.574,3.413-30.574,3.413s-2.153,64.079-6.154,66.251S105.065,304.453,105.065,304.453Z" fill="#909bb1"/>
            <path id="Path_16179" data-name="Path 16179" d="M145.168,163.461s20.872-26.784,24.154-33.487,9.178-28.355,19.028-38.561l-7.233-10.626s3.039-2.332,5.909,2.169c0,0,5.394-16.933,7.253-16.916s-1.732,12.648-1.732,12.648,5.85-12.055,8.011-12.083-3.524,13.075-3.524,13.075,6.921-11.131,8.319-10.112-5.3,9.639-5.3,9.639,7.7-6.178,8.853-4.72-7.543,7.153-7.543,7.153.18,7.089-5.084,11.007c0,0-6.558,32.474-15.267,44.048l-27.622,39.447Z" fill="#fef2f0"/>
            <path id="Path_16180" data-name="Path 16180" d="M117.826,179.929s-19.385,27.877-24.813,33S68.656,230.1,61.832,242.538l-12.293-3.755s-1.326,3.593,3.825,5c0,0-14.572,10.174-14,11.946s11.564-5.407,11.564-5.407-9.777,9.163-9.164,11.234,11.44-7.243,11.44-7.243-8.576,9.911-7.188,10.942,7.633-7.918,7.633-7.918-3.617,9.183-1.879,9.854,4.592-9.326,4.592-9.326,6.823-1.928,9-8.12c0,0,27.266-16.119,35.736-27.869l32.17-31.3Z" fill="#fef2f0"/>
            <path id="Path_16181" data-name="Path 16181" d="M125,168.9l-9.928,13.311,5,12.474s15.891,25.923,18.7,32.415c4.361,10.094,2.481,26.82,2.481,26.82s19.327-4.69,37.051-8.083S200.954,235.8,200.954,235.8s-23.5-49.033-36.417-61.746-17.5-16.606-17.5-16.606l-15.167,5.891Z" fill="#c4cadc"/>
            <path id="Path_16182" data-name="Path 16182" d="M160.878,172.885l10.995-9.717s.557-8.655-15.72-16.213l-15.581,13.528Z" fill="#c4cadc"/>
            <path id="Path_16183" data-name="Path 16183" d="M117.4,180.922c-6.551,1.988-16.132,20.877-17.5,21.058,0,0,10.813,12.708,17.707,12.1C117.609,214.075,142.013,173.455,117.4,180.922Z" fill="#c4cadc"/>
            <path id="Path_16184" data-name="Path 16184" d="M139.316,166.177s-10.873-5.749-10.989-8.7c-.029-.744,1.134-2.14,1.321-3.247,1-5.958-10.384-19.125-16.456-21.325-4.777-1.73-2.882-2.246-11.278,4.7s-1.634,15.638,3.271,19.91c4.635,4.039,9.423,5.331,13.5,5.036l7.716,11.821Z" fill="#fef2f0"/>
            <path id="Path_16185" data-name="Path 16185" d="M123.331,179.023c-2.548-4.228.048-10.463,5.8-13.929s12.477-2.852,15.029,1.375-2.572,11.982-5.8,13.929S125.878,183.249,123.331,179.023Z" fill="#fef2f0"/>
          </g>
          <path id="Path_16186" data-name="Path 16186" d="M105.184,157.517s-3.184.319-3.205,2.479,6.117,1.2,8.15-.737Z" fill="#fde9e7"/>
          <path id="Path_16187" data-name="Path 16187" d="M107.065,159.2c-1.195-3.709-5.689-5.9-6.067-9.638,1.945-.289,2.816-2.89,1.61-4.807-.474-.754-1.172-1.353-1.673-2.091s-.763-1.765-.257-2.305a1.926,1.926,0,0,1,.951-.441c2.834-.747,7.9-.655,10.4-2.052,2.377-1.33,4.8-3.572,4.049-6.622-.65-2.655-3.369-4.465-5.809-5.772-1.4-.749-5.361-2.662-6.673-2.227-2.006.665-2.075,3.488-1.864,5.811a3.617,3.617,0,0,0-4.821.717c-1.078,1.311-1.392,3.177-1.671,4.973s-.578,3.665-1.635,4.995c-.986,1.24-2.681,2.327-2.161,4.091.621,2.1,3.546,2.428,5.13,4.057-.389-.4-.212,2.51.048,2.968.783,1.378,2.316,2.13,3.49,3.1C102.612,156.006,104.029,158.247,107.065,159.2Z" fill="#a9a8a8"/>
          <path id="Path_16188" data-name="Path 16188" d="M118.688,162.553s4.592-.692,6.843-2.614a10.818,10.818,0,0,1-5.812,4.246Z" fill="#fde9e7"/>
        </g>
      </g>
    </g>
    <path id="Path_16189" data-name="Path 16189" d="M415.67,454.456l-40.494-25.067,33.454-58.4,37.017,24Z" fill="#fff"/>
    <g id="Group_22473" data-name="Group 22473">
      <g id="Group_22472" data-name="Group 22472">
        <path id="Path_16190" data-name="Path 16190" d="M383.778,123.2c2.464-6.118,3.413-12.929,7.091-18.4C396.163,96.913,406.33,93,410.626,84.541A26.111,26.111,0,0,0,413.041,72.8c.036-7.977-2.352-16.455-8.512-21.523-7.078-5.823-17.7-5.742-25.988-1.83S363.92,60.465,358.535,67.883s-10.1,15.377-16.37,22.062C337.516,94.9,332,99.175,328.5,105c-9.6,15.962.278,36.16,17.228,41.921C360.62,151.981,378.626,135.986,383.778,123.2Z" fill="#909bb1"/>
        <g id="Group_22469" data-name="Group 22469">
          <g id="Group_22468" data-name="Group 22468">
            <g id="Group_22467" data-name="Group 22467">
              <g id="Group_22463" data-name="Group 22463">
                <path id="Path_16191" data-name="Path 16191" d="M404.995,235.781c-1.474,1.212.134.373-2.011,1.769.479,5.357,5.435,8.732,5.435,8.732s.209,8.529,1.8,8.354.573-8.212.573-8.212,3.263,8.4,4.642,7.865-3.615-10.173-3.615-10.173,7,9.635,7.962,8.117-5.2-10.815-5.2-10.815,7.6,7.973,8.463,6.682-9.075-12.375-9.075-12.375c4.6-.051,4.272-3.18,4.272-3.18l-11.2.663A19.168,19.168,0,0,1,404.995,235.781Z" fill="#fef2f0"/>
                <path id="Path_16192" data-name="Path 16192" d="M298.012,74.927c-1.916.336-.43-.3-2.916.425-4.083-3.71-3.542-9.54-3.542-9.54s-6.849-5.492-5.713-6.565,7.084,4.712,7.084,4.712-4.834-7.681-3.534-8.372,6.068,9.053,6.068,9.053S291.95,53.41,293.8,53.645s5.6,10.627,5.6,10.627-1.769-10.638-.178-10.47,4.167,14.1,4.167,14.1c3.75-3.053,6.375-1.1,6.375-1.1l-8.208,8.048A29.847,29.847,0,0,0,298.012,74.927Z" fill="#fef2f0"/>
                <path id="Path_16193" data-name="Path 16193" d="M344.894,121.507c-3.465-.541-14.03,6.3-11.341,20.209.225,1.167,1.75,3.737,2.129,4.8.48,1.347-3.258,6.273-3.258,6.273l9.648,3.083c.412-2.915-.28-7.174,2.838-8.44a33.373,33.373,0,0,0,3.514-1.374c2.971-1.623,4.557-5.172,5.777-8.077a17.473,17.473,0,0,0,1.579-6.862C355.716,125.187,350.463,122.376,344.894,121.507Z" fill="#fef2f0"/>
                <path id="Path_16194" data-name="Path 16194" d="M325.574,159.585c0-5,1.587-6.914,6.839-6.914s12.186,1.91,12.186,6.914-3.709,11.269-8.963,11.269S325.574,164.591,325.574,159.585Z" fill="#fef2f0"/>
                <path id="Path_16195" data-name="Path 16195" d="M329.722,150.245s-16.333-16.84-19.6-33.335-8.82-43.261-8.82-43.261l-6.207,1.7s-2.941,36.579,0,42.181S314.7,162.039,314.369,172Z" fill="#fef2f0"/>
                <path id="Path_16196" data-name="Path 16196" d="M358.835,158.4s5.554.933,14.048,20.23,34.626,55.22,34.626,55.22l-4.248,3.911s-25.479-18.982-30.378-30.5-11.107-25.833-14.048-25.211S343.482,165.556,358.835,158.4Z" fill="#fef2f0"/>
                <path id="Path_16197" data-name="Path 16197" d="M315.109,174.571l-7.6-20.99s1.173-9.846,16.183-13.375l8.5,12.252Z" fill="#909bb1"/>
                <path id="Path_16198" data-name="Path 16198" d="M356.3,156.788s8.972.755,16.244,16.728c0,0-8,11.041-13.848,11.414C358.7,184.93,336.965,166.355,356.3,156.788Z" fill="#909bb1"/>
              </g>
              <g id="Group_22464" data-name="Group 22464">
                <path id="Path_16199" data-name="Path 16199" d="M331.648,346.206s12.952,26.447,14.466,21.551,1.012-16.662.2-18.341-6.109-9.1-6.109-9.1Z" fill="#fef2f0"/>
                <path id="Path_16200" data-name="Path 16200" d="M330.658,220.471l-11.843-4.528s-35.15,62.1-35,79.333S332.087,347,332.087,347l8.118-6.685s-22.813-33.542-30.757-42.247c-3.972-4.353,24.465-25.685,28.773-46.211S330.658,220.471,330.658,220.471Z" fill="#c4cadc"/>
              </g>
              <g id="Group_22466" data-name="Group 22466">
                <g id="Group_22465" data-name="Group 22465">
                  <path id="Path_16201" data-name="Path 16201" d="M401.871,332.351S426.1,350.209,425.089,345.2s-7.109-15.253-8.638-16.391-9.8-5.422-9.8-5.422Z" fill="#fef2f0"/>
                  <path id="Path_16202" data-name="Path 16202" d="M362.883,242.462l-35.042-20.308s-1.391,70.545,7.021,85.8,67.782,24.917,67.782,24.917l4-9.486s-36.628-21.823-47.875-26.094S362.883,242.462,362.883,242.462Z" fill="#c4cadc"/>
                </g>
                <path id="Path_16203" data-name="Path 16203" d="M342.013,208.263s25.8,9.136,20.87,34.2-13.153,29.763-13.153,29.763l-14.8-24.28-14.856-31.8,14.856-1.884Z" fill="#c4cadc"/>
              </g>
              <path id="Path_16204" data-name="Path 16204" d="M329.722,150.245a40.875,40.875,0,0,0-19,34.7s2.413,27.426,6.324,33.419a36.644,36.644,0,0,0,14.284,0c8.312-1.628,16.355-7.47,16.355-7.47l6.492-33.577,5.05-19.6-2.737-.9-14.288-1.568s2.053,21.341-13.9,10.742c-3.359-2.232,4.182-13.359,4.182-13.359Z" fill="#909bb1"/>
            </g>
          </g>
        </g>
        <g transform="matrix(1, 0, 0, 1, 0.4, -0.47)" filter="url(#Path_16205)">
          <path id="Path_16205-2" data-name="Path 16205" d="M318.095,59.341,278.265,82.575l-22.4-42.318L293.2,19.512Z" transform="translate(-0.4 0.47)" fill="#f1f1f2"/>
        </g>
        <g id="Group_22470" data-name="Group 22470">
          <path id="Path_16206" data-name="Path 16206" d="M402.94,86.872a10.953,10.953,0,0,0-2.345,2.359,48.3,48.3,0,0,0-5.17,7.456,54.211,54.211,0,0,0-5.132,12.466c-1.392,4.871-2.325,10.346-4.464,15.619a34.763,34.763,0,0,1-4.06,7.175,38.955,38.955,0,0,1-5.256,5.63,37.4,37.4,0,0,1-11.242,6.618,36.185,36.185,0,0,1-8.625,2.059,17.619,17.619,0,0,0-3.277.4,10.494,10.494,0,0,0,3.322.225,31.042,31.042,0,0,0,8.956-1.607,36.538,36.538,0,0,0,11.828-6.561,38.77,38.77,0,0,0,5.559-5.816,35.245,35.245,0,0,0,4.29-7.513c2.228-5.512,3.11-11.035,4.406-15.841a57.942,57.942,0,0,1,4.7-12.311,64.052,64.052,0,0,1,4.662-7.616A16.5,16.5,0,0,0,402.94,86.872Z" fill="#a2a1a2"/>
        </g>
        <g id="Group_22471" data-name="Group 22471">
          <path id="Path_16207" data-name="Path 16207" d="M354.007,59.69c-.292-.045-.577,3.876-2.772,9.675a43.578,43.578,0,0,1-5.064,9.543,46.553,46.553,0,0,1-4.04,4.949c-1.513,1.645-3.162,3.316-4.719,5.19a73.874,73.874,0,0,0-7.3,11.477,46.8,46.8,0,0,0-4.423,10.209,18.726,18.726,0,0,0-.628,7.515,6.248,6.248,0,0,0,.794,2.647,16.457,16.457,0,0,0-.168-2.7,20.894,20.894,0,0,1,1.1-7.136,51.369,51.369,0,0,1,4.625-9.8,81.368,81.368,0,0,1,7.241-11.173c1.5-1.8,3.123-3.468,4.645-5.155a44.812,44.812,0,0,0,4.1-5.171,40.722,40.722,0,0,0,4.914-10,36.11,36.11,0,0,0,1.64-7.31A7.647,7.647,0,0,0,354.007,59.69Z" fill="#a2a1a2"/>
        </g>
        <path id="Path_16208" data-name="Path 16208" d="M344.513,147.635a14.474,14.474,0,0,1-5.822-.294,8.123,8.123,0,0,0,4.236,1.925A4.565,4.565,0,0,1,344.513,147.635Z" fill="#fde4e1"/>
        <path id="Path_16209" data-name="Path 16209" d="M353.632,138.638s2.454-2.06,3.631-.2-5.3,2.846-5.3,2.846Z" fill="#fde4e1"/>
      </g>
      <path id="Path_16210" data-name="Path 16210" d="M412.625,326.548a23,23,0,0,1,4.435,2.447c.917.917,9.328,15.445,8.258,17.28s-9.506-4.394-9.506-4.394,7.059,1.336-3.187-15.333" fill="#909bb1"/>
      <path id="Path_16211" data-name="Path 16211" d="M343.989,345.759s2.5,2.7,2.884,3.94,1.075,18.011-.726,19.138-6.725-8.128-6.725-8.128,5.885,4.61,4.567-14.911" fill="#909bb1"/>
    </g>
    <rect id="Rectangle_2752" data-name="Rectangle 2752" width="9.571" height="9.571" transform="translate(238.512 472.344) rotate(29.775)" fill="#909bb1"/>
    <rect id="Rectangle_2753" data-name="Rectangle 2753" width="9.639" height="9.639" transform="translate(19.415 313.826) rotate(29.775)" fill="#909bb1"/>
    <rect id="Rectangle_2754" data-name="Rectangle 2754" width="4.503" height="4.503" transform="translate(5.466 479.093) rotate(29.775)" fill="#c4cadc"/>
    <rect id="Rectangle_2755" data-name="Rectangle 2755" width="5.581" height="5.581" transform="translate(108.897 472.348) rotate(-90)" fill="#c4cadc"/>
    <rect id="Rectangle_2756" data-name="Rectangle 2756" width="5.581" height="5.581" transform="translate(0.395 301.666) rotate(-90)" fill="#f0f0f0"/>
    <rect id="Rectangle_2757" data-name="Rectangle 2757" width="7.452" height="7.452" transform="translate(278.776 404.251) rotate(-38.802)" fill="#c4cadc"/>
    <rect id="Rectangle_2758" data-name="Rectangle 2758" width="7.452" height="7.452" transform="translate(366.01 473.909) rotate(-38.802)" fill="#c4cadc"/>
    <rect id="Rectangle_2759" data-name="Rectangle 2759" width="5.587" height="5.587" transform="translate(85.693 78.22) rotate(-38.802)" fill="#c4cadc"/>
    <rect id="Rectangle_2760" data-name="Rectangle 2760" width="7.452" height="7.452" transform="translate(53.997 429.905) rotate(14.352)" fill="#c4cadc"/>
    <rect id="Rectangle_2761" data-name="Rectangle 2761" width="4.503" height="4.503" transform="translate(193.172 53.21) rotate(29.775)" fill="#909bb1"/>
    <rect id="Rectangle_2762" data-name="Rectangle 2762" width="4.503" height="4.503" transform="translate(5.466 79.077) rotate(29.775)" fill="#bcbbbb"/>
    <rect id="Rectangle_2763" data-name="Rectangle 2763" width="4.503" height="4.503" transform="translate(21.13 206.836) rotate(29.775)" fill="#c4cadc"/>
    <rect id="Rectangle_2764" data-name="Rectangle 2764" width="7.452" height="7.452" transform="translate(413.007 57.209) rotate(-38.802)" fill="#c4cadc"/>
    <rect id="Rectangle_2765" data-name="Rectangle 2765" width="10.28" height="10.28" transform="translate(61.173 19.512) rotate(14.352)" fill="#c4cadc"/>
  </g>
</svg>
