<?xml version="1.0" encoding="utf-8"?>
<!-- Generator: Adobe Illustrator 24.1.2, SVG Export Plug-In . SVG Version: 6.00 Build 0)  -->
<svg version="1.1" id="Layer_1" xmlns="http://www.w3.org/2000/svg" xmlns:xlink="http://www.w3.org/1999/xlink" x="0px" y="0px"
	 viewBox="0 0 100 100" style="enable-background:new 0 0 100 100;" xml:space="preserve">
<style type="text/css">
	.st0{opacity:0.15;}
	.st1{fill:#BEC9DC;}
	.st2{fill:#E0E3E9;}
	.st3{fill:#F1F1F2;}
	.st4{fill:#99AAB7;}
	.st5{fill:#FFFFFF;}
	.st6{fill:#F6F7F7;}
	.st7{fill:#2B374F;}
</style>
<g id="noEnroll" transform="translate(-0.871 0.004)">
	<g id="Group_21957" transform="translate(0.871 -0.004)">
		<g id="Group_21920" transform="translate(0 11.51)" class="st0">
			<path id="Path_15574" class="st1" d="M90.9,18.9l-1.2-0.6c-1.5-0.6-3-0.9-4.6-0.9c-1.4,0-2.7,0.1-4,0.2c-1.5,0.2-3,0.3-4.5,0.3
				c-0.6,0-1.2-0.2-1.8-0.5c-0.4-0.2-0.7-0.4-1-0.7c-0.1-0.1-0.1-0.2-0.2-0.3C70.9,12.7,78.8,6,76.1,0.3C73-6,58.7-7.2,48.4-4.1
				c-3.4,1-11.6,4.2-17,11.8c-3.3,4.6-4.1,8.8-4.6,12.6c0,0.1,0,0.3-0.1,0.4V21c-0.5,4.1-0.8,7.7-3.7,10.5l-0.4,0.4
				c-0.1,0.1-0.3,0.2-0.4,0.3c-0.1,0.1-0.2,0.2-0.3,0.2c-5.7,4.4-11,0.8-16.1,5.6c-4.6,4.5-4.2,11.3-3.8,17.3
				c0.5,8,1,19.3,10.4,26.4c12.6,9.6,32.2,8.2,42.4,0.2c4.2-3.3,6.5-7.5,9.9-14c6.1-11.3,3.4-13.5,7.8-18.9l0.1-0.1
				c0.1-0.1,0.2-0.3,0.3-0.4s0.2-0.3,0.4-0.4c4.3-4.7,9.7-6.1,14.4-7.4c0.1,0,0.3-0.1,0.4-0.1c0.1,0,0.3-0.1,0.4-0.1
				c4-1.2,7.4-2.5,8.8-6C99.4,29.2,96.1,21.8,90.9,18.9z"/>
		</g>
		<g id="Group_21921" transform="translate(139.155 40.876)">
			<path id="Path_15575" class="st2" d="M-69-16.3c0-2.4,2.5-4.4,5.5-4.4c3,0,5.5,2,5.5,4.4H-69z"/>
		</g>
		<g id="Group_21922" transform="translate(165.186 40.876)">
			<path id="Path_15576" class="st2" d="M-82.3-16.3c0-2.4,2.5-4.4,5.5-4.4c3,0,5.5,2,5.5,4.4H-82.3z"/>
		</g>
		<g id="Group_21923" transform="translate(154.001 35.386)">
			<path id="Path_15577" class="st2" d="M-76.6-10.8c0-3.9,2.6-7.1,5.8-7.1s5.8,3.2,5.8,7.1H-76.6z"/>
		</g>
		<g id="Group_21953" transform="translate(17.746 27.861)">
			<path id="Path_15612" class="st2" d="M-7.2-10.4c0-2.1,2.1-3.7,4.7-3.7s4.7,1.7,4.7,3.7H-7.2z"/>
		</g>
		<g id="Group_21954" transform="translate(30.355 22.98)">
			<path id="Path_15613" class="st2" d="M-13.6-5.5c0-3.4,2.2-6.1,5-6.1s5,2.7,5,6.1H-13.6z"/>
		</g>
		<g id="Group_21955" transform="translate(163.356 4.881)">
			<path id="Path_15614" class="st2" d="M-81.4,1.3c0-2.1,2.1-3.7,4.7-3.7S-72-0.7-72,1.3L-81.4,1.3z"/>
		</g>
		<g id="Group_21956" transform="translate(175.965)">
			<path id="Path_15615" class="st2" d="M-87.8,6.2c0-3.4,2.2-6.1,5-6.1s5,2.7,5,6.1H-87.8z"/>
		</g>
	</g>
	<g id="Group_21958" transform="translate(10.299 119.052)">
		<path id="Path_15616" class="st3" d="M40.8-60c17.7,0.5,38.8,6,38.9,11.2c0.1,5.3-21.7,11.2-41.1,11.2c-19.6,0-41.2-5.9-41.1-11.2
			C-2.4-54,18.6-59.5,36.2-60C37.7-60.1,39.3-60.1,40.8-60z"/>
		<path id="Path_15617" class="st4" d="M38.6-37.3c-8.3,0-16.6-1-24.8-2.8c-7.7-1.8-13.4-4.2-15.7-6.5C-2.5-47.2-2.9-48-3-49
			c0.1-5.7,21.6-11.1,39-11.6h4.7c8.8,0.3,17.6,1.5,26.1,3.8c4.9,1.4,13.1,4.2,13.2,7.8c-0.1,0.9-0.5,1.8-1.2,2.4
			c-2.3,2.3-8,4.6-15.6,6.4C55.2-38.3,47-37.3,38.6-37.3L38.6-37.3z M38.6-59.7h-2.4c-8.7,0.3-17.4,1.6-25.8,3.8
			c-7.8,2.2-12.4,4.8-12.5,7c0,0.7,0.4,1.3,0.9,1.8c4.2,4.2,22.1,9,39.8,9l0,0c16.2,0,35.1-4.3,39.8-9c0.5-0.5,0.9-1.1,0.9-1.8
			c0-2.2-4.7-4.8-12.6-7c-8.5-2.3-17.2-3.6-25.9-3.8C40-59.7,39.3-59.7,38.6-59.7L38.6-59.7z"/>
	</g>
	<g id="Group_21959" transform="translate(138.145 129.766)">
		<path id="Path_15618" class="st2" d="M-64.7-60.2l3-5.5h-6.1L-64.7-60.2z"/>
		<path id="Path_15619" class="st4" d="M-64.7-59.8c-0.1,0-0.3-0.1-0.3-0.2l-3-5.4c-0.1-0.1-0.1-0.3,0-0.4c0.1-0.1,0.2-0.2,0.3-0.2
			h6.1c0.1,0,0.3,0.1,0.3,0.2c0.1,0.1,0.1,0.3,0,0.4l-3,5.4C-64.5-59.9-64.6-59.8-64.7-59.8z M-67.1-65.3l2.3,4.2l2.3-4.2H-67.1z"/>
	</g>
	<g id="Group_21960" transform="translate(137.687 73.637)">
		<rect id="Rectangle_2401" x="-67.3" y="-37" class="st2" width="6.2" height="27.4"/>
		<path id="Path_15620" class="st4" d="M-61.3-9.2h-6.2c-0.2,0-0.4-0.2-0.4-0.4V-37c0-0.2,0.2-0.4,0.4-0.4h6.2
			c0.2,0,0.4,0.2,0.4,0.4v27.4C-60.9-9.3-61-9.2-61.3-9.2z M-66.9-10h5.3v-26.6H-67L-66.9-10L-66.9-10z"/>
	</g>
	<g id="Group_21961" transform="translate(146.636 75.263)">
		<rect id="Rectangle_2402" x="-72.4" y="-38.2" class="st5" width="1.5" height="26.6"/>
	</g>
	<path id="Path_15621" class="st2" d="M44.1,73H29.3c-0.2,0-0.3-0.1-0.3-0.3V27.2c0-0.2,0.1-0.3,0.3-0.3h35.2c0.2,0,0.3,0.1,0.3,0.3
		v45.5c0,0.2-0.1,0.3-0.3,0.3h-14"/>
	<path id="Path_15622" class="st6" d="M44.7,70H32.6c-0.1,0-0.2-0.1-0.2-0.2V30.2c0-0.1,0.1-0.2,0.2-0.2h29c0.1,0,0.2,0.1,0.2,0.2
		v39.5c0,0.1-0.1,0.2-0.2,0.2l0,0H50.1"/>
	<g id="Group_21962" transform="translate(52.605 52.895)">
		<path id="Path_15623" class="st4" d="M10.4,21h-32c-1.6,0-2.8-1.3-2.8-2.8V-24c0-1.6,1.3-2.8,2.8-2.8h32c1.6,0,2.8,1.3,2.8,2.8
			v42.2C13.2,19.8,11.9,21,10.4,21z M-21.7-25.9c-1.1,0-1.9,0.9-1.9,1.9v42.2c0,1.1,0.9,1.9,1.9,1.9h32c1.1,0,1.9-0.9,1.9-1.9V-24
			c0-1.1-0.9-1.9-1.9-1.9L-21.7-25.9z"/>
	</g>
	<g id="Group_21963" transform="translate(60.394 59.344)">
		<path id="Path_15624" class="st4" d="M1.2,10.8h-11.5c-0.2,0-0.4-0.2-0.4-0.4c0-0.2,0.2-0.4,0.4-0.4l0,0H1v-39.1h-28.6V9.9h12
			c0.2,0,0.4,0.2,0.4,0.4c0,0.2-0.2,0.4-0.4,0.4l0,0h-12.2c-0.4,0-0.7-0.3-0.7-0.7v-39.5c0-0.4,0.3-0.7,0.7-0.7h29
			c0.4,0,0.7,0.3,0.7,0.7v39.5C1.9,10.5,1.6,10.8,1.2,10.8z"/>
	</g>
	<g id="Group_21964" transform="translate(75.279 52.895)">
		<path id="Rectangle_2403" class="st5" d="M-35.6-26.4h14.8l0,0v5.2c0,0.7-0.6,1.3-1.3,1.3h-12.1c-0.7,0-1.3-0.6-1.3-1.3V-26.4
			L-35.6-26.4z"/>
		<path id="Path_15625" class="st4" d="M-23.5-19.4h-9.4c-1.7,0-3.1-1.4-3.1-3.1v-3.9c0-0.2,0.2-0.4,0.4-0.4l0,0h14.8
			c0.2,0,0.4,0.2,0.4,0.4v0v3.9C-20.4-20.8-21.8-19.4-23.5-19.4z M-35.2-25.9v3.4c0,1.2,1,2.2,2.2,2.2h9.4c1.2,0,2.2-1,2.2-2.2v-3.4
			H-35.2z"/>
	</g>
	<g id="Group_21965" transform="translate(69.658 75.935)">
		<path id="Path_15626" class="st4" d="M-26.9-31.9h-5.8c-0.2,0-0.4-0.2-0.5-0.4v-5.8c0-0.2,0.2-0.4,0.5-0.4h5.8
			c0.2,0,0.4,0.2,0.4,0.4l0,0v5.8C-26.5-32.1-26.7-31.9-26.9-31.9L-26.9-31.9z M-32.3-32.8h4.9v-4.9h-4.9V-32.8z"/>
	</g>
	<g id="Group_21966" transform="translate(69.658 97.78)">
		<path id="Path_15627" class="st4" d="M-26.9-43h-5.8c-0.2,0-0.4-0.2-0.5-0.4v-5.8c0-0.2,0.2-0.4,0.5-0.4h5.8
			c0.2,0,0.4,0.2,0.4,0.4v5.8C-26.5-43.2-26.7-43-26.9-43z M-32.3-43.9h4.9v-4.9h-4.9V-43.9z"/>
	</g>
	<g id="Group_21967" transform="translate(69.658 119.357)">
		<path id="Path_15628" class="st4" d="M-26.9-54h-5.8c-0.2,0-0.4-0.2-0.5-0.4v-5.8c0-0.2,0.2-0.4,0.5-0.4h5.8
			c0.2,0,0.4,0.2,0.4,0.4v5.8C-26.5-54.2-26.7-54-26.9-54z M-32.3-54.9h4.9v-4.9h-4.9V-54.9z"/>
	</g>
	<g id="Group_21968" transform="translate(92.76 75.966)">
		<path id="Path_15629" class="st4" d="M-42.7-33.5L-42.7-33.5c-0.1,0-0.3-0.1-0.3-0.2l-1.8-2.1c-0.2-0.2-0.1-0.5,0.1-0.6
			c0.2-0.1,0.5-0.1,0.6,0l1.5,1.8l4.4-3.9c0.2-0.2,0.5-0.2,0.6,0c0.2,0.2,0.2,0.5,0,0.6c0,0,0,0,0,0l-4.7,4.2
			C-42.5-33.5-42.6-33.5-42.7-33.5z"/>
	</g>
	<g id="Group_21969" transform="translate(92.76 97.577)">
		<path id="Path_15630" class="st4" d="M-42.7-44.5L-42.7-44.5c-0.1,0-0.3-0.1-0.3-0.2l-1.8-2.1c-0.2-0.2-0.1-0.5,0-0.6
			c0.2-0.2,0.5-0.1,0.6,0l1.5,1.8l4.4-3.9c0.2-0.2,0.5-0.1,0.6,0c0.2,0.2,0.1,0.5,0,0.6l0,0l-4.7,4.2
			C-42.5-44.5-42.6-44.5-42.7-44.5z"/>
	</g>
	<g id="Group_21970" transform="translate(94.901 120.376)">
		<path id="Path_15631" class="st4" d="M-40.8-55.5c-0.1,0-0.2,0-0.3-0.1l-4.8-4.8c-0.2-0.2-0.2-0.5,0-0.6s0.5-0.2,0.6,0l4.8,4.8
			c0.2,0.2,0.2,0.5,0,0.6C-40.6-55.5-40.7-55.5-40.8-55.5L-40.8-55.5z"/>
	</g>
	<g id="Group_21971" transform="translate(94.501 119.973)">
		<path id="Path_15632" class="st4" d="M-45.4-54.9c-0.2,0-0.4-0.2-0.4-0.4c0-0.1,0-0.2,0.1-0.3l5.2-5.2c0.2-0.2,0.5-0.2,0.6,0
			c0.2,0.2,0.2,0.5,0,0.6l-5.2,5.2C-45.2-54.9-45.3-54.9-45.4-54.9z"/>
	</g>
	<circle id="Ellipse_1649" class="st4" cx="47.3" cy="69.7" r="0.6"/>
	<rect id="Rectangle_2404" x="37.4" y="38.3" class="st2" width="4.9" height="4.9"/>
	<rect id="Rectangle_2405" x="37.4" y="48.9" class="st2" width="4.9" height="4.9"/>
	<rect id="Rectangle_2406" x="37.4" y="59.6" class="st2" width="4.9" height="4.9"/>
	<g id="Group_21972" transform="translate(27.968 39.813)" class="st0">
		<circle id="Ellipse_1650" class="st2" cx="-9.6" cy="-17.8" r="2.2"/>
		<path id="Path_15633" class="st7" d="M-9.6-15.4c-0.6,0-1.2-0.3-1.7-0.7c-0.5-0.4-0.7-1.1-0.7-1.7c0-0.6,0.3-1.2,0.7-1.7
			c0.4-0.5,1.1-0.7,1.7-0.7c1.4,0,2.4,1.1,2.4,2.5c0,0.7-0.3,1.3-0.7,1.7C-8.3-15.6-8.9-15.4-9.6-15.4z M-9.6-19.7
			c-0.5,0-0.9,0.2-1.3,0.5c-0.7,0.7-0.7,1.9,0,2.6c0.7,0.7,1.9,0.7,2.6,0c0.7-0.7,0.7-1.9,0-2.6C-8.6-19.5-9.1-19.7-9.6-19.7z"/>
	</g>
	<g id="Group_21973" transform="translate(28.273 160.64)" class="st0">
		<circle id="Ellipse_1651" class="st2" cx="-9.7" cy="-79.2" r="2.2"/>
		<path id="Path_15634" class="st7" d="M-9.7-76.8c-1.4,0-2.4-1.1-2.4-2.5c0-0.7,0.3-1.3,0.7-1.7l0,0c0.4-0.5,1.1-0.7,1.7-0.7
			c1.4,0,2.4,1.1,2.4,2.5c0,0.7-0.3,1.3-0.7,1.7C-8.4-77-9-76.8-9.7-76.8z M-11-80.5c-0.7,0.7-0.7,1.9,0,2.6c0.7,0.7,1.9,0.7,2.6,0
			c0.7-0.7,0.7-1.9,0-2.6c-0.6-0.7-1.7-0.8-2.4-0.2C-10.9-80.6-10.9-80.6-11-80.5z"/>
	</g>
	<g id="Group_21974" transform="translate(167.476 169.153)" class="st0">
		<circle id="Ellipse_1652" class="st2" cx="-81.5" cy="-84.5" r="1.2"/>
		<path id="Path_15635" class="st7" d="M-81.5-83.1c-0.8,0-1.5-0.7-1.5-1.5s0.7-1.5,1.5-1.5s1.5,0.7,1.5,1.5c0,0.8-0.5,1.4-1.3,1.5
			C-81.4-83-81.5-83-81.5-83.1z M-81.5-85.4c-0.5,0-0.9,0.4-0.9,0.9c0,0.5,0.4,0.9,0.9,0.9c0.5,0,0.9-0.4,0.9-0.9
			C-80.6-85-81-85.4-81.5-85.4C-81.5-85.4-81.5-85.4-81.5-85.4L-81.5-85.4z"/>
	</g>
	<g id="Group_21975" transform="translate(38.343 171.594)" class="st0">
		<circle id="Ellipse_1653" class="st2" cx="-15.8" cy="-85.8" r="1.2"/>
		<path id="Path_15636" class="st7" d="M-15.8-84.3c-0.8,0-1.5-0.7-1.5-1.5c0-0.8,0.7-1.5,1.5-1.5c0.8,0,1.5,0.7,1.5,1.5
			C-14.3-85-14.9-84.3-15.8-84.3z M-15.8-86.7c-0.5,0-0.9,0.4-0.9,0.9c0,0.5,0.4,0.9,0.9,0.9c0.5,0,0.9-0.4,0.9-0.9
			C-14.9-86.3-15.3-86.7-15.8-86.7C-15.8-86.7-15.8-86.7-15.8-86.7L-15.8-86.7z"/>
	</g>
	<g id="Group_21976" transform="translate(32.238 102.449)" class="st0">
		<circle id="Ellipse_1654" class="st2" cx="-12.6" cy="-50.6" r="1.2"/>
		<path id="Path_15637" class="st7" d="M-12.6-49.1c-0.8,0-1.5-0.7-1.5-1.5c0-0.8,0.7-1.5,1.5-1.5c0.8,0,1.5,0.7,1.5,1.5l0,0
			C-11.1-49.8-11.8-49.1-12.6-49.1C-12.6-49.1-12.6-49.1-12.6-49.1z M-12.6-51.5c-0.5,0-0.9,0.4-0.9,0.9c0,0.5,0.4,0.9,0.9,0.9
			s0.9-0.4,0.9-0.9C-11.7-51.1-12.1-51.5-12.6-51.5C-12.6-51.5-12.6-51.5-12.6-51.5L-12.6-51.5z"/>
	</g>
	<g id="Group_21977" transform="translate(128.001 32.063)" class="st0">
		<circle id="Ellipse_1655" class="st2" cx="-61.3" cy="-14.6" r="1.3"/>
		<path id="Path_15638" class="st7" d="M-61.3-13c-0.8,0-1.5-0.6-1.6-1.4c-0.1-0.9,0.5-1.7,1.4-1.8c0,0,0,0,0,0l0,0
			c0.9-0.1,1.7,0.5,1.8,1.4c0.1,0.9-0.5,1.7-1.4,1.8l0,0H-61.3z M-61.4-15.6c-0.6,0.1-1,0.5-0.9,1.1c0.1,0.6,0.5,1,1.1,0.9
			c0.6-0.1,1-0.5,0.9-1.1c0,0,0,0,0,0C-60.3-15.3-60.8-15.7-61.4-15.6C-61.4-15.6-61.4-15.6-61.4-15.6z"/>
	</g>
</g>
</svg>
