<svg xmlns="http://www.w3.org/2000/svg" width="195.612" height="195.692" viewBox="0 0 195.612 195.692">
  <g id="No_folder_available" data-name="No folder available" transform="translate(0.003 0.221)">
    <path id="Path_16125" data-name="Path 16125" d="M186.5,146.925c5.324-10.265,12.765-24.611,7.042-37.728-5.234-11.975-16.431-11.482-47.278-29.478-22.948-13.391-34.427-20.085-40.252-31.242-9.28-17.749.1-30.01-11.5-40.686C83.862-1.989,66.645-.225,63.218.127c-21.833,2.257-35.009,18.6-42.834,28.3C5.475,46.92-3.382,72.775,1.215,94.456,5.166,113.1,9.52,121.575,9.52,121.575c3.349,6.514,6.545,10.441,7.042,17.687.438,6.537-1.811,8.607-1.917,15.328A40.633,40.633,0,0,0,20.4,174.04c11.9,19.952,56.6,18.387,77.307,17.687,21.086-.732,35.913-1.244,53.033-10.023C157.375,178.3,175.652,167.855,186.5,146.925Z" transform="translate(0 0)" fill="#f2f2f2"/>
    <ellipse id="Ellipse_1716" data-name="Ellipse 1716" cx="77.01" cy="10.085" rx="77.01" ry="10.085" transform="translate(24.879 175.3)" fill="#c5cbe1"/>
    <path id="Path_16126" data-name="Path 16126" d="M174.319,414H165.6c-4.284,0-7.633,2.535-7.633,5.555v7.292c0,3.02,3.349,5.618,7.633,5.618h71.8V414Z" transform="translate(-96.172 -252.173)" fill="#f5f7fc"/>
    <path id="Path_16127" data-name="Path 16127" d="M156.024,424.669c-4.284,0-7.633-2.6-7.633-5.618v-7.292c0-3.02,3.349-5.555,7.633-5.555h73.634a2.566,2.566,0,0,0,2.652-2.472v-.156a2.511,2.511,0,0,0-2.652-2.406H150.668a8.333,8.333,0,0,0-8.431,8.482V421.16a8.384,8.384,0,0,0,8.431,8.544h78.989a2.562,2.562,0,0,0,2.652-2.465v-.16a2.514,2.514,0,0,0-2.652-2.41Z" transform="translate(-86.593 -244.362)" fill="#e1e3ea"/>
    <path id="Path_16128" data-name="Path 16128" d="M158.511,424.284h-2.8c-4.284,0-7.754-2.449-7.754-5.477v-7.284c0-3.02,3.47-5.477,7.754-5.477h2.8V400.78h-8.157a8.634,8.634,0,0,0-8.634,8.634v11.509a8.638,8.638,0,0,0,8.634,8.638h8.157Z" transform="translate(-86.279 -244.125)" fill="#a4abbe"/>
    <path id="Path_16129" data-name="Path 16129" d="M174.319,266.74H165.6c-4.284,0-7.633,2.6-7.633,5.618v7.292c0,3.02,3.349,5.555,7.633,5.555h71.8V266.74Z" transform="translate(-96.172 -162.523)" fill="#f5f7fc"/>
    <path id="Path_16130" data-name="Path 16130" d="M156.024,277.367c-4.284,0-7.633-2.535-7.633-5.555V264.52c0-3.02,3.349-5.618,7.633-5.618h73.634a2.517,2.517,0,0,0,2.652-2.41v-.16a2.562,2.562,0,0,0-2.652-2.465H150.668a8.384,8.384,0,0,0-8.431,8.54v11.513a8.333,8.333,0,0,0,8.431,8.482h78.989A2.511,2.511,0,0,0,232.31,280v-.156a2.566,2.566,0,0,0-2.652-2.472Z" transform="translate(-86.593 -154.685)" fill="#d1d4e2"/>
    <path id="Path_16131" data-name="Path 16131" d="M158.511,277.138h-2.8c-4.284,0-7.754-2.449-7.754-5.477v-7.284c0-3.02,3.47-5.477,7.754-5.477h2.8v-5.27h-8.157a8.634,8.634,0,0,0-8.634,8.634v11.513a8.634,8.634,0,0,0,8.634,8.634h8.157Z" transform="translate(-86.279 -154.542)" fill="#a4abbe"/>
    <path id="Path_16132" data-name="Path 16132" d="M219.181,359.012H227.9c4.284,0,8.086-2.285,8.086-5.3v-7.292c0-3.02-3.8-5.3-8.086-5.3H156.54v17.9Z" transform="translate(-95.301 -207.799)" fill="#edf2fa"/>
    <path id="Path_16133" data-name="Path 16133" d="M220.932,332.4c4.284,0,8.086,2.285,8.086,5.3V345c0,3.02-3.8,5.3-8.086,5.3H147.3c-1.416,0-2.2,1.307-2.2,2.739v.16c0,1.412.782,2.711,2.2,2.711h78.989a8.988,8.988,0,0,0,8.884-8.791V335.6a8.988,8.988,0,0,0-8.884-8.79H147.3c-1.416,0-2.2,1.3-2.2,2.711v.16c0,1.412.782,2.738,2.2,2.738h73.634Z" transform="translate(-88.337 -199.093)" fill="#a4abbe"/>
    <path id="Path_16134" data-name="Path 16134" d="M331.78,332.158h2.844c4.346,0,7.867,2.472,7.867,5.524v7.367c0,3.051-3.521,5.528-7.867,5.528H331.78V355.9h8.278a8.744,8.744,0,0,0,8.763-8.724V335.55a8.744,8.744,0,0,0-8.763-8.72H331.78Z" transform="translate(-201.986 -199.105)" fill="#d1d4e2"/>
    <rect id="Rectangle_2895" data-name="Rectangle 2895" width="66.091" height="85.757" rx="10.36" transform="translate(38.783 13.026)" fill="#a3b1cd"/>
    <rect id="Rectangle_2896" data-name="Rectangle 2896" width="66.091" height="85.757" rx="10.36" transform="translate(94.495 13.026)" fill="#a3b1cd"/>
    <path id="Path_16135" data-name="Path 16135" d="M250.41,222.334a7.918,7.918,0,0,1-7.918,7.918h0a7.918,7.918,0,0,1-7.922-7.918v-7.656a7.918,7.918,0,0,1,7.922-7.918h0a7.918,7.918,0,0,1,7.918,7.918Z" transform="translate(-142.805 -126.008)" fill="#a3b1cd"/>
    <rect id="Rectangle_2897" data-name="Rectangle 2897" width="113.068" height="77.561" transform="translate(42.605 17.395)" fill="#dadfef"/>
    <path id="Path_16136" data-name="Path 16136" d="M171.681,105.018c-19.752-5.645-33.609-5.645-53.361,0V30.687c19.764-8.775,33.558-8.536,53.361,0Z" transform="translate(-72.034 -14.865)" fill="#fff"/>
    <path id="Path_16137" data-name="Path 16137" d="M282.966,24.775a22.154,22.154,0,0,0-2.453,1.428c-3.259,2.246-8.215,6.862-12.691,15.2a93.076,93.076,0,0,0-7.887,21.63,411.59,411.59,0,0,0-5.086,42.4c19.529-5.477,32.471-5.414,52.688.172V31.277C297.159,26.817,292.762,24.673,282.966,24.775Z" transform="translate(-155.152 -15.215)" fill="#fff"/>
    <path id="Path_16138" data-name="Path 16138" d="M253.809,40.4c-.293.125-.512.243-.81.391,0,24.783-.11,49.563-.11,74.35.2-.059.481-.11.481-.164V40.748C253.371,40.635,253.715,40.513,253.809,40.4Z" transform="translate(-153.958 -24.73)" fill="#fff"/>
    <path id="Path_16139" data-name="Path 16139" d="M280.151,26.208a17.605,17.605,0,0,1,2.414-1.428,74.21,74.21,0,0,0-28.007,6.111c-.1.113-.438.231-.438.348v74.526a.469.469,0,0,0,.168-.325c.192-3.177.344-22.819,5.148-42.4a93.445,93.445,0,0,1,7.938-21.63C271.846,33.081,276.892,28.453,280.151,26.208Z" transform="translate(-154.707 -15.221)" fill="#dadfef"/>
    <circle id="Ellipse_1717" data-name="Ellipse 1717" cx="2.296" cy="2.296" r="2.296" transform="translate(187.205 72.02)" fill="#e8e7f4"/>
    <circle id="Ellipse_1718" data-name="Ellipse 1718" cx="2.801" cy="2.801" r="2.801" transform="translate(170.566 3.957)" fill="#e8e7f4"/>
    <circle id="Ellipse_1719" data-name="Ellipse 1719" cx="1.311" cy="1.311" r="1.311" transform="translate(20.909 187.995)" fill="#e8e7f4"/>
    <circle id="Ellipse_1720" data-name="Ellipse 1720" cx="1.854" cy="1.854" r="1.854" transform="translate(5.022 140.165)" fill="#e8e7f4"/>
    <circle id="Ellipse_1721" data-name="Ellipse 1721" cx="1.854" cy="1.854" r="1.854" transform="translate(44.432 145.607)" fill="#fff"/>
    <circle id="Ellipse_1722" data-name="Ellipse 1722" cx="1.311" cy="1.311" r="1.311" transform="translate(29.543 51.845)" fill="#fff"/>
    <circle id="Ellipse_1723" data-name="Ellipse 1723" cx="1.311" cy="1.311" r="1.311" transform="translate(154.362 154.902)" fill="#fff"/>
    <circle id="Ellipse_1724" data-name="Ellipse 1724" cx="1.311" cy="1.311" r="1.311" transform="translate(171.134 56.18)" fill="#e8e7f4"/>
    <circle id="Ellipse_1725" data-name="Ellipse 1725" cx="1.854" cy="1.854" r="1.854" transform="translate(159.331 115.382)" fill="#d1d4e2"/>
    <circle id="Ellipse_1726" data-name="Ellipse 1726" cx="1.854" cy="1.854" r="1.854" transform="translate(12.235 97.328)" fill="#dadfef"/>
    <path id="Path_16140" data-name="Path 16140" d="M472.78,442.131a1.721,1.721,0,1,0,1.721-1.721A1.721,1.721,0,0,0,472.78,442.131Z" transform="translate(-287.825 -268.251)" fill="#e8e7f4"/>
    <path id="Path_16141" data-name="Path 16141" d="M44.21,39.791a1.721,1.721,0,1,0,1.721-1.721,1.721,1.721,0,0,0-1.721,1.721Z" transform="translate(-26.916 -23.311)" fill="#e8e7f4"/>
    <path id="Path_16142" data-name="Path 16142" d="M270.66,14.941a1.721,1.721,0,1,0,1.721-1.721A1.721,1.721,0,0,0,270.66,14.941Z" transform="translate(-164.776 -8.183)" fill="#eae9ef"/>
  </g>
</svg>
