<?xml version="1.0" encoding="utf-8"?>
<!-- Generator: Adobe Illustrator 24.2.0, SVG Export Plug-In . SVG Version: 6.00 Build 0)  -->
<svg version="1.1" id="Layer_1" xmlns="http://www.w3.org/2000/svg" xmlns:xlink="http://www.w3.org/1999/xlink" x="0px" y="0px"
	 viewBox="0 0 100 100" style="enable-background:new 0 0 100 100;" xml:space="preserve">
<style type="text/css">
	.st0NoHomework{fill:#EAE9EF;}
	.st1NoHomework{fill:#F8F9F9;}
	.st2NoHomework{fill:#BFC5D0;}
	.st3NoHomework{fill:#C8C7C7;}
	.st4NoHomework{fill:#D8D5D4;}
	.st5NoHomework{fill:#F5F4F4;}
	.st6NoHomework{fill:#A4ABBE;}
	.st7NoHomework{fill:#D1D4E2;}
	.st8NoHomework{fill:#B7B7B7;}
	.st9NoHomework{fill:#FFFFFF;}
	.st10NoHomework{fill:#F3A784;}
	.st11NoHomework{fill:#FFF5F3;}
	.st12NoHomework{fill:#FEEEEC;}
	.st13NoHomework{fill:#F4F4F4;}
	.st14NoHomework{fill:#B1B1B1;}
	.st15NoHomework{fill:#FEEAE7;}
	.st16NoHomework{fill:#F3F3F3;}
</style>
<g>
	<g id="Layer_1_1_">
		<path class="st0NoHomework" d="M8.7,0h82.7c4.8,0,8.7,3.9,8.7,8.7v82.7c0,4.8-3.9,8.7-8.7,8.7H8.7C3.9,100,0,96.1,0,91.3V8.7
			C0,3.9,3.9,0,8.7,0z"/>
		
			<image style="overflow:visible;opacity:0.75;enable-background:new    ;" width="1127" height="1517" xlink:href="CB1A5AD6.png"  transform="matrix(4.800000e-02 0 0 4.800000e-02 23.464 13.636)">
		</image>
		<path class="st1NoHomework" d="M29.7,16.1l40.4-0.2c2,0,3.7,1.6,3.7,3.7l0.4,59.2c0,2-1.6,3.7-3.7,3.7l-40.4,0.2c-2,0-3.7-1.6-3.7-3.7
			l-0.4-59.2C26.1,17.8,27.7,16.1,29.7,16.1z"/>
		
			<rect x="33.4" y="25.6" transform="matrix(1 -5.934085e-03 5.934085e-03 1 -0.1676 0.2981)" class="st0NoHomework" width="33.4" height="5.6"/>
		<path class="st2NoHomework" d="M34.2,44.3c-0.3,0-0.5-0.2-0.5-0.5s0.2-0.5,0.5-0.5l32.7-0.2l0,0c0.3,0,0.5,0.2,0.5,0.5
			c0,0.3-0.2,0.5-0.5,0.5L34.2,44.3L34.2,44.3z"/>
		<path class="st2NoHomework" d="M33.6,37.2c-0.3,0-0.5-0.2-0.5-0.5s0.2-0.5,0.5-0.5L66.3,36l0,0c0.3,0,0.5,0.2,0.5,0.5c0,0.3-0.2,0.5-0.5,0.5
			L33.6,37.2z"/>
		<path class="st2NoHomework" d="M34.8,52.2c-0.3,0-0.5-0.2-0.5-0.5s0.2-0.5,0.5-0.5l16.3-0.1l0,0c0.3,0,0.5,0.2,0.5,0.5
			c0,0.3-0.2,0.5-0.5,0.5l0,0L34.8,52.2L34.8,52.2z"/>
		<polygon class="st3NoHomework" points="13.1,69.6 12.8,69 5,74.8 8.4,80.1 16.2,73.8 		"/>
		<polygon class="st4NoHomework" points="5.3,74.9 8.3,79.9 8.5,79.8 5.9,75.1 		"/>
		<path class="st5NoHomework" d="M12.9,69.4l-7.6,5.5c0,0,0,0.1,0.2,0.2c0.1,0,0.2,0.1,0.3,0.1l8-5.3c-0.2,0-0.4-0.1-0.6-0.2
			C13.1,69.6,13,69.5,12.9,69.4z"/>
		<path class="st6NoHomework" d="M14,69.6L5.7,75l2.7,5l0.4,0.7l8.3-6c0,0-0.9-1.3-1.4-2c-0.5-0.8-1.6-2.6-1.6-2.7
			C14.1,69.9,14.1,69.7,14,69.6z"/>
		<polygon class="st3NoHomework" points="91.1,37 91.3,36.5 97.8,41.4 95,45.9 88.5,40.5 		"/>
		<polygon class="st4NoHomework" points="97.6,41.5 95.1,45.7 94.9,45.6 97.1,41.7 		"/>
		<path class="st5NoHomework" d="M91.2,36.9l6.4,4.6c0,0,0,0.1-0.2,0.2c-0.1,0-0.2,0.1-0.3,0l-6.7-4.4c0.2,0,0.4-0.1,0.5-0.2
			C91,37,91.1,37,91.2,36.9z"/>
		<path class="st7NoHomework" d="M90.3,37.1l7,4.5L95,45.8l-0.4,0.6l-7-5c0,0,0.7-1.1,1.2-1.7c0.4-0.6,1.3-2.2,1.4-2.3
			C90.2,37.3,90.2,37.2,90.3,37.1z"/>
		
			<image style="overflow:visible;opacity:0.2;enable-background:new    ;" width="833" height="1301" xlink:href="CB1A5ADA.png"  transform="matrix(4.800000e-02 0 0 4.800000e-02 6.184 11.676)">
		</image>
		<path class="st8NoHomework" d="M19.3,29.5c-0.3,0.3-0.3,0.7-0.1,1c0.3,0.5,1.7,2.1,3.2,1.8c0.1,0-2.4-2.9-2.4-2.9L19.3,29.5z"/>
		<path class="st9NoHomework" d="M22,61.5c0,0-2.1-1.4-2.7-1c-0.7,0.5-4.2,5.2-3.7,7.1c0.2,0.8,1,0,2.4-2c0.8-1.1,2.2-1.7,3.5-1.5L22,61.5z"/>
		<path class="st9NoHomework" d="M26.9,63.6l-2.5-1c0,0-5,6.4-3.9,6.9c0.8,0.4,1.1-0.1,2.5-2.1c1.4-1.9,3.6-1.3,3.6-1.3L26.9,63.6z"/>
		<polygon class="st10NoHomework" points="37.8,43.5 39.2,49.5 29.5,48.5 		"/>
		<path class="st6NoHomework" d="M29.5,48.7c0,0,8.2-0.8,9.3-1.3c0,0,4,15.4,1.5,17.6c-2.6,2.1-9.3,0.7-9.3,0.7l1.2-3.7l3.7-0.8l-0.9-6
			l-0.3,0.1L29.5,48.7z"/>
		<path class="st6NoHomework" d="M20.9,61c0,0-1.9,1.2-0.9,3.1c0,0,7.9,4.4,11.1,2.6c1.8-1,3-6.8,3.7-11.6l4-7.7c0,0-2.4,0.5-3.2,0.6
			c-1.5,0.2-6.1,0.7-6.1,0.7s-0.4,12.8-1.2,13.3C27.5,62.4,20.9,61,20.9,61z"/>
		<path class="st11NoHomework" d="M29,32.8c0,0,4.2-5.4,4.8-6.7c0.7-1.3,1.8-5.7,3.8-7.7l-1.4-2.1c0,0,0.6-0.5,1.2,0.4c0,0,1.1-3.4,1.5-3.4
			c0.4,0-0.3,2.5-0.3,2.5s1.2-2.4,1.6-2.4c0.4,0-0.7,2.6-0.7,2.6s1.4-2.2,1.7-2s-1.1,1.9-1.1,1.9s1.5-1.2,1.8-0.9
			c0.2,0.3-1.5,1.4-1.5,1.4s0,1.4-1,2.2c0,0-1.3,6.5-3.1,8.8l-5.5,7.9L29,32.8z"/>
		<path class="st11NoHomework" d="M23.5,36.1c0,0-3.9,5.6-5,6.6c-1.1,1-4.9,3.4-6.2,5.9l-2.5-0.8c0,0-0.3,0.7,0.8,1c0,0-2.9,2-2.8,2.4
			s2.3-1.1,2.3-1.1s-2,1.8-1.8,2.2c0.1,0.4,2.3-1.5,2.3-1.5s-1.7,2-1.4,2.2c0.3,0.2,1.5-1.6,1.5-1.6s-0.7,1.8-0.4,2s0.9-1.9,0.9-1.9
			s1.4-0.4,1.8-1.6c0,0,5.5-3.2,7.1-5.6l6.4-6.3L23.5,36.1z"/>
		<path class="st7NoHomework" d="M24.9,33.9l-2,2.7l1,2.5c0,0,3.2,5.2,3.7,6.5c0.9,2,0.5,5.4,0.5,5.4s3.9-0.9,7.4-1.6c3.5-0.7,4.5-2,4.5-2
			s-4.7-9.8-7.3-12.3s-3.5-3.3-3.5-3.3l-3,1.2L24.9,33.9z"/>
		<path class="st7NoHomework" d="M32.1,34.7l2.2-1.9c0,0,0.1-1.7-3.1-3.2L28,32.2L32.1,34.7z"/>
		<path class="st7NoHomework" d="M23.4,36.3c-1.3,0.4-3.2,4.2-3.5,4.2c0,0,2.2,2.5,3.5,2.4C23.4,42.9,28.3,34.8,23.4,36.3z"/>
		<path class="st11NoHomework" d="M27.8,33.3c0,0-2.2-1.2-2.2-1.7c0-0.1,0.2-0.4,0.3-0.6c0.2-1.2-2.1-3.8-3.3-4.3c-1-0.3-0.6-0.5-2.3,0.9
			s-0.3,3.1,0.7,4c0.9,0.8,1.9,1.1,2.7,1l1.5,2.4L27.8,33.3z"/>
		<path class="st11NoHomework" d="M24.6,35.9c-0.5-0.8,0-2.1,1.2-2.8c1.2-0.7,2.5-0.6,3,0.3c0.5,0.8-0.5,2.4-1.2,2.8S25.1,36.7,24.6,35.9z"/>
		<path class="st12NoHomework" d="M21,31.6c0,0-0.6,0.1-0.6,0.5c0,0.4,1.2,0.2,1.6-0.1L21,31.6z"/>
		<path class="st8NoHomework" d="M21.3,31.9c-0.2-0.7-1.1-1.2-1.2-1.9c0.4-0.1,0.6-0.6,0.3-1c-0.1-0.2-0.2-0.3-0.3-0.4
			c-0.1-0.1-0.2-0.4-0.1-0.5c0.1,0,0.1-0.1,0.2-0.1c0.6-0.1,1.6-0.1,2.1-0.4c0.5-0.3,1-0.7,0.8-1.3c-0.1-0.5-0.7-0.9-1.2-1.2
			c-0.3-0.1-1.1-0.5-1.3-0.4c-0.4,0.1-0.4,0.7-0.4,1.2c-0.3-0.2-0.7-0.1-1,0.1c-0.2,0.3-0.3,0.6-0.3,1c-0.1,0.4-0.1,0.7-0.3,1
			s-0.5,0.5-0.4,0.8c0.1,0.4,0.7,0.5,1,0.8c-0.1-0.1,0,0.5,0,0.6c0.2,0.3,0.5,0.4,0.7,0.6C20.4,31.3,20.7,31.7,21.3,31.9z"/>
		<path class="st12NoHomework" d="M23.7,32.6c0,0,0.9-0.1,1.4-0.5c-0.3,0.4-0.7,0.7-1.2,0.8L23.7,32.6z"/>
		<polygon class="st9NoHomework" points="83.1,91 75,86 81.6,74.3 89.1,79.1 		"/>
		<path class="st6NoHomework" d="M76.7,24.7c0.5-1.2,0.7-2.6,1.4-3.7c1.1-1.6,3.1-2.4,4-4.1c0.3-0.7,0.5-1.5,0.5-2.3c0-1.6-0.5-3.3-1.7-4.3
			c-1.4-1.2-3.5-1.1-5.2-0.4c-1.7,0.8-2.9,2.2-4,3.7s-2,3.1-3.3,4.4c-0.9,1-2,1.8-2.7,3c-1.9,3.2,0.1,7.2,3.4,8.4
			C72,30.5,75.6,27.3,76.7,24.7z"/>
		
			<image style="overflow:visible;opacity:0.2;enable-background:new    ;" width="715" height="1437" xlink:href="CB1A5ADD.png"  transform="matrix(4.800000e-02 0 0 4.800000e-02 55.072 9.22)">
		</image>
		<path class="st11NoHomework" d="M80.9,47.2c-0.3,0.2,0,0.1-0.4,0.4c0.1,1.1,1.1,1.7,1.1,1.7s0,1.7,0.4,1.7s0.1-1.6,0.1-1.6s0.7,1.7,0.9,1.6
			c0.3-0.1-0.7-2-0.7-2s1.4,1.9,1.6,1.6c0.2-0.3-1-2.2-1-2.2s1.5,1.6,1.7,1.3c0.2-0.3-1.8-2.5-1.8-2.5c0.9,0,0.9-0.6,0.9-0.6
			l-2.2,0.1C81.2,46.9,81.1,47.1,80.9,47.2z"/>
		<path class="st11NoHomework" d="M59.5,15.1c-0.4,0.1-0.1-0.1-0.6,0.1c-0.8-0.7-0.7-1.9-0.7-1.9s-1.4-1.1-1.1-1.3s1.4,0.9,1.4,0.9
			s-1-1.5-0.7-1.7C58.1,11.1,59,13,59,13s-0.7-2.2-0.3-2.2c0.4,0,1.1,2.1,1.1,2.1s-0.4-2.1,0-2.1c0.3,0,0.8,2.8,0.8,2.8
			c0.8-0.6,1.3-0.2,1.3-0.2l-1.6,1.6C60,15,59.8,15.1,59.5,15.1z"/>
		<path class="st11NoHomework" d="M68.9,24.4c-0.7-0.1-2.8,1.3-2.3,4c0,0.2,0.3,0.7,0.4,1c0.1,0.3-0.7,1.3-0.7,1.3l1.9,0.6
			c0.1-0.6-0.1-1.4,0.6-1.7c0.2-0.1,0.5-0.2,0.7-0.3c0.6-0.3,0.9-1,1.2-1.6c0.2-0.4,0.3-0.9,0.3-1.4C71.1,25.1,70,24.6,68.9,24.4z"
			/>
		<path class="st11NoHomework" d="M65,32c0-1,0.3-1.4,1.4-1.4c1,0,2.4,0.4,2.4,1.4c0,1-0.7,2.3-1.8,2.3C66,34.3,65,33,65,32z"/>
		<path class="st11NoHomework" d="M65.9,30.1c0,0-3.3-3.4-3.9-6.7c-0.7-3.3-1.8-8.7-1.8-8.7l-1.2,0.3c0,0-0.6,7.3,0,8.4s3.9,8.9,3.9,10.9
			L65.9,30.1z"/>
		<path class="st11NoHomework" d="M71.7,31.8c0,0,1.1,0.2,2.8,4c1.7,3.9,6.9,11,6.9,11l-0.8,0.8c0,0-5.1-3.8-6.1-6.1c-1-2.3-2.2-5.2-2.8-5
			C71.1,36.6,68.6,33.2,71.7,31.8z"/>
		<path class="st6NoHomework" d="M62.9,35l-1.5-4.2c0,0,0.2-2,3.2-2.7l1.7,2.4L62.9,35z"/>
		<path class="st6NoHomework" d="M71.2,31.4c0,0,1.8,0.2,3.3,3.3c0,0-1.6,2.2-2.8,2.3C71.7,37.1,67.3,33.4,71.2,31.4z"/>
		<path class="st11NoHomework" d="M66.3,69.3c0,0,2.6,5.3,2.9,4.3c0.3-1,0.2-3.3,0-3.7C69,69.6,68,68.2,68,68.2L66.3,69.3z"/>
		<path class="st7NoHomework" d="M66.1,44.2l-2.4-0.9c0,0-7,12.4-7,15.9c0,3.4,9.7,10.3,9.7,10.3l1.6-1.3c0,0-4.6-6.7-6.2-8.4
			c-0.8-0.9,4.9-5.1,5.8-9.2S66.1,44.2,66.1,44.2z"/>
		<path class="st11NoHomework" d="M80.3,66.6c0,0,4.8,3.6,4.6,2.6c-0.2-1-1.4-3-1.7-3.3c-0.3-0.2-2-1.1-2-1.1L80.3,66.6z"/>
		<path class="st7NoHomework" d="M72.5,48.6l-7-4.1c0,0-0.3,14.1,1.4,17.2c1.7,3.1,13.6,5,13.6,5l0.8-1.9c0,0-7.3-4.4-9.6-5.2
			C69.4,58.7,72.5,48.6,72.5,48.6z"/>
		<path class="st7NoHomework" d="M68.3,41.7c0,0,5.2,1.8,4.2,6.8c-1,5-2.6,6-2.6,6l-3-4.9l-3-6.4l3-0.4L68.3,41.7z"/>
		<path class="st6NoHomework" d="M65.9,30.1c-2.4,1.5-3.8,4.1-3.8,6.9c0,0,0.5,5.5,1.3,6.7c0.9,0.2,1.9,0.2,2.9,0c1.7-0.3,3.3-1.5,3.3-1.5
			l1.3-6.7l1-3.9l-0.5-0.2l-2.9-0.3c0,0,0.4,4.3-2.8,2.2c-0.7-0.4,0.8-2.7,0.8-2.7L65.9,30.1z"/>
		
			<image style="overflow:visible;opacity:3.000000e-02;enable-background:new    ;" width="361" height="364" xlink:href="CB1A5ADE.png"  transform="matrix(4.800000e-02 0 0 4.800000e-02 50.056 2.956)">
		</image>
		<polygon class="st13NoHomework" points="63.5,12 55.6,16.6 51.1,8.1 58.6,4 		"/>
		<path class="st14NoHomework" d="M80.5,17.5c-0.2,0.1-0.3,0.3-0.5,0.5c-0.4,0.5-0.7,1-1,1.5c-0.4,0.8-0.8,1.6-1,2.5c-0.3,1-0.5,2.1-0.9,3.1
			c-0.2,0.5-0.5,1-0.8,1.4c-0.3,0.4-0.7,0.8-1,1.1c-0.7,0.6-1.4,1-2.2,1.3c-0.6,0.2-1.1,0.3-1.7,0.4c-0.2,0-0.4,0-0.7,0.1
			c0.2,0,0.4,0.1,0.7,0c0.6,0,1.2-0.1,1.8-0.3c0.9-0.3,1.7-0.7,2.4-1.3c0.4-0.3,0.8-0.7,1.1-1.2c0.3-0.5,0.6-1,0.9-1.5
			c0.4-1.1,0.6-2.2,0.9-3.2c0.2-0.9,0.5-1.7,0.9-2.5c0.3-0.5,0.6-1,0.9-1.5C80.3,17.8,80.4,17.7,80.5,17.5z"/>
		<path class="st14NoHomework" d="M70.7,12c-0.1,0-0.1,0.8-0.6,1.9c-0.3,0.7-0.6,1.3-1,1.9c-0.2,0.4-0.5,0.7-0.8,1c-0.3,0.3-0.6,0.7-0.9,1
			c-0.6,0.7-1,1.5-1.5,2.3c-0.4,0.6-0.7,1.3-0.9,2c-0.1,0.5-0.2,1-0.1,1.5c0,0.2,0.1,0.4,0.2,0.5c0-0.2,0-0.4,0-0.5
			c0-0.5,0.1-1,0.2-1.4c0.2-0.7,0.5-1.3,0.9-2c0.4-0.8,0.9-1.5,1.4-2.2c0.3-0.4,0.6-0.7,0.9-1c0.3-0.3,0.6-0.7,0.8-1
			c0.4-0.6,0.7-1.3,1-2c0.2-0.5,0.3-1,0.3-1.5C70.8,12.4,70.8,12.2,70.7,12z"/>
		<path class="st15NoHomework" d="M68.8,29.6c-0.4,0.1-0.8,0-1.2-0.1c0.2,0.2,0.5,0.3,0.8,0.4C68.6,29.8,68.7,29.7,68.8,29.6z"/>
		<path class="st15NoHomework" d="M70.6,27.8c0,0,0.5-0.4,0.7,0s-1.1,0.6-1.1,0.6L70.6,27.8z"/>
		<path class="st6NoHomework" d="M82.4,65.4c0.3,0.1,0.6,0.3,0.9,0.5c0.2,0.2,1.9,3.1,1.7,3.5c-0.2,0.4-1.9-0.9-1.9-0.9S84.5,68.7,82.4,65.4"
			/>
		<path class="st6NoHomework" d="M68.7,69.2c0,0,0.5,0.5,0.6,0.8c0.1,0.2,0.2,3.6-0.1,3.8c-0.4,0.2-1.3-1.6-1.3-1.6S69,73.2,68.7,69.2"/>
		<rect x="97.4" y="72.5" class="st3NoHomework" width="0.9" height="0.9"/>
		<rect x="92.1" y="80.7" class="st6NoHomework" width="2.2" height="2.2"/>
		<rect x="95.8" y="28.9" class="st6NoHomework" width="0.9" height="0.9"/>
		<rect x="92.7" y="94.1" class="st7NoHomework" width="0.9" height="0.9"/>
		<rect x="47" y="94.9" transform="matrix(0.4965 -0.868 0.868 0.4965 -59.054 89.923)" class="st6NoHomework" width="1.9" height="1.9"/>
		<rect x="3.2" y="63.2" transform="matrix(0.4965 -0.868 0.868 0.4965 -53.6096 35.9289)" class="st6NoHomework" width="1.9" height="1.9"/>
		<rect x="21.7" y="93.4" class="st7NoHomework" width="1.1" height="1.1"/>
		<rect y="59.3" class="st16NoHomework" width="1.1" height="1.1"/>
		<rect x="56" y="80.3" transform="matrix(0.7793 -0.6266 0.6266 0.7793 -38.2763 53.4301)" class="st7NoHomework" width="1.5" height="1.5"/>
		
			<rect x="73.4" y="94.2" transform="matrix(0.7793 -0.6266 0.6266 0.7793 -43.1558 67.4362)" class="st7NoHomework" width="1.5" height="1.5"/>
		
			<rect x="93.7" y="53.6" transform="matrix(0.7793 -0.6266 0.6266 0.7793 -13.1945 71.1501)" class="st7NoHomework" width="1.5" height="1.5"/>
		
			<rect x="17.4" y="15.2" transform="matrix(0.7779 -0.6283 0.6283 0.7779 -5.9341 14.7574)" class="st7NoHomework" width="1.1" height="1.1"/>
		
			<rect x="10.5" y="86.2" transform="matrix(0.2478 -0.9688 0.9688 0.2478 -75.797 76.3302)" class="st7NoHomework" width="1.5" height="1.5"/>
		<rect x="79.3" y="0.6" class="st6NoHomework" width="0.9" height="0.9"/>
		<rect x="94.9" y="9.4" class="st7NoHomework" width="0.9" height="0.9"/>
		<rect x="38.3" y="13.3" transform="matrix(0.4965 -0.868 0.868 0.4965 7.5656 40.5353)" class="st6NoHomework" width="0.9" height="0.9"/>
		<rect x="0.7" y="16.1" transform="matrix(0.4965 -0.868 0.868 0.4965 -13.7457 9.3467)" class="st3NoHomework" width="0.9" height="0.9"/>
		<rect x="3.9" y="41.6" transform="matrix(0.4965 -0.868 0.868 0.4965 -34.3485 24.9321)" class="st7NoHomework" width="0.9" height="0.9"/>
		<rect x="56" y="0.3" transform="matrix(0.7793 -0.6266 0.6266 0.7793 11.8562 35.7765)" class="st7NoHomework" width="1.5" height="1.5"/>
		
			<rect x="82.8" y="10.9" transform="matrix(0.7793 -0.6266 0.6266 0.7793 11.1403 54.9368)" class="st7NoHomework" width="1.5" height="1.5"/>
		<rect x="11.9" y="4.2" transform="matrix(0.2478 -0.9688 0.9688 0.2478 4.6188 16.4389)" class="st7NoHomework" width="2.1" height="2.1"/>
	</g>
</g>
</svg>
