<svg id="Layer_1" data-name="Layer 1" xmlns="http://www.w3.org/2000/svg" viewBox="0 0 500 500"><defs><style>.cls-1noSessionAttendance{fill:#eae9ef;}.cls-2noSessionAttendance{fill:#d1d4e2;}.cls-3noSessionAttendance{fill:#dadfef;}.cls-4noSessionAttendance{fill:#a4abbe;}.cls-5noSessionAttendance{fill:#fff;}.cls-6noSessionAttendance{fill:#edf2fa;}.cls-7noSessionAttendance{fill:#a3b1cd;}.cls-8noSessionAttendance{fill:#a3b2ce;}</style></defs><rect class="cls-1noSessionAttendance" width="500" height="500" rx="43.34"/><circle class="cls-2noSessionAttendance" cx="436.43" cy="342.62" r="3.85"/><circle class="cls-2noSessionAttendance" cx="223.55" cy="50.58" r="3.85"/><circle class="cls-2noSessionAttendance" cx="55.2" cy="391.5" r="3.85"/><circle class="cls-2noSessionAttendance" cx="381.52" cy="467.28" r="4.99"/><circle class="cls-2noSessionAttendance" cx="271.51" cy="446.36" r="4.99"/><circle class="cls-3noSessionAttendance" cx="293.38" cy="29.17" r="5.88"/><circle class="cls-4noSessionAttendance" cx="182.42" cy="467.28" r="7.61"/><circle class="cls-4noSessionAttendance" cx="397.64" cy="35.05" r="5.38"/><rect class="cls-3noSessionAttendance" x="24.03" y="48.58" width="10.15" height="10.15" rx="5.08" transform="translate(-29.42 36.3) rotate(-45)"/><rect class="cls-2noSessionAttendance" x="44.47" y="166.03" width="6.88" height="6.88" rx="3.44" transform="translate(-38.05 323.19) rotate(-135)"/><rect class="cls-2noSessionAttendance" x="398.45" y="202.13" width="12.76" height="12.76" rx="6.38" transform="translate(543.65 642.2) rotate(-135)"/><rect class="cls-5noSessionAttendance" x="32.18" y="262.91" width="6.88" height="6.88" rx="3.44" transform="translate(-127.53 479.88) rotate(-135)"/><rect class="cls-5noSessionAttendance" x="404.81" y="121.3" width="6.88" height="6.88" rx="3.44" transform="translate(608.73 501.61) rotate(-135)"/><rect class="cls-5noSessionAttendance" x="459.05" y="474.43" width="6.88" height="6.88" rx="3.44" transform="translate(451.62 1142.8) rotate(-135)"/><rect class="cls-5noSessionAttendance" x="480.35" y="178.5" width="4.86" height="4.86" rx="2.43" transform="translate(301.85 663.72) rotate(-90)"/><rect class="cls-5noSessionAttendance" x="67.49" y="472.27" width="6.88" height="6.88" rx="3.44" transform="translate(-215.29 862.23) rotate(-135)"/><rect class="cls-5noSessionAttendance" x="112.59" y="37.05" width="6.88" height="6.88" rx="3.44" transform="translate(169.44 151.16) rotate(-135)"/><circle class="cls-4noSessionAttendance" cx="19.27" cy="342.37" r="2.82"/><circle class="cls-4noSessionAttendance" cx="459.41" cy="258.47" r="2.82"/><rect class="cls-5noSessionAttendance" x="108.65" y="57.03" width="282.7" height="385.95" rx="13.26" transform="translate(1.02 -1.02) rotate(0.23)"/><circle class="cls-6noSessionAttendance" cx="166.11" cy="186.51" r="9.77"/><path class="cls-7noSessionAttendance" d="M165.46,198.4h1.29a21.08,21.08,0,0,1,21.08,21.08v0a0,0,0,0,1,0,0H144.39a0,0,0,0,1,0,0v0A21.08,21.08,0,0,1,165.46,198.4Z"/><circle class="cls-6noSessionAttendance" cx="166.11" cy="271.11" r="9.77"/><path class="cls-7noSessionAttendance" d="M165.46,283h1.29a21.08,21.08,0,0,1,21.08,21.08v0a0,0,0,0,1,0,0H144.39a0,0,0,0,1,0,0v0A21.08,21.08,0,0,1,165.46,283Z"/><circle class="cls-6noSessionAttendance" cx="166.11" cy="355.38" r="9.77"/><path class="cls-7noSessionAttendance" d="M165.46,367.27h1.29a21.08,21.08,0,0,1,21.08,21.08v0a0,0,0,0,1,0,0H144.39a0,0,0,0,1,0,0v0A21.08,21.08,0,0,1,165.46,367.27Z"/><path class="cls-8noSessionAttendance" d="M336.79,213.1h-.07a4.29,4.29,0,0,1-3.06-1.35l-6.85-7.27a4.3,4.3,0,0,1,6.26-5.89l3.81,4,12.89-12.89a4.3,4.3,0,0,1,6.08,6.07l-16,16A4.25,4.25,0,0,1,336.79,213.1Z"/><path class="cls-8noSessionAttendance" d="M336.79,298.85h-.07a4.33,4.33,0,0,1-3.06-1.35l-6.85-7.27a4.3,4.3,0,0,1,6.26-5.89l3.81,4.05,12.89-12.89a4.3,4.3,0,1,1,6.08,6.07l-16,16A4.25,4.25,0,0,1,336.79,298.85Z"/><path class="cls-8noSessionAttendance" d="M336.79,383.12h-.07a4.33,4.33,0,0,1-3.06-1.35l-6.85-7.28a4.29,4.29,0,1,1,6.26-5.88l3.81,4.05,12.89-12.9a4.3,4.3,0,1,1,6.08,6.08l-16,16A4.29,4.29,0,0,1,336.79,383.12Z"/><rect class="cls-1noSessionAttendance" x="200.38" y="182.13" width="107.62" height="37.33" rx="10.04"/><rect class="cls-1noSessionAttendance" x="200.38" y="267.88" width="107.62" height="37.33" rx="10.04"/><rect class="cls-1noSessionAttendance" x="200.38" y="353.63" width="107.62" height="37.33" rx="10.04"/><rect class="cls-1noSessionAttendance" x="136.51" y="101.7" width="231.14" height="46.56" rx="7.48" transform="translate(0.51 -1.03) rotate(0.23)"/><circle class="cls-5noSessionAttendance" cx="166.11" cy="124.98" r="9.95"/><path class="cls-5noSessionAttendance" d="M348.38,129.27H203.09a4.3,4.3,0,0,1,0-8.59H348.38a4.3,4.3,0,1,1,0,8.59Z"/></svg>
