<svg xmlns="http://www.w3.org/2000/svg" xmlns:xlink="http://www.w3.org/1999/xlink" width="207.408" height="207.408" viewBox="0 0 207.408 207.408">
  <defs>
    <filter id="Rectangle_2880" x="58.966" y="38" width="118" height="139" filterUnits="userSpaceOnUse">
      <feOffset dy="3" input="SourceAlpha"/>
      <feGaussianBlur stdDeviation="3" result="blur"/>
      <feFlood flood-opacity="0.161"/>
      <feComposite operator="in" in2="blur"/>
      <feComposite in="SourceGraphic"/>
    </filter>
  </defs>
  <g id="No_Student_Practice_Reports" data-name="No Student Practice Reports" transform="translate(-1474.034 -463)">
    <rect id="Rectangle_2815" data-name="Rectangle 2815" width="207.408" height="207.408" rx="43.34" transform="translate(1474.034 463)" fill="#eae9ef"/>
    <circle id="Ellipse_1726" data-name="Ellipse 1726" cx="1.597" cy="1.597" r="1.597" transform="translate(1644.809 476.647)" fill="#d1d4e2"/>
    <circle id="Ellipse_1727" data-name="Ellipse 1727" cx="1.597" cy="1.597" r="1.597" transform="translate(1495.334 623.803)" fill="#d1d4e2"/>
    <circle id="Ellipse_1728" data-name="Ellipse 1728" cx="2.07" cy="2.07" r="2.07" transform="translate(1634.107 642.001)" fill="#d1d4e2"/>
    <circle id="Ellipse_1729" data-name="Ellipse 1729" cx="2.439" cy="2.439" r="2.439" transform="translate(1603.058 478.244)" fill="#dadfef"/>
    <circle id="Ellipse_1730" data-name="Ellipse 1730" cx="3.157" cy="3.157" r="3.157" transform="translate(1553.55 650.522)" fill="#a4abbe"/>
    <rect id="Rectangle_2830" data-name="Rectangle 2830" width="2.555" height="2.555" rx="1.278" transform="translate(1484.831 483.981)" fill="#dadfef"/>
    <rect id="Rectangle_2832" data-name="Rectangle 2832" width="2.854" height="2.854" rx="1.427" transform="translate(1482.028 581.849) rotate(-135)" fill="#fff"/>
    <rect id="Rectangle_2834" data-name="Rectangle 2834" width="2.854" height="2.854" rx="1.427" transform="translate(1665.881 663.246) rotate(-135)" fill="#fff"/>
    <rect id="Rectangle_2835" data-name="Rectangle 2835" width="2.854" height="2.854" rx="1.427" transform="translate(1522.163 481.815) rotate(-135)" fill="#fff"/>
    <rect id="Rectangle_2865" data-name="Rectangle 2865" width="6.85" height="6.85" transform="translate(1490.37 503.34)" fill="#a4abbe"/>
    <g id="attendance" transform="translate(1470.266 466.04)">
      <g transform="matrix(1, 0, 0, 1, 3.77, -3.04)" filter="url(#Rectangle_2880)">
        <rect id="Rectangle_2880-2" data-name="Rectangle 2880" width="100" height="121" rx="7" transform="translate(67.97 44)" fill="#fff"/>
      </g>
      <path id="Path_17660" data-name="Path 17660" d="M255.45,30.637h58.4V41.722h-58.4Z" transform="translate(-162.247 0)" fill="#dadfef"/>
      <g id="Group_23626" data-name="Group 23626" transform="translate(91.746 58.216)">
        <rect id="Rectangle_2872" data-name="Rectangle 2872" width="32.735" height="9.135" rx="4.568" fill="#bfc5d0"/>
        <rect id="Rectangle_2873" data-name="Rectangle 2873" width="32.735" height="9.135" rx="4.568" transform="translate(0 22.838)" fill="#bfc5d0"/>
        <rect id="Rectangle_2874" data-name="Rectangle 2874" width="32.735" height="9.135" rx="4.568" transform="translate(0 45.677)" fill="#bfc5d0"/>
        <rect id="Rectangle_2875" data-name="Rectangle 2875" width="32.735" height="9.135" rx="4.568" transform="translate(0 68.515)" fill="#bfc5d0"/>
      </g>
      <path id="Path_17674" data-name="Path 17674" d="M332.2,150.654h-.031a3.426,3.426,0,0,1-2.435-1.048l-4.485-4.651a3.426,3.426,0,1,1,4.932-4.756l2.063,2.139,6.669-6.669a3.426,3.426,0,0,1,4.845,4.845l-9.135,9.135A3.426,3.426,0,0,1,332.2,150.654Z" transform="translate(-194.017 -81.399)" fill="#dadfef"/>
      <path id="Path_17675" data-name="Path 17675" d="M332.2,233.324h-.031a3.426,3.426,0,0,1-2.435-1.048l-4.485-4.651a3.426,3.426,0,0,1,4.932-4.756l2.063,2.141,6.668-6.669a3.426,3.426,0,0,1,4.845,4.845l-9.135,9.135a3.426,3.426,0,0,1-2.423,1Z" transform="translate(-194.017 -140.469)" fill="#dadfef"/>
      <path id="Path_17676" data-name="Path 17676" d="M332.2,307.991h-.031a3.426,3.426,0,0,1-2.435-1.048l-4.485-4.651a3.426,3.426,0,1,1,4.932-4.756l2.063,2.141,6.669-6.669a3.426,3.426,0,0,1,4.845,4.845l-9.135,9.135A3.426,3.426,0,0,1,332.2,307.991Z" transform="translate(-194.017 -193.82)" fill="#dadfef"/>
      <rect id="Rectangle_2879" data-name="Rectangle 2879" width="13.703" height="13.703" rx="6.852" transform="translate(131.333 124.448)" fill="#dadfef"/>
    </g>
    <rect id="Rectangle_2866" data-name="Rectangle 2866" width="7.85" height="7.85" rx="3.925" transform="translate(1660.37 535.34)" fill="#a4abbe"/>
  </g>
</svg>
