<svg xmlns="http://www.w3.org/2000/svg" width="501.498" height="501" viewBox="0 0 501.498 501">
  <g id="No_submissions_found" transform="translate(0.5 0.21)">
    <g id="Layer_1_1_" transform="translate(-0.5 -0.21)">
      <path id="Rectangle_2792" d="M105.316,0H394.68C453.355,0,501,47.642,501,105.816V395.18A105.836,105.836,0,0,1,395.182,501H105.316C47.142,501.5-.5,453.855-.5,395.682V105.816C-.5,47.642,47.142,0,105.316,0Z" transform="translate(0.5)" fill="#eae9ef"/>
      <rect id="Rectangle_2793" width="368.743" height="240.787" transform="translate(76.287 103.48)" fill="none" opacity="0.2"/>
      <path id="Rectangle_2794" d="M49.3,21.7H327.13a33.6,33.6,0,0,1,33.6,33.6V204.747a33.6,33.6,0,0,1-33.6,33.6H49.3a33.6,33.6,0,0,1-33.6-33.6V54.8C15.7,36.745,30.745,21.7,49.3,21.7Z" transform="translate(65.543 87.125)" fill="#d1d4e2"/>
      <path id="Path_16080" d="M376.363,66.471H62.426a3.831,3.831,0,0,1-2.507-1L9.769,17.324C6.258,14.816,8.264,9.3,11.775,9.3H424.507c4.012,0,5.516,5.015,2.507,8.024L378.871,64.966a2.758,2.758,0,0,1-2.507,1.5Z" transform="translate(34.363 37.339)" fill="#d1d4e2"/>
      <path id="Path_16081" d="M350.771,53.082H61.406c-1,0-1.5-.5-2.507-1l-46.138-35.1c-1.5-1-1.5-3.009-.5-4.513a2.412,2.412,0,0,1,3.009-1H395.4c2.006,0,3.51,1,3.51,3.009a5.377,5.377,0,0,1-1,3.009l-44.633,35.1a3.758,3.758,0,0,1-2.508.5Z" transform="translate(48.923 45.212)" fill="#f9fcfe"/>
      <path id="Rectangle_2795" d="M49.088,26.8H296.327a29.642,29.642,0,0,1,29.588,29.588V98.514A29.642,29.642,0,0,1,296.327,128.1H49.088A29.642,29.642,0,0,1,19.5,98.514V56.388A29.642,29.642,0,0,1,49.088,26.8Z" transform="translate(80.8 107.601)" fill="#f9fcfe"/>
      <path id="Rectangle_2796" d="M61.56,58.4h43.63a20.119,20.119,0,0,1,20.06,20.06V99.523a20.119,20.119,0,0,1-20.06,20.06H61.56A20.119,20.119,0,0,1,41.5,99.523V78.46A20.119,20.119,0,0,1,61.56,58.4Z" transform="translate(169.129 234.475)" fill="#f9fcfe"/>
      <rect id="Rectangle_2797" width="168.527" height="207.658" transform="translate(175.434 190.547)" fill="none" opacity="0.2"/>
      <path id="Rectangle_2798" d="M66.593,39h82.246a31.249,31.249,0,0,1,31.093,31.093V191.455a31.249,31.249,0,0,1-31.093,31.093H66.593A31.249,31.249,0,0,1,35.5,191.455V70.093A30.928,30.928,0,0,1,66.593,39Z" transform="translate(145.039 156.584)" fill="#dadfef"/>
      <rect id="Rectangle_2799" width="95.066" height="121.474" transform="translate(211.925 354.515)" fill="none" opacity="0.2"/>
      <path id="Path_16082" d="M50.132,74.752,106.3,84.782a3.813,3.813,0,0,1,3.009,4.012v.5L94.766,137.94c-.5,1.5-2.006,3.009-3.51,3.009H49.631a5.692,5.692,0,0,1-5.516-6.018V79.265C43.112,76.758,47.625,74.25,50.132,74.752Z" transform="translate(179.052 299.867)" fill="#fff5f3"/>
      <rect id="Rectangle_2800" width="41.123" height="20.06" transform="translate(229.184 436.804)" fill="#fff5f3"/>
      <path id="Rectangle_2801" d="M53.821,75.5H89.929a6.856,6.856,0,0,1,7.021,7.021h0a6.856,6.856,0,0,1-7.021,7.021H53.821A6.856,6.856,0,0,1,46.8,82.521h0A6.856,6.856,0,0,1,53.821,75.5Z" transform="translate(190.408 303.131)" fill="#fff5f3"/>
      <path id="Path_16083" d="M51.316,75.9l2.507,9.528L45.8,107l1-32.1Z" transform="translate(186.393 300.722)" fill="#feedeb"/>
      <path id="Rectangle_2802" d="M51.325,71.7h0a8.788,8.788,0,0,1,8.525,8.525v64.192a8.788,8.788,0,0,1-8.525,8.525h0a8.788,8.788,0,0,1-8.525-8.525V80.225A8.453,8.453,0,0,1,51.325,71.7Z" transform="translate(174.348 287.874)" fill="#fff5f3"/>
      <path id="Rectangle_2803" d="M49.218,72.5h0a5.794,5.794,0,0,1,6.018,6.018v1.5a5.794,5.794,0,0,1-6.018,6.018h0A5.794,5.794,0,0,1,43.2,80.022v-1.5A5.794,5.794,0,0,1,49.218,72.5Z" transform="translate(175.954 291.086)" fill="#feedeb"/>
      <path id="Rectangle_2804" d="M46.562,47.5h7.021A5.794,5.794,0,0,1,59.6,53.518v5.516a5.794,5.794,0,0,1-6.018,6.018H46.562a5.794,5.794,0,0,1-6.018-6.018V53.518C40.042,50.007,43.051,47.5,46.562,47.5Z" transform="translate(165.07 190.711)" fill="#fff"/>
      <path id="Rectangle_2805" d="M51.618,47.5h7.021a5.794,5.794,0,0,1,6.018,6.018v5.516a5.794,5.794,0,0,1-6.018,6.018H51.618A5.794,5.794,0,0,1,45.6,59.034V53.518A5.794,5.794,0,0,1,51.618,47.5Z" transform="translate(185.59 190.711)" fill="#fff"/>
      <path id="Rectangle_2806" d="M56.818,47.5h7.021a5.794,5.794,0,0,1,6.018,6.018v5.516a5.794,5.794,0,0,1-6.018,6.018H56.818A5.794,5.794,0,0,1,50.8,59.034V53.518A5.794,5.794,0,0,1,56.818,47.5Z" transform="translate(206.468 190.711)" fill="#fff"/>
      <path id="Rectangle_2807" d="M61.918,47.5h7.021a5.794,5.794,0,0,1,6.018,6.018v5.516a5.794,5.794,0,0,1-6.018,6.018H61.918A5.794,5.794,0,0,1,55.9,59.034V53.518A6.1,6.1,0,0,1,61.918,47.5Z" transform="translate(226.945 190.711)" fill="#fff"/>
      <rect id="Rectangle_2808" width="80.182" height="35.05" transform="translate(216.967 446.942)" fill="none" opacity="0.2"/>
      <rect id="Rectangle_2809" width="56.168" height="10.531" transform="translate(222.163 452.351)" fill="#fff"/>
      <circle id="Ellipse_1724" cx="4.513" cy="4.513" r="4.513" transform="translate(61.684 352.553)" fill="#d1d4e2"/>
      <circle id="Ellipse_1725" cx="6.519" cy="6.519" r="6.519" transform="translate(469.402 42.627)" fill="#d1d4e2"/>
      <circle id="Ellipse_1726" cx="6.519" cy="6.519" r="6.519" transform="translate(482.441 195.584)" fill="#d1d4e2"/>
      <circle id="Ellipse_1727" cx="6.519" cy="6.519" r="6.519" transform="translate(447.837 293.878)" fill="#d1d4e2"/>
      <circle id="Ellipse_1728" cx="5.015" cy="5.015" r="5.015" transform="translate(61.183 20.06)" fill="#d1d4e2"/>
      <circle id="Ellipse_1729" cx="5.015" cy="5.015" r="5.015" transform="translate(33.6 194.581)" fill="#d1d4e2"/>
      <circle id="Ellipse_1730" cx="5.015" cy="5.015" r="5.015" transform="translate(224.169 29.087)" fill="#d1d4e2"/>
      <circle id="Ellipse_1731" cx="3.51" cy="3.51" r="3.51" transform="translate(362.583 397.186)" fill="#fff"/>
      <circle id="Ellipse_1732" cx="3.51" cy="3.51" r="3.51" transform="translate(398.189 39.117)" fill="#fff"/>
      <circle id="Ellipse_1733" cx="3.51" cy="3.51" r="3.51" transform="translate(14.543 307.418)" fill="#fff"/>
      <circle id="Ellipse_1734" cx="3.51" cy="3.51" r="3.51" transform="translate(184.05 450.345)" fill="#fff"/>
      <circle id="Ellipse_1735" cx="3.51" cy="3.51" r="3.51" transform="translate(38.615 117.852)" fill="#fff"/>
      <circle id="Ellipse_1736" cx="3.51" cy="3.51" r="3.51" transform="translate(446.333 137.912)" fill="#fff"/>
      <circle id="Ellipse_1737" cx="3.51" cy="3.51" r="3.51" transform="translate(298.893 7.522)" fill="#fff"/>
      <circle id="Ellipse_1738" cx="2.507" cy="2.507" r="2.507" transform="translate(486.453 350.547)" fill="#fff"/>
      <rect id="Rectangle_2810" width="187.252" height="166.606" transform="translate(311.283 332.22)" fill="none" opacity="0.75"/>
      <path id="Rectangle_2811" d="M76.3,108.186l91.273-37.612A18.246,18.246,0,0,1,191.648,80.6l23.069,55.666a18.246,18.246,0,0,1-10.03,24.072l-91.273,37.612a18.246,18.246,0,0,1-24.072-10.03L66.273,132.257A18.246,18.246,0,0,1,76.3,108.186Z" transform="translate(262.709 277.466)" fill="#f8f9f9"/>
      <rect id="Rectangle_2812" width="11.534" height="67.702" transform="translate(423.9 366.855) rotate(-22.359)" fill="#eae9ef"/>
      <path id="Path_16084" d="M106.338,139.851a2.605,2.605,0,0,1-2.006-1L79.258,77.665a1.91,1.91,0,1,1,3.51-1.5h0l25.075,61.183a1.832,1.832,0,0,1-1,2.508Z" transform="translate(319.935 300.966)" fill="#bfc5d0"/>
      <path id="Path_16085" d="M108.938,138.551a2.605,2.605,0,0,1-2.006-1L81.858,76.365a1.91,1.91,0,0,1,3.51-1.5h0l25.075,61.183a1.832,1.832,0,0,1-1,2.507Z" transform="translate(330.373 295.746)" fill="#bfc5d0"/>
      <path id="Path_16086" d="M90.9,110.659a2.606,2.606,0,0,1-2.006-1L76.358,79.065a1.91,1.91,0,1,1,3.51-1.5l12.537,30.591a1.832,1.832,0,0,1-1,2.508Z" transform="translate(308.291 306.587)" fill="#bfc5d0"/>
      <rect id="Rectangle_2813" width="160.141" height="179.698" transform="translate(290.438 319.975)" fill="none" opacity="0.75"/>
      <path id="Rectangle_2814" d="M62.086,164.7,98.7,77.439c3.51-9.027,14.042-13.039,23.069-9.528l53.66,22.066c9.027,3.51,13.039,14.042,9.528,23.069l-37.111,87.261c-3.51,9.027-14.042,13.039-23.069,9.528l-53.66-22.066C62.587,183.757,58.074,173.225,62.086,164.7Z" transform="translate(245.834 267.591)" fill="#f8f9f9"/>
      <rect id="Rectangle_2815" width="11.033" height="65.195" transform="matrix(0.385, -0.923, 0.923, 0.385, 352.646, 361.653)" fill="#eae9ef"/>
      <path id="Path_16087" d="M128.639,104.541h-.5L68.961,79.968a1.91,1.91,0,1,1,1.5-3.51h0l58.675,24.573a1.832,1.832,0,0,1,1,2.508c0,1-.5,1.5-1.5,1Z" transform="translate(274.565 306.185)" fill="#bfc5d0"/>
      <path id="Path_16088" d="M129.137,101.941h-.5L69.961,77.368a1.91,1.91,0,1,1,1.5-3.51L130.14,98.431a1.832,1.832,0,0,1,1,2.507,3.8,3.8,0,0,1-2.006,1Z" transform="translate(278.58 295.746)" fill="#bfc5d0"/>
      <path id="Path_16089" d="M98.05,95.405h-.5L67.961,82.868a1.91,1.91,0,0,1,1.5-3.51L99.053,91.393a1.832,1.832,0,0,1,1,2.507c-.5,1-1,1.5-2.006,1.5Z" transform="translate(270.55 317.829)" fill="#bfc5d0"/>
      <rect id="Rectangle_2816" width="138.038" height="107.79" transform="translate(34.393 381.322)" fill="none" opacity="0.75"/>
      <path id="Rectangle_2817" d="M9,140.887l.5-48.144A14.554,14.554,0,0,1,24.045,78.2l78.234.5a14.554,14.554,0,0,1,14.543,14.543l-.5,48.144a14.554,14.554,0,0,1-14.543,14.543l-78.234-.5A14.554,14.554,0,0,1,9,140.887Z" transform="translate(38.642 313.971)" fill="#f8f9f9"/>
      <rect id="Rectangle_2818" width="54.162" height="9.027" transform="translate(63.189 457.878) rotate(-89.656)" fill="#eae9ef"/>
      <path id="Path_16090" d="M19.1,135.966h0a1.33,1.33,0,0,1-1.5-1.5L18.1,81.8a1.33,1.33,0,0,1,1.5-1.5h0a1.33,1.33,0,0,1,1.5,1.5l-.5,52.657a1.6,1.6,0,0,1-1.5,1.5Z" transform="translate(73.171 322.403)" fill="#bfc5d0"/>
      <path id="Path_16091" d="M16.8,136.066h0a1.33,1.33,0,0,1-1.5-1.5h0L15.8,81.9a1.33,1.33,0,0,1,1.5-1.5h0a1.33,1.33,0,0,1,1.5,1.5h0l-.5,52.657A1.33,1.33,0,0,1,16.8,136.066Z" transform="translate(63.937 322.804)" fill="#bfc5d0"/>
      <path id="Path_16092" d="M21.7,114.888h0a1.33,1.33,0,0,1-1.5-1.5h0V86.8a1.33,1.33,0,0,1,1.5-1.5h0a1.33,1.33,0,0,1,1.5,1.5h0v26.579A1.6,1.6,0,0,1,21.7,114.888Z" transform="translate(83.61 342.477)" fill="#bfc5d0"/>
      <path id="Path_16093" d="M139.7,59.715H42.408a2.507,2.507,0,1,1,0-5.015H139.2a2.369,2.369,0,0,1,2.507,2.508c0,1-1,2.507-2.006,2.507Z" transform="translate(162.705 219.619)" fill="#fff"/>
      <path id="Path_16094" d="M139.7,63.315H42.408a2.507,2.507,0,1,1,0-5.015H139.2a2.369,2.369,0,0,1,2.507,2.507,2.294,2.294,0,0,1-2.006,2.507Z" transform="translate(162.705 234.073)" fill="#fff"/>
      <path id="Path_16095" d="M139.7,67.315H42.408a2.507,2.507,0,1,1,0-5.015H139.2a2.369,2.369,0,0,1,2.507,2.507,2.294,2.294,0,0,1-2.006,2.507Z" transform="translate(162.705 250.133)" fill="#fff"/>
      <path id="Path_16096" d="M139.7,71.315H42.408a2.507,2.507,0,1,1,0-5.015H139.2a2.369,2.369,0,0,1,2.507,2.508,2.294,2.294,0,0,1-2.006,2.507Z" transform="translate(162.705 266.193)" fill="#fff"/>
      <path id="Path_16097" d="M49.927,92.1H114.62a8.989,8.989,0,0,1,9.027,9.027h0v29.087H40.9V101.127A8.989,8.989,0,0,1,49.927,92.1Z" transform="translate(166.72 369.779)" fill="#a4abbe"/>
    </g>
  </g>
</svg>
