<svg id="Layer_1" data-name="Layer 1" xmlns="http://www.w3.org/2000/svg" viewBox="0 0 100 100"><defs></defs><g id="Ellipse_391" data-name="Ellipse 391"><path class="cls-1pageAbout" d="M45.86,41.15A20.08,20.08,0,1,1,65.94,21.08,20.09,20.09,0,0,1,45.86,41.15Zm0-33.48a13.41,13.41,0,1,0,13.4,13.41A13.42,13.42,0,0,0,45.86,7.67Z"/></g><g id="Path_1051" data-name="Path 1051"><path class="cls-1pageAbout" d="M75.35,49.55A23.69,23.69,0,0,0,66,51.45a43.91,43.91,0,0,0-20.08-4.83h-.07A44.6,44.6,0,0,0,1.3,91.18a3.34,3.34,0,1,0,6.67,0A37.93,37.93,0,0,1,45.86,53.29h0a37.83,37.83,0,0,1,13.31,2.43,24.36,24.36,0,1,0,16.14-6.17Zm0,42.17A17.75,17.75,0,1,1,93.1,74,17.78,17.78,0,0,1,75.35,91.72Z"/></g><g id="Rectangle_830" data-name="Rectangle 830"><rect class="cls-1pageAbout" x="72.98" y="71.45" width="5.47" height="15.66" rx="2.74"/></g><g id="Ellipse_393" data-name="Ellipse 393"><circle class="cls-1pageAbout" cx="75.9" cy="64.4" r="3.03"/></g></svg>
