<svg xmlns="http://www.w3.org/2000/svg" width="168.092" height="49.077" viewBox="0 0 168.092 49.077">
    <defs>
        <style>
            .prefix__cls-6PageLogo{fill:#629e51}.prefix__cls-7PageLogo{fill:#4192a5}.prefix__cls-8PageLogo{fill:#414141}
        </style>
    </defs>
    <g id="prefix__Edusense_logo_with_text" data-name="Edusense logo with text" transform="translate(-5.08 -1.693)">
        <circle id="prefix__Ellipse_1657" cx="5.584" cy="5.584" r="5.584" data-name="Ellipse 1657" transform="translate(25.468 12.665)" style="fill:#faa44b"/>
        <circle id="prefix__Ellipse_1658" cx="5.584" cy="5.584" r="5.584" data-name="Ellipse 1658" transform="translate(5.08 28.377)" style="fill:#f47a4f"/>
        <path id="prefix__Path_15621" d="M123.931 28.8a10.493 10.493 0 1 1-.422-20.982 3.12 3.12 0 0 0 .844 0 3.075 3.075 0 0 0-.341-6.121h-.159A16.6 16.6 0 1 0 123.4 34.9c.177.007.355.009.533.009s.357 0 .534-.009a3.076 3.076 0 0 0-.534-6.1z" data-name="Path 15621" transform="translate(-91.868)" style="fill:#8cc178"/>
        <path id="prefix__Path_15622" d="M15.987 168.173a10.493 10.493 0 1 1 .422 20.982 3.121 3.121 0 0 0-.844 0 3.075 3.075 0 0 0 .342 6.12h.16a16.6 16.6 0 1 0 .455-33.206q-.265-.009-.534-.009c-.179 0-.356 0-.533.009a3.076 3.076 0 0 0 .534 6.1z" data-name="Path 15622" transform="translate(-7.056 -144.522)" style="fill:#66b5d1"/>
        <path id="prefix__Path_15623" d="M262.524 59.339a3.12 3.12 0 0 1-.844 0c.14-.006.281-.009.422-.009s.281.003.422.009z" data-name="Path 15623" transform="translate(-231.247 -51.942)" style="fill:#fff"/>
        <path id="prefix__Path_15624" d="M253.183 4.784a3.075 3.075 0 0 1-2.653 3.046 3.12 3.12 0 0 1-.843 0 3.075 3.075 0 0 1 .343-6.12h.16a3.076 3.076 0 0 1 2.993 3.074z" class="prefix__cls-6PageLogo" data-name="Path 15624" transform="translate(-218.045 -.015)"/>
        <path id="prefix__Path_15625" d="M253.207 279.055a3.075 3.075 0 0 1-2.54 3.029 3.082 3.082 0 0 1-1.066 0 3.076 3.076 0 1 1 3.608-3.029z" class="prefix__cls-6PageLogo" data-name="Path 15625" transform="translate(-218.069 -247.186)"/>
        <path id="prefix__Path_15626" d="M19.062 164.964a3.075 3.075 0 0 1-2.653 3.046 3.121 3.121 0 0 1-.843 0 3.075 3.075 0 0 1 .342-6.12h.16a3.075 3.075 0 0 1 2.994 3.074z" class="prefix__cls-7PageLogo" data-name="Path 15626" transform="translate(-7.056 -144.369)"/>
        <path id="prefix__Path_15627" d="M19.087 439.225a3.076 3.076 0 0 1-2.541 3.029 3.084 3.084 0 0 1-1.066 0 3.076 3.076 0 1 1 3.608-3.029z" class="prefix__cls-7PageLogo" data-name="Path 15627" transform="translate(-7.081 -391.53)"/>
        <g id="prefix__EduSense" transform="translate(44.378 16.445)">
            <g id="prefix__Group_22044" data-name="Group 22044">
                <path id="prefix__Path_15628" d="M406.607 163.278v4.915h6.719v2.9h-6.719v5.1h7.521v3.035H402.82V160.27h11.308v3.008z" class="prefix__cls-8PageLogo" data-name="Path 15628" transform="translate(-402.82 -159.354)"/>
                <path id="prefix__Path_15629" d="M547.7 156.7a5 5 0 0 1 1.921 2.39V151h3.76v19.879h-3.758v-3.116a5.081 5.081 0 0 1-1.923 2.4 5.581 5.581 0 0 1-3.21.9 6.394 6.394 0 0 1-3.384-.913 6.173 6.173 0 0 1-2.351-2.646 10.213 10.213 0 0 1 0-8.138 6.164 6.164 0 0 1 2.351-2.646 6.394 6.394 0 0 1 3.384-.914 5.636 5.636 0 0 1 3.21.894zm-4.875 3.572a4.478 4.478 0 0 0-1.075 3.17 4.42 4.42 0 0 0 1.075 3.157 4.071 4.071 0 0 0 5.681-.028 4.335 4.335 0 0 0 1.115-3.129 4.383 4.383 0 0 0-1.115-3.156 3.744 3.744 0 0 0-2.832-1.169 3.7 3.7 0 0 0-2.848 1.155z" class="prefix__cls-8PageLogo" data-name="Path 15629" transform="translate(-524.563 -151)"/>
                <path id="prefix__Path_15630" d="M741.1 201.59v14.881h-3.787v-3.009a4.743 4.743 0 0 1-1.948 2.351 5.79 5.79 0 0 1-3.129.846 5.27 5.27 0 0 1-4.11-1.693 6.79 6.79 0 0 1-1.53-4.727v-8.649h3.76v8.219a3.886 3.886 0 0 0 .913 2.753 3.212 3.212 0 0 0 2.47.98 3.374 3.374 0 0 0 2.605-1.047 4.278 4.278 0 0 0 .967-3.009v-7.9z" class="prefix__cls-8PageLogo" data-name="Path 15630" transform="translate(-694.609 -196.592)"/>
                <path id="prefix__Path_15631" d="M915.122 174.271a5.2 5.2 0 0 1-2.149 1.96 7.477 7.477 0 0 1-3.465.739 8.995 8.995 0 0 1-3.6-.685 6.077 6.077 0 0 1-2.538-1.976 5.685 5.685 0 0 1-1.087-3.009h4.029a3.076 3.076 0 0 0 .927 1.921 2.9 2.9 0 0 0 2.108.765 2.448 2.448 0 0 0 1.813-.63 2.213 2.213 0 0 0 .63-1.623 2.123 2.123 0 0 0-.511-1.464 3.73 3.73 0 0 0-1.289-.927q-.78-.348-2.149-.805a21.283 21.283 0 0 1-2.9-1.169 5.362 5.362 0 0 1-1.921-1.68 4.817 4.817 0 0 1-.79-2.874 4.669 4.669 0 0 1 1.76-3.853 7.241 7.241 0 0 1 4.661-1.41 7.382 7.382 0 0 1 4.795 1.45 5.472 5.472 0 0 1 2.027 3.867h-4.085a2.851 2.851 0 0 0-.86-1.68 2.671 2.671 0 0 0-1.907-.658 2.515 2.515 0 0 0-1.693.551 2.247 2.247 0 0 0-.15 2.981 3.791 3.791 0 0 0 1.263.9 20.45 20.45 0 0 0 2.082.779 27.6 27.6 0 0 1 2.964 1.209 5.229 5.229 0 0 1 1.947 1.692 4.974 4.974 0 0 1 .806 2.955 5.146 5.146 0 0 1-.718 2.674z" class="prefix__cls-8PageLogo" data-name="Path 15631" transform="translate(-852.886 -156.903)"/>
                <path id="prefix__Path_15632" d="M1075.313 208.034h-10.906a4.108 4.108 0 0 0 1.075 2.929 3.454 3.454 0 0 0 2.47.94 3.584 3.584 0 0 0 2.188-.644 2.855 2.855 0 0 0 1.115-1.747h4a6.4 6.4 0 0 1-1.262 2.794 6.6 6.6 0 0 1-2.484 1.931 8.5 8.5 0 0 1-7.24-.225 6.515 6.515 0 0 1-2.632-2.646 9.251 9.251 0 0 1 0-8.125 6.41 6.41 0 0 1 2.632-2.646 8.027 8.027 0 0 1 3.868-.914 7.829 7.829 0 0 1 3.853.914 6.443 6.443 0 0 1 2.552 2.512 7.379 7.379 0 0 1 .768 4.928zm-4.634-4.431a3.635 3.635 0 0 0-2.538-.941 3.721 3.721 0 0 0-2.579.941 3.846 3.846 0 0 0-1.155 2.766h7.225a3.331 3.331 0 0 0-.953-2.769z" class="prefix__cls-8PageLogo" data-name="Path 15632" transform="translate(-995.699 -194.87)"/>
                <path id="prefix__Path_15633" d="M1250.114 201.12a6.838 6.838 0 0 1 1.531 4.754v8.649h-3.76V206.3a3.889 3.889 0 0 0-.913-2.754 3.242 3.242 0 0 0-2.5-.98 3.34 3.34 0 0 0-2.579 1.047 4.284 4.284 0 0 0-.967 3.009v7.9h-3.787v-14.879h3.787v2.981a4.743 4.743 0 0 1 1.948-2.348 5.794 5.794 0 0 1 3.129-.847 5.255 5.255 0 0 1 4.111 1.691z" class="prefix__cls-8PageLogo" data-name="Path 15633" transform="translate(-1154.706 -194.645)"/>
                <path id="prefix__Path_15634" d="M1422.013 201.014a5.935 5.935 0 0 1 2.041 3.656h-3.546a2.949 2.949 0 0 0-.967-1.719 2.907 2.907 0 0 0-1.96-.644 2.256 2.256 0 0 0-1.5.456 1.535 1.535 0 0 0-.536 1.236 1.253 1.253 0 0 0 .43.993 3.083 3.083 0 0 0 1.074.593q.645.215 1.854.51a19.123 19.123 0 0 1 2.754.79 4.559 4.559 0 0 1 1.826 1.316 3.632 3.632 0 0 1 .766 2.432 3.753 3.753 0 0 1-1.491 3.089 6.312 6.312 0 0 1-4.015 1.186 7.573 7.573 0 0 1-4.644-1.3 5.5 5.5 0 0 1-2.122-3.721h3.626a2.451 2.451 0 0 0 .967 1.733 3.5 3.5 0 0 0 2.174.631 2.125 2.125 0 0 0 1.482-.47 1.581 1.581 0 0 0 .511-1.222 1.35 1.35 0 0 0-.444-1.047 3.007 3.007 0 0 0-1.1-.619q-.664-.223-1.876-.52a20.985 20.985 0 0 1-2.7-.766 4.3 4.3 0 0 1-1.773-1.249 3.507 3.507 0 0 1-.739-2.363 3.867 3.867 0 0 1 1.482-3.143 6.279 6.279 0 0 1 4.083-1.209 6.586 6.586 0 0 1 4.343 1.371z" class="prefix__cls-8PageLogo" data-name="Path 15634" transform="translate(-1312.262 -194.834)"/>
                <path id="prefix__Path_15635" d="M1571.722 208.007h-10.905a4.1 4.1 0 0 0 1.074 2.929 3.457 3.457 0 0 0 2.47.94 3.589 3.589 0 0 0 2.189-.644 2.858 2.858 0 0 0 1.12-1.747h4a6.416 6.416 0 0 1-1.263 2.794 6.6 6.6 0 0 1-2.49 1.931 8.509 8.509 0 0 1-7.238-.228 6.512 6.512 0 0 1-2.633-2.646 9.251 9.251 0 0 1 0-8.125 6.4 6.4 0 0 1 2.633-2.646 8.02 8.02 0 0 1 3.867-.914 7.829 7.829 0 0 1 3.853.914 6.436 6.436 0 0 1 2.552 2.512 7.372 7.372 0 0 1 .767 4.931zm-4.634-4.431a3.63 3.63 0 0 0-2.538-.941 3.719 3.719 0 0 0-2.579.941 3.848 3.848 0 0 0-1.154 2.767h7.225a3.335 3.335 0 0 0-.954-2.767z" class="prefix__cls-8PageLogo" data-name="Path 15635" transform="translate(-1443.062 -194.843)"/>
            </g>
        </g>
    </g>
</svg>
