<svg id="Layer_1" data-name="Layer 1" xmlns="http://www.w3.org/2000/svg" viewBox="0 0 100 100"><defs></defs><g id="Ellipse_388" data-name="Ellipse 388"><path class="cls-1pageProviders" d="M41.63,41A19.32,19.32,0,1,1,61,21.64,19.34,19.34,0,0,1,41.63,41Zm0-32.45A13.13,13.13,0,1,0,54.75,21.64,13.14,13.14,0,0,0,41.63,8.51Z"/></g><g id="Path_1043" data-name="Path 1043"><path class="cls-1pageProviders" d="M97.51,23.92a3.1,3.1,0,0,0-4.15,1.42l-18.76,38L74,64.51V61A22.07,22.07,0,0,0,52.08,39h0a3.18,3.18,0,0,0-2.6,1.42L41.52,52.81,33.63,40.45A3.19,3.19,0,0,0,31,39,22.07,22.07,0,0,0,9.07,61v2.3A11.54,11.54,0,0,0,11.55,86.1a11.24,11.24,0,0,0,5.17-1.24,11.42,11.42,0,0,0,6.19-8.18V72.41a11.4,11.4,0,0,0-6.19-8.17,7.2,7.2,0,0,0-1.45-.62V61A15.86,15.86,0,0,1,29.39,45.32l8.29,13,4,.56,3.71-.53,8.33-13A15.86,15.86,0,0,1,67.81,61v2.79a10.21,10.21,0,0,0-1.27.56,11.53,11.53,0,0,0,0,20.44,11.74,11.74,0,0,0,5.39,1.33A11.54,11.54,0,0,0,80,66.31L98.93,28.07A3.1,3.1,0,0,0,97.51,23.92ZM16.72,73.15a4,4,0,0,1,.22,1.4,4,4,0,0,1-.22,1.39,5.36,5.36,0,1,1,0-2.79ZM71.93,79.9a5.36,5.36,0,1,1,0-10.71,5.14,5.14,0,0,1,2.82.81,5.35,5.35,0,0,1-2.82,9.9Z"/></g><g id="Path_1044" data-name="Path 1044"><path class="cls-1pageProviders" d="M16.72,73.15v2.79a4,4,0,0,0,.22-1.39A4,4,0,0,0,16.72,73.15Zm28-8.45V90.25h0V64.7Z"/><path class="cls-1pageProviders" d="M60.35,74.55v-12L44.74,64.7h0V90.25h0l15.61-2.2V74.55a11.53,11.53,0,0,0,6.19,10.22v6a3.1,3.1,0,0,1-2.66,3.07L42.05,96.9h-.84L19.38,93.81a3.11,3.11,0,0,1-2.66-3.07V84.86a11.42,11.42,0,0,0,6.19-8.18V88.05l15.61,2.2h0V64.7h0L22.91,62.5v9.91a11.4,11.4,0,0,0-6.19-8.17v-5.3a3.2,3.2,0,0,1,1.05-2.35,3,3,0,0,1,2.48-.71l17.43,2.44,4,.56,3.71-.53L63,55.88a3,3,0,0,1,2.48.71,3.2,3.2,0,0,1,1.05,2.35v5.39A11.53,11.53,0,0,0,60.35,74.55Z"/></g><g id="Path_1045" data-name="Path 1045"><path class="cls-1pageProviders" d="M38.52,64.7V90.25h0V64.7Z"/></g><g id="Ellipse_389" data-name="Ellipse 389"><path class="cls-1pageProviders" d="M22.91,72.41v4.27a10.47,10.47,0,0,0,0-4.27Z"/></g><g id="Ellipse_390" data-name="Ellipse 390"><path class="cls-1pageProviders" d="M74,63.21v1.3l.59-1.17A2,2,0,0,0,74,63.21Z"/></g></svg>
