<svg id="Layer_1" data-name="Layer 1" xmlns="http://www.w3.org/2000/svg" viewBox="0 0 100 100"><defs></defs><g id="Ellipse_387" data-name="Ellipse 387"><path class="cls-1pageHome" d="M51,54.43A12.5,12.5,0,1,1,63.48,41.94,12.51,12.51,0,0,1,51,54.43Zm0-18.64a6.15,6.15,0,1,0,6.16,6.15A6.16,6.16,0,0,0,51,35.79Z"/></g><g id="Rectangle_828" data-name="Rectangle 828"><path class="cls-1pageHome" d="M99.07,43,53.33,6.34a3.16,3.16,0,0,0-3.94,0L1.48,43.79A3.17,3.17,0,0,0,1,48.25a3.08,3.08,0,0,0,2.49,1.21,3.15,3.15,0,0,0,2-.66l8.2-6.42V86H6.67a3.18,3.18,0,1,0,0,6.36H95.28a3.18,3.18,0,0,0,0-6.36H88.16V42.34L95.1,47.9a3.17,3.17,0,1,0,4-4.94ZM41.89,86V64.28H60.16V86ZM81.8,86H66.51V61.11a3.17,3.17,0,0,0-3.17-3.18H38.74a3.16,3.16,0,0,0-3.18,3.18V86H20V37.4L51.33,12.86,81.8,37.26Z"/></g></svg>
