<svg xmlns="http://www.w3.org/2000/svg" width="22.758" height="20.962" viewBox="0 0 22.758 20.962">
  <g id="Parent_Classes" data-name="Parent Classes" transform="translate(-0.781 -2.66)">
    <path id="Path_12030" data-name="Path 12030" d="M22.491,12.97V1.658A1.348,1.348,0,0,0,21.144.31H3.177A1.348,1.348,0,0,0,1.829,1.658V12.97a1.348,1.348,0,0,0-.9,1.265v.9A1.348,1.348,0,0,0,2.279,16.48H7.391L6.12,19.022a1.348,1.348,0,0,0,1.205,1.95h.686a1.34,1.34,0,0,0,1.205-.745L11.09,16.48h1.691l1.873,3.747a1.34,1.34,0,0,0,1.205.745h.686a1.347,1.347,0,0,0,1.205-1.95L16.48,16.48h5.562a1.348,1.348,0,0,0,1.348-1.348v-.9A1.347,1.347,0,0,0,22.491,12.97ZM2.728,1.658a.449.449,0,0,1,.449-.449H21.144a.449.449,0,0,1,.449.449V12.887H8.567v-.9a.9.9,0,0,0-.9-.9h-2.7a.9.9,0,0,0-.9.9v.9H2.728ZM7.669,12.887h-2.7v-.9h2.7Zm.745,6.938a.446.446,0,0,1-.4.248H7.325a.449.449,0,0,1-.4-.65L8.4,16.48h1.691Zm8.534-.4a.449.449,0,0,1-.4.65H15.86a.446.446,0,0,1-.4-.248L13.785,16.48h1.691Zm5.544-4.291a.449.449,0,0,1-.449.449H2.279a.449.449,0,0,1-.449-.449v-.9a.449.449,0,0,1,.449-.449H22.042a.449.449,0,0,1,.449.449Z" transform="translate(0 2.5)" fill="#151a6a" stroke="#151a6a" stroke-width="0.3"/>
  </g>
</svg>
