<svg xmlns="http://www.w3.org/2000/svg" id="prefix__photo" width="20" height="20" viewBox="0 0 20 20">
    <path id="prefix__Path_15838" d="M17.5 0h-15A2.5 2.5 0 0 0 0 2.5v15A2.5 2.5 0 0 0 2.5 20h15a2.5 2.5 0 0 0 2.5-2.5v-15A2.5 2.5 0 0 0 17.5 0zm-15 1.667h15a.834.834 0 0 1 .833.833v5.9l-2.744-2.739a.833.833 0 0 0-1.178 0L8.542 11.53 6.423 9.411a.833.833 0 0 0-1.178 0l-3.578 3.577V2.5a.834.834 0 0 1 .833-.833zm15 16.667h-15a.834.834 0 0 1-.833-.833v-2.156l4.167-4.167 4.827 4.827a.833.833 0 1 0 1.178-1.178L9.72 12.708 15 7.429l3.333 3.333V17.5a.834.834 0 0 1-.833.833zm0 0" class="photo_1" data-name="Path 15838"/>
    <path id="prefix__Path_15839" d="M67.316 65.658A1.658 1.658 0 1 1 65.658 64a1.658 1.658 0 0 1 1.658 1.658zm0 0" class="photo_1" data-name="Path 15839" transform="translate(-60.663 -60.663)"/>
</svg>
