<svg xmlns="http://www.w3.org/2000/svg" width="160" height="160" viewBox="0 0 160 160">
  <g id="physics" transform="translate(-783 -359)">
    <path id="Path_15956" data-name="Path 15956" d="M40,0h80a40,40,0,0,1,40,40v80a40,40,0,0,1-40,40H40A40,40,0,0,1,0,120V40A40,40,0,0,1,40,0Z" transform="translate(783 359)" fill="#f15e55" opacity="0.2"/>
    <g id="physics-2" data-name="physics" transform="translate(835.87 409.367)">
      <path id="Path_15718" data-name="Path 15718" d="M53.15,131.356c-3.8,6.6-16.593,3.032-25.875-1.165a65.743,65.743,0,0,1-6.154-3.139A64.445,64.445,0,0,1,6.5,115.767l2.6-2.4a61.616,61.616,0,0,0,13.78,10.648c1.477.847,2.954,1.622,4.4,2.328,11.285,5.537,20.989,6.418,22.852,3.245,3.2-5.607-12.062-17.14-18.462-20.879-1.477-.847-2.954-1.622-4.4-2.328-11.283-5.533-21.018-6.415-22.852-3.241-.6,1.093-.352,2.821.774,4.937l-3.129,1.658c-2.144-4.126-1.547-6.842-.668-8.358,3.375-5.855,14.836-3.956,25.875,1.129,2.075.952,4.149,2.01,6.154,3.173,8.369,4.831,24.5,17.352,19.723,25.674Zm0,0" transform="translate(-0.529 -86.367)" fill="#ff8b84"/>
      <path id="Path_15719" data-name="Path 15719" d="M253.965,166.712c-3.777,6.541-16.509,3.008-25.743-1.155v-3.813c11.227,5.491,20.882,6.366,22.736,3.219,3.177-5.561-12-17-18.364-20.707-1.466-.839-2.933-1.609-4.372-2.308V138.1c2.064.945,4.128,1.993,6.121,3.148,8.325,4.792,24.379,17.209,19.622,25.463Zm0,0" transform="translate(-201.34 -121.821)" fill="#ff8b84"/>
      <path id="Path_15720" data-name="Path 15720" d="M2.847,182.744h0a5.247,5.247,0,1,1,7.17-1.921,5.247,5.247,0,0,1-7.17,1.921Zm0,0" transform="translate(-0.198 -152.662)" fill="#ff8b84"/>
      <path id="Path_15721" data-name="Path 15721" d="M141.936,47.262A61.566,61.566,0,0,0,144.213,30c0-15.082-4.617-26.485-8.744-26.485s-8.744,11.4-8.744,26.485,4.618,26.485,8.744,26.485c1.222,0,2.624-1.09,3.882-3.094l2.933,1.863C139.84,59.193,137.212,60,135.463,60c-7.943,0-12.242-15.515-12.242-30s4.3-30,12.244-30,12.243,15.515,12.243,30a63.5,63.5,0,0,1-2.444,18.281Zm0,0" transform="translate(-108.72)" fill="#f15e55"/>
      <g id="Group_22072" data-name="Group 22072" transform="translate(26.782)">
        <path id="Path_15722" data-name="Path 15722" d="M232.106,455.6l2.933,1.854c-2.444,3.918-5.071,4.722-6.821,4.722v-3.5C229.447,458.681,230.846,457.6,232.106,455.6Zm0,0" transform="translate(-228.218 -402.178)" fill="#f15e55"/>
        <path id="Path_15723" data-name="Path 15723" d="M240.464,30.036a63.657,63.657,0,0,1-2.444,18.3L234.7,47.319a61.715,61.715,0,0,0,2.274-17.283c0-15.1-4.617-26.518-8.744-26.518V0c7.943,0,12.242,15.535,12.242,30.037Zm0,0" transform="translate(-228.217)" fill="#f15e55"/>
        <path id="Path_15724" data-name="Path 15724" d="M247.612,399.875a4.478,4.478,0,0,1-4.389-4.486,4.389,4.389,0,1,1,8.778,0,4.478,4.478,0,0,1-4.389,4.486Zm0,0" transform="translate(-240.612 -344.24)" fill="#f15e55"/>
      </g>
      <path id="Path_15725" data-name="Path 15725" d="M32.9,127.17c-1.687.989-3.831,2.081-6.154,3.139-9.317,4.2-22.113,7.723-25.874,1.163-4.78-8.283,11.323-20.807,19.723-25.674,2.075-1.2,4.113-2.257,6.154-3.214a58.67,58.67,0,0,1,10.9-3.843l.809,3.461a54.826,54.826,0,0,0-11.707,4.3c-1.477.706-2.954,1.484-4.4,2.328C15.5,112.818.8,124.315,3.889,129.711c1.863,3.173,11.569,2.292,22.852-3.244,1.441-.706,2.918-1.483,4.4-2.328,6.855-3.986,21.551-15.483,18.462-20.879-.633-1.093-2.286-1.731-4.64-1.835L45.1,97.9c4.606.211,6.646,2.081,7.524,3.6C57.4,109.779,41.3,122.3,32.9,127.171Zm0,0" transform="translate(0 -86.485)" fill="#d2463d"/>
      <path id="Path_15726" data-name="Path 15726" d="M239.871,108.523a54.653,54.653,0,0,0-11.648,4.267v-3.882a58.5,58.5,0,0,1,10.842-3.812Zm0,0" transform="translate(-201.439 -92.773)" fill="#d2463d"/>
      <path id="Path_15727" data-name="Path 15727" d="M234.344,126.929c-1.679.978-3.812,2.064-6.121,3.112v-3.813c1.435-.7,2.9-1.466,4.372-2.308,6.821-3.953,21.442-15.355,18.364-20.707-.629-1.084-2.274-1.711-4.617-1.82l.139-3.5c4.582.21,6.611,2.064,7.484,3.568,4.757,8.22-11.263,20.636-19.622,25.463Zm0,0" transform="translate(-201.341 -86.357)" fill="#d2463d"/>
      <path id="Path_15728" data-name="Path 15728" d="M309.828,76.905A5.247,5.247,0,1,1,317,78.822a5.247,5.247,0,0,1-7.168-1.917Zm0,0" transform="translate(-272.809 -60.984)" fill="#d2463d"/>
      <path id="Path_15729" data-name="Path 15729" d="M193.716,216.247a5.24,5.24,0,1,1-1.535-3.712,5.247,5.247,0,0,1,1.535,3.712Zm0,0" transform="translate(-161.724 -186.247)" fill="#ff8b84"/>
    </g>
  </g>
</svg>
