<svg xmlns="http://www.w3.org/2000/svg" width="15.143" height="15.143" viewBox="0 0 15.143 15.143">
  <g id="Group_23052" data-name="Group 23052" transform="translate(-1482 -1741.857)">
    <g id="play-button_2_" data-name="play-button (2)" transform="translate(1482 1741.857)">
      <g id="Group_22744" data-name="Group 22744">
        <g id="Group_22743" data-name="Group 22743">
          <path id="Path_11281" data-name="Path 11281" d="M7.571,0a7.571,7.571,0,1,0,7.571,7.571A7.58,7.58,0,0,0,7.571,0Zm0,14.512a6.94,6.94,0,1,1,6.94-6.94A6.948,6.948,0,0,1,7.571,14.512Z"/>
          <path id="Path_11282" data-name="Path 11282" d="M196.9,152.221l-4.417-2.839a.315.315,0,0,0-.486.265v5.678a.315.315,0,0,0,.486.265l4.417-2.839a.315.315,0,0,0,0-.53Zm-4.272,2.526v-4.523l3.518,2.261Z" transform="translate(-186.322 -144.914)"/>
        </g>
      </g>
    </g>
    <path id="Path_11283" data-name="Path 11283" d="M-10521.939,11559.76v5.448l4.149-2.642Z" transform="translate(12010 -9813)"/>
  </g>
</svg>
