<?xml version="1.0" encoding="utf-8"?>
<!-- Generator: Adobe Illustrator 24.1.2, SVG Export Plug-In . SVG Version: 6.00 Build 0)  -->
<svg version="1.1" id="Layer_1" xmlns="http://www.w3.org/2000/svg" xmlns:xlink="http://www.w3.org/1999/xlink" x="0px" y="0px"
	 viewBox="0 0 100 100" style="enable-background:new 0 0 100 100;" xml:space="preserve">
<g id="practice" transform="translate(0.25 0.367)">
	<g id="nation">
		<g>
			<path d="M71.8,26.3L87.4,5.8c0.9-1.2,1.1-2.7,0.4-4c-0.6-1.3-2-2.2-3.5-2.2H15.9c-1.1,0-2,0.3-2.7,1.1c-0.7,0.7-1.1,1.7-1.2,2.8
				v96.1h7.8V52.9h64.5c1.5,0,2.8-0.8,3.5-2.2c0.7-1.3,0.5-2.9-0.4-4L71.8,26.3z M19.8,45.2V7.4h56.6L63.8,24c-1,1.4-1,3.3,0,4.6
				l12.6,16.6L19.8,45.2z"/>
		</g>
	</g>
</g>
</svg>
