<svg xmlns="http://www.w3.org/2000/svg" id="next_1_" width="12" height="10.424" viewBox="0 0 12 10.424">
    <defs>
      
    </defs>
    <g id="Group_22094" transform="translate(.102 4.699)">
        <g id="Group_22093">
            <path id="Path_15825" d="M.482 235.408h10.933a.514.514 0 0 1 0 1.026H.482a.514.514 0 0 1 0-1.026z" class="prev-1" transform="translate(0 -235.408)"/>
        </g>
    </g>
    <g id="Group_22096">
        <g id="Group_22095">
            <path id="Path_15826" d="M269.19 38.5l5.029-4.729a.536.536 0 0 1 .726 0 .462.462 0 0 1 0 .683l-4.666 4.388 4.666 4.388a.462.462 0 0 1 0 .682.536.536 0 0 1-.726 0l-5.029-4.729a.462.462 0 0 1 0-.683z" class="prev-1" transform="translate(-269.04 -33.625)"/>
        </g>
    </g>
</svg>
