<svg xmlns="http://www.w3.org/2000/svg" width="15.999" height="16" viewBox="0 0 15.999 16">
    <path id="prefix__filter" fill="#203061" d="M15.874 0H1.125A.625.625 0 0 0 .5.625a6.1 6.1 0 0 0 2.047 4.558l2.737 2.433a2.227 2.227 0 0 1 .747 1.663v6.095a.625.625 0 0 0 .972.52l3.687-2.458a.625.625 0 0 0 .278-.52V9.279a2.227 2.227 0 0 1 .747-1.663l2.737-2.433A6.1 6.1 0 0 0 16.5.625.625.625 0 0 0 15.874 0zm-2.252 4.249l-2.737 2.433a3.478 3.478 0 0 0-1.166 2.6v3.3l-2.438 1.624V9.279a3.478 3.478 0 0 0-1.166-2.6l-2.738-2.43a4.855 4.855 0 0 1-1.587-3h13.419a4.854 4.854 0 0 1-1.587 3zm0 0" transform="translate(-.5)"/>
</svg>
