<?xml version="1.0" encoding="utf-8"?>
<!-- Generator: Adobe Illustrator 24.1.2, SVG Export Plug-In . SVG Version: 6.00 Build 0)  -->
<svg version="1.1" id="Layer_1" xmlns="http://www.w3.org/2000/svg" xmlns:xlink="http://www.w3.org/1999/xlink" x="0px" y="0px"
	 viewBox="0 0 118.9 100" style="enable-background:new 0 0 118.9 100;" xml:space="preserve">
<g id="recordedSession" transform="translate(-190.171 -347.124)">
	<g id="Group_21815" transform="translate(190.171 347.124)">
		<path id="Path_15526" class="record0" d="M106.3,100H12.6C5.6,100,0,94.4,0,87.4c0-2.8,0.9-5.6,2.7-7.8l12.2-15.4V16.6
			C14.9,7.5,22.3,0,31.5,0h55.3c9.2,0,16.6,7.5,16.6,16.6v30.6c0,2.3-1.8,4.1-4.1,4.1s-4.1-1.8-4.1-4.1V16.6c0-4.7-3.8-8.4-8.4-8.4
			H31.5c-4.7,0-8.4,3.8-8.4,8.4v44.9h78.3c1.3,0,2.6,0.6,3.3,1.7l11.9,16.9c4,5.7,2.6,13.5-3.1,17.5C111.4,99.2,108.9,100,106.3,100
			L106.3,100z M20.9,69.7l-11.8,15c-1.5,1.9-1.2,4.7,0.7,6.2c0.8,0.6,1.7,0.9,2.7,0.9h93.7c2.4,0,4.4-2,4.4-4.4
			c0-0.9-0.3-1.8-0.8-2.5L99.2,69.7L20.9,69.7z"/>
	</g>
	<g id="Group_21816" transform="translate(198.194 349.941)">
		<path id="Path_15527" class="record0" d="M51.4,44.6c-8.9,0-16.1-7.2-16.1-16.1c0-8.9,7.2-16.1,16.1-16.1c8.9,0,16.1,7.2,16.1,16.1
			c0,0,0,0,0,0C67.5,37.4,60.3,44.6,51.4,44.6z M51.4,20.7c-4.3,0-7.8,3.5-7.8,7.8s3.5,7.8,7.8,7.8s7.8-3.5,7.8-7.8l0,0
			C59.2,24.2,55.7,20.7,51.4,20.7L51.4,20.7z"/>
	</g>
	<g id="Group_21817" transform="translate(196.667 354.424)">
		<path id="Path_15528" class="record0" d="M74.9,50c-1,0-1.9-0.3-2.6-1c-5.9-5.7-13.8-8.8-22-8.5c-5.6,0.8-10.6,3.6-14.2,7.9
			c-1.4,1.8-4,2.1-5.8,0.6c-1.7-1.4-2.1-3.8-0.8-5.6c4.9-6.1,12-10,19.8-11.1c10.5-0.7,20.8,3.1,28.4,10.4c1.8,1.5,2,4.1,0.5,5.8
			C77.3,49.5,76.1,50,74.9,50L74.9,50z"/>
	</g>
	<g id="Group_21818" transform="translate(198.667 362.977)">
		<path id="Rectangle_2395" class="record0" d="M44.8,69.8h15.8c4.1,0,7.4,3.3,7.4,7.4l0,0l0,0H37.4l0,0l0,0
			C37.4,73.1,40.7,69.8,44.8,69.8C44.8,69.8,44.8,69.8,44.8,69.8z"/>
	</g>
</g>
</svg>
