<?xml version="1.0" encoding="utf-8"?>
<!-- Generator: Adobe Illustrator 24.1.3, SVG Export Plug-In . SVG Version: 6.00 Build 0)  -->
<svg version="1.1" id="Layer_1" xmlns="http://www.w3.org/2000/svg" xmlns:xlink="http://www.w3.org/1999/xlink" x="0px" y="0px"
	 viewBox="0 0 100 100" style="enable-background:new 0 0 100 100;" xml:space="preserve">
<style type="text/css">
	.st0remove{fill:rgba(#203061, 0.6);}
	.st1remove{fill:#FFFFFF;}
</style>
<g id="close" transform="translate(-828 -540)">
	<g id="Group_22348" transform="translate(828.031 540.199)">
		<path id="Rectangle_2590" class="st0remove" d="M50-0.2L50-0.2c27.6,0,50,22.4,50,50l0,0c0,27.6-22.4,50-50,50l0,0
			c-27.6,0-50-22.4-50-50l0,0C0,22.2,22.4-0.2,50-0.2z"/>
	</g>
	<g id="Group_22349" transform="translate(832.2 544.33)">
		<g id="Left_arrow" transform="translate(0.773 0) rotate(45)">
			<path id="Path_666" class="st1remove" d="M94.6,4.2H32.1v-6.4h62.4V4.2z"/>
		</g>
		<g id="Left_arrow-2" transform="translate(8.279 0.773) rotate(135)">
			<path id="Path_666-2" class="st1remove" d="M37-60.7h-62.4v6.4H37V-60.7z"/>
		</g>
	</g>
</g>
</svg>
