<?xml version="1.0" encoding="utf-8"?>
<!-- Generator: Adobe Illustrator 24.1.2, SVG Export Plug-In . SVG Version: 6.00 Build 0)  -->
<svg version="1.1" id="Layer_1" xmlns="http://www.w3.org/2000/svg" xmlns:xlink="http://www.w3.org/1999/xlink" x="0px" y="0px"
	 viewBox="0 0 100 100" style="enable-background:new 0 0 100 100;" xml:space="preserve">
<g id="report" transform="translate(0.15 0.2)">
	<g id="Group_12" transform="translate(0.05)">
		<g id="Path_25">
			<path d="M86.2,51.1H48.6V13.4c0-1-0.4-1.9-1.1-2.6c-0.7-0.7-1.6-1.1-2.6-1.1c-24.8,0-45,20.2-45,45c0,24.8,20.2,45,45,45
				c24.9,0,45-20.2,45-45C89.9,52.7,88.2,51.1,86.2,51.1z M44.8,92.4c-20.8,0-37.6-16.9-37.6-37.6c0-19.3,14.8-35.6,33.9-37.5v37.5
				c0,2,1.7,3.7,3.7,3.7h37.5C80.4,77.5,64.1,92.4,44.8,92.4z"/>
		</g>
		<g id="Path_26">
			<path d="M57.7-0.2L57.7-0.2c-1,0-1.8,0.4-2.5,1c-0.7,0.6-1,1.5-1,2.5v38.5c0,1.9,1.6,3.5,3.5,3.5h38.6c0.9,0,1.8-0.4,2.5-1
				c0.7-0.7,1-1.5,1.1-2.5v-0.1C99.7,18.6,80.8-0.2,57.7-0.2z M61.2,7c16.4,1.7,29.7,14.9,31.3,31.3H61.2V7z"/>
		</g>
	</g>
</g>
</svg>
