<?xml version="1.0" encoding="utf-8"?>
<!-- Generator: Adobe Illustrator 24.1.2, SVG Export Plug-In . SVG Version: 6.00 Build 0)  -->
<svg version="1.1" id="Layer_1" xmlns="http://www.w3.org/2000/svg" xmlns:xlink="http://www.w3.org/1999/xlink" x="0px" y="0px"
	 viewBox="0 0 100 100" style="enable-background:new 0 0 100 100;" xml:space="preserve">
<style type="text/css">
	.st0roleMnagement{fill:#203061;}
</style>
<g id="roleManagement" transform="translate(-37.755 0.15)">
	<g id="Path_12118">
		<path class="st0roleMnagement" d="M125.7,22.9L104.8,2c-1.3-1.4-3.3-2.2-5.2-2.2H80.1c-2,0-3.6,1.6-3.6,3.6c0,2,1.6,3.7,3.6,3.7h17.5v15.6
			c0,4.1,3.4,7.5,7.5,7.5h15.6v62.2c0,0.1-0.1,0.2-0.2,0.2H58.8c-0.1,0-0.2-0.1-0.2-0.2V49.6c0-2-1.6-3.6-3.6-3.6
			c-1,0-1.9,0.3-2.6,1c-0.7,0.7-1.1,1.6-1.1,2.6v42.7c0,4.1,3.4,7.5,7.5,7.5h61.6c4.2,0,7.5-3.4,7.5-7.5V28.2
			C127.9,26.2,127.1,24.2,125.7,22.9z M105,23c-0.1,0-0.2-0.1-0.2-0.2V12.2L115.5,23H105z"/>
	</g>
	<g id="Path_12119">
		<path class="st0roleMnagement" d="M114.7,41.8c0,2-1.6,3.6-3.6,3.6H92.7c-2,0-3.6-1.6-3.6-3.6c0-2,1.6-3.6,3.6-3.6h18.4
			C113.1,38.2,114.7,39.8,114.7,41.8z"/>
	</g>
	<g id="Path_12120">
		<path class="st0roleMnagement" d="M114.7,61c0,2-1.6,3.6-3.6,3.6H92.7c-2,0-3.7-1.6-3.6-3.7c0-0.9,0.3-1.9,1-2.5c0.7-0.7,1.6-1.1,2.6-1.1h18.4
			c1,0,1.9,0.4,2.6,1.1C114.4,59.1,114.8,60.1,114.7,61z"/>
	</g>
	<g id="Path_12121">
		<path class="st0roleMnagement" d="M114.8,80.3c0,1-0.4,1.9-1.1,2.6c-0.7,0.6-1.6,1-2.5,1H92.7c-2,0-3.7-1.6-3.6-3.7c0-0.9,0.3-1.9,1-2.6
			c0.7-0.6,1.6-1,2.6-1h18.5c1,0,1.9,0.4,2.6,1.1S114.8,79.3,114.8,80.3z"/>
	</g>
	<g id="Path_12122">
		<path class="st0roleMnagement" d="M84,56.7c0,1-0.4,1.9-1.1,2.6l-8.7,8.7c-0.7,0.7-1.7,1-2.6,1c-0.9,0-1.9-0.3-2.6-1l-3.6-3.6
			c-1.4-1.4-1.4-3.7,0-5.1c1.4-1.4,3.7-1.4,5.1,0l1,1l6.1-6.1c1.3-1.3,3.8-1.4,5.1,0C83.6,54.8,84,55.7,84,56.7z"/>
	</g>
	<g id="Path_12123">
		<path class="st0roleMnagement" d="M84,75.9c0,0.9-0.4,1.9-1.1,2.6l-8.7,8.7c-0.7,0.7-1.7,1.1-2.6,1.1c-0.9,0-1.9-0.3-2.6-1.1l-3.6-3.6
			c-1.4-1.4-1.4-3.7,0-5.1c1.3-1.4,3.8-1.4,5.1,0l1,1l6.1-6.1c1.3-1.4,3.8-1.4,5.1,0C83.6,74,84,74.9,84,75.9z"/>
	</g>
	<g id="Path_11315" transform="translate(39.034 0.455)">
		<g id="Path_11334">
			<g id="Path_12125">
				<path class="st0roleMnagement" d="M32.3,5.3c-4-3.9-10.4-3.9-14.4,0c-1.9,1.9-3,4.6-3,7.3c0,2.7,1,5.3,3,7.2c1.9,1.9,4.4,3,7.1,3h0.3
					c2.7,0,5.2-1.1,7.1-3C36.3,15.8,36.3,9.3,32.3,5.3z M30.5,12.6L30.5,12.6c0,1.4-0.5,2.8-1.5,3.7c-1,1-2.4,1.5-3.8,1.5
					c-1.3,0-2.7-0.5-3.8-1.5c-1-1-1.5-2.3-1.5-3.7v-0.1c0-1.3,0.5-2.6,1.5-3.6c1-1,2.3-1.5,3.8-1.5v0c1.4,0,2.8,0.6,3.8,1.6
					C29.9,9.8,30.5,11.2,30.5,12.6z"/>
			</g>
		</g>
	</g>
	<g id="Path_11316" transform="translate(37.755 4.232)">
		<g id="Path_11335">
			<g id="Path_12127">
				<path class="st0roleMnagement" d="M43.3,29.4L43,25.9l-0.2,0.1c-0.1-0.6-0.3-1.2-0.5-1.9c-0.2-0.8-0.6-1.6-1.1-2.4c-0.4-0.8-1-1.6-1.7-2.2
					c-0.7-0.7-1.6-1.2-2.6-1.6c-1-0.4-2.1-0.6-3.2-0.6h-0.1c-0.7,0.1-1.5,0.4-2.1,0.9c-0.1,0.1-0.3,0.2-0.6,0.4
					c-0.2,0.1-0.5,0.3-0.8,0.5c-0.4,0.3-1,0.5-1.5,0.7h0c-1.2,0.4-2.5,0.4-3.8,0h0c-0.5-0.2-1.1-0.4-1.6-0.7l-1.4-0.9
					c-0.6-0.5-1.4-0.8-2.2-0.9h-0.1c-1.1,0-2.2,0.1-3.2,0.5c-0.9,0.3-1.8,0.9-2.5,1.6C13,20.2,12.5,21,12,21.7
					c-0.4,0.8-0.8,1.6-1.1,2.4c-0.3,0.8-0.5,1.6-0.6,2.5c-0.1,0.8-0.2,1.7-0.3,2.5v0c0,0.8,0,1.5,0,2.2c0,2.1,0.7,4.2,2.3,5.7v0
					c1.5,1.3,3.4,2.1,5.3,2.1h18.2c2,0,3.9-0.7,5.4-2.1l0,0c1.5-1.5,2.3-3.6,2.2-5.7C43.3,30.8,43.3,30.1,43.3,29.4z M19,22.5
					l0.6,0.4l0.8,0.5h0c0.9,0.5,1.8,0.9,2.8,1.2c2.3,0.7,4.7,0.7,6.9,0c1-0.3,1.9-0.7,2.8-1.2l0,0c0.2-0.1,0.4-0.3,0.7-0.4
					c0.3-0.1,0.5-0.3,0.8-0.5c0.3,0,0.5,0.1,0.8,0.2c0.3,0.1,0.6,0.3,0.9,0.5c0.3,0.3,0.5,0.6,0.7,1v0c0.3,0.4,0.5,0.9,0.7,1.5
					c0.1,0.6,0.3,1.2,0.4,1.8c0.1,0.6,0.2,1.3,0.2,1.9c0,0.7,0,1.3,0,1.9c0,0.7-0.2,1.3-0.7,1.9l-0.1,0c-0.5,0.5-1.3,0.7-2.1,0.7
					H17.8c-0.7,0-1.4-0.2-2-0.7c-0.4-0.5-0.7-1.2-0.6-1.9v-0.1c0-0.6,0-1.2,0-1.9v0c0-0.6,0.1-1.2,0.2-1.9v0
					c0.1-0.6,0.2-1.2,0.4-1.8v0c0.1-0.5,0.4-1,0.6-1.4v0c0.2-0.3,0.5-0.7,0.8-1c0.2-0.2,0.5-0.3,0.8-0.5
					C18.4,22.6,18.7,22.5,19,22.5z"/>
			</g>
		</g>
	</g>
</g>
</svg>
