<svg xmlns="http://www.w3.org/2000/svg" width="80" height="80" viewBox="0 0 80 80">
    <defs>
        <style>
            .prefix__cls-3science{fill:#004f81}
        </style>
    </defs>
    <g id="prefix__science" transform="translate(0 -.09)">
        <rect id="prefix__Rectangle_2391" width="80" height="80" data-name="Rectangle 2391" rx="16" transform="translate(0 .09)" style="opacity:.2;fill:#004f81"/>
        <circle id="prefix__Ellipse_1684" cx="14.16" cy="14.16" r="14.16" data-name="Ellipse 1684" transform="translate(25.808 25.698)" style="fill:#8eb7cc"/>
        <circle id="prefix__Ellipse_1685" cx="7.344" cy="7.344" r="7.344" class="prefix__cls-3science" data-name="Ellipse 1685" transform="translate(32.624 32.514)"/>
        <path id="prefix__Path_15990" d="M34.131 58.436a.5.5 0 0 1-.456-.3c-.064-.136-.136-.264-.208-.4a.492.492 0 1 1 .88-.44l.216.416a.5.5 0 0 1 0 .488.512.512 0 0 1-.424.24z" class="prefix__cls-3science" data-name="Path 15990" transform="translate(-6.683 -11.386)"/>
        <path id="prefix__Path_15991" d="M32.786 51.034a.488.488 0 0 1-.464-.344c-.1-.328-.2-.664-.288-1a.488.488 0 1 1 .952-.192c.08.312.168.624.264.928a.5.5 0 0 1 0 .376.52.52 0 0 1-.288.248.464.464 0 0 1-.176-.016zm-.624-2.952a.5.5 0 0 1-.488-.448c0-.344-.056-.7-.064-1.04a.488.488 0 0 1 .472-.5.5.5 0 0 1 .488.48 4.965 4.965 0 0 0 .064.968.48.48 0 0 1-.44.536zm0-3.024h-.056a.488.488 0 0 1-.328-.184.472.472 0 0 1-.1-.36c.04-.336.088-.68.152-1.024a.488.488 0 1 1 .96.168c-.056.328-.1.648-.136.968a.5.5 0 0 1-.472.432zm.648-2.944a.48.48 0 0 1-.4-.2.472.472 0 0 1-.064-.448c.1-.328.232-.656.36-.976a.5.5 0 0 1 .392-.3.464.464 0 0 1 .448.192.456.456 0 0 1 .064.48c-.12.3-.24.608-.336.912a.5.5 0 0 1-.448.336zm1.256-2.744a.488.488 0 0 1-.424-.248.48.48 0 0 1 0-.488c.184-.3.368-.6.568-.88a.488.488 0 1 1 .8.56c-.184.264-.36.536-.52.8a.48.48 0 0 1-.408.256zm1.808-2.4a.488.488 0 0 1-.432-.272.48.48 0 0 1 .1-.528c.232-.248.48-.5.728-.736a.492.492 0 0 1 .816.248.5.5 0 0 1-.144.472 9.3 9.3 0 0 0-.688.688.512.512 0 0 1-.328.112zm2.28-1.976a.488.488 0 0 1-.464-.344.48.48 0 0 1 .184-.552c.28-.192.576-.384.872-.56a.488.488 0 0 1 .672.168.5.5 0 0 1-.168.672 8.139 8.139 0 0 0-.8.528.5.5 0 0 1-.28.088zm2.656-1.5a.488.488 0 0 1-.48-.392.5.5 0 0 1 .288-.552c.32-.128.648-.256.976-.36a.488.488 0 0 1 .624.3.48.48 0 0 1-.312.616c-.3.1-.608.224-.9.344a.416.416 0 0 1-.192.04zm9.856-.408a.5.5 0 0 1-.152 0c-.3-.1-.616-.184-.928-.264a.488.488 0 1 1 .232-.928c.336.088.672.184 1 .288a.488.488 0 0 1-.152.952zM43.7 32.7a.5.5 0 0 1-.088-.976c.344-.064.688-.112 1.032-.152a.488.488 0 0 1 .08.944 5.055 5.055 0 0 0-.968.144zm4-.168h-.05c-.32 0-.648-.056-.968-.064a.488.488 0 1 1 .024-.976 5.677 5.677 0 0 1 1.04.064.489.489 0 1 1-.048.976z" class="prefix__cls-3science" data-name="Path 15991" transform="translate(-6.322 -6.28)"/>
        <path id="prefix__Path_15992" d="M58.108 34.459a.528.528 0 0 1-.24-.056l-.416-.216a.492.492 0 1 1 .44-.88c.144.072.288.144.424.224a.472.472 0 0 1 .264.544.488.488 0 0 1-.472.384z" class="prefix__cls-3science" data-name="Path 15992" transform="translate(-11.436 -6.633)"/>
        <path id="prefix__Path_15993" d="M65.711 42.226a.5.5 0 0 1-.44-.272l-.216-.416a.5.5 0 0 1 .48-.728.52.52 0 0 1 .408.3c.072.128.136.264.208.4a.512.512 0 0 1 0 .48.488.488 0 0 1-.44.232z" class="prefix__cls-3science" data-name="Path 15993" transform="translate(-12.999 -8.144)"/>
        <path id="prefix__Path_15994" d="M48.328 63.257a5.677 5.677 0 0 1-1.04-.064.5.5 0 0 1-.352-.8.512.512 0 0 1 .448-.2c.32 0 .648.056.968.064a.488.488 0 1 1 0 .976zm2.008-.08a.489.489 0 1 1-.056-.976 5.055 5.055 0 0 0 .968-.144.488.488 0 0 1 .568.392.5.5 0 0 1-.392.576c-.344.064-.688.112-1.032.152zm-5-.32h-.12c-.336-.088-.672-.184-1-.288a.488.488 0 0 1 .3-.928q.456.144.936.264a.5.5 0 0 1 .368.536.5.5 0 0 1-.488.416zm7.944-.328a.5.5 0 0 1-.152-.96 9.526 9.526 0 0 0 .9-.344.5.5 0 0 1 .648.264.488.488 0 0 1-.264.64c-.32.136-.648.264-.976.368a.52.52 0 0 1-.16 0zm2.744-1.264a.48.48 0 0 1-.472-.36.472.472 0 0 1 .216-.552q.416-.248.8-.528a.5.5 0 0 1 .68.12.48.48 0 0 1-.12.68c-.28.2-.576.392-.872.568a.472.472 0 0 1-.248.072zm2.4-1.816a.488.488 0 0 1-.448-.312.5.5 0 0 1 .12-.536c.24-.224.472-.456.688-.688a.488.488 0 0 1 .472-.144.5.5 0 0 1 .248.8l-.736.736a.536.536 0 0 1-.336.128zm1.976-2.28a.516.516 0 0 1-.432-.768q.272-.392.528-.8a.488.488 0 1 1 .8.5c-.184.3-.368.6-.568.88a.488.488 0 0 1-.4.208zm1.448-2.648a.488.488 0 0 1-.448-.68c.12-.3.24-.6.344-.9a.472.472 0 0 1 .36-.328.5.5 0 0 1 .464.152.488.488 0 0 1 .1.48c-.112.336-.24.664-.368.984a.5.5 0 0 1-.456.3zm.856-2.9h-.088a.488.488 0 0 1-.392-.568c.056-.32.1-.64.136-.96a.491.491 0 1 1 .976.1 5.74 5.74 0 0 1-.152 1.032.48.48 0 0 1-.48.4zm.224-3.008a.488.488 0 0 1-.488-.472 4.924 4.924 0 0 0-.064-.968.491.491 0 0 1 .976-.1c0 .352.056.7.064 1.04a.488.488 0 0 1-.472.5zm-.408-2.984a.5.5 0 0 1-.48-.376c-.08-.312-.168-.624-.264-.928a.49.49 0 1 1 .928-.312c.1.328.2.672.288 1.008a.488.488 0 0 1-.36.592h-.112z" class="prefix__cls-3science" data-name="Path 15994" transform="translate(-8.776 -8.719)"/>
        <path id="prefix__Path_15995" d="M41.9 66.04a.536.536 0 0 1-.224-.048l-.424-.224a.488.488 0 0 1 .208-.928.5.5 0 0 1 .24.056l.416.216a.488.488 0 0 1-.216.928z" class="prefix__cls-3science" data-name="Path 15995" transform="translate(-8.195 -12.95)"/>
        <circle id="prefix__Ellipse_1686" cx="4.16" cy="4.16" r="4.16" data-name="Ellipse 1686" transform="translate(45.848 25.658)" style="fill:#4696b5"/>
        <circle id="prefix__Ellipse_1687" cx="2.848" cy="2.848" r="2.848" class="prefix__cls-3science" data-name="Ellipse 1687" transform="translate(27.08 47.05)"/>
        <circle id="prefix__Ellipse_1688" cx="1.896" cy="1.896" r="1.896" data-name="Ellipse 1688" transform="translate(29.928 25.93)" style="fill:#fff"/>
        <circle id="prefix__Ellipse_1689" cx="4.408" cy="4.408" r="4.408" data-name="Ellipse 1689" transform="translate(35.56 35.45)" style="fill:#72aac0"/>
    </g>
</svg>
