<svg xmlns="http://www.w3.org/2000/svg" width="20.384" height="20.384" viewBox="0 0 20.384 20.384">
    <path id="prefix__smileys" d="M14.929 8.759a.8.8 0 0 1-.8-.8.4.4 0 0 0-.8 0 .8.8 0 1 1-1.592 0 1.991 1.991 0 1 1 3.981 0 .8.8 0 0 1-.789.8zm-6.25-.8a1.991 1.991 0 0 0-3.981 0 .8.8 0 0 0 1.592 0 .4.4 0 0 1 .8 0 .8.8 0 1 0 1.592 0zm6.786 10.952a.8.8 0 1 0-.825-1.362 8.675 8.675 0 1 1 2.693-2.588.8.8 0 1 0 1.324.885A10.187 10.187 0 0 0 2.985 2.985a10.193 10.193 0 0 0 12.48 15.93zm-1.85-7.33a.794.794 0 0 0-.634.316 4.042 4.042 0 0 1-5.579 0 .8.8 0 1 0-1.184 1.055 5.6 5.6 0 0 0 7.946 0 .8.8 0 0 0-.549-1.372z" style="fill:#203061;opacity:.8"/>
</svg>
