<?xml version="1.0" encoding="utf-8"?>
<!-- Generator: Adobe Illustrator 24.1.2, SVG Export Plug-In . SVG Version: 6.00 Build 0)  -->
<svg version="1.1" id="Layer_1" xmlns="http://www.w3.org/2000/svg" xmlns:xlink="http://www.w3.org/1999/xlink" x="0px" y="0px"
	 viewBox="0 0 100 100" style="enable-background:new 0 0 100 100;" xml:space="preserve">
<style type="text/css">
	.st0{opacity:0.2;fill:#203061;enable-background:new    ;}
	.st1{fill:#FFFFFF;}
</style>
<g id="provider" transform="translate(0.1 0.1)">
	<g id="doctorProfile" transform="translate(-0.1 -0.1)">
		<g id="profi">
			<g id="profile" transform="translate(0 0)">
				<ellipse id="Ellipse_21" class="st0" cx="49.9" cy="49.5" rx="50.1" ry="48.5"/>
			</g>
		</g>
	</g>
</g>
<g>
	<g>
		<g>
			<path class="st1" d="M50.6,27.6c-4.3,0-7.8,3.6-7.8,7.9s3.5,7.8,7.8,7.8s7.8-3.5,7.8-7.8S54.9,27.6,50.6,27.6z"/>
		</g>
	</g>
	<g>
		<g>
			<path class="st1" d="M53.2,43.3h-2.6H48c-1.8,0-3.6,0.5-5.2,1.3c2.7,0.7,5.3,1.8,7.8,3.2c2.5-1.4,5.1-2.5,7.8-3.2
				C56.8,43.8,55.1,43.3,53.2,43.3z"/>
		</g>
	</g>
	<g>
		<g>
			<path class="st1" d="M70.2,51.1c-1.4,0-2.6,1.2-2.6,2.6v5.2c0,1.4,1.2,2.6,2.6,2.6s2.6-1.2,2.6-2.6v-5.2
				C72.8,52.3,71.7,51.1,70.2,51.1z"/>
		</g>
	</g>
	<g>
		<g>
			<path class="st1" d="M31,51.1c-1.4,0-2.6,1.2-2.6,2.6v5.2c0,1.4,1.2,2.6,2.6,2.6s2.6-1.2,2.6-2.6v-5.2
				C33.6,52.3,32.4,51.1,31,51.1z"/>
		</g>
	</g>
	<g>
		<g>
			<path class="st1" d="M32.3,45.9c-0.7,0-1.3,0.6-1.3,1.3v1.3c2.9,0,5.2,2.3,5.2,5.2v5.2c0,2.9-2.3,5.2-5.2,5.2v1.3
				c0,0.7,0.6,1.3,1.3,1.3c6.7,0,12,2.1,17,5.3V50.1C44.3,47.2,38.9,45.9,32.3,45.9z"/>
		</g>
	</g>
	<g>
		<g>
			<path class="st1" d="M70.2,48.5v-1.3c0-0.7-0.6-1.3-1.3-1.3c-6.6,0-12,1.3-17,4.2V72c5-3.2,10.3-5.3,17-5.3
				c0.7,0,1.3-0.6,1.3-1.3v-1.3c-2.9,0-5.2-2.3-5.2-5.2v-5.2C65,50.8,67.4,48.5,70.2,48.5z"/>
		</g>
	</g>
</g>
</svg>
