<?xml version="1.0" encoding="utf-8"?>
<!-- Generator: Adobe Illustrator 24.1.2, SVG Export Plug-In . SVG Version: 6.00 Build 0)  -->
<svg version="1.1" id="Layer_1" xmlns="http://www.w3.org/2000/svg" xmlns:xlink="http://www.w3.org/1999/xlink" x="0px" y="0px"
	 viewBox="0 0 100 100" style="enable-background:new 0 0 100 100;" xml:space="preserve">
<g id="studentSignup" transform="translate(-15.25 0)">
	<g id="Group_21640" transform="translate(15.41 -0.001)">
		<g id="Group_21639" transform="translate(0 0)">
			<path id="Path_12016" d="M91,47V16.7c0-0.4-0.1-0.9-0.3-1.3c0.2-0.3,0.3-0.6,0.3-0.9c0-1.3-0.9-2.4-2.1-2.8l-41-11.6
				c-0.5-0.1-1.1-0.1-1.6,0l-41,11.6c-1.5,0.4-2.4,2.1-2,3.6c0.3,1,1,1.7,2,2l15.5,4.4v3.4c0,3.3,1.8,6.3,4.7,7.7
				c13.7,6.4,29.6,6.4,43.3,0c2.9-1.5,4.7-4.5,4.7-7.7v-3.4l11.7-3.3V47c-3.5,1.2-5.8,4.5-5.9,8.2V61c0,1.6,1.3,2.9,2.9,2.9
				c0,0,0,0,0,0h11.7c1.6,0,2.9-1.3,2.9-2.9c0,0,0,0,0,0v-5.8C96.8,51.5,94.5,48.2,91,47z"/>
		</g>
	</g>
	<g id="Group_21642" transform="translate(25.113 20.664)">
		<g id="Group_21641">
			<path id="Path_12017" d="M61.1,18.2c-15.2,7.3-32.9,7.3-48.1,0c-0.7-0.4-1.3-0.8-1.9-1.3c0.4,9.8,5.8,18.8,14.2,23.9
				c0,0,4.1,1.9,5.4,2.3v0c2.1,0.6,4.2,1,6.4,1c2.7,0,5.3-0.5,7.9-1.5c1.3-0.5,3.9-1.8,3.9-1.8c8.5-5.1,13.8-14,14.2-23.9
				C62.4,17.4,61.8,17.9,61.1,18.2z"/>
		</g>
	</g>
	<g id="Group_21644" transform="translate(35.681 38.427)">
		<g id="Group_21643" transform="translate(0)">
			<path id="Path_12018" d="M26.5,32.3c-2.3,0-4.6-0.3-6.8-0.9l6.8,10.2l6.8-10.2C31,32,28.8,32.3,26.5,32.3z"/>
		</g>
	</g>
	<g id="Group_21646" transform="translate(41.241 36.15)">
		<g id="Group_21645" transform="translate(0)">
			<path id="Path_12019" d="M38.1,29.6c-0.1,0-0.1,0.1-0.2,0.1l-2.4,3.7c0,0.1-11.1,16.8-11.2,16.9v13.6H62c1.6,0,2.9-1.3,2.9-2.9
				l0,0C64.9,45.3,53.5,32,38.1,29.6z M44.6,52.2h-5.8c-1.6,0-2.9-1.3-2.9-2.9c0-1.6,1.3-2.9,2.9-2.9h5.8c1.6,0,2.9,1.3,2.9,2.9
				C47.5,50.9,46.2,52.2,44.6,52.2z"/>
		</g>
	</g>
	<g id="Group_21648" transform="translate(15.25 36.135)">
		<g id="Group_21647" transform="translate(0)">
			<path id="Path_12020" d="M29.9,29.6c0,0-0.1-0.1-0.1-0.1C14.4,32.1,3,45.3,3,61c0,1.6,1.3,2.9,2.9,2.9c0,0,0,0,0,0h37.8V50.3
				C30.5,30.5,33.2,34.5,29.9,29.6z"/>
		</g>
	</g>
</g>
</svg>
