<svg xmlns="http://www.w3.org/2000/svg" id="prefix__target" width="34" height="34" viewBox="0 0 34 34">
    <circle id="prefix__Ellipse_1682" cx="15.946" cy="15.946" r="15.946" fill="#bee8ff" data-name="Ellipse 1682" transform="translate(1.053 1.053)"/>
    <path id="prefix__Path_15819" fill="#18a7fc" d="M29.021 4.979A17 17 0 1 0 4.979 29.021 17 17 0 1 0 29.021 4.979zm2.835 10.968h-6.239a8.7 8.7 0 0 0-7.564-7.563v-6.24a14.916 14.916 0 0 1 13.803 13.803zm-15.909 0H10.51a6.59 6.59 0 0 1 5.437-5.437v5.437zm0 2.106v5.437a6.59 6.59 0 0 1-5.437-5.437h5.437zm2.106 0h5.437a6.59 6.59 0 0 1-5.437 5.437v-5.437zm0-2.106V10.51a6.59 6.59 0 0 1 5.437 5.437zm-2.106-13.8v6.236a8.7 8.7 0 0 0-7.563 7.563h-6.24A14.916 14.916 0 0 1 15.947 2.144zM2.144 18.053h6.239a8.7 8.7 0 0 0 7.563 7.563v6.239A14.916 14.916 0 0 1 2.144 18.053zm15.909 13.8v-6.236a8.7 8.7 0 0 0 7.564-7.563h6.239a14.916 14.916 0 0 1-13.803 13.802z" data-name="Path 15819"/>
    <path id="prefix__Path_15820" fill="#54cbff" d="M256 15.859v31.894a15.947 15.947 0 0 0 0-31.894z" data-name="Path 15820" transform="translate(-239.004 -14.806)"/>
    <path id="prefix__Path_15821" fill="#0074f0" d="M256 0v34a17 17 0 0 0 12.025-29.021A16.889 16.889 0 0 0 256 0zm1.053 10.51a6.59 6.59 0 0 1 5.437 5.437h-5.437zm0 7.543h5.437a6.59 6.59 0 0 1-5.437 5.437zm0 13.8v-6.236a8.7 8.7 0 0 0 7.564-7.563h6.239a14.916 14.916 0 0 1-13.799 13.802zm7.564-15.909a8.7 8.7 0 0 0-7.564-7.563V2.144a14.916 14.916 0 0 1 13.8 13.8z" data-name="Path 15821" transform="translate(-239.004)"/>
</svg>
