<?xml version="1.0" encoding="utf-8"?>
<!-- Generator: Adobe Illustrator 24.2.2, SVG Export Plug-In . SVG Version: 6.00 Build 0)  -->
<svg version="1.1" id="Layer_1" xmlns="http://www.w3.org/2000/svg" xmlns:xlink="http://www.w3.org/1999/xlink" x="0px" y="0px"
	 viewBox="0 0 100 100" style="enable-background:new 0 0 100 100;" xml:space="preserve">
<g id="teams" transform="translate(0.15 -32.85)">
	<g id="Path_16095">
		<path d="M49.9,39.2c-9.8,0-17.7,7.9-17.7,17.7c0,9.7,8,17.7,17.7,17.7c9.8,0,17.7-7.9,17.7-17.7C67.5,47.1,59.6,39.2,49.9,39.2z
			 M49.9,67.1c-5.7,0-10.2-4.6-10.2-10.2c0-5.6,4.6-10.2,10.2-10.2h0.3c5.5,0.2,9.9,4.7,9.9,10.2C60.1,62.5,55.5,67.1,49.9,67.1z"/>
	</g>
	<g id="Path_16096">
		<path d="M83.5,51.6c-6.3,0-11.5,5.2-11.5,11.5c0,6.3,5.2,11.5,11.5,11.5c6.3,0,11.5-5.2,11.5-11.5C95,56.7,89.9,51.6,83.5,51.6z
			 M83.5,67.1c-2.2,0-4-1.8-4-4c0-2.2,1.8-4,4-4h0.4c2,0.2,3.6,1.9,3.6,4C87.5,65.3,85.7,67.1,83.5,67.1z"/>
	</g>
	<g id="Path_16097">
		<path d="M86,78.7h-4.4c-5,0-9.6,2.8-12.1,7.1c-4.5-4.5-10.6-7.1-17-7.1h-5.4c-6.4,0-12.5,2.6-16.9,7.1c-2.4-4.3-7.1-7-12.1-7.1
			h-4.5C6.1,78.7-0.1,85-0.1,92.6v21.2c0,3.6,2.9,6.5,6.5,6.5h16.9c0.6,3.6,3.7,6.2,7.4,6.2h38.4c3.7,0,6.8-2.6,7.4-6.2h16.7
			c3.7,0,6.7-3,6.7-6.7v-21C99.9,85,93.6,78.7,86,78.7z M24.6,94.5c-1.6,4.3-1.6,7.3-1.6,14.5c0,1.2,0,2.5,0,3.9H7.2l0-20.2
			c0-3.6,2.9-6.4,6.5-6.4h4.5c3.5,0,6.5,2.9,6.5,6.4V94.5z M47.2,86.2h5.4c9.2,0,16.7,7.6,16.7,16.8v15.9c0,0.1-0.1,0.2-0.1,0.2
			H30.6c-0.1,0-0.1-0.1-0.1-0.2V103C30.5,93.8,37.9,86.2,47.2,86.2z M86.5,112.8h-9.9c0-1.4,0-2.7,0-3.9c0.1-7.1,0.1-10.1-1.5-14.5
			v-1.8c0-3.6,2.9-6.4,6.5-6.5H86c3.5,0,6.4,2.9,6.4,6.5l0,20.2C91.6,112.8,89.7,112.8,86.5,112.8z"/>
	</g>
	<g id="Path_16098">
		<path d="M16.2,51.6c-6.3,0-11.5,5.2-11.5,11.5c0,6.3,5.2,11.5,11.5,11.5c6.3,0,11.5-5.2,11.5-11.5C27.7,56.7,22.5,51.6,16.2,51.6z
			 M16.2,67.1c-2.2,0-4-1.8-4-4c0-2.2,1.8-4,4-4h0.4c2,0.2,3.6,1.9,3.6,4C20.2,65.3,18.4,67.1,16.2,67.1z"/>
	</g>
</g>
</svg>
