<?xml version="1.0" encoding="utf-8"?>
<!-- Generator: Adobe Illustrator 24.1.1, SVG Export Plug-In . SVG Version: 6.00 Build 0)  -->
<svg version="1.1" id="Layer_1" xmlns="http://www.w3.org/2000/svg" xmlns:xlink="http://www.w3.org/1999/xlink" x="0px" y="0px"
	 viewBox="0 0 100 100" style="enable-background:new 0 0 100 100;" xml:space="preserve">
<style type="text/css">
	.stTileViewOut{fill:#FFFFFF;}
	.tileOut1{fill:none;}
	.tileOut2{fill:#203061;}
</style>
<g id="tileViewOut" transform="translate(-1148 -880)">
	<path id="Path_12107" class="stTileViewOut" d="M1198,880c27.6,0,50,22.4,50,50s-22.4,50-50,50s-50-22.4-50-50S1170.4,880,1198,880z"/>
	<g id="interface" transform="translate(1168 902)">
		<g id="Group_21710">
			<g id="Group_21709">
				<g id="Path_12078">
					<path class="tileOut1" d="M24.8,9.4H10c-0.8,0-1.5,0.7-1.5,1.5c0,0,0,0,0,0v14.8c0,0.8,0.7,1.5,1.5,1.5c0,0,0,0,0,0h14.8
						c0.8,0,1.5-0.7,1.5-1.5c0,0,0,0,0,0V10.9C26.3,10.1,25.6,9.4,24.8,9.4C24.8,9.4,24.8,9.4,24.8,9.4z"/>
					<path class="tileOut2" d="M11.4,12.3v12h12v-12H11.4L11.4,12.3z M10,9.4h14.8c0.8,0,1.5,0.7,1.5,1.5v14.8c0,0.8-0.7,1.5-1.5,1.5H10
						c-0.8,0-1.5-0.7-1.5-1.5V10.9C8.6,10.1,9.2,9.4,10,9.4z"/>
				</g>
				<g id="Path_12079" transform="translate(-132.332)">
					<path class="tileOut1" d="M177.1,9.4h-14.8c-0.8,0-1.5,0.7-1.5,1.5c0,0,0,0,0,0v14.8c0,0.8,0.7,1.5,1.5,1.5l0,0h14.8
						c0.8,0,1.5-0.7,1.5-1.5c0,0,0,0,0,0V10.9C178.5,10.1,177.9,9.4,177.1,9.4z"/>
					<path class="tileOut2" d="M163.7,12.3v12h12v-12H163.7L163.7,12.3z M162.3,9.4h14.8c0.8,0,1.5,0.7,1.5,1.5v14.8
						c0,0.8-0.7,1.5-1.5,1.5h-14.8c-0.8,0-1.5-0.7-1.5-1.5V10.9C160.8,10.1,161.5,9.4,162.3,9.4z"/>
				</g>
				<g id="Path_12080" transform="translate(0 -132.333)">
					<path class="tileOut1" d="M24.8,161.7H10c-0.8,0-1.5,0.7-1.5,1.5c0,0,0,0,0,0v14.8c0,0.8,0.7,1.5,1.5,1.5c0,0,0,0,0,0h14.8
						c0.8,0,1.5-0.7,1.5-1.5c0,0,0,0,0,0v-14.8C26.3,162.4,25.6,161.7,24.8,161.7C24.8,161.7,24.8,161.7,24.8,161.7z"/>
					<path class="tileOut2" d="M11.4,164.6v12h12v-12H11.4L11.4,164.6z M10,161.7h14.8c0.8,0,1.5,0.7,1.5,1.5v14.8c0,0.8-0.7,1.5-1.5,1.5
						H10c-0.8,0-1.5-0.7-1.5-1.5v-14.8C8.6,162.4,9.2,161.7,10,161.7z"/>
				</g>
				<g id="Path_12081" transform="translate(-132.332 -132.333)">
					<path class="tileOut1" d="M177.1,161.7h-14.8c-0.8,0-1.5,0.7-1.5,1.5c0,0,0,0,0,0v14.8c0,0.8,0.7,1.5,1.5,1.5c0,0,0,0,0,0h14.8
						c0.8,0,1.5-0.7,1.5-1.5c0,0,0,0,0,0v-14.8C178.5,162.4,177.9,161.7,177.1,161.7z"/>
					<path class="tileOut2" d="M163.7,164.6v12h12v-12H163.7L163.7,164.6z M162.3,161.7h14.8c0.8,0,1.5,0.7,1.5,1.5v14.8
						c0,0.8-0.7,1.5-1.5,1.5h-14.8c-0.8,0-1.5-0.7-1.5-1.5v-14.8C160.8,162.4,161.5,161.7,162.3,161.7z"/>
				</g>
			</g>
		</g>
	</g>
</g>
</svg>
