<?xml version="1.0" encoding="utf-8"?>
<!-- Generator: Adobe Illustrator 24.1.1, SVG Export Plug-In . SVG Version: 6.00 Build 0)  -->
<svg version="1.1" id="Layer_1" xmlns="http://www.w3.org/2000/svg" xmlns:xlink="http://www.w3.org/1999/xlink" x="0px" y="0px"
	 viewBox="0 0 100 100" style="enable-background:new 0 0 100 100;" xml:space="preserve">
<style type="text/css">
	.st0tileView{opacity:0;fill:#FFFFFF;}
	.st1tileView{fill:none;}
	.st2tileView{fill:#FFFFFF;}
</style>
<path id="Path_12107" class="st0tileView" d="M50,0c27.6,0,50,22.4,50,50s-22.4,50-50,50S0,77.6,0,50S22.4,0,50,0z"/>
<g id="Group_21710_1_">
	<g id="Group_21709_1_">
		<g id="Path_12078_1_">
			<path class="st1tileView" d="M44.8,31.4H30c-0.8,0-1.5,0.7-1.5,1.5l0,0v14.8c0,0.8,0.6,1.5,1.5,1.5l0,0h14.8c0.8,0,1.5-0.6,1.5-1.5l0,0
				V32.9C46.3,32.1,45.6,31.4,44.8,31.4L44.8,31.4z"/>
			<path class="st2tileView" d="M31.4,34.3v12.1h12.1V34.3H31.4L31.4,34.3z M30,31.4h14.8c0.8,0,1.5,0.7,1.5,1.5v14.8c0,0.8-0.7,1.5-1.5,1.5
				H30c-0.8,0-1.5-0.6-1.5-1.5V32.9C28.5,32.1,29.2,31.4,30,31.4z"/>
		</g>
		<g id="Path_12079_1_" transform="translate(-132.332)">
			<path class="st1tileView" d="M197.1,31.4h-14.8c-0.8,0-1.5,0.7-1.5,1.5l0,0v14.8c0,0.8,0.7,1.5,1.5,1.5l0,0h14.8c0.8,0,1.5-0.7,1.5-1.5
				l0,0V32.9C198.6,32.1,198,31.4,197.1,31.4z"/>
			<path class="st2tileView" d="M183.7,34.3v12.1h12.1V34.3H183.7L183.7,34.3z M182.3,31.4h14.8c0.8,0,1.5,0.7,1.5,1.5v14.8
				c0,0.8-0.7,1.5-1.5,1.5h-14.8c-0.8,0-1.5-0.7-1.5-1.5V32.9C180.8,32.1,181.5,31.4,182.3,31.4z"/>
		</g>
		<g id="Path_12080_1_" transform="translate(0 -132.333)">
			<path class="st1tileView" d="M44.8,183.7H30c-0.8,0-1.5,0.7-1.5,1.5l0,0V200c0,0.8,0.7,1.5,1.5,1.5l0,0h14.8c0.8,0,1.5-0.6,1.5-1.5l0,0
				v-14.8C46.3,184.4,45.6,183.7,44.8,183.7L44.8,183.7z"/>
			<path class="st2tileView" d="M31.4,186.6v12.1h12.1v-12.1H31.4L31.4,186.6z M30,183.7h14.8c0.8,0,1.5,0.7,1.5,1.5V200
				c0,0.8-0.7,1.5-1.5,1.5H30c-0.8,0-1.5-0.7-1.5-1.5v-14.8C28.5,184.4,29.2,183.7,30,183.7z"/>
		</g>
		<g id="Path_12081_1_" transform="translate(-132.332 -132.333)">
			<path class="st1tileView" d="M197.1,183.7h-14.8c-0.8,0-1.5,0.7-1.5,1.5l0,0V200c0,0.8,0.7,1.5,1.5,1.5l0,0h14.8c0.8,0,1.5-0.7,1.5-1.5
				l0,0v-14.8C198.6,184.4,198,183.7,197.1,183.7z"/>
			<path class="st2tileView" d="M183.7,186.6v12.1h12.1v-12.1H183.7L183.7,186.6z M182.3,183.7h14.8c0.8,0,1.5,0.7,1.5,1.5V200
				c0,0.8-0.7,1.5-1.5,1.5h-14.8c-0.8,0-1.5-0.7-1.5-1.5v-14.8C180.8,184.4,181.5,183.7,182.3,183.7z"/>
		</g>
	</g>
</g>
</svg>
