<svg xmlns="http://www.w3.org/2000/svg" width="16.188" height="16.231" viewBox="0 0 16.188 16.231">
  <g id="edit_4_" data-name="edit (4)" transform="translate(-0.512 0)">
    <g id="Group_22896" data-name="Group 22896" transform="translate(2.815 2.284)">
      <g id="Group_22895" data-name="Group 22895" transform="translate(0 0)">
        <rect id="Rectangle_3013" data-name="Rectangle 3013" width="10.759" height="5.685" transform="translate(0 7.608) rotate(-45)"/>
      </g>
    </g>
    <g id="Group_22898" data-name="Group 22898" transform="translate(11.153 0)">
      <g id="Group_22897" data-name="Group 22897" transform="translate(0 0)">
        <path id="Path_16208" data-name="Path 16208" d="M264.592,3.235,261.623.224A.731.731,0,0,0,260.591.2l-.021.021-1.305,1.305,4.021,4.043,1.305-1.305A.712.712,0,0,0,264.592,3.235Z" transform="translate(-259.265 0)"/>
      </g>
    </g>
    <g id="Group_22900" data-name="Group 22900" transform="translate(0.513 10.772)">
      <g id="Group_22899" data-name="Group 22899" transform="translate(0)">
        <path id="Path_16209" data-name="Path 16209" d="M2.226,261.954.563,266.418a.731.731,0,0,0,.421.947.755.755,0,0,0,.526,0l4.464-1.684Z" transform="translate(-0.513 -261.954)"/>
      </g>
    </g>
  </g>
</svg>
