<?xml version="1.0" encoding="utf-8"?>
<!-- Generator: Adobe Illustrator 24.1.2, SVG Export Plug-In . SVG Version: 6.00 Build 0)  -->
<svg version="1.1" id="Layer_1" xmlns="http://www.w3.org/2000/svg" xmlns:xlink="http://www.w3.org/1999/xlink" x="0px" y="0px"
	 viewBox="0 0 200 200" style="enable-background:new 0 0 200 200;" xml:space="preserve">
<style type="text/css">
	.st0placeholder{opacity:0.2;fill:#203061;enable-background:new    ;}
	.st1placeholder{fill:#FFFFFF;}
</style>
<g id="doctorProfile" transform="translate(1348 -3720)">
	<g id="profi">
		<g id="profile" transform="translate(-1348 3718.6)">
			<circle id="Ellipse_21" class="st0placeholder" cx="100" cy="101.3" r="100"/>
		</g>
	</g>
</g>
<g>
	<path class="st1placeholder" d="M99.2,98.3c6,0,11.2-2.2,15.5-6.4c4.3-4.3,6.4-9.5,6.4-15.5c0-6-2.2-11.2-6.4-15.5c-4.3-4.3-9.5-6.4-15.5-6.4
		c-6,0-11.2,2.2-15.5,6.4c-4.3,4.3-6.4,9.5-6.4,15.5c0,6,2.2,11.2,6.4,15.5C88,96.1,93.2,98.3,99.2,98.3z"/>
	<path class="st1placeholder" d="M137.4,124.3c-0.1-1.8-0.4-3.7-0.7-5.7c-0.4-2.1-0.8-4-1.4-5.8c-0.6-1.8-1.4-3.6-2.4-5.4
		c-1-1.8-2.2-3.4-3.6-4.7c-1.4-1.4-3.1-2.4-5.1-3.2c-2-0.8-4.2-1.2-6.6-1.2c-0.9,0-1.8,0.4-3.6,1.5c-1.1,0.7-2.3,1.5-3.7,2.4
		c-1.2,0.8-2.8,1.5-4.8,2.1c-1.9,0.6-3.9,0.9-5.9,0.9c-1.9,0-3.9-0.3-5.9-0.9c-2-0.6-3.6-1.4-4.8-2.1c-1.4-0.9-2.6-1.7-3.7-2.4
		c-1.7-1.1-2.6-1.5-3.6-1.5c-2.4,0-4.6,0.4-6.6,1.2c-2,0.8-3.7,1.9-5.1,3.2c-1.3,1.3-2.6,2.9-3.6,4.7c-1,1.7-1.8,3.5-2.4,5.4
		c-0.6,1.8-1,3.7-1.4,5.8c-0.4,2-0.6,4-0.7,5.7c-0.1,1.7-0.2,3.5-0.2,5.4c0,4.7,1.5,8.6,4.5,11.4c2.9,2.8,6.8,4.2,11.5,4.2h43.7
		c4.7,0,8.6-1.4,11.5-4.2c3-2.8,4.5-6.7,4.5-11.4C137.6,127.9,137.6,126.1,137.4,124.3z"/>
</g>
</svg>
