<svg xmlns="http://www.w3.org/2000/svg" width="24.5" height="24.5" viewBox="0 0 24.5 24.5">
  <g id="play-button_3_" data-name="play-button (3)" transform="translate(0.25 0.25)">
    <path id="Path_16166" data-name="Path 16166" d="M31.425,20.07l-8.8-6A.4.4,0,0,0,22,14.4v12a.4.4,0,0,0,.625.33l8.8-6a.4.4,0,0,0,0-.661ZM22.8,25.643V15.158L30.49,20.4Z" transform="translate(-13.2 -8.4)" fill="#203061" stroke="#203061" stroke-width="0.5"/>
    <path id="Path_16167" data-name="Path 16167" d="M12,0A12,12,0,1,0,24,12,12.014,12.014,0,0,0,12,0Zm0,23.2A11.2,11.2,0,1,1,23.2,12,11.213,11.213,0,0,1,12,23.2Z" fill="#203061" stroke="#203061" stroke-width="0.5"/>
  </g>
</svg>
