<svg id="Layer_1" data-name="Layer 1" xmlns="http://www.w3.org/2000/svg" viewBox="0 0 100 100"><defs><style>.zip-1{fill:#e2e5e7;}.zip-2{fill:#b0b7bd;}.zip-3{fill:#cad1d8;}.zip-4{fill:#84bd5a;}.zip-5{fill:#fff;}</style></defs><path class="zip-1" d="M24.92-.16a6.29,6.29,0,0,0-6.27,6.27V93.89a6.29,6.29,0,0,0,6.27,6.27h62.7a6.29,6.29,0,0,0,6.27-6.27v-69L68.81-.16Z"/><path class="zip-2" d="M75.08,24.92H93.89L68.81-.16V18.65A6.29,6.29,0,0,0,75.08,24.92Z"/><polygon class="zip-3" points="93.89 43.73 75.08 24.92 93.89 24.92 93.89 43.73"/><path class="zip-4" d="M81.35,81.35a3.14,3.14,0,0,1-3.13,3.14h-69a3.14,3.14,0,0,1-3.13-3.14V50a3.15,3.15,0,0,1,3.13-3.14h69A3.15,3.15,0,0,1,81.35,50Z"/><path class="zip-5" d="M25.83,75.08a1.55,1.55,0,0,1-1.31-2.6l8.93-11.86h-7.4a1.54,1.54,0,1,1,0-3.08h10.1c1.91,0,2.46,1.8,1.11,3.26L28.71,71.9h8.15a1.6,1.6,0,1,1-.2,3.19H25.83Z"/><path class="zip-5" d="M41.39,59.24c0-2.06,3.31-2.13,3.31,0V73.55c0,2.08-3.31,2.13-3.31,0Z"/><path class="zip-5" d="M49.14,59.24a1.72,1.72,0,0,1,1.71-1.73h5.79a6.27,6.27,0,0,1,0,12.53H52.45v3.31a1.57,1.57,0,0,1-1.6,1.73,1.69,1.69,0,0,1-1.71-1.73V59.24Zm3.31,1.43v6.24h4.18a3.12,3.12,0,0,0,0-6.24Z"/><path class="zip-3" d="M78.22,84.49H18.65v3.13H78.22a3.14,3.14,0,0,0,3.13-3.13V81.35A3.14,3.14,0,0,1,78.22,84.49Z"/></svg>
