<?xml version="1.0" encoding="utf-8"?>
<!-- Generator: Adobe Illustrator 24.1.2, SVG Export Plug-In . SVG Version: 6.00 Build 0)  -->
<svg version="1.1" id="Layer_1" xmlns="http://www.w3.org/2000/svg" xmlns:xlink="http://www.w3.org/1999/xlink" x="0px" y="0px"
	 viewBox="0 0 100 100" style="enable-background:new 0 0 100 100;" xml:space="preserve">
<path id="add" class="add0" d="M50,0C22.4,0,0,22.4,0,50s22.4,50,50,50s50-22.4,50-50C100,22.4,77.6,0,50,0z M71.9,54.2H54.2v17.7
	c-0.1,2.3-2,4.1-4.3,4c-2.2-0.1-4-1.8-4-4V54.2H28.1c-2.3,0.1-4.2-1.7-4.3-4c-0.1-2.3,1.7-4.2,4-4.3c0.1,0,0.2,0,0.3,0h17.7V28.1
	c-0.1-2.3,1.7-4.2,4-4.3c2.3-0.1,4.2,1.7,4.3,4c0,0.1,0,0.2,0,0.3v17.7h17.7c2.3,0.1,4.1,2,4,4.3C75.8,52.3,74.1,54.1,71.9,54.2
	L71.9,54.2z"/>
</svg>
