<?xml version="1.0" encoding="utf-8"?>
<!-- Generator: Adobe Illustrator 24.1.3, SVG Export Plug-In . SVG Version: 6.00 Build 0)  -->
<svg version="1.1" id="Layer_1" xmlns="http://www.w3.org/2000/svg" xmlns:xlink="http://www.w3.org/1999/xlink" x="0px" y="0px"
	 viewBox="0 0 100 100" style="enable-background:new 0 0 100 100;" xml:space="preserve">
<g id="provider" transform="translate(204.22 24.415)">
	<g id="Group_21684" transform="translate(0.453 2.09)">
		<path id="Path_12029" d="M-109.7,22.2h-23.5V7.8c0-0.9-0.3-1.7-1-2.3l-17.4-17.4v-11.3c0-1.8-1.5-3.3-3.3-3.3c0,0,0,0,0,0
			c-1.8,0-3.3,1.5-3.3,3.3c0,0,0,0,0,0v11.3l-17.1,17.8c-0.6,0.6-0.9,1.4-0.9,2.3v14h-23.5c-1.8,0-3.3,1.5-3.3,3.3c0,0,0,0,0,0v44.7
			c0,1.8,1.5,3.3,3.3,3.3c0,0,0,0,0,0h90.1c1.8,0,3.3-1.5,3.3-3.3c0,0,0,0,0,0V25.5C-106.3,23.7-107.8,22.2-109.7,22.2
			C-109.6,22.2-109.7,22.2-109.7,22.2z M-176.2,66.9h-20.2v-38h20.2V66.9z M-139.8,66.9h-11.8V46c0-1.8-1.5-3.3-3.3-3.3c0,0,0,0,0,0
			c-1.8,0-3.3,1.5-3.3,3.3c0,0,0,0,0,0v20.9h-11.4V9.5l14.8-15.4l15,15V66.9z M-113,66.9h-20.2v-38h20.2V66.9z"/>
	</g>
</g>
</svg>
