<?xml version="1.0" encoding="utf-8"?>
<!-- Generator: Adobe Illustrator 24.1.0, SVG Export Plug-In . SVG Version: 6.00 Build 0)  -->
<svg version="1.1" id="Layer_1" xmlns="http://www.w3.org/2000/svg" xmlns:xlink="http://www.w3.org/1999/xlink" x="0px" y="0px"
	 viewBox="0 0 100 100" style="enable-background:new 0 0 100 100;" xml:space="preserve">
<style type="text/css">
	.applicationSt0{fill:#E8EBF3;}
	.applicationSt1{fill:#203061;}
</style>
<g id="applicationType" transform="translate(-362 -281)">
	<path id="Rectangle_18" class="applicationSt0" d="M412,281L412,281c27.6,0,50,22.4,50,50l0,0c0,27.6-22.4,50-50,50l0,0c-27.6,0-50-22.4-50-50
		l0,0C362,303.4,384.4,281,412,281z"/>
	<g id="oven" transform="translate(360.4 286.25)">
		<path id="Path_11245" class="applicationSt1" d="M67.7,35.9H38c-0.4,0-0.7,0.3-0.7,0.7l0,0V62c0,0.4,0.3,0.7,0.7,0.7c0,0,0,0,0,0h29.6
			c0.4,0,0.7-0.3,0.7-0.7l0,0V36.5C68.3,36.2,68,35.9,67.7,35.9L67.7,35.9z M67,37.2v17.3H38.7V37.2H67z M38.7,61.4v-5.6H67v5.6
			H38.7z"/>
		<path id="Path_11246" class="applicationSt1" d="M46.4,40.6h12.9c0.4,0,0.7-0.3,0.7-0.7s-0.3-0.7-0.7-0.7H46.4c-0.4,0-0.7,0.3-0.7,0.7
			S46.1,40.6,46.4,40.6z"/>
		<path id="Path_11247" class="applicationSt1" d="M43,24.9c-1.6,0-2.9,1.3-2.9,2.9c0,1.6,1.3,2.9,2.9,2.9c1.6,0,2.9-1.3,2.9-2.9
			C45.9,26.2,44.6,24.9,43,24.9C43,24.9,43,24.9,43,24.9z M43,29.4c-0.9,0-1.6-0.7-1.6-1.6c0-0.9,0.7-1.6,1.6-1.6
			c0.9,0,1.6,0.7,1.6,1.6l0,0C44.6,28.7,43.9,29.4,43,29.4z"/>
		<path id="Path_11248" class="applicationSt1" d="M62.7,24.9c-1.6,0-2.9,1.3-2.9,2.9c0,1.6,1.3,2.9,2.9,2.9c1.6,0,2.9-1.3,2.9-2.9
			C65.6,26.2,64.3,24.9,62.7,24.9C62.7,24.9,62.7,24.9,62.7,24.9z M62.7,29.4c-0.9,0-1.6-0.7-1.6-1.6c0-0.9,0.7-1.6,1.6-1.6
			c0.9,0,1.6,0.7,1.6,1.6c0,0,0,0,0,0C64.3,28.7,63.6,29.4,62.7,29.4z"/>
		<path id="Path_11249" class="applicationSt1" d="M56.6,26h-7.5c-0.4,0-0.7,0.3-0.7,0.7c0,0,0,0,0,0v2.2c0,0.4,0.3,0.7,0.7,0.7l0,0h7.5
			c0.4,0,0.7-0.3,0.7-0.6v-2.2C57.3,26.3,57,26,56.6,26C56.6,26,56.6,26,56.6,26z M55.9,28.3h-6.2v-0.9h6.2V28.3z"/>
		<path id="Path_11250" class="applicationSt1" d="M71,21.8H34.7c-0.4,0-0.7,0.3-0.7,0.7v43c0,0.4,0.3,0.7,0.7,0.7l0,0h36.4
			c0.4,0,0.7-0.3,0.7-0.7c0,0,0,0,0,0v-43C71.7,22.1,71.4,21.8,71,21.8L71,21.8L71,21.8z M35.3,23.1h35v9.4h-35V23.1z M35.3,64.7
			V33.8h35v30.9H35.3z"/>
	</g>
</g>
</svg>
