<svg id="ios" xmlns="http://www.w3.org/2000/svg" width="224.236" height="66.44" viewBox="0 0 224.236 66.44">
  <path id="Path_121" data-name="Path 121" d="M216.264,66.44H7.89A7.886,7.886,0,0,1,0,58.551V7.89A7.834,7.834,0,0,1,7.89,0H216.264a7.957,7.957,0,0,1,7.973,7.89V58.634A8,8,0,0,1,216.264,66.44Z" fill="#a6a6a6"/>
  <path id="Path_122" data-name="Path 122" d="M222.964,58.839a6.4,6.4,0,0,1-6.395,6.395H8.195A6.4,6.4,0,0,1,1.8,58.839V8.095A6.4,6.4,0,0,1,8.195,1.7H216.569a6.4,6.4,0,0,1,6.395,6.395Z" transform="translate(-0.305 -0.288)" fill="#fff"/>
  <path id="Path_123" data-name="Path 123" d="M54.41,34.99a9.574,9.574,0,0,1,4.568-8.056A10.045,10.045,0,0,0,51.254,22.7c-3.239-.332-6.478,1.993-8.139,1.993s-4.236-1.91-7.059-1.827a10.325,10.325,0,0,0-8.72,5.315c-3.737,6.478-1,16.112,2.658,21.344,1.827,2.575,3.9,5.481,6.644,5.4,2.658-.083,3.737-1.744,6.976-1.744s4.153,1.744,6.976,1.661c2.907-.083,4.734-2.575,6.478-5.232a26.246,26.246,0,0,0,2.99-5.98c-.083-.166-5.647-2.242-5.647-8.637ZM49.1,19.21a9.869,9.869,0,0,0,2.159-6.81,9.752,9.752,0,0,0-6.229,3.239A9.047,9.047,0,0,0,42.783,22.2,8.06,8.06,0,0,0,49.1,19.21ZM93.444,54.424H89.707l-2.076-6.478H80.488l-2.076,6.478H74.758L81.9,32.332h4.4l7.142,22.091ZM86.966,45.2l-1.827-5.73c-.166-.581-.581-1.993-1.08-4.153h-.083c-.249.914-.581,2.325-1.08,4.153L81.07,45.288Zm24.749,1.08a9.16,9.16,0,0,1-2.159,6.395,6.347,6.347,0,0,1-4.9,2.076,4.849,4.849,0,0,1-4.485-2.242h-.083V60.9H96.517V43.71c0-1.744-.083-3.488-.166-5.232h3.156l.166,2.492h.083a6.357,6.357,0,0,1,10.132-.581,8.942,8.942,0,0,1,1.827,5.9Zm-3.571.083a6.127,6.127,0,0,0-1.08-3.82,3.57,3.57,0,0,0-3.073-1.578,4.218,4.218,0,0,0-2.408.831,4.022,4.022,0,0,0-1.412,2.242,6.907,6.907,0,0,0-.166,1.08V47.78a3.947,3.947,0,0,0,1.08,2.907,3.766,3.766,0,0,0,2.741,1.163,3.615,3.615,0,0,0,3.156-1.578,5.763,5.763,0,0,0,1.163-3.9Zm21.925-.083a9.16,9.16,0,0,1-2.159,6.395,6.347,6.347,0,0,1-4.9,2.076,4.849,4.849,0,0,1-4.485-2.242h-.083V60.9h-3.571V43.71c0-1.744-.083-3.488-.166-5.232h3.156l.166,2.492h.083a6.357,6.357,0,0,1,10.132-.581,9.421,9.421,0,0,1,1.827,5.9Zm-3.571.083a6.126,6.126,0,0,0-1.08-3.82,3.57,3.57,0,0,0-3.073-1.578,4.218,4.218,0,0,0-2.408.831,4.022,4.022,0,0,0-1.412,2.242,6.907,6.907,0,0,0-.166,1.08V47.78a3.947,3.947,0,0,0,1.08,2.907,3.471,3.471,0,0,0,2.741,1.163,3.616,3.616,0,0,0,3.156-1.578,6.236,6.236,0,0,0,1.163-3.9Zm24.085,1.827a5.74,5.74,0,0,1-1.993,4.568c-1.412,1.329-3.405,1.91-5.98,1.91a9.774,9.774,0,0,1-5.73-1.412l.831-2.99a9.988,9.988,0,0,0,5.149,1.412,5.093,5.093,0,0,0,3.156-.914,2.884,2.884,0,0,0,1.08-2.408,3.067,3.067,0,0,0-.914-2.242,9.993,9.993,0,0,0-3.073-1.744c-3.9-1.412-5.814-3.571-5.814-6.312a5.687,5.687,0,0,1,1.993-4.485,7.96,7.96,0,0,1,5.4-1.744,10.06,10.06,0,0,1,4.983,1.08l-.914,2.907a8.859,8.859,0,0,0-4.236-1,4.347,4.347,0,0,0-2.907.914,2.791,2.791,0,0,0-.914,1.993,2.678,2.678,0,0,0,1,2.159,13.367,13.367,0,0,0,3.239,1.744,11.265,11.265,0,0,1,4.236,2.658,6.09,6.09,0,0,1,1.412,3.9Zm11.71-7.059h-3.9v7.724c0,1.993.664,2.99,2.076,2.99a7.644,7.644,0,0,0,1.578-.166l.083,2.658a7.92,7.92,0,0,1-2.741.415,4.133,4.133,0,0,1-3.239-1.246,6.554,6.554,0,0,1-1.163-4.319V41.135h-2.325V38.478h2.325V35.571l3.488-1.08v3.986h3.9ZM179.9,46.368a8.678,8.678,0,0,1-2.076,6.063,7.355,7.355,0,0,1-5.814,2.408,6.924,6.924,0,0,1-5.564-2.325,8.792,8.792,0,0,1-2.076-5.9,8.727,8.727,0,0,1,2.159-6.063,7.337,7.337,0,0,1,5.814-2.325,7.214,7.214,0,0,1,5.647,2.325,8.6,8.6,0,0,1,1.91,5.814Zm-3.654.083a7.874,7.874,0,0,0-.914-3.82,3.631,3.631,0,0,0-6.395,0,7.049,7.049,0,0,0-.914,3.82,7.873,7.873,0,0,0,.914,3.82,3.631,3.631,0,0,0,6.395,0A7.874,7.874,0,0,0,176.245,46.451Zm15.115-4.817a4.735,4.735,0,0,0-1.08-.083,3.435,3.435,0,0,0-2.907,1.412,5.451,5.451,0,0,0-.914,3.156v8.305H182.89V43.544c0-1.827-.083-3.488-.166-4.983H185.8l.166,3.073h.083a5.034,5.034,0,0,1,1.744-2.492,4.15,4.15,0,0,1,2.575-.831,3.114,3.114,0,0,1,.914.083l.083,3.239ZM207.223,45.7a7.645,7.645,0,0,1-.166,1.578h-10.63A4.665,4.665,0,0,0,198,50.852a5.308,5.308,0,0,0,3.488,1.08,12.093,12.093,0,0,0,4.319-.747l.581,2.492a13.194,13.194,0,0,1-5.315,1,7.835,7.835,0,0,1-5.814-2.159,8.052,8.052,0,0,1-2.076-5.814,8.964,8.964,0,0,1,1.993-5.98,6.74,6.74,0,0,1,5.564-2.575,5.838,5.838,0,0,1,5.232,2.575,10.045,10.045,0,0,1,1.246,4.983Zm-3.405-.914a4.8,4.8,0,0,0-.664-2.741,3.077,3.077,0,0,0-2.824-1.495,3.5,3.5,0,0,0-2.824,1.412,5.779,5.779,0,0,0-1.08,2.741ZM85.8,18.712a5.4,5.4,0,0,1-1.744,4.4,7.056,7.056,0,0,1-4.651,1.329,12.18,12.18,0,0,1-2.575-.166V13.729a16.742,16.742,0,0,1,2.99-.249,6.533,6.533,0,0,1,4.319,1.246A4.955,4.955,0,0,1,85.8,18.712Zm-1.827.083a3.982,3.982,0,0,0-1-2.907,3.982,3.982,0,0,0-2.907-1,7.161,7.161,0,0,0-1.412.083v8.139c.249,0,.581.083,1.163.083a4.089,4.089,0,0,0,3.073-1.08A4.58,4.58,0,0,0,83.976,18.795ZM95.52,20.456a4.482,4.482,0,0,1-1,2.99,3.592,3.592,0,0,1-2.907,1.163,3.507,3.507,0,0,1-2.741-1.163,4.26,4.26,0,0,1-1-2.907,4.016,4.016,0,0,1,1.08-2.99,3.817,3.817,0,0,1,2.824-1.163,3.507,3.507,0,0,1,2.741,1.163,4.26,4.26,0,0,1,1,2.907Zm-1.827,0a3.158,3.158,0,0,0-.5-1.827,1.633,1.633,0,0,0-1.578-.914,1.781,1.781,0,0,0-1.578.914,3.44,3.44,0,0,0-.5,1.91,3.158,3.158,0,0,0,.5,1.827,1.712,1.712,0,0,0,1.578.914,1.881,1.881,0,0,0,1.578-.914A3.44,3.44,0,0,0,93.693,20.456Zm14.866-3.9-2.408,7.807h-1.578l-1-3.405c-.249-.831-.5-1.661-.664-2.492a13.838,13.838,0,0,1-.664,2.492l-1.08,3.405H99.59l-2.325-7.807h1.827l.914,3.737a16.484,16.484,0,0,1,.5,2.492c.166-.664.332-1.495.664-2.492l1.08-3.737h1.412l1.08,3.654c.249.914.5,1.744.664,2.575h.083c.083-.831.332-1.661.5-2.575l.914-3.654h1.661Zm9.053,7.89h-1.744V19.958c0-1.412-.5-2.076-1.578-2.076a1.494,1.494,0,0,0-1.246.581,2.036,2.036,0,0,0-.5,1.329v4.651H110.8V18.878a21.785,21.785,0,0,0-.083-2.242h1.495l.083,1.246h.083a1.948,1.948,0,0,1,.914-.914,2.656,2.656,0,0,1,1.578-.415,2.442,2.442,0,0,1,1.827.747,3.461,3.461,0,0,1,.914,2.575Zm4.817,0h-1.744V12.981h1.744Zm10.215-3.986a4.482,4.482,0,0,1-1,2.99,3.592,3.592,0,0,1-2.907,1.163A3.507,3.507,0,0,1,126,23.446a4.26,4.26,0,0,1-1-2.907,4.016,4.016,0,0,1,1.08-2.99,3.817,3.817,0,0,1,2.824-1.163,3.507,3.507,0,0,1,2.741,1.163A4.26,4.26,0,0,1,132.644,20.456Zm-1.827,0a3.158,3.158,0,0,0-.5-1.827,1.633,1.633,0,0,0-1.578-.914,1.781,1.781,0,0,0-1.578.914,3.44,3.44,0,0,0-.5,1.91,3.158,3.158,0,0,0,.5,1.827,1.712,1.712,0,0,0,1.578.914,1.881,1.881,0,0,0,1.578-.914A3.441,3.441,0,0,0,130.817,20.456Zm10.3,3.986h-1.578l-.166-.914h-.083a2.631,2.631,0,0,1-2.325,1.08,2.442,2.442,0,0,1-1.827-.747,2.192,2.192,0,0,1-.581-1.578,2.408,2.408,0,0,1,1.163-2.159,6.472,6.472,0,0,1,3.405-.747V19.21a1.468,1.468,0,0,0-1.661-1.578,3.749,3.749,0,0,0-2.076.581l-.332-1.163a5.478,5.478,0,0,1,2.658-.664c2.076,0,3.073,1.08,3.073,3.239v2.907C140.949,23.363,141.032,23.944,141.115,24.442ZM139.288,21.7V20.456c-1.91,0-2.907.5-2.907,1.578a1.035,1.035,0,0,0,.332.914,1.476,1.476,0,0,0,.831.332,1.669,1.669,0,0,0,1.08-.332,1.579,1.579,0,0,0,.581-.914C139.288,21.951,139.288,21.868,139.288,21.7ZM151,24.442H149.42l-.083-1.246h-.083a2.511,2.511,0,0,1-2.492,1.412,2.832,2.832,0,0,1-2.325-1.08,4.505,4.505,0,0,1-.914-2.907,4.558,4.558,0,0,1,1-3.073,3.108,3.108,0,0,1,2.408-1.08,2.315,2.315,0,0,1,2.242,1.08V13.064h1.744v9.3A17.359,17.359,0,0,0,151,24.442Zm-1.827-3.322V19.792a1.231,1.231,0,0,0-.083-.581,2.14,2.14,0,0,0-.664-1.08,1.984,1.984,0,0,0-1.163-.415,1.677,1.677,0,0,0-1.495.747,3.544,3.544,0,0,0-.581,1.993,3.44,3.44,0,0,0,.5,1.91,1.851,1.851,0,0,0,2.907.083,1.549,1.549,0,0,0,.581-1.329Zm16.693-.664a4.482,4.482,0,0,1-1,2.99,3.592,3.592,0,0,1-2.907,1.163,3.507,3.507,0,0,1-2.741-1.163,4.26,4.26,0,0,1-1-2.907,4.016,4.016,0,0,1,1.08-2.99,3.817,3.817,0,0,1,2.824-1.163,3.507,3.507,0,0,1,2.741,1.163A4.26,4.26,0,0,1,165.864,20.456Zm-1.827,0a3.158,3.158,0,0,0-.5-1.827,1.633,1.633,0,0,0-1.578-.914,1.781,1.781,0,0,0-1.578.914,3.44,3.44,0,0,0-.5,1.91,3.158,3.158,0,0,0,.5,1.827,1.712,1.712,0,0,0,1.578.914,1.881,1.881,0,0,0,1.578-.914A3.44,3.44,0,0,0,164.037,20.456Zm11.212,3.986H173.5V19.958c0-1.412-.5-2.076-1.578-2.076a1.494,1.494,0,0,0-1.246.581,2.036,2.036,0,0,0-.5,1.329v4.651h-1.744V18.878a21.785,21.785,0,0,0-.083-2.242h1.495l.083,1.246h.083a1.948,1.948,0,0,1,.914-.914,2.656,2.656,0,0,1,1.578-.415,2.442,2.442,0,0,1,1.827.747,3.461,3.461,0,0,1,.914,2.575Zm11.71-6.561h-1.91V21.7c0,1,.332,1.412,1,1.412a1.843,1.843,0,0,0,.747-.083l.083,1.329a3.238,3.238,0,0,1-1.329.166,2,2,0,0,1-1.578-.664,2.957,2.957,0,0,1-.581-2.076v-3.9h-1.163V16.553h1.163V15.141l1.744-.5v1.91h1.91A7.144,7.144,0,0,0,186.959,17.881Zm9.219,6.561h-1.744V19.958c0-1.412-.5-2.076-1.578-2.076a1.671,1.671,0,0,0-1.661,1.246,1.619,1.619,0,0,0-.083.664v4.734h-1.744V12.981h1.744v4.734a2.673,2.673,0,0,1,2.325-1.246,2.442,2.442,0,0,1,1.827.747,3.671,3.671,0,0,1,.914,2.658v4.568Zm9.468-4.319a2.56,2.56,0,0,1-.083.831H200.33a2.145,2.145,0,0,0,.747,1.744,2.741,2.741,0,0,0,1.744.581,5.453,5.453,0,0,0,2.076-.332l.249,1.246a6.325,6.325,0,0,1-2.658.5,3.519,3.519,0,0,1-2.824-1.08,4.162,4.162,0,0,1-1.08-2.907,4.637,4.637,0,0,1,1-2.99,3.318,3.318,0,0,1,2.741-1.246,2.908,2.908,0,0,1,2.575,1.246,3.633,3.633,0,0,1,.747,2.408Zm-1.661-.415a2.264,2.264,0,0,0-.332-1.329,1.538,1.538,0,0,0-1.412-.747,1.737,1.737,0,0,0-1.412.747,2.607,2.607,0,0,0-.5,1.329Z" transform="translate(-4.331 -2.102)"/>
</svg>
