<?xml version="1.0" encoding="utf-8"?>
<!-- Generator: Adobe Illustrator 24.1.1, SVG Export Plug-In . SVG Version: 6.00 Build 0)  -->
<svg version="1.1" id="Layer_1" xmlns="http://www.w3.org/2000/svg" xmlns:xlink="http://www.w3.org/1999/xlink" x="0px" y="0px"
	 viewBox="0 0 100 100" style="enable-background:new 0 0 100 100;" xml:space="preserve">
<style type="text/css">
	.mute0{fill:#FFFFFF;}
</style>
<g id="mic" transform="translate(2.697)">
	<g id="Group_20971" transform="translate(3.135)">
		<g id="Group_20970">
			<g id="Path_11339">
				<path id="Path_11614" class="mute0" d="M59.8,39.7v13.9c0,7.5-6.1,13.5-13.5,13.5l0,0c-3.7,0-7.2-1.5-9.7-4.2l-4.8,4.8l0,0
					c3.8,3.7,8.9,5.9,14.2,6.1l0,0c11-0.1,19.9-9,20-20V33.2L59.8,39.7z M65.9,16.8c-0.6-4.1-2.5-8-5.5-11C56.5,2.1,51.3,0,45.9,0
					C34.8,0.1,25.9,9.2,26,20.3v33.2c-0.1,1.1,0.1,2.2,0.3,3.2l6.1-6.4v-30c-0.1-7.6,6-13.8,13.5-13.9c0,0,0,0,0,0
					c7.6,0.1,13.6,6.3,13.5,13.8c0,0,0,0,0,0v2.6L65.9,16.8z"/>
			</g>
		</g>
	</g>
	<g id="Group_21120" transform="translate(0 14.776)">
		<g id="Group_20973" transform="translate(8.287 10.214)">
			<g id="Group_20972">
				<g id="Rectangle_1791">
					<rect id="Rectangle_1846" x="37.4" y="55.6" class="mute0" width="7.1" height="15.8"/>
				</g>
			</g>
		</g>
		<g id="Group_20975" transform="translate(5.409 14.039)">
			<g id="Group_20974">
				<g id="Path_11340">
					<path id="Path_11615" class="mute0" d="M52.9,64.1H34.6c-2,0-3.5,1.6-3.5,3.5c0.1,1.9,1.6,3.4,3.5,3.5h18.7c2,0,3.5-1.6,3.5-3.5
						C56.5,65.7,54.9,64.2,52.9,64.1z"/>
				</g>
			</g>
		</g>
		<g id="Group_20977">
			<g id="Group_20976">
				<g id="Path_11341">
					<path id="Path_11616" class="mute0" d="M26.7,44.5L20.9,50c-1.3-3.4-1.9-7-1.9-10.6v-2.9c0-2,1.6-3.5,3.5-3.5
						c2,0,3.5,1.6,3.5,3.5v2.9C26.1,41,26.3,42.8,26.7,44.5z"/>
					<path id="Path_11617" class="mute0" d="M79.6,36.4v2.9C79.4,54.5,67.9,67.2,52.8,69c-1,0-2.3,0.3-3.2,0.3
						c-1.3,0.1-2.6-0.1-3.9-0.3C39,68,32.7,65,27.7,60.3l4.8-4.8c4.3,4.6,10.4,7.2,16.8,7.1c12.8,0.1,23.2-10.3,23.2-23
						c0-0.1,0-0.1,0-0.2v-2.9c0-2,1.6-3.5,3.5-3.5S79.6,34.5,79.6,36.4z"/>
				</g>
			</g>
		</g>
	</g>
</g>
<g id="Line_67" transform="translate(0 3.8)">
	<path id="Path_11618" class="mute0" d="M88.4,13L72,29.4l-29.7,30l-4.5,4.5l0,0l-2.6,2.3L30.4,71L17.5,83.9L13,79.4l13.2-13.5
		L72,20.4L83.9,8.5L88.4,13z"/>
</g>
</svg>
