<?xml version="1.0" encoding="utf-8"?>
<!-- Generator: Adobe Illustrator 24.1.1, SVG Export Plug-In . SVG Version: 6.00 Build 0)  -->
<svg version="1.1" id="Layer_1" xmlns="http://www.w3.org/2000/svg" xmlns:xlink="http://www.w3.org/1999/xlink" x="0px" y="0px"
	 viewBox="0 0 100 100" style="enable-background:new 0 0 100 100;" xml:space="preserve">
<style type="text/css">
	.audioOn1-0{fill:#203061;}
</style>
<g id="audioOn1" transform="translate(0 1)">
	<g id="Group_20971" transform="translate(4.135)">
		<g id="Group_20970" transform="translate(0)">
			<g id="Path_11339">
				<path class="audioOn1-0" d="M46.2,72.6C46.2,72.6,46.2,72.6,46.2,72.6c-5.4,0-10.5-2.1-14.3-5.9s-5.9-8.9-5.9-14.3V19.1
					C26.1,8,35.1-1,46.2-1h0c11.1,0,20.1,9,20.1,20.1v33.4C66.3,63.6,57.3,72.6,46.2,72.6z M46.2,5.5c-7.5,0-13.7,6.2-13.7,13.7
					v33.2c0,3.7,1.4,7.1,4,9.7c2.6,2.6,6,4,9.7,4c0,0,0,0,0,0c7.5,0,13.7-6.1,13.7-13.6V19.1C59.9,11.6,53.8,5.5,46.2,5.5z"/>
			</g>
		</g>
	</g>
	<g id="Group_20977" transform="translate(0 13.776)">
		<g id="Group_20976">
			<g id="Path_11341">
				<path class="audioOn1-0" d="M80.6,36.4v2.8c-0.2,15.4-11.8,28-26.7,29.7v9.2h5.7c1.9,0.1,3.4,1.6,3.4,3.4c0.1,2-1.5,3.6-3.4,3.6H41.1
					c-1.9-0.1-3.4-1.5-3.4-3.4c-0.1-1.9,1.5-3.6,3.4-3.6h5.7v-9.2c-14.9-1.7-26.5-14.3-26.7-29.7v-2.8c0-2,1.6-3.5,3.5-3.5
					c2,0,3.5,1.6,3.5,3.5v2.8c0,12.8,10.4,23.2,23.2,23.2c12.8,0,23.2-10.4,23.2-23.2v-2.8c0-2,1.6-3.5,3.5-3.5
					C79,32.9,80.6,34.5,80.6,36.4z"/>
			</g>
		</g>
	</g>
</g>
</svg>
