<?xml version="1.0" encoding="utf-8"?>
<!-- Generator: Adobe Illustrator 24.1.1, SVG Export Plug-In . SVG Version: 6.00 Build 0)  -->
<svg version="1.1" id="Layer_1" xmlns="http://www.w3.org/2000/svg" xmlns:xlink="http://www.w3.org/1999/xlink" x="0px" y="0px"
	 viewBox="0 0 100 100" style="enable-background:new 0 0 100 100;" xml:space="preserve">
<style type="text/css">
	.audio10{fill:#203061;}
</style>
<g id="Group_20924" transform="translate(0.1 0.1)">
	<g id="Group_20923">
		<g id="Path_11321">
			<path class="audio10" d="M63.9,5.9c-3.6-3.8-8.8-6-14.4-6C44-0.1,39,2,35.1,5.9c-3.9,3.9-6,8.9-6,14.5v39c0,5.5,2.1,10.6,5.9,14.5
				c3.9,3.8,8.9,6,14.5,6H50c11-0.3,19.8-9.3,19.9-20.4v-39C69.9,14.7,67.7,9.6,63.9,5.9z M49.5,72.9C42,72.9,36,66.8,36,59.4v-39
				C36,12.9,42,6.8,49.5,6.8C57,6.8,63,12.9,63,20.3v39C63,66.8,57,72.9,49.5,72.9z"/>
		</g>
		<g id="Path_11322">
			<path class="audio10" d="M79.3,49.7v10c0,15.2-11.3,27.8-26.3,29.5V93H60c1.8,0.1,3.3,1.5,3.3,3.3c0.1,0.9-0.3,1.8-0.9,2.5
				c-0.7,0.7-1.5,1.1-2.4,1.2H39c-1.8-0.1-3.3-1.5-3.3-3.3c-0.1-1.9,1.4-3.5,3.3-3.6H46v-3.8c-6.6-0.7-12.8-3.7-17.3-8.5
				c-5.6-5.5-8.8-13.2-8.8-21V49.4c0.1-0.9,0.4-1.8,1.2-2.4c0.7-0.6,1.5-0.9,2.5-0.9c1.9,0.1,3.4,1.7,3.3,3.6v10
				c0,12.6,10.2,22.8,22.8,22.8c12.5,0,22.7-10.2,22.7-22.8v-10c0.1-1.9,1.5-3.4,3.5-3.4C77.7,46.2,79.3,47.8,79.3,49.7z"/>
		</g>
	</g>
</g>
</svg>
