<?xml version="1.0" encoding="utf-8"?>
<!-- Generator: Adobe Illustrator 24.1.1, SVG Export Plug-In . SVG Version: 6.00 Build 0)  -->
<svg version="1.1" id="Layer_1" xmlns="http://www.w3.org/2000/svg" xmlns:xlink="http://www.w3.org/1999/xlink" x="0px" y="0px"
	 viewBox="0 0 100 100" style="enable-background:new 0 0 100 100;" xml:space="preserve">
<style type="text/css">
	.audioOn0{fill:#FFFFFF;}
	.audioOn1{fill:#203061;}
</style>
<g id="audioOn" transform="translate(0.335)">
	<g id="Ellipse_13">
		<path class="audioOn0" d="M49.7,0c-27.6,0-50,22.4-50,50c0,27.6,22.4,50,50,50s50-22.4,50-50C99.7,22.4,77.3,0,49.7,0z M41.1,36.1
			c0-4.9,4-8.9,8.9-8.9c2.5,0,4.7,1,6.3,2.6c1.6,1.6,2.6,3.8,2.6,6.3v14.8c0,4.9-4,8.9-8.9,8.9c0,0,0,0,0,0c-4.9,0-8.9-4-8.9-8.9
			V36.1z M63.4,51.1c-0.1,6.8-5.2,12.4-11.8,13.2v4.1h2.5c0.8,0,1.5,0.7,1.5,1.5c0,0.9-0.6,1.6-1.5,1.6h-8.2c-0.8,0-1.5-0.7-1.5-1.5
			c0-0.9,0.7-1.6,1.5-1.6h2.5v-4.1c-6.6-0.7-11.8-6.3-11.8-13.2v-1.2c0-0.9,0.7-1.6,1.6-1.6c0.9,0,1.6,0.7,1.6,1.6v1.2
			c0,5.7,4.6,10.3,10.3,10.3c5.7,0,10.3-4.6,10.3-10.3v-1.2c0-0.9,0.7-1.6,1.6-1.6c0.9,0,1.6,0.7,1.6,1.6V51.1z"/>
		<path class="audioOn0" d="M41.1,50.8V36.1c0-4.9,4-8.9,8.9-8.9c2.5,0,4.7,1,6.3,2.6c1.6,1.6,2.6,3.8,2.6,6.3v14.8c0,4.9-4,8.9-8.9,8.9
			c0,0,0,0,0,0C45,59.7,41.1,55.7,41.1,50.8z"/>
		<path class="audioOn0" d="M63.4,49.8v1.2c-0.1,6.8-5.2,12.4-11.8,13.2v4.1h2.5c0.8,0,1.5,0.7,1.5,1.5c0,0.9-0.6,1.6-1.5,1.6h-8.2
			c-0.8,0-1.5-0.7-1.5-1.5c0-0.9,0.7-1.6,1.5-1.6h2.5v-4.1c-6.6-0.7-11.8-6.3-11.8-13.2v-1.2c0-0.9,0.7-1.6,1.6-1.6
			c0.9,0,1.6,0.7,1.6,1.6v1.2c0,5.7,4.6,10.3,10.3,10.3c5.7,0,10.3-4.6,10.3-10.3v-1.2c0-0.9,0.7-1.6,1.6-1.6
			C62.7,48.2,63.4,48.9,63.4,49.8z"/>
	</g>
	<g id="mic" transform="translate(25.517 20)">
		<g id="Group_20971" transform="translate(4.135)">
			<g id="Group_20970" transform="translate(0)">
				<g id="Path_11339">
					<path class="audioOn1" d="M26.6,9.8c-1.6-1.6-3.8-2.6-6.3-2.6c-4.9,0-8.9,4-8.9,8.9v14.7c0,4.9,4,8.9,8.9,8.9c0,0,0,0,0,0
						c4.9,0,8.9-4,8.9-8.9V16.1C29.3,13.6,28.3,11.4,26.6,9.8z M26.4,30.8c0,3.3-2.7,6-6.1,6c0,0,0,0,0,0c-3.3,0-6.1-2.7-6-6.1V16.1
						c0-3.3,2.7-6.1,6.1-6.1c3.3,0,6.1,2.7,6.1,6.1V30.8z"/>
				</g>
			</g>
		</g>
		<g id="Group_20973" transform="translate(8.287 23.99)">
			<g id="Group_20972">
				<g id="Rectangle_1791">
					<rect x="14.6" y="18.9" class="audioOn1" width="3.1" height="7"/>
				</g>
			</g>
		</g>
		<g id="Group_20975" transform="translate(5.409 27.815)">
			<g id="Group_20974" transform="translate(0)">
				<g id="Path_11340">
					<path class="audioOn1" d="M24.7,22c0,0.9-0.6,1.6-1.5,1.6H15c-0.8,0-1.5-0.7-1.5-1.5c0-0.9,0.7-1.6,1.5-1.6h8.2
						C24,20.5,24.7,21.2,24.7,22z"/>
				</g>
			</g>
		</g>
		<g id="Group_20977" transform="translate(0 13.776)">
			<g id="Group_20976">
				<g id="Path_11341">
					<path class="audioOn1" d="M37.9,16v1.2c-0.1,6.8-5.2,12.4-11.8,13.2c-0.5,0.1-0.9,0.1-1.4,0.1c-0.6,0-1.1,0-1.7-0.1
						c-6.6-0.7-11.8-6.3-11.8-13.2V16c0-0.9,0.7-1.6,1.6-1.6c0.9,0,1.6,0.7,1.6,1.6v1.2c0,5.7,4.6,10.3,10.3,10.3
						c5.7,0,10.3-4.6,10.3-10.3V16c0-0.9,0.7-1.6,1.6-1.6C37.2,14.5,37.9,15.2,37.9,16z"/>
				</g>
			</g>
		</g>
	</g>
</g>
</svg>
