<svg xmlns="http://www.w3.org/2000/svg" width="22.857" height="24" viewBox="0 0 22.857 24">
    <defs>
        <style>
            .bell-1{fill:#54585e}
        </style>
    </defs>
    <g id="bell" transform="translate(0 -2.75)">
        <path id="Path_18" d="M137.618 421.143a4.29 4.29 0 0 1-4.286-4.286.857.857 0 0 1 1.714 0 2.571 2.571 0 1 0 5.143 0 .857.857 0 0 1 1.714 0 4.29 4.29 0 0 1-4.285 4.286zm0 0" class="bell-1" data-name="Path 18" transform="translate(-126.189 -394.393)"/>
        <path id="Path_19" d="M20.857 84.572H2a2 2 0 0 1-1.3-3.52 7.659 7.659 0 0 0 2.729-5.865V72a8 8 0 0 1 16 0v3.186a7.657 7.657 0 0 0 2.718 5.857 2 2 0 0 1-1.289 3.528zm-9.428-18.857A6.292 6.292 0 0 0 5.143 72v3.186a9.367 9.367 0 0 1-3.326 7.166.284.284 0 0 0-.1.22.289.289 0 0 0 .283.286h18.857a.289.289 0 0 0 .286-.286.282.282 0 0 0-.1-.217 9.369 9.369 0 0 1-3.328-7.168V72a6.292 6.292 0 0 0-6.286-6.285zm0 0" class="bell-1" data-name="Path 19" transform="translate(0 -61.25)"/>
    </g>
</svg>
