<svg xmlns="http://www.w3.org/2000/svg" width="20.354" height="20.354" viewBox="0 0 20.354 20.354">
    <defs>
        <style>
            .cls-1{fill:#203061}
        </style>
    </defs>
    <g id="broadcast">
        <g id="Group_338" data-name="Group 338" transform="translate(15.264)">
            <path id="Path_2467" d="M387.247 57.6l.071 1.2a1.32 1.32 0 0 1 1.4 1.4l1.2.071a2.518 2.518 0 0 0-2.665-2.665z" class="cls-1" data-name="Path 2467" transform="translate(-387.117 -55.309)"/>
            <path id="Path_2468" d="M387.654 1.406a4.812 4.812 0 0 0-3.684-1.4l.071 1.2a3.6 3.6 0 0 1 3.815 3.815l1.2.071a4.812 4.812 0 0 0-1.4-3.684z" class="cls-1" data-name="Path 2468" transform="translate(-383.97)"/>
        </g>
        <g id="Group_339" data-name="Group 339" transform="translate(0 4.25)">
            <path id="Path_2469" d="M12.171 111.557l1.219-1.219a1.8 1.8 0 1 0-.848-.846l-1.218 1.218-3.794-3.794-1.762 1.762a6 6 0 0 0-.887 7.343l-4.04 5.784H0V123h9.38v-1.2H8.322l-.361-3.259a6.006 6.006 0 0 0 6.279-1.4l1.76-1.752zm1.991-3.466a.622.622 0 1 1-.622.622.622.622 0 0 1 .621-.622zM2.3 121.805l3.34-4.783.125.129a6 6 0 0 0 .918.752l.432 3.9zm4.312-5.5a4.8 4.8 0 0 1-.789-5.739l6.528 6.528a4.8 4.8 0 0 1-5.739-.789zm6.71.067l-6.777-6.777.982-.983 6.779 6.779z" class="cls-1" data-name="Path 2469" transform="translate(0 -106.899)"/>
        </g>
    </g>
</svg>
