<?xml version="1.0" encoding="utf-8"?>
<!-- Generator: Adobe Illustrator 24.1.2, SVG Export Plug-In . SVG Version: 6.00 Build 0)  -->
<svg version="1.1" id="Layer_1" xmlns="http://www.w3.org/2000/svg" xmlns:xlink="http://www.w3.org/1999/xlink" x="0px" y="0px"
	 viewBox="0 0 70 70" style="enable-background:new 0 0 70 70;" xml:space="preserve">
<style type="text/css">
	.chatOn0{fill:#FFFFFF;}
	.chatOn1{fill:#203061;}
</style>
<g id="chatOn" transform="translate(-1115 -861)">
	<circle id="Ellipse_22" class="chatOn0" cx="1150" cy="896" r="35"/>
	<g id="comment_1_" transform="translate(1134 882.5)">
		<g id="Path_11642">
			<path class="chatOn1" d="M26,0.5H6.7C3,0.5,0,3.5,0,7.2c0,0,0,0,0,0v10.3c0,2.9,1.9,5.5,4.7,6.3L8,27.1c0.4,0.4,1,0.4,1.4,0
				c0,0,0,0,0,0l3-3H26c3.7,0,6.7-3,6.7-6.7v0V7.2C32.7,3.5,29.7,0.5,26,0.5C26,0.5,26,0.5,26,0.5z M30.7,17.4
				c0,2.6-2.1,4.8-4.8,4.8H11.9c-0.3,0-0.5,0.1-0.7,0.3l-2.6,2.6l-2.7-2.7c-0.1-0.1-0.3-0.2-0.4-0.3c-2.1-0.5-3.6-2.4-3.6-4.5V7.2
				c0-2.6,2.1-4.8,4.8-4.8H26c2.6,0,4.8,2.1,4.8,4.8L30.7,17.4z"/>
			<path class="chatOn1" d="M8.6,27.5C8.6,27.5,8.6,27.5,8.6,27.5c-0.3,0-0.6-0.1-0.8-0.3L4.7,24c-2.8-0.8-4.8-3.5-4.8-6.5V7.2
				c0-3.8,3.1-6.9,6.9-6.9H26c3.8,0,6.9,3.1,6.9,6.9v10.2c0,3.8-3.1,6.9-6.9,6.9H12.4l-2.9,2.9l0,0.1h0C9.2,27.4,8.9,27.5,8.6,27.5z
				 M6.7,0.6c-3.6,0-6.6,2.9-6.6,6.6v10.3c0,2.8,1.9,5.4,4.6,6.2l0.1,0L8.1,27c0.2,0.2,0.4,0.2,0.6,0.2c0,0,0,0,0,0
				c0.2,0,0.4-0.1,0.6-0.2l3-3H26c3.6,0,6.5-2.9,6.5-6.5V7.2c0-3.6-2.9-6.6-6.5-6.6H6.7z M8.6,25.3l-2.8-2.8
				c-0.1-0.1-0.2-0.2-0.4-0.2c-2.2-0.5-3.7-2.5-3.7-4.7V7.2c0-2.7,2.2-4.9,4.9-4.9H26c2.7,0,4.9,2.2,4.9,4.9l0,10.2
				c0,2.7-2.2,4.9-4.9,4.9H11.9c-0.2,0-0.4,0.1-0.6,0.2L8.6,25.3z M6.7,2.6c-2.6,0-4.6,2.1-4.6,4.6v10.3c0,2.1,1.4,3.9,3.4,4.4
				c0.2,0,0.4,0.1,0.5,0.3l2.6,2.6l2.5-2.5c0.2-0.2,0.5-0.3,0.8-0.3H26c2.6,0,4.6-2.1,4.6-4.6l0-10.2c0-2.6-2.1-4.6-4.6-4.6H6.7z"/>
		</g>
		<g id="Path_11643">
			<path class="chatOn1" d="M22.4,9.7H10.3c-0.5,0-1,0.4-1,1s0.4,1,1,1l0,0h12.1c0.5,0,1-0.4,1-1S22.9,9.7,22.4,9.7L22.4,9.7z"/>
			<path class="chatOn1" d="M22.4,11.7H10.3c-0.6,0-1.1-0.5-1.1-1.1s0.5-1.1,1.1-1.1h12.1c0.6,0,1.1,0.5,1.1,1.1
				C23.5,11.2,23,11.7,22.4,11.7z M10.3,9.8c-0.4,0-0.8,0.4-0.8,0.8s0.4,0.8,0.8,0.8h12.1c0.4,0,0.8-0.4,0.8-0.8s-0.4-0.8-0.8-0.8
				H10.3z"/>
		</g>
		<g id="Path_11644">
			<path class="chatOn1" d="M22.4,14.1H10.3c-0.5,0-1,0.4-1,1s0.4,1,1,1l0,0h12.1c0.5,0,1-0.4,1-1S22.9,14.1,22.4,14.1L22.4,14.1z"/>
			<path class="chatOn1" d="M22.4,16.1H10.3c-0.6,0-1.1-0.5-1.1-1.1s0.5-1.1,1.1-1.1h12.1c0.6,0,1.1,0.5,1.1,1.1
				C23.5,15.6,23,16.1,22.4,16.1z M10.3,14.2c-0.4,0-0.8,0.4-0.8,0.8c0,0.4,0.4,0.8,0.8,0.8h12.1c0.4,0,0.8-0.4,0.8-0.8
				c0-0.4-0.4-0.8-0.8-0.8H10.3z"/>
		</g>
	</g>
</g>
</svg>
