<?xml version="1.0" encoding="utf-8"?>
<!-- Generator: Adobe Illustrator 24.1.1, SVG Export Plug-In . SVG Version: 6.00 Build 0)  -->
<svg version="1.1" id="Layer_1" xmlns="http://www.w3.org/2000/svg" xmlns:xlink="http://www.w3.org/1999/xlink" x="0px" y="0px"
	 viewBox="0 0 100 100" style="enable-background:new 0 0 100 100;" xml:space="preserve">
<style type="text/css">
	.chatCommingSoon0{fill:#9AABB7;}
</style>
<g id="communications" transform="translate(1 5.001)">
	<g id="Path_11768">
		<path class="chatCommingSoon0" d="M97.7,23.4c0.7,0,1.3-0.6,1.3-1.3v-7.1c0-5.9-4.8-10.6-10.6-10.6H31.7c-5.9,0-10.6,4.8-10.6,10.6v26.1H6
			c-3.8,0-7,3.1-7,7v18.2c0,3.8,3.1,7,7,7h6.3l10,10c0.5,0.5,1.3,0.5,1.9,0c0.2-0.2,0.4-0.6,0.4-0.9v-9.1h16c3.9,0,7-3.1,7-7V55.6
			h11.2v15.7c0,0.7,0.6,1.3,1.3,1.3c0.3,0,0.7-0.1,0.9-0.4l16.7-16.7h10.7C94.2,55.6,99,50.9,99,45v-7.1c0-0.7-0.6-1.3-1.3-1.3
			c-0.7,0-1.3,0.6-1.3,1.3V45c0,4.4-3.6,8-8,8H77.1c-0.3,0-0.7,0.1-0.9,0.4L61.3,68.2V54.3c0-0.7-0.6-1.3-1.3-1.3H31.7
			c-4.4,0-8-3.6-8-8V15.1c0-4.4,3.6-8,8-8h56.7c4.4,0,8,3.6,8,8v7.1C96.4,22.8,97,23.4,97.7,23.4z M31.7,55.6h13.2v10.8
			c0,2.4-2,4.4-4.4,4.4H23.2c-0.7,0-1.3,0.6-1.3,1.3v7.2l-8.2-8.2c-0.2-0.2-0.6-0.4-0.9-0.4H6c-2.4,0-4.4-2-4.4-4.4V48.2
			c0-2.4,2-4.4,4.4-4.4h15.1V45C21.1,50.9,25.8,55.6,31.7,55.6z"/>
	</g>
	<g id="Path_11769">
		<path class="chatCommingSoon0" d="M80.6,18.7c0,0.7-0.6,1.3-1.3,1.3H40.7c-0.7,0-1.3-0.6-1.3-1.3c0-0.7,0.6-1.3,1.3-1.3h38.6
			C80,17.4,80.6,18,80.6,18.7z"/>
	</g>
	<g id="Path_11770">
		<path class="chatCommingSoon0" d="M80.6,29.4c0,0.3-0.1,0.7-0.4,0.9c-0.2,0.2-0.6,0.4-0.9,0.4H40.7c-0.7,0-1.3-0.6-1.3-1.3
			c0-0.7,0.6-1.3,1.3-1.3h38.6C80.1,28.1,80.6,28.7,80.6,29.4z"/>
	</g>
	<g id="Path_11771">
		<path class="chatCommingSoon0" d="M64.3,40.1c0,0.7-0.6,1.3-1.3,1.3H40.7c-0.7,0-1.3-0.6-1.3-1.3c0-0.7,0.6-1.3,1.3-1.3H63
			C63.7,38.8,64.3,39.4,64.3,40.1z"/>
	</g>
	<g id="Path_11772">
		<path class="chatCommingSoon0" d="M99,30c0,0.7-0.6,1.3-1.3,1.3c-0.7,0-1.3-0.6-1.3-1.3c0-0.7,0.6-1.3,1.3-1.3C98.4,28.7,99,29.3,99,30z"/>
	</g>
</g>
</svg>
