<?xml version="1.0" encoding="utf-8"?>
<!-- Generator: Adobe Illustrator 24.1.1, SVG Export Plug-In . SVG Version: 6.00 Build 0)  -->
<svg version="1.1" id="Layer_1" xmlns="http://www.w3.org/2000/svg" xmlns:xlink="http://www.w3.org/1999/xlink" x="0px" y="0px"
	 viewBox="0 0 100 100" style="enable-background:new 0 0 100 100;" xml:space="preserve">
<style type="text/css">
	.chat-0{fill:#203061;}
</style>
<g id="Group_20926" transform="translate(0.1 0.1)">
	<g id="Group_20925">
		<g id="Path_11326">
			<path class="chat-0" d="M87.6,18.7C85.6,11.8,79.3,7,72,6.9H16.1C7.2,6.9,0,14.2-0.1,23.1V49C0,56.5,5,62.9,12.2,64.7
				c1.9,7,8.3,11.9,15.6,11.9c0,0,0,0,0.1,0h1.8v15.1c0.1,1,0.6,2,1.6,2.6c0.4,0.2,0.8,0.2,1.3,0.3c0.6-0.1,1.2-0.3,1.7-0.6
				l22.5-17.3h27c8.9-0.1,16.2-7.3,16.2-16.2V34.4C99.9,26.9,94.9,20.5,87.6,18.7z M16.1,12.6h56c3.9,0,7.4,2.2,9.3,5.6H27.8
				c-8.9,0.1-16.2,7.3-16.2,16.2v24.1C8,56.8,5.6,53.1,5.6,49V23.1C5.7,17.3,10.3,12.7,16.1,12.6z M94.3,59.8h-0.1v0.5
				c-0.1,5.8-4.7,10.5-10.5,10.5h-28c-0.6,0-1.3,0.3-1.7,0.6L35.3,86V73.7c0-1.6-1.3-2.8-2.9-2.9h-4.6c-5.8,0-10.5-4.7-10.5-10.5
				V34.4c0-5.8,4.7-10.4,10.5-10.5h56c5.7,0.1,10.4,4.7,10.5,10.5V59.8z"/>
		</g>
		<g id="Path_11327">
			<path class="chat-0" d="M82.3,35.9c0.1,1.6-1.2,2.9-2.7,3H31.9c-1.5-0.1-2.7-1.3-2.7-2.7c-0.1-1.6,1.1-2.9,2.7-3h47.7
				C81.1,33.2,82.2,34.4,82.3,35.9z"/>
		</g>
		<g id="Path_11328">
			<path class="chat-0" d="M82.3,46.1c0.1,1.6-1.2,2.9-2.7,3H31.9c-0.1,0-0.1,0-0.1,0h-0.2c-0.7-0.1-1.5-0.4-1.9-0.9
				c-0.5-0.6-0.8-1.3-0.8-2c0.1-0.8,0.4-1.5,0.9-2c0.6-0.5,1.3-0.7,2-0.7h47.7C81.1,43.4,82.2,44.6,82.3,46.1z"/>
		</g>
		<g id="Path_11329">
			<path class="chat-0" d="M82.4,56.5c0,1.6-1.3,2.8-2.8,2.8H31.9c-1.5-0.1-2.7-1.3-2.7-2.7c-0.1-0.8,0.2-1.5,0.7-2
				c0.5-0.6,1.2-0.9,2-0.9h47.9C81.2,53.7,82.4,54.9,82.4,56.5z"/>
		</g>
	</g>
</g>
</svg>
