<?xml version="1.0" encoding="utf-8"?>
<!-- Generator: Adobe Illustrator 24.1.1, SVG Export Plug-In . SVG Version: 6.00 Build 0)  -->
<svg version="1.1" id="Layer_1" xmlns="http://www.w3.org/2000/svg" xmlns:xlink="http://www.w3.org/1999/xlink" x="0px" y="0px"
	 viewBox="0 0 100 100" style="enable-background:new 0 0 100 100;" xml:space="preserve">
<style type="text/css">
	.st0{fill:#FFFFFF;}
	.st1{fill:#203061;}
</style>
<g id="chatOut" transform="translate(-1737 -880)">
	<g id="Path_12104">
		<path class="st0" d="M1787,880c27.6,0,50,22.4,50,50s-22.4,50-50,50s-50-22.4-50-50S1759.4,880,1787,880z"/>
	</g>
	<g id="comment_1_" transform="translate(1756 902)">
		<g id="Path_11642">
			<path class="st1" d="M44.5,9.2h-27c-5.3,0-9.6,4.3-9.6,9.6v14.5c0,4.2,2.8,7.9,6.7,9.1l4.5,4.5c0.3,0.3,0.7,0.5,1.1,0.5h0
				c0.4,0,0.7-0.1,1-0.4h0l0-0.1l4.1-4.1h19c5.3,0,9.6-4.3,9.6-9.6V18.8C54.1,13.5,49.8,9.2,44.5,9.2z M44.5,39.6H24.8
				c-0.4,0-0.8,0.2-1.1,0.5l-3.4,3.4l-3.7-3.7c-0.2-0.2-0.5-0.3-0.7-0.4C13,38.7,11,36.2,11,33.3V18.8c0-3.6,2.9-6.5,6.5-6.5h27
				c3.6,0,6.5,2.9,6.5,6.5l0,14.3C51,36.7,48.1,39.6,44.5,39.6z"/>
		</g>
		<g id="Path_11643">
			<path class="st1" d="M41,23.6c0,0.4-0.1,0.8-0.4,1.1c-0.3,0.3-0.7,0.5-1.1,0.5h-17c-0.8,0-1.5-0.7-1.5-1.5c0-0.9,0.6-1.6,1.5-1.6
				h17C40.3,22.1,41,22.7,41,23.6z"/>
		</g>
		<g id="Path_11644">
			<path class="st1" d="M41,29.7c0,0.4-0.1,0.8-0.4,1.1c-0.3,0.3-0.7,0.5-1.1,0.5h-17c-0.9,0-1.5-0.7-1.5-1.6c0-0.9,0.7-1.6,1.5-1.6
				h17C40.3,28.2,41,28.9,41,29.7z"/>
		</g>
	</g>
</g>
</svg>
