<?xml version="1.0" encoding="utf-8"?>
<!-- Generator: Adobe Illustrator 24.1.2, SVG Export Plug-In . SVG Version: 6.00 Build 0)  -->
<svg version="1.1" id="Layer_1" xmlns="http://www.w3.org/2000/svg" xmlns:xlink="http://www.w3.org/1999/xlink" x="0px" y="0px"
	 viewBox="0 0 100 100" style="enable-background:new 0 0 100 100;" xml:space="preserve">
<g id="classes" transform="translate(0.001 0)">
	<path id="Path_12021" d="M90.8,6.3H46.9c-5.1,0-9.2,4.1-9.2,9.2v28.2l-8.2-4.1c-0.3-0.1-0.6-0.3-0.8-0.4c5.3-5.5,5.1-14.4-0.4-19.7
		S13.9,14.4,8.6,20S3.4,34.3,9,39.6c0.2,0.1,0.3,0.3,0.5,0.4C3.6,43.4,0,49.6,0,56.3v9.4c0,4,2.5,7.5,6.3,8.7v16.4
		c0,1.6,1.3,2.9,2.9,2.9c0,0,0,0,0,0H28c1.6,0,2.9-1.3,2.9-2.9l0,0V57.9l9.4,4.7c3.9,1.9,8.6,0.5,10.7-3.4h10.5L50.4,89.8
		c-0.5,1.5,0.3,3.2,1.8,3.7c1.5,0.5,3.1-0.2,3.7-1.7l11.8-32.6h2.1l12,32.6c0.6,1.5,2.3,2.2,3.8,1.6c1.4-0.6,2.1-2.2,1.7-3.6
		L76,59.2h14.8c5.1,0,9.2-4.1,9.2-9.2c0,0,0,0,0,0V15.5C100,10.4,95.9,6.3,90.8,6.3C90.8,6.3,90.8,6.3,90.8,6.3z M10.6,29.6
		c0-4.4,3.6-8.1,8-8.1c4.4,0,8.1,3.6,8.1,8c0,4.4-3.6,8.1-8,8.1C14.2,37.6,10.6,34.1,10.6,29.6z M46,56.1L46,56.1
		c-0.4,1.2-1.7,1.8-2.8,1.3c-0.1,0-0.2-0.1-0.2-0.1l-13.6-6.8c-1.4-0.7-3.2-0.1-3.9,1.3c-0.2,0.4-0.3,0.9-0.3,1.3v34.7h-13V71.9
		c0-1.6-1.3-2.9-2.9-2.9c0,0,0,0,0,0c-1.8,0-3.3-1.5-3.3-3.3v-9.4c0-7,5.7-12.8,12.8-12.8c0,0,0,0,0,0h2.6c2,0,3.9,0.5,5.7,1.3
		l18.2,9.1C45.9,54.3,46.3,55.3,46,56.1L46,56.1z M94.1,50c0,0.9-0.3,1.7-1,2.4c-0.6,0.6-1.5,1-2.4,1H51.6v0l7.3-14.5
		c0.7-1.5,0.1-3.2-1.3-3.9c-1.5-0.7-3.2-0.1-3.9,1.3l-6.2,12.4l-3.9-2V15.5c0-1.8,1.5-3.3,3.3-3.3h43.9c0.9,0,1.8,0.3,2.4,1
		c0.6,0.6,1,1.5,1,2.4L94.1,50z"/>
	<path id="Path_12022" d="M85.9,17.7H57.4c-1.5,0-2.7,1.2-2.7,2.7c0,1.5,1.2,2.7,2.7,2.7h28.5c1.5,0,2.7-1.2,2.7-2.7
		C88.6,18.9,87.4,17.7,85.9,17.7z"/>
	<path id="Path_12023" d="M85.9,30H71.7c-1.5,0-2.7,1.2-2.7,2.7c0,1.5,1.2,2.7,2.7,2.7h14.3c1.5,0,2.7-1.2,2.7-2.7
		C88.6,31.2,87.4,30,85.9,30z"/>
	<path id="Path_12024" d="M85.9,41H71.7c-1.5,0-2.7,1.2-2.7,2.7c0,1.5,1.2,2.7,2.7,2.7h14.3c1.5,0,2.7-1.2,2.7-2.7
		C88.6,42.2,87.4,41,85.9,41z"/>
</g>
</svg>
