<?xml version="1.0" encoding="utf-8"?>
<!-- Generator: Adobe Illustrator 24.1.2, SVG Export Plug-In . SVG Version: 6.00 Build 0)  -->
<svg version="1.1" id="Layer_1" xmlns="http://www.w3.org/2000/svg" xmlns:xlink="http://www.w3.org/1999/xlink" x="0px" y="0px"
	 viewBox="0 0 100 100" style="enable-background:new 0 0 100 100;" xml:space="preserve">
<g id="doctor" transform="translate(-48.4)">
	<g id="Group_20914" transform="translate(48.4 0)">
		<path id="Path_11314" class="doc0" d="M84.3,80.9c-1.2-1.2-2.6-2.1-4.2-2.7l-0.1-19.4v-0.1c0-7-5.7-12.7-12.7-12.7
			s-12.7,5.7-12.7,12.7v0.1L54.7,87v0.2c0,3-2.4,5.3-5.3,5.4c-3,0-5.3-2.4-5.4-5.3c0,0,0,0,0,0v-0.1l-0.1-37
			c6-0.8,11.6-3.5,15.9-7.8c5.2-5.2,8.2-12.3,8.2-19.6v-14c0-2-1.6-3.6-3.6-3.6c0,0,0,0,0,0h-8.8V3.8c0-2-1.7-3.7-3.7-3.7
			c-2,0-3.7,1.7-3.7,3.7v9.8c0,2,1.7,3.7,3.7,3.7c2,0,3.7-1.7,3.7-3.7v-1.2h5.1v10.3c0,11.3-9.2,20.4-20.5,20.4
			C29,43,19.8,33.8,19.9,22.5V12.2H25v1.2c0,2,1.7,3.7,3.7,3.7c2,0,3.7-1.7,3.7-3.7V3.7c0-2-1.7-3.7-3.7-3.7c-2,0-3.7,1.7-3.7,3.7
			v1.2h-8.8c-2,0-3.6,1.6-3.6,3.6c0,0,0,0,0,0v13.8c-0.1,0.1-0.1,0.1-0.1,0.2c0,14,10.3,25.8,24.2,27.6l0.1,37.1v0.1
			c0,7,5.7,12.7,12.7,12.7S62,94.3,62,87.3v-0.1l-0.1-28.4v-0.1c0-3,2.4-5.3,5.3-5.4c3,0,5.3,2.4,5.4,5.3c0,0,0,0,0,0v0.1l0.1,19.3
			c-5.9,2-9,8.3-7,14.2c2,5.9,8.3,9,14.2,7c1.5-0.5,2.9-1.4,4.1-2.5c0.1-0.1,0.2-0.1,0.2-0.2C88.6,92.4,88.7,85.3,84.3,80.9
			C84.3,80.9,84.3,80.9,84.3,80.9L84.3,80.9z M79.3,91.6c-0.1,0-0.1,0-0.1,0.1c0,0,0,0,0,0c-0.7,0.6-1.6,1-2.6,1c-1,0-2-0.4-2.8-1.1
			c-0.7-0.7-1.1-1.7-1.1-2.8c0-1,0.4-2,1.1-2.8c0.7-0.7,1.7-1.1,2.8-1.1c1,0,2,0.4,2.8,1.1c0.7,0.7,1.1,1.7,1.1,2.8
			C80.5,89.8,80,90.8,79.3,91.6L79.3,91.6z"/>
	</g>
</g>
</svg>
