<?xml version="1.0" encoding="utf-8"?>
<!-- Generator: Adobe Illustrator 24.1.0, SVG Export Plug-In . SVG Version: 6.00 Build 0)  -->
<svg version="1.1" id="Layer_1" xmlns="http://www.w3.org/2000/svg" xmlns:xlink="http://www.w3.org/1999/xlink" x="0px" y="0px"
	 viewBox="0 0 100 41.7" style="enable-background:new 0 0 100 41.7;" xml:space="preserve">
<style type="text/css">
	.stDoo0{enable-background:new    ;}
</style>
<g class="stDoo0">
	<path d="M26.6,7.2c-1.2-2.2-3-3.8-5.3-5C19,1.1,16.2,0.5,13,0.5H0.1v40.6h12.8c3.3,0,6.1-0.6,8.4-1.7s4.1-2.8,5.3-5
		c1.2-2.2,1.8-4.8,1.8-7.9V15.1C28.4,12,27.8,9.4,26.6,7.2z M22.5,26.8c0,2.8-0.8,5-2.5,6.6c-1.7,1.5-4,2.3-7,2.3H5.8V6h7.3
		c3,0,5.3,0.8,7,2.3c1.6,1.6,2.5,3.8,2.5,6.6v11.9H22.5z"/>
	<path d="M42.4,39.7c-2.2-1.2-3.8-3-5-5.3c-1.2-2.3-1.8-4.9-1.8-7.9V15.1c0-3,0.6-5.6,1.8-7.9c1.2-2.3,2.9-4,5-5.3
		C44.6,0.7,47.1,0,49.9,0s5.3,0.6,7.5,1.9c2.2,1.2,3.8,3,5,5.3s1.8,4.9,1.8,7.9v11.5c0,3-0.6,5.6-1.8,7.9s-2.9,4-5,5.3
		c-2.2,1.2-4.7,1.9-7.5,1.9C47.1,41.6,44.6,41,42.4,39.7z M54.3,34.8c1.3-0.8,2.3-1.8,3-3.2c0.7-1.4,1-3,1-4.8V14.9
		c0-1.8-0.3-3.4-1-4.8c-0.7-1.4-1.7-2.5-3-3.2c-1.3-0.8-2.8-1.1-4.4-1.1c-1.7,0-3.2,0.4-4.4,1.1c-1.3,0.8-2.3,1.8-3,3.2s-1,3-1,4.8
		v11.9c0,1.8,0.3,3.4,1,4.8c0.7,1.4,1.7,2.5,3,3.2c1.3,0.8,2.8,1.1,4.4,1.1C51.6,36,53.1,35.6,54.3,34.8z"/>
	<path d="M78.2,39.7c-2.2-1.2-3.8-3-5-5.3c-1.2-2.3-1.8-4.9-1.8-7.9V15.1c0-3,0.6-5.6,1.8-7.9c1.2-2.3,2.9-4,5-5.3
		C80.4,0.7,82.9,0,85.7,0s5.3,0.6,7.5,1.9c2.2,1.2,3.8,3,5,5.3s1.8,4.9,1.8,7.9v11.5c0,3-0.6,5.6-1.8,7.9c-1.2,2.3-2.9,4-5,5.3
		c-2.2,1.2-4.7,1.9-7.5,1.9C82.9,41.6,80.4,41,78.2,39.7z M90.2,34.8c1.3-0.8,2.3-1.8,3-3.2c0.7-1.4,1-3,1-4.8V14.9
		c0-1.8-0.3-3.4-1-4.8c-0.7-1.4-1.7-2.5-3-3.2c-1.3-0.8-2.8-1.1-4.4-1.1s-3.2,0.4-4.4,1.1c-1.3,0.8-2.3,1.8-3,3.2s-1,3-1,4.8v11.9
		c0,1.8,0.3,3.4,1,4.8c0.7,1.4,1.7,2.5,3,3.2c1.3,0.8,2.8,1.1,4.4,1.1S88.9,35.6,90.2,34.8z"/>
</g>
</svg>
