<?xml version="1.0" encoding="utf-8"?>
<!-- Generator: Adobe Illustrator 24.1.2, SVG Export Plug-In . SVG Version: 6.00 Build 0)  -->
<svg version="1.1" id="Layer_1" xmlns="http://www.w3.org/2000/svg" xmlns:xlink="http://www.w3.org/1999/xlink" x="0px" y="0px"
	 viewBox="0 0 100 100" style="enable-background:new 0 0 100 100;" xml:space="preserve">
<style type="text/css">
	.dotMenu0{opacity:0.8;}
</style>
<g id="dotsMenu" transform="translate(0 -2.471)" class="dotMenu0">
	<g id="Group_174" transform="translate(0 2.471)">
		<path id="Path_11253" d="M12.1,0.9C5.6,0.9,0.3,6.2,0.3,12.7s5.3,11.8,11.8,11.8s11.8-5.3,11.8-11.8C23.9,6.2,18.6,0.9,12.1,0.9z"
			/>
		<path id="Path_11254" d="M49.9,0.9C43.3,0.9,38,6.2,38,12.7s5.3,11.8,11.8,11.8c6.5,0,11.8-5.3,11.8-11.8c0,0,0,0,0,0
			C61.7,6.2,56.4,0.9,49.9,0.9z"/>
		<path id="Path_11255" d="M88.2,24.5c6.5,0,11.8-5.3,11.8-11.8S94.7,0.9,88.2,0.9c-6.5,0-11.8,5.3-11.8,11.8
			C76.4,19.2,81.7,24.5,88.2,24.5z"/>
		<path id="Path_11256" d="M11.8,61.9c6.5,0,11.8-5.3,11.8-11.8s-5.3-11.8-11.8-11.8C5.3,38.2,0,43.5,0,50.1
			C0,56.6,5.3,61.9,11.8,61.9z"/>
		<path id="Path_11257" d="M49.5,61.9c6.5,0,11.8-5.3,11.8-11.8s-5.3-11.8-11.8-11.8c-6.5,0-11.8,5.3-11.8,11.8l0,0
			C37.7,56.6,43,61.9,49.5,61.9z"/>
		<path id="Path_11258" d="M87.9,61.9c6.5,0,11.8-5.3,11.8-11.8s-5.3-11.8-11.8-11.8c-6.5,0-11.8,5.3-11.8,11.8
			C76.1,56.6,81.4,61.9,87.9,61.9z"/>
		<path id="Path_11259" d="M12.1,75.5c-6.5,0-11.8,5.3-11.8,11.8c0,6.5,5.3,11.8,11.8,11.8c6.5,0,11.8-5.3,11.8-11.8
			C23.9,80.8,18.6,75.5,12.1,75.5z"/>
		<path id="Path_11260" d="M49.8,75.5c-6.5,0-11.8,5.3-11.8,11.8c0,6.5,5.3,11.8,11.8,11.8c6.5,0,11.8-5.3,11.8-11.8
			C61.6,80.8,56.3,75.5,49.8,75.5z"/>
		<path id="Path_11261" d="M88.1,75.5c-6.5,0-11.8,5.3-11.8,11.8s5.3,11.8,11.8,11.8c6.5,0,11.8-5.3,11.8-11.8
			C100,80.8,94.7,75.5,88.1,75.5z"/>
	</g>
</g>
</svg>
