<svg xmlns="http://www.w3.org/2000/svg" width="160" height="160" viewBox="0 0 160 160">
  <g id="economy" transform="translate(-1383 -359)">
    <path id="Path_15957" data-name="Path 15957" d="M40,0h80a40,40,0,0,1,40,40v80a40,40,0,0,1-40,40H40A40,40,0,0,1,0,120V40A40,40,0,0,1,40,0Z" transform="translate(1383 359)" fill="#f3b355" opacity="0.2"/>
    <g id="economy-2" data-name="economy" transform="translate(1439 409)">
      <path id="Path_15747" data-name="Path 15747" d="M208.92,2.935a7.117,7.117,0,1,1-14.233,0V0H208.92Z" transform="translate(-177.368 0.896)" fill="#f3b355"/>
      <path id="Path_15748" data-name="Path 15748" d="M263.117,3.2A7.454,7.454,0,0,1,256,10.948V0h7.117Z" transform="translate(-231.586 0)" fill="#f3b355"/>
      <path id="Union_1" data-name="Union 1" d="M-6.251-3131.408H-30.687a13.535,13.535,0,0,1,4.075-9.679l.991-.969v-21.221a19.361,19.361,0,0,1,19.37-19.352,19.361,19.361,0,0,1,19.37,19.352v21.221l.991.969a13.534,13.534,0,0,1,4.076,9.679Z" transform="translate(30.687 3191.408)" fill="#ffd18c"/>
      <path id="Path_15751" data-name="Path 15751" d="M216.626,222.475c0-2.756-1.8-3.717-4.632-4.49-1.983-.542-3.09-.814-3.09-1.816,0-.814.647-1.232,1.816-1.232a7.622,7.622,0,0,1,3.968,1.42l1.482-2.84a11.813,11.813,0,0,0-3.751-1.473v-2.979h-3.482v3.071a4.575,4.575,0,0,0-3.584,4.575c0,2.234,1.274,3.257,4.009,4.093,2.047.627,3.57.9,3.57,2.005,0,.709-.585,1.107-1.816,1.107a9.04,9.04,0,0,1-4.887-1.733l-1.5,2.987a11.776,11.776,0,0,0,4.21,1.635v3.027h3.482v-2.926C214.718,226.57,216.626,225.294,216.626,222.475Z" transform="translate(-186.239 -184.106)" fill="#f3b355"/>
    </g>
  </g>
</svg>
