<?xml version="1.0" encoding="utf-8"?>
<!-- Generator: Adobe Illustrator 24.1.0, SVG Export Plug-In . SVG Version: 6.00 Build 0)  -->
<svg version="1.1" id="Layer_1" xmlns="http://www.w3.org/2000/svg" xmlns:xlink="http://www.w3.org/1999/xlink" x="0px" y="0px"
	 viewBox="0 0 100 100" style="enable-background:new 0 0 100 100;" xml:space="preserve">
<style type="text/css">
	.editSt0{opacity:0.8;}
	.editSt1{fill:#1D2C3C;}
</style>
<g id="edit" transform="translate(-5.6 -6.9)" class="editSt0">
	<g id="Group_112" transform="translate(5.6 6.9)">
		<path id="Path_52" class="editSt1" d="M96.4,92.9H3.5c-1.9,0-3.5,1.6-3.5,3.5c0,1.9,1.6,3.5,3.5,3.5h93c1.9,0,3.5-1.6,3.5-3.5
			C100,94.5,98.4,92.9,96.4,92.9z"/>
		<path id="Path_53" class="editSt1" d="M0.1,61.3L0,78.1c0,1,0.4,1.9,1,2.6c0.7,0.7,1.6,1,2.5,1l16.7-0.1c0.9,0,1.8-0.4,2.5-1
			l57.8-57.8c1.4-1.4,1.4-3.7,0-5.1L64,1c-1.4-1.4-3.7-1.4-5.1,0L47.3,12.7L1.1,58.8C0.5,59.5,0.1,60.4,0.1,61.3L0.1,61.3z
			 M61.5,8.6l11.6,11.6l-6.6,6.6L54.9,15.2L61.5,8.6z M7.2,62.9l42.6-42.6l11.6,11.6L18.9,74.4L7.2,74.5L7.2,62.9z"/>
	</g>
</g>
</svg>
