<?xml version="1.0" encoding="utf-8"?>
<!-- Generator: Adobe Illustrator 24.1.2, SVG Export Plug-In . SVG Version: 6.00 Build 0)  -->
<svg version="1.1" id="Layer_1" xmlns="http://www.w3.org/2000/svg" xmlns:xlink="http://www.w3.org/1999/xlink" x="0px" y="0px"
	 viewBox="0 0 100 100" style="enable-background:new 0 0 100 100;" xml:space="preserve">
<g id="prefix__file_2_" transform="translate(.15 .15)">
	<g id="prefix__Path_12119">
		<g>
			<g>
				<g>
					<path d="M97.5,48.7l-22.2-7.5c-0.6-0.2-1.3-0.2-1.9,0l-22.2,7.5c-1.2,0.4-2,1.6-2,2.8v16.9c0,20.4,23.1,30.5,24,30.9
						c0.4,0.2,0.8,0.2,1.2,0.2c0.4,0,0.8-0.1,1.2-0.2c1-0.4,24-10.4,24-30.9V51.5C99.5,50.3,98.7,49.1,97.5,48.7z M93.5,68.4
						c0,14.2-15.2,22.8-19.2,24.8c-4.1-2-19.2-10.5-19.2-24.8V53.7l19.2-6.5l19.2,6.5V68.4z"/>
				</g>
			</g>
		</g>
	</g>
	<g id="prefix__Path_12120">
		<g>
			<g>
				<path d="M88.9,64.7L74.7,78.8c-0.7,0.6-1.5,1-2.4,1h-0.1c-1.1-0.1-2-0.5-2.6-1.3l-8.1-10.1c-0.6-0.7-0.8-1.6-0.7-2.6
					c0.1-0.9,0.6-1.8,1.3-2.3c0.7-0.6,1.6-0.8,2.6-0.7c0.9,0.1,1.7,0.6,2.3,1.3l5.6,7L84,59.8c0.7-0.7,1.6-1,2.5-1
					c0.9,0,1.8,0.4,2.4,1.1C90.2,61.2,90.2,63.3,88.9,64.7z"/>
			</g>
		</g>
	</g>
	<g id="prefix__Path_12121">
		<g>
			<g>
				<path d="M60.2,12.3h-4.6v-0.6c0-1.9-1.6-3.5-3.5-3.5H47c-1.3-4-4.6-7-8.7-7.8c-5.8-1.2-11.6,2.3-13.3,7.8h-5.1
					c-1.9,0-3.5,1.6-3.5,3.5v0.6h-4.6c-6.4,0-11.6,5.2-11.6,11.6v52.5c0,6.4,5.2,11.6,11.6,11.6H40c1.9,0,3.5-1.6,3.5-3.5
					c0-1.9-1.6-3.5-3.5-3.5H11.7c-2.5,0-4.6-2.1-4.6-4.6V23.9c0-2.5,2.1-4.6,4.6-4.6h4.6v0.6c0,4.1,3.4,7.5,7.5,7.5h24.2
					c4.2,0,7.5-3.4,7.5-7.5v-0.6h4.6c2.5,0,4.6,2.1,4.6,4.6V34c0,1.9,1.6,3.5,3.5,3.5c1.9,0,3.5-1.6,3.5-3.5V23.9
					C71.7,17.5,66.6,12.3,60.2,12.3z M23.3,15.2h4.6c1.9,0,3.5-1.6,3.5-3.5c0-2.5,2.1-4.6,4.6-4.6c2.5,0,4.6,2.1,4.6,4.6
					c0,1.9,1.6,3.5,3.5,3.5h4.6v4.6c0,0.3-0.2,0.6-0.6,0.6H23.9c-0.3,0-0.6-0.2-0.6-0.6V15.2z"/>
			</g>
		</g>
	</g>
	<g id="prefix__Path_12124">
		<g>
			<g>
				<path d="M59.6,36c0,1.9-1.6,3.5-3.5,3.5H15.8c-1.9,0-3.5-1.6-3.5-3.5s1.6-3.5,3.5-3.5h40.4C58.1,32.5,59.6,34.1,59.6,36z"/>
			</g>
		</g>
	</g>
	<g id="prefix__Path_12125">
		<g>
			<g>
				<path d="M43.5,48.1c0,1.9-1.6,3.5-3.5,3.5H15.8c-1.9,0-3.5-1.6-3.5-3.5s1.6-3.5,3.5-3.5H40C41.9,44.6,43.5,46.2,43.5,48.1z"/>
			</g>
		</g>
	</g>
	<g id="prefix__Path_12126">
		<g>
			<g>
				<path d="M43.5,60.2c0,1.9-1.6,3.5-3.5,3.5H15.8c-1.9,0-3.5-1.6-3.5-3.5c0-1.9,1.6-3.5,3.5-3.5H40C41.9,56.7,43.5,58.3,43.5,60.2
					z"/>
			</g>
		</g>
	</g>
</g>
</svg>
