<?xml version="1.0" encoding="utf-8"?>
<!-- Generator: Adobe Illustrator 24.1.0, SVG Export Plug-In . SVG Version: 6.00 Build 0)  -->
<svg version="1.1" id="Layer_1" xmlns="http://www.w3.org/2000/svg" xmlns:xlink="http://www.w3.org/1999/xlink" x="0px" y="0px"
	 viewBox="0 0 100 100" style="enable-background:new 0 0 100 100;" xml:space="preserve">
<style type="text/css">
	.enterpriceSt0{fill:#E8EBF3;}
	.enterpriceSt1{fill:#203061;}
</style>
<g id="enterpriseType" transform="translate(-362 -281)">
	<path id="Rectangle_18" class="enterpriceSt0" d="M412,281L412,281c27.6,0,50,22.4,50,50l0,0c0,27.6-22.4,50-50,50l0,0c-27.6,0-50-22.4-50-50
		l0,0C362,303.4,384.4,281,412,281z"/>
	<g id="company" transform="translate(372.614 291.001)">
		<path id="Path_11229" class="enterpriceSt1" d="M27.8,27.5h-4c-0.4,0-0.7,0.3-0.7,0.7c0,0.4,0.3,0.7,0.7,0.7h4c0.4,0,0.7-0.3,0.7-0.7
			C28.5,27.9,28.2,27.5,27.8,27.5z"/>
		<path id="Path_11230" class="enterpriceSt1" d="M36.8,29h4c0.4,0,0.7-0.3,0.7-0.7c0-0.4-0.3-0.7-0.7-0.7h-4c-0.4,0-0.7,0.3-0.7,0.7
			C36.1,28.7,36.4,29,36.8,29z"/>
		<path id="Path_11231" class="enterpriceSt1" d="M34.3,27.5h-4c-0.4,0-0.7,0.3-0.7,0.7s0.3,0.7,0.7,0.7c0,0,0,0,0,0h4c0.4,0,0.7-0.3,0.7-0.7
			C35,27.9,34.7,27.5,34.3,27.5C34.3,27.5,34.3,27.5,34.3,27.5z"/>
		<path id="Path_11232" class="enterpriceSt1" d="M27.8,33.2h-4c-0.4,0-0.7,0.3-0.7,0.7c0,0.4,0.3,0.7,0.7,0.7l0,0h4c0.4,0,0.7-0.3,0.7-0.7
			C28.5,33.5,28.2,33.2,27.8,33.2z"/>
		<path id="Path_11233" class="enterpriceSt1" d="M36.8,34.7h4c0.4,0,0.7-0.3,0.7-0.7c0-0.4-0.3-0.7-0.7-0.7h-4c-0.4,0-0.7,0.3-0.7,0.7
			C36.1,34.3,36.4,34.7,36.8,34.7z"/>
		<path id="Path_11234" class="enterpriceSt1" d="M34.3,33.2h-4c-0.4,0-0.7,0.3-0.7,0.7c0,0.4,0.3,0.7,0.7,0.7l0,0h4c0.4,0,0.7-0.3,0.7-0.7
			C35,33.5,34.7,33.2,34.3,33.2z"/>
		<path id="Path_11235" class="enterpriceSt1" d="M27.8,38.8h-4c-0.4,0-0.7,0.3-0.7,0.7c0,0.4,0.3,0.7,0.7,0.7l0,0h4c0.4,0,0.7-0.3,0.7-0.7
			C28.5,39.1,28.2,38.8,27.8,38.8z"/>
		<path id="Path_11236" class="enterpriceSt1" d="M36.8,40.3h4c0.4,0,0.7-0.3,0.7-0.7c0-0.4-0.3-0.7-0.7-0.7h-4c-0.4,0-0.7,0.3-0.7,0.7
			C36.1,39.9,36.4,40.3,36.8,40.3z"/>
		<path id="Path_11237" class="enterpriceSt1" d="M34.3,38.8h-4c-0.4,0-0.7,0.3-0.7,0.7c0,0.4,0.3,0.7,0.7,0.7l0,0h4c0.4,0,0.7-0.3,0.7-0.7
			C35,39.1,34.7,38.8,34.3,38.8z"/>
		<path id="Path_11238" class="enterpriceSt1" d="M27.8,44.4h-4c-0.4,0-0.7,0.3-0.7,0.7c0,0.4,0.3,0.7,0.7,0.7h4c0.4,0,0.7-0.3,0.7-0.7
			C28.5,44.8,28.2,44.4,27.8,44.4z"/>
		<path id="Path_11239" class="enterpriceSt1" d="M34.3,44.4h-4c-0.4,0-0.7,0.3-0.7,0.7c0,0.4,0.3,0.7,0.7,0.7h4c0.4,0,0.7-0.3,0.7-0.7
			C35,44.8,34.7,44.4,34.3,44.4z"/>
		<path id="Path_11240" class="enterpriceSt1" d="M51.2,38.1c-1.6,0-3.2,0.3-4.7,1V23c0-0.4-0.4-0.7-0.8-0.7c0,0,0,0,0,0h-2.7v-4.5
			c0-0.4-0.4-0.8-0.8-0.8H23.3c-0.4,0-0.7,0.3-0.7,0.8c0,0,0,0,0,0v4.5h-2.8c-0.4,0-0.7,0.3-0.7,0.7c0,0,0,0,0,0v37
			c0,0.4,0.3,0.7,0.7,0.7c0,0,0,0,0,0h24.8c5.7,3.6,13.3,1.9,16.9-3.8s1.9-13.3-3.8-16.9C55.8,38.7,53.5,38.1,51.2,38.1z M24.1,18.5
			h17.3v3.8H24.1V18.5z M36.9,59.2h-8.8v-9.3h8.8V59.2z M38.4,59.2v-10c0-0.4-0.3-0.7-0.7-0.8H27.4c-0.4,0-0.7,0.3-0.7,0.7
			c0,0,0,0,0,0v10h-6.1V23.8H45v16c-1.9,1.1-3.5,2.7-4.5,4.7h-3.6c-0.4,0-0.7,0.3-0.7,0.7c0,0.4,0.3,0.7,0.7,0.7l0,0h2.9
			c-1.8,4.6-0.6,9.9,3,13.3L38.4,59.2z M51.2,61.1c-6,0-10.8-4.8-10.8-10.8s4.8-10.8,10.8-10.8c6,0,10.8,4.8,10.8,10.8v0
			C62,56.3,57.1,61.1,51.2,61.1C51.2,61.1,51.2,61.1,51.2,61.1L51.2,61.1z"/>
		<g id="sydney-opera-house" transform="translate(10.197 -2.432)">
			<g id="Group_120" transform="translate(0 12.676)">
				<path id="Path_11242" class="enterpriceSt1" d="M47.1,39.5l-1-0.9v-3c0-0.2-0.2-0.3-0.3-0.3h-2.4c-0.2,0-0.3,0.2-0.3,0.3v0.2l-1.2-1.1
					c-0.2-0.2-0.6-0.2-0.8,0l-5.3,4.8c-0.2,0.2-0.3,0.6,0,0.9c0.1,0.1,0.3,0.2,0.5,0.2h0.8v4.8c0,0.2,0.2,0.3,0.3,0.3h2.9
					c0.2,0,0.3-0.2,0.3-0.3v-2.9h1.7v2.9c0,0.2,0.2,0.3,0.3,0.3h2.9c0.2,0,0.3-0.2,0.3-0.3v-4.8h0.8c0.3,0,0.6-0.3,0.6-0.6
					C47.3,39.7,47.2,39.6,47.1,39.5L47.1,39.5z M45.5,39.8c-0.2,0-0.3,0.2-0.3,0.3V45h-2.2v-2.9c0-0.2-0.2-0.3-0.3-0.3h-2.4
					c-0.2,0-0.3,0.2-0.3,0.3V45h-2.2v-4.8c0-0.2-0.2-0.3-0.3-0.3h-1l5.1-4.6l1.7,1.6c0.1,0.1,0.4,0.1,0.5,0c0.1-0.1,0.1-0.2,0.1-0.2
					v-0.6h1.7v2.8c0,0.1,0,0.2,0.1,0.3l0.9,0.9L45.5,39.8L45.5,39.8z"/>
			</g>
		</g>
	</g>
</g>
</svg>
