<svg xmlns="http://www.w3.org/2000/svg" width="160" height="160" viewBox="0 0 160 160">
  <g id="geography" transform="translate(-783 -636)">
    <rect id="Rectangle_2558" data-name="Rectangle 2558" width="160" height="160" rx="40" transform="translate(783 636)" fill="#8cc178" opacity="0.2"/>
    <g id="geography-2" data-name="geography" transform="translate(835 686)">
      <path id="Path_15795" data-name="Path 15795" d="M62.329,21.078H59.5a2.126,2.126,0,0,1-2.061-1.364h0L53.017,7.607A3.121,3.121,0,0,0,50.3,5.692h0c-3.269-.4-7.517-1.462-9.064-1.462-1.9,0-3.076.587-5.865.587S31.132,1.3,30.106.272,24.1,1.444,21.171,1.444s-6.152,1.9-6.152,4.4-2.783,4.1-5.865,7.183.957,10.477,3.222,12.748,5.273,2.783,8.788,1.317,4.761-.806,6.445.879,1.758,4.1,3.808,6.154,1.026,9.671,1.026,13.04,2.783,7.619,4.98,9.817,2.491,1.465,5.865,0,6.006-8.5,9.082-11.576,2.491-7.619,2.491-10.256,5.713-7.766,8.642-10.7S62.329,21.078,62.329,21.078Z" transform="translate(-8.038 0.001)" fill="#8cc178"/>
      <path id="Path_15798" data-name="Path 15798" d="M446.605,358.876c2.344,1.088,3.019,3.655,1.431,7.31s4.212,10.409-1.431,16.05-7.151,3.338-10.488,0-3.734-5.641-1.907-7.469,1.669-8.343,3.972-10.647S442.155,356.815,446.605,358.876Z" transform="translate(-430.324 -325.657)" fill="#558c41"/>
    </g>
  </g>
</svg>
