<?xml version="1.0" encoding="utf-8"?>
<!-- Generator: Adobe Illustrator 24.1.2, SVG Export Plug-In . SVG Version: 6.00 Build 0)  -->
<svg version="1.1" id="Layer_1" xmlns="http://www.w3.org/2000/svg" xmlns:xlink="http://www.w3.org/1999/xlink" x="0px" y="0px"
	 viewBox="0 0 100 100" style="enable-background:new 0 0 100 100;" xml:space="preserve">
<path d="M93.7,36.6L76.1,50V39.7c0-2.2-1.7-3.9-3.9-3.9H3.9c-2.2,0-3.9,1.7-3.9,3.9v56.4c0,2.2,1.7,3.9,3.9,3.9h68.3
	c2.2,0,3.9-1.7,3.9-3.9V85.8l17.6,13.4c2.5,1.9,6.3,0.1,6.3-3.1V39.7C100,36.5,96.3,34.7,93.7,36.6z M68.3,92.2H7.8V43.6h60.5V92.2z
	 M92.2,88.2L76.1,76V59.8l16.1-12.2V88.2z M17.2,15.5C25.3,5.6,37.3,0,50,0s24.7,5.6,32.8,15.5c1.4,1.7,1.1,4.1-0.5,5.5
	c-1.7,1.4-4.1,1.1-5.5-0.5C70.2,12.4,60.4,7.8,50,7.8c-10.4,0-20.2,4.6-26.8,12.6c-1.4,1.7-3.8,1.9-5.5,0.5
	C16,19.6,15.8,17.1,17.2,15.5z M64.1,21.8c1.8,1.1,2.4,3.5,1.3,5.4c-1.1,1.8-3.5,2.4-5.4,1.3c-3-1.9-6.5-2.8-10-2.8
	c-3.5,0-7,1-10,2.8c-1.8,1.1-4.2,0.6-5.4-1.3c-1.1-1.8-0.6-4.2,1.3-5.4c4.2-2.6,9.1-4,14.1-4C55,17.8,59.9,19.1,64.1,21.8z"/>
</svg>
