<svg id="android" xmlns="http://www.w3.org/2000/svg" xmlns:xlink="http://www.w3.org/1999/xlink" width="224.236" height="66.44" viewBox="0 0 224.236 66.44">
  <defs>
    <linearGradient id="linear-gradient" x1="0.808" y1="0.503" x2="-1.563" y2="0.503" gradientUnits="objectBoundingBox">
      <stop offset="0" stop-color="#ffdf00"/>
      <stop offset="0.409" stop-color="#fbbc0e"/>
      <stop offset="0.775" stop-color="#f9a418"/>
      <stop offset="1" stop-color="#f89b1c"/>
    </linearGradient>
    <linearGradient id="linear-gradient-2" x1="0.863" y1="0.178" x2="-0.503" y2="1.948" gradientUnits="objectBoundingBox">
      <stop offset="0" stop-color="#ee4447"/>
      <stop offset="1" stop-color="#c5166c"/>
    </linearGradient>
    <linearGradient id="linear-gradient-3" x1="-0.505" y1="-0.956" x2="0.607" y2="0.489" gradientUnits="objectBoundingBox">
      <stop offset="0" stop-color="#269e6f"/>
      <stop offset="0.051" stop-color="#2ba06f"/>
      <stop offset="0.466" stop-color="#53b26b"/>
      <stop offset="0.797" stop-color="#6bbd69"/>
      <stop offset="1" stop-color="#74c168"/>
    </linearGradient>
  </defs>
  <path id="Path_113" data-name="Path 113" d="M215.931,66.44H8.305A8.329,8.329,0,0,1,0,58.135V8.305A8.329,8.329,0,0,1,8.305,0H215.931a8.329,8.329,0,0,1,8.305,8.305v49.83A8.329,8.329,0,0,1,215.931,66.44Z" fill="#fff"/>
  <path id="Path_114" data-name="Path 114" d="M215.931,1.329a7.018,7.018,0,0,1,6.976,6.976v49.83a7.018,7.018,0,0,1-6.976,6.976H8.305a7.018,7.018,0,0,1-6.976-6.976V8.305A7.018,7.018,0,0,1,8.305,1.329H215.931m0-1.329H8.305A8.329,8.329,0,0,0,0,8.305v49.83A8.329,8.329,0,0,0,8.305,66.44H215.931a8.329,8.329,0,0,0,8.305-8.305V8.305A8.329,8.329,0,0,0,215.931,0Z" fill="#a6a5a5"/>
  <path id="Path_115" data-name="Path 115" d="M92.749,19.347A4.447,4.447,0,0,1,91.5,22.669a4.758,4.758,0,0,1-3.654,1.495,5.015,5.015,0,0,1-3.654-1.495A5.071,5.071,0,0,1,82.7,18.932a5.071,5.071,0,0,1,1.495-3.737A5.015,5.015,0,0,1,87.849,13.7a5.783,5.783,0,0,1,2.076.415,4.431,4.431,0,0,1,1.578,1.08l-.914.914a3.507,3.507,0,0,0-2.741-1.163,3.692,3.692,0,0,0-2.741,1.08,3.875,3.875,0,0,0-1.163,2.907,4.008,4.008,0,0,0,1.163,2.907,3.692,3.692,0,0,0,2.741,1.08,3.882,3.882,0,0,0,2.824-1.08,3.129,3.129,0,0,0,.831-1.993H87.849V18.683h4.817A1.619,1.619,0,0,1,92.749,19.347Zm7.724-4.153H95.905v3.156h4.069v1.163H95.905v3.156h4.568v1.246H94.659V13.949h5.814Zm5.4,8.72h-1.329v-8.72h-2.824V13.949h6.81v1.246H105.7v8.72Zm7.724,0V13.949h1.246v9.966Zm6.976,0h-1.246v-8.72H116.5V13.949h6.81v1.246h-2.824v8.72Zm15.7-1.329a5.214,5.214,0,0,1-7.308,0,5.214,5.214,0,0,1,0-7.308,4.884,4.884,0,0,1,3.654-1.495,5.1,5.1,0,0,1,5.149,5.149A4.884,4.884,0,0,1,136.268,22.586Zm-6.312-.831a4.018,4.018,0,0,0,5.481,0,3.755,3.755,0,0,0,1.08-2.824,3.755,3.755,0,0,0-1.08-2.824,4.018,4.018,0,0,0-5.481,0,3.755,3.755,0,0,0-1.08,2.824A3.468,3.468,0,0,0,129.956,21.756Zm9.634,2.159V13.949h1.578l4.817,7.724h.083l-.083-1.91V13.949h1.246v9.966H145.9l-5.066-8.139h-.083l.083,1.91v6.229H139.59Z" transform="translate(-14.017 -2.322)" stroke="#000" stroke-miterlimit="10" stroke-width="0.2"/>
  <path id="Path_116" data-name="Path 116" d="M127.079,41.907a7.059,7.059,0,1,0,7.059,7.059A6.95,6.95,0,0,0,127.079,41.907Zm0,11.378a4.072,4.072,0,0,1-3.986-4.319,4,4,0,1,1,7.973,0A4.176,4.176,0,0,1,127.079,53.285Zm-15.53-11.378a7.059,7.059,0,1,0,7.059,7.059A6.95,6.95,0,0,0,111.549,41.907Zm0,11.378a4.072,4.072,0,0,1-3.986-4.319,4,4,0,1,1,7.973,0A4.123,4.123,0,0,1,111.549,53.285ZM93.195,44.066v2.99h7.142a6.036,6.036,0,0,1-1.661,3.737,7.257,7.257,0,0,1-5.564,2.159,7.973,7.973,0,0,1,0-15.946,7.35,7.35,0,0,1,5.4,2.159l2.076-2.076a10.358,10.358,0,0,0-7.558-2.99,10.964,10.964,0,1,0,0,21.925,10.063,10.063,0,0,0,7.641-3.073,9.771,9.771,0,0,0,2.575-6.976,13.632,13.632,0,0,0-.166-1.91H93.195Zm75.244,2.325a6.586,6.586,0,0,0-6.063-4.485c-3.654,0-6.644,2.824-6.644,7.059a6.881,6.881,0,0,0,6.976,7.059,6.983,6.983,0,0,0,5.9-3.156L166.2,51.291a4.156,4.156,0,0,1-3.488,1.993,3.538,3.538,0,0,1-3.405-2.159l9.468-3.9ZM158.8,48.8a3.869,3.869,0,0,1,3.654-4.153,2.791,2.791,0,0,1,2.658,1.495L158.8,48.8Zm-7.641,6.81h3.073V34.847h-3.073Zm-5.149-12.125h-.083a4.787,4.787,0,0,0-3.737-1.578,7.064,7.064,0,0,0,0,14.119,5.065,5.065,0,0,0,3.737-1.578h.083v1c0,2.741-1.412,4.153-3.737,4.153a3.9,3.9,0,0,1-3.571-2.492l-2.741,1.163a6.605,6.605,0,0,0,6.229,4.153c3.654,0,6.727-2.159,6.727-7.391V42.322h-2.907Zm-3.571,9.8a4.034,4.034,0,0,1-3.9-4.236,4.111,4.111,0,0,1,3.9-4.319c2.076,0,3.737,1.827,3.737,4.319A3.858,3.858,0,0,1,142.444,53.285Zm40.529-18.437h-7.391V55.61h3.073V47.72h4.319a6.6,6.6,0,0,0,6.81-6.478C189.783,37.256,186.378,34.847,182.973,34.847Zm.083,9.966h-4.4V37.671h4.4a3.572,3.572,0,1,1,0,7.142Zm19.185-2.907a5.939,5.939,0,0,0-5.564,3.156l2.741,1.163a2.862,2.862,0,0,1,2.824-1.495c1.578,0,3.239,1,3.239,2.658v.249a6.682,6.682,0,0,0-3.239-.831c-2.99,0-5.98,1.661-5.98,4.651,0,2.741,2.408,4.568,5.149,4.568a4.485,4.485,0,0,0,3.986-1.993h.083V55.61h2.99V47.637c.083-3.737-2.741-5.73-6.229-5.73Zm-.415,11.378c-1,0-2.408-.5-2.408-1.744,0-1.578,1.744-2.242,3.322-2.242a6.423,6.423,0,0,1,2.824.664A3.83,3.83,0,0,1,201.825,53.285Zm17.607-10.963-3.571,8.969h-.083l-3.737-8.969h-3.322l5.564,12.624-3.156,6.976h3.239l8.471-19.6Zm-27.9,13.288H194.6V34.847h-3.073Z" transform="translate(-13.882 -5.78)"/>
  <g id="Group_90" data-name="Group 90" transform="translate(16.61 11.875)">
    <path id="Path_117" data-name="Path 117" d="M20.747,15.066A3.261,3.261,0,0,0,20,17.392V54.1a3.261,3.261,0,0,0,.747,2.325l.083.083,20.6-20.6V35.5l-20.6-20.6-.083.166Z" transform="translate(-20 -14.4)" fill="#5bc8f3"/>
    <path id="Path_118" data-name="Path 118" d="M52.593,45.6,45.7,38.708v-.415L52.593,31.4l.166.083L60.9,36.134c2.325,1.329,2.325,3.488,0,4.817L52.759,45.6Z" transform="translate(-24.356 -17.197)" fill="url(#linear-gradient)"/>
    <path id="Path_119" data-name="Path 119" d="M48.556,46.976,41.58,40,20.9,60.68c.747.831,1.993.914,3.488.083L48.556,46.976" transform="translate(-20.153 -18.654)" fill="url(#linear-gradient-2)"/>
    <path id="Path_120" data-name="Path 120" d="M48.539,28.667,24.288,14.881c-1.412-.831-2.658-.747-3.488.083l20.763,20.68,6.976-6.976Z" transform="translate(-20.136 -14.298)" fill="url(#linear-gradient-3)"/>
  </g>
</svg>
