<?xml version="1.0" encoding="utf-8"?>
<!-- Generator: Adobe Illustrator 24.1.1, SVG Export Plug-In . SVG Version: 6.00 Build 0)  -->
<svg version="1.1" id="Capa_1" xmlns="http://www.w3.org/2000/svg" xmlns:xlink="http://www.w3.org/1999/xlink" x="0px" y="0px"
	 viewBox="0 0 100 100" style="enable-background:new 0 0 100 100;" xml:space="preserve">
<g>
	<g>
		<g>
			<path d="M98.9,93.3L78.3,72.7c0,0-0.1-0.1-0.1-0.1L27.4,21.9c0,0-0.1-0.1-0.1-0.1L6.7,1.1c-1.5-1.5-4-1.5-5.5,0s-1.5,4,0,5.5
				l17.5,17.5c-8.9,7-14.4,14.8-16,17.3c-3.4,5.2-3.4,11.9,0,17.2c2.1,3.2,8,11.3,17.6,18.5c9.7,7.2,19.8,10.9,30,10.9
				c8.4,0,16.7-2.5,24.8-7.4l18.4,18.4c0.8,0.8,1.8,1.1,2.8,1.1s2-0.4,2.8-1.1C100.4,97.3,100.4,94.9,98.9,93.3z M37.4,42.9l5.4,5.4
				c-0.6,2.5,0.1,5.2,2,7.1c1.9,1.9,4.6,2.6,7.1,2l5.2,5.2c-2.1,1.2-4.6,1.8-7.1,1.8c-8,0-14.5-6.5-14.5-14.5
				C35.5,47.5,36.2,45.1,37.4,42.9z M50.1,80.1c-19,0-34.7-16.2-41-25.8c-1.7-2.6-1.7-6,0-8.6c1.5-2.3,6.7-9.6,15.1-16l7.6,7.6
				c-2.6,3.7-4,8.1-4,12.7c0,12.3,10,22.3,22.3,22.3c4.6,0,9-1.4,12.7-4l6.5,6.5C62.9,78.3,56.5,80.1,50.1,80.1z"/>
		</g>
	</g>
	<g>
		<g>
			<path d="M97.5,41.6C97.5,41.5,97.5,41.5,97.5,41.6c-2.1-3.3-8-11.5-17.5-18.6c-9.7-7.2-19.7-10.9-29.9-10.9
				c-3.9,0-7.8,0.5-11.7,1.6c-2.1,0.6-3.3,2.7-2.7,4.8c0.6,2.1,2.7,3.3,4.8,2.7c3.2-0.9,6.4-1.3,9.6-1.3C69,19.9,84.5,36,90.8,45.6
				c0,0,0,0.1,0.1,0.1c0.8,1.3,1.3,2.8,1.3,4.3c0,1.5-0.4,3-1.3,4.3c-1.9,2.9-4.4,6-7.1,8.8c-1.5,1.6-1.4,4,0.1,5.5
				c0.8,0.7,1.7,1.1,2.7,1.1c1,0,2.1-0.4,2.8-1.2c3.8-4,6.5-7.6,8-9.9c1.7-2.6,2.6-5.5,2.6-8.6C100,47,99.1,44.1,97.5,41.6z"/>
		</g>
	</g>
	<g>
		<g>
			<path d="M71.7,45.2c-1.8-8.4-8.4-15-16.8-16.9c-2.1-0.5-4.2,0.8-4.7,2.9c-0.5,2.1,0.8,4.2,2.9,4.7c5.4,1.2,9.7,5.5,10.9,11
				c0.4,1.8,2,3.1,3.8,3.1c0.3,0,0.6,0,0.8-0.1C70.9,49.4,72.2,47.3,71.7,45.2z"/>
		</g>
	</g>
</g>
</svg>
