<?xml version="1.0" encoding="utf-8"?>
<!-- Generator: Adobe Illustrator 24.1.1, SVG Export Plug-In . SVG Version: 6.00 Build 0)  -->
<svg version="1.1" id="Layer_1" xmlns="http://www.w3.org/2000/svg" xmlns:xlink="http://www.w3.org/1999/xlink" x="0px" y="0px"
	 viewBox="0 0 200 200" style="enable-background:new 0 0 200 200;" xml:space="preserve">
<style type="text/css">
	.st0instPlaceholder{opacity:0.2;fill:#203061;enable-background:new    ;}
	.st1instPlaceholder{display:none;}
	.st2instPlaceholder{display:inline;fill:#FFFFFF;}
	.st3instPlaceholder{fill:#FFFFFF;}
</style>
<g id="doctorProfile" transform="translate(1348 -3720)">
	<g id="profi">
		<g id="profile" transform="translate(-1348 3718.6)">
			<circle id="Ellipse_21" class="st0instPlaceholder" cx="99.9" cy="101.3" r="100"/>
		</g>
	</g>
</g>
<g class="st1instPlaceholder">
	<path class="st2instPlaceholder" d="M96.2,98.3c6,0,11.2-2.2,15.5-6.4c4.3-4.3,6.4-9.5,6.4-15.5s-2.2-11.2-6.4-15.5c-4.3-4.3-9.5-6.4-15.5-6.4
		S85,56.7,80.7,60.9c-4.3,4.3-6.4,9.5-6.4,15.5s2.2,11.2,6.4,15.5C85,96.1,90.2,98.3,96.2,98.3z"/>
	<path class="st2instPlaceholder" d="M134.4,124.3c-0.1-1.8-0.4-3.7-0.7-5.7c-0.4-2.1-0.8-4-1.4-5.8c-0.6-1.8-1.4-3.6-2.4-5.4s-2.2-3.4-3.6-4.7
		c-1.4-1.4-3.1-2.4-5.1-3.2c-2-0.8-4.2-1.2-6.6-1.2c-0.9,0-1.8,0.4-3.6,1.5c-1.1,0.7-2.3,1.5-3.7,2.4c-1.2,0.8-2.8,1.5-4.8,2.1
		c-1.9,0.6-3.9,0.9-5.9,0.9c-1.9,0-3.9-0.3-5.9-0.9s-3.6-1.4-4.8-2.1c-1.4-0.9-2.6-1.7-3.7-2.4c-1.7-1.1-2.6-1.5-3.6-1.5
		c-2.4,0-4.6,0.4-6.6,1.2c-2,0.8-3.7,1.9-5.1,3.2c-1.3,1.3-2.6,2.9-3.6,4.7c-1,1.7-1.8,3.5-2.4,5.4c-0.6,1.8-1,3.7-1.4,5.8
		c-0.4,2-0.6,4-0.7,5.7c-0.1,1.7-0.2,3.5-0.2,5.4c0,4.7,1.5,8.6,4.5,11.4c2.9,2.8,6.8,4.2,11.5,4.2h43.7c4.7,0,8.6-1.4,11.5-4.2
		c3-2.8,4.5-6.7,4.5-11.4C134.6,127.9,134.6,126.1,134.4,124.3z"/>
</g>
<g id="Page-1">
	<g id="_x30_31---University">
		<path id="Rectangle-path" class="st3instPlaceholder" d="M95,119.4h9.7v17.8H95V119.4z"/>
		<path id="Rectangle-path_1_" class="st3instPlaceholder" d="M54.5,140.4h21.1v3.2H54.5V140.4z"/>
		<path id="Rectangle-path_2_" class="st3instPlaceholder" d="M78.8,95H121v3.2H78.8V95z"/>
		<path id="Shape" class="st3instPlaceholder" d="M75.6,95c-1.8,0-3.2-1.5-3.2-3.2h-11c-0.6,0-1.2,0.3-1.4,0.9l-2.8,5.6h18.5V95z"/>
		<path id="Shape_1_" class="st3instPlaceholder" d="M117.7,137.2v-35.7H82.1v35.7h9.7v-19.5c0-0.9,0.7-1.6,1.6-1.6h13c0.9,0,1.6,0.7,1.6,1.6v19.5
			H117.7z M96.7,109.6c0,0.9-0.7,1.6-1.6,1.6c-0.9,0-1.6-0.7-1.6-1.6v-3.2c0-0.9,0.7-1.6,1.6-1.6c0.9,0,1.6,0.7,1.6,1.6V109.6z
			 M106.4,109.6c0,0.9-0.7,1.6-1.6,1.6c-0.9,0-1.6-0.7-1.6-1.6v-3.2c0-0.9,0.7-1.6,1.6-1.6c0.9,0,1.6,0.7,1.6,1.6V109.6z"/>
		<path id="Shape_2_" class="st3instPlaceholder" d="M115.9,79.3c-0.3-0.3-0.7-0.5-1.1-0.5H83.6c-0.5,0-0.9,0.2-1.2,0.6l-4.9,5.9h44.5L115.9,79.3z"
			/>
		<path id="Shape_3_" class="st3instPlaceholder" d="M121,60.2L121,60.2l-21.1-5.7l-21.1,5.7l21.1,5.7L121,60.2z"/>
		<path id="Shape_4_" class="st3instPlaceholder" d="M124.2,98.3h18.5l-2.8-5.6c-0.3-0.6-0.8-0.9-1.4-0.9h-11c0,1.8-1.5,3.2-3.2,3.2V98.3z"/>
		<path id="Shape_5_" class="st3instPlaceholder" d="M99.1,69l-12.1-3.3v9.9h25.9v-9.9L100.7,69C100.2,69.1,99.6,69.1,99.1,69z"/>
		<path id="Rectangle-path_3_" class="st3instPlaceholder" d="M75.6,88.6h48.6v3.2H75.6V88.6z"/>
		<path id="Shape_6_" class="st3instPlaceholder" d="M78.8,101.5H56.1v35.7h22.7V101.5z M64.2,130.7c0,0.9-0.7,1.6-1.6,1.6s-1.6-0.7-1.6-1.6v-3.2
			c0-0.9,0.7-1.6,1.6-1.6s1.6,0.7,1.6,1.6V130.7z M64.2,121c0,0.9-0.7,1.6-1.6,1.6S61,121.9,61,121v-3.2c0-0.9,0.7-1.6,1.6-1.6
			s1.6,0.7,1.6,1.6V121z M64.2,111.3c0,0.9-0.7,1.6-1.6,1.6s-1.6-0.7-1.6-1.6V108c0-0.9,0.7-1.6,1.6-1.6s1.6,0.7,1.6,1.6V111.3z
			 M74,130.7c0,0.9-0.7,1.6-1.6,1.6c-0.9,0-1.6-0.7-1.6-1.6v-3.2c0-0.9,0.7-1.6,1.6-1.6c0.9,0,1.6,0.7,1.6,1.6V130.7z M74,121
			c0,0.9-0.7,1.6-1.6,1.6c-0.9,0-1.6-0.7-1.6-1.6v-3.2c0-0.9,0.7-1.6,1.6-1.6c0.9,0,1.6,0.7,1.6,1.6V121z M74,111.3
			c0,0.9-0.7,1.6-1.6,1.6c-0.9,0-1.6-0.7-1.6-1.6V108c0-0.9,0.7-1.6,1.6-1.6c0.9,0,1.6,0.7,1.6,1.6V111.3z"/>
		<path id="Rectangle-path_4_" class="st3instPlaceholder" d="M124.2,140.4h21.1v3.2h-21.1V140.4z"/>
		<path id="Shape_7_" class="st3instPlaceholder" d="M106.4,140.4h-13H78.8v4.9H121l0-4.9H106.4z"/>
		<path id="Shape_8_" class="st3instPlaceholder" d="M143.7,101.5H121v35.7h22.7V101.5z M129.1,130.7c0,0.9-0.7,1.6-1.6,1.6c-0.9,0-1.6-0.7-1.6-1.6
			v-3.2c0-0.9,0.7-1.6,1.6-1.6c0.9,0,1.6,0.7,1.6,1.6V130.7z M129.1,121c0,0.9-0.7,1.6-1.6,1.6c-0.9,0-1.6-0.7-1.6-1.6v-3.2
			c0-0.9,0.7-1.6,1.6-1.6c0.9,0,1.6,0.7,1.6,1.6V121z M129.1,111.3c0,0.9-0.7,1.6-1.6,1.6c-0.9,0-1.6-0.7-1.6-1.6V108
			c0-0.9,0.7-1.6,1.6-1.6c0.9,0,1.6,0.7,1.6,1.6V111.3z M138.8,130.7c0,0.9-0.7,1.6-1.6,1.6c-0.9,0-1.6-0.7-1.6-1.6v-3.2
			c0-0.9,0.7-1.6,1.6-1.6c0.9,0,1.6,0.7,1.6,1.6V130.7z M138.8,121c0,0.9-0.7,1.6-1.6,1.6c-0.9,0-1.6-0.7-1.6-1.6v-3.2
			c0-0.9,0.7-1.6,1.6-1.6c0.9,0,1.6,0.7,1.6,1.6V121z M138.8,111.3c0,0.9-0.7,1.6-1.6,1.6c-0.9,0-1.6-0.7-1.6-1.6V108
			c0-0.9,0.7-1.6,1.6-1.6c0.9,0,1.6,0.7,1.6,1.6V111.3z"/>
		<path id="Shape_9_" class="st3instPlaceholder" d="M121.1,63.5h-3.2v6v0c0,1.7,0.8,3.2,2.2,4.1c0.5,0.3,1.1,0.4,1.6,0.1c0.5-0.3,0.9-0.8,0.9-1.3
			c0-0.6-0.2-1.1-0.7-1.5c-0.5-0.3-0.8-0.9-0.8-1.4v0L121.1,63.5z"/>
	</g>
</g>
</svg>
