<svg id="Layer_1" data-name="Layer 1" xmlns="http://www.w3.org/2000/svg" viewBox="0 0 100 100"><defs><style>.jpeg-1{fill:#e2e5e7;}.jpeg-2{fill:#b0b7bd;}.jpeg-3{fill:#cad1d8;}.jpeg-4{fill:#a066aa;}.jpeg-5{fill:#fff;}</style></defs><path class="jpeg-1" d="M23.49,0a6.27,6.27,0,0,0-6.25,6.25v87.5A6.27,6.27,0,0,0,23.49,100H86a6.27,6.27,0,0,0,6.25-6.25V25l-25-25Z"/><path class="jpeg-2" d="M73.49,25H92.24l-25-25V18.75A6.27,6.27,0,0,0,73.49,25Z"/><polygon class="jpeg-3" points="92.24 43.75 73.49 25 92.24 25 92.24 43.75"/><path class="jpeg-4" d="M79.53,81.27a3.13,3.13,0,0,1-3.12,3.13H7.66a3.14,3.14,0,0,1-3.13-3.13V50A3.13,3.13,0,0,1,7.66,46.9H76.41A3.12,3.12,0,0,1,79.53,50Z"/><path class="jpeg-3" d="M76.62,84.38H17.24V87.5H76.62a3.13,3.13,0,0,0,3.12-3.12V81.25A3.13,3.13,0,0,1,76.62,84.38Z"/><path class="jpeg-5" d="M17,58.06c0-2.18,3.44-2.18,3.44,0V68.32c0,4.08-1.95,6.55-6.45,6.55a6.51,6.51,0,0,1-5.66-2.68C7,70.61,9.54,68.32,10.89,70a3.87,3.87,0,0,0,3.4,1.61c1.45,0,2.73-.71,2.76-3.28V58.06Z"/><path class="jpeg-5" d="M25,58.23a1.82,1.82,0,0,1,1.79-1.81h6a6.25,6.25,0,0,1,6.47,6.65,6.21,6.21,0,0,1-6.47,6.45H28.49V73a1.64,1.64,0,0,1-1.67,1.8A1.77,1.77,0,0,1,25,73V58.23Zm3.46,1.49v6.53h4.38a3.27,3.27,0,0,0,0-6.53Z"/><path class="jpeg-5" d="M75.25,72.47a9.48,9.48,0,0,1-6.16,2.1c-5.26,0-9-3-9-9a8.93,8.93,0,0,1,9.21-9A8.18,8.18,0,0,1,75,58.83a1.63,1.63,0,0,1-2.18,2.41,5.22,5.22,0,0,0-3.53-1.58,6,6,0,0,0-6,6c0,3.71,2.45,6,5.73,6a6.3,6.3,0,0,0,3.75-1.13V67.37H69.09a1.53,1.53,0,1,1,0-3.06h5a1.71,1.71,0,0,1,1.77,1.48v5.33A2,2,0,0,1,75.25,72.47Z"/><path class="jpeg-5" d="M55.64,59.3H47.21v4.53H55a1.83,1.83,0,0,1,1.28.39,1.29,1.29,0,0,1,.42,1,1.39,1.39,0,0,1-.41,1,1.84,1.84,0,0,1-1.29.4H47.21v5.25h8.72a1.88,1.88,0,0,1,1.33.41,1.39,1.39,0,0,1,.45,1.09,1.37,1.37,0,0,1-.45,1.06,1.92,1.92,0,0,1-1.33.41H45.77a2,2,0,0,1-2.3-2.29V58.71a3.12,3.12,0,0,1,.24-1.32,1.46,1.46,0,0,1,.75-.74,3.1,3.1,0,0,1,1.31-.24h9.87a1.94,1.94,0,0,1,1.33.4,1.48,1.48,0,0,1,0,2.09A1.89,1.89,0,0,1,55.64,59.3Z"/></svg>
