<svg id="Layer_1" data-name="Layer 1" xmlns="http://www.w3.org/2000/svg" viewBox="0 0 100 100"><defs><style>.jpg-1{fill:#e2e5e7;}.jpg-2{fill:#b0b7bd;}.jpg-3{fill:#cad1d8;}.jpg-4{fill:#50bee8;}.jpg-5{fill:#fff;}</style></defs><path class="jpg-1" d="M22.24,0A6.31,6.31,0,0,0,16,6.29V94.37a6.31,6.31,0,0,0,6.29,6.29H85.16a6.31,6.31,0,0,0,6.29-6.29V25.17L66.28,0Z"/><path class="jpg-2" d="M72.57,25.17H91.45L66.28,0V18.87A6.32,6.32,0,0,0,72.57,25.17Z"/><polygon class="jpg-3" points="91.45 44.04 72.57 25.17 91.45 25.17 91.45 44.04"/><path class="jpg-4" d="M78.86,81.79a3.15,3.15,0,0,1-3.14,3.15H6.51a3.15,3.15,0,0,1-3.14-3.15V50.33a3.15,3.15,0,0,1,3.14-3.14H75.72a3.15,3.15,0,0,1,3.14,3.14Z"/><path class="jpg-5" d="M25,59.6a1.66,1.66,0,0,1,3.32,0v9.94c0,3.95-1.89,6.34-6.24,6.34a6.31,6.31,0,0,1-5.48-2.59c-1.29-1.54,1.13-3.75,2.44-2.14a3.74,3.74,0,0,0,3.29,1.56c1.41,0,2.64-.68,2.67-3.17V59.6Z"/><path class="jpg-5" d="M32.73,59.6a1.72,1.72,0,0,1,1.71-1.73h5.81a6.29,6.29,0,0,1,0,12.57h-4.2v3.33a1.58,1.58,0,0,1-1.61,1.73,1.7,1.7,0,0,1-1.71-1.73V59.6ZM36.05,61V67.3h4.2a3.14,3.14,0,0,0,0-6.27Z"/><path class="jpg-5" d="M64.43,73.56a9.52,9.52,0,0,1-6.19,2.12c-5.28,0-9-3-9-9a9,9,0,0,1,9.25-9,8.22,8.22,0,0,1,5.74,2.21A1.63,1.63,0,0,1,62,62.27a5.34,5.34,0,0,0-3.55-1.58,6,6,0,0,0-6,6c0,3.73,2.46,6,5.76,6A6.46,6.46,0,0,0,62,71.53V68.44H58.24a1.54,1.54,0,1,1,0-3.07h5a1.71,1.71,0,0,1,1.78,1.48v5.36A2,2,0,0,1,64.43,73.56Z"/><path class="jpg-3" d="M75.72,84.94H16v3.14H75.72a3.15,3.15,0,0,0,3.14-3.14V81.79A3.15,3.15,0,0,1,75.72,84.94Z"/></svg>
