<?xml version="1.0" encoding="utf-8"?>
<!-- Generator: Adobe Illustrator 24.1.1, SVG Export Plug-In . SVG Version: 6.00 Build 0)  -->
<svg version="1.1" id="Layer_1" xmlns="http://www.w3.org/2000/svg" xmlns:xlink="http://www.w3.org/1999/xlink" x="0px" y="0px"
	 viewBox="0 0 100 100" style="enable-background:new 0 0 100 100;" xml:space="preserve">
<style type="text/css">
	.lastPrescription0{fill:#9AABB7;}
</style>
<g id="commerce-and-shopping" transform="translate(-61.01 0.75)">
	<g id="Path_11767">
		<path class="lastPrescription0" d="M105.9,69.2c-0.2-0.2-0.4-0.3-0.7-0.3c0,0,0,0,0,0c-0.3,0-0.5,0.1-0.7,0.3l0,0L99,74.8
			c-0.1,0.1-0.3,0.2-0.6,0.2c-0.2,0-0.4-0.1-0.5-0.2l-2.1-2.1c-0.2-0.2-0.4-0.3-0.7-0.3c-0.3,0-0.5,0.1-0.7,0.3
			c-0.2,0.2-0.3,0.4-0.3,0.7c0,0.3,0.1,0.5,0.3,0.7l2.1,2.1c0.5,0.5,1.2,0.8,2,0.8h0c0.7,0,1.5-0.3,2-0.8l5.5-5.6
			c0.2-0.2,0.3-0.4,0.3-0.7C106.2,69.6,106.1,69.4,105.9,69.2z M105.9,28.9c-0.2-0.2-0.5-0.3-0.7-0.3c-0.3,0-0.5,0.1-0.7,0.3
			L99,34.5c-0.1,0.1-0.3,0.2-0.6,0.2c-0.2,0-0.4-0.1-0.5-0.2l-2.1-2.1c-0.2-0.2-0.4-0.3-0.7-0.3c-0.3,0-0.5,0.1-0.7,0.3
			c-0.2,0.2-0.3,0.4-0.3,0.7c0,0.3,0.1,0.5,0.3,0.7l2.1,2.1c0.5,0.5,1.2,0.8,1.9,0.8c0,0,0,0,0,0c0.7,0,1.5-0.3,2-0.8l5.5-5.6
			C106.3,29.9,106.3,29.3,105.9,28.9z M106,49.1L106,49.1c-0.2-0.2-0.5-0.3-0.8-0.3c-0.3,0-0.5,0.1-0.7,0.3L99,54.6
			c-0.1,0.1-0.3,0.2-0.6,0.2c-0.2,0-0.4-0.1-0.5-0.2l-2.1-2.1c-0.2-0.2-0.4-0.3-0.7-0.3c-0.3,0-0.5,0.1-0.7,0.3
			c-0.2,0.2-0.3,0.4-0.3,0.7c0,0.3,0.1,0.5,0.3,0.7l2.1,2.1c0.5,0.5,1.2,0.8,1.9,0.8h0c0.7,0,1.5-0.3,2-0.8l5.5-5.6
			C106.3,50.1,106.3,49.5,106,49.1z M105.3,36.4c-0.2-0.2-0.4-0.3-0.7-0.3c-0.3,0-0.5,0.1-0.7,0.3c-0.2,0.2-0.3,0.4-0.3,0.7v3.7
			c0,0.4-0.4,0.8-0.8,0.8H92.2c-0.4,0-0.8-0.3-0.8-0.8V30.1c0-0.4,0.3-0.8,0.8-0.8H97c0.3,0,0.5-0.1,0.7-0.3
			c0.2-0.2,0.3-0.4,0.3-0.7c0-0.5-0.4-1-1-1h-4.9c-1.5,0-2.8,1.2-2.8,2.8v10.7c0,1.5,1.2,2.8,2.8,2.8h10.7c1.5,0,2.8-1.2,2.8-2.8
			v-3.7C105.6,36.8,105.5,36.6,105.3,36.4z M142.4,2.3h-6.8c-0.3,0-0.5,0.1-0.7,0.3c-0.2,0.2-0.3,0.4-0.3,0.7c0,0.5,0.5,1,1,1h6.8
			c2.7,0,4.9,2.2,4.9,4.9v83.2c0,2.7-2.2,4.9-4.9,4.9H80.5c-2.7,0-4.9-2.2-4.9-4.9V9.2c0-2.7,2.2-4.9,4.9-4.9h11.7v3.9H81.5
			c-1.1,0-2,0.9-2,2v60.9c0,0.6,0.5,1,1,1c0.6,0,1-0.4,1-1V10.2h8.2l-0.2,0.6c-0.1,0.4-0.2,0.9-0.2,1.3v4.1c0,2.2,1.8,3.9,3.9,3.9
			h36.5c2.2,0,3.9-1.8,3.9-3.9v-4.1c0-0.5-0.1-0.9-0.2-1.3l-0.2-0.6h8.2V76h-8.2c-3.8,0-6.9,3.1-6.9,6.9v8.2H81.5V77
			c0-0.3-0.1-0.5-0.3-0.7C81,76.1,80.7,76,80.5,76c0,0,0,0,0,0c-0.5,0-1,0.4-1,1v14.1c0,1.1,0.9,2,2,2h45.9c0.3,0,0.5-0.1,0.7-0.3
			l15.1-15.1c0.2-0.2,0.3-0.4,0.3-0.6V10.2c0-1.1-0.9-2-2-2h-10.7V3.6c0-2.4-1.9-4.3-4.3-4.3H96.5c-1.8,0-3.4,1.1-4,2.7l-0.1,0.3
			H80.5c-3.8,0-6.9,3.1-6.9,6.9v83.2c0,3.8,3.1,6.9,6.9,6.9h61.9c3.8,0,6.9-3.1,6.9-6.9V9.2C149.3,5.4,146.2,2.3,142.4,2.3z
			 M128.3,89.7v-6.7c0-2.7,2.2-4.9,4.9-4.9h6.7L128.3,89.7z M94.2,3.6c0-1.3,1.1-2.4,2.4-2.4h29.8c1.3,0,2.3,1.1,2.3,2.4V9
			c0,1.3-1.1,2.3-2.3,2.4H96.5c-1.3,0-2.4-1.1-2.4-2.4V3.6z M92.6,10.9c0.7,1.5,2.3,2.5,3.9,2.5h29.8c1.7,0,3.2-1,3.9-2.5l0.3-0.6
			l0.5,0.5c0.4,0.4,0.6,0.9,0.6,1.4v4.1c0,1.1-0.9,1.9-1.9,1.9H93.2c-1.1,0-1.9-0.9-1.9-1.9v-4.1c0-0.5,0.2-1,0.6-1.4l0.5-0.5
			L92.6,10.9z M104.6,56.2c-0.3,0-0.5,0.1-0.7,0.3c-0.2,0.2-0.3,0.4-0.3,0.7V61c0,0.4-0.4,0.8-0.8,0.8H92.2c-0.4,0-0.8-0.3-0.8-0.8
			V50.3c0-0.4,0.3-0.8,0.8-0.8H97c0.5,0,1-0.4,1-1c0-0.5-0.5-1-1-1h-4.8c-1.5,0-2.8,1.2-2.8,2.8V61c0,1.5,1.2,2.8,2.8,2.8h10.7
			c1.5,0,2.8-1.2,2.8-2.8v-3.7C105.6,56.7,105.2,56.2,104.6,56.2z M132.5,67.7h-21.1c-0.3,0-0.5,0.1-0.7,0.3
			c-0.2,0.2-0.3,0.4-0.3,0.7c0,0.5,0.5,1,1,1h21.1c0.3,0,0.5-0.1,0.7-0.3c0.2-0.2,0.3-0.4,0.3-0.7C133.5,68.1,133,67.7,132.5,67.7z
			 M104.6,76.4c-0.3,0-0.5,0.1-0.7,0.3c-0.2,0.2-0.3,0.4-0.3,0.7v3.7c0,0.4-0.4,0.8-0.8,0.8H92.2c-0.4,0-0.8-0.4-0.8-0.8V70.4
			c0-0.4,0.3-0.8,0.8-0.8H97c0.5,0,1-0.5,1-1c0-0.6-0.5-1-1-1h-4.8c-1.5,0-2.8,1.2-2.8,2.8v10.7c0,1.5,1.2,2.8,2.8,2.8h10.7
			c1.5,0,2.8-1.2,2.8-2.8v-3.7C105.6,76.8,105.2,76.4,104.6,76.4z M123.6,73.6h-12.2c-0.3,0-0.5,0.1-0.7,0.3
			c-0.2,0.2-0.3,0.4-0.3,0.7c0,0.6,0.5,1,1,1h12.2c0.3,0,0.5-0.1,0.7-0.3s0.3-0.4,0.3-0.7C124.6,74,124.1,73.6,123.6,73.6z
			 M124.3,53.7c-0.2-0.2-0.4-0.3-0.7-0.3h-12.2c-0.5,0-1,0.5-1,1c0,0.5,0.5,1,1,1h12.2c0.6,0,1-0.4,1-1
			C124.6,54.2,124.5,53.9,124.3,53.7z M132.5,47.5h-21.1c-0.3,0-0.5,0.1-0.7,0.3c-0.2,0.2-0.3,0.4-0.3,0.7c0,0.5,0.5,1,1,1h21.1
			c0.5,0,1-0.5,1-1C133.5,48,133,47.5,132.5,47.5z M132.5,33.3h-21.1c-0.3,0-0.5,0.1-0.7,0.3c-0.2,0.2-0.3,0.4-0.3,0.7
			c0,0.6,0.5,1,1,1h21.1c0.3,0,0.5-0.1,0.7-0.3c0.2-0.2,0.3-0.4,0.3-0.7C133.5,33.7,133,33.3,132.5,33.3z M132.5,27.4h-21.1
			c-0.5,0-1,0.5-1,1c0,0.6,0.5,1,1,1h21.1c0.3,0,0.5-0.1,0.7-0.3c0.2-0.2,0.3-0.4,0.3-0.7C133.5,27.8,133,27.4,132.5,27.4z"/>
	</g>
</g>
</svg>
