<?xml version="1.0" encoding="utf-8"?>
<!-- Generator: Adobe Illustrator 24.1.2, SVG Export Plug-In . SVG Version: 6.00 Build 0)  -->
<svg version="1.1" id="Layer_1" xmlns="http://www.w3.org/2000/svg" xmlns:xlink="http://www.w3.org/1999/xlink" x="0px" y="0px"
	 viewBox="0 0 100 100" style="enable-background:new 0 0 100 100;" xml:space="preserve">
<g id="material" transform="translate(-57.6)">
	<g id="Group_180" transform="translate(57.6)">
		<g id="Group_179" transform="translate(0)">
			<path id="Path_11266" d="M87.6,28.8L58.2,1c-0.7-0.7-1.6-1-2.6-1H15c-2.1,0-3.8,1.7-3.8,3.7c0,0,0,0,0,0v92.5
				c0,2.1,1.7,3.8,3.8,3.8l0,0h70c2.1,0,3.7-1.7,3.7-3.8V31.5C88.8,30.5,88.3,29.5,87.6,28.8z M81.3,92.5H18.8v-85h35.4l27.1,25.6
				V92.5z"/>
		</g>
	</g>
	<g id="Group_182" transform="translate(61.17 13.474)">
		<g id="Group_181" transform="translate(0)">
			<path id="Path_11267" d="M64,47.8H27.7c-2.1,0-3.8,1.7-3.8,3.8c0,2.1,1.7,3.8,3.8,3.8H64c2.1,0,3.8-1.7,3.8-3.8
				C67.7,49.5,66,47.8,64,47.8z"/>
		</g>
	</g>
	<g id="Group_184" transform="translate(61.173 10.174)">
		<g id="Group_183" transform="translate(0)">
			<path id="Path_11268" d="M48.9,36.1H27.7c-2.1,0-3.7,1.7-3.7,3.8c0,2.1,1.7,3.7,3.7,3.7h21.3c2.1,0,3.8-1.7,3.8-3.7
				C52.7,37.8,51,36.1,48.9,36.1C49,36.1,49,36.1,48.9,36.1z"/>
		</g>
	</g>
	<g id="Group_186" transform="translate(61.17 16.774)">
		<g id="Group_185" transform="translate(0)">
			<path id="Path_11269" d="M64,59.5H27.7c-2.1,0-3.8,1.7-3.8,3.8c0,2.1,1.7,3.8,3.8,3.8H64c2.1,0,3.8-1.7,3.8-3.8
				C67.7,61.2,66,59.5,64,59.5z"/>
		</g>
	</g>
	<g id="Group_188" transform="translate(66.391 0.826)">
		<g id="Group_187">
			<path id="Path_11270" d="M49.9,28v-25h-7.5v28.8c0,2.1,1.7,3.8,3.8,3.8h30V28H49.9z"/>
		</g>
	</g>
</g>
</svg>
