<svg xmlns="http://www.w3.org/2000/svg" width="22.039" height="20.437" viewBox="0 0 22.039 20.437">
  <g id="message1" transform="translate(0.149 1.482)">
    <path id="Path_11352" data-name="Path 11352" d="M18.751-1.332H2.989A2.992,2.992,0,0,0,0,1.657V11.3a2.992,2.992,0,0,0,2.978,2.989v4.377l6.29-4.377h9.482A2.992,2.992,0,0,0,21.739,11.3V1.657a2.992,2.992,0,0,0-2.989-2.989ZM20.466,11.3a1.717,1.717,0,0,1-1.715,1.715H8.869L4.253,16.23V13.017H2.989A1.717,1.717,0,0,1,1.274,11.3V1.657A1.717,1.717,0,0,1,2.989-.058H18.751a1.717,1.717,0,0,1,1.715,1.715Zm0,0" fill="#203061" stroke="#203061" stroke-width="0.3"/>
    <path id="Path_11353" data-name="Path 11353" d="M171.293,131.172h10.565V132.5H171.293Zm0,0" transform="translate(-165.705 -128.017)" fill="#203061" stroke="#203061" stroke-width="0.3"/>
    <path id="Path_11354" data-name="Path 11354" d="M171.293,211.172h10.565V212.5H171.293Zm0,0" transform="translate(-165.705 -205.308)" fill="#203061" stroke="#203061" stroke-width="0.3"/>
    <path id="Path_11355" data-name="Path 11355" d="M171.293,291.172h10.565V292.5H171.293Zm0,0" transform="translate(-165.705 -282.6)" fill="#203061" stroke="#203061" stroke-width="0.3"/>
  </g>
</svg>
