<?xml version="1.0" encoding="utf-8"?>
<!-- Generator: Adobe Illustrator 24.1.2, SVG Export Plug-In . SVG Version: 6.00 Build 0)  -->
<svg version="1.1" id="Layer_1" xmlns="http://www.w3.org/2000/svg" xmlns:xlink="http://www.w3.org/1999/xlink" x="0px" y="0px"
	 viewBox="0 0 100 100" style="enable-background:new 0 0 100 100;" xml:space="preserve">
<style type="text/css">
	.st0NoUser{fill:#F5F6F7;}
	.st1NoUser{fill:#E0E3E9;}
	.st2NoUser{opacity:0.15;}
	.st3NoUser{fill:#2B374F;}
	.st4NoUser{fill:#99AAB7;}
</style>
<g id="user_management" transform="translate(-997.155 -355.699)">
	<g id="Group_21825" transform="translate(1005.048 359.016)">
		<path id="Path_15529" class="st0NoUser" d="M29.9,7.1c8.4,4.4,3.9,19.9,14.5,25.2c2.2,1.1,8.2,3.2,13.9,1.2c3.3-1.2,4.7-3,9-3.9
			c2.8-0.5,5.7-0.5,8.5,0c9.4,2,16,12.3,16.2,21.6c0.2,8.4-5.1,14.2-10.5,20.3C75.2,78.5,67,83.7,57.9,86.5
			c-4.1,1.3-18.2,5.3-33.8-1.7C4.5,75.9-1.3,56.5-2.3,53.2c-1.5-5.4-4.9-17.9,1.8-29.8C6.3,11.5,21.7,2.9,29.9,7.1z"/>
	</g>
	<g id="Group_22007" transform="translate(205)">
		<g id="Group_22008" transform="translate(797 370.313)">
			<g id="Group_21921" transform="translate(-4.845 -9.124)">
				<path id="Path_15575" class="st1NoUser" d="M0.1,8.5c0-2.1,2.1-3.8,4.7-3.8s4.7,1.7,4.7,3.8H0.1z"/>
			</g>
			<g id="Group_21922" transform="translate(165.186 40.876)">
				<path id="Path_15576" class="st1NoUser" d="M-158.9-41.5c0-2.1,2.1-3.8,4.7-3.8c2.6,0,4.7,1.7,4.7,3.8H-158.9z"/>
			</g>
			<g id="Group_21923" transform="translate(10.001 -14.614)">
				<path id="Path_15577" class="st1NoUser" d="M-8.5,14c0-3.3,2.2-6.1,5-6.1s5,2.7,5,6.1H-8.5z"/>
			</g>
			<g id="Group_21953" transform="translate(7.746 145.861)">
				<path id="Path_15612" class="st1NoUser" d="M-7.2-81.7c0-1.8,1.8-3.2,4-3.2s4,1.5,4,3.2H-7.2z"/>
			</g>
			<g id="Group_21954" transform="translate(20.355 140.98)">
				<path id="Path_15613" class="st1NoUser" d="M-14.5-76.9c0-2.9,1.9-5.2,4.3-5.2s4.3,2.3,4.3,5.2H-14.5z"/>
			</g>
			<g id="Group_21955" transform="translate(163.356 4.881)">
				<path id="Path_15614" class="st1NoUser" d="M-97.2-0.2c0-1.8,1.8-3.2,4-3.2s4,1.5,4,3.2L-97.2-0.2z"/>
			</g>
			<g id="Group_21956" transform="translate(175.965)">
				<path id="Path_15615" class="st1NoUser" d="M-104.5,4.7c0-2.9,1.9-5.2,4.3-5.2s4.3,2.3,4.3,5.2H-104.5z"/>
			</g>
			<g id="Group_21828" transform="translate(49.61 -13.557)" class="st2NoUser">
				<circle id="Ellipse_1644" class="st1NoUser" cx="-29.6" cy="9" r="1.5"/>
				<path id="Path_15532" class="st3NoUser" d="M-29.6,10.8c-1,0-1.8-0.8-1.8-1.8c0-1,0.8-1.8,1.8-1.8c1,0,1.8,0.8,1.8,1.8c0,0,0,0,0,0
					C-27.9,10-28.6,10.8-29.6,10.8C-29.6,10.8-29.6,10.8-29.6,10.8z M-29.6,7.9c-0.6,0-1.2,0.5-1.2,1.2c0,0.6,0.5,1.2,1.2,1.2
					s1.2-0.5,1.2-1.2C-28.5,8.4-29,7.9-29.6,7.9z"/>
			</g>
			<g id="Group_22009" transform="translate(44.61 71.443)" class="st2NoUser">
				<circle id="Ellipse_1644-2" class="st1NoUser" cx="-27.3" cy="-40.7" r="1"/>
				<path id="Path_15532-2" class="st3NoUser" d="M-27.3-39.6c-0.6,0-1.2-0.5-1.2-1.2s0.5-1.2,1.2-1.2c0.6,0,1.2,0.5,1.2,1.2
					C-26.2-40.1-26.7-39.6-27.3-39.6C-27.3-39.6-27.3-39.6-27.3-39.6z M-27.3-41.5c-0.4,0-0.8,0.3-0.8,0.8c0,0.4,0.3,0.8,0.8,0.8
					s0.8-0.3,0.8-0.8C-26.6-41.1-26.9-41.5-27.3-41.5L-27.3-41.5z"/>
			</g>
			<g id="Group_22010" transform="translate(40.61 152.443)" class="st2NoUser">
				<circle id="Ellipse_1644-3" class="st1NoUser" cx="-24.1" cy="-86.7" r="1.7"/>
				<path id="Path_15532-3" class="st3NoUser" d="M-24.1-84.6c-1.1,0-2-0.9-2-2s0.9-2,2-2c1.1,0,2,0.9,2,2C-22.1-85.6-23-84.6-24.1-84.6
					C-24.1-84.6-24.1-84.6-24.1-84.6z M-24.1-88c-0.8,0-1.4,0.6-1.4,1.4c0,0.8,0.6,1.4,1.4,1.4s1.4-0.6,1.4-1.4
					C-22.8-87.4-23.4-88-24.1-88L-24.1-88z"/>
			</g>
			<g id="Group_22011" transform="translate(191.61 87.443)" class="st2NoUser">
				<circle id="Ellipse_1644-4" class="st1NoUser" cx="-111.5" cy="-49.1" r="1.7"/>
				<path id="Path_15532-4" class="st3NoUser" d="M-111.5-47c-1.1,0-2-0.9-2-2s0.9-2,2-2c1.1,0,2,0.9,2,2C-109.4-48-110.3-47-111.5-47
					C-111.5-47-111.5-47-111.5-47z M-111.5-50.4c-0.8,0-1.4,0.6-1.4,1.4c0,0.8,0.6,1.4,1.4,1.4s1.4-0.6,1.4-1.4
					C-110.1-49.8-110.7-50.4-111.5-50.4L-111.5-50.4z"/>
			</g>
		</g>
		<g id="Team" transform="translate(849.586 413.586)">
			<path id="Path_15668" class="st1NoUser" d="M9.1-12.2c0,0-0.1,0-0.1,0c-2.5,0-4.5,2-4.5,4.5v1.3c0.1,0.2,0.1,0.3,0.2,0.5h1.9
				c0.9,0,1.9-0.4,2.5-1l0.7-0.7l1.3,1.3c0.3,0.3,0.8,0.5,1.3,0.5h1v-1.8C13.4-10.1,11.5-12.1,9.1-12.2L9.1-12.2z"/>
			<path id="Path_15669" class="st1NoUser" d="M14.9,3.3c-1-1.3-2.6-2-4.2-2L8.9,3L7.1,1.2C6.4,1.2,5.7,1.4,5,1.7C3,2.5,1.8,4.5,1.8,6.6
				v2.7h14.3V6.6C16.1,5.4,15.7,4.2,14.9,3.3z"/>
			<path id="Path_15670" class="st1NoUser" d="M-1.8,6.6v2.7h-14.3V6.6c0-3,2.4-5.4,5.4-5.4l0,0L-9,3l1.8-1.8C-4.2,1.2-1.8,3.6-1.8,6.6z"
				/>
			<path id="Path_15671" class="st1NoUser" d="M-4.5-7.7v1.8h-1c-0.5,0-0.9-0.2-1.3-0.5l-1.3-1.3L-8.8-7c-0.7,0.7-1.6,1-2.5,1h-2.1v-1.8
				c0-2.5,2-4.5,4.5-4.5C-6.5-12.2-4.5-10.2-4.5-7.7C-4.5-7.7-4.5-7.7-4.5-7.7z"/>
			<path id="Path_15672" class="st1NoUser" d="M-26.8-12.2c0,0-0.1,0-0.1,0c-2.4,0.1-4.3,2-4.3,4.5v1.8h2.1c0.9,0,1.9-0.4,2.5-1l0.7-0.7
				l1.3,1.3c0.3,0.3,0.8,0.5,1.3,0.5h0.9c0.1-0.2,0.1-0.3,0.2-0.5v-1.3C-22.4-10.2-24.4-12.2-26.8-12.2z"/>
			<path id="Path_15673" class="st1NoUser" d="M-22.9,1.7c-0.7-0.3-1.4-0.4-2.1-0.4L-26.8,3l-1.8-1.8c-3,0-5.4,2.4-5.4,5.4v2.7h14.3V6.6
				C-19.7,4.5-21,2.5-22.9,1.7z"/>
			<g id="Group_22007-2" transform="translate(2 2)">
				<g id="Path_15674">
					<path class="st4NoUser" d="M15.1-8.6l-0.8-0.1L12-8.9v-0.8c0-2.2-1.4-4.1-3.5-4.8l-0.3-0.1l2.8-3.6c0.2-0.3,0.2-0.6-0.1-0.9l-6.3-6.3
						c-0.2-0.2-0.6-0.3-0.9-0.1L-0.6-22l-0.1-0.1c-1.3-0.7-2.7-1.3-4.2-1.7l-0.2,0l-0.7-5.6c0-0.3-0.3-0.6-0.6-0.6h-8.9
						c-0.3,0-0.6,0.2-0.6,0.6l-0.7,5.6l-0.2,0c-1.5,0.4-2.9,1-4.2,1.7l-0.1,0.1l-4.5-3.5c-0.3-0.2-0.6-0.2-0.9,0.1l-6.3,6.3
						c-0.2,0.2-0.3,0.6-0.1,0.9l2.8,3.6l-0.3,0.1c-2.1,0.7-3.4,2.7-3.5,4.8v0.8l-3,0.4c-0.3,0-0.6,0.3-0.6,0.6V1
						c0,0.3,0.2,0.6,0.6,0.6l1,0.1l-0.1,0.3c-0.4,0.8-0.5,1.6-0.6,2.5v2.7c0,0.4,0.3,0.7,0.7,0.7h5.7l-2.6,3.4
						c-0.2,0.3-0.2,0.6,0.1,0.9l6.3,6.3c0.2,0.2,0.6,0.3,0.9,0.1l4.5-3.5l0.1,0.1c1.3,0.7,2.8,1.3,4.2,1.7l0.2,0l0.7,5.6
						c0,0.3,0.3,0.6,0.6,0.6h8.9c0.3,0,0.6-0.2,0.6-0.6l0.7-5.6l0.2,0c1.5-0.4,2.9-1,4.2-1.7l0.1-0.1l4.5,3.5
						c0.3,0.2,0.6,0.2,0.9-0.1l6.3-6.3c0.2-0.2,0.3-0.6,0.1-0.9L8.4,7.9h5.7c0.4,0,0.7-0.3,0.7-0.7V4.6c0-0.9-0.2-1.7-0.5-2.5
						L14,1.8l1-0.1c0.3,0,0.6-0.3,0.6-0.6v-8.9C15.6-8.2,15.4-8.5,15.1-8.6z M9.6-12.4c0.7,0.7,1.1,1.7,1.1,2.7h-0.1l0.1,0v1.1h-0.4
						c-0.3,0-0.6-0.1-0.8-0.3l-1.3-1.3c-0.3-0.3-0.7-0.3-0.9,0L6.6-9.4C6.1-8.9,5.3-8.6,4.6-8.6c0,0,0,0,0,0H3.1v-1.1
						c0-1,0.4-2,1.1-2.7c0.7-0.7,1.7-1.1,2.7-1.1C7.9-13.5,8.9-13.1,9.6-12.4z M6.9-3.2C5.3-3.2,4-4.5,4-6.1v-1.1h0.6c0,0,0,0,0,0
						c1.1,0,2.2-0.5,3-1.2l0.3-0.3L8.6-8c0.3,0.3,0.7,0.5,1,0.6l0.2,0v1.2C9.9-4.5,8.5-3.2,6.9-3.2z M8.1-2v1L6.9,0.1L5.8-1v-1
						L6.1-2c0.6,0.1,1.1,0.1,1.7,0L8.1-2z M-32.7-9.7c0-2.1,1.7-3.8,3.8-3.8c1.1,0,2,0.4,2.7,1.1c0.7,0.7,1.1,1.6,1.1,2.7v1.1h-0.4
						c-0.3,0-0.6-0.1-0.8-0.3l-1.3-1.3c-0.3-0.3-0.7-0.3-0.9,0l-0.7,0.7c-0.6,0.5-1.3,0.9-2.1,0.9h-1.4V-9.7z M-28.8-3.2L-28.8-3.2
						c-1.6,0-2.9-1.3-2.9-2.9v-1.1h0.5c0,0,0,0,0,0c1.1,0,2.2-0.5,3-1.2l0.3-0.3l0.8,0.8c0.3,0.3,0.7,0.5,1.1,0.6l0.2,0v1.2
						c0,0.8-0.3,1.5-0.9,2.1C-27.3-3.5-28.1-3.2-28.8-3.2z M-27.7-2v1l-1.1,1.1L-30-1v-1l0.3,0.1c0.6,0.1,1.1,0.1,1.7,0L-27.7-2z
						 M-36.2,0.5v-7.8l2.3-0.3l0.1,0.1c0.1,0.2,0.3,0.3,0.5,0.3l0.2,0v1.1c0,1.3,0.6,2.6,1.7,3.4l0.1,0.1v1.3l-0.2,0
						c-1.3,0.2-2.6,0.9-3.5,1.9l-0.1,0.1L-36.2,0.5z M-35.3,6.6v-2c0-2.4,1.9-4.5,4.4-4.7l0.1,0l1.6,1.6c0.3,0.3,0.7,0.3,0.9,0
						l1.6-1.6l0.1,0c2.4,0.2,4.3,2.2,4.4,4.7v2H-35.3z M9.7,11.7l-5.5,5.5l-4.3-3.4c-0.2-0.2-0.5-0.2-0.7,0c-1.6,0.9-3.2,1.6-5,2.1
						c-0.3,0.1-0.4,0.3-0.5,0.5l-0.7,5.5h-7.8l-0.7-5.5c0-0.3-0.2-0.5-0.5-0.5c-1.7-0.5-3.4-1.2-5-2.1c-0.2-0.1-0.5-0.1-0.7,0
						l-4.3,3.4l-5.5-5.5l2.9-3.7h7c0.4,0,0.7-0.3,0.7-0.7V4.6c0-3-2.2-5.5-5.2-6l-0.2,0v-1.3l0.1-0.1c1.1-0.8,1.7-2,1.7-3.4v-1.1
						h0.2c0.4,0,0.7-0.3,0.7-0.7v-1.8c0-2.7-2.1-5-4.8-5.1l-0.1,0l-2.9-3.7l5.5-5.5l4.3,3.4c0.2,0.2,0.5,0.2,0.7,0
						c1.6-0.9,3.2-1.6,5-2.1c0.3-0.1,0.4-0.3,0.5-0.5l0.7-5.5h7.8l0.7,5.5c0,0.3,0.2,0.5,0.5,0.5c1.7,0.5,3.4,1.2,5,2.1
						c0.2,0.1,0.5,0.1,0.7,0l4.3-3.4l5.5,5.5l-2.9,3.7l-0.1,0c-2.7,0.2-4.8,2.4-4.8,5.1v1.8c0,0.2,0.1,0.3,0.2,0.5
						c0.1,0.1,0.3,0.2,0.5,0.2h0.2v1.1c0,1.3,0.6,2.6,1.7,3.4l0.1,0.1v1.3l-0.2,0c-2.9,0.4-5.2,3-5.2,6v2.7c0,0.4,0.3,0.7,0.7,0.7h7
						L9.7,11.7z M13.4,6.6h-13v-2c0-2.4,1.9-4.5,4.4-4.7l0.1,0l1.6,1.6c0.3,0.3,0.7,0.3,0.9,0L9-0.1l0.1,0c2.4,0.2,4.4,2.2,4.4,4.7
						V6.6z M14.3,0.5l-1.1,0.1l-0.1-0.1c-0.9-1-2.2-1.7-3.5-1.9l-0.2,0v-1.3l0.1-0.1c1.1-0.8,1.7-2,1.7-3.4v-1.1h0.2
						c0.2,0,0.4-0.1,0.5-0.3L12-7.6l2.3,0.3V0.5z"/>
				</g>
				<g id="Path_15675">
					<rect x="-11.6" y="-24.7" class="st4NoUser" width="1.3" height="1.3"/>
				</g>
				<g id="Path_15676">
					
						<rect x="-26.2" y="-18.6" transform="matrix(0.7071 -0.7071 0.7071 0.7071 5.2455 -23.3029)" class="st4NoUser" width="1.3" height="1.3"/>
				</g>
				<g id="Path_15677">
					<polygon class="st4NoUser" points="-24.6,11.1 -25.5,12 -26.4,11.1 -25.5,10.2 					"/>
				</g>
				<g id="Path_15678">
					<rect x="-11.6" y="16.5" class="st4NoUser" width="1.3" height="1.3"/>
				</g>
				<g id="Path_15679">
					
						<rect x="2.9" y="10.4" transform="matrix(0.7071 -0.7071 0.7071 0.7071 -6.7979 5.7793)" class="st4NoUser" width="1.3" height="1.3"/>
				</g>
				<g id="Path_15680">
					
						<rect x="2.9" y="-18.6" transform="matrix(0.7052 -0.709 0.709 0.7052 13.802 -2.7608)" class="st4NoUser" width="1.3" height="1.3"/>
				</g>
				<g id="Path_15681">
					<path class="st4NoUser" d="M0.6-13l-1,0.8c-2.6-3.1-6.4-4.9-10.5-4.9H-11c-4.1,0-7.9,1.8-10.5,4.9l-1-0.8c0.6-0.8,1.4-1.5,2.2-2.1
						c3.1-2.5,7-3.6,11-3.2C-5.4-17.9-1.9-16,0.6-13z"/>
				</g>
				<g id="Path_15682">
					<path class="st4NoUser" d="M-2.6,7.4C-2.6,7.4-2.6,7.4-2.6,7.4l-0.2,0.2h-0.3V4.6c0-3-2.2-5.5-5.2-6l-0.2,0v-1.3l0.1-0.1
						c1.1-0.8,1.7-2,1.7-3.4v-1.1h0.2c0.4,0,0.7-0.3,0.7-0.7v-1.8c0-2.8-2.3-5.1-5.1-5.1c-2.8,0-5.1,2.3-5.1,5.1v1.8
						c0,0.4,0.3,0.7,0.7,0.7h0.2v1.1c0,1.3,0.6,2.6,1.7,3.4l0.1,0.1v1.3l-0.2,0c-2.9,0.4-5.2,3-5.2,6v3.2l-0.4-0.3
						c0,0-0.1-0.1-0.1-0.1c0,0,0,0,0,0l-0.8,1c5.4,4.2,12.9,4.2,18.3,0L-2.6,7.4z M-14.8-9.7c0-1,0.4-2,1.1-2.7
						c0.7-0.7,1.7-1.1,2.7-1.1h0c1,0,2,0.4,2.7,1.1c0.7,0.7,1.1,1.7,1.1,2.7v1.1h-0.4c-0.3,0-0.6-0.1-0.8-0.3l-1.3-1.3
						c-0.3-0.3-0.7-0.3-0.9,0l-0.7,0.7c-0.6,0.6-1.3,0.9-2.1,0.9c0,0,0,0,0,0h-1.4V-9.7z M-13.9-6v-1.2h0.5c0,0,0,0,0,0
						c1.1,0,2.2-0.5,3-1.2l0.3-0.3L-9.3-8c0.3,0.3,0.7,0.5,1,0.6l0.2,0v1.2C-8-5.3-8.3-4.6-8.9-4c-0.5,0.6-1.3,0.9-2.1,0.9h0
						C-12.6-3.2-13.9-4.4-13.9-6z M-9.8-2v1L-11,0.1L-12.1-1v-1l0.3,0.1c0.3,0.1,0.6,0.1,0.8,0.1h0c0.3,0,0.6,0,0.8-0.1L-9.8-2z
						 M-17.5,4.6c0-2.4,1.9-4.5,4.4-4.7l0.1,0l1.6,1.6c0.3,0.3,0.7,0.3,0.9,0l1.6-1.6l0.1,0c2.4,0.2,4.4,2.2,4.4,4.7v2h-13V4.6z
						 M-4.1,8.4c-2.1,1.2-4.5,1.8-6.8,1.8c-2.4,0-4.7-0.6-6.8-1.8l-0.8-0.5h15.2L-4.1,8.4z"/>
				</g>
			</g>
		</g>
	</g>
</g>
</svg>
