<?xml version="1.0" encoding="utf-8"?>
<!-- Generator: Adobe Illustrator 24.1.2, SVG Export Plug-In . SVG Version: 6.00 Build 0)  -->
<svg version="1.1" id="Layer_1" xmlns="http://www.w3.org/2000/svg" xmlns:xlink="http://www.w3.org/1999/xlink" x="0px" y="0px"
	 viewBox="0 0 100 100" style="enable-background:new 0 0 100 100;" xml:space="preserve">
<style type="text/css">
	.st0{opacity:0.15;}
	.st1{fill:#BEC9DC;}
	.st2{fill:#F1F1F2;}
	.st3{fill:#99AAB7;}
	.st4{fill:#E0E3E9;}
	.st5{fill:#FFFFFF;}
	.st6{fill:#2B374F;}
</style>
<g id="no_material_files" transform="translate(0 -0.6)">
	<g id="Group_21823" transform="translate(0.651 51.796)" class="st0">
		<path id="Path_12091" class="st1" d="M34.8-37.1c8.6,4.5,4,20.3,14.9,25.7c2.3,1.1,8.4,3.3,14.2,1.2c3.4-1.2,4.8-3.1,9.2-4
			c0,0,4.3-0.9,8.7,0c9.6,2.1,16.4,12.6,16.6,22c0.2,8.6-5.2,14.6-10.8,20.7c-6.4,7.3-14.7,12.6-24,15.5c-4.2,1.3-18.6,5.4-34.5-1.7
			c-20.1-9.1-26-28.9-27-32.3c-1.5-5.5-5-18.2,1.8-30.4C10.7-32.6,26.5-41.3,34.8-37.1z"/>
	</g>
	<g id="Group_21824" transform="translate(26.234 250.864)">
		<path id="Path_12092" class="st2" d="M24-189c17.7,0.5,38.8,6,38.9,11.2c0.1,5.3-21.6,11.2-41.1,11.2c-19.5,0-41.2-5.9-41.1-11.2
			c0.1-5.2,21-10.7,38.6-11.2C20.9-189.1,22.5-189.1,24-189z"/>
		<path id="Path_12093" class="st3" d="M21.8-166.3c-8.3,0-16.6-1-24.7-2.8c-7.7-1.8-13.4-4.2-15.7-6.5c-0.8-0.8-1.2-1.6-1.2-2.4
			c0.1-5.7,21.5-11.1,39-11.6h4.7c8.6,0.2,18.4,1.7,26.1,3.8c4.9,1.4,13.1,4.2,13.2,7.8c0,0.8-0.4,1.6-1.2,2.4
			c-2.3,2.3-8,4.6-15.6,6.4C38.4-167.3,30.1-166.3,21.8-166.3L21.8-166.3z M21.7-188.7h-2.4c-8.5,0.2-18.1,1.7-25.8,3.8
			c-7.8,2.2-12.4,4.8-12.5,7c0,0.6,0.3,1.2,0.9,1.8c4.2,4.2,22,9,39.8,9l0,0c16.2,0,35.1-4.3,39.8-9c0.6-0.6,0.9-1.2,0.9-1.8
			c0-2.2-4.7-4.8-12.6-7c-7.8-2.2-17.5-3.6-25.9-3.8C23.3-188.6,22.5-188.7,21.7-188.7z"/>
	</g>
	<g id="Group_21825" transform="translate(94.109 226.712)">
		<path id="Path_12094" class="st1" d="M-71.4-171.2"/>
	</g>
	<g id="Group_21826" transform="translate(112.848 171.746)">
		<path id="Path_12095" class="st4" d="M-85.2-123l20.5-6.1l20.4,6.1l-20.4,7L-85.2-123z"/>
		<path id="Path_12096" class="st3" d="M-64.7-115.6L-64.7-115.6l-20.6-7c-0.2-0.1-0.3-0.2-0.3-0.4c0-0.2,0.1-0.3,0.3-0.4l20.5-6
			h0.2l20.4,6c0.2,0.1,0.3,0.2,0.3,0.4s-0.1,0.3-0.3,0.4L-64.7-115.6L-64.7-115.6z M-83.8-123l19.1,6.6l19-6.6l-19-5.6L-83.8-123z"
			/>
	</g>
	<g id="Group_21827" transform="translate(199.878 172.995)">
		<path id="Path_12097" class="st3" d="M-151.4-117.5c-0.2,0-0.4-0.2-0.4-0.4v-12.1c0-0.2,0.2-0.4,0.4-0.4c0.2,0,0.4,0.2,0.4,0.4
			c0,0,0,0,0,0v12.1C-151-117.6-151.2-117.5-151.4-117.5z"/>
	</g>
	<g id="Group_21828" transform="translate(197.796 196.73)">
		<path id="Path_12098" class="st4" d="M-149.8-140.6v20.7l20.6-7.6V-148l-20.6,7.2V-140.6z"/>
		<path id="Path_12099" class="st3" d="M-149.8-119.5c-0.1,0-0.2,0-0.2-0.1c-0.1-0.1-0.2-0.2-0.2-0.3v-20.9c0-0.2,0.1-0.3,0.3-0.4
			l20.6-7.2c0.1,0,0.3,0,0.4,0.1c0.1,0.1,0.2,0.2,0.2,0.3v20.5c0,0.2-0.1,0.3-0.3,0.4L-149.8-119.5L-149.8-119.5z M-149.4-140.5v20
			l19.8-7.3v-19.7L-149.4-140.5z"/>
	</g>
	<g id="Group_21829" transform="translate(112.848 196.731)">
		<path id="Path_12100" class="st4" d="M-64.9-140.6v20.7l-20.3-7.6V-148l20.3,7.2V-140.6z"/>
		<path id="Path_12101" class="st3" d="M-64.9-119.5L-64.9-119.5l-20.4-7.7c-0.2-0.1-0.3-0.2-0.3-0.4V-148c0-0.1,0.1-0.3,0.2-0.3
			c0.1-0.1,0.2-0.1,0.4-0.1l20.2,7.2c0.2,0.1,0.3,0.2,0.3,0.4v20.9c0,0.1-0.1,0.3-0.2,0.3C-64.7-119.5-64.8-119.5-64.9-119.5z
			 M-84.8-127.7l19.5,7.3v-20l-19.5-6.9V-127.7z"/>
	</g>
	<g id="Group_21830" transform="translate(198.629 196.731)">
		<path id="Path_12102" class="st5" d="M-122.1-140.6l-8.2-7.5l-20.2,7l8.2,7.9L-122.1-140.6z"/>
		<path id="Path_12103" class="st3" d="M-142.3-132.7c-0.1,0-0.2,0-0.3-0.1l-8.2-8c-0.1-0.1-0.1-0.2-0.1-0.4c0-0.2,0.1-0.3,0.3-0.3
			l20.2-6.9c0.1,0,0.3,0,0.4,0.1l8.2,7.4c0.1,0.1,0.2,0.2,0.1,0.4c0,0.2-0.1,0.3-0.3,0.3L-142.3-132.7L-142.3-132.7z M-149.7-140.9
			l7.5,7.3l19.3-7.2l-7.5-6.8L-149.7-140.9z"/>
	</g>
	<g id="Group_21831" transform="translate(78.702 196.314)">
		<path id="Path_12104" class="st5" d="M-59.2-140.2l8.2-7.5l20.4,7l-8.3,8L-59.2-140.2z"/>
		<path id="Path_12105" class="st3" d="M-38.8-132.3L-38.8-132.3l-20.5-7.5c-0.1,0-0.2-0.2-0.3-0.3c0-0.1,0-0.3,0.1-0.4l8.3-7.5
			c0.1-0.1,0.3-0.1,0.4-0.1l20.3,7c0.1,0,0.2,0.2,0.3,0.3c0,0.1,0,0.3-0.1,0.4l-8.3,8C-38.6-132.3-38.7-132.3-38.8-132.3z
			 M-58.5-140.4l19.5,7.2l7.6-7.4l-19.5-6.7L-58.5-140.4z"/>
	</g>
	<g id="Group_21832" transform="translate(220.897 7.679)">
		<path id="Path_12106" class="st3" d="M-167.2-0.8c-0.6,0-0.9-1.3-0.4-2.5c0.2-0.5,0.8-1.3,1.3-1.3s0.7,0.7,0.7,1.3
			C-165.6-2.2-166.7-0.8-167.2-0.8z"/>
	</g>
	<g id="Group_21833" transform="translate(223.372 22.253)">
		<path id="Path_12107" class="st3" d="M-169.6-15.3c-0.3,0.5,0.6,1.5,1.8,1.7c0.6,0.1,1.5,0.1,1.9-0.3c0.3-0.4-0.2-1-0.6-1.3
			C-167.5-15.9-169.2-15.8-169.6-15.3z"/>
	</g>
	<g id="Group_21834" transform="translate(222.602 16.727)">
		
			<ellipse id="Ellipse_263" transform="matrix(0.88 -0.475 0.475 0.88 -15.2593 -80.9166)" class="st3" cx="-167.8" cy="-10.3" rx="1.1" ry="0.8"/>
	</g>
	<g id="Group_21835" transform="translate(156.988 27.494)">
		<path id="Path_12108" class="st3" d="M-105,25.2c-0.1,0-0.2-0.1-0.2-0.2c0-0.1,0.1-0.2,0.2-0.2c0.3,0,0.5,0,0.8-0.1
			c0.1,0,0.2,0.1,0.2,0.2c0,0.1-0.1,0.2-0.2,0.2C-104.5,25.2-104.8,25.3-105,25.2z M-105.8,25.2L-105.8,25.2c-0.3,0-0.5,0-0.8-0.1
			c-0.1,0-0.2-0.1-0.2-0.2c0-0.1,0.1-0.2,0.2-0.2c0.3,0,0.5,0.1,0.8,0.1c0.1,0,0.2,0.1,0.2,0.2C-105.6,25.2-105.7,25.2-105.8,25.2z
			 M-103.4,25c-0.1,0-0.2-0.1-0.2-0.2c0-0.1,0.1-0.2,0.2-0.2c0.3,0,0.5-0.1,0.8-0.2c0.1,0,0.2,0,0.2,0.2c0,0.1,0,0.2-0.2,0.2
			C-102.9,25-103.2,25-103.4,25L-103.4,25z M-107.5,25L-107.5,25c-0.3-0.1-0.6-0.1-0.9-0.2c-0.1,0-0.2-0.1-0.1-0.3
			c0-0.1,0.1-0.2,0.3-0.1c0.3,0.1,0.5,0.1,0.8,0.2c0.1,0,0.2,0.1,0.2,0.2C-107.3,24.9-107.4,25-107.5,25L-107.5,25z M-101.9,24.6
			c-0.1,0-0.1,0-0.2-0.1c0-0.1,0-0.2,0.1-0.3c0.3-0.1,0.5-0.2,0.8-0.3c0.1-0.1,0.2,0,0.3,0.1c0.1,0.1,0,0.2-0.1,0.3
			C-101.2,24.6-101.5,24.7-101.9,24.6L-101.9,24.6z M-109.1,24.6L-109.1,24.6c-0.3-0.1-0.5-0.2-0.8-0.3c-0.1,0-0.1-0.2-0.1-0.3
			c0-0.1,0.2-0.1,0.3-0.1c0.3,0.1,0.6,0.3,0.7,0.3c0.1,0,0.2,0.1,0.1,0.2c0,0,0,0,0,0.1C-109,24.6-109.1,24.6-109.1,24.6
			L-109.1,24.6z M-110.6,24L-110.6,24c-0.3-0.2-0.5-0.3-0.8-0.4c-0.1-0.1-0.2-0.2-0.1-0.3c0.1-0.1,0.2-0.2,0.3-0.1
			c0.2,0.1,0.5,0.3,0.7,0.4c0.1,0.1,0.1,0.2,0.1,0.3C-110.5,23.9-110.6,23.9-110.6,24z M-112,23.1L-112,23.1
			c-0.3-0.2-0.6-0.3-0.8-0.5c-0.1-0.1-0.1-0.2,0-0.3c0.1-0.1,0.2-0.1,0.3,0c0.2,0.2,0.4,0.4,0.7,0.5c0.1,0.1,0.1,0.2,0.1,0.3H-112z
			 M-113.3,22.1C-113.4,22.1-113.4,22-113.3,22.1C-113.4,22-113.4,22-113.3,22.1l-0.7-0.7c-0.1-0.1-0.1-0.2,0-0.3
			c0.1-0.1,0.2-0.1,0.3,0l0.6,0.6c0.1,0.1,0.1,0.2,0,0.3c0,0,0,0,0,0C-113.2,22.1-113.2,22.1-113.3,22.1L-113.3,22.1z M-114.4,21
			c-0.1,0-0.1,0-0.2-0.1c-0.2-0.2-0.4-0.4-0.5-0.7c-0.1-0.1,0-0.2,0-0.3c0.1-0.1,0.2,0,0.3,0c0.2,0.2,0.3,0.4,0.5,0.6
			c0.1,0.1,0.1,0.2,0,0.3c0,0,0,0,0,0C-114.3,20.8-114.4,20.9-114.4,21L-114.4,21z M-115.4,19.6c-0.1,0-0.1,0-0.2-0.1
			c-0.1-0.2-0.3-0.5-0.4-0.7c0-0.1,0-0.2,0.1-0.3c0.1,0,0.2,0,0.3,0.1c0.1,0.3,0.2,0.5,0.4,0.7C-115.1,19.4-115.2,19.5-115.4,19.6
			L-115.4,19.6z M-116.1,18.1c-0.1,0-0.1,0-0.2-0.1c-0.1-0.3-0.2-0.5-0.3-0.8c0-0.1,0-0.2,0.1-0.3c0.1,0,0.2,0,0.3,0.1
			c0.1,0.3,0.2,0.5,0.2,0.8C-115.9,18-115.9,18.1-116.1,18.1z M-116.5,16.6c-0.1,0-0.2-0.1-0.2-0.2c0-0.1,0-0.3-0.1-0.4v-0.4
			c0-0.1,0.1-0.2,0.2-0.2c0.1,0,0.2,0.1,0.2,0.2V16c0,0.1,0,0.3,0.1,0.4L-116.5,16.6z M-116.7,14.9L-116.7,14.9
			c-0.1,0-0.2-0.1-0.2-0.2v-0.8c0-0.1,0.1-0.2,0.2-0.2s0.2,0.1,0.2,0.2v0.8C-116.5,14.8-116.6,14.9-116.7,14.9L-116.7,14.9z
			 M-116.5,13.3L-116.5,13.3c-0.2,0-0.2-0.1-0.2-0.2c0.1-0.3,0.1-0.5,0.2-0.8c0-0.1,0.1-0.2,0.3-0.1c0.1,0,0.2,0.1,0.1,0.3
			c-0.1,0.3-0.1,0.5-0.2,0.8C-116.3,13.2-116.4,13.3-116.5,13.3L-116.5,13.3z M-105.2,12.1h-0.7c-0.1,0-0.2-0.1-0.2-0.2
			c0-0.1,0.1-0.2,0.2-0.2h0.8c0.1,0,0.2,0.1,0.2,0.2C-104.9,12-105,12.1-105.2,12.1L-105.2,12.1z M-104.3,12.1
			c-0.1,0-0.2-0.1-0.2-0.2c0-0.1,0.1-0.2,0.2-0.2c0.3,0,0.5-0.1,0.8-0.1c0.1,0,0.2,0,0.2,0.2c0,0.1,0,0.2-0.2,0.2
			C-103.8,12-104.1,12-104.3,12.1L-104.3,12.1z M-106.8,12L-106.8,12c-0.3,0-0.6-0.1-0.9-0.1c-0.1,0-0.2-0.1-0.2-0.2
			c0-0.1,0.1-0.2,0.2-0.2c0.3,0.1,0.5,0.1,0.8,0.1c0.1,0,0.2,0.1,0.2,0.2C-106.6,11.9-106.7,12-106.8,12L-106.8,12z M-102.7,11.7
			c-0.1,0-0.1,0-0.2-0.1c0-0.1,0-0.2,0.1-0.3c0.2-0.1,0.5-0.2,0.7-0.3c0.1-0.1,0.2,0,0.3,0.1s0,0.2-0.1,0.3
			C-102.2,11.5-102.5,11.6-102.7,11.7z M-108.4,11.7L-108.4,11.7c-0.3-0.1-0.6-0.2-0.9-0.2c-0.1-0.1-0.2-0.2-0.1-0.3
			c0.1-0.1,0.2-0.2,0.3-0.1l0,0c0.3,0.1,0.5,0.2,0.8,0.2c0.1,0,0.2,0.1,0.1,0.3C-108.2,11.7-108.3,11.7-108.4,11.7L-108.4,11.7z
			 M-116.1,11.7L-116.1,11.7c-0.2-0.1-0.2-0.2-0.2-0.3c0.1-0.3,0.2-0.5,0.3-0.8c0-0.1,0.2-0.1,0.3-0.1s0.1,0.2,0.1,0.3
			c-0.1,0.2-0.2,0.5-0.3,0.7C-115.9,11.7-116,11.7-116.1,11.7L-116.1,11.7z M-110,11.2L-110,11.2c-0.3-0.1-0.5-0.2-0.8-0.4
			c-0.1-0.1-0.2-0.2-0.1-0.3s0.2-0.2,0.3-0.1c0.3,0.1,0.5,0.2,0.7,0.4c0.1,0,0.2,0.1,0.1,0.2c0,0,0,0,0,0.1
			C-109.9,11.1-110,11.2-110,11.2L-110,11.2z M-101.4,10.9c-0.1,0-0.1,0-0.2-0.1c-0.1-0.1-0.1-0.2,0-0.3c0,0,0,0,0,0
			c0.2-0.2,0.4-0.4,0.5-0.6c0.1-0.1,0.2-0.1,0.3,0c0.1,0.1,0.1,0.2,0,0.3L-101.4,10.9C-101.3,10.9-101.3,10.9-101.4,10.9
			L-101.4,10.9z M-111.4,10.4L-111.4,10.4c-0.4-0.1-0.6-0.3-0.8-0.5c-0.1-0.1-0.1-0.2,0-0.3c0.1-0.1,0.2-0.1,0.3,0l0,0
			c0.2,0.2,0.4,0.4,0.7,0.5c0.1,0.1,0.1,0.2,0.1,0.3H-111.4z M-115.4,10.2L-115.4,10.2c-0.2-0.1-0.2-0.2-0.2-0.3
			c0.1-0.2,0.3-0.5,0.4-0.7c0.1-0.1,0.2-0.1,0.3-0.1c0.1,0.1,0.1,0.2,0.1,0.3c-0.2,0.2-0.3,0.4-0.4,0.7
			C-115.2,10.2-115.3,10.2-115.4,10.2L-115.4,10.2z M-100.4,9.6L-100.4,9.6c-0.2-0.1-0.2-0.2-0.2-0.3c0.1-0.2,0.2-0.5,0.3-0.7
			c0-0.1,0.1-0.2,0.3-0.1c0.1,0,0.2,0.1,0.1,0.3c-0.1,0.3-0.2,0.5-0.3,0.8H-100.4z M-112.7,9.4L-112.7,9.4l-0.7-0.6
			c-0.1-0.1-0.1-0.2,0-0.3c0.1-0.1,0.2-0.1,0.3,0c0.2,0.2,0.4,0.4,0.6,0.5c0.1,0.1,0.1,0.2,0,0.3c0,0,0,0,0,0
			C-112.6,9.3-112.6,9.4-112.7,9.4L-112.7,9.4z M-114.5,8.8L-114.5,8.8c-0.2-0.1-0.2-0.2-0.1-0.3c0,0,0,0,0,0
			c0.1-0.2,0.3-0.3,0.4-0.5l-0.4-0.4c-0.1-0.1-0.1-0.2,0-0.3s0.2-0.1,0.3,0c0.1,0.2,0.3,0.3,0.4,0.5h0.1c0.1,0.1,0.1,0.1,0.1,0.2
			c0,0.1,0,0.2-0.1,0.2l-0.1,0.1c-0.1,0.2-0.3,0.3-0.4,0.5H-114.5z M-99.9,8.1L-99.9,8.1c-0.1,0-0.2-0.1-0.2-0.2V7.1
			c0-0.1,0.1-0.2,0.2-0.2s0.2,0.1,0.2,0.2v0.8C-99.8,8-99.8,8.1-99.9,8.1L-99.9,8.1z M-113.4,7.6C-113.5,7.6-113.5,7.6-113.4,7.6
			c-0.2-0.2-0.2-0.3-0.1-0.4c0,0,0,0,0,0l0.6-0.6c0.1-0.1,0.2-0.1,0.3,0c0.1,0.1,0.1,0.2,0,0.3l-0.6,0.6
			C-113.3,7.6-113.3,7.6-113.4,7.6L-113.4,7.6z M-115,7c-0.1,0-0.1,0-0.2-0.1c-0.2-0.2-0.4-0.4-0.5-0.7c-0.1-0.1,0-0.2,0-0.3
			c0.1-0.1,0.2,0,0.3,0c0.1,0.2,0.3,0.4,0.5,0.7c0.1,0.1,0.1,0.2,0,0.3C-114.9,6.9-114.9,6.9-115,7C-114.9,7-115,7-115,7
			C-115,7-115,7-115,7L-115,7z M-112.1,6.5c-0.1,0-0.1,0-0.2-0.1c-0.1-0.1-0.1-0.2,0-0.3c0,0,0,0,0,0c0.2-0.2,0.4-0.4,0.7-0.5
			c0.1-0.1,0.2,0,0.3,0.1c0.1,0.1,0,0.2-0.1,0.3C-111.6,6.2-111.9,6.4-112.1,6.5z M-100,6.4c-0.1,0-0.2-0.1-0.2-0.2
			c-0.1-0.2-0.2-0.5-0.3-0.7c-0.1-0.1,0-0.2,0.1-0.3c0.1-0.1,0.2,0,0.3,0.1c0.1,0.3,0.2,0.5,0.3,0.8C-99.8,6.3-99.9,6.4-100,6.4
			L-100,6.4z M-116,5.7c-0.1,0-0.1,0-0.2-0.1c-0.2-0.2-0.3-0.5-0.5-0.7c-0.1-0.1,0-0.2,0.1-0.3c0.1-0.1,0.2,0,0.3,0.1
			c0.1,0.2,0.3,0.4,0.5,0.7c0.1,0.1,0,0.2,0,0.3H-116z M-110.8,5.6c-0.1,0-0.1,0-0.2-0.1c-0.1-0.1,0-0.2,0.1-0.3
			c0.2-0.1,0.5-0.3,0.7-0.4c0.1-0.1,0.2,0,0.3,0.1c0.1,0.1,0,0.2-0.1,0.3C-110.2,5.3-110.5,5.5-110.8,5.6L-110.8,5.6z M-100.8,5
			C-100.9,5-100.9,5-100.8,5c-0.3-0.3-0.5-0.4-0.7-0.6c-0.1-0.1-0.2-0.2-0.1-0.3c0.1-0.1,0.2-0.2,0.3-0.1c0.2,0.1,0.5,0.3,0.7,0.5
			c0.1,0.1,0.1,0.2,0,0.3c0,0,0,0,0,0C-100.7,5-100.8,5-100.8,5L-100.8,5z M-109.3,4.8c-0.1,0-0.2,0-0.2-0.1c0-0.1,0-0.2,0.1-0.3
			c0.3-0.1,0.5-0.2,0.8-0.3c0.1-0.1,0.2,0,0.3,0.1c0,0.1,0,0.2-0.1,0.3C-108.7,4.6-109,4.7-109.3,4.8L-109.3,4.8z M-116.9,4.3
			c-0.1,0-0.1,0-0.2-0.1c-0.1-0.2-0.3-0.5-0.4-0.7c-0.1-0.1,0-0.2,0.1-0.3s0.2,0,0.3,0.1c0.1,0.2,0.3,0.5,0.4,0.7
			C-116.6,4.1-116.7,4.2-116.9,4.3L-116.9,4.3z M-107.8,4.3c-0.1,0-0.2-0.1-0.2-0.2c0-0.1,0-0.2,0.1-0.3c0.3-0.1,0.5-0.1,0.8-0.2
			c0.1,0,0.2,0,0.2,0.2c0,0.1,0,0.2-0.2,0.2C-107.4,4.1-107.6,4.2-107.8,4.3L-107.8,4.3z M-102.2,4.1L-102.2,4.1
			c-0.3-0.1-0.5-0.2-0.8-0.2c-0.1,0-0.2-0.1-0.2-0.2s0.1-0.2,0.2-0.2c0.3,0.1,0.6,0.1,0.8,0.2c0.1,0,0.2,0.1,0.1,0.2
			C-102,4-102,4-102.2,4.1C-102,4.1-102.1,4.1-102.2,4.1z M-106.2,3.9c-0.1,0-0.2-0.1-0.2-0.2s0.1-0.2,0.2-0.2
			c0.3,0,0.6-0.1,0.8-0.1c0.1,0,0.2,0.1,0.2,0.2s-0.1,0.2-0.2,0.2l0,0C-105.6,3.8-105.9,3.9-106.2,3.9z M-103.7,3.8h-0.8
			c-0.1,0-0.2-0.1-0.2-0.2s0.1-0.2,0.2-0.2l0,0h0.8c0.1,0,0.2,0.1,0.2,0.2S-103.6,3.8-103.7,3.8z M-117.6,2.9c-0.1,0-0.2,0-0.2-0.1
			c-0.1-0.3-0.2-0.5-0.3-0.8c0-0.1,0-0.2,0.1-0.3c0.1,0,0.2,0,0.3,0.1c0.1,0.2,0.2,0.5,0.3,0.7C-117.4,2.7-117.4,2.8-117.6,2.9
			L-117.6,2.9z M-118.2,1.3c-0.1,0-0.1,0-0.2-0.1c-0.1-0.3-0.2-0.5-0.2-0.8c0-0.1,0-0.2,0.1-0.3c0.1,0,0.2,0,0.3,0.1
			c0.1,0.3,0.1,0.5,0.2,0.8C-118,1.2-118.1,1.3-118.2,1.3L-118.2,1.3z M-118.6-0.3c-0.1,0-0.2-0.1-0.2-0.2c-0.1-0.3-0.1-0.5-0.1-0.8
			c0-0.1,0.1-0.2,0.2-0.2s0.2,0.1,0.2,0.2c0,0.3,0.1,0.5,0.1,0.8C-118.4-0.4-118.5-0.3-118.6-0.3z M-118.9-1.9
			c-0.1,0-0.2-0.1-0.2-0.2V-3c0-0.1,0.1-0.2,0.2-0.2c0.1,0,0.2,0.1,0.2,0.2v0.9C-118.7-2-118.8-1.9-118.9-1.9L-118.9-1.9z M-119-3.5
			L-119-3.5c-0.1,0-0.2-0.1-0.2-0.2v-0.8c0-0.1,0.1-0.2,0.2-0.2c0.1,0,0.2,0.1,0.2,0.2v0.8C-118.7-3.6-118.8-3.5-119-3.5L-119-3.5z
			 M-118.8-5.2L-118.8-5.2c-0.1,0-0.2-0.1-0.2-0.2c0-0.3,0.1-0.6,0.1-0.8c0-0.1,0.1-0.2,0.2-0.2s0.2,0.1,0.2,0.2
			c-0.1,0.3-0.1,0.5-0.1,0.8C-118.6-5.3-118.7-5.2-118.8-5.2L-118.8-5.2z M-118.5-6.8L-118.5-6.8c-0.2,0-0.2-0.1-0.2-0.3
			c0.1-0.3,0.1-0.5,0.2-0.8c0-0.1,0.1-0.2,0.3-0.1c0.1,0,0.2,0.1,0.1,0.3c-0.1,0.3-0.1,0.5-0.2,0.8C-118.4-6.8-118.4-6.8-118.5-6.8
			L-118.5-6.8z M-118.1-8.4L-118.1-8.4c-0.2,0-0.2-0.2-0.2-0.3c0.1-0.2,0.1-0.4,0.2-0.6v-0.1c0.1-0.1,0.2-0.2,0.3-0.1
			c0.1,0.1,0.2,0.2,0.1,0.3v0.1c-0.1,0.2-0.1,0.4-0.2,0.6C-117.9-8.4-118-8.4-118.1-8.4L-118.1-8.4z M-117.5-9.9L-117.5-9.9
			c-0.2-0.1-0.2-0.2-0.2-0.3c0.1-0.3,0.2-0.5,0.3-0.8c0.1-0.1,0.2-0.2,0.3-0.1c0.1,0.1,0.2,0.2,0.1,0.3c-0.1,0.3-0.2,0.5-0.3,0.8
			C-117.4-10-117.4-9.9-117.5-9.9L-117.5-9.9z M-116.9-11.5L-116.9-11.5c-0.2-0.1-0.2-0.2-0.2-0.3c0.1-0.3,0.2-0.5,0.4-0.7
			c0.1-0.1,0.2-0.1,0.3-0.1c0.1,0.1,0.1,0.2,0.1,0.3c-0.1,0.3-0.2,0.5-0.4,0.7C-116.8-11.5-116.8-11.5-116.9-11.5L-116.9-11.5z
			 M-116.1-12.8L-116.1-12.8c-0.2-0.1-0.2-0.2-0.2-0.3c0.1-0.2,0.3-0.5,0.4-0.7c0.1-0.1,0.2-0.1,0.3-0.1c0.1,0.1,0.1,0.2,0.1,0.3
			c-0.2,0.2-0.3,0.4-0.4,0.7C-116-12.9-116.1-12.9-116.1-12.8L-116.1-12.8z M-115.2-14.2h-0.1c-0.1-0.1-0.1-0.2,0-0.3c0,0,0,0,0,0
			c0.2-0.2,0.3-0.4,0.5-0.6c0.1-0.1,0.2-0.1,0.3,0c0.1,0.1,0.1,0.2,0,0.3c-0.2,0.2-0.4,0.4-0.5,0.6H-115.2z M-114.1-15.4
			C-114.2-15.4-114.2-15.4-114.1-15.4c-0.2-0.2-0.2-0.3-0.1-0.4c0,0,0,0,0,0l0.3-0.3c0.1-0.1,0.2-0.2,0.3-0.2c0.1-0.1,0.2-0.1,0.3,0
			s0.1,0.2,0,0.3c-0.1,0.1-0.2,0.2-0.3,0.2l-0.3,0.3C-114-15.5-114-15.4-114.1-15.4L-114.1-15.4z M-112.9-16.5c-0.1,0-0.1,0-0.2-0.1
			c-0.1-0.1-0.1-0.2,0-0.3c0,0,0,0,0,0c0.2-0.2,0.4-0.4,0.7-0.5c0.1-0.1,0.2,0,0.3,0.1s0,0.2-0.1,0.3
			C-112.4-16.8-112.7-16.7-112.9-16.5z M-111.5-17.4c-0.1,0-0.1,0-0.2-0.1c-0.1-0.1,0-0.2,0.1-0.3c0.2-0.1,0.5-0.3,0.7-0.4
			c0.1-0.1,0.2,0,0.3,0.1s0,0.2-0.1,0.3C-110.9-17.7-111.2-17.5-111.5-17.4L-111.5-17.4z M-110.1-18.2c-0.1,0-0.2,0-0.2-0.1
			c0-0.1,0-0.2,0.1-0.3c0.3-0.1,0.5-0.2,0.8-0.3c0.1,0,0.2,0,0.3,0.1c0,0.1,0,0.2-0.1,0.3C-109.5-18.4-109.8-18.3-110.1-18.2
			L-110.1-18.2z M-108.5-18.8c-0.1,0-0.1,0-0.2-0.1c0-0.1,0-0.2,0.1-0.3c0.3-0.1,0.5-0.2,0.8-0.2c0.1,0,0.2,0,0.2,0.2
			c0,0.1,0,0.2-0.2,0.2C-108-18.9-108.3-18.8-108.5-18.8L-108.5-18.8z M-106.9-19.1c-0.1,0-0.2-0.1-0.2-0.2c0-0.1,0.1-0.2,0.2-0.2
			c0.3-0.1,0.5-0.1,0.8-0.1c0.1-0.1,0.2,0,0.2,0.1c0,0.1-0.1,0.2-0.2,0.2C-106.3-19.2-106.6-19.2-106.9-19.1z"/>
	</g>
	<g id="Group_21836" transform="translate(133.496 172.406)">
		<path id="Path_12109" class="st3" d="M-101-127.7c-0.1,0-0.2-0.1-0.3-0.2s0-0.3,0.1-0.4l2.6-1.5c0.1-0.1,0.3,0,0.4,0.1
			c0.1,0.1,0,0.3-0.1,0.4l-2.6,1.6H-101z"/>
	</g>
	<g id="Group_21837" transform="translate(129.504 160.339)">
		<path id="Path_12110" class="st3" d="M-95-119.1L-95-119.1l-3.1-1c-0.2-0.1-0.2-0.2-0.2-0.4c0.1-0.2,0.2-0.3,0.4-0.2l3,1
			c0.2,0.1,0.2,0.2,0.2,0.4C-94.8-119.2-94.9-119.1-95-119.1z"/>
	</g>
	<g id="Group_21838" transform="translate(142.657 145.339)">
		<path id="Path_12111" class="st3" d="M-106.4-106c-0.1,0-0.2-0.1-0.3-0.2l-1.6-2.7c-0.1-0.1,0-0.3,0.1-0.4c0.1-0.1,0.3,0,0.4,0.1
			l1.6,2.7C-106.1-106.4-106.2-106.2-106.4-106C-106.3-106-106.3-106-106.4-106C-106.4-106-106.4-106-106.4-106z"/>
	</g>
	<g id="Group_21839" transform="translate(20.821 13.509)">
		<path id="Path_12112" class="st4" d="M-15.7-4.2c0-2.6,2.7-4.8,6-4.8s6.1,2.2,6.1,4.8"/>
	</g>
	<g id="Group_21840" transform="translate(79.118 13.509)">
		<path id="Path_12113" class="st4" d="M-60-4.2c0-2.7,2.7-4.8,6.1-4.8s6.1,2.2,6.1,4.8"/>
	</g>
	<g id="Group_21841" transform="translate(54.134 0.6)">
		<path id="Path_12114" class="st4" d="M-41,8.7c0-4.3,2.9-7.9,6.4-7.9s6.4,3.5,6.4,7.9"/>
	</g>
	<g id="Group_21842" transform="translate(331.465 161.335)">
		<path id="Path_12115" class="st4" d="M-251.9-117.1c0-2.4,2.1-4.4,4.7-4.4c2.6,0,4.7,2,4.7,4.4"/>
	</g>
	<g id="Group_21843" transform="translate(376.854 161.335)">
		<path id="Path_12116" class="st4" d="M-286.4-117.1c0-2.4,2.1-4.4,4.7-4.4c2.6,0,4.7,2,4.7,4.4"/>
	</g>
	<g id="Group_21844" transform="translate(357.282 149.676)">
		<path id="Path_12117" class="st4" d="M-271.5-105.4c0-4,2.3-7.2,5-7.2c2.8,0,5,3.2,5,7.2"/>
	</g>
	<g id="Group_21845" transform="translate(292.738 20.588)">
		<path id="Path_12118" class="st4" d="M-222.4-10.3c0-2.3,2.3-4.1,5.2-4.1s5.2,1.8,5.2,4.1"/>
	</g>
	<g id="Group_21846" transform="translate(321.054 9.761)">
		<path id="Path_12119" class="st4" d="M-244,0.5c0-3.7,2.5-6.7,5.5-6.7c3,0,5.5,3,5.5,6.7"/>
	</g>
	<g id="Group_21847" transform="translate(0 359.964)">
		<path id="Path_12120" class="st4" d="M0.2-268.4c0-2.3,2.3-4.1,5.2-4.1s5.2,1.8,5.2,4.1"/>
	</g>
	<g id="Group_21848" transform="translate(28.316 349.138)">
		<path id="Path_12121" class="st4" d="M-21.4-257.6c0-3.7,2.5-6.7,5.5-6.7s5.5,3,5.5,6.7"/>
	</g>
	<g id="Group_21849" transform="translate(65.793 105.952)" class="st0">
		<circle id="Ellipse_264" class="st4" cx="-47.5" cy="-76.9" r="2.2"/>
		<path id="Path_12122" class="st6" d="M-47.5-74.6c-0.6,0-1.2-0.3-1.7-0.7c-0.5-0.4-0.7-1.1-0.7-1.7c0-0.6,0.3-1.2,0.7-1.7
			c0.4-0.5,1.1-0.7,1.7-0.7c1.3,0,2.4,1.1,2.4,2.5c0,0.7-0.3,1.3-0.7,1.7C-46.2-74.7-46.8-74.5-47.5-74.6z M-47.5-78.8
			c-0.5,0-0.9,0.2-1.3,0.5c-0.7,0.7-0.7,1.9,0,2.6c0.7,0.7,1.9,0.7,2.6,0c0.7-0.7,0.7-1.9,0-2.6C-46.5-78.7-47-78.8-47.5-78.8z"/>
	</g>
	<g id="Group_21850" transform="translate(75.579 391.195)" class="st0">
		<circle id="Ellipse_265" class="st4" cx="-54.9" cy="-293.8" r="2.2"/>
		<path id="Path_12123" class="st6" d="M-54.9-291.4c-1.3,0-2.4-1.1-2.4-2.5c0-0.7,0.3-1.3,0.7-1.7l0,0c0.4-0.5,1.1-0.7,1.7-0.7
			c1.3,0,2.4,1.1,2.4,2.5c0,0.7-0.3,1.3-0.7,1.7C-53.6-291.6-54.2-291.4-54.9-291.4z M-56.1-295.1c-0.7,0.7-0.7,1.9,0,2.6
			c0.7,0.7,1.9,0.7,2.6,0c0.7-0.7,0.7-1.9,0-2.6c-0.6-0.7-1.7-0.8-2.4-0.2C-56-295.2-56.1-295.1-56.1-295.1z"/>
	</g>
	<g id="Group_21851" transform="translate(351.453 370.791)" class="st0">
		<circle id="Ellipse_266" class="st4" cx="-265.6" cy="-279.3" r="1.2"/>
		<path id="Path_12124" class="st6" d="M-265.6-277.8c-0.8,0-1.5-0.7-1.5-1.5s0.7-1.5,1.5-1.5s1.5,0.7,1.5,1.5
			C-264-278.5-264.7-277.8-265.6-277.8z M-265.6-280.2c-0.5,0-0.9,0.4-0.9,0.9s0.4,0.9,0.9,0.9s0.9-0.4,0.9-0.9
			C-264.7-279.7-265.1-280.1-265.6-280.2C-265.6-280.2-265.6-280.2-265.6-280.2L-265.6-280.2z"/>
	</g>
	<g id="Group_21852" transform="translate(258.592 314.575)" class="st0">
		<circle id="Ellipse_267" class="st4" cx="-195" cy="-236.5" r="1.2"/>
		<path id="Path_12125" class="st6" d="M-195-235c-0.8,0-1.5-0.7-1.5-1.5s0.7-1.5,1.5-1.5s1.5,0.7,1.5,1.5
			C-193.5-235.7-194.2-235-195-235z M-195-237.4c-0.5,0-0.9,0.4-0.9,0.9s0.4,0.9,0.9,0.9c0.5,0,0.9-0.4,0.9-0.9
			C-194.1-237-194.5-237.4-195-237.4C-195-237.4-195-237.4-195-237.4L-195-237.4z"/>
	</g>
	<g id="Group_21853" transform="translate(74.538 234.208)" class="st0">
		<circle id="Ellipse_268" class="st4" cx="-55" cy="-175.4" r="1.2"/>
		<path id="Path_12126" class="st6" d="M-55-173.9c-0.8,0-1.5-0.7-1.5-1.5s0.7-1.5,1.5-1.5c0.8,0,1.5,0.7,1.5,1.5
			C-53.5-174.6-54.1-173.9-55-173.9C-55-173.9-55-173.9-55-173.9z M-55-176.3c-0.5,0-0.9,0.4-0.9,0.9s0.4,0.9,0.9,0.9
			s0.9-0.4,0.9-0.9C-54.1-175.9-54.5-176.3-55-176.3C-55-176.3-55-176.3-55-176.3L-55-176.3z"/>
	</g>
	<g id="Group_21854" transform="translate(270.623 90.084)" class="st0">
		<circle id="Ellipse_269" class="st4" cx="-204" cy="-65.7" r="1.3"/>
		<path id="Path_12127" class="st6" d="M-204-64.1c-0.8,0-1.5-0.6-1.6-1.4c-0.1-0.9,0.5-1.7,1.4-1.8c0,0,0,0,0,0l0,0
			c0.9-0.1,1.7,0.5,1.8,1.4c0.1,0.9-0.5,1.7-1.4,1.8l0,0H-204z M-204.1-66.7c-0.6,0.1-1,0.6-0.9,1.1c0.1,0.6,0.6,1,1.1,0.9
			c0.6-0.1,1-0.6,0.9-1.1C-203.1-66.4-203.6-66.8-204.1-66.7z"/>
	</g>
	<g id="Group_21855" transform="translate(247.037 144.367)">
		<path id="Path_12128" class="st3" d="M-187.4-105.8c-0.1,0-0.2,0-0.2-0.1c-0.1-0.1-0.1-0.3,0-0.4l2.1-2.2c0.1-0.1,0.3-0.1,0.4,0
			c0.1,0.1,0.1,0.3,0,0.4l-2.1,2.2C-187.2-105.8-187.3-105.8-187.4-105.8z"/>
	</g>
	<g id="Group_21856" transform="translate(251.93 160.919)">
		<path id="Path_12129" class="st3" d="M-187.9-120.5h-3.2c-0.2,0-0.3-0.1-0.3-0.3c0-0.2,0.1-0.3,0.3-0.3h3.2c0.1,0,0.3,0.1,0.3,0.2
			c0,0,0,0.1,0,0.1C-187.7-120.7-187.8-120.6-187.9-120.5z"/>
	</g>
	<g id="Group_21857" transform="translate(247.453 170.184)">
		<path id="Path_12130" class="st3" d="M-185.4-125.5c-0.1,0-0.1,0-0.2-0.1l-2.3-2.1c-0.1-0.1-0.1-0.3,0-0.4c0.1-0.1,0.3-0.1,0.4,0
			c0,0,0,0,0,0l2.3,2.1c0.1,0.1,0.1,0.3,0,0.4C-185.3-125.6-185.4-125.5-185.4-125.5z"/>
	</g>
</g>
</svg>
