<?xml version="1.0" encoding="utf-8"?>
<!-- Generator: Adobe Illustrator 24.1.1, SVG Export Plug-In . SVG Version: 6.00 Build 0)  -->
<svg version="1.1" id="Layer_1" xmlns="http://www.w3.org/2000/svg" xmlns:xlink="http://www.w3.org/1999/xlink" x="0px" y="0px"
	 viewBox="0 0 100 100" style="enable-background:new 0 0 100 100;" xml:space="preserve">
<style type="text/css">
	.st0{fill:#FF6666;}
</style>
<g>
	<g>
		<path class="st0" d="M13.3,58.3H3.2c-1.9,0-3.4,1.1-3.4,2.6v29.6c0,1.4,1.5,2.6,3.4,2.6h10.2c1.9,0,3.4-1.2,3.4-2.6V60.9
			C16.7,59.4,15.2,58.3,13.3,58.3z"/>
		<path class="st0" d="M41.3,38.5H31.2c-1.9,0-3.4,1.4-3.4,3.1V90c0,1.7,1.5,3.1,3.4,3.1h10.2c1.9,0,3.4-1.4,3.4-3.1V41.6
			C44.7,39.9,43.2,38.5,41.3,38.5z"/>
		<path class="st0" d="M68.6,20.5H58.5c-1.9,0-3.4,1.5-3.4,3.3v66c0,1.8,1.5,3.3,3.4,3.3h10.2c1.9,0,3.4-1.5,3.4-3.3v-66
			C72,22,70.5,20.5,68.6,20.5z"/>
		<path class="st0" d="M96.4,5.6H86.3c-1.9,0-3.4,1.5-3.4,3.4v80.7c0,1.9,1.5,3.4,3.4,3.4h10.2c1.9,0,3.4-1.5,3.4-3.4V8.9
			C99.8,7.1,98.3,5.6,96.4,5.6z"/>
	</g>
</g>
</svg>
