<?xml version="1.0" encoding="utf-8"?>
<!-- Generator: Adobe Illustrator 24.1.2, SVG Export Plug-In . SVG Version: 6.00 Build 0)  -->
<svg version="1.1" id="Layer_1" xmlns="http://www.w3.org/2000/svg" xmlns:xlink="http://www.w3.org/1999/xlink" x="0px" y="0px"
	 viewBox="0 0 100 100" style="enable-background:new 0 0 100 100;" xml:space="preserve">
<style type="text/css">
	.st0{opacity:0.15;}
	.st1{fill:#E0E3E9;}
	.st2{fill:#2B374F;}
	.st3{opacity:0.4;fill:#EDF0F3;enable-background:new    ;}
	.st4{fill:#EDF0F3;}
	.st5{fill:#FFFFFF;}
	.st6{fill:#99AAB7;}
</style>
<g id="noNotification" transform="translate(-5.424 -2.917)">
	<g id="Group_21979" transform="translate(18.173 44.254)" class="st0">
		<circle id="Ellipse_1656" class="st1" cx="-2.1" cy="-14.1" r="2.5"/>
		<path id="Path_15639" class="st2" d="M-2.1-11.3c-1.6,0-2.8-1.3-2.8-2.8s1.3-2.8,2.8-2.8c1.6,0,2.8,1.3,2.8,2.8c0,0,0,0,0,0
			C0.8-12.6-0.5-11.3-2.1-11.3C-2-11.3-2.1-11.3-2.1-11.3z M-2.1-16.3c-1.2,0-2.1,0.9-2.1,2.1s0.9,2.1,2.1,2.1S0-13.1,0-14.2
			c0-1.1-0.8-2.1-2-2.1C-2-16.3-2-16.3-2.1-16.3z"/>
	</g>
	<g id="Group_21980" transform="translate(5.424 111.685)" class="st0">
		<circle id="Ellipse_1657" class="st1" cx="5.2" cy="-40.2" r="4.2"/>
		<path id="Path_15640" class="st2" d="M5.2-35.5c-2.6,0-4.8-2.1-4.8-4.8c0-2.6,2.1-4.8,4.8-4.8c2.6,0,4.7,2.1,4.8,4.8
			c0,2.6-2,4.7-4.6,4.8C5.2-35.5,5.2-35.5,5.2-35.5z M5.2-44c-2,0-3.6,1.6-3.6,3.6c0,2,1.6,3.6,3.6,3.6c2,0,3.6-1.6,3.6-3.6
			c0.1-1.9-1.4-3.5-3.3-3.6C5.3-44,5.2-44,5.2-44z"/>
	</g>
	<g id="Group_21981" transform="translate(164.587 37.187)" class="st0">
		<circle id="Ellipse_1658" class="st1" cx="-63.1" cy="-11.2" r="2.4"/>
		<path id="Path_15641" class="st2" d="M-63.1-8.5c-1.5,0-2.7-1.2-2.7-2.7s1.2-2.7,2.7-2.7c1.5,0,2.7,1.2,2.7,2.7c0,0,0,0,0,0
			C-60.3-9.7-61.5-8.5-63.1-8.5C-63.1-8.5-63.1-8.5-63.1-8.5z M-63.1-13.4c-1.1,0-2.1,0.9-2.1,2.1c0,1.1,0.9,2.1,2.1,2.1
			c1.1,0,2.1-0.9,2.1-2.1v0c0-1.1-0.8-2-1.9-2.1C-63-13.4-63.1-13.4-63.1-13.4L-63.1-13.4z"/>
	</g>
	<path id="Path_15642" class="st1" d="M31.2,62.4V41.9c0,0,2.5-7.8,8.5-7.6c6,0.1,9.1,7.9,9.1,7.9l0.3,20.6L31.2,62.4z"/>
	<circle id="Ellipse_1659" class="st3" cx="57.1" cy="56.8" r="41.6"/>
	<circle id="Ellipse_1660" class="st4" cx="57.1" cy="56.8" r="32.5"/>
	<g id="Group_21985" transform="translate(43.786 55.806)">
		<g id="Group_21982" transform="translate(22.418)">
			<path id="Path_15643" class="st1" d="M17.4-12.9V7.3h-31.8v-18.6c0-5.8-4.7-10.4-10.4-10.4H8.5C13.4-21.7,17.4-17.8,17.4-12.9
				L17.4-12.9z"/>
		</g>
		<g id="Group_21983">
			<path id="Path_15644" class="st5" d="M-3.8-21.7c-5.2,0.7-9.1,5.1-9.1,10.4V7.3h-2.7v-18.6c0-5.8,4.7-10.4,10.4-10.4c0,0,0,0,0,0
				C-4.7-21.7-4.3-21.7-3.8-21.7z"/>
		</g>
		<g id="Group_21984" transform="translate(20.142)">
			<path id="Path_15645" class="st5" d="M-12.2-11.3V7.3h-2.7v-18.6c0-5.3-3.9-9.7-9.1-10.4c0.4-0.1,0.9-0.1,1.3-0.1
				C-16.9-21.7-12.2-17.1-12.2-11.3z"/>
		</g>
	</g>
	<g id="Group_21986" transform="translate(39.398 105.511)">
		<path id="Path_15646" class="st1" d="M12.8-42L4.1-30.7c-2.2,3.8-13.5,10.4-17.9,4.9c5.5,1.3,11.3-0.8,14.7-5.3l8.7-11.2L12.8-42z
			"/>
	</g>
	<g id="Group_21987" transform="translate(47.299 54.917)">
		<path id="Path_15647" class="st6" d="M2.4,8.8H-17v-19.2c0-5.5,4.1-10.2,9.6-11h0.2c5.5,0.7,9.6,5.4,9.6,11L2.4,8.8z M-15.8,7.6
			h17v-18c0-4.9-3.6-9.1-8.5-9.8c-4.9,0.7-8.5,4.8-8.5,9.8V7.6z"/>
	</g>
	<g id="Group_21988" transform="translate(47.299 54.917)">
		<path id="Path_15648" class="st6" d="M2.4,8.8H-17v-19.2c0-5.5,4.1-10.2,9.6-11h0.2c5.5,0.7,9.6,5.4,9.6,11L2.4,8.8z M-15.8,7.6
			h17v-18c0-4.9-3.6-9.1-8.5-9.8c-4.9,0.7-8.5,4.8-8.5,9.8V7.6z"/>
	</g>
	<g id="Group_21989" transform="translate(66.204 54.772)">
		<path id="Path_15649" class="st6" d="M18,8.9h-33v-19.2c0-5.4-4.4-9.8-9.8-9.8v-1.2H8.5c5.2,0,9.5,4.2,9.5,9.5V8.9z M-13.9,7.7
			h30.6v-19.6c0-4.6-3.7-8.2-8.3-8.3h-28.4c3.7,1.9,6,5.7,6,9.8V7.7z"/>
	</g>
	<g id="Group_21990" transform="translate(42.752 54.772)">
		<path id="Path_15650" class="st6" d="M-11.3,8.9h-3.9v-19.2c0-6.1,4.9-11,11-11c0.5,0,0.9,0,1.4,0.1L2-20.6L-2.7-20
			c-4.9,0.7-8.6,4.8-8.6,9.8L-11.3,8.9z M-13.9,7.7h1.4v-18c0-3.7,1.9-7.2,5-9.2c-3.9,1.4-6.4,5.1-6.4,9.2L-13.9,7.7z"/>
	</g>
	<g id="Group_21991" transform="translate(55.571 54.772)">
		<path id="Path_15651" class="st6" d="M-3.2,8.9h-3.9v-19.2c0-4.9-3.7-9.1-8.6-9.8l-4.8-0.6l4.8-0.6c0.5-0.1,0.9-0.1,1.4-0.1
			c6.1,0,11,4.9,11.1,11V8.9z M-5.9,7.7h1.4v-18c0-4.1-2.6-7.8-6.4-9.2c3.1,2,5,5.5,5,9.2V7.7z"/>
	</g>
	<g id="Group_21992" transform="translate(47.299 54.772)">
		<path id="Path_15652" class="st6" d="M2.4,8.9H-17v-19.2c0-4.4,2.6-8.4,6.7-10.1l-1.8-0.2l3.6-0.4v-0.2H-6v0.2l3.4,0.4l-1.7,0.2
			c4.1,1.7,6.7,5.7,6.7,10.2V8.9z M-15.8,7.7h17v-18c0-4.9-3.6-9.1-8.5-9.8c-4.9,0.7-8.5,4.8-8.5,9.8V7.7z"/>
	</g>
	<g id="Group_21993" transform="translate(36.791 104.401)">
		<path id="Path_15653" class="st6" d="M-6.3-22c-2,0.1-4-0.8-5.3-2.4l-1-1.3l1.7,0.4c5.3,1.2,10.8-0.8,14.1-5.1L12-42l4.5,0.7
			l-9.3,12c-1.7,2.9-7.8,6.8-12.8,7.2C-5.8-22.1-6.1-22-6.3-22z M-9.1-23.9c1.1,0.5,2.3,0.7,3.4,0.6c4.8-0.3,10.5-4.3,11.9-6.7
			l8.1-10.5l-1.7-0.3L4.1-29.7C0.9-25.7-4-23.5-9.1-23.9L-9.1-23.9z"/>
	</g>
	<g id="Group_21994" transform="translate(30.58 104.862)">
		<path id="Path_15654" class="st6" d="M-5.1-24.7c-3.5-0.8-5.6-4.2-4.9-7.7c0.2-1,0.6-1.9,1.3-2.6l5.8-7.2l0.9,0.8l-5.8,7.2
			c-1.8,2.2-1.4,5.5,0.8,7.3c0.6,0.5,1.3,0.8,2.1,1L-5.1-24.7z"/>
	</g>
	<g id="Group_21995" transform="translate(91.419 105.51)">
		<rect id="Rectangle_2407" x="-35.4" y="-42.4" class="st6" width="1.2" height="34.2"/>
	</g>
	<g id="Group_21996" transform="translate(109.892 105.51)">
		<rect id="Rectangle_2408" x="-43.1" y="-42.4" class="st6" width="1.2" height="38.2"/>
	</g>
	<g id="Group_21997" transform="translate(72.671 105.51)">
		<path id="Path_15655" class="st6" d="M-19.9-2.6l-3.7-5.1l-3.1,3l-0.8-0.9l4.1-4l3.6,5l3.9-5.1l3.1,4.4l3.3-3.2v-33.9h1.2V-8
			l-4.6,4.5l-3-4.2L-19.9-2.6z"/>
	</g>
	<g id="Group_21998" transform="translate(103.721 163.308)">
		<path id="Path_15656" class="st6" d="M-36.4-61.3l-4.1-4.4l0.9-0.8l3.4,3.6l3.2-2.2l3.8,2.4l-0.6,1l-3.2-2L-36.4-61.3z"/>
	</g>
	<g id="Group_21999" transform="translate(118.844 83.819)">
		<rect id="Rectangle_2409" x="-46.8" y="-33.4" class="st5" width="4" height="4.6"/>
	</g>
	<g id="Group_22000" transform="translate(99.491 90.701)">
		<rect id="Rectangle_2410" x="-38.8" y="-36.3" class="st6" width="15" height="1.2"/>
	</g>
	<g id="Group_22001" transform="translate(119.568 67.537)">
		<path id="Path_15657" class="st6" d="M-45.4-23.2c-0.9,0-1.7-0.8-1.7-1.7c0-0.9,0.8-1.7,1.7-1.7c0.9,0,1.7,0.8,1.7,1.7
			C-43.7-24-44.5-23.2-45.4-23.2z M-45.4-25.4c-0.3,0-0.5,0.2-0.5,0.5c0,0.3,0.2,0.5,0.5,0.5c0.3,0,0.5-0.2,0.5-0.5c0,0,0,0,0,0
			C-44.9-25.2-45.1-25.4-45.4-25.4L-45.4-25.4z"/>
	</g>
	<g id="Group_22002" transform="translate(99.476 67.537)">
		<path id="Path_15658" class="st6" d="M-37-23.2c-0.9,0-1.7-0.8-1.7-1.7c0-0.9,0.8-1.7,1.7-1.7c0.9,0,1.7,0.8,1.7,1.7
			C-35.3-24-36.1-23.2-37-23.2z M-37-25.4c-0.3,0-0.5,0.2-0.5,0.5c0,0.3,0.2,0.5,0.5,0.5c0.3,0,0.5-0.2,0.5-0.5
			C-36.5-25.2-36.8-25.4-37-25.4C-37-25.4-37-25.4-37-25.4z"/>
	</g>
	<g id="Group_22003" transform="translate(83.062 98.178)">
		<path id="Path_15659" class="st6" d="M-30.7-35.1h-1.2V-37c0-1.3,1.1-2.4,2.4-2.4c1.3,0,2.4,1.1,2.4,2.4c0,0,0,0,0,0v1.4h-1.2V-37
			c0-0.7-0.5-1.2-1.2-1.2c-0.7,0-1.2,0.5-1.2,1.2c0,0,0,0,0,0V-35.1z"/>
	</g>
	<path id="Path_15660" class="st6" d="M88,80.2h10.7l-5.4,9L88,80.2z"/>
	<g id="Path_15661">
		<path class="st6" d="M48.4,54.7c0,0-0.6-0.2-1.7-0.6l0.2-0.5c1,0.4,1.6,0.6,1.6,0.6L48.4,54.7z M45.1,53.5c-0.5-0.2-1-0.4-1.6-0.7
			l0.2-0.5c0.6,0.2,1.1,0.5,1.6,0.7L45.1,53.5z M41.8,52.1c-0.5-0.2-1.1-0.5-1.6-0.7l0.2-0.5c0.5,0.3,1.1,0.5,1.6,0.7L41.8,52.1z
			 M38.6,50.6c-0.5-0.3-1.1-0.5-1.6-0.8l0.3-0.5c0.5,0.3,1,0.5,1.6,0.8L38.6,50.6z M35.5,49c-0.5-0.3-1-0.6-1.5-0.9l0.3-0.5
			c0.5,0.3,1,0.6,1.5,0.9L35.5,49z M32.4,47.3c-0.5-0.3-1-0.6-1.5-1l0.3-0.5c0.5,0.3,1,0.6,1.5,1L32.4,47.3z M29.5,45.3
			c-0.5-0.4-1-0.8-1.4-1.1l0.4-0.4c0.4,0.4,0.9,0.7,1.3,1.1L29.5,45.3z M26.9,42.9c-0.4-0.5-0.8-1-1.1-1.4l0.5-0.3
			c0.3,0.4,0.6,0.9,1.1,1.3L26.9,42.9z M25,39.8c-0.2-0.5-0.2-1-0.2-1.5c0-0.1,0-0.2,0-0.3l0.6,0c0,0.1,0,0.2,0,0.3
			c0,0.4,0.1,0.9,0.2,1.3L25,39.8z M25.8,36.5l-0.5-0.3c0.3-0.5,0.6-1,1.1-1.5l0.4,0.4C26.4,35.6,26,36.1,25.8,36.5z M28.1,34.1
			l-0.3-0.5c0.5-0.3,1-0.6,1.5-0.9l0.3,0.5C29,33.5,28.5,33.8,28.1,34.1z M31.1,32.4l-0.3-0.5c0.5-0.3,1.1-0.5,1.5-0.8l0.3,0.5
			C32.2,31.9,31.7,32.2,31.1,32.4z M34.2,30.8l-0.3-0.5c0.5-0.3,1-0.6,1.5-0.9l0.3,0.5C35.3,30.2,34.7,30.5,34.2,30.8z M37.2,28.9
			l-0.3-0.5c0.5-0.3,1-0.7,1.4-1l0.3,0.5C38.2,28.3,37.7,28.6,37.2,28.9z M40.1,26.9l-0.4-0.5c0.5-0.4,0.9-0.8,1.3-1.1l0.4,0.4
			C41,26.1,40.5,26.5,40.1,26.9z M42.6,24.4L42.2,24c0.4-0.4,0.8-0.9,1.1-1.3l0.5,0.3C43.4,23.5,43.1,24,42.6,24.4z M44.7,21.5
			l-0.5-0.3c0.3-0.5,0.5-1.1,0.6-1.6l0.6,0.1C45.2,20.4,44.9,20.9,44.7,21.5z M44.9,18c0-0.6-0.1-1.1-0.3-1.6l0.6-0.2
			c0.2,0.6,0.3,1.2,0.3,1.8L44.9,18z M44,14.8c-0.3-0.5-0.6-0.9-1-1.4l0.4-0.4c0.4,0.5,0.8,1,1.1,1.5L44,14.8z M41.8,12.3
			c-0.4-0.3-0.6-0.5-0.6-0.5l0.2-0.2l-0.1-0.3c0.1-0.1,0.2-0.1,1,0.5L41.8,12.3z"/>
	</g>
	<g id="Group_22004" transform="translate(50.704 2.917)">
		<path id="Path_15663" class="st6" d="M-14.4,8.6c1.4,0.9,3.2,0.5,4.1-0.8l0.1-0.2c0.9-1.4,0.5-3.2-0.8-4.1c-1.1-0.7-2-1.7-2.6-2.9
			c-0.1-0.2-0.4-0.3-0.6-0.2c-0.1,0-0.1,0.1-0.2,0.1l-1.3,1.9c-0.6-0.4-1.4-0.2-1.8,0.4l0,0c0,0.1-0.1,0.1-0.1,0.2
			c-0.2,0.6-0.1,1.2,0.4,1.6l-1.3,1.9l0,0.1c-0.1,0.2,0,0.5,0.2,0.6c0,0,0,0,0,0c0,0,0.1,0,0.1,0C-16.7,7.4-15.5,7.8-14.4,8.6z
			 M-16.8,3.6c0-0.2,0.1-0.5,0.4-0.5c0.1,0,0.2,0,0.3,0l-0.5,0.7C-16.7,3.8-16.7,3.7-16.8,3.6z M-14,1.5c0.7,1,1.5,1.9,2.6,2.6
			c1,0.6,1.2,1.9,0.6,2.9l0,0L-11,7.3c-0.6,1-1.9,1.2-2.9,0.6l0,0c-1-0.7-2.2-1.2-3.4-1.4L-14,1.5z"/>
		<path id="Path_15664" class="st6" d="M-9,4l-0.5,0.3C-9.1,5-8.9,5.8-9,6.5l0.6,0.1C-8.3,5.7-8.5,4.8-9,4z"/>
		<path id="Path_15665" class="st6" d="M-7.8,6.9L-7.3,7c0.2-1.3-0.1-2.7-0.8-3.9l-0.5,0.3C-7.9,4.5-7.7,5.7-7.8,6.9z"/>
		<path id="Path_15666" class="st6" d="M-10.5,9.7l-0.3-0.5c-0.7,0.4-1.5,0.6-2.2,0.4l-0.1,0.6C-12.2,10.3-11.3,10.1-10.5,9.7z"/>
		<path id="Path_15667" class="st6" d="M-9.7,10.6l-0.3-0.5c-1,0.6-2.3,0.9-3.5,0.7l-0.1,0.6C-12.2,11.5-10.8,11.3-9.7,10.6z"/>
	</g>
</g>
</svg>
