<?xml version="1.0" encoding="utf-8"?>
<!-- Generator: Adobe Illustrator 24.1.2, SVG Export Plug-In . SVG Version: 6.00 Build 0)  -->
<svg version="1.1" id="Layer_1" xmlns="http://www.w3.org/2000/svg" xmlns:xlink="http://www.w3.org/1999/xlink" x="0px" y="0px"
	 viewBox="0 0 100 100" style="enable-background:new 0 0 100 100;" xml:space="preserve">
<style type="text/css">
	.st0{opacity:0.15;}
	.st1{fill:#E0E3E9;}
	.st2{fill:#2B374F;}
	.st3{opacity:0.4;fill:#EDF0F3;enable-background:new    ;}
	.st4{fill:#EDF0F3;}
	.st5{fill:#FFFFFF;}
	.st6{fill:#E4EEF9;}
	.st7{fill:#D5E0F2;}
	.st8{fill:#FFC4AD;}
	.st9{fill:#FFB69F;}
	.st10{fill:#FFCEB3;}
	.st11{fill:#E6485D;}
	.st12{fill:#FF5876;}
	.st13{fill:#99AAB7;}
</style>
<g id="Group_21981" transform="translate(164.587 37.187)" class="st0">
	<circle id="Ellipse_1658" class="st1" cx="-73.3" cy="-10.6" r="2.4"/>
	<path id="Path_15641" class="st2" d="M-73.3-7.9c-1.5,0-2.7-1.2-2.7-2.7s1.2-2.7,2.7-2.7c1.5,0,2.7,1.2,2.7,2.7l0,0
		C-70.5-9.1-71.7-7.9-73.3-7.9L-73.3-7.9z M-73.3-12.8c-1.1,0-2.1,0.9-2.1,2.1c0,1.1,0.9,2.1,2.1,2.1c1.1,0,2.1-0.9,2.1-2.1l0,0
		c0-1.1-0.8-2-1.9-2.1C-73.2-12.8-73.3-12.8-73.3-12.8L-73.3-12.8z"/>
</g>
<g id="Group_21981_1_" transform="translate(164.587 37.187)" class="st0">
	<circle id="Ellipse_1658_1_" class="st1" cx="-73.3" cy="48.5" r="1.6"/>
	<path id="Path_15641_1_" class="st2" d="M-73.3,50.3c-1,0-1.8-0.8-1.8-1.8s0.8-1.8,1.8-1.8c1,0,1.8,0.8,1.8,1.8l0,0
		C-71.5,49.5-72.3,50.3-73.3,50.3L-73.3,50.3z M-73.3,47.1c-0.7,0-1.4,0.6-1.4,1.4c0,0.7,0.6,1.4,1.4,1.4c0.7,0,1.4-0.6,1.4-1.4l0,0
		c0-0.7-0.5-1.3-1.3-1.4C-73.3,47.1-73.3,47.1-73.3,47.1L-73.3,47.1z"/>
</g>
<g id="Group_21981_2_" transform="translate(164.587 37.187)" class="st0">
	<circle id="Ellipse_1658_2_" class="st1" cx="-149.1" cy="48.5" r="1.6"/>
	<path id="Path_15641_2_" class="st2" d="M-149.1,50.3c-1,0-1.8-0.8-1.8-1.8s0.8-1.8,1.8-1.8c1,0,1.8,0.8,1.8,1.8l0,0
		C-147.2,49.5-148,50.3-149.1,50.3L-149.1,50.3z M-149.1,47.1c-0.7,0-1.4,0.6-1.4,1.4c0,0.7,0.6,1.4,1.4,1.4c0.7,0,1.4-0.6,1.4-1.4
		l0,0c0-0.7-0.5-1.3-1.3-1.4C-149,47.1-149.1,47.1-149.1,47.1L-149.1,47.1z"/>
</g>
<g id="Group_21981_3_" transform="translate(164.587 37.187)" class="st0">
	<circle id="Ellipse_1658_3_" class="st1" cx="-154.7" cy="39.3" r="1.4"/>
	<path id="Path_15641_3_" class="st2" d="M-154.7,40.9c-0.9,0-1.6-0.7-1.6-1.6s0.7-1.6,1.6-1.6c0.9,0,1.6,0.7,1.6,1.6l0,0
		C-153.1,40.2-153.8,40.9-154.7,40.9L-154.7,40.9z M-154.7,38c-0.6,0-1.2,0.5-1.2,1.2c0,0.6,0.5,1.2,1.2,1.2c0.6,0,1.2-0.5,1.2-1.2
		l0,0c0-0.6-0.5-1.2-1.1-1.2C-154.7,38-154.7,38-154.7,38L-154.7,38z"/>
</g>
<circle id="Ellipse_1659" class="st3" cx="51.7" cy="53.9" r="41.6"/>
<circle id="Ellipse_1660" class="st4" cx="51.7" cy="53.9" r="32.5"/>
<g>
	<g>
		<g>
			<path class="st1" d="M71.2,86.9H30.7V76.1c0-8.6,7-15.6,15.6-15.6h9.3c8.6,0,15.6,7,15.6,15.6L71.2,86.9z"/>
		</g>
		<g>
			<path class="st5" d="M30.7,84.5h40.5v2.4H30.7L30.7,84.5z"/>
		</g>
		<g>
			<path class="st6" d="M50.9,74.9l11.6-12.8c-2.1-1-4.5-1.6-7-1.6h-9.3c-2.5,0-4.9,0.6-7,1.6L50.9,74.9z"/>
		</g>
		<g>
			<path class="st7" d="M40.9,61.5c-0.5,0.2-1.1,0.4-1.6,0.7l11.6,12.8l11.6-12.8c-0.5-0.3-1-0.5-1.6-0.7l-9.5,10.5
				c-0.3,0.3-0.7,0.3-1,0L40.9,61.5z"/>
		</g>
		<g>
			<g>
				<path class="st8" d="M38.3,47.8v-5.1c-0.1,0-0.3,0-0.4,0c-2.3,0-4.2,1.9-4.2,4.2c0,2.3,1.9,4.2,4.2,4.2c0.3,0,0.6,0,0.9-0.1
					C38.4,50,38.3,49,38.3,47.8L38.3,47.8z"/>
			</g>
			<g>
				<path class="st8" d="M64,42.7c-0.1,0-0.3,0-0.4,0v5.1c0,1.1-0.1,2.2-0.4,3.3c0.3,0.1,0.6,0.1,0.9,0.1c2.3,0,4.2-1.9,4.2-4.2
					C68.3,44.6,66.4,42.7,64,42.7L64,42.7z"/>
			</g>
		</g>
		<g>
			<path class="st9" d="M37.8,48.8c-1.9,0-3.5-1.3-4-3c-0.1,0.4-0.2,0.8-0.2,1.2c0,2.3,1.9,4.2,4.2,4.2c0.3,0,0.6,0,0.9-0.1
				c-0.2-0.8-0.3-1.5-0.4-2.4C38.1,48.8,38,48.8,37.8,48.8z"/>
		</g>
		<g>
			<path class="st9" d="M64,48.8c-0.2,0-0.3,0-0.5,0c-0.1,0.8-0.2,1.6-0.4,2.4c0.3,0.1,0.6,0.1,0.9,0.1c2.3,0,4.2-1.9,4.2-4.2
				c0-0.4-0.1-0.8-0.2-1.2C67.6,47.5,65.9,48.8,64,48.8L64,48.8z"/>
		</g>
		<g>
			<path class="st5" d="M38.3,29.7v18.1c0,7,5.7,12.7,12.7,12.7s12.7-5.7,12.7-12.7V29.7H38.3z"/>
		</g>
		<g>
			<path class="st10" d="M50.9,58.1c-7,0-12.7-5.7-12.7-12.7v2.4c0,7,5.7,12.7,12.7,12.7s12.7-5.7,12.7-12.7v-2.4
				C63.6,52.4,57.9,58.1,50.9,58.1z"/>
		</g>
		<g>
			<path class="st1" d="M63.6,39c-2.5-1.4-4.8-5.6-4.8-5.6c-2.4,4.6-7.7,5.1-7.7,5.1c0.5-2.3-1.3-4.5-1.3-4.5
				c-4.2,4.9-9.7,5.3-11.2,5.3c-0.2,0-0.4,0-0.6-0.1c-3.3-1-6.4-5.1-6.4-5.1c4.8,0.1,6.4-3,6.4-3c-4.9,0.1-5.2-4.9-5.2-4.9
				c7.4,1,8.9-3.4,15.4-5.3s11.1,3,11.1,3s6.6-0.6,7.2,6.1C67,36.4,63.6,39,63.6,39"/>
		</g>
		<g>
			<g>
				<path class="st5" d="M63.1,36.3c-1.6-1.1-3.1-3.2-3.8-4.4c-0.3-0.4-0.8-0.4-1.1,0c-2.7,3.5-8.4,2.1-8.4,2.1s1.8,2.2,1.3,4.5
					c0,0,5.3-0.5,7.7-5.1c0,0,2.3,4.2,4.8,5.6c0,0,3.3-2.6,2.8-8.9c-0.3,3.4-1.7,5.3-2.4,6.1C63.8,36.5,63.4,36.5,63.1,36.3z"/>
			</g>
			<g>
				<path class="st5" d="M49.9,33.2c0.1-0.6-0.7-1-1.1-0.6c-4.1,3.9-8.9,4.2-10.2,4.2c-0.2,0-0.4,0-0.6-0.1
					c-1.6-0.5-3.2-1.7-4.3-2.8c-0.6,0.1-1.3,0.2-2.1,0.2c0,0,3.1,4.1,6.4,5.1c0.2,0.1,0.4,0.1,0.6,0.1c1.4,0,6.9-0.3,11.2-5.3
					C49.8,33.7,49.9,33.4,49.9,33.2z"/>
			</g>
		</g>
		<g>
			<path class="st11" d="M53.3,65h-4.7l-1-4.5h6.7L53.3,65z"/>
		</g>
		<g>
			<path class="st12" d="M50.9,74.9c0,0,2.4-2.6,3.5-3.8L53.3,65h-4.7l-1.1,6.1L50.9,74.9z"/>
		</g>
		<g>
			<path class="st11" d="M54.4,71.1l-0.4-2l-2.6,2.9c-0.3,0.3-0.7,0.3-1,0l-2.6-2.9l-0.4,2l3.5,3.8C50.9,74.9,53.3,72.3,54.4,71.1z"
				/>
		</g>
		<g>
			<path class="st1" d="M39.3,62.1c-1.3,0.6-2.5,1.5-3.5,2.4l13.6,15c0.8,0.9,2.2,0.9,3,0l13.6-15c-1.1-1-2.2-1.8-3.5-2.4L50.9,74.9
				L39.3,62.1z"/>
		</g>
		<g>
			<path class="st5" d="M52.4,77.1c-0.8,0.9-2.2,0.9-3,0L37.1,63.5c-0.4,0.3-0.9,0.7-1.3,1l13.6,15c0.8,0.9,2.2,0.9,3,0l13.6-15
				c-0.4-0.4-0.8-0.7-1.3-1L52.4,77.1z"/>
		</g>
	</g>
	<g>
		<g>
			<g>
				<path class="st13" d="M57.8,60.2L56.3,60l1.3-0.7c2.8-1.6,4.9-4.2,5.9-7.2l0.1-0.4l0.4,0l0.1,0.5v-0.5c2.6,0,4.7-2.1,4.7-4.7
					c0-2.4-1.8-4.5-4.2-4.7l-0.5,0v-2.9l0.1-0.1c1-1,3.1-3.8,2.7-9.2c-0.2-2.2-1-3.8-2.3-5c-1.7-1.4-3.8-1.6-4.9-1.6c0,0,0,0,0,0
					h-0.2l-0.2-0.1c-1.2-1.1-5.5-4.6-11.4-2.9c-1.2,0.3-2.3,0.8-3.4,1.4c-0.3,0.1-0.3,0.4-0.2,0.7c0.1,0.3,0.4,0.3,0.7,0.2
					c1-0.5,2.1-1,3.2-1.3c6.1-1.8,10.5,2.7,10.6,2.9c0.1,0.1,0.3,0.2,0.4,0.2c0,0,2.7-0.2,4.7,1.4c1.2,1,1.8,2.4,2,4.3
					c0.4,4.5-1.1,7-2.1,8.1l-0.3,0.4l-0.4-0.3c-2.1-1.6-4-5-4-5c-0.1-0.2-0.4-0.3-0.4-0.3c-0.1,0-0.3,0-0.4,0.3
					c-1.6,3-4.5,4.2-6,4.6l-0.6,0.2l0-0.6c-0.2-2-1.5-3.6-1.5-3.7c-0.1-0.1-0.2-0.2-0.4-0.2c-0.1,0-0.3,0.1-0.4,0.2
					c-4.4,5.1-10.2,5.1-10.8,5.1c-0.2,0-0.3,0-0.5-0.1c-1.9-0.6-3.7-2.2-4.8-3.4l-0.7-0.7l0.9-0.2c3.5-0.6,4.8-3,4.8-3.1
					c0.1-0.2,0-0.4,0-0.5c0-0.1-0.2-0.3-0.4-0.2c-1.8,0.1-3.2-0.6-4-2.1c-0.2-0.3-0.3-0.7-0.5-1.1l-0.2-0.7l0.7,0
					c3.5,0.2,5.6-0.9,7.7-2.2c0.2-0.1,0.3-0.5,0.2-0.7c-0.1-0.1-0.2-0.2-0.3-0.2c-0.1,0-0.3,0-0.4,0.1c-2.2,1.3-4.4,2.4-8.4,1.9
					c-0.1,0-0.3,0-0.4,0.1c-0.1,0.1-0.2,0.3-0.2,0.4c0,0,0.1,1.4,0.8,2.7c0.7,1.3,1.7,2.1,3,2.5l1,0.3l-0.8,0.6
					c-1.2,0.9-2.8,1.4-4.6,1.3c-0.2,0-0.4,0.1-0.5,0.3c0,0.1-0.1,0.3,0,0.5c0.1,0.2,3,3.9,6.3,5.1l0.3,0.1v2.6l-0.4,0
					c-2.4,0.3-4.2,2.3-4.2,4.7c0,2.6,2.1,4.7,4.7,4.7h0.4l0.3,0.3c1,3,3.1,5.6,5.9,7.2l1.3,0.7l-1.4,0.2c-8,1.1-14,8-14,16v2.1
					c0,0.3,0.2,0.5,0.5,0.5c0.3,0,0.5-0.2,0.5-0.5v-2.1c0-3.9,1.5-7.6,4.2-10.5l0.4-0.4L49.1,80c0.9,1,2.8,1,3.7,0l4.3-4.7
					c0.1-0.1,0.1-0.2,0.1-0.4c0-0.1-0.1-0.3-0.2-0.3c-0.1-0.1-0.2-0.1-0.4-0.1c-0.1,0-0.3,0.1-0.3,0.2L52,79.3
					c-0.3,0.3-0.7,0.5-1.1,0.5c-0.4,0-0.8-0.2-1.1-0.5L36.5,64.6l0.4-0.3c0.6-0.5,1.3-0.9,1.9-1.3l0.3-0.2l11.4,12.5
					c0.2,0.2,0.6,0.2,0.7,0l11.4-12.5L63,63c0.7,0.4,1.3,0.8,1.9,1.3l0.4,0.3l-6.4,7c-0.2,0.2-0.2,0.5,0,0.7c0.2,0.2,0.5,0.2,0.7,0
					l6.4-7l0.4,0.4c2.7,2.8,4.2,6.6,4.2,10.5v10.3h-7v-8.4c0-0.3-0.2-0.5-0.5-0.5c-0.3,0-0.5,0.2-0.5,0.5v8.4H39.2v-8.4
					c0-0.3-0.2-0.5-0.5-0.5c-0.3,0-0.5,0.2-0.5,0.5v8.4h-7v-4.2c0-0.3-0.2-0.5-0.5-0.5c-0.3,0-0.5,0.2-0.5,0.5V87
					c0,0.3,0.2,0.5,0.5,0.5h40.6c0.3,0,0.5-0.2,0.5-0.5V76.2C71.7,68.1,65.7,61.2,57.8,60.2z M63.9,50.1c0.1-0.7,0.2-1.5,0.2-2.2
					v-4.7l0.6,0.1c1.8,0.3,3.1,1.9,3.1,3.7c0,1.9-1.4,3.5-3.3,3.7l-0.7,0.1L63.9,50.1z M37.4,50.6c-1.9-0.2-3.3-1.8-3.3-3.7
					c0-1.8,1.3-3.3,3.1-3.7l0.6-0.1v4.7c0,0.8,0.1,1.5,0.2,2.2l0.1,0.7L37.4,50.6z M38.7,47.8v-8.1l0.5,0c1.8-0.1,6.2-0.7,10-4.5
					l0.5-0.5l0.3,0.6c0.4,0.8,0.8,1.9,0.5,3c0,0.2,0,0.3,0.1,0.4C50.8,39,51,39,51.1,39c0.2,0,4.5-0.5,7.2-4l0.4-0.6l0.4,0.6
					c0.7,1.1,2.2,3.1,3.7,4.2l0.2,0.2v8.5c0,6.7-5.5,12.2-12.2,12.2C44.2,60,38.7,54.5,38.7,47.8z M53.7,61l-0.8,3.5H49L48.2,61
					H53.7z M40.1,62.3l0.7-0.3c1.7-0.7,3.6-1,5.5-1h0.9l0.9,4l-0.9,5L40.1,62.3z M50.9,74.2L48,71l1-5.4h3.9l1,5.4L50.9,74.2z
					 M54.7,70l-0.9-5l0.9-4h0.9c1.9,0,3.7,0.3,5.5,1l0.7,0.3L54.7,70z"/>
				<path class="st4" d="M48,65.1l-0.9,5l-7-7.7l0.7-0.3c1.7-0.7,3.6-1,5.5-1h0.9L48,65.1z"/>
				<polygon class="st5" points="53.8,71 50.9,74.2 48,71 49,65.6 52.9,65.6 				"/>
				<polygon class="st5" points="53.7,61 52.9,64.6 49,64.6 48.2,61 				"/>
				<path class="st4" d="M61.7,62.3l-7,7.7l-0.9-5l0.9-4h0.9c1.9,0,3.7,0.3,5.5,1L61.7,62.3z"/>
				<path class="st5" d="M67.8,46.9c0,1.9-1.4,3.5-3.3,3.7l-0.7,0.1l0.1-0.7c0.1-0.7,0.2-1.5,0.2-2.2v-4.7l0.6,0.1
					C66.5,43.6,67.8,45.1,67.8,46.9z"/>
				<path class="st5" d="M38,50.7l-0.7-0.1c-1.9-0.2-3.3-1.8-3.3-3.7c0-1.8,1.3-3.3,3.1-3.7l0.6-0.1v4.7c0,0.8,0.1,1.5,0.2,2.2
					L38,50.7z"/>
			</g>
			<g>
				<path class="st13" d="M55.2,51.5c0,0.1-1,2.3-4.2,2.3c-3.2,0-4.2-2.2-4.2-2.3c-0.1-0.2,0-0.3,0-0.5c0.1-0.1,0.2-0.2,0.4-0.2
					c0.2,0,0.4,0.1,0.5,0.3c0.1,0.2,0.9,1.7,3.3,1.7c2.4,0,3.2-1.5,3.3-1.7c0.1-0.2,0.3-0.3,0.5-0.3c0,0,0,0,0,0
					c0.2,0,0.3,0.1,0.4,0.2C55.2,51.1,55.2,51.3,55.2,51.5z"/>
			</g>
			<g>
				<path class="st13" d="M45.3,43.9v2.8c0,0.3-0.2,0.5-0.5,0.5c-0.3,0-0.5-0.2-0.5-0.5v-2.8c0-0.3,0.2-0.5,0.5-0.5
					C45.1,43.4,45.3,43.7,45.3,43.9z"/>
			</g>
			<g>
				<path class="st13" d="M57.6,43.9v2.8c0,0.3-0.2,0.5-0.5,0.5c-0.3,0-0.5-0.2-0.5-0.5v-2.8c0-0.3,0.2-0.5,0.5-0.5
					C57.3,43.4,57.6,43.7,57.6,43.9z"/>
				<path class="st1" d="M62.9,39.2c-1.6-1.1-3-3.1-3.7-4.2l-0.4-0.6L58.4,35c-2.7,3.6-7,4-7.2,4c-0.2,0-0.3-0.1-0.4-0.2
					c-0.1-0.1-0.2-0.3-0.1-0.4c0.2-1.2-0.2-2.3-0.5-3l-0.3-0.6l-0.5,0.5c-3.8,3.8-8.3,4.4-10,4.5l-0.5,0v8.1
					c0,6.7,5.5,12.2,12.2,12.2c6.7,0,12.2-5.5,12.2-12.2v-8.5L62.9,39.2z M45.3,46.8c0,0.3-0.2,0.5-0.5,0.5c-0.3,0-0.5-0.2-0.5-0.5
					v-2.8c0-0.3,0.2-0.5,0.5-0.5c0.3,0,0.5,0.2,0.5,0.5V46.8z M55.2,51.5c0,0.1-1,2.3-4.2,2.3c-3.2,0-4.2-2.2-4.2-2.3
					c-0.1-0.2,0-0.3,0-0.5c0.1-0.1,0.2-0.2,0.4-0.2c0.2,0,0.4,0.1,0.5,0.3c0.1,0.2,0.9,1.7,3.3,1.7c2.4,0,3.2-1.5,3.3-1.7
					c0.1-0.2,0.3-0.3,0.5-0.3c0,0,0,0,0,0c0.2,0,0.3,0.1,0.4,0.2C55.2,51.1,55.2,51.3,55.2,51.5z M57.6,46.8c0,0.3-0.2,0.5-0.5,0.5
					c-0.3,0-0.5-0.2-0.5-0.5v-2.8c0-0.3,0.2-0.5,0.5-0.5c0.3,0,0.5,0.2,0.5,0.5V46.8z"/>
			</g>
		</g>
	</g>
</g>
<g id="Group_21845_1_" transform="translate(292.738 20.588)">
	<path id="Path_12118_1_" class="st1" d="M-282.4-9.1c0-2.3,2.3-4.1,5.2-4.1s5.2,1.8,5.2,4.1"/>
</g>
<g id="Group_21846_1_" transform="translate(321.054 9.761)">
	<path id="Path_12119_1_" class="st1" d="M-304,1.7c0-3.7,2.5-6.7,5.5-6.7s5.5,3,5.5,6.7"/>
</g>
<g id="Group_21845_2_" transform="translate(292.738 20.588)">
	<path id="Path_12118_2_" class="st1" d="M-224.5-5c0-1.8,1.8-3.3,4.1-3.3c2.3,0,4.1,1.4,4.1,3.3"/>
</g>
<g id="Group_21845_3_" transform="translate(292.738 20.588)">
	<path id="Path_12118_3_" class="st1" d="M-214.5-5c0-1.8,1.8-3.3,4.1-3.3c2.3,0,4.1,1.4,4.1,3.3"/>
</g>
<g id="Group_21846_2_" transform="translate(321.054 9.761)">
	<path id="Path_12119_2_" class="st1" d="M-247.5,5.8c0-2.9,2-5.3,4.4-5.3c2.4,0,4.4,2.4,4.4,5.3"/>
</g>
</svg>
