<?xml version="1.0" encoding="utf-8"?>
<!-- Generator: Adobe Illustrator 24.1.3, SVG Export Plug-In . SVG Version: 6.00 Build 0)  -->
<svg version="1.1" id="Layer_1" xmlns="http://www.w3.org/2000/svg" xmlns:xlink="http://www.w3.org/1999/xlink" x="0px" y="0px"
	 viewBox="0 0 100 100" style="enable-background:new 0 0 100 100;" xml:space="preserve">
<style type="text/css">
	.st0{fill:#F5F6F7;}
	.st1{opacity:0.15;}
	.st2{fill:#E0E3E9;}
	.st3{fill:#2B374F;}
	.st4{fill:#9FE4FF;}
	.st5{fill:#FFFFFF;}
	.st6{fill:#99AAB7;}
	.st7{fill:#CED2D9;}
	.st8{fill:#DA387D;}
	.st9{fill:#BBBFC7;}
</style>
<g id="Group_22212" transform="translate(-1323.047 -348.151)">
	<g id="no_class" transform="translate(1322.191 344.251)">
		<g id="Group_21825" transform="translate(0.856 14.764)">
			<path id="Path_15529" class="st0" d="M35.6-0.4c8.7,4.6,4.1,20.7,15.1,26.2c2.3,1.1,8.5,3.4,14.4,1.2c3.5-1.2,4.9-3.1,9.3-4.1
				c2.9-0.5,5.9-0.5,8.8,0c9.7,2.1,16.7,12.8,16.9,22.4c0.2,8.7-5.3,14.8-11,21.1c-6.5,7.4-15,12.9-24.5,15.7
				c-4.3,1.3-19,5.5-35.1-1.7C9.1,71.2,3.1,51,2.1,47.6C0.6,42-3,29,3.9,16.6C11,4.1,27.1-4.8,35.6-0.4z"/>
		</g>
		<g id="Group_21826" transform="translate(104.632 18.479)" class="st1">
			<circle id="Ellipse_1642" class="st2" cx="-57" cy="-2.1" r="1.1"/>
			<path id="Path_15530" class="st3" d="M-57-0.8c-0.8,0-1.4-0.6-1.4-1.4c0-0.8,0.6-1.4,1.4-1.4c0.8,0,1.4,0.6,1.4,1.4
				C-55.6-1.5-56.2-0.8-57-0.8C-57-0.8-57-0.8-57-0.8z M-57-2.9c-0.4,0-0.8,0.4-0.8,0.8s0.4,0.8,0.8,0.8c0.4,0,0.8-0.4,0.8-0.8
				C-56.2-2.6-56.5-2.9-57-2.9C-57-2.9-57-2.9-57-2.9z"/>
		</g>
		<g id="Group_21827" transform="translate(90.284 7.14)" class="st1">
			<circle id="Ellipse_1643" class="st2" cx="-47.7" cy="5.4" r="2.3"/>
			<path id="Path_15531" class="st3" d="M-47.7,8c-1.4,0-2.6-1.2-2.6-2.6c0-1.5,1.2-2.6,2.6-2.6c1.5,0,2.6,1.2,2.6,2.6c0,0,0,0,0,0
				C-45.1,6.8-46.3,8-47.7,8C-47.7,8-47.7,8-47.7,8z M-47.7,3.3c-1.1,0-2,0.9-2,2s0.9,2,2,2s2-0.9,2-2v0
				C-45.7,4.2-46.6,3.3-47.7,3.3z"/>
		</g>
		<g id="Group_21828" transform="translate(138.419 192.505)" class="st1">
			<circle id="Ellipse_1644" class="st2" cx="-75.6" cy="-99.5" r="1.5"/>
			<path id="Path_15532" class="st3" d="M-75.6-97.7c-1,0-1.8-0.8-1.8-1.8c0-1,0.8-1.8,1.8-1.8c1,0,1.8,0.8,1.8,1.8c0,0,0,0,0,0
				C-73.7-98.5-74.5-97.7-75.6-97.7C-75.6-97.7-75.6-97.7-75.6-97.7z M-75.6-100.7c-0.7,0-1.2,0.5-1.2,1.2c0,0.7,0.5,1.2,1.2,1.2
				c0.7,0,1.2-0.5,1.2-1.2C-74.4-100.2-74.9-100.7-75.6-100.7z"/>
		</g>
		<g id="Group_21829" transform="translate(205.067 102.252)" class="st1">
			<circle id="Ellipse_1645" class="st2" cx="-113" cy="-48.8" r="1.5"/>
			<path id="Path_15533" class="st3" d="M-113-47c-1,0-1.8-0.8-1.8-1.8s0.8-1.8,1.8-1.8c1,0,1.8,0.8,1.8,1.8
				C-111.1-47.8-111.9-47-113-47C-113-47-113-47-113-47z M-113-50c-0.7,0-1.2,0.5-1.2,1.2c0,0.7,0.5,1.2,1.2,1.2
				c0.7,0,1.2-0.5,1.2-1.2C-111.7-49.4-112.2-49.9-113-50C-112.9-50-112.9-50-113-50z"/>
		</g>
		<g id="Group_21830" transform="translate(161.561 180.934)" class="st1">
			<circle id="Ellipse_1646" class="st2" cx="-89.5" cy="-93.9" r="0.8"/>
			<path id="Path_15534" class="st3" d="M-89.5-93c-0.5,0-0.9-0.4-0.9-0.9s0.4-0.9,0.9-0.9s0.9,0.4,0.9,0.9
				C-88.5-93.4-89-93-89.5-93C-89.5-93-89.5-93-89.5-93z M-89.5-94.4c-0.3,0-0.6,0.3-0.6,0.6c0,0.3,0.3,0.6,0.6,0.6
				c0.3,0,0.6-0.3,0.6-0.6c0-0.3-0.2-0.6-0.5-0.6C-89.4-94.4-89.4-94.4-89.5-94.4z"/>
		</g>
		<g id="Group_21831" transform="translate(20.628 138.585)" class="st1">
			<circle id="Ellipse_1647" class="st2" cx="-9.5" cy="-69.2" r="1.5"/>
			<path id="Path_15535" class="st3" d="M-9.5-67.4c-1,0-1.8-0.8-1.8-1.8c0-1,0.8-1.8,1.8-1.8s1.8,0.8,1.8,1.8
				C-7.7-68.2-8.5-67.4-9.5-67.4z M-9.5-70.4c-0.7,0-1.2,0.5-1.2,1.2s0.5,1.2,1.2,1.2s1.2-0.5,1.2-1.2S-8.8-70.4-9.5-70.4z"/>
		</g>
		<path id="Path_15556" class="st4" d="M20.5,34.8"/>
		<rect id="Rectangle_2400" x="59.8" y="34.5" class="st5" width="3.9" height="19.2"/>
		<g id="Group_21843" transform="translate(140.965 11.074)">
			<path id="Path_15557" class="st2" d="M-78.8,5.4c0-2.6,2.7-4.9,6.1-4.9c3.4,0,6.2,2.2,6.2,4.9"/>
		</g>
		<g id="Group_21844" transform="translate(173.363 11.074)">
			<path id="Path_15558" class="st2" d="M-97,5.4c0-2.7,2.7-4.9,6.2-4.9c3.5,0,6.2,2.2,6.2,4.9"/>
		</g>
		<g id="Group_21845" transform="translate(159.478 3.9)">
			<path id="Path_15559" class="st2" d="M-89.2,12.6c0-4.4,2.9-8,6.5-8s6.5,3.6,6.5,8"/>
		</g>
		<g id="Group_21846" transform="translate(11.834 198.522)">
			<path id="Path_15560" class="st2" d="M-6.3-100.5c0-2.3,2.3-4.2,5.3-4.2s5.3,1.8,5.3,4.2"/>
		</g>
		<g id="Group_21847" transform="translate(27.57 192.505)">
			<path id="Path_15561" class="st2" d="M-15.2-94.5c0-3.8,2.5-6.8,5.6-6.8s5.6,3,5.6,6.8"/>
		</g>
		<g id="Group_21848" transform="translate(32.942 82.398)">
			<path id="Path_15562" class="st6" d="M-14.6-39.4c0.1,0.1,0.2,0.1,0.1,0.2c0,0.2-0.1,0.3-0.3,0.3l-3,0.3c-0.2,0-0.3-0.1-0.3-0.3
				s0.1-0.3,0.3-0.3l3-0.3C-14.8-39.5-14.7-39.4-14.6-39.4z"/>
		</g>
		<g id="Group_21849" transform="translate(34.678 72.736)">
			<path id="Path_15563" class="st6" d="M-18.6-34L-18.6-34l2.4,2.1c0.1,0,0.2,0.1,0.1,0.3c0,0.1-0.1,0.1-0.1,0.1
				c0,0.1-0.1,0.2-0.3,0.1c-0.1,0-0.1-0.1-0.1-0.1l0,0l-2.4-2.1c-0.1,0-0.2-0.1-0.1-0.3c0-0.1,0.1-0.1,0.1-0.1
				C-18.9-34.1-18.7-34.1-18.6-34z"/>
		</g>
		<g id="Group_21850" transform="translate(44.744 68.05)">
			<path id="Path_15564" class="st6" d="M-24.3-31.4c0.1,0.1,0.1,0.1,0.1,0.2l0.4,3.1c0,0.2-0.1,0.3-0.3,0.3s-0.3-0.1-0.3-0.3
				l-0.4-3.1c0-0.2,0.1-0.3,0.3-0.3L-24.3-31.4z"/>
		</g>
	</g>
	<g id="book" transform="translate(1371.258 389.541)">
		<g id="Group_22192" transform="translate(43.494 4.598)">
			<path id="Path_16032" class="st7" d="M-20.5-3.4l-27,7.8l-4-13.9c-0.7-2.4,0.7-4.9,3.1-5.6l3.5-1l17.6-5.1
				c0.8-0.2,1.7,0.2,1.9,1.1c0,0,0,0,0,0L-20.5-3.4z"/>
		</g>
		<g id="Group_22193" transform="translate(92.165 4.598)">
			<path id="Path_16033" class="st2" d="M-78.6-19.6l5.1,17.5l4.4-1.3L-74-20.2c-0.2-0.8-1.1-1.3-1.9-1.1c0,0,0,0,0,0l-3,0.9
				C-78.8-20.1-78.7-19.9-78.6-19.6L-78.6-19.6z"/>
		</g>
		<g id="Group_22207" transform="translate(1.763 37.964)">
			<g id="Group_22195" transform="translate(0 59.667)">
				<g id="Group_22194">
					<path id="Path_16034" class="st2" d="M-27.9-73.5l-0.3,6.7v1.8c0,0.9,0.7,1.6,1.6,1.6h21c-0.5-1.8,0.5-3.7,2.3-4.2
						c1.8-0.5,3.7,0.5,4.2,2.3c0.2,0.6,0.2,1.3,0,1.9h21c0.9,0,1.6-0.7,1.6-1.6v-1.7L23-73.5L-27.9-73.5z"/>
				</g>
			</g>
			<g id="Group_22198" transform="translate(103.122 59.667)">
				<g id="Group_22197">
					<g id="Group_22196">
						<path id="Path_16035" class="st8" d="M-84.5-73.5v8.5c0,0.9-0.7,1.6-1.6,1.6h4.7c0.9,0,1.6-0.7,1.6-1.6v-1.7l-0.3-6.9
							L-84.5-73.5z"/>
					</g>
				</g>
			</g>
			<g id="Group_22200" transform="translate(58.691 0)">
				<g id="Group_22199">
					<path id="Path_16036" class="st2" d="M-36.5-38.3h-3.9c-2.8,0-5.7-0.4-8.4-1.1c-1.4-0.4-2.9-0.6-4.4-0.6c-2.8,0-5.6,0.7-8,2.1
						V-8c1,0,2,0.5,2.7,1.3C-55.4-7.8-52-8-48.8-7c2.7,0.8,5.6,1.1,8.4,1.1h3.9c0.6,0,1-0.5,1-1v-30.3
						C-35.4-37.8-35.9-38.3-36.5-38.3z"/>
				</g>
			</g>
			<g id="Group_22202" transform="translate(0)">
				<g id="Group_22201">
					<path id="Path_16037" class="st2" d="M-2.5-8v-29.8c-2.4-1.4-5.2-2.1-8-2.1c-1.5,0-2.9,0.2-4.4,0.6c-2.7,0.8-5.6,1.1-8.4,1.1
						h-3.9c-0.6,0-1,0.5-1,1l0,0V-7c0,0.6,0.5,1,1,1l0,0h3.9c2.8,0,5.7-0.4,8.4-1.1c3.2-0.9,6.6-0.8,9.7,0.3C-4.5-7.6-3.5-8-2.5-8z"
						/>
				</g>
			</g>
			<g id="Group_22204" transform="translate(0 0.808)">
				<g id="Group_22203">
					<path id="Path_16038" class="st7" d="M-2.5-8.8v-29.8c-1.5-0.8-3-1.4-4.7-1.8v27.3c0,0.2-0.1,0.3-0.3,0.3c0,0,0,0-0.1,0
						c-2.4-0.5-5-0.4-7.4,0.3c-2.7,0.8-5.6,1.1-8.4,1.1h-5v3.6c0,0.6,0.5,1,1,1l0,0h3.9c2.8,0,5.7-0.4,8.4-1.1
						c3.2-0.9,6.6-0.8,9.7,0.3C-4.5-8.4-3.5-8.8-2.5-8.8L-2.5-8.8z"/>
				</g>
			</g>
			<g id="Group_22206" transform="translate(58.692 3.955)">
				<g id="Group_22205">
					<path id="Path_16039" class="st7" d="M-36.5-42.2h-3.6v27.4c0,0.2-0.1,0.3-0.3,0.3l0,0c-2.8,0-5.7-0.4-8.4-1.1
						c-1.4-0.4-2.9-0.6-4.4-0.6c-2.8,0-5.6,0.7-8,2.1v2.1c1,0,2,0.5,2.7,1.3c3.1-1.1,6.5-1.2,9.7-0.3c2.7,0.8,5.6,1.1,8.4,1.1h3.9
						c0.6,0,1-0.5,1-1v-30.3C-35.4-41.8-35.9-42.2-36.5-42.2L-36.5-42.2z"/>
				</g>
			</g>
		</g>
		<g id="Group_22208" transform="translate(13.05 37.559)">
			<path id="Path_16040" class="st7" d="M-26.2-17l-3.2-2c-0.3-0.2-0.8-0.2-1.1,0l-3.2,2c-0.2,0.2-0.6,0.1-0.7-0.2
				c-0.1-0.1-0.1-0.2-0.1-0.3v-20.8c0-0.4,0.3-0.7,0.7-0.7l7.7-0.8c0.4,0,0.8,0.3,0.8,0.7c0,0,0,0,0,0.1v21.6c0,0.3-0.2,0.5-0.5,0.5
				C-26.1-17-26.2-17-26.2-17z"/>
		</g>
		<g id="Group_22210" transform="translate(26.576 37.559)">
			<g id="Group_22209">
				<path id="Path_16041" class="st9" d="M-39.8-39.8l-2.4,0.2c0.1,0.1,0.2,0.3,0.2,0.5v20.6l2.2,1.4c0.2,0.2,0.6,0.1,0.7-0.2
					c0.1-0.1,0.1-0.2,0.1-0.3V-39C-39-39.5-39.3-39.8-39.8-39.8C-39.7-39.8-39.8-39.8-39.8-39.8L-39.8-39.8z"/>
			</g>
		</g>
		<g id="Group_22211" transform="translate(0 2.836)">
			<g id="Path_16042">
				<path class="st6" d="M25,21.7c0.2,0,0.4-0.2,0.4-0.4V-2.1c0-0.8-0.6-1.4-1.4-1.4h-1.1l-4.3-15c-0.3-1-1.4-1.6-2.4-1.3L-5-13.7
					c-2.6,0.8-4.1,3.5-3.3,6l0.7,2.4l-0.5,0c-1.3,0-2.5,0.1-3.7,0.3l-0.2,0l-0.1-0.2c-0.2-0.3-0.6-0.4-0.9-0.4l-7.7,0.8
					c-0.5,0-0.9,0.4-1,0.8l-0.1,0.3h-3.5c-0.8,0-1.4,0.6-1.4,1.4v31.9c0,1.1,0.9,1.9,1.9,1.9h21c0.1,0,0.2,0,0.3-0.1
					c0.1-0.1,0.1-0.2,0.1-0.3c0,0,0-0.1,0-0.1c-0.2-0.8-0.1-1.6,0.3-2.3c0.4-0.7,1-1.2,1.8-1.4c0.3-0.1,0.6-0.1,0.8-0.1
					c1.3,0,2.5,0.9,2.9,2.2c0.2,0.5,0.2,1.1,0,1.7c0,0.1,0,0.2,0,0.3c0.1,0.1,0.1,0.2,0.2,0.2c0,0,0.1,0,0.1,0h20.9
					c1.1,0,1.9-0.9,1.9-1.9V25c0-0.2-0.2-0.4-0.4-0.4c-0.2,0-0.4,0.2-0.4,0.4l0,3.1c0,0.4-0.3,0.7-0.7,0.7h-4.1
					c-2.8,0-5.5-0.4-8.1-1.1c-3.1-0.9-6.4-0.8-9.5,0.2L2.1,28l-0.2-0.2c-0.5-0.5-1.2-0.9-1.9-1l-0.3-0.1V1.3c0-0.2-0.2-0.4-0.4-0.4
					c-0.2,0-0.4,0.2-0.4,0.4v25.4l-0.3,0.1c-0.7,0.1-1.4,0.5-1.9,1L-3.5,28l-0.2-0.1c-3.1-1-6.4-1-9.5-0.2c-2.7,0.8-5.5,1.1-8.3,1.1
					h-3.9c-0.4,0-0.7-0.3-0.7-0.7V-2.1c0-0.4,0.3-0.7,0.7-0.7h3.5v5.6c0,0.2,0.2,0.4,0.4,0.4c0.1,0,0.2,0,0.3-0.1
					c0.1-0.1,0.1-0.2,0.1-0.3v-6.8l8.4-0.8v22.2l-3.4-2.1c-0.5-0.3-1-0.3-1.5,0l-3.4,2.1V6.7c0-0.1,0-0.2-0.1-0.3
					c-0.1-0.1-0.2-0.1-0.3-0.1c-0.1,0-0.2,0-0.3,0.1c-0.1,0.1-0.1,0.2-0.1,0.3v10.6c0,0.2,0.1,0.5,0.3,0.6c0.2,0.2,0.4,0.3,0.6,0.3
					h0c0.2,0,0.3,0,0.5-0.1l3.2-2c0.2-0.1,0.5-0.1,0.7,0l3.2,2c0.4,0.3,1,0.1,1.2-0.3c0.1-0.1,0.1-0.3,0.1-0.5V-4.1l0.3-0.1
					C-8-4.9-4.2-4.3-0.9-2.4c0.1,0.1,0.3,0.1,0.4,0c3.6-2.1,8-2.6,12.1-1.5c2.7,0.8,5.5,1.1,8.4,1.1H24c0.4,0,0.7,0.3,0.7,0.7v23.4
					C24.7,21.5,24.8,21.7,25,21.7z M3,28.5c2.8-0.8,5.8-0.8,8.6,0c2.7,0.8,5.5,1.1,8.3,1.1h0.2c1.6,0,4,0,4.2,0l0.5,0L24.6,30
					c-0.1,0.6-0.6,1-1.2,1H3v-0.6c0-0.5-0.1-1-0.3-1.5l-0.2-0.4L3,28.5z M-25.6,29.6c0.1,0,2.5,0,4.1,0h0c2.9,0,5.7-0.4,8.5-1.1
					c2.8-0.8,5.8-0.8,8.6,0l0.4,0.1L-4.2,29c-0.2,0.5-0.3,1-0.3,1.5v0.1l0,0.4h-20.5c-0.6,0-1.1-0.4-1.2-1l-0.1-0.5L-25.6,29.6z
					 M-0.7-3.2l-0.2-0.1c-1.8-1-3.7-1.6-5.7-1.8l-0.3,0l-0.8-2.7C-8.2-10-7-12.3-4.8-13l1.8-0.5l2.9,10L-0.7-3.2z M20.1-3.5
					c0,0-0.1,0-0.1,0c-2.8,0-5.5-0.4-8.1-1.1h0C8.2-5.6,4.4-5.4,1-4L0.6-3.8l-2.9-9.9l18.6-5.4c0.6-0.2,1.3,0.2,1.5,0.8l4.3,14.8
					H20.1z"/>
				<path class="st2" d="M24.7,29.5L24.6,30c-0.1,0.6-0.6,1-1.2,1H3v-0.6c0-0.5-0.1-1-0.3-1.5l-0.2-0.4L3,28.5
					c2.8-0.8,5.8-0.8,8.6,0c2.7,0.8,5.5,1.1,8.3,1.1h0.2c1.6,0,4,0,4.2,0L24.7,29.5z"/>
			</g>
			<g id="Path_16043">
				<path class="st6" d="M18.1,4.3c0,0.1,0,0.2-0.1,0.3c-0.1,0.1-0.2,0.1-0.3,0.1H6.3c-0.2,0-0.4-0.2-0.4-0.4C5.9,4.2,6,4.1,6,4
					c0.1-0.1,0.2-0.1,0.3-0.1h11.4V3.5l0,0.4c0.1,0,0.2,0,0.3,0.1C18.1,4.1,18.1,4.2,18.1,4.3z"/>
			</g>
			<g id="Path_16044">
				<path class="st6" d="M18.1,8.8c0,0.2-0.2,0.4-0.4,0.4c0,0,0,0,0,0H6.3C6.1,9.1,5.9,9,5.9,8.8c0-0.1,0-0.2,0.1-0.3
					c0.1-0.1,0.2-0.1,0.3-0.1h11.4V8l0,0.4c0.1,0,0.2,0,0.3,0.1C18.1,8.6,18.1,8.7,18.1,8.8z"/>
			</g>
			<g id="Path_16045">
				<path class="st6" d="M18.1,13.3c0,0.2-0.2,0.4-0.4,0.4H6.3c-0.2,0-0.4-0.2-0.4-0.4c0-0.1,0-0.2,0.1-0.3c0.1-0.1,0.2-0.1,0.3-0.1
					h11.4C17.9,12.9,18.1,13.1,18.1,13.3z"/>
			</g>
			<g id="Path_16046">
				<path class="st6" d="M11.1,17.8c0,0.1,0,0.2-0.1,0.3c-0.1,0.1-0.2,0.1-0.3,0.1H6.3c-0.2,0-0.4-0.2-0.4-0.4
					c0-0.2,0.2-0.4,0.4-0.4h4.5C11,17.4,11.1,17.6,11.1,17.8z"/>
			</g>
		</g>
	</g>
</g>
</svg>
