<svg id="Layer_1" data-name="Layer 1" xmlns="http://www.w3.org/2000/svg" viewBox="0 0 100 100"><defs></defs><g id="Line_56" data-name="Line 56"><path class="cls-1pagePricing" d="M93.14,32.61a.39.39,0,0,0,0-.21,3.24,3.24,0,0,0-.88-2.57L66.66,2.13S66.56,2,66.52,2a3.49,3.49,0,0,0-2.46-1H10.34A3.52,3.52,0,0,0,6.83,4.52v91.4a3.5,3.5,0,0,0,3.51,3.52H89.66a3.46,3.46,0,0,0,2.46-1,3.51,3.51,0,0,0,1-2.5ZM82.06,29.16,67.9,29.3l-.22-15.68ZM13.86,92.41V8H60.58l.32,24.86a3.51,3.51,0,0,0,3.51,3.48h0l21.66-.21,0,56.25Z"/><path class="cls-1pagePricing" d="M44.52,37.88a5.79,5.79,0,0,1,0,1,10.67,10.67,0,0,1-7.74,8.65v.84a3.52,3.52,0,1,1-7,0V47.23A10.81,10.81,0,0,1,23,38.9a3.51,3.51,0,0,1,6.93-1.16,3.88,3.88,0,0,0,3.19,3.2A4,4,0,0,0,36,40.27a4.08,4.08,0,0,0,1.47-2.11c-.17-.91-1.68-2.11-4-2.18A10,10,0,0,1,23,27.19a3.05,3.05,0,0,1,0-.74,10.35,10.35,0,0,1,6.79-8.64v-.64a3.52,3.52,0,0,1,7,0v.64a10.33,10.33,0,0,1,6.79,8.64,3.52,3.52,0,0,1-3.17,3.84,3.45,3.45,0,0,1-3.83-3.13,3.31,3.31,0,0,0-3.3-3h-.36A3.34,3.34,0,0,0,30,26.77,2.9,2.9,0,0,0,32.81,29a1.5,1.5,0,0,1,.42,0C39.38,29,44.23,32.82,44.52,37.88Z"/></g><g id="Line_57" data-name="Line 57"><path class="cls-1pagePricing" d="M68.73,69.42H23.11a3.52,3.52,0,1,1,0-7H68.73a3.52,3.52,0,0,1,0,7Z"/></g><g id="Line_58" data-name="Line 58"><path class="cls-1pagePricing" d="M68.73,83.5H50a3.52,3.52,0,1,1,0-7H68.73a3.52,3.52,0,0,1,0,7Z"/></g></svg>
