<svg id="Layer_1" data-name="Layer 1" xmlns="http://www.w3.org/2000/svg" viewBox="0 0 100 100"><defs></defs><g id="Path_1047" data-name="Path 1047"><path class="cls-1pageStudents" d="M25.91,91.22a9.07,9.07,0,0,1-8-9.82V51.84a3.05,3.05,0,0,1,4.45-2.71L50.6,63.64,78.84,49.21a3.06,3.06,0,0,1,4.45,2.72V81.59a8.89,8.89,0,0,1-7.71,9.62ZM24,56.85V81.59c-.12,1.89.89,3.42,2.18,3.54H75.29c1-.11,2-1.65,1.9-3.34V56.92L52,69.8a3.08,3.08,0,0,1-2.79,0Z"/></g><g id="Path_1048" data-name="Path 1048"><path class="cls-1pageStudents" d="M96.44,29.55,51.77,7.26a3.2,3.2,0,0,0-2.72,0L3.56,29.55A3.09,3.09,0,0,0,1.85,32.3V58A3.06,3.06,0,0,0,8,58V37.15l41.12,19.7a3.46,3.46,0,0,0,1.32.27,3,3,0,0,0,1.34-.3L96.44,35a3,3,0,0,0,1.71-2.72A3.09,3.09,0,0,0,96.44,29.55Zm-46,21.13L11.93,32.27,50.4,13.4,88.2,32.27Z"/></g></svg>
