<?xml version="1.0" encoding="utf-8"?>
<!-- Generator: Adobe Illustrator 24.1.1, SVG Export Plug-In . SVG Version: 6.00 Build 0)  -->
<svg version="1.1" id="Layer_1" xmlns="http://www.w3.org/2000/svg" xmlns:xlink="http://www.w3.org/1999/xlink" x="0px" y="0px"
	 viewBox="0 0 100 100" style="enable-background:new 0 0 100 100;" xml:space="preserve">
<style type="text/css">
	.patentFile0{fill:#9AABB7;}
	.patentFile1{fill:#DFE1E5;}
	.patentFile2{fill:#FFFFFF;}
	.patentFile3{fill:none;}
</style>
<g id="Group_21199" transform="translate(-1488 -330.372)">
	<g id="Group_21197">
		<g id="Path_11667">
			<rect x="1529.8" y="341.3" class="patentFile0" width="1.3" height="34.1"/>
		</g>
		<g id="Path_11668">
			<rect x="1534" y="339.9" class="patentFile0" width="1.3" height="34.5"/>
		</g>
		<g id="Path_11671">
			
				<rect x="1534.9" y="400" transform="matrix(0.9564 -0.292 0.292 0.9564 -49.1935 471.6267)" class="patentFile0" width="40.9" height="1.3"/>
		</g>
		<g id="Path_11673">
			<path class="patentFile0" d="M1534.6,362.7v11.8l19.4-5.7L1534.6,362.7z"/>
			<path class="patentFile0" d="M1534,375.4v-13.6l22.3,7L1534,375.4z M1535.3,363.5v10.1l16.6-4.9L1535.3,363.5z"/>
		</g>
		<g id="Path_11674">
			<path class="patentFile0" d="M1528.4,389.6l-0.4-1.2l2-0.6l0.4,1.2L1528.4,389.6z M1532.1,388.4l-0.4-1.2l2-0.6l0.4,1.2L1532.1,388.4z
				 M1535.8,387.3l-0.4-1.2l2-0.6l0.4,1.2L1535.8,387.3z M1539.5,386.2l-0.4-1.2l2-0.6l0.4,1.2L1539.5,386.2z M1543.1,385.1
				l-0.4-1.2l2-0.6l0.4,1.2L1543.1,385.1z M1546.8,384l-0.4-1.2l2-0.6l0.4,1.2L1546.8,384z M1550.5,382.9l-0.4-1.2l2-0.6l0.4,1.2
				L1550.5,382.9z M1554.2,381.7l-0.4-1.2l2-0.6l0.4,1.2L1554.2,381.7z M1557.9,380.6l-0.4-1.2l2-0.6l0.4,1.2L1557.9,380.6z
				 M1561.6,379.5l-0.4-1.2l2-0.6l0.4,1.2L1561.6,379.5z M1565.2,378.4l-0.4-1.2l2-0.6l0.4,1.2L1565.2,378.4z M1568.9,377.3
				l-0.4-1.2l2-0.6l0.4,1.2L1568.9,377.3z M1572.6,376.1l-0.4-1.2l0.7-0.2l0.4,1.2L1572.6,376.1z"/>
		</g>
		<g id="Path_11680">
			<path class="patentFile1" d="M1559.4,358.6l-10.5-3.8v-9.4l10.5,3.7V358.6z M1550.2,353.8l7.9,2.9V350l-7.9-2.8V353.8z"/>
		</g>
		<g id="Path_11679">
			<path class="patentFile1" d="M1552.4,355.5c0,0-1.1,2.4,1.2,3.6c0,0,2.5,1,3.3-2.1C1556.8,357,1552.4,355.5,1552.4,355.5z"/>
		</g>
		<g id="Path_11681">
			<path class="patentFile1" d="M1541.2,374.9c-0.2,0-0.4-0.1-0.4-0.3c-0.1-0.2,0.1-0.5,0.3-0.5l14.9-4.5c0.2-0.1,0.5,0.1,0.5,0.3
				c0.1,0.2-0.1,0.5-0.3,0.5l-14.9,4.5C1541.2,374.9,1541.2,374.9,1541.2,374.9z"/>
		</g>
		<g id="Path_11683">
			<path class="patentFile1" d="M1542.1,377.7c-0.2,0-0.3-0.1-0.4-0.3c-0.1-0.2,0.1-0.5,0.3-0.5l19.4-6.2c0.2-0.1,0.5,0.1,0.5,0.3
				c0.1,0.2-0.1,0.5-0.3,0.5l-19.4,6.2C1542.2,377.6,1542.2,377.7,1542.1,377.7z"/>
		</g>
		<g id="Path_11684">
			<path class="patentFile1" d="M1543.1,379.8c-0.2,0-0.3-0.1-0.4-0.3c-0.1-0.2,0.1-0.5,0.3-0.5l22-7c0.2-0.1,0.5,0.1,0.5,0.3
				c0.1,0.2-0.1,0.5-0.3,0.5l-22,7C1543.2,379.8,1543.1,379.8,1543.1,379.8z"/>
		</g>
		<g id="Path_11685">
			<path class="patentFile1" d="M1544.3,382.1c-0.2,0-0.3-0.1-0.4-0.3c-0.1-0.2,0.1-0.5,0.3-0.5l23.8-7.6c0.2-0.1,0.5,0.1,0.5,0.3
				c0.1,0.2-0.1,0.5-0.3,0.5l-23.8,7.6C1544.4,382.1,1544.4,382.1,1544.3,382.1z"/>
		</g>
		<g id="Path_11686">
			<path class="patentFile1" d="M1547.9,386.1c-0.2,0-0.3-0.1-0.4-0.3c-0.1-0.2,0.1-0.5,0.3-0.5l26.9-8.7c0.2-0.1,0.5,0.1,0.5,0.3
				c0.1,0.2-0.1,0.5-0.3,0.5l-26.9,8.7C1548,386.1,1548,386.1,1547.9,386.1z"/>
		</g>
		<g id="Path_11687">
			<path class="patentFile1" d="M1552.2,387.3c-0.2,0-0.3-0.1-0.4-0.3c-0.1-0.2,0-0.5,0.3-0.5l23-7.6c0.2-0.1,0.5,0,0.5,0.3
				c0.1,0.2,0,0.5-0.3,0.5l-23,7.6C1552.3,387.3,1552.2,387.3,1552.2,387.3z"/>
		</g>
		<g id="Path_11688">
			<path class="patentFile1" d="M1556.4,388.4c-0.2,0-0.3-0.1-0.4-0.3c-0.1-0.2,0-0.5,0.3-0.5l18.7-6.3c0.2-0.1,0.5,0,0.5,0.3
				c0.1,0.2,0,0.5-0.3,0.5l-18.7,6.3C1556.5,388.4,1556.5,388.4,1556.4,388.4z"/>
		</g>
		<g id="Path_11689">
			<path class="patentFile1" d="M1560.1,389.8c-0.2,0-0.3-0.1-0.4-0.3c-0.1-0.2,0-0.5,0.3-0.5l15.2-5.2c0.2-0.1,0.5,0,0.5,0.3
				c0.1,0.2,0,0.5-0.3,0.5l-15.2,5.2C1560.2,389.8,1560.1,389.8,1560.1,389.8z"/>
		</g>
		<g id="Path_11690">
			<path class="patentFile1" d="M1564.1,391.2c-0.2,0-0.3-0.1-0.4-0.3c-0.1-0.2,0-0.5,0.3-0.5l11.1-3.8c0.2-0.1,0.5,0,0.5,0.3
				c0.1,0.2,0,0.5-0.3,0.5l-11.1,3.8C1564.2,391.2,1564.2,391.2,1564.1,391.2z"/>
		</g>
		<g id="Path_11691">
			<path class="patentFile1" d="M1568.1,392.4c-0.2,0-0.3-0.1-0.4-0.3c-0.1-0.2,0-0.5,0.3-0.5l7.2-2.7c0.2-0.1,0.5,0,0.5,0.3s0,0.5-0.3,0.5
				l-7.2,2.7C1568.2,392.4,1568.1,392.4,1568.1,392.4z"/>
		</g>
		<g id="Path_11692">
			<path class="patentFile1" d="M1572.2,393.6c-0.2,0-0.3-0.1-0.4-0.3c-0.1-0.2,0-0.5,0.3-0.5l3.1-1c0.2-0.1,0.5,0,0.5,0.3
				c0.1,0.2,0,0.5-0.3,0.5l-3.1,1C1572.3,393.5,1572.2,393.6,1572.2,393.6z"/>
		</g>
		<g id="Path_11693">
			<path class="patentFile1" d="M1580.6,373.8c-0.2,0-0.4-0.1-0.4-0.3c-0.1-0.2,0.1-0.5,0.3-0.5l5.8-1.7c0.2-0.1,0.5,0.1,0.5,0.3
				c0.1,0.2-0.1,0.5-0.3,0.5l-5.8,1.7C1580.6,373.8,1580.6,373.8,1580.6,373.8z"/>
		</g>
		<g id="Path_11694">
			<path class="patentFile1" d="M1580.6,371c-0.2,0-0.4-0.1-0.4-0.3c-0.1-0.2,0.1-0.5,0.3-0.5l5.8-1.7c0.2-0.1,0.5,0.1,0.5,0.3
				c0.1,0.2-0.1,0.5-0.3,0.5l-5.8,1.7C1580.6,371,1580.6,371,1580.6,371z"/>
		</g>
		<g id="Path_11700">
			<path class="patentFile1" d="M1580.6,383.8c-0.2,0-0.4-0.1-0.4-0.3c-0.1-0.2,0.1-0.5,0.3-0.5l5.8-1.7c0.2-0.1,0.5,0.1,0.5,0.3
				c0.1,0.2-0.1,0.5-0.3,0.5l-5.8,1.7C1580.6,383.8,1580.6,383.8,1580.6,383.8z"/>
		</g>
		<g id="Path_11704">
			<path class="patentFile1" d="M1580.6,394.1c-0.2,0-0.4-0.1-0.4-0.3c-0.1-0.2,0.1-0.5,0.3-0.5l2.9-0.9c0.2-0.1,0.5,0.1,0.5,0.3
				c0.1,0.2-0.1,0.5-0.3,0.5l-2.9,0.9C1580.6,394.1,1580.6,394.1,1580.6,394.1z"/>
		</g>
		<g id="Path_11708">
			<path class="patentFile1" d="M1580.6,396.5c-0.2,0-0.4-0.1-0.4-0.3c-0.1-0.2,0.1-0.5,0.3-0.5l1.8-0.5c0.2-0.1,0.5,0.1,0.5,0.3
				c0.1,0.2-0.1,0.5-0.3,0.5l-1.8,0.5C1580.6,396.5,1580.6,396.5,1580.6,396.5z"/>
		</g>
		<g id="Path_11695">
			<path class="patentFile1" d="M1580.6,368.7c-0.2,0-0.4-0.1-0.4-0.3c-0.1-0.2,0.1-0.5,0.3-0.5l5.1-1.5c0.2-0.1,0.5,0.1,0.5,0.3
				c0.1,0.2-0.1,0.5-0.3,0.5l-5.1,1.5C1580.6,368.6,1580.6,368.7,1580.6,368.7z"/>
		</g>
		<g id="Path_11701">
			<path class="patentFile1" d="M1580.6,381.4c-0.2,0-0.4-0.1-0.4-0.3c-0.1-0.2,0.1-0.5,0.3-0.5l5.8-1.7c0.2-0.1,0.5,0.1,0.5,0.3
				c0.1,0.2-0.1,0.5-0.3,0.5l-5.8,1.7C1580.6,381.4,1580.6,381.4,1580.6,381.4z"/>
		</g>
		<g id="Path_11705">
			<path class="patentFile1" d="M1580.6,391.7c-0.2,0-0.4-0.1-0.4-0.3c-0.1-0.2,0.1-0.5,0.3-0.5l4.3-1.3c0.2-0.1,0.5,0.1,0.5,0.3
				c0.1,0.2-0.1,0.5-0.3,0.5l-4.3,1.3C1580.6,391.7,1580.6,391.7,1580.6,391.7z"/>
		</g>
		<g id="Path_11696">
			<path class="patentFile1" d="M1580.6,366.3c-0.2,0-0.4-0.1-0.4-0.3c-0.1-0.2,0.1-0.5,0.3-0.5l4.3-1.3c0.2-0.1,0.5,0.1,0.5,0.3
				c0.1,0.2-0.1,0.5-0.3,0.5l-4.3,1.3C1580.6,366.3,1580.6,366.3,1580.6,366.3z"/>
		</g>
		<g id="Path_11702">
			<path class="patentFile1" d="M1580.6,379c-0.2,0-0.4-0.1-0.4-0.3c-0.1-0.2,0.1-0.5,0.3-0.5l5.8-1.7c0.2-0.1,0.5,0.1,0.5,0.3
				c0.1,0.2-0.1,0.5-0.3,0.5l-5.8,1.7C1580.6,379,1580.6,379,1580.6,379z"/>
		</g>
		<g id="Path_11706">
			<path class="patentFile1" d="M1580.6,389.3c-0.2,0-0.4-0.1-0.4-0.3c-0.1-0.2,0.1-0.5,0.3-0.5l5.1-1.5c0.2-0.1,0.5,0.1,0.5,0.3
				c0.1,0.2-0.1,0.5-0.3,0.5l-5.1,1.5C1580.6,389.3,1580.6,389.3,1580.6,389.3z"/>
		</g>
		<g id="Path_11697">
			<path class="patentFile1" d="M1580.6,363.5c-0.2,0-0.4-0.1-0.4-0.3c-0.1-0.2,0.1-0.5,0.3-0.5l3.6-1.1c0.2-0.1,0.5,0.1,0.5,0.3
				c0.1,0.2-0.1,0.5-0.3,0.5l-3.6,1.1C1580.6,363.5,1580.6,363.5,1580.6,363.5z"/>
		</g>
		<g id="Path_11703">
			<path class="patentFile1" d="M1580.6,376.2c-0.2,0-0.4-0.1-0.4-0.3c-0.1-0.2,0.1-0.5,0.3-0.5l5.8-1.7c0.2-0.1,0.5,0.1,0.5,0.3
				c0.1,0.2-0.1,0.5-0.3,0.5l-5.8,1.7C1580.6,376.2,1580.6,376.2,1580.6,376.2z"/>
		</g>
		<g id="Path_11707">
			<path class="patentFile1" d="M1580.6,386.5c-0.2,0-0.4-0.1-0.4-0.3c-0.1-0.2,0.1-0.5,0.3-0.5l5.8-1.7c0.2-0.1,0.5,0.1,0.5,0.3
				c0.1,0.2-0.1,0.5-0.3,0.5l-5.8,1.7C1580.6,386.5,1580.6,386.5,1580.6,386.5z"/>
		</g>
		<g id="Path_11698">
			<path class="patentFile1" d="M1580.6,361.1c-0.2,0-0.4-0.1-0.4-0.3c-0.1-0.2,0.1-0.5,0.3-0.5l2.9-0.9c0.2-0.1,0.5,0.1,0.5,0.3
				c0.1,0.2-0.1,0.5-0.3,0.5l-2.9,0.9C1580.6,361.1,1580.6,361.1,1580.6,361.1z"/>
		</g>
		<g id="Path_11699">
			<path class="patentFile1" d="M1580.6,358.7c-0.2,0-0.4-0.1-0.4-0.3c-0.1-0.2,0.1-0.5,0.3-0.5l1.8-0.5c0.2-0.1,0.5,0.1,0.5,0.3
				c0.1,0.2-0.1,0.5-0.3,0.5l-1.8,0.5C1580.6,358.7,1580.6,358.7,1580.6,358.7z"/>
		</g>
		<g id="Rectangle_2082">
			
				<rect x="1534.7" y="384.6" transform="matrix(0.9511 -0.309 0.309 0.9511 -44.0016 494.2627)" class="patentFile2" width="7.2" height="2.8"/>
		</g>
		<g id="Path_11747">
			<rect x="1574.5" y="348.8" class="patentFile0" width="1.3" height="56.2"/>
		</g>
		<g id="Path_11748">
			<polygon class="patentFile0" points="1509,382.8 1508.6,381.6 1554.3,368.2 1575,375.2 1574.6,376.4 1554.2,369.6 			"/>
		</g>
		<g id="Path_11749">
			
				<rect x="1535.1" y="415.1" transform="matrix(0.9563 -0.2923 0.2923 0.9563 -53.75 471.7592)" class="patentFile0" width="33.5" height="1.3"/>
		</g>
		<g id="Rectangle_2083">
			
				<rect x="1515.5" y="346.7" transform="matrix(0.719 -0.695 0.695 0.719 183.0186 1153.1951)" class="patentFile2" width="4.4" height="7.2"/>
		</g>
		<g id="Ellipse_250" transform="translate(1535.257 330.372)">
			<g>
				<circle class="patentFile3" cx="12.4" cy="46.5" r="40.3"/>
			</g>
			<g>
				<path class="patentFile1" d="M12.4,86.8C-9.9,86.8-28,68.7-28,46.5S-9.9,6.1,12.4,6.1c22.2,0,40.3,18.1,40.3,40.3S34.6,86.8,12.4,86.8z
					 M12.4,7.8c-21.3,0-38.6,17.3-38.6,38.6c0,21.3,17.3,38.6,38.6,38.6S51,67.8,51,46.5C51,25.2,33.7,7.8,12.4,7.8z"/>
			</g>
		</g>
		<g id="Path_11754">
			<path class="patentFile2" d="M1494.7,378.3v32.3l40.9,12.9v-31.6L1494.7,378.3z"/>
			<path class="patentFile0" d="M1536.2,424.4l-42.2-13.3v-33.7l42.2,14.1V424.4z M1495.3,410.1l39.6,12.5v-30.3l-39.6-13.2V410.1z"/>
		</g>
		<g id="Path_11755">
			<path class="patentFile1" d="M1519.6,405.5l-10.5-3.8v-9.4l10.5,3.7V405.5z M1510.4,400.7l7.9,2.9v-6.7l-7.9-2.8V400.7z"/>
		</g>
		<g id="Path_11756">
			<path class="patentFile1" d="M1512.6,402.4c0,0-1.1,2.4,1.2,3.6c0,0,2.5,1,3.3-2.1C1517.1,403.9,1512.6,402.4,1512.6,402.4z"/>
		</g>
		<g id="Ellipse_251" transform="matrix(0.799, 0.602, -0.602, 0.799, 1503.672, 356.408)">
			<g>
				
					<ellipse transform="matrix(2.551619e-06 1 -1 2.551619e-06 -7.0943 13.6812)" class="patentFile0" cx="-10.4" cy="3.3" rx="4.4" ry="2.8"/>
			</g>
			<g>
				<path class="patentFile0" d="M-9.2,7.2c-0.4,0.3-0.8,0.4-1.2,0.4c-1.5,0-2.8-2-2.8-4.4c0-1.2,0.3-2.2,0.8-3.1c0.5-0.9,1.2-1.3,2-1.3l0,0
					c0.8,0,1.5,0.5,2,1.3c0.5,0.8,0.8,1.9,0.8,3.1C-7.6,5-8.3,6.5-9.2,7.2z M-11.3-0.3c-0.2,0.2-0.5,0.4-0.7,0.8
					c-0.5,0.8-0.7,1.8-0.7,2.8c0,2.2,1.1,3.9,2.4,3.9C-9.1,7.2-8,5.5-8,3.3c0-1.1-0.3-2.1-0.7-2.8c-0.4-0.7-1-1.1-1.6-1.1l0,0
					C-10.7-0.7-11-0.5-11.3-0.3z"/>
			</g>
		</g>
		<g id="Ellipse_252" transform="translate(1488 356.263) rotate(-24)">
			<g>
				
					<ellipse transform="matrix(-1 2.033466e-06 -2.033466e-06 -1 9.8085 -10.2832)" class="patentFile3" cx="4.9" cy="-5.1" rx="2.2" ry="3.2"/>
			</g>
			<g>
				<path class="patentFile0" d="M4.2-2.1C3.9-2.3,3.6-2.5,3.3-2.9C2.9-3.5,2.7-4.3,2.7-5.1c0-1.8,1-3.2,2.2-3.2l0,0c0.6,0,1.2,0.3,1.6,1
					C6.9-6.7,7.1-6,7.1-5.1c0,0.8-0.2,1.6-0.6,2.2c-0.4,0.6-1,1-1.6,1C4.7-2,4.5-2,4.2-2.1z M4.9-7.7c-0.8,0-1.5,1.2-1.5,2.5
					c0,0.7,0.2,1.4,0.5,1.8c0.3,0.4,0.7,0.7,1.1,0.7c0.4,0,0.8-0.2,1.1-0.7c0.3-0.5,0.5-1.1,0.5-1.8C6.4-5.8,6.3-6.5,6-7
					C5.7-7.4,5.3-7.7,4.9-7.7L4.9-7.7z"/>
			</g>
		</g>
		<g id="Ellipse_253" transform="matrix(0.052, -0.999, 0.999, 0.052, 1504.737, 375.923)">
			<g>
				
					<ellipse transform="matrix(-1 2.534780e-06 -2.534780e-06 -1 43.1396 -16.6449)" class="patentFile3" cx="21.6" cy="-8.3" rx="2.2" ry="3.2"/>
			</g>
			<g>
				<path class="patentFile0" d="M19.4-8.1c0-0.1,0-0.2,0-0.3c0-0.8,0.2-1.6,0.6-2.2c0.4-0.6,1-1,1.6-1c1.2,0,2.2,1.4,2.2,3.2
					c0,1.8-1,3.2-2.2,3.2C20.4-5.1,19.5-6.4,19.4-8.1z M23.1-8.5c-0.1-1.3-0.7-2.3-1.5-2.3c-0.4,0-0.8,0.2-1.1,0.7
					C20.2-9.7,20-9,20-8.3c0,1.4,0.7,2.5,1.5,2.5c0.8,0,1.5-1.2,1.5-2.5C23.1-8.4,23.1-8.5,23.1-8.5z"/>
			</g>
		</g>
	</g>
	<g id="Group_21198" transform="translate(-118.438)">
		<g id="Path_11764">
			<path class="patentFile1" d="M1641.9,378c-0.2,0-0.4-0.1-0.5-0.2c-0.9-1-1.6-2.2-2.1-3.5c-0.1-0.3,0-0.7,0.4-0.8c0.3-0.1,0.7,0,0.8,0.4
				c0.4,1.2,1,2.2,1.8,3.1c0.2,0.3,0.2,0.7-0.1,0.9C1642.2,378,1642,378,1641.9,378z M1639.2,370.1
				C1639.1,370.1,1639.1,370.1,1639.2,370.1c-0.4,0-0.6-0.3-0.6-0.6c0-1.2,0.2-2.2,0.3-2.8c0.2-1.1,0.4-1.6,0.9-1.6
				c0.4,0,0.6,0.3,0.6,0.6c0,0.1,0,0.3-0.1,0.4c-0.1,0.3-0.5,1.7-0.5,3.4C1639.8,369.8,1639.5,370.1,1639.2,370.1z M1639.7,366.3
				C1639.7,366.3,1639.7,366.3,1639.7,366.3C1639.7,366.3,1639.7,366.3,1639.7,366.3z M1639.7,366.3
				C1639.7,366.3,1639.7,366.3,1639.7,366.3C1639.7,366.3,1639.7,366.3,1639.7,366.3z M1639.7,366.3
				C1639.7,366.3,1639.7,366.3,1639.7,366.3C1639.7,366.3,1639.7,366.3,1639.7,366.3z M1639.7,366.3
				C1639.7,366.3,1639.7,366.3,1639.7,366.3C1639.7,366.3,1639.7,366.3,1639.7,366.3z M1639.7,366.3L1639.7,366.3L1639.7,366.3z"/>
		</g>
		<g id="Path_11765">
			<path class="patentFile1" d="M1660.5,401.1c-0.1,0-0.1,0-0.2,0c-0.3-0.1-0.5-0.5-0.4-0.8c0.3-1.1,0.5-2.2,0.6-3.3c0-0.4,0.3-0.6,0.7-0.6
				c0.4,0,0.6,0.3,0.6,0.7c-0.1,1.1-0.3,2.3-0.7,3.5C1661,400.9,1660.8,401.1,1660.5,401.1z M1660.8,393c-0.3,0-0.5-0.2-0.6-0.5
				c-0.3-1.2-0.8-2.3-1.4-3.4c-0.2-0.3-0.1-0.7,0.2-0.9c0.3-0.2,0.7-0.1,0.9,0.2c0.7,1.2,1.2,2.4,1.5,3.7c0.1,0.3-0.1,0.7-0.5,0.8
				C1660.9,393,1660.9,393,1660.8,393z M1656.3,385.9c-0.2,0-0.3-0.1-0.4-0.2c-0.9-0.8-1.9-1.5-3-2.2c-0.3-0.2-0.4-0.6-0.2-0.9
				c0.2-0.3,0.6-0.4,0.9-0.2c1.2,0.7,2.3,1.5,3.2,2.3c0.3,0.2,0.3,0.6,0.1,0.9C1656.7,385.8,1656.5,385.9,1656.3,385.9z M1649,381.6
				c-0.1,0-0.2,0-0.2,0c-1.8-0.7-3.1-1-3.4-1c-0.4,0.1-0.7-0.3-0.7-0.6c0-0.4,0.3-0.7,0.7-0.7c0.4,0,2,0.4,3.9,1.1
				c0.3,0.1,0.5,0.5,0.4,0.8C1649.5,381.5,1649.2,381.6,1649,381.6z M1645.9,379.9c0,0.1,0,0.2-0.1,0.3
				C1645.9,380.2,1645.9,380.1,1645.9,379.9z"/>
		</g>
	</g>
	<g id="Rectangle_2084">
		
			<rect x="1515.2" y="347.2" transform="matrix(0.6159 -0.7878 0.7878 0.6159 306.5707 1330.2502)" class="patentFile2" width="4.5" height="7.2"/>
	</g>
	<g id="Path_11766">
		<path class="patentFile1" d="M1521.3,366.3C1521.3,366.3,1521.2,366.3,1521.3,366.3c-0.4,0-0.7-0.4-0.6-0.7c0-0.2,0.1-0.5,0.1-0.7
			c0-0.4,0.4-0.6,0.7-0.6c0.4,0,0.6,0.4,0.6,0.7c0,0.2-0.1,0.5-0.1,0.7C1521.9,366.1,1521.6,366.3,1521.3,366.3z M1521.5,360.9
			c-0.3,0-0.6-0.3-0.6-0.6c-0.1-1.3-0.2-2.6-0.5-3.7c-0.1-0.3,0.1-0.7,0.5-0.8c0.3-0.1,0.7,0.1,0.8,0.5c0.3,1.2,0.5,2.5,0.6,3.9
			C1522.2,360.6,1521.9,360.9,1521.5,360.9C1521.5,360.9,1521.5,360.9,1521.5,360.9z M1519.1,352.8c-0.2,0-0.4-0.1-0.5-0.3
			c-0.7-1-1.5-1.9-2.5-2.6c-0.3-0.2-0.4-0.6-0.2-0.9c0.2-0.3,0.6-0.4,0.9-0.2c1.1,0.8,2.1,1.8,2.8,2.9c0.2,0.3,0.1,0.7-0.2,0.9
			C1519.4,352.8,1519.3,352.8,1519.1,352.8z M1499.9,348.7c-0.3,0-0.5-0.2-0.6-0.5c-0.1-0.3,0.1-0.7,0.4-0.8c0.1,0,1.6-0.5,3.9-0.8
			c0.3-0.1,0.7,0.2,0.7,0.5c0.1,0.4-0.2,0.7-0.5,0.7c-2.2,0.3-3.7,0.8-3.7,0.8C1500.1,348.7,1500,348.7,1499.9,348.7z M1512.2,348.2
			c-0.1,0-0.1,0-0.2,0c-1.1-0.3-2.4-0.4-3.7-0.5c-0.4,0-0.6-0.3-0.6-0.7c0-0.4,0.3-0.6,0.7-0.6c1.4,0.1,2.7,0.2,3.9,0.5
			c0.3,0.1,0.6,0.4,0.5,0.8C1512.7,348,1512.5,348.2,1512.2,348.2z"/>
	</g>
</g>
</svg>
