<?xml version="1.0" encoding="utf-8"?>
<!-- Generator: Adobe Illustrator 24.1.2, SVG Export Plug-In . SVG Version: 6.00 Build 0)  -->
<svg version="1.1" id="Layer_1" xmlns="http://www.w3.org/2000/svg" xmlns:xlink="http://www.w3.org/1999/xlink" x="0px" y="0px"
	 viewBox="0 0 100 100" style="enable-background:new 0 0 100 100;" xml:space="preserve">
<g id="patient" transform="translate(0.25 0.25)">
	<g id="Path_11315">
		<path d="M66.6,7C57-2.6,41.3-2.6,31.7,7c-4.7,4.6-7.3,10.9-7.2,17.5C24.3,31,27,37.4,31.7,41.9c4.5,4.6,10.7,7.2,17.2,7.2h0.6
			c6.4,0,12.7-2.6,17.1-7.2c4.7-4.6,7.3-10.9,7.2-17.5C73.9,17.9,71.3,11.5,66.6,7z M37.4,36.2c-3.2-3-4.9-7.3-4.9-11.8v-0.3
			c0-4.3,1.8-8.4,4.9-11.4c3.1-3.1,7.3-4.9,11.8-4.9s8.6,1.8,11.8,4.9c3.2,3,4.9,7.3,4.9,11.8c0.1,4.4-1.7,8.7-4.9,11.7
			C54.4,42.6,43.9,42.6,37.4,36.2z"/>
	</g>
	<g id="Path_11316">
		<path d="M91.5,75.9l-0.2-2.6l-0.1,0.1c-0.1-1.3-0.3-2.5-0.5-3.8c-0.4-2.1-0.9-4.3-1.6-6.3c-0.7-2.1-1.6-4.1-2.7-6
			c-1.1-2-2.4-3.8-4-5.3c-1.7-1.6-3.7-2.9-5.9-3.7c-2.4-1-5.1-1.4-7.6-1.4c-1.7,0.2-3.2,0.9-4.3,1.8c-1.1,0.8-2.5,1.6-3.9,2.6
			c-1.5,0.9-3.2,1.6-4.9,2.1c-3.8,1.3-8,1.3-11.8,0c-1.7-0.5-3.4-1.2-4.9-2.1l-3.9-2.5c-1.3-1-2.8-1.7-4.6-1.9
			c-2.6,0-5.1,0.4-7.5,1.3c-2.2,0.9-4.2,2.1-5.9,3.8c-1.6,1.5-2.9,3.3-4,5.3c-1.1,1.9-2,3.9-2.7,6c-0.7,2-1.2,4.2-1.6,6.3
			c-0.4,2.1-0.6,4.2-0.8,6.3c-0.1,1.9-0.2,3.9-0.2,5.8c-0.2,4.9,1.7,9.7,5.2,13.2c3.4,3.1,7.9,4.9,12.4,4.9h47.7
			c4.9,0.1,9.6-1.5,13.3-4.9c3.5-3.4,5.4-8.2,5.2-13.1C91.7,79.8,91.6,77.8,91.5,75.9z M80.8,89.1c-2.1,1.8-4.8,2.8-7.6,2.6H26.2
			c-2.8,0.1-5.5-0.8-7.5-2.6c-1.9-1.9-2.9-4.5-2.7-7.3c0-1.8,0-3.6,0.2-5.3c0.1-1.9,0.4-3.7,0.7-5.4c0.3-1.8,0.7-3.6,1.3-5.3
			c0.5-1.6,1.1-3,2-4.5c0.7-1.3,1.6-2.4,2.6-3.4c1-0.9,2-1.6,3.3-2s2.5-0.7,3.8-0.8c0.2,0.1,0.4,0.3,0.8,0.5c1.2,0.8,2.5,1.6,4,2.6
			c2.1,1.3,4.4,2.3,6.8,3c5.4,1.8,11.4,1.8,16.8,0c2.3-0.7,4.6-1.8,6.8-3c1.5-1,2.9-1.8,4-2.6c0.3-0.2,0.6-0.4,0.8-0.5
			c1.3,0.1,2.6,0.3,3.8,0.8c1.2,0.5,2.4,1.1,3.3,2c1,1,1.9,2.2,2.6,3.5c0.8,1.4,1.5,2.9,2,4.5c0.5,1.7,1,3.5,1.3,5.3
			c0.3,1.8,0.6,3.6,0.7,5.4c0.1,1.7,0.2,3.5,0.2,5.3C83.7,84.5,82.8,87.1,80.8,89.1L80.8,89.1z"/>
	</g>
</g>
</svg>
