<svg xmlns="http://www.w3.org/2000/svg" width="22.214" height="29.619" viewBox="0 0 22.214 29.619">
  <g id="patientReport" transform="translate(0)">
    <path id="Path_11649" data-name="Path 11649" d="M1.234,29.619H20.98a1.235,1.235,0,0,0,1.234-1.234V4.319A1.235,1.235,0,0,0,20.98,3.085H17.222A3.705,3.705,0,0,0,13.575,0H8.639A3.706,3.706,0,0,0,4.992,3.085H1.234A1.235,1.235,0,0,0,0,4.319V28.385a1.235,1.235,0,0,0,1.234,1.234ZM7.4,3.7A1.235,1.235,0,0,1,8.639,2.468h4.937A1.235,1.235,0,0,1,14.809,3.7V5.554H7.4ZM2.468,5.554H4.936V6.788A1.235,1.235,0,0,0,6.17,8.022h9.873a1.235,1.235,0,0,0,1.234-1.234V5.554h2.468v21.6H2.468Zm0,0" fill="#fff"/>
    <path id="Path_11650" data-name="Path 11650" d="M86.7,144H80.957a1.274,1.274,0,0,0,0,2.468H86.7a1.274,1.274,0,0,0,0-2.468Zm0,0" transform="translate(-73.83 -132.893)" fill="#fff"/>
    <path id="Path_11651" data-name="Path 11651" d="M88.639,208h-7.4a1.234,1.234,0,0,0,0,2.468h7.4a1.234,1.234,0,1,0,0-2.468Zm0,0" transform="translate(-73.83 -189.956)" fill="#fff"/>
    <path id="Path_11652" data-name="Path 11652" d="M147.7,288h-2.468a1.234,1.234,0,1,0,0,2.468H147.7a1.234,1.234,0,1,0,0-2.468Zm0,0" transform="translate(-137.893 -265.786)" fill="#fff"/>
    <path id="Path_11653" data-name="Path 11653" d="M86.7,144H80.957a1.274,1.274,0,0,0,0,2.468H86.7a1.274,1.274,0,0,0,0-2.468Zm0,0" transform="translate(155.232 -71.486) rotate(90)" fill="#fff"/>
  </g>
</svg>
