<?xml version="1.0" encoding="utf-8"?>
<!-- Generator: Adobe Illustrator 24.1.2, SVG Export Plug-In . SVG Version: 6.00 Build 0)  -->
<svg version="1.1" id="Layer_1" xmlns="http://www.w3.org/2000/svg" xmlns:xlink="http://www.w3.org/1999/xlink" x="0px" y="0px"
	 viewBox="0 0 100 100" style="enable-background:new 0 0 100 100;" xml:space="preserve">
<g id="payment" transform="translate(0 -68)">
	<g id="Group_20916" transform="translate(0 68)">
		<g id="Group_20915">
			<path id="Path_11315" d="M88.1,13.4H11.9c-6.4,0-11.7,5.2-11.7,11.7v49.8c0,6.4,5.2,11.7,11.7,11.7h76.2
				c6.4,0,11.7-5.2,11.7-11.7V25.1C99.8,18.7,94.6,13.4,88.1,13.4z M92,74.9c0,2.1-1.7,3.9-3.9,3.9H11.9C9.7,78.8,8,77,8,74.9V41.8
				h84L92,74.9z M92,30.2H8v-5.1c0-2.1,1.7-3.9,3.9-3.9h76.2c2.1,0,3.9,1.7,3.9,3.9V30.2z"/>
		</g>
	</g>
	<g id="Group_20918" transform="translate(3 75.085)">
		<g id="Group_20917" transform="translate(0 0)">
			<rect id="Rectangle_1668" x="12.1" y="41.6" width="54.8" height="8.4"/>
		</g>
	</g>
</g>
</svg>
