<svg id="Layer_1" data-name="Layer 1" xmlns="http://www.w3.org/2000/svg" viewBox="0 0 100 100"><defs><style>.pdf-1{fill:#e2e5e7;}.pdf-2{fill:#b0b7bd;}.pdf-3{fill:#cad1d8;}.pdf-4{fill:#f15642;}.pdf-5{fill:#fff;}</style></defs><path class="pdf-1" d="M22.21.35a6.28,6.28,0,0,0-6.27,6.26V94.29a6.28,6.28,0,0,0,6.27,6.26H84.83a6.28,6.28,0,0,0,6.27-6.26V25.4l-25-25Z"/><path class="pdf-2" d="M72.31,25.4H91.1l-25-25V19.14A6.28,6.28,0,0,0,72.31,25.4Z"/><polygon class="pdf-3" points="91.1 44.19 72.31 25.4 91.1 25.4 91.1 44.19"/><path class="pdf-4" d="M78.57,81.76a3.13,3.13,0,0,1-3.13,3.13H6.55a3.13,3.13,0,0,1-3.13-3.13V50.45a3.14,3.14,0,0,1,3.13-3.13H75.44a3.14,3.14,0,0,1,3.13,3.13Z"/><path class="pdf-5" d="M17.07,59.68A1.72,1.72,0,0,1,18.77,58h5.78a6.26,6.26,0,0,1,0,12.52H20.37v3.31a1.57,1.57,0,0,1-1.6,1.72,1.68,1.68,0,0,1-1.7-1.72Zm3.3,1.42v6.24h4.18a3.12,3.12,0,0,0,0-6.24Z"/><path class="pdf-5" d="M35.64,75.5A1.57,1.57,0,0,1,33.91,74V59.73a1.71,1.71,0,0,1,1.73-1.56h5.74c11.44,0,11.19,17.33.22,17.33Zm1.58-14.27V72.45h4.16c6.76,0,7.06-11.22,0-11.22Z"/><path class="pdf-5" d="M56.63,61.43v4H63a1.93,1.93,0,0,1,1.8,1.78,1.74,1.74,0,0,1-1.8,1.5H56.63V74a1.49,1.49,0,0,1-1.5,1.55A1.59,1.59,0,0,1,53.35,74V59.72a1.59,1.59,0,0,1,1.78-1.55h8.79a1.56,1.56,0,0,1,1.75,1.55,1.73,1.73,0,0,1-1.75,1.71Z"/><path class="pdf-3" d="M75.44,84.89H15.94V88h59.5a3.14,3.14,0,0,0,3.13-3.14V81.76A3.13,3.13,0,0,1,75.44,84.89Z"/></svg>
