<svg xmlns="http://www.w3.org/2000/svg" width="18.776" height="18.766" viewBox="0 0 18.776 18.766">
    <path id="prefix__pen" d="M15.932.7a2.479 2.479 0 0 0-3.5 0l-.877.882L2.22 10.9l-.02.02s0 .01-.01.01-.025.03-.035.044-.005 0-.005.01-.015.025-.025.04 0 .01-.01.015-.01.025-.015.04 0 0 0 .01L.025 17.32a.487.487 0 0 0 .119.505.5.5 0 0 0 .352.144.585.585 0 0 0 .159-.025l6.222-2.076h.01a.179.179 0 0 0 .044-.02.018.018 0 0 0 .01 0c.015-.01.035-.02.049-.03s.03-.025.045-.035.01-.005.01-.01.015-.01.02-.02l10.21-10.21a2.479 2.479 0 0 0 0-3.5zm-9.214 14L3.27 11.257l8.63-8.63 3.448 3.448zm-3.934-2.527L5.8 15.185l-4.526 1.506zm13.792-7.332l-.525.53L12.6 1.924l.53-.53a1.486 1.486 0 0 1 2.1 0l1.347 1.347a1.491 1.491 0 0 1 0 2.1zm0 0" transform="translate(.309 .497)" style="fill:#203061;stroke:#203061;stroke-width:.6px"/>
</svg>
