<svg id="Layer_1" data-name="Layer 1" xmlns="http://www.w3.org/2000/svg" viewBox="0 0 100 100"><defs><style>.png-1{fill:#e2e5e7;}.png-2{fill:#b0b7bd;}.png-3{fill:#cad1d8;}.png-4{fill:#a066aa;}.png-5{fill:#fff;}</style></defs><path class="png-1" d="M23,0a6.27,6.27,0,0,0-6.25,6.25V93.76A6.27,6.27,0,0,0,23,100H85.5a6.28,6.28,0,0,0,6.26-6.25V25l-25-25Z"/><path class="png-2" d="M73,25H91.76l-25-25V18.75A6.28,6.28,0,0,0,73,25Z"/><polygon class="png-3" points="91.75 43.75 73 25 91.75 25 91.75 43.75"/><path class="png-4" d="M79.25,81.25a3.13,3.13,0,0,1-3.12,3.13H7.37a3.14,3.14,0,0,1-3.13-3.13V50a3.14,3.14,0,0,1,3.13-3.13H76.13A3.13,3.13,0,0,1,79.25,50Z"/><path class="png-5" d="M16.12,59.21a1.73,1.73,0,0,1,1.7-1.73H23.6a6.25,6.25,0,0,1,0,12.5H19.42v3.3A1.57,1.57,0,0,1,17.82,75a1.69,1.69,0,0,1-1.7-1.72Zm3.3,1.42v6.23h4.17a3.12,3.12,0,0,0,0-6.23Z"/><path class="png-5" d="M33,59.46c0-.9.2-1.77,1.5-1.77.9,0,1.1.22,1.78.87L44.5,68.91v-9.7a1.76,1.76,0,0,1,1.57-1.73,1.91,1.91,0,0,1,1.77,1.73V73.28A1.66,1.66,0,0,1,46.52,75a2.51,2.51,0,0,1-2-.87l-8.27-10.5v9.65A1.56,1.56,0,0,1,34.65,75,1.65,1.65,0,0,1,33,73.28V59.46Z"/><path class="png-5" d="M66.64,73.08a9.48,9.48,0,0,1-6.14,2.1c-5.26,0-9-3-9-9a8.92,8.92,0,0,1,9.2-9,8.2,8.2,0,0,1,5.69,2.2,1.62,1.62,0,0,1-2.17,2.4,5.25,5.25,0,0,0-3.52-1.57,6,6,0,0,0-5.95,5.94c0,3.7,2.45,6,5.73,6a6.36,6.36,0,0,0,3.74-1.12V68H60.5a1.53,1.53,0,1,1,0-3.06h5a1.71,1.71,0,0,1,1.77,1.48v5.32A2,2,0,0,1,66.64,73.08Z"/><path class="png-3" d="M76.13,84.38H16.75V87.5H76.13a3.12,3.12,0,0,0,3.12-3.12V81.25A3.13,3.13,0,0,1,76.13,84.38Z"/></svg>
