<?xml version="1.0" encoding="utf-8"?>
<!-- Generator: Adobe Illustrator 24.1.2, SVG Export Plug-In . SVG Version: 6.00 Build 0)  -->
<svg version="1.1" id="Capa_1" xmlns="http://www.w3.org/2000/svg" xmlns:xlink="http://www.w3.org/1999/xlink" x="0px" y="0px"
	 viewBox="0 0 100 100" style="enable-background:new 0 0 100 100;" xml:space="preserve">
<style type="text/css">
	.poor0{fill:#FF6666;}
</style>
<g>
	<g>
		<path class="poor0" d="M13.5,59H3.4C1.5,59,0,60.1,0,61.6v29.6c0,1.4,1.5,2.6,3.4,2.6h10.2c1.9,0,3.4-1.2,3.4-2.6V61.6
			C16.9,60.1,15.4,59,13.5,59z"/>
		<path class="poor0" d="M41.5,39.2H31.4c-1.9,0-3.4,1.4-3.4,3.1v48.4c0,1.7,1.5,3.1,3.4,3.1h10.2c1.9,0,3.4-1.4,3.4-3.1V42.3
			C44.9,40.6,43.4,39.2,41.5,39.2z"/>
		<path class="poor0" d="M68.8,21.2H58.7c-1.9,0-3.4,1.5-3.4,3.3v66c0,1.8,1.5,3.3,3.4,3.3h10.2c1.9,0,3.4-1.5,3.4-3.3v-66
			C72.2,22.7,70.7,21.2,68.8,21.2z"/>
		<path class="poor0" d="M96.6,6.3H86.5c-1.9,0-3.4,1.5-3.4,3.4v80.7c0,1.9,1.5,3.4,3.4,3.4h10.2c1.9,0,3.4-1.5,3.4-3.4V9.6
			C100,7.8,98.5,6.3,96.6,6.3z"/>
	</g>
</g>
</svg>
