<svg id="Layer_1" data-name="Layer 1" xmlns="http://www.w3.org/2000/svg" viewBox="0 0 100 100"><defs><style>.ppt-1{fill:#e2e5e7;}.ppt-2{fill:#b0b7bd;}.ppt-3{fill:#cad1d8;}.ppt-4{fill:#f15642;}.ppt-5{fill:#fff;}</style></defs><path class="ppt-1" d="M24.35,0A6.27,6.27,0,0,0,18.1,6.23V93.77A6.27,6.27,0,0,0,24.35,100H86.88a6.28,6.28,0,0,0,6.25-6.25V25l-25-25Z"/><path class="ppt-2" d="M74.37,25H93.13l-25-25V18.74A6.27,6.27,0,0,0,74.37,25Z"/><polygon class="ppt-3" points="93.13 43.75 74.37 24.99 93.13 24.99 93.13 43.75"/><path class="ppt-4" d="M80.62,81.26a3.13,3.13,0,0,1-3.12,3.13H8.72A3.13,3.13,0,0,1,5.6,81.26V50a3.13,3.13,0,0,1,3.12-3.13H77.5A3.13,3.13,0,0,1,80.62,50Z"/><path class="ppt-5" d="M20,59.21a1.72,1.72,0,0,1,1.7-1.72h5.77a6.25,6.25,0,0,1,0,12.5H23.25v3.3A1.57,1.57,0,0,1,21.65,75,1.68,1.68,0,0,1,20,73.29V59.21Zm3.3,1.43v6.22h4.17a3.11,3.11,0,0,0,0-6.22Z"/><path class="ppt-5" d="M36.78,59.21a1.72,1.72,0,0,1,1.7-1.72h5.78a6.25,6.25,0,0,1,0,12.5H40.08v3.3A1.57,1.57,0,0,1,38.48,75a1.69,1.69,0,0,1-1.7-1.72V59.21Zm3.3,1.43v6.22h4.17a3.11,3.11,0,0,0,0-6.22Z"/><path class="ppt-5" d="M58.29,60.84H53.92a1.6,1.6,0,1,1,0-3.2H65.74a1.6,1.6,0,1,1,0,3.2H61.59V73.46a1.65,1.65,0,1,1-3.3,0Z"/><path class="ppt-3" d="M77.5,84.39H18.1v3.12H77.5a3.12,3.12,0,0,0,3.12-3.12V81.26A3.13,3.13,0,0,1,77.5,84.39Z"/></svg>
