<?xml version="1.0" encoding="utf-8"?>
<!-- Generator: Adobe Illustrator 24.1.2, SVG Export Plug-In . SVG Version: 6.00 Build 0)  -->
<svg version="1.1" id="Layer_1" xmlns="http://www.w3.org/2000/svg" xmlns:xlink="http://www.w3.org/1999/xlink" x="0px" y="0px"
	 viewBox="0 0 100 100" style="enable-background:new 0 0 100 100;" xml:space="preserve">
<g id="prescriptions" transform="translate(0 -17.247)">
	<g id="Group_190" transform="translate(8.855 22.723)">
		<g id="Group_189" transform="translate(0 0)">
			<path id="Path_11271" d="M59.5,22.8H35.3c-2.1,0-3.9,1.7-3.9,3.9c0,2.1,1.7,3.9,3.9,3.9c0,0,0,0,0,0h24.2c2.1,0,3.9-1.7,3.9-3.9
				C63.3,24.5,61.6,22.8,59.5,22.8C59.5,22.8,59.5,22.8,59.5,22.8z"/>
		</g>
	</g>
	<g id="Group_192" transform="translate(8.909 26.947)">
		<g id="Group_191">
			<path id="Path_11272" d="M68.9,37.8H35.5c-2.1,0-3.9,1.7-3.9,3.9c0,2.1,1.7,3.9,3.9,3.9c0,0,0,0,0,0h33.5c2.1,0,3.9-1.7,3.9-3.9
				C72.8,39.5,71.1,37.8,68.9,37.8C69,37.8,68.9,37.8,68.9,37.8z"/>
		</g>
	</g>
	<g id="Group_194" transform="translate(0 17.247)">
		<g id="Group_193">
			<path id="Path_11273" d="M96,3.4H25.9c-2.2,0-4,1.8-4,4v37.4h-7C6.7,44.7,0,51.4,0,59.6v22.1c0,8.2,6.7,14.9,14.9,14.9
				c0.7,0,1.3,0,2-0.1h65.4c9.8,0,17.7-7.9,17.7-17.7V7.3C100,5.1,98.2,3.4,96,3.4z M21.9,81.7c0,3.3-2.4,6.2-5.6,6.9h-1.4v0.1
				c-3.9,0-7-3.1-7-7V59.6c0-3.9,3.1-7,7-7h7L21.9,81.7L21.9,81.7z M92.1,78.8c-0.1,5.4-4.4,9.7-9.8,9.8H28.2
				c1.1-2.1,1.7-4.5,1.7-6.9V11.3h62.2V78.8L92.1,78.8z"/>
		</g>
	</g>
	<g id="Group_196" transform="translate(8.855 30.909)">
		<g id="Group_195" transform="translate(0 0)">
			<path id="Path_11274" d="M59.5,51.8H35.3c-2.1,0-3.9,1.7-3.9,3.9c0,2.1,1.7,3.9,3.9,3.9l0,0h24.2c2.1,0,3.9-1.7,3.9-3.9
				C63.3,53.5,61.6,51.8,59.5,51.8L59.5,51.8z"/>
		</g>
	</g>
</g>
</svg>
