<?xml version="1.0" encoding="utf-8"?>
<!-- Generator: Adobe Illustrator 24.1.0, SVG Export Plug-In . SVG Version: 6.00 Build 0)  -->
<svg version="1.1" id="Layer_1" xmlns="http://www.w3.org/2000/svg" xmlns:xlink="http://www.w3.org/1999/xlink" x="0px" y="0px"
	 viewBox="0 0 100 100" style="enable-background:new 0 0 100 100;" xml:space="preserve">
<style type="text/css">
	.productSt0{fill:#E8EBF3;}
	.productSt1{fill:#203061;}
</style>
<g id="productCategory" transform="translate(-362 -281)">
	<path id="Rectangle_18" class="productSt0" d="M412,281L412,281c27.6,0,50,22.4,50,50l0,0c0,27.6-22.4,50-50,50l0,0c-27.6,0-50-22.4-50-50
		l0,0C362,303.4,384.4,281,412,281z"/>
	<g id="swap" transform="translate(371.641 292)">
		<g id="Group_122" transform="translate(1.905 6.74)">
			<g id="Group_121">
				<path id="Path_11243" class="productSt1" d="M57.8,40.9L44.4,30.3c-0.3-0.2-0.6-0.2-0.8,0.1c-0.1,0.1-0.1,0.2-0.1,0.4v6.8H34
					c-0.3,0-0.6,0.3-0.6,0.6s0.3,0.6,0.6,0.6h10c0.3,0,0.6-0.3,0.6-0.6l0,0V32l11.8,9.3l-11.9,9v-5.9c0-0.3-0.3-0.6-0.6-0.6
					c0,0,0,0,0,0H30.5c-4.8,0.2-8.9-3.4-9.4-8.2c0.4,0.3,0.8,0.7,1.3,0.9c2.9,1.7,6.1,2.4,9.4,2.2c0.3,0,0.6-0.3,0.6-0.6
					s-0.3-0.6-0.6-0.6c-3,0.2-6.1-0.5-8.8-2c-0.9-0.5-1.6-1.2-2.3-2c-0.2-0.3-0.5-0.3-0.8-0.1c-0.2,0.1-0.3,0.3-0.2,0.5
					c0.1,1.9,0.6,3.8,1.4,5.5c1.7,3.6,5.4,5.7,9.4,5.5h12.9v6.5c0,0.3,0.3,0.6,0.6,0.6c0.1,0,0.2,0,0.3-0.1l13.5-10.1
					c0.3-0.2,0.3-0.6,0.1-0.8C57.8,40.9,57.8,40.9,57.8,40.9L57.8,40.9z"/>
			</g>
		</g>
		<g id="Group_124" transform="translate(1.359 0)">
			<g id="Group_123" transform="translate(0 0)">
				<path id="Path_11244" class="productSt1" d="M55.6,31.3c-1.7-3.6-5.4-5.7-9.4-5.5h-1.5c-0.3,0-0.6,0.3-0.6,0.6c0,0.3,0.3,0.6,0.6,0.6
					h1.5c4.8-0.2,8.9,3.4,9.4,8.2c-2.7-2.1-6-3.2-9.4-3.1H32.7c-0.3,0-0.6,0.3-0.6,0.6l0,0v6.2l-11.8-9.3l11.9-9v5.9
					c0,0.3,0.3,0.6,0.6,0.6l0,0h9.8c0.3,0,0.6-0.3,0.6-0.6c0-0.3-0.3-0.6-0.6-0.6c0,0,0,0,0,0h-9.2v-6.5c0-0.3-0.3-0.6-0.6-0.6
					c-0.1,0-0.2,0-0.3,0.1L19,29c-0.3,0.2-0.3,0.6-0.1,0.8c0,0,0.1,0.1,0.1,0.1l13.4,10.5c0.3,0.2,0.6,0.2,0.8-0.1
					c0.1-0.1,0.1-0.2,0.1-0.4v-6.8h13c2.6-0.1,5.2,0.6,7.5,2c0.9,0.5,1.6,1.2,2.3,2c0.2,0.3,0.5,0.3,0.8,0.1
					c0.2-0.1,0.3-0.3,0.2-0.5C57,34.9,56.5,33,55.6,31.3z"/>
			</g>
		</g>
	</g>
</g>
</svg>
