<?xml version="1.0" encoding="utf-8"?>
<!-- Generator: Adobe Illustrator 23.0.3, SVG Export Plug-In . SVG Version: 6.00 Build 0)  -->
<svg version="1.1" id="Layer_1" xmlns="http://www.w3.org/2000/svg" xmlns:xlink="http://www.w3.org/1999/xlink" x="0px" y="0px"
	 viewBox="0 0 100 100" style="enable-background:new 0 0 100 100;" xml:space="preserve">
<style type="text/css">
	.profile-logo-0{fill:#FFFFFF;}
	.profile-logo-1{fill:#F9F9F9;}
	.profile-logo-2{fill:#E5E6E8;}
</style>
<g id="placeholder" transform="translate(-350 -401)">
	<g id="man-in-suit2" transform="translate(350 401)">
		<circle class="profile-logo-0" cx="50.2" cy="50" r="49.6"/>
	</g>
	<circle id="Ellipse_177" class="profile-logo-1" cx="400.5" cy="450.8" r="44.8"/>
	<path id="Path_1415" class="profile-logo-2" d="M436.8,475.1c-1,2.2-2.2,4.3-3.6,6.3c-16.9,18.1-45.3,19-63.3,2.1c-1.5-1.5-3-3-4.3-4.7
		c-0.2-0.7-0.2-1.4-0.2-2.1c0,0-0.9-7.2,4.4-8.7c5.3-1.5,9.3-1.4,12.8-3.5s7.9-7.1,10.4-7.3c0.6-0.9,0.7-2,0.3-2.9
		c0,0-2.7-1.5-4.2-10.2c0,0-7.1-4.1-2.3-8.2c0,0-2.5-14.3,2.9-15.3c0,0-0.4-4.4,8.8-5.6c9.2-1.2,13.5,5,14.6,8.4
		c1.1,3.4,0.7,10.9,0.5,11.9c0,0,2.5,0.7,1.3,5c-1.2,4.2-2.9,3.4-2.9,3.4s-1.1,8.8-3.6,11l0,3.1c0,0,1.4,0,5.2,2.6
		c3.8,2.6,4.9,3.9,4.9,3.9c3.1,2.1,6.8,3.3,10.5,3.3C435.2,467.3,437.2,470.2,436.8,475.1z"/>
	<path id="Path_1416" class="profile-logo-1" d="M395.3,469.9l4.8-7.8l-8-4.6l-2,4.1c0,0,0.9,1,0.6,2c-0.4,1.1-3.6,15.4,6.4,29.9
		c0,0,1.6-25.2,3-26.4l-1-1.3L395.3,469.9z"/>
	<path id="Path_1417" class="profile-logo-1" d="M406.1,470.1l-4.8-7.8l8-4.6l2,4.1c0,0-0.9,1-0.6,2s3.6,15.4-6.4,29.9c0,0-1.6-25.2-3-26.4
		l1-1.3L406.1,470.1z"/>
</g>
</svg>
