<?xml version="1.0" encoding="utf-8"?>
<!-- Generator: Adobe Illustrator 24.1.2, SVG Export Plug-In . SVG Version: 6.00 Build 0)  -->
<svg version="1.1" id="Layer_1" xmlns="http://www.w3.org/2000/svg" xmlns:xlink="http://www.w3.org/1999/xlink" x="0px" y="0px"
	 viewBox="0 0 512 512" style="enable-background:new 0 0 512 512;" xml:space="preserve">
<style type="text/css">
	.profile0{opacity:0.2;}
	.profile1{fill:#FFFFFF;}
</style>
<circle class="profile0" cx="255.3" cy="256.7" r="255.3"/>
<g>
	<path class="profile1" d="M254,251.5c16.4,0,30.5-5.9,42.1-17.5c11.6-11.6,17.4-25.7,17.4-42.1c0-16.4-5.9-30.5-17.5-42.1
		c-11.6-11.6-25.8-17.4-42.1-17.4c-16.4,0-30.5,5.9-42.1,17.4c-11.6,11.6-17.5,25.7-17.5,42.1c0,16.4,5.9,30.5,17.5,42.1
		C223.5,245.6,237.7,251.5,254,251.5z"/>
	<path class="profile1" d="M358.2,322.5c-0.3-4.8-1-10.1-2-15.6c-1-5.6-2.3-10.9-3.8-15.7c-1.6-5-3.8-9.9-6.5-14.7
		c-2.8-4.9-6.1-9.2-9.7-12.7c-3.8-3.7-8.5-6.6-14-8.8c-5.4-2.1-11.4-3.2-17.9-3.2c-2.5,0-5,1-9.7,4.1c-2.9,1.9-6.3,4.1-10.1,6.5
		c-3.2,2.1-7.6,4-13,5.7c-5.3,1.7-10.7,2.6-16,2.6s-10.7-0.9-16-2.6c-5.4-1.7-9.8-3.7-13-5.7c-3.8-2.4-7.1-4.6-10.1-6.5
		c-4.7-3.1-7.2-4.1-9.7-4.1c-6.4,0-12.4,1.1-17.9,3.2c-5.4,2.2-10.1,5.1-14,8.8c-3.7,3.5-7,7.8-9.7,12.7c-2.7,4.7-4.9,9.7-6.5,14.7
		c-1.5,4.8-2.8,10.1-3.8,15.7c-1,5.5-1.7,10.8-2,15.6c-0.3,4.7-0.5,9.6-0.5,14.6c0,12.9,4.1,23.4,12.2,31.1
		c8,7.6,18.6,11.5,31.4,11.5h119.1c12.9,0,23.4-3.9,31.4-11.5c8.1-7.7,12.2-18.2,12.2-31.1C358.7,332.1,358.6,327.2,358.2,322.5z"/>
</g>
</svg>
