<?xml version="1.0" encoding="utf-8"?>
<!-- Generator: Adobe Illustrator 24.1.2, SVG Export Plug-In . SVG Version: 6.00 Build 0)  -->
<svg version="1.1" id="Layer_1" xmlns="http://www.w3.org/2000/svg" xmlns:xlink="http://www.w3.org/1999/xlink" x="0px" y="0px"
	 viewBox="0 0 100 100" style="enable-background:new 0 0 100 100;" xml:space="preserve">
<style type="text/css">
	.st0{opacity:0.2;fill:#203061;enable-background:new    ;}
	.st1{fill:#FFFFFF;}
</style>
<g id="provider" transform="translate(0.1 0.1)">
	<g id="doctorProfile" transform="translate(-0.1 -0.1)">
		<g id="profi">
			<g id="profile" transform="translate(0 0)">
				<ellipse id="Ellipse_21" class="st0" cx="49.9" cy="49.5" rx="50.1" ry="48.5"/>
			</g>
		</g>
	</g>
	<g id="Page-1" transform="translate(20.102 20.102)">
		<g id="_x30_31---University">
			<path id="Rectangle-path" class="st1" d="M27.2,38.8h4.9v8.6h-4.9V38.8z"/>
			<path id="Rectangle-path_1_" class="st1" d="M6.9,48.9h10.6v1.6H6.9V48.9z"/>
			<path id="Rectangle-path_2_" class="st1" d="M19.1,26.9h21.1v1.6H19.1V26.9z"/>
			<path id="Shape" class="st1" d="M17.5,26.9c-0.9,0-1.6-0.7-1.6-1.6h-5.5c-0.3,0-0.6,0.2-0.7,0.4l-1.4,2.7h9.3L17.5,26.9
				L17.5,26.9z"/>
			<path id="Shape_1_" class="st1" d="M38.6,47.4V30.1H20.8v17.3h4.9v-9.5c0-0.4,0.3-0.8,0.8-0.8c0,0,0,0,0,0h6.5
				c0.4,0,0.8,0.3,0.8,0.8c0,0,0,0,0,0v9.5H38.6z M28.1,34c0,0.4-0.4,0.8-0.8,0.8s-0.8-0.3-0.8-0.8c0,0,0,0,0,0v-1.6
				c0-0.4,0.4-0.8,0.8-0.8c0.4,0,0.8,0.3,0.8,0.8V34z M32.9,34c0,0.4-0.4,0.8-0.8,0.8c-0.4,0-0.8-0.3-0.8-0.8c0,0,0,0,0,0v-1.6
				c0-0.4,0.4-0.8,0.8-0.8c0.4,0,0.8,0.3,0.8,0.8V34z"/>
			<path id="Shape_2_" class="st1" d="M37.7,19.3c-0.1-0.1-0.3-0.2-0.6-0.2H21.5c-0.2,0-0.5,0.1-0.6,0.3l-2.5,2.9h22.3L37.7,19.3z"
				/>
			<path id="Shape_3_" class="st1" d="M40.3,10L40.3,10L29.7,7.3L19.1,10l10.6,2.8L40.3,10z"/>
			<path id="Shape_4_" class="st1" d="M41.9,28.5h9.3l-1.4-2.7c-0.1-0.3-0.4-0.4-0.7-0.4h-5.5c0,0.9-0.7,1.5-1.6,1.6L41.9,28.5
				L41.9,28.5z"/>
			<path id="Shape_5_" class="st1" d="M29.3,14.3l-6.1-1.6v4.8h13v-4.8l-6.1,1.6C29.8,14.4,29.6,14.4,29.3,14.3z"/>
			<path id="Rectangle-path_3_" class="st1" d="M17.5,23.8h24.4v1.6H17.5V23.8z"/>
			<path id="Shape_6_" class="st1" d="M19.1,30.1H7.7v17.3h11.4V30.1z M11.8,44.2c0,0.4-0.4,0.8-0.8,0.8c-0.4,0-0.8-0.3-0.8-0.8
				c0,0,0,0,0,0v-1.5c0-0.4,0.4-0.8,0.8-0.8c0.4,0,0.8,0.3,0.8,0.8V44.2z M11.8,39.5c0,0.4-0.4,0.8-0.8,0.8c-0.4,0-0.8-0.3-0.8-0.8
				V38c0-0.4,0.4-0.8,0.8-0.8c0.4,0,0.8,0.3,0.8,0.8V39.5z M11.8,34.8c0,0.4-0.4,0.8-0.8,0.8c-0.4,0-0.8-0.3-0.8-0.8v-1.6
				c0-0.4,0.4-0.8,0.8-0.8c0.4,0,0.8,0.3,0.8,0.8c0,0,0,0,0,0V34.8z M16.7,44.2c0,0.4-0.4,0.8-0.8,0.8c-0.4,0-0.8-0.3-0.8-0.8
				c0,0,0,0,0,0v-1.5c0-0.4,0.4-0.8,0.8-0.8c0.4,0,0.8,0.3,0.8,0.8V44.2z M16.7,39.5c0,0.4-0.4,0.8-0.8,0.8c-0.4,0-0.8-0.3-0.8-0.8
				V38c0-0.4,0.4-0.8,0.8-0.8c0.4,0,0.8,0.3,0.8,0.8V39.5z M16.7,34.8c0,0.4-0.4,0.8-0.8,0.8c-0.4,0-0.8-0.3-0.8-0.8v-1.6
				c0-0.4,0.4-0.8,0.8-0.8c0.4,0,0.8,0.3,0.8,0.8c0,0,0,0,0,0V34.8z"/>
			<path id="Rectangle-path_4_" class="st1" d="M41.9,48.9h10.6v1.6H41.9V48.9z"/>
			<path id="Shape_7_" class="st1" d="M32.9,48.9H19.1v2.4h21.1v-2.4H32.9z"/>
			<path id="Shape_8_" class="st1" d="M51.6,30.1H40.3v17.3h11.4V30.1z M44.3,44.2c0,0.4-0.4,0.8-0.8,0.8c-0.4,0-0.8-0.3-0.8-0.8
				c0,0,0,0,0,0v-1.5c0-0.4,0.4-0.8,0.8-0.8c0.4,0,0.8,0.3,0.8,0.8c0,0,0,0,0,0V44.2z M44.3,39.5c0,0.4-0.4,0.8-0.8,0.8
				c-0.4,0-0.8-0.3-0.8-0.8V38c0-0.4,0.4-0.8,0.8-0.8c0.4,0,0.8,0.3,0.8,0.8V39.5z M44.3,34.8c0,0.4-0.4,0.8-0.8,0.8
				c-0.4,0-0.8-0.3-0.8-0.8c0,0,0,0,0,0v-1.6c0-0.4,0.4-0.8,0.8-0.8c0.4,0,0.8,0.3,0.8,0.8c0,0,0,0,0,0V34.8z M49.2,44.2
				c0,0.4-0.4,0.8-0.8,0.8s-0.8-0.3-0.8-0.8c0,0,0,0,0,0v-1.5c0-0.4,0.4-0.8,0.8-0.8c0.4,0,0.8,0.3,0.8,0.8V44.2z M49.2,39.5
				c0,0.4-0.4,0.8-0.8,0.8c-0.4,0-0.8-0.3-0.8-0.8V38c0-0.4,0.4-0.8,0.8-0.8c0.4,0,0.8,0.3,0.8,0.8V39.5z M49.2,34.8
				c0,0.4-0.4,0.8-0.8,0.8c-0.4,0-0.8-0.3-0.8-0.8v-1.6c0-0.4,0.4-0.8,0.8-0.8c0.4,0,0.8,0.3,0.8,0.8c0,0,0,0,0,0V34.8z"/>
			<path id="Shape_9_" class="st1" d="M40.3,11.6h-1.6v2.9l0,0c0,0.8,0.4,1.6,1.1,2c0.2,0.2,0.5,0.2,0.8,0c0.2-0.1,0.4-0.4,0.5-0.6
				c0-0.3-0.1-0.6-0.4-0.7c-0.2-0.1-0.4-0.4-0.4-0.7l0,0L40.3,11.6z"/>
		</g>
	</g>
</g>
</svg>
