<?xml version="1.0" encoding="utf-8"?>
<!-- Generator: Adobe Illustrator 24.1.2, SVG Export Plug-In . SVG Version: 6.00 Build 0)  -->
<svg version="1.1" id="Layer_1" xmlns="http://www.w3.org/2000/svg" xmlns:xlink="http://www.w3.org/1999/xlink" x="0px" y="0px"
	 viewBox="0 0 100 100" style="enable-background:new 0 0 100 100;" xml:space="preserve">
<g id="providerSignup" transform="translate(0 -1.995)">
	<path id="XMLID_134_" d="M96.8,3.2H43.6c-1.8,0-3.2,1.4-3.2,3.2V29l2.3-2.7c1.1-1.2,2.5-2.1,4.1-2.4V9.6h46.7v41.8H46.8v-7
		l-1.4,1.7c-1.3,1.5-3,2.4-5,2.6v5.9c0,1.8,1.4,3.2,3.2,3.2l0,0h17.3l-8.8,39.8c-0.4,1.8,0.7,3.5,2.5,3.9c1.8,0.4,3.5-0.7,3.9-2.5
		l0,0l9.1-41.2H73L82,99c0.4,1.8,2.2,2.9,3.9,2.5s2.9-2.2,2.5-3.9l-8.8-39.8h17c1.8,0,3.2-1.4,3.2-3.2V6.4
		C100,4.6,98.5,3.2,96.8,3.2C96.8,3.2,96.8,3.2,96.8,3.2z"/>
	<path id="XMLID_132_" d="M71.4,21.9c-0.2-0.6-1-0.9-1.6-0.7c0,0,0,0,0,0l-18.8,6.6c-1.7-1.3-4.2-1.1-5.7,0.6l-6,7L34,30.9
		c0,0.4,0.1,0.7,0.1,1.1v9.9l2.9,2.5c1.7,1.5,4.3,1.3,5.8-0.4l7.1-8.3l5.7-3.4l15.1-8.8C71.4,23.1,71.6,22.5,71.4,21.9z"/>
	<path id="XMLID_131_" d="M22.5,23.7h-3.6c-2.6,0-5.1,1.2-6.6,3.3L1.4,37c-1.7,1.5-1.8,4.1-0.3,5.8c0,0,0,0,0,0l8.9,9.9
		c1.5,1.7,4.1,1.9,5.8,0.4c1.7-1.5,1.9-4.1,0.4-5.8c0,0-0.1-0.1-0.1-0.1L10,40.4l8.7-7.8l-5.1,6.9l5,5.5c2.7,3,2.5,7.7-0.5,10.5
		c-2,1.8-4.9,2.4-7.5,1.5c0,0,0,19.1,0,39.6c0,2.7,2.2,5,5,5s5-2.2,5-5V67.1h3.3v29.6c0,1.4-0.4,2.7-1,3.9c0.9,0.7,1.9,1,3,1
		c2.7,0,5-2.2,5-5c0,0,0,0,0,0c0-20.5,0-11.9,0-64.6C30.8,27.4,27.1,23.7,22.5,23.7z"/>
	<path id="XMLID_130_" d="M16.3,20.7c2.8,1.5,6.1,1.5,8.8,0c4.7-2.4,6.6-8.3,4.2-13C26.9,2.9,21,1,16.3,3.5s-6.6,8.3-4.2,13
		C13,18.3,14.5,19.8,16.3,20.7z"/>
</g>
</svg>
