<svg xmlns="http://www.w3.org/2000/svg" width="55.002" height="54.554" viewBox="0 0 55.002 54.554">
    <defs>
        <style>
            .prefix__cls-provider{fill:#203061}
        </style>
    </defs>
    <g id="prefix__XMLID_129_" transform="translate(0 -1.995)">
        <path id="prefix__XMLID_134_" d="M228.919 5.656H199.68a1.76 1.76 0 0 0-1.759 1.76v12.418l1.272-1.487a4.05 4.05 0 0 1 2.247-1.325V9.176h25.719v22.988H201.44v-3.848l-.792.927a4.087 4.087 0 0 1-2.727 1.408v3.273a1.759 1.759 0 0 0 1.759 1.759h9.5l-4.824 21.9a1.82 1.82 0 0 0 3.555.784l5-22.687h2.9l5 22.687a1.82 1.82 0 1 0 3.555-.784l-4.824-21.9h9.383a1.76 1.76 0 0 0 1.759-1.759V7.416a1.761 1.761 0 0 0-1.765-1.76z" class="prefix__cls-provider" transform="translate(-175.677 -3.25)"/>
        <path id="prefix__XMLID_132_" d="M186.91 93.715a.679.679 0 0 0-.881-.383l-10.366 3.659a2.276 2.276 0 0 0-3.117.318l-3.289 3.841-2.917-2.5c.019.206.063.407.063.619v5.431l1.623 1.39a2.277 2.277 0 0 0 3.209-.247l3.916-4.579 3.158-1.848 8.311-4.863a.678.678 0 0 0 .29-.838z" class="prefix__cls-provider" transform="translate(-147.644 -81.029)"/>
        <path id="prefix__XMLID_131_" d="M12.355 105.776H10.4a4.559 4.559 0 0 0-3.647 1.835l-6 5.521a2.275 2.275 0 0 0-.178 3.214l4.892 5.461a2.275 2.275 0 1 0 3.388-3.036L5.489 115l4.79-4.286-2.79 3.79 2.729 3.047a4.082 4.082 0 0 1-4.4 6.58s.021 10.526.021 21.8a2.73 2.73 0 1 0 5.46 0v-16.267h1.821v16.271a4.515 4.515 0 0 1-.569 2.161 2.7 2.7 0 0 0 1.649.569 2.73 2.73 0 0 0 2.731-2.73v-35.579a4.58 4.58 0 0 0-4.576-4.58z" class="prefix__cls-provider" transform="translate(0 -92.117)"/>
        <path id="prefix__XMLID_130_" d="M56.766 12.021a5.115 5.115 0 0 0 4.864 0 5.322 5.322 0 1 0-4.864 0z" class="prefix__cls-provider" transform="translate(-47.821)"/>
    </g>
</svg>
