<?xml version="1.0" encoding="utf-8"?>
<!-- Generator: Adobe Illustrator 24.1.1, SVG Export Plug-In . SVG Version: 6.00 Build 0)  -->
<svg version="1.1" id="Layer_1" xmlns="http://www.w3.org/2000/svg" xmlns:xlink="http://www.w3.org/1999/xlink" x="0px" y="0px"
	 viewBox="0 0 100 100" style="enable-background:new 0 0 100 100;" xml:space="preserve">
<style type="text/css">
	.st0{fill:#FFFFFF;}
</style>
<g id="questionAns" transform="translate(-1.21 0.25)">
	<g id="comment">
		<g id="Path_11642">
			<g id="Path_12082">
				<path class="st0" d="M87.8,38.2h-23V19.8c0.3-8-5.9-14.7-13.8-15H14.8c-7.9,0.4-14.1,7.1-13.8,15v21.1
					c-0.1,6.2,3.7,11.9,9.5,14.1l5.8,6.4c0.6,0.6,1.3,0.9,2.1,1h0.1c0.7,0,1.5-0.3,2-0.8l5.4-5.8h14.4V74
					c-0.5,7.8,5.4,14.5,13.2,15.1h23.8l5,5.7c0.5,0.6,1.3,1,2.1,1c0.8,0,1.6-0.4,2.1-1l5.5-6.4c5.6-2.3,9.2-8,9-14V53.2
					C101.4,45.5,95.5,38.7,87.8,38.2z M24.5,51.8c-0.1,0-0.2,0-0.3,0.1l-5.8,6.3l-6.3-6.8c-4.5-1.4-7.6-5.6-7.6-10.3V19.3
					C4.5,13.6,9,8.9,14.8,8.7H51c5.7,0.2,10.2,5,10.2,10.7v21.3c0,0,0,0.1,0,0.1v0.1c0,0.4,0,0.8-0.1,1.2c0,0.2,0,0.3-0.1,0.5
					c0,0.1,0,0.2,0,0.3c0,0.1,0,0.1,0,0.2c0,0.1,0,0.2-0.1,0.3c0,0.1,0,0.1,0,0.2c0,0.1,0,0.2,0,0.3c0,0.1-0.1,0.2-0.1,0.3
					c0,0.2-0.1,0.3-0.2,0.5c-1.3,4-5.1,6.9-9.5,7H24.5z M95,53.2v21.5c0,3.4-2.2,6.5-5.4,7.6c-0.5,0.2-1,0.5-1.4,0.9l-3.9,4.5
					l-3.6-4.1c-0.5-0.6-1.3-1-2.1-1H53.5c-2-0.1-3.8-1-5.1-2.4c-1.4-1.6-2.1-3.7-2.1-5.9V55.7H51c6.4-0.2,11.9-4.8,13.3-10.9h23.4
					c4.1,0.3,7.4,3.8,7.4,7.9C95,52.8,95,53,95,53.2z"/>
			</g>
		</g>
	</g>
	<g id="comment_1_2">
		<g id="Path_11643" transform="translate(17.843 15.5)">
			<g id="Path_12087">
				<path class="st0" d="M66.8,44.8c0,1.6-1,2.9-2.2,2.9H40.9c-1.4-0.2-2.4-1.5-2.3-2.9c-0.1-1.4,0.9-2.7,2.3-2.9h23.7
					C65.9,41.9,66.8,43.2,66.8,44.8z"/>
			</g>
		</g>
		<g id="Path_11644" transform="translate(17.843 18.12)">
			<g id="Path_12089">
				<path class="st0" d="M67.1,51.9c-0.3,1.1-1.2,2-2.3,2.3l-0.1,0l-23.9,0c-1.8-0.5-2.8-2.3-2.3-4.1c0.3-1.1,1.2-2,2.3-2.3l0.2,0
					l23.8,0C66.6,48.2,67.6,50.1,67.1,51.9z"/>
			</g>
		</g>
	</g>
	<g id="_">
		<g id="Group_21711">
			<g id="Path_12090">
				<path class="st0" d="M37.8,19.3c-0.7-1-1.6-1.7-2.7-2.1c-1.3-0.5-2.6-0.8-4-0.8c-1.9-0.1-3.8,0.4-5.5,1.4v3.9
					c1.5-1,3.3-1.5,5.1-1.6c0.9-0.1,1.8,0.2,2.5,0.7c0.6,0.5,0.9,1.2,0.9,2c0,0.7-0.2,1.4-0.5,2c-0.4,0.8-1,1.5-1.6,2.2
					c-0.8,0.9-1.5,2-2.1,3.1c-0.5,1.1-0.8,2.3-0.7,3.5v1.5h2.7l0.2-1c0.1-0.9,0.4-1.7,0.9-2.4c0.7-0.9,1.5-1.8,2.3-2.6
					c1-1,1.9-2.1,2.7-3.2c0.6-1,0.9-2.2,0.9-3.4C38.8,21.3,38.4,20.2,37.8,19.3z M27.9,37.7v5.1h5.2v-5.1H27.9z"/>
			</g>
		</g>
	</g>
</g>
</svg>
