<?xml version="1.0" encoding="utf-8"?>
<!-- Generator: Adobe Illustrator 24.1.1, SVG Export Plug-In . SVG Version: 6.00 Build 0)  -->
<svg version="1.1" id="Layer_1" xmlns="http://www.w3.org/2000/svg" xmlns:xlink="http://www.w3.org/1999/xlink" x="0px" y="0px"
	 viewBox="0 0 100 100" style="enable-background:new 0 0 100 100;" xml:space="preserve">
<style type="text/css">
	.st0{fill:#FFFFFF;}
	.st1{fill:#203061;}
</style>
<g id="questionAnsOut" transform="translate(-1360 -880)">
	<g id="Path_12105">
		<path class="st0" d="M1410.1,880c27.5,0,49.9,22.3,49.9,49.9c0,27.5-22.3,49.9-49.9,49.9s-49.9-22.3-49.9-49.9
			C1360.3,902.3,1382.6,880,1410.1,880z"/>
	</g>
	<g id="comment" transform="translate(1378.54 902)">
		<g id="Path_11642">
			<g id="Path_12083">
				<path class="st1" d="M46.9,23.2h-9.8v-8.1c0-3.3-2.6-6-5.9-6.2H15.8c-3.4,0.2-6,3-5.9,6.4v9c0,2.7,1.6,5.1,4,6l2.5,2.7
					c0.2,0.3,0.5,0.4,0.9,0.4h0.1c0.3,0,0.6-0.1,0.9-0.3l2.3-2.5h6.1v7.8c-0.2,3.3,2.3,6.2,5.6,6.4h10.1l2.1,2.4
					c0.2,0.3,0.5,0.4,0.9,0.4c0.4,0,0.7-0.2,0.9-0.4l2.4-2.7c2.4-1,3.9-3.4,3.8-6v-9C52.7,26.4,50.2,23.5,46.9,23.2z M19.9,27.9
					c-0.4,0-0.7,0.2-1,0.4l-1.7,1.8l-1.8-2c-0.2-0.2-0.4-0.3-0.6-0.4c-1.5-0.4-2.4-1.8-2.4-3.3v-9.3c0-1.8,1.4-3.3,3.3-3.4h15.4
					c1.8,0.1,3.3,1.6,3.3,3.5v9c0,0,0,0,0,0c0,0.3,0,0.6-0.1,0.9c0,0,0,0.1,0,0.1l-0.1,0.2c-0.4,1.3-1.6,2.3-3,2.3H19.9z M45.4,45.5
					l-2.1-2.4h0L45.4,45.5L45.4,45.5z M50,38.8c0,1.5-0.9,2.8-2.3,3.2c-0.2,0.1-0.4,0.2-0.6,0.4l-1.7,1.9l-1.5-1.8
					c-0.2-0.3-0.6-0.5-0.9-0.4H32.3c-0.9,0-1.6-0.4-2.2-1c-0.6-0.7-0.9-1.6-0.9-2.5v-7.9h2c2.7-0.1,5.1-2,5.7-4.7h10
					c1.8,0.1,3.1,1.6,3.1,3.4c0,0.1,0,0.1,0,0.2v9C50,38.7,50,38.8,50,38.8z"/>
			</g>
		</g>
	</g>
	<g id="comment_1_2" transform="translate(1378.54 902)">
		<g id="Path_11642-2">
			<g id="Path_12084">
				<polygon class="st1" points="45.4,45.5 45.4,45.5 43.3,43.1 43.3,43.1 				"/>
				<path class="st1" d="M43.3,43.1L43.3,43.1l2.1,2.4l0,0L43.3,43.1z M43.3,43.1L43.3,43.1l2.1,2.4l0,0L43.3,43.1z M43.3,43.1
					L43.3,43.1l2.1,2.4l0,0L43.3,43.1z"/>
			</g>
			<g id="Path_12085">
				<path class="st1" d="M43.3,43.1L43.3,43.1l2.1,2.4l0,0L43.3,43.1z M43.3,43.1L43.3,43.1l2.1,2.4l0,0L43.3,43.1z"/>
				<path class="st1" d="M43.3,43.1L43.3,43.1l2.1,2.4l0,0L43.3,43.1z M43.3,43.1L43.3,43.1l2.1,2.4l0,0L43.3,43.1z M43.3,43.1
					L43.3,43.1l2.1,2.4l0,0L43.3,43.1z M43.3,43.1L43.3,43.1l2.1,2.4l0,0L43.3,43.1z"/>
			</g>
		</g>
		<g id="Path_11643" transform="translate(17.843 15.5)">
			<g id="Path_12087">
				<path class="st1" d="M27.7,17.2c0,0.7-0.4,1.3-1,1.3H16.7c-0.6-0.1-1-0.6-1-1.3c-0.1-0.6,0.4-1.2,1-1.3h10.1
					C27.3,15.9,27.7,16.5,27.7,17.2z"/>
			</g>
		</g>
		<g id="Path_11644" transform="translate(17.843 18.12)">
			<g id="Path_12089">
				<path class="st1" d="M27.8,18.7c-0.1,0.5-0.5,0.9-1,1l-0.1,0l-10.2,0c-0.4-0.1-0.7-0.3-0.9-0.7c-0.2-0.3-0.2-0.7-0.1-1.1
					c0.1-0.5,0.5-0.9,1-1l0.1,0l10.1,0c0.4,0.1,0.7,0.4,0.9,0.7C27.9,17.9,27.9,18.3,27.8,18.7z"/>
			</g>
		</g>
	</g>
	<g id="_" transform="translate(1378.54 902)">
		<g id="Group_21711">
			<g id="Path_12090">
				<path class="st1" d="M21.4,23v2.2h2.2V23H21.4z M25.6,15.2c-0.3-0.4-0.7-0.7-1.2-0.9c-0.5-0.2-1.1-0.3-1.7-0.3
					c-0.8,0-1.6,0.2-2.3,0.6v1.7c0.7-0.4,1.4-0.7,2.2-0.7c0.4,0,0.8,0.1,1.1,0.3c0.3,0.2,0.4,0.5,0.4,0.9c0,0.3-0.1,0.6-0.2,0.9
					c-0.2,0.3-0.4,0.6-0.7,0.9c-0.4,0.4-0.7,0.8-0.9,1.3c-0.2,0.5-0.3,1-0.3,1.5v0.6H23l0.1-0.4c0-0.4,0.2-0.7,0.4-1
					c0.3-0.4,0.6-0.8,1-1.1c0.4-0.4,0.8-0.9,1.2-1.4c0.3-0.4,0.4-0.9,0.4-1.4C26,16.1,25.8,15.6,25.6,15.2z"/>
			</g>
		</g>
	</g>
</g>
</svg>
