<?xml version="1.0" encoding="utf-8"?>
<!-- Generator: Adobe Illustrator 24.1.1, SVG Export Plug-In . SVG Version: 6.00 Build 0)  -->
<svg version="1.1" id="Layer_1" xmlns="http://www.w3.org/2000/svg" xmlns:xlink="http://www.w3.org/1999/xlink" x="0px" y="0px"
	 viewBox="0 0 100 100" style="enable-background:new 0 0 100 100;" xml:space="preserve">
<style type="text/css">
	.raiseHand0{fill:#FFFFFF;}
	.raiseHand1{fill:#203061;}
</style>
<g id="raiseHandOut" transform="translate(-1218 -880)">
	<g id="Path_12106">
		<path class="raiseHand0" d="M1268.1,880c27.6,0,49.9,22.3,49.9,49.9s-22.3,49.9-49.9,49.9c-27.6,0-49.9-22.3-49.9-49.9
			S1240.6,880,1268.1,880z"/>
	</g>
	<g id="surface1" transform="translate(1239.5 899.001)">
		<g id="Path_12067">
			<path class="raiseHand1" d="M46,27.4c-1.3-1-3-1.4-4.6-0.8c-0.4,0.1-0.8,0.3-1.2,0.6c-1.2,1-2.4,2.2-3.4,3.4V18c0-1.3-0.5-2.4-1.4-3.3
				c-1.2-1.1-2.8-1.6-4.3-1.2v-0.8c0-1.4-0.6-2.7-1.5-3.6c-0.9-0.9-2.3-1.4-3.5-1.4c-2.5,0.1-4.5,1.9-4.8,4.3
				c-0.4-0.1-0.9-0.2-1.4-0.2c-1.3,0-2.7,0.5-3.6,1.4c-0.9,0.9-1.5,2.1-1.5,3.4v0.8c-2.1-0.4-4.2,0.8-4.9,2.8
				c-0.1,0.4-0.2,0.9-0.2,1.3v19.7c0.1,2.3,0.7,4.6,1.6,6.7c0.8,1.7,2,3.1,3.6,4.1c2.5,1.5,5.4,2.2,8.3,2.2c0.3,0,0.7,0,1,0
				c5.3,0.1,10.3-2.6,13-7.2c0.3-0.5,1.1-1.7,1.9-3c0.8-1.3,1.6-2.5,2.3-3.5l1-1.6c1.1-1.7,2.2-3.3,3.4-4.9c0.4-0.6,0.6-0.7,0.6-0.7
				c0.6-0.7,1-1.5,1.1-2.4C47.7,29.6,47.1,28.2,46,27.4z M44.1,30.6c0,0.2-0.1,0.3-0.2,0.5c-0.1,0.1-0.3,0.3-0.8,1
				c-1.3,1.6-2.5,3.3-3.6,5.1l-1.3,2c-0.6,0.9-1.3,2-2,3.1l-1,1.6c-0.4,0.7-0.8,1.2-1,1.5c-2.1,3.5-5.9,5.6-10.1,5.5
				c-2.6,0.2-5.2-0.4-7.4-1.6c-2.2-1.5-3.4-4.1-3.7-8.1V21.6c0-0.5,0.4-0.8,0.8-0.8s0.8,0.4,0.8,0.8v7.3l0.1,0.5c0,0,0,0.1,0.1,0.2
				c0,0,0,0.1,0.1,0.2l0.4,0.5l0.6,0.3l0.5,0.1l0.5-0.1l0.3-0.1l0.2-0.2L17.2,30l0.3,0.2l0.2-0.2l0.4-0.8c0-0.1,0-0.1,0-0.2l0-12.4
				c0-0.4,0.2-0.7,0.5-1c0.3-0.3,0.7-0.5,1.1-0.5c0.8,0,1.4,0.7,1.4,1.5l0,12.1l0.1,0.5c0,0,0,0.1,0.1,0.2c0,0,0,0.1,0.1,0.2
				l0.3-0.2l-0.2,0.3c0,0,0.1,0.1,0.1,0.1c0,0,0.1,0.1,0.1,0.1c0,0,0.1,0.1,0.1,0.1c0,0,0.1,0.1,0.1,0.1l0.1,0.1c0,0,0.1,0,0.1,0.1
				c0,0,0.1,0,0.1,0.1l0.1,0c0,0,0.1,0,0.1,0c0.1,0,0.2,0,0.3,0l0.5-0.1l0.5-0.2l0.5-0.4l0.3-0.6c0-0.1,0-0.1,0-0.2V12.7
				c0-0.8,0.7-1.5,1.5-1.5c0,0,0,0,0,0c0.4,0,0.8,0.2,1.1,0.4c0.3,0.3,0.5,0.7,0.5,1.2v16.2l0,0.3l0,0.1l0.3,0.6c0,0,0,0.1,0.1,0.1
				l0.1,0.1c0,0,0.1,0.1,0.1,0.1l0.1,0.1c0,0,0.1,0,0.1,0.1c0,0,0.1,0,0.1,0.1l0.1,0c0,0,0.1,0,0.1,0c0.1,0,0.2,0.1,0.4,0.1l0.4,0
				c0.1,0,0.1,0,0.2,0l0.2-0.1c0,0,0.1,0,0.1-0.1l0.4-0.3c0,0,0.1-0.1,0.1-0.1c0,0,0-0.1,0.1-0.1c0,0,0-0.1,0.1-0.1l0.1-0.1l0.1-0.5
				c0-0.1,0-0.2,0-0.2v-11c0.1-0.6,0.6-1,1.1-1c0.3,0,0.6,0.1,0.8,0.3c0.2,0.2,0.4,0.6,0.4,0.9V34c0,0.6,0.2,1.2,0.7,1.6
				c0.4,0.4,1,0.7,1.6,0.7c0.8,0,1.5-0.4,1.9-1.1c1.3-2,2.9-3.7,4.6-5.2c0.1-0.1,0.2-0.1,0.2-0.1c0.5-0.1,1,0,1.4,0.3
				C44,30.1,44.1,30.4,44.1,30.6L44.1,30.6z"/>
		</g>
	</g>
</g>
</svg>
