<?xml version="1.0" encoding="utf-8"?>
<!-- Generator: Adobe Illustrator 24.1.2, SVG Export Plug-In . SVG Version: 6.00 Build 0)  -->
<svg version="1.1" id="Layer_1" xmlns="http://www.w3.org/2000/svg" xmlns:xlink="http://www.w3.org/1999/xlink" x="0px" y="0px"
	 viewBox="0 0 100 100" style="enable-background:new 0 0 100 100;" xml:space="preserve">
<g>
	<path d="M89,0.2H43.2c-5.4,0-9.9,4.4-9.9,9.9v30.3h6.5V10.1c0-1.9,1.5-3.4,3.4-3.4H89c1.9,0,3.4,1.5,3.4,3.4V56
		c0,1.9-1.5,3.4-3.4,3.4H60.3v6.5H89c5.4,0,9.9-4.4,9.9-9.9V10.1C98.9,4.7,94.5,0.2,89,0.2z"/>
</g>
<g>
	<path d="M56.9,33.9H11.1c-5.4,0-9.9,4.4-9.9,9.9v45.9c0,5.4,4.4,9.9,9.9,9.9H57c5.4,0,9.9-4.4,9.9-9.9V43.8
		C66.8,38.4,62.4,33.9,56.9,33.9z M60.3,89.7c0,1.9-1.5,3.4-3.4,3.4H11.1c-1.9,0-3.4-1.5-3.4-3.4V43.8c0-1.9,1.5-3.4,3.4-3.4H57
		c1.9,0,3.4,1.5,3.4,3.4v45.9H60.3z"/>
</g>
</svg>
