<?xml version="1.0" encoding="utf-8"?>
<!-- Generator: Adobe Illustrator 24.1.1, SVG Export Plug-In . SVG Version: 6.00 Build 0)  -->
<svg version="1.1" id="Layer_1" xmlns="http://www.w3.org/2000/svg" xmlns:xlink="http://www.w3.org/1999/xlink" x="0px" y="0px"
	 viewBox="0 0 100 100" style="enable-background:new 0 0 100 100;" xml:space="preserve">
<style type="text/css">
	.shareScreen0{fill:#FFFFFF;}
	.shareScreen1{fill:#203061;}
</style>
<g id="sharescreenOut" transform="translate(-1742 -116)">
	<g id="screenShare" transform="translate(1764.8 139.8)">
		<g id="Ellipse_65">
			<circle class="shareScreen0" cx="27.2" cy="26.2" r="50"/>
		</g>
		<g id="Group_21131" transform="translate(8.614 0.2)">
			<g id="Path_11645">
				<rect x="22" y="29.5" class="shareScreen1" width="0" height="2.9"/>
			</g>
		</g>
		<g id="Group_21132" transform="translate(1.2 7.984)">
			<g id="Path_11646">
				<path class="shareScreen1" d="M39.3,2.1H24.1c-2,0-3.6,1.6-3.6,3.6v7.5h-7c-2,0-3.6,1.6-3.6,3.6V32c0,2,1.6,3.6,3.6,3.6h15.1
					c2,0,3.6-1.6,3.6-3.6v-7.5h6.9c2,0,3.6-1.6,3.6-3.6V5.8C42.9,3.8,41.3,2.1,39.3,2.1z M29.5,31.7L29.5,31.7l0,0.4
					c0,0.2-0.1,0.4-0.2,0.5c-0.1,0.1-0.3,0.2-0.5,0.2H13.6c0,0,0,0,0,0c-0.4,0-0.7-0.3-0.8-0.8V16.9c0-0.2,0.1-0.4,0.2-0.5
					c0.1-0.1,0.3-0.2,0.6-0.2h15.1c0.2,0,0.4,0.1,0.5,0.2c0.1,0.1,0.2,0.3,0.2,0.5V31.7z M40,20.9c0,0.2-0.1,0.4-0.2,0.5
					c-0.1,0.1-0.3,0.2-0.5,0.2h-6.9v-4.8c0-2-1.6-3.6-3.6-3.6h-5.3V5.8c0-0.2,0.1-0.4,0.2-0.5C23.7,5.1,23.9,5,24.1,5h15.1
					c0,0,0,0,0,0c0.2,0,0.4,0.1,0.5,0.2C39.9,5.4,40,5.5,40,5.8V20.9z"/>
			</g>
		</g>
	</g>
</g>
</svg>
