<?xml version="1.0" encoding="utf-8"?>
<!-- Generator: Adobe Illustrator 24.1.2, SVG Export Plug-In . SVG Version: 6.00 Build 0)  -->
<svg version="1.1" id="Layer_1" xmlns="http://www.w3.org/2000/svg" xmlns:xlink="http://www.w3.org/1999/xlink" x="0px" y="0px"
	 viewBox="0 0 100 100" style="enable-background:new 0 0 100 100;" xml:space="preserve">
<style type="text/css">
	.settings0{fill:#203061;stroke:#FFFFFF;stroke-width:0.2;}
</style>
<g id="settings" transform="translate(0.1 0.1)">
	<g id="Group_199" transform="translate(6.609 6.609)">
		<g id="Group_198">
			<path id="Path_11276" class="settings0" d="M43.3,19.7c-13,0-23.6,10.6-23.6,23.6s10.6,23.6,23.6,23.6c2.4,0,4.8-0.4,7.1-1.1
				c2.1-0.7,3.3-3,2.6-5.1c-0.7-2.1-2.9-3.2-5-2.6c-8.1,2.6-16.8-1.9-19.3-10.1c-2.6-8.1,1.9-16.8,10.1-19.3
				C46.8,26,55.5,30.6,58,38.7c0.9,2.9,1,6,0.1,9c-0.6,2.2,0.7,4.4,2.9,5c2.1,0.6,4.3-0.6,4.9-2.7c3.6-12.5-3.5-25.6-16-29.2
				C47.7,20,45.5,19.7,43.3,19.7z"/>
		</g>
	</g>
	<g id="Group_201">
		<g id="Group_200">
			<path id="Path_11277" class="settings0" d="M88.2,36.2h-2c-0.5,0-1-0.3-1.2-0.8l0-0.1c-0.2-0.5-0.1-1.1,0.3-1.4l1.4-1.4
				c4.6-4.6,4.6-12,0-16.6l-2.8-2.8c-4.6-4.6-12-4.6-16.6,0l-1.4,1.4c-0.4,0.4-0.9,0.5-1.4,0.3l-0.1,0c-0.5-0.2-0.8-0.7-0.8-1.2v-2
				c0-6.5-5.2-11.7-11.7-11.7h-3.9c-6.5,0-11.7,5.2-11.7,11.7v2c0,0.5-0.3,1-0.8,1.2l-0.1,0c-0.5,0.2-1,0.1-1.4-0.3l-1.4-1.4
				c-4.6-4.6-12-4.6-16.6,0l-2.8,2.8c-4.6,4.6-4.6,12,0,16.6l1.4,1.4c0.4,0.4,0.5,1,0.3,1.5l0,0.1c-0.2,0.5-0.7,0.8-1.2,0.8h-2
				c-6.5,0-11.7,5.2-11.7,11.7v3.9c0,6.5,5.2,11.7,11.7,11.7h2c0.5,0,1,0.3,1.2,0.8l0,0.1c0.2,0.5,0.1,1.1-0.3,1.4l-1.4,1.4
				c-4.6,4.6-4.6,12,0,16.6l2.8,2.8c4.6,4.6,12,4.6,16.6,0l1.4-1.4c0.4-0.4,0.9-0.5,1.4-0.3l0.1,0c0.5,0.2,0.8,0.7,0.8,1.2v2
				c0,6.5,5.2,11.7,11.7,11.7h3.9c6.5,0,11.7-5.2,11.7-11.7v-2c0-0.5,0.3-1,0.8-1.2l0.1,0c0.5-0.2,1.1-0.1,1.4,0.3l1.4,1.4
				c4.6,4.6,12,4.6,16.6,0l2.8-2.8c4.6-4.6,4.6-12,0-16.6l-1.4-1.4c-0.4-0.4-0.5-0.9-0.3-1.4l0-0.1c0.2-0.5,0.7-0.8,1.2-0.8h2
				c6.5,0,11.7-5.2,11.7-11.7v-3.9C99.9,41.5,94.6,36.2,88.2,36.2z M92.1,51.9c0,2.2-1.8,3.9-3.9,3.9h-2c-3.7,0-7,2.2-8.4,5.7l0,0.1
				c-1.4,3.4-0.7,7.3,1.9,10l1.4,1.4c1.5,1.5,1.5,4,0,5.5l-2.8,2.8c-1.5,1.5-4,1.5-5.5,0l-1.4-1.4c-2.6-2.6-6.6-3.4-10-1.9l-0.1,0
				c-3.4,1.4-5.7,4.7-5.7,8.4v2c0,2.2-1.8,3.9-3.9,3.9H48c-2.2,0-3.9-1.8-3.9-3.9v-2c0-3.7-2.2-7-5.7-8.4l-0.1,0
				c-1.1-0.5-2.3-0.7-3.5-0.7c-2.4,0-4.7,1-6.4,2.7L27,81.1c-1.5,1.5-4,1.5-5.5,0l-2.8-2.8c-1.5-1.5-1.5-4,0-5.5l1.4-1.4
				c2.6-2.6,3.4-6.5,1.9-9.9l0-0.1c-1.4-3.4-4.7-5.7-8.4-5.7h-2c-2.2,0-3.9-1.8-3.9-3.9V48c0-2.2,1.8-3.9,3.9-3.9h2
				c3.7,0,7-2.3,8.4-5.7v0c1.4-3.4,0.7-7.3-1.9-10L18.7,27c-1.5-1.5-1.5-4,0-5.5l2.8-2.8c1.5-1.5,4-1.5,5.5,0l1.4,1.4
				c2.6,2.6,6.6,3.4,10,1.9l0.1,0c3.4-1.4,5.7-4.7,5.7-8.4v-2c0-2.2,1.8-3.9,3.9-3.9h3.9c2.2,0,3.9,1.8,3.9,3.9v2
				c0,3.7,2.2,7,5.7,8.4l0.1,0c3.4,1.4,7.3,0.7,10-1.9l1.4-1.4c1.5-1.5,4-1.5,5.5,0l2.8,2.8c1.5,1.5,1.5,4,0,5.5l-1.4,1.4
				c-2.6,2.6-3.4,6.5-2,10l0,0.1c1.4,3.4,4.7,5.7,8.4,5.7h2c2.2,0,3.9,1.8,3.9,3.9L92.1,51.9z"/>
		</g>
	</g>
</g>
</svg>
