<?xml version="1.0" encoding="utf-8"?>
<!-- Generator: Adobe Illustrator 24.1.1, SVG Export Plug-In . SVG Version: 6.00 Build 0)  -->
<svg version="1.1" id="Capa_1" xmlns="http://www.w3.org/2000/svg" xmlns:xlink="http://www.w3.org/1999/xlink" x="0px" y="0px"
	 viewBox="0 0 100 100" style="enable-background:new 0 0 100 100;" xml:space="preserve">
<g>
	<g>
		<g>
			<circle cx="50.2" cy="50" r="7.6"/>
		</g>
	</g>
	<g>
		<g>
			<path d="M50.2,27.7c-12.3,0-22.3,10-22.3,22.3s10,22.3,22.3,22.3s22.3-10,22.3-22.3S62.5,27.7,50.2,27.7z M50.2,64.5
				c-8,0-14.5-6.5-14.5-14.5s6.5-14.5,14.5-14.5S64.7,42,64.7,50S58.2,64.5,50.2,64.5z"/>
		</g>
	</g>
	<g>
		<g>
			<path d="M97.5,41.5C95.4,38.3,89.5,30.1,80,23c-9.7-7.2-19.7-10.9-29.9-10.9c-10.2,0-20.3,3.7-30,10.9
				C10.6,30.1,4.7,38.2,2.6,41.4c-3.4,5.2-3.4,11.9,0,17.2c2.1,3.2,8,11.3,17.6,18.5c9.7,7.2,19.8,10.9,30,10.9
				c15.7,0,28.3-8.7,36.1-16.1c1.6-1.5,1.7-3.9,0.2-5.5c-1.5-1.6-3.9-1.7-5.5-0.2c-6.8,6.4-17.6,14-30.8,14c-19,0-34.7-16.2-41-25.8
				c-1.7-2.6-1.7-6,0-8.6c6.3-9.6,22-25.8,41-25.8c19,0,34.6,16.2,40.8,25.8c1.7,2.6,1.7,5.9,0,8.5c-1.2,1.8-0.7,4.2,1.1,5.4
				c1.8,1.2,4.2,0.7,5.4-1.1C100.8,53.3,100.8,46.7,97.5,41.5z"/>
		</g>
	</g>
</g>
</svg>
