<svg xmlns="http://www.w3.org/2000/svg" width="51.724" height="55" viewBox="0 0 51.724 55">
  <g id="studentSignup" transform="translate(-15.25 0)">
    <g id="Group_21640" data-name="Group 21640" transform="translate(15.41 -0.001)">
      <g id="Group_21639" data-name="Group 21639" transform="translate(0 0)">
        <path id="Path_12016" data-name="Path 12016" d="M65.091,25.867V9.19a1.559,1.559,0,0,0-.172-.689,1.5,1.5,0,0,0,.172-.509,1.6,1.6,0,0,0-1.169-1.537L41.363.06a1.636,1.636,0,0,0-.884,0L17.919,6.454a1.6,1.6,0,0,0,0,3.075l8.5,2.409v1.892a4.734,4.734,0,0,0,2.593,4.258,28.183,28.183,0,0,0,23.818,0,4.735,4.735,0,0,0,2.593-4.26V11.937l6.445-1.827V25.867a4.79,4.79,0,0,0-3.223,4.5v3.2a1.6,1.6,0,0,0,1.611,1.6H66.7a1.6,1.6,0,0,0,1.611-1.6v-3.2A4.791,4.791,0,0,0,65.091,25.867Z" transform="translate(-16.75 0.001)" fill="#203061"/>
      </g>
    </g>
    <g id="Group_21642" data-name="Group 21642" transform="translate(25.113 20.664)">
      <g id="Group_21641" data-name="Group 21641">
        <path id="Path_12017" data-name="Path 12017" d="M133.649,192.518a30.473,30.473,0,0,1-26.444,0,7.388,7.388,0,0,1-1.066-.734,16.124,16.124,0,0,0,7.811,13.135s2.244,1.06,2.945,1.259l0-.005a12.811,12.811,0,0,0,3.532.551,13.078,13.078,0,0,0,4.324-.815c.737-.262,2.15-.987,2.15-.987a16.124,16.124,0,0,0,7.816-13.138A7.409,7.409,0,0,1,133.649,192.518Z" transform="translate(-106.139 -191.783)" fill="#203061"/>
      </g>
    </g>
    <g id="Group_21644" data-name="Group 21644" transform="translate(35.681 38.427)">
      <g id="Group_21643" data-name="Group 21643" transform="translate(0)">
        <path id="Path_12018" data-name="Path 12018" d="M208.919,357.887a15.856,15.856,0,0,1-3.737-.49L208.919,363l3.716-5.6A15.865,15.865,0,0,1,208.919,357.887Z" transform="translate(-205.182 -357.397)" fill="#203061"/>
      </g>
    </g>
    <g id="Group_21646" data-name="Group 21646" transform="translate(41.241 36.15)">
      <g id="Group_21645" data-name="Group 21645" transform="translate(0)">
        <path id="Path_12019" data-name="Path 12019" d="M262.852,335.1c-.028.019-.06.032-.088.051l-1.344,2.016c0,.074-6.128,9.24-6.169,9.3v7.48h20.778a1.6,1.6,0,0,0,1.6-1.6A17.53,17.53,0,0,0,262.852,335.1Zm3.586,12.456h-3.2a1.6,1.6,0,1,1,0-3.2h3.2a1.6,1.6,0,1,1,0,3.2Z" transform="translate(-255.25 -335.096)" fill="#203061"/>
      </g>
    </g>
    <g id="Group_21648" data-name="Group 21648" transform="translate(15.25 36.135)">
      <g id="Group_21647" data-name="Group 21647" transform="translate(0)">
        <path id="Path_12020" data-name="Path 12020" d="M30.083,335.008c-.026-.017-.055-.029-.081-.047A17.545,17.545,0,0,0,15.25,352.227a1.6,1.6,0,0,0,1.6,1.6H37.626v-7.48C30.383,335.461,31.861,337.683,30.083,335.008Z" transform="translate(-15.25 -334.961)" fill="#203061"/>
      </g>
    </g>
  </g>
</svg>
