<svg xmlns="http://www.w3.org/2000/svg" xmlns:xlink="http://www.w3.org/1999/xlink" width="432" height="432" viewBox="0 0 432 432">
  <defs>
    <clipPath id="clip-path">
      <rect id="empty_state_illustrations-01_2_" data-name="empty state illustrations-01 (2)" width="432" height="432" transform="translate(220.265 473.265)" fill="#f15e55"/>
    </clipPath>
  </defs>
  <g id="No_Internet" data-name="No Internet" transform="translate(-220.265 -473.265)" clip-path="url(#clip-path)">
    <g id="empty_state_No_internet_1" data-name="empty state_No internet 1" transform="translate(221.238 473)">
      <g id="Group_1671" data-name="Group 1671" opacity="0.15">
        <path id="Path_1090" data-name="Path 1090" d="M49.9,352.936c-22.518-13.7-37.192-48.387-28.016-73.1,14.058-37.88,72.391-20.706,108.967-68.523,19.1-24.973,7.627-35.453,34.248-88.324,15.181-30.154,25.127-49.9,43.587-65.48,44.746-37.762,131.385-44.2,186.8.761C438.52,93.191,462.451,158.9,441.409,182.384c-25.489,28.451-100.633-23.279-144.773,14.465C275.4,215,271.809,244.911,270.169,258.525c-5.58,46.422,20.752,59.529,16.35,100.507-3.6,33.424-25.371,64.384-52.925,81.467-41.947,26.014-104.338,24.275-118.305,0-13.668-23.759,24.846-58.958,10.118-76.9C112.444,347.809,79.065,370.689,49.9,352.936Z" transform="translate(-19.108 -26.834)" fill="#bfcadc"/>
      </g>
      <g id="Group_1672" data-name="Group 1672" transform="translate(280.608 339.861)" opacity="0.15">
        <circle id="Ellipse_232" data-name="Ellipse 232" cx="10.181" cy="10.181" r="10.181" transform="translate(1.359 1.359)" fill="#e1e4ea"/>
        <path id="Path_1091" data-name="Path 1091" d="M445.855,552.795a11.54,11.54,0,1,1,11.54-11.54A11.547,11.547,0,0,1,445.855,552.795Zm0-20.362a8.822,8.822,0,1,0,8.822,8.822A8.833,8.833,0,0,0,445.855,532.433Z" transform="translate(-434.315 -529.715)" fill="#2b374f"/>
      </g>
      <g id="Group_1673" data-name="Group 1673" transform="translate(141.474 114.568)">
        <path id="Path_1092" data-name="Path 1092" d="M284.576,362.919l-52.971-52.971a1.673,1.673,0,0,1,0-2.364l97.1-97.1a39.242,39.242,0,0,1,55.335,0h0a39.242,39.242,0,0,1,0,55.335l-97.1,97.1A1.673,1.673,0,0,1,284.576,362.919Z" transform="translate(-229.309 -197.236)" fill="#e1e4ea"/>
        <path id="Path_1093" data-name="Path 1093" d="M284.887,364.34a3.437,3.437,0,0,1-2.464-1.024l-52.962-52.962a3.488,3.488,0,0,1,0-4.927l97.1-97.1a40.943,40.943,0,0,1,57.907,57.9l-97.11,97.1A3.5,3.5,0,0,1,284.887,364.34Zm.1-3.587Zm-52.862-52.862L284.9,360.663l97.01-97.01a37.315,37.315,0,0,0-52.771-52.771Z" transform="translate(-228.443 -196.356)" fill="#9aabb7"/>
      </g>
      <g id="Group_1674" data-name="Group 1674" transform="translate(65.781 244.798)">
        <path id="Path_1094" data-name="Path 1094" d="M210.142,501.524a64.35,64.35,0,0,0-91-91Z" transform="translate(-117.316 -389.903)" fill="#e1e4ea"/>
        <path id="Path_1095" data-name="Path 1095" d="M209.268,502.486a1.805,1.805,0,0,1-1.277-.534l-91.014-91a1.793,1.793,0,0,1,0-2.554,66.163,66.163,0,0,1,93.568,93.568A1.825,1.825,0,0,1,209.268,502.486Zm-88.423-92.8,88.405,88.405a62.538,62.538,0,0,0-88.405-88.405Z" transform="translate(-116.443 -389.054)" fill="#9aabb7"/>
      </g>
      <g id="Group_1675" data-name="Group 1675" transform="translate(154.54 249.699)">
        <circle id="Ellipse_233" data-name="Ellipse 233" cx="8.08" cy="8.08" r="8.08" transform="translate(1.812 1.812)" fill="#d0d8e5"/>
        <path id="Path_1096" data-name="Path 1096" d="M257.667,416.078a9.882,9.882,0,1,1,6.993-2.889h0A9.846,9.846,0,0,1,257.667,416.078Zm0-16.141a6.268,6.268,0,1,0,4.429,1.839A6.214,6.214,0,0,0,257.667,399.937Zm5.716,11.975Z" transform="translate(-247.776 -396.305)" fill="#9aabb7"/>
      </g>
      <g id="Group_1676" data-name="Group 1676" transform="translate(82.778 42.757)">
        <rect id="Rectangle_2012" data-name="Rectangle 2012" width="128.703" height="51.14" transform="translate(37.965 1.812) rotate(45)" fill="#e1e4ea"/>
        <path id="Path_1097" data-name="Path 1097" d="M234.414,220.892a1.805,1.805,0,0,1-1.277-.534l-91.014-91a1.815,1.815,0,0,1,0-2.563L178.282,90.63a1.815,1.815,0,0,1,2.563,0l91,91a1.815,1.815,0,0,1,0,2.563l-36.159,36.159A1.768,1.768,0,0,1,234.414,220.892Zm-88.451-92.816L234.4,216.517l33.6-33.6L179.559,94.479Z" transform="translate(-141.593 -90.1)" fill="#9aabb7"/>
      </g>
      <g id="Group_1677" data-name="Group 1677" transform="translate(100.858 60.837)">
        <line id="Line_85" data-name="Line 85" x2="91.014" y2="91.005" transform="translate(1.807 1.816)" fill="#e1e4ea"/>
        <path id="Path_1098" data-name="Path 1098" d="M261.166,211.484a1.805,1.805,0,0,1-1.277-.534l-91.014-91a1.813,1.813,0,0,1,2.563-2.563l91,91a1.815,1.815,0,0,1,0,2.563A1.768,1.768,0,0,1,261.166,211.484Z" transform="translate(-168.345 -116.852)" fill="#9aabb7"/>
      </g>
      <g id="Group_1678" data-name="Group 1678" transform="translate(128.285 88.264)">
        <line id="Line_86" data-name="Line 86" x1="36.159" y2="36.168" transform="translate(1.807 1.807)" fill="#e1e4ea"/>
        <path id="Path_1099" data-name="Path 1099" d="M210.735,197.222a1.816,1.816,0,0,1-1.277-3.1l36.159-36.159a1.813,1.813,0,1,1,2.563,2.563l-36.159,36.159A1.842,1.842,0,0,1,210.735,197.222Z" transform="translate(-208.928 -157.435)" fill="#9aabb7"/>
      </g>
      <g id="Group_1679" data-name="Group 1679" transform="translate(113.403 73.382)">
        <line id="Line_87" data-name="Line 87" x1="36.159" y2="36.159" transform="translate(1.807 1.816)" fill="#e1e4ea"/>
        <path id="Path_1100" data-name="Path 1100" d="M188.715,175.2a1.816,1.816,0,0,1-1.277-3.1L223.6,135.944a1.813,1.813,0,1,1,2.563,2.563L190,174.667A1.826,1.826,0,0,1,188.715,175.2Z" transform="translate(-186.908 -135.414)" fill="#9aabb7"/>
      </g>
      <g id="Group_1680" data-name="Group 1680" transform="translate(97.814 57.784)">
        <line id="Line_88" data-name="Line 88" x1="36.159" y2="36.159" transform="translate(1.807 1.816)" fill="#e1e4ea"/>
        <path id="Path_1101" data-name="Path 1101" d="M165.649,152.122a1.816,1.816,0,0,1-1.277-3.1l36.159-36.159a1.813,1.813,0,0,1,2.563,2.563l-36.159,36.159A1.8,1.8,0,0,1,165.649,152.122Z" transform="translate(-163.841 -112.335)" fill="#9aabb7"/>
      </g>
      <g id="Group_1681" data-name="Group 1681" transform="translate(159.291 119.26)">
        <line id="Line_89" data-name="Line 89" x1="36.159" y2="36.159" transform="translate(1.807 1.816)" fill="#e1e4ea"/>
        <path id="Path_1102" data-name="Path 1102" d="M256.613,243.086a1.816,1.816,0,0,1-1.277-3.1l36.159-36.159a1.813,1.813,0,0,1,2.563,2.563L257.9,242.552A1.8,1.8,0,0,1,256.613,243.086Z" transform="translate(-254.806 -203.299)" fill="#9aabb7"/>
      </g>
      <g id="Group_1682" data-name="Group 1682" transform="translate(143.693 103.671)">
        <line id="Line_90" data-name="Line 90" x1="36.159" y2="36.159" transform="translate(1.807 1.816)" fill="#e1e4ea"/>
        <path id="Path_1103" data-name="Path 1103" d="M233.533,220.02a1.816,1.816,0,0,1-1.277-3.1l36.159-36.159a1.813,1.813,0,0,1,2.563,2.563l-36.159,36.159A1.826,1.826,0,0,1,233.533,220.02Z" transform="translate(-231.726 -180.233)" fill="#9aabb7"/>
      </g>
      <g id="Group_1683" data-name="Group 1683" transform="translate(251.437 211.445)">
        <path id="Path_1104" data-name="Path 1104" d="M473.1,457.784l-79.266-79.266L430,342.359l79.266,79.266-20.054-7.8q-3.832,8.111-7.672,16.232-6.033,4.851-12.074,9.71Z" transform="translate(-392.023 -340.563)" fill="#e1e4ea"/>
        <path id="Path_1105" data-name="Path 1105" d="M472.233,458.734a1.811,1.811,0,0,1-1.286-.534l-79.266-79.266a1.815,1.815,0,0,1,0-2.563l36.159-36.159a1.867,1.867,0,0,1,2.563,0l79.266,79.266a1.813,1.813,0,0,1-1.938,2.971l-18.478-7.183-6.956,14.7a1.891,1.891,0,0,1-.5.634l-11.214,9.022,3.424,16.938a1.812,1.812,0,0,1-1.775,2.174Zm-76.7-81.077L469.271,451.4l-2.455-12.138a1.806,1.806,0,0,1,.643-1.775l11.748-9.447,7.5-15.851a1.808,1.808,0,0,1,2.292-.915l12.02,4.674-71.893-71.893Z" transform="translate(-391.151 -339.702)" fill="#9aabb7"/>
      </g>
      <g id="Group_1684" data-name="Group 1684" transform="translate(269.525 229.504)">
        <line id="Line_91" data-name="Line 91" x2="69.619" y2="69.619" transform="translate(1.807 1.816)" fill="#d0d8e5"/>
        <path id="Path_1106" data-name="Path 1106" d="M489.343,439.67a1.805,1.805,0,0,1-1.277-.534l-69.619-69.619a1.813,1.813,0,1,1,2.563-2.563l69.619,69.619a1.816,1.816,0,0,1-1.286,3.1Z" transform="translate(-417.917 -366.423)" fill="#9aabb7"/>
      </g>
      <g id="Group_1685" data-name="Group 1685" transform="translate(296.953 256.931)">
        <line id="Line_92" data-name="Line 92" x1="36.159" y2="36.168" transform="translate(1.807 1.807)" fill="#d0d8e5"/>
        <path id="Path_1107" data-name="Path 1107" d="M460.307,446.794a1.816,1.816,0,0,1-1.277-3.1l36.159-36.159a1.813,1.813,0,1,1,2.563,2.563l-36.159,36.159A1.842,1.842,0,0,1,460.307,446.794Z" transform="translate(-458.5 -407.007)" fill="#9aabb7"/>
      </g>
      <g id="Group_1686" data-name="Group 1686" transform="translate(282.071 242.049)">
        <line id="Line_93" data-name="Line 93" x1="36.159" y2="36.159" transform="translate(1.807 1.816)" fill="#d0d8e5"/>
        <path id="Path_1108" data-name="Path 1108" d="M438.287,424.773a1.816,1.816,0,0,1-1.277-3.1l36.159-36.159a1.813,1.813,0,0,1,2.563,2.563l-36.159,36.159A1.842,1.842,0,0,1,438.287,424.773Z" transform="translate(-436.479 -384.986)" fill="#9aabb7"/>
      </g>
      <g id="Group_1687" data-name="Group 1687" transform="translate(266.482 226.452)">
        <line id="Line_94" data-name="Line 94" x1="36.159" y2="36.159" transform="translate(1.807 1.816)" fill="#d0d8e5"/>
        <path id="Path_1109" data-name="Path 1109" d="M415.22,401.694a1.816,1.816,0,0,1-1.277-3.1L450.1,362.437A1.813,1.813,0,1,1,452.666,365l-36.159,36.159A1.8,1.8,0,0,1,415.22,401.694Z" transform="translate(-413.413 -361.907)" fill="#9aabb7"/>
      </g>
      <g id="Group_1688" data-name="Group 1688" transform="translate(312.36 272.339)">
        <line id="Line_95" data-name="Line 95" x1="36.159" y2="36.159" transform="translate(1.807 1.816)" fill="#d0d8e5"/>
        <path id="Path_1110" data-name="Path 1110" d="M483.105,469.592a1.816,1.816,0,0,1-1.277-3.1l36.159-36.159a1.813,1.813,0,0,1,2.563,2.563l-36.159,36.159A1.826,1.826,0,0,1,483.105,469.592Z" transform="translate(-481.298 -429.805)" fill="#9aabb7"/>
      </g>
      <g id="Group_1689" data-name="Group 1689" transform="translate(187.986 147.358)">
        <rect id="Rectangle_2013" data-name="Rectangle 2013" width="15.099" height="11.839" transform="translate(10.176 1.813) rotate(45)" fill="#d0d8e5"/>
        <path id="Path_1111" data-name="Path 1111" d="M309.752,267.551a1.805,1.805,0,0,1-1.277-.534L297.8,256.337a1.815,1.815,0,0,1,0-2.563l8.37-8.37a1.815,1.815,0,0,1,2.563,0l10.679,10.679a1.815,1.815,0,0,1,0,2.563l-8.37,8.37A1.842,1.842,0,0,1,309.752,267.551Zm-8.116-12.491,8.116,8.116,5.815-5.815-8.116-8.116Z" transform="translate(-297.266 -244.874)" fill="#9aabb7"/>
      </g>
      <g id="Group_1690" data-name="Group 1690" transform="translate(254.48 213.852)">
        <rect id="Rectangle_2014" data-name="Rectangle 2014" width="15.099" height="11.839" transform="translate(10.178 1.811) rotate(45)" fill="#d0d8e5"/>
        <path id="Path_1112" data-name="Path 1112" d="M408.141,365.94a1.805,1.805,0,0,1-1.277-.534l-10.679-10.679a1.815,1.815,0,0,1,0-2.563l8.37-8.37a1.815,1.815,0,0,1,2.563,0L417.8,354.473a1.793,1.793,0,0,1,0,2.554l-8.37,8.37A1.813,1.813,0,0,1,408.141,365.94Zm-8.116-12.491,8.116,8.116,5.815-5.815-8.116-8.116Z" transform="translate(-395.655 -343.264)" fill="#9aabb7"/>
      </g>
      <g id="Group_1691" data-name="Group 1691" transform="translate(98.195 309.105)">
        <line id="Line_96" data-name="Line 96" x1="13.098" y2="13.107" transform="translate(1.807 1.816)" fill="#d0d8e5"/>
        <path id="Path_1113" data-name="Path 1113" d="M166.211,500.941a1.816,1.816,0,0,1-1.277-3.1l13.107-13.107A1.813,1.813,0,1,1,180.6,487.3L167.5,500.407A1.842,1.842,0,0,1,166.211,500.941Z" transform="translate(-164.404 -484.207)" fill="#9aabb7"/>
      </g>
      <g id="Group_1692" data-name="Group 1692" transform="translate(294.405 109.312)">
        <circle id="Ellipse_234" data-name="Ellipse 234" cx="8.351" cy="8.351" r="8.351" transform="translate(1.8 1.8)" fill="#d0d8e5"/>
        <path id="Path_1114" data-name="Path 1114" d="M464.882,208.885a10.154,10.154,0,1,1,7.183-2.971A10.106,10.106,0,0,1,464.882,208.885Zm0-16.685a6.485,6.485,0,0,0-4.62,1.911,6.549,6.549,0,1,0,4.62-1.911Z" transform="translate(-454.731 -188.58)" fill="#9aabb7"/>
      </g>
      <g id="Group_1693" data-name="Group 1693" transform="translate(222.262 137.59)">
        <rect id="Rectangle_2015" data-name="Rectangle 2015" width="74.265" height="16.476" transform="translate(11.65) rotate(45)" fill="#fff"/>
      </g>
      <g id="Group_1694" data-name="Group 1694" transform="translate(161.787 203.906)">
        <rect id="Rectangle_2016" data-name="Rectangle 2016" width="74.265" height="8.234" transform="translate(5.822) rotate(45)" fill="#fff"/>
      </g>
      <g id="Group_1695" data-name="Group 1695" transform="translate(80.347 261.159)">
        <rect id="Rectangle_2017" data-name="Rectangle 2017" width="107.381" height="8.234" transform="translate(5.822) rotate(45)" fill="#fff"/>
      </g>
      <g id="Group_1696" data-name="Group 1696" transform="translate(367.672 181.194)" opacity="0.2">
        <circle id="Ellipse_235" data-name="Ellipse 235" cx="5.38" cy="5.38" r="5.38" transform="translate(1.359 1.35)" fill="#e1e4ea"/>
        <path id="Path_1115" data-name="Path 1115" d="M569.881,308.418a6.739,6.739,0,1,1,6.739-6.739A6.75,6.75,0,0,1,569.881,308.418Zm0-10.77a4.022,4.022,0,1,0,4.022,4.022A4.024,4.024,0,0,0,569.881,297.648Z" transform="translate(-563.142 -294.94)" fill="#2b374f"/>
      </g>
      <g id="Group_1706" data-name="Group 1706" transform="translate(7.466 93.35)">
        <g id="Group_1704" data-name="Group 1704" transform="translate(16.227 12.124)">
          <g id="Group_1697" data-name="Group 1697" transform="translate(0 23.297)" opacity="0.15">
            <path id="Path_1116" data-name="Path 1116" d="M55.974,230.61a1.816,1.816,0,0,1-1.277-3.1l9.61-9.61a1.813,1.813,0,0,1,2.563,2.563l-9.61,9.61A1.842,1.842,0,0,1,55.974,230.61Z" transform="translate(-54.167 -217.372)" fill="#2b374f"/>
          </g>
          <g id="Group_1698" data-name="Group 1698" transform="translate(13.967)" opacity="0.15">
            <path id="Path_1117" data-name="Path 1117" d="M76.641,195.975a1.816,1.816,0,0,1-1.277-3.1l9.447-9.447a1.813,1.813,0,1,1,2.563,2.563l-9.447,9.447A1.842,1.842,0,0,1,76.641,195.975Z" transform="translate(-74.834 -182.9)" fill="#2b374f"/>
          </g>
          <g id="Group_1699" data-name="Group 1699" transform="translate(4.801 50.344)" opacity="0.15">
            <path id="Path_1118" data-name="Path 1118" d="M63.078,269.734a1.816,1.816,0,0,1-1.277-3.1l8.714-8.714a1.813,1.813,0,1,1,2.563,2.563L64.364,269.2A1.826,1.826,0,0,1,63.078,269.734Z" transform="translate(-61.271 -257.392)" fill="#2b374f"/>
          </g>
          <g id="Group_1700" data-name="Group 1700" transform="translate(26.594 15.154)" opacity="0.15">
            <path id="Path_1119" data-name="Path 1119" d="M95.324,215.382a1.816,1.816,0,0,1-1.277-3.1l6.431-6.431a1.813,1.813,0,0,1,2.563,2.563l-6.431,6.431A1.842,1.842,0,0,1,95.324,215.382Z" transform="translate(-93.517 -205.323)" fill="#2b374f"/>
          </g>
          <g id="Group_1701" data-name="Group 1701" transform="translate(26.594 29.33)" opacity="0.15">
            <path id="Path_1120" data-name="Path 1120" d="M95.324,236.357a1.816,1.816,0,0,1-1.277-3.1l6.431-6.431a1.813,1.813,0,0,1,2.563,2.563l-6.431,6.431A1.842,1.842,0,0,1,95.324,236.357Z" transform="translate(-93.517 -226.298)" fill="#2b374f"/>
          </g>
          <g id="Group_1702" data-name="Group 1702" transform="translate(51.603 10.507)" opacity="0.15">
            <path id="Path_1121" data-name="Path 1121" d="M132.329,208.506a1.816,1.816,0,0,1-1.277-3.1l6.431-6.431a1.813,1.813,0,0,1,2.563,2.563l-6.431,6.431A1.8,1.8,0,0,1,132.329,208.506Z" transform="translate(-130.522 -198.447)" fill="#2b374f"/>
          </g>
          <g id="Group_1703" data-name="Group 1703" transform="translate(27.491 54.737)" opacity="0.15">
            <path id="Path_1122" data-name="Path 1122" d="M96.651,279.577a1.816,1.816,0,0,1-1.277-3.1l12.056-12.056a1.813,1.813,0,1,1,2.563,2.563L97.938,279.042A1.842,1.842,0,0,1,96.651,279.577Z" transform="translate(-94.844 -263.893)" fill="#2b374f"/>
          </g>
        </g>
        <g id="Group_1705" data-name="Group 1705" opacity="0.15">
          <circle id="Ellipse_236" data-name="Ellipse 236" cx="46.549" cy="46.549" r="46.549" transform="translate(1.812 1.803)" fill="#e1e4ea"/>
          <path id="Path_1123" data-name="Path 1123" d="M78.516,261.681a48.36,48.36,0,1,1,48.36-48.36A48.414,48.414,0,0,1,78.516,261.681Zm0-93.106a44.737,44.737,0,1,0,44.737,44.737A44.786,44.786,0,0,0,78.516,168.575Z" transform="translate(-30.156 -164.961)" fill="#2b374f"/>
        </g>
      </g>
      <g id="Group_1707" data-name="Group 1707" transform="translate(52.276 60.415)" opacity="0.2">
        <circle id="Ellipse_237" data-name="Ellipse 237" cx="5.38" cy="5.38" r="5.38" transform="translate(1.359 1.359)" fill="#e1e4ea"/>
        <path id="Path_1124" data-name="Path 1124" d="M103.2,129.716a6.744,6.744,0,1,1,6.739-6.748A6.751,6.751,0,0,1,103.2,129.716Zm0-10.77a4.026,4.026,0,1,0,4.022,4.022A4.024,4.024,0,0,0,103.2,118.946Z" transform="translate(-96.459 -116.228)" fill="#2b374f"/>
      </g>
      <g id="Group_1708" data-name="Group 1708" transform="translate(371.172 56.768)" opacity="0.15">
        <circle id="Ellipse_238" data-name="Ellipse 238" cx="26.993" cy="26.993" r="26.993" transform="translate(1.373 1.373)" fill="#e1e4ea"/>
        <path id="Path_1125" data-name="Path 1125" d="M596.668,167.531a28.348,28.348,0,1,1,18.976-49.42h0a28.339,28.339,0,0,1-18.976,49.42Zm.045-53.976c-.462,0-.924.009-1.386.036a25.611,25.611,0,1,0,18.5,6.531h0A25.5,25.5,0,0,0,596.713,113.555Z" transform="translate(-568.32 -110.832)" fill="#2b374f"/>
      </g>
      <g id="Group_1709" data-name="Group 1709" transform="translate(188.561 5.86)" opacity="0.15">
        <circle id="Ellipse_239" data-name="Ellipse 239" cx="13.025" cy="13.025" r="13.025" transform="translate(1.359 1.368)" fill="#e1e4ea"/>
        <path id="Path_1126" data-name="Path 1126" d="M312.5,64.272a14.384,14.384,0,1,1,14.384-14.384A14.4,14.4,0,0,1,312.5,64.272Zm0-26.042A11.667,11.667,0,1,0,324.167,49.9,11.682,11.682,0,0,0,312.5,38.23Z" transform="translate(-298.117 -35.504)" fill="#2b374f"/>
      </g>
    </g>
  </g>
</svg>
