<svg xmlns="http://www.w3.org/2000/svg" width="128.265" height="33.176" viewBox="0 0 128.265 33.176">
  <g id="Group_21687" data-name="Group 21687" transform="translate(-86 -74)">
    <g id="Group_21685" data-name="Group 21685" transform="translate(86 74)">
      <g id="Group_21570" data-name="Group 21570" transform="translate(0 0)">
        <g id="Group_21569" data-name="Group 21569">
          <g id="Group_21562" data-name="Group 21562">
            <g id="Group_21561" data-name="Group 21561">
              <g id="Group_21557" data-name="Group 21557">
                <g id="Group_21556" data-name="Group 21556">
                  <g id="Group_21555" data-name="Group 21555">
                    <path id="Path_15722" data-name="Path 15722" d="M11.908,21.961,3.7,12.5,24.221.3ZM5.524,12.727l6.156,7.182L21.029,3.492Z" transform="translate(-3.7 -0.3)" fill="#036"/>
                  </g>
                </g>
              </g>
              <g id="Group_21560" data-name="Group 21560" transform="translate(2.622 11.743)">
                <g id="Group_21559" data-name="Group 21559">
                  <g id="Group_21558" data-name="Group 21558">
                    <path id="Path_15723" data-name="Path 15723" d="M6,32.033,18.541,10.6l7.98,9.577Zm12.769-19.5-9.577,16.3,15.733-9.121Z" transform="translate(-6 -10.6)" fill="#036"/>
                  </g>
                </g>
              </g>
            </g>
          </g>
          <g id="Group_21565" data-name="Group 21565" transform="translate(0.897 11.344)">
            <g id="Group_21564" data-name="Group 21564" transform="translate(0 0)">
              <g id="Group_21563" data-name="Group 21563">
                <rect id="Rectangle_2135" data-name="Rectangle 2135" width="12.085" height="1.14" transform="translate(0 0.342) rotate(-1.622)" fill="#036"/>
              </g>
            </g>
          </g>
          <g id="Group_21568" data-name="Group 21568" transform="translate(10.015 20.521)">
            <g id="Group_21567" data-name="Group 21567" transform="translate(0 0)">
              <g id="Group_21566" data-name="Group 21566" transform="translate(0)">
                <rect id="Rectangle_2136" data-name="Rectangle 2136" width="12.313" height="1.14" transform="matrix(0.999, -0.037, 0.037, 0.999, 0, 0.457)" fill="#036"/>
              </g>
            </g>
          </g>
        </g>
      </g>
    </g>
    <g id="Group_21686" data-name="Group 21686" transform="translate(114.204 84.715)">
      <g id="Group_21572" data-name="Group 21572" transform="translate(0 0)" style="isolation: isolate">
        <path id="Path_15724" data-name="Path 15724" d="M32.926,11.284q-.187-1.463-2.353-1.463t-2.166,1.35a.944.944,0,0,0,.461.852,4.17,4.17,0,0,0,1.152.48q.7.187,1.51.346a7.826,7.826,0,0,1,1.51.45,3.218,3.218,0,0,1,1.155.8,1.993,1.993,0,0,1,.458,1.388,2.394,2.394,0,0,1-1.031,2.092,4.8,4.8,0,0,1-2.794.722,4.467,4.467,0,0,1-2.982-.938A2.873,2.873,0,0,1,26.757,15.2h1.464a1.951,1.951,0,0,0,1.461,1.744,3.26,3.26,0,0,0,.967.15,6.417,6.417,0,0,0,.891-.056,3.539,3.539,0,0,0,.805-.206,1.246,1.246,0,0,0,.9-1.218,1.008,1.008,0,0,0-.461-.891,4.006,4.006,0,0,0-1.153-.506c-.462-.133-.966-.25-1.508-.358a8.017,8.017,0,0,1-1.51-.441,3.212,3.212,0,0,1-1.155-.767A1.9,1.9,0,0,1,27,11.3a2.335,2.335,0,0,1,.928-1.977,4.51,4.51,0,0,1,2.748-.7,4.131,4.131,0,0,1,2.718.825,2.708,2.708,0,0,1,.956,1.839Z" transform="translate(-26.757 -5.415)" fill="#036"/>
        <path id="Path_15725" data-name="Path 15725" d="M35.4,10.2a3.1,3.1,0,0,1,2.85-1.577,3.217,3.217,0,0,1,1.735.5,3.392,3.392,0,0,1,1.247,1.4,3.605,3.605,0,0,1,1.988-1.686,3.433,3.433,0,0,1,1.228-.208,3.3,3.3,0,0,1,1.313.272,3.426,3.426,0,0,1,1.116.778,3.964,3.964,0,0,1,1.05,2.814v5.663H46.522V12.52a2.8,2.8,0,0,0-.658-1.911A2.168,2.168,0,0,0,44.2,9.9a2.452,2.452,0,0,0-1.781.7,2.561,2.561,0,0,0-.749,1.95v5.607H40.258V12.52a2.8,2.8,0,0,0-.655-1.911A2.174,2.174,0,0,0,37.934,9.9a2.451,2.451,0,0,0-1.783.7,2.562,2.562,0,0,0-.75,1.95v5.607H34V8.771H35.4Z" transform="translate(-24.3 -5.415)" fill="#036"/>
        <path id="Path_15726" data-name="Path 15726" d="M53.608,16.646A3.793,3.793,0,0,1,50.251,18.3a4.251,4.251,0,0,1-3.3-1.408,4.964,4.964,0,0,1-1.238-3.43,4.965,4.965,0,0,1,1.238-3.432A4.362,4.362,0,0,1,50.345,8.62a3.721,3.721,0,0,1,3.263,1.669V8.771h1.406v9.376H53.608Zm-3.169.376a2.97,2.97,0,0,0,2.4-1.05,3.75,3.75,0,0,0,.844-2.513,3.748,3.748,0,0,0-.844-2.513,2.967,2.967,0,0,0-2.4-1.051A3.117,3.117,0,0,0,48,10.947a3.646,3.646,0,0,0-.881,2.513A3.648,3.648,0,0,0,48,15.972,3.12,3.12,0,0,0,50.438,17.022Z" transform="translate(-20.323 -5.415)" fill="#036"/>
        <path id="Path_15727" data-name="Path 15727" d="M59.427,8.62v1.408h-.169a3.005,3.005,0,0,0-2.475,1.218,4.4,4.4,0,0,0-.9,2.775v4.127H54.478V8.771h1.405v2.305A3.561,3.561,0,0,1,59.335,8.62Z" transform="translate(-17.348 -5.415)" fill="#036"/>
        <path id="Path_15728" data-name="Path 15728" d="M60.548,18.96V10.82H58.635V9.584h1.913V6.227h1.406V9.584h2.158V10.82H61.954v8.14Z" transform="translate(-15.937 -6.227)" fill="#036"/>
        <path id="Path_15729" data-name="Path 15729" d="M65.753,8.406a1.519,1.519,0,0,0-.478.684,2.537,2.537,0,0,0-.122.8,1.069,1.069,0,0,0,.366.778,2.939,2.939,0,0,0,.966.6,10.062,10.062,0,0,0,1.37.431q.765.187,1.564.384t1.566.45a5.77,5.77,0,0,1,1.369.646,2.608,2.608,0,0,1,1.331,2.308,3.053,3.053,0,0,1-1.3,2.661,6.172,6.172,0,0,1-3.61.92A6.27,6.27,0,0,1,64.8,17.978,3.832,3.832,0,0,1,63.409,15.2h1.463a2.3,2.3,0,0,0,1.238,1.95,5.358,5.358,0,0,0,2.682.583q3.488,0,3.488-2.194a1.361,1.361,0,0,0-.627-1.183,5.648,5.648,0,0,0-1.577-.711q-.946-.283-2.044-.526a12.85,12.85,0,0,1-2.044-.627,4.709,4.709,0,0,1-1.575-1.013,2.3,2.3,0,0,1-.628-1.7,3.052,3.052,0,0,1,1.164-2.474,5.43,5.43,0,0,1,3.505-.956A5.525,5.525,0,0,1,72.11,7.439,3.244,3.244,0,0,1,73.366,9.9H71.924a2.4,2.4,0,0,0-1.989-2.043,5.66,5.66,0,0,0-1.583-.189,5.149,5.149,0,0,0-1.6.216A2.956,2.956,0,0,0,65.753,8.406Z" transform="translate(-14.316 -6.184)" fill="#036"/>
        <path id="Path_15730" data-name="Path 15730" d="M76.811,17.022a2.837,2.837,0,0,0,2.718-1.575h1.538A4.536,4.536,0,0,1,79.52,17.51a4.452,4.452,0,0,1-2.728.788,4.538,4.538,0,0,1-3.45-1.408,4.8,4.8,0,0,1-1.294-3.43,4.88,4.88,0,0,1,1.238-3.432,4.841,4.841,0,0,1,6.826,0,4.88,4.88,0,0,1,1.238,3.432v.561H73.491a3.388,3.388,0,0,0,1.033,2.138A3.164,3.164,0,0,0,76.811,17.022ZM76.7,9.9a3.1,3.1,0,0,0-2.175.808,3.322,3.322,0,0,0-1.014,2.006h6.376A3.328,3.328,0,0,0,78.873,10.7,3.105,3.105,0,0,0,76.7,9.9Z" transform="translate(-11.385 -5.415)" fill="#036"/>
        <path id="Path_15731" data-name="Path 15731" d="M81.685,8.771v1.461A4.693,4.693,0,0,1,82.923,9.09a3.018,3.018,0,0,1,1.669-.47,4.436,4.436,0,0,1,1.613.264,3.277,3.277,0,0,1,1.181.786,4.053,4.053,0,0,1,1.163,3.019v5.458H87.142V12.728a2.86,2.86,0,0,0-.733-2.063,2.492,2.492,0,0,0-1.893-.77,2.8,2.8,0,0,0-2.006.788,2.76,2.76,0,0,0-.825,2.063v5.4H80.279V8.771Z" transform="translate(-8.59 -5.415)" fill="#036"/>
        <path id="Path_15732" data-name="Path 15732" d="M93.881,11.284Q93.7,9.821,91.529,9.821t-2.167,1.35a.944.944,0,0,0,.461.852,4.205,4.205,0,0,0,1.152.48q.7.187,1.51.346a7.8,7.8,0,0,1,1.51.45,3.207,3.207,0,0,1,1.155.8,1.993,1.993,0,0,1,.458,1.388,2.4,2.4,0,0,1-1.03,2.092,4.8,4.8,0,0,1-2.794.722A4.468,4.468,0,0,1,88.8,17.36,2.876,2.876,0,0,1,87.713,15.2h1.463a1.951,1.951,0,0,0,1.461,1.744,3.273,3.273,0,0,0,.967.15,6.417,6.417,0,0,0,.891-.056,3.568,3.568,0,0,0,.806-.206,1.245,1.245,0,0,0,.9-1.218,1.01,1.01,0,0,0-.459-.891,4.039,4.039,0,0,0-1.153-.506c-.463-.133-.966-.25-1.51-.358a8.018,8.018,0,0,1-1.51-.441,3.224,3.224,0,0,1-1.155-.767,1.9,1.9,0,0,1-.458-1.351,2.335,2.335,0,0,1,.928-1.977,4.505,4.505,0,0,1,2.747-.7,4.137,4.137,0,0,1,2.719.825,2.719,2.719,0,0,1,.956,1.839Z" transform="translate(-6.067 -5.415)" fill="#036"/>
        <path id="Path_15733" data-name="Path 15733" d="M99.28,17.022A2.839,2.839,0,0,0,102,15.447h1.538a4.536,4.536,0,0,1-1.547,2.063,4.455,4.455,0,0,1-2.728.788A4.542,4.542,0,0,1,95.81,16.89a4.8,4.8,0,0,1-1.293-3.43,4.885,4.885,0,0,1,1.236-3.432,4.842,4.842,0,0,1,6.827,0,4.886,4.886,0,0,1,1.238,3.432v.561H95.961a3.393,3.393,0,0,0,1.031,2.138A3.169,3.169,0,0,0,99.28,17.022ZM99.167,9.9a3.107,3.107,0,0,0-2.175.808,3.336,3.336,0,0,0-1.014,2.006h6.377a3.336,3.336,0,0,0-1.014-2.006A3.1,3.1,0,0,0,99.167,9.9Z" transform="translate(-3.758 -5.415)" fill="#036"/>
      </g>
    </g>
  </g>
</svg>
