<?xml version="1.0" encoding="utf-8"?>
<!-- Generator: Adobe Illustrator 24.1.0, SVG Export Plug-In . SVG Version: 6.00 Build 0)  -->
<svg version="1.1" id="Layer_1" xmlns="http://www.w3.org/2000/svg" xmlns:xlink="http://www.w3.org/1999/xlink" x="0px" y="0px"
	 viewBox="0 0 100 100" style="enable-background:new 0 0 100 100;" xml:space="preserve">
<style type="text/css">
	.sortingSt0{fill:#203061;}
</style>
<g id="sorting" transform="translate(-41.46)">
	<g id="Group_86" transform="translate(41.46)">
		<path id="Path_57" class="sortingSt0" d="M90,54.6l-3.3-3.3c-1-1-2.4-1.6-3.9-1.6c-1.5,0-2.9,0.6-4,1.6l-21.2,21V5.5
			c0.1-2.9-2.1-5.4-5.1-5.5c-0.1,0-0.1,0-0.2,0h-4.6c-3.1,0-5.6,2.4-5.8,5.5v67.1L20.9,51.3c-1-1-2.4-1.6-3.8-1.6
			c-1.4,0-2.8,0.6-3.8,1.6L10,54.6c-2.1,2.1-2.1,5.6,0,7.7l36.1,36.1c1,1,2.4,1.6,3.9,1.6l0,0c1.5,0,2.8-0.6,3.9-1.6L90,62.3
			C92.1,60.2,92.1,56.7,90,54.6z"/>
	</g>
</g>
</svg>
