<?xml version="1.0" encoding="utf-8"?>
<!-- Generator: Adobe Illustrator 24.1.2, SVG Export Plug-In . SVG Version: 6.00 Build 0)  -->
<svg version="1.1" id="Layer_1" xmlns="http://www.w3.org/2000/svg" xmlns:xlink="http://www.w3.org/1999/xlink" x="0px" y="0px"
	 viewBox="0 0 100 100" style="enable-background:new 0 0 100 100;" xml:space="preserve">
<g id="student" transform="translate(0.1 0.094)">
	<g id="Group_21650" transform="translate(0 0.006)">
		<g id="Path_12025">
			<path d="M94.2,52.9V44c0-1.8-1.5-3.3-3.3-3.3c-5.6,0-11.2,0.5-16.8,1.5c-2.9-2.8-6.4-4.8-10.2-6c8.2-7.4,9.2-20.2,1.9-28.7
				C62.3,3.1,57.3,0.5,51.7,0c-5.5-0.5-10.9,1.2-15.2,4.8c-4.3,3.6-6.9,8.6-7.4,14.1c-0.5,5.5,1.2,10.9,4.8,15.2
				c0.6,0.7,1.3,1.4,1.9,2c-3.8,1.3-7.3,3.3-10.2,6c-5.4-1-10.8-1.5-16.2-1.5H9c-1.9,0-3.4,1.5-3.4,3.3v8.9
				c-3.5,1.4-5.8,4.7-5.8,8.5v5.8c0,3.7,2.3,7.2,5.8,8.5v8.9c0,1.8,1.5,3.3,3.4,3.3h1.8C24.1,88.1,37,92,48,99.4
				c0.5,0.4,1.2,0.5,1.8,0.5c0.6,0,1.3-0.2,1.8-0.5C62.8,92,75.7,88.1,89,88.1h1.8c1.8,0,3.3-1.5,3.3-3.3v-8.9
				c3.5-1.4,5.8-4.8,5.8-8.5v-5.8C100,57.7,97.6,54.3,94.2,52.9z M93.3,61.5v5.8c0,0.6-0.3,1.3-0.8,1.7c-0.5,0.5-1.1,0.7-1.7,0.7
				h-0.1c-1.3,0-2.3-1.1-2.3-2.3v-5.8c0-1.3,1.2-2.3,2.5-2.3c0,0,0,0,0.1,0C92.2,59.2,93.2,60.2,93.3,61.5z M35.8,20.7
				c0-7.8,6.3-14.1,14.1-14.1C57.7,6.6,64,13,64,20.7c0,7.8-6.3,14.1-14.1,14.1C42.2,34.8,35.9,28.4,35.8,20.7z M11.5,67.3
				c0,1.4-1.1,2.4-2.5,2.4c-1.4,0-2.4-1.1-2.4-2.4v-5.8c0-1.3,1.1-2.3,2.4-2.3h0.1c1.3,0,2.3,1.1,2.3,2.3V67.3z M46.6,90.6
				c-10.5-5.8-22.3-8.9-34.2-9.2v-5.6c3.5-1.4,5.8-4.7,5.8-8.5v-5.8c0-3.8-2.3-7.2-5.8-8.5v-5.5c12.1,0.1,23.9,3.6,34.2,10V90.6z
				 M49.9,51.6c-5-3.1-10.3-5.6-15.8-7.4c3-1.8,6.5-2.7,10-2.7h11.6c3.5,0,7,0.9,10,2.7C60.2,46,54.9,48.5,49.9,51.6z M87.4,81.4
				c-11.9,0.2-23.7,3.4-34.2,9.2V57.4c10.3-6.5,22.1-9.9,34.2-10v5.5c-3.5,1.4-5.8,4.7-5.8,8.5v5.8c0,3.7,2.3,7.2,5.8,8.5V81.4z"/>
		</g>
	</g>
</g>
</svg>
