<svg xmlns="http://www.w3.org/2000/svg" width="16.384" height="12.561" viewBox="0 0 16.384 12.561">
    <defs>
        <style>
        </style>
    </defs>
    <g id="prefix__Student-School-Education-Avatar-University" transform="translate(-2 -9)">
        <path id="prefix__Path_12091" d="M28 26h.546v.546H28z" class="prefix__cls-1--students" data-name="Path 12091" transform="translate(-18.9 -12.358)"/>
        <path id="prefix__Path_12092" d="M34 26h.546v.546H34z" class="prefix__cls-1--students" data-name="Path 12092" transform="translate(-23.262 -12.358)"/>
        <path id="prefix__Path_12093" d="M11 21h.546v.546H11z" class="prefix__cls-1--students" data-name="Path 12093" transform="translate(-6.542 -8.723)"/>
        <path id="prefix__Path_12094" d="M17 21h.546v.546H17z" class="prefix__cls-1--students" data-name="Path 12094" transform="translate(-10.904 -8.723)"/>
        <path id="prefix__Path_12095" d="M45 21h.546v.546H45z" class="prefix__cls-1--students" data-name="Path 12095" transform="translate(-31.258 -8.723)"/>
        <path id="prefix__Path_12096" d="M51 21h.546v.546H51z" class="prefix__cls-1--students" data-name="Path 12096" transform="translate(-35.62 -8.723)"/>
        <path id="prefix__Path_12097" d="M17.25 15.966l-1.324-.59v-.664a2.2 2.2 0 0 0 1.021-1.343h.071a.819.819 0 0 0 0-1.638v-.546a2.184 2.184 0 0 0-4.369 0v.546a.8.8 0 0 0-.4.106 2.18 2.18 0 0 0-4.123 0 .8.8 0 0 0-.4-.106v-.546a2.184 2.184 0 1 0-4.369 0v.546a.819.819 0 1 0 0 1.638h.076a2.177 2.177 0 0 0 .563 1 2.142 2.142 0 0 0 .453.336v.672l-1.324.59A1.911 1.911 0 0 0 2 17.711V20.2a.273.273 0 0 0 .273.273H6.1v-.546H2.546v-2.216a1.365 1.365 0 0 1 .811-1.248l.573-.254.6.625a.265.265 0 0 0 .194.085.282.282 0 0 0 .194-.079l.625-.628.625.628a.282.282 0 0 0 .194.079.265.265 0 0 0 .194-.085l.6-.625.573.254a1.37 1.37 0 0 1 .483.36l.415-.355a1.909 1.909 0 0 0-.674-.5l-1.324-.59v-.668a2.165 2.165 0 0 0 .6-.511.815.815 0 0 0 .765.535h.076a2.177 2.177 0 0 0 .563 1 2.142 2.142 0 0 0 .453.336v.672l-1.324.59a1.911 1.911 0 0 0-1.133 1.745v2.212a.273.273 0 0 0 .273.273h6.553a.273.273 0 0 0 .273-.273v-2.213a1.911 1.911 0 0 0-1.133-1.745l-1.324-.59v-.666a2.165 2.165 0 0 0 1.021-1.341h.071a.822.822 0 0 0 .765-.532 2.2 2.2 0 0 0 .6.511v.664l-1.324.59a1.909 1.909 0 0 0-.674.5l.415.355a1.37 1.37 0 0 1 .483-.36l.573-.254.6.625a.265.265 0 0 0 .194.085.282.282 0 0 0 .194-.079l.625-.628.625.628a.282.282 0 0 0 .194.079.265.265 0 0 0 .194-.085l.6-.625.573.254a1.365 1.365 0 0 1 .811 1.248v2.212h-3.55v.546h3.849a.273.273 0 0 0 .273-.273v-2.484a1.911 1.911 0 0 0-1.133-1.745zm-.232-3.689a.259.259 0 0 1 .194.085.253.253 0 0 1 .079.188.273.273 0 0 1-.273.273zm-13.653.546a.273.273 0 0 1-.273-.273.259.259 0 0 1 .085-.194.253.253 0 0 1 .188-.079zm1.368 3.432l-.273-.284.265-.115.275.137zm1.367-.871l-.339.169h-.419L5 15.384v-.448a2.136 2.136 0 0 0 1.092 0zm.27.871l-.27-.262.273-.137.265.115zm.822-3.432a1.258 1.258 0 0 1-.019.235A1.634 1.634 0 0 1 4.845 14.3a1.571 1.571 0 0 1-.453-.319 1.622 1.622 0 0 1-.464-.934 1.318 1.318 0 0 1-.016-.224V12h1.365a1.369 1.369 0 0 0 1.073-.522 1.094 1.094 0 0 0 .838.522zm0-1.373a.549.549 0 0 1-.437-.4l-.117-.472a.27.27 0 0 0-.3-.2.273.273 0 0 0-.24.27.822.822 0 0 1-.819.819H3.911v-.273a1.638 1.638 0 1 1 3.277 0zm.819 2.739a.273.273 0 0 1-.273-.273.259.259 0 0 1 .085-.194.253.253 0 0 1 .188-.079zm-.273-1.365v-.546a.259.259 0 0 1 .194.085.253.253 0 0 1 .079.188.273.273 0 0 1-.277.272zm4.077 4.751l.573.254a1.365 1.365 0 0 1 .811 1.248v1.939H7.188v-1.94A1.365 1.365 0 0 1 8 17.828l.573-.254.6.625a.265.265 0 0 0 .194.085.282.282 0 0 0 .194-.079l.625-.628.625.628a.282.282 0 0 0 .194.079.265.265 0 0 0 .194-.085zM9.1 17.336l.265-.115.273.137-.265.262zm.543-.587V16.3a2.136 2.136 0 0 0 1.092 0v.448l-.339.169h-.412zm1.1.609l.273-.137.265.115-.273.284zm1.087-3.17a1.259 1.259 0 0 1-.019.235 1.634 1.634 0 0 1-2.324 1.242 1.571 1.571 0 0 1-.453-.319 1.622 1.622 0 0 1-.464-.934 1.318 1.318 0 0 1-.016-.224v-.819h1.365a1.369 1.369 0 0 0 1.073-.522 1.09 1.09 0 0 0 .838.516zm0-1.373a.549.549 0 0 1-.437-.4l-.117-.472a.269.269 0 0 0-.3-.2.273.273 0 0 0-.24.27.822.822 0 0 1-.819.819H8.553v-.282a1.638 1.638 0 0 1 3.277 0zm.546 1.373v-.546a.259.259 0 0 1 .194.085.253.253 0 0 1 .079.188.273.273 0 0 1-.273.273zm.273-1.365a.273.273 0 0 1-.273-.273.259.259 0 0 1 .085-.194.253.253 0 0 1 .188-.079zm.546-1.638a1.638 1.638 0 0 1 3.277 0v.265a.549.549 0 0 1-.437-.4l-.117-.472a.269.269 0 0 0-.3-.2.273.273 0 0 0-.24.27.822.822 0 0 1-.819.819H13.2zm0 1.638V12h1.365a1.369 1.369 0 0 0 1.073-.522 1.09 1.09 0 0 0 .838.516v.825a1.638 1.638 0 1 1-3.277 0zm.822 3.432l-.273-.284.265-.115.273.137zm1.363-.871l-.339.169h-.415l-.339-.169v-.448a2.136 2.136 0 0 0 1.092 0zm.27.871l-.265-.262.273-.137.265.115z" class="prefix__cls-1--students" data-name="Path 12097"/>
    </g>
</svg>
