<?xml version="1.0" encoding="utf-8"?>
<!-- Generator: Adobe Illustrator 24.1.0, SVG Export Plug-In . SVG Version: 6.00 Build 0)  -->
<svg version="1.1" id="systemSettings" xmlns="http://www.w3.org/2000/svg" xmlns:xlink="http://www.w3.org/1999/xlink" x="0px"
	 y="0px" viewBox="0 0 100 100" style="enable-background:new 0 0 100 100;" xml:space="preserve">
<style type="text/css">
</style>
<g id="Group_101" transform="translate(5.782 5.782)">
	<g id="Group_100">
		<path id="Path_63" class="systemSettingSt0" d="M44.2,21.6c-12.5,0-22.6,10.2-22.6,22.7c0,12.5,10.2,22.6,22.7,22.6c2.3,0,4.6-0.4,6.8-1
			c2.1-0.7,3.2-2.8,2.5-4.9c-0.7-2.1-2.8-3.2-4.9-2.5l0,0c-7.8,2.5-16.1-1.9-18.6-9.7c-2.5-7.8,1.9-16.1,9.7-18.6
			c7.8-2.5,16.1,1.9,18.6,9.7c0.9,2.8,0.9,5.8,0.1,8.6c-0.6,2.1,0.6,4.2,2.7,4.8c2.1,0.6,4.2-0.6,4.8-2.7l0,0
			c3.5-12-3.4-24.6-15.4-28.1C48.5,21.9,46.4,21.6,44.2,21.6L44.2,21.6z"/>
	</g>
</g>
<g id="Group_103">
	<g id="Group_102">
		<path id="Path_64" class="systemSettingSt0" d="M88.3,36.3h-2c-0.5,0-1-0.3-1.2-0.8l0-0.1c-0.2-0.5-0.1-1,0.3-1.4l1.4-1.4
			c4.6-4.6,4.6-12,0-16.6L84,13.2c-4.6-4.6-12-4.6-16.6,0L66,14.6c-0.4,0.4-0.9,0.5-1.4,0.3l-0.1,0c-0.5-0.2-0.8-0.7-0.8-1.2v-1.9
			C63.7,5.2,58.4,0,52,0c0,0,0,0,0,0H48c-6.5,0-11.7,5.2-11.7,11.7v2c0,0.5-0.3,1-0.8,1.2l-0.1,0c-0.5,0.2-1,0.1-1.4-0.3l-1.4-1.4
			c-4.6-4.6-12-4.6-16.6,0L13.2,16c-4.6,4.6-4.6,12,0,16.6l1.4,1.4c0.4,0.4,0.5,1,0.3,1.5v0.1c-0.2,0.5-0.7,0.8-1.2,0.8h-2
			C5.2,36.3,0,41.6,0,48V52c0,6.5,5.2,11.7,11.7,11.7h2c0.5,0,1,0.3,1.2,0.8l0,0.1c0.2,0.5,0.1,1-0.3,1.4l-1.4,1.4
			c-4.6,4.6-4.6,12,0,16.6l2.8,2.8c4.6,4.6,12,4.6,16.6,0l1.4-1.4c0.4-0.4,0.9-0.5,1.4-0.3l0.1,0.1c0.5,0.2,0.8,0.7,0.8,1.2v2
			c0,6.5,5.2,11.7,11.7,11.7H52c6.5,0,11.7-5.2,11.7-11.7v-2c0-0.5,0.3-1,0.8-1.2l0.1,0c0.5-0.2,1-0.1,1.4,0.3l1.4,1.4
			c4.6,4.6,12,4.6,16.6,0l2.8-2.8c4.6-4.6,4.6-12,0-16.6L85.3,66c-0.4-0.4-0.5-0.9-0.3-1.4l0.1-0.1c0.2-0.5,0.7-0.8,1.2-0.8h2
			c6.5,0,11.7-5.2,11.7-11.7V48C100,41.6,94.8,36.3,88.3,36.3z M92.2,51.9c0,2.2-1.7,3.9-3.9,3.9h-2c-3.7,0-7,2.2-8.4,5.7l0,0.1
			c-1.4,3.4-0.7,7.3,1.9,9.9l1.4,1.4c1.5,1.5,1.5,4,0,5.5l-2.8,2.8c-1.5,1.5-4,1.5-5.5,0l-1.4-1.4c-2.6-2.6-6.6-3.4-10-1.9h-0.1
			c-3.4,1.4-5.7,4.7-5.7,8.4v2c0,2.2-1.7,3.9-3.9,3.9H48c-2.2,0-3.9-1.7-3.9-3.9v-2c0-3.7-2.2-7-5.7-8.4h-0.1
			c-1.1-0.5-2.3-0.7-3.5-0.7c-2.4,0-4.7,1-6.4,2.7l-1.4,1.4c-1.5,1.5-4,1.5-5.5,0l-2.8-2.8c-1.5-1.5-1.5-4,0-5.5l1.4-1.4
			c2.6-2.6,3.4-6.5,1.9-9.9l0-0.1c-1.4-3.4-4.7-5.7-8.4-5.7h-1.9c-2.2,0-3.9-1.7-3.9-3.9V48c0-2.2,1.7-3.9,3.9-3.9h2
			c3.7,0,7-2.2,8.4-5.7v0c1.4-3.4,0.7-7.3-1.9-9.9l-1.4-1.4c-1.5-1.5-1.5-4,0-5.5l2.8-2.8c1.5-1.5,4-1.5,5.5,0l1.4,1.4
			c2.6,2.6,6.6,3.4,10,1.9h0.1c3.4-1.4,5.7-4.7,5.7-8.4v-2c0-2.2,1.7-3.9,3.9-3.9H52c2.2,0,3.9,1.7,3.9,3.9v2c0,3.7,2.2,7,5.7,8.4
			h0.1c3.4,1.4,7.3,0.7,10-1.9l1.4-1.4c1.5-1.5,4-1.5,5.5,0l2.8,2.8c1.5,1.5,1.5,4,0,5.5l-1.4,1.4c-2.6,2.6-3.4,6.5-2,9.9l0,0.1
			c1.4,3.4,4.7,5.7,8.4,5.7h2c2.2,0,3.9,1.7,3.9,3.9L92.2,51.9z"/>
	</g>
</g>
</svg>
