<?xml version="1.0" encoding="utf-8"?>
<!-- Generator: Adobe Illustrator 24.1.2, SVG Export Plug-In . SVG Version: 6.00 Build 0)  -->
<svg version="1.1" id="Layer_1" xmlns="http://www.w3.org/2000/svg" xmlns:xlink="http://www.w3.org/1999/xlink" x="0px" y="0px"
	 viewBox="0 0 100 100" style="enable-background:new 0 0 100 100;" xml:space="preserve">
<g id="menu-symbol-of-three-parallel-lines" transform="translate(0 -1.875)">
	<path id="Path_1" d="M0,17.5c0-4.5,3.6-8.1,8.1-8.1h83.8c4.5,0,8.1,3.6,8.1,8.1s-3.6,8.1-8.1,8.1c0,0,0,0,0,0H8.1
		C3.6,25.6,0,22,0,17.5z M91.9,43.8H8.1c-4.5,0-8.1,3.6-8.1,8.1S3.6,60,8.1,60c0,0,0,0,0,0h83.8c4.5,0,8.1-3.6,8.1-8.1
		S96.4,43.8,91.9,43.8C91.9,43.8,91.9,43.8,91.9,43.8z M91.9,78.1H8.1c-4.5,0-8.1,3.6-8.1,8.1c0,4.5,3.6,8.1,8.1,8.1c0,0,0,0,0,0
		h83.8c4.5,0,8.1-3.6,8.1-8.1C100,81.8,96.4,78.1,91.9,78.1C91.9,78.1,91.9,78.1,91.9,78.1z"/>
</g>
</svg>
