<svg id="Layer_1" data-name="Layer 1" xmlns="http://www.w3.org/2000/svg" viewBox="0 0 100 100"><defs><style>.txt-1{fill:#e2e5e7;}.txt-2{fill:#b0b7bd;}.txt-3{fill:#cad1d8;}.txt-4{fill:#576d7e;}.txt-5{fill:#fff;}</style></defs><path class="txt-1" d="M23.53,0a6.27,6.27,0,0,0-6.25,6.25v87.5A6.27,6.27,0,0,0,23.53,100H86a6.27,6.27,0,0,0,6.25-6.25V25l-25-25Z"/><path class="txt-2" d="M73.53,25H92.28l-25-25V18.75A6.27,6.27,0,0,0,73.53,25Z"/><polygon class="txt-3" points="92.28 43.75 73.53 25 92.28 25 92.28 43.75"/><path class="txt-4" d="M79.78,81.25a3.13,3.13,0,0,1-3.12,3.13H7.91a3.14,3.14,0,0,1-3.13-3.13V50a3.13,3.13,0,0,1,3.13-3.12H76.66A3.12,3.12,0,0,1,79.78,50Z"/><path class="txt-5" d="M24.47,60.83H20.09a1.6,1.6,0,1,1,0-3.19H31.91a1.6,1.6,0,1,1,0,3.19H27.76V73.45a1.65,1.65,0,0,1-3.3,0V60.83Z"/><path class="txt-5" d="M42.36,63.71l4.35-5.45c1.3-1.7,3.83.47,2.4,2.1S46,64.06,44.54,66l5.1,6.34a1.65,1.65,0,1,1-2.73,1.83l-4.59-5.9-4.53,6c-1.27,1.82-4.1-.23-2.67-1.93l5-6.37c-1.57-2-3.1-3.9-4.62-5.67a1.62,1.62,0,1,1,2.5-2Z"/><path class="txt-5" d="M56.79,60.83H52.42a1.6,1.6,0,1,1,0-3.19H64.24a1.6,1.6,0,1,1,0,3.19H60.09V73.45a1.65,1.65,0,0,1-3.3,0V60.83Z"/><path class="txt-3" d="M76.66,84.38H17.28V87.5H76.66a3.13,3.13,0,0,0,3.12-3.12V81.25A3.13,3.13,0,0,1,76.66,84.38Z"/></svg>
