<?xml version="1.0" encoding="utf-8"?>
<!-- Generator: Adobe Illustrator 24.1.2, SVG Export Plug-In . SVG Version: 6.00 Build 0)  -->
<svg version="1.1" id="Layer_1" xmlns="http://www.w3.org/2000/svg" xmlns:xlink="http://www.w3.org/1999/xlink" x="0px" y="0px"
	 viewBox="0 0 100 100" style="enable-background:new 0 0 100 100;" xml:space="preserve">
<g id="users" transform="translate(-1.686 -4.942)">
	<g id="batch" transform="translate(2.046 5.349)">
		<g id="Group_39" transform="translate(0 0)">
			<g id="Path_25">
				<path d="M98.8,84.6L95,71.3c-0.1-0.4-0.3-0.7-0.6-1c-2.6-7.5-8.7-13.2-16.6-15.3L77,54.8c-2.3-0.6-4.8,0.2-6.2,2
					c-3.4,3.4-8.2,5.1-12.9,4.4h-0.4c-4.7,0.6-9.6-1-12.8-4.3c-1.6-1.8-3.9-2.6-6.3-2l-1.1,0.3c-5.5,1.5-10.4,4.9-13.6,9.6h-8.7
					l1.9-6.7c1.9-5.8,5.3-7.5,12.6-9.4c0.1,0,0.2,0,0.4-0.1c0.4,0.3,1,0.6,1.5,0.9c0.4,0.2,1,0.3,1.5,0.4c1.3,0,2.5-0.8,3.1-1.9
					c0.9-1.7,0.3-3.7-1.3-4.6c-4.3-3.1-6.7-8-6.5-13.3c0-4.7,3.8-8.5,8.5-8.6c0.3,0,0.6,0,0.9,0c-0.6,2.1-1,4.4-1,6.6
					c0,16.3,10.1,30,22,30c11.8,0,22.1-14,22.1-30c0-5.9-2.3-11.5-6.4-15.6c-4.1-4.2-9.6-6.4-15.5-6.5c0,0,0,0,0,0
					c-7.1,0-13.7,3.3-17.8,9c-1.3-0.3-2.7-0.5-4.1-0.5c-4.8,0-9.2,2.2-12.1,5.9c-1.4-0.6-2.8-0.8-4.3-0.9c-2.8,0-5.5,1-7.5,2.9
					c-2.1,1.9-3.2,4.5-3.3,7.3v0.4c0,2.2,0.4,4.5,1.3,6.6c-4.2,1.3-7.5,4.6-8.7,8.9l-1.4,5.1C-0.1,52.3,0.2,54,1.1,55
					c0.9,1.4,2.4,2.2,3.9,2.1h4.7l-2.1,7.4c-0.6,1.8-0.1,3.7,0.9,4.9c1.1,1.5,2.8,2.4,4.5,2.2h7.3l-3.7,13.1c-1,3.6,1.2,7.4,4.8,8.3
					c0.5,0.1,1.1,0.2,1.7,0.2h69.3c2.1,0,4.1-1,5.3-2.6C99,88.9,99.5,86.6,98.8,84.6z M44.8,21.6c0.1-0.1,0.2-0.3,0.3-0.4
					c0.2-0.3,0.2-0.5,0.3-0.5C48,15.9,52.9,13,58.3,13h0c5.9,0,11.1,3.3,13.5,8.5c-1.8-0.2-3.5-1.1-4.7-2.7c-1-1.3-2.6-1.8-4.2-1.1
					l-0.4,0.1v0L62.3,18c-0.6,0.4-1,0.9-1.2,1.5l-0.2,0.3c-2,4.2-9.1,6.1-17.2,4.8C44,23.6,44.3,22.5,44.8,21.6z M48.4,31.9
					c6,0.5,12-1.7,16.4-5.9c2.3,1.6,5.1,2.5,7.9,2.5c0.3,0,0.5,0,0.8,0c-0.2,12-7.3,22.8-15,22.8c-7.1,0-13.6-8.8-14.8-19.7
					C45.2,31.8,46.8,31.9,48.4,31.9z M92.2,86.3l-69,0l3.7-12.8c1.6-5.6,6.2-10.1,11.8-11.6l0.6-0.1c4.8,4.8,11.6,7.2,17.9,6.5
					c6.7,0.8,13.6-1.6,18.3-6.5l0.7,0.2c5.7,1.5,10.2,6,11.8,11.6l1.8,6c0,0.1,0.2,0.4,0.4,0.6L92.2,86.3z M7.9,50.2l0.7-2.3
					c0.8-2.7,2.1-3.6,6.7-4.8c0,0,0,0,0.1,0c0.3,0.1,0.6,0.3,0.8,0.4c0.5,0.2,1,0.4,1.6,0.4c1.3,0,2.5-0.8,3.1-2
					c0.8-1.6,0.2-3.5-1.2-4.4c-2.2-1.6-3.5-4.2-3.4-7c0-1,0.4-2,1.1-2.7c0.7-0.7,1.6-1.1,2.8-1.1c0.4,0,0.9,0,1.2,0.1
					C21.1,27.9,21,29,21,30.1c0,4.4,1.1,8.8,3.3,12.6c-4.5,1.1-8.6,3.8-11.5,7.5H7.9z"/>
			</g>
		</g>
	</g>
</g>
</svg>
