<?xml version="1.0" encoding="utf-8"?>
<!-- Generator: Adobe Illustrator 24.1.0, SVG Export Plug-In . SVG Version: 6.00 Build 0)  -->
<svg version="1.1" id="Layer_1" xmlns="http://www.w3.org/2000/svg" xmlns:xlink="http://www.w3.org/1999/xlink" x="0px" y="0px"
	 viewBox="0 0 100 100" style="enable-background:new 0 0 100 100;" xml:space="preserve">
<style type="text/css">
	.userPlaceholderSt0{fill:#E8EBF3;}
	.userPlaceholderSt1{fill:#203061;}
</style>
<g id="userPlaceholder" transform="translate(-362 -281)">
	<path id="Rectangle_18" class="userPlaceholderSt0" d="M412,281L412,281c27.6,0,50,22.4,50,50l0,0c0,27.6-22.4,50-50,50l0,0c-27.6,0-50-22.4-50-50
		l0,0C362,303.4,384.4,281,412,281z"/>
	<g id="user" transform="translate(373 290)">
		<path id="Path_11227" class="userPlaceholderSt1" d="M39.5,39.7c3.2,0,6.4-1.3,8.6-3.6c2.3-2.3,3.6-5.4,3.6-8.6c0-3.2-1.2-6.4-3.6-8.6
			c-4.8-4.8-12.5-4.8-17.2,0c0,0,0,0,0,0c-2.3,2.3-3.6,5.4-3.6,8.6c0,3.2,1.2,6.4,3.6,8.6C33.2,38.5,36.3,39.8,39.5,39.7z M33,21
			c3.6-3.6,9.4-3.6,13,0c0,0,0,0,0,0c1.8,1.7,2.8,4.1,2.7,6.5c0,2.5-0.9,4.8-2.7,6.5c-3.6,3.6-9.4,3.6-13,0c0,0,0,0,0,0
			c-1.8-1.7-2.8-4.1-2.7-6.5C30.3,25.1,31.2,22.7,33,21z"/>
		<path id="Path_11228" class="userPlaceholderSt1" d="M60.9,54.3c-0.1-1.1-0.2-2.1-0.4-3.2c-0.2-1.1-0.5-2.2-0.8-3.2c-0.3-1-0.8-2-1.3-3
			c-0.5-1-1.2-1.8-2-2.6c-0.8-0.8-1.8-1.4-2.9-1.8c-1.2-0.4-2.4-0.7-3.7-0.7c-0.7,0.1-1.4,0.4-2,0.8c-0.6,0.4-1.3,0.8-2.1,1.3
			c-0.8,0.5-1.7,0.9-2.7,1.2c-2.1,0.7-4.4,0.7-6.5,0c-0.9-0.3-1.8-0.7-2.7-1.2c-0.8-0.5-1.5-0.9-2.1-1.3c-0.6-0.5-1.3-0.8-2-0.8
			c-1.2,0-2.5,0.2-3.7,0.7c-1.1,0.4-2,1-2.9,1.8c-0.8,0.8-1.5,1.6-2,2.6c-0.5,1-1,2-1.3,3c-0.3,1.1-0.6,2.1-0.8,3.2
			c-0.2,1.1-0.3,2.1-0.4,3.2c-0.1,1-0.1,2-0.1,3c-0.1,2.4,0.8,4.7,2.5,6.4c1.8,1.6,4.1,2.4,6.4,2.3H52c2.4,0.1,4.7-0.7,6.4-2.3
			c1.7-1.7,2.6-4,2.5-6.4C61,56.2,60.9,55.2,60.9,54.3L60.9,54.3z M56.4,61.5c-1.2,1.1-2.8,1.6-4.4,1.5H27.7
			c-1.6,0.1-3.2-0.5-4.4-1.5c-1.1-1.1-1.7-2.6-1.6-4.2c0-0.9,0-1.9,0.1-2.8c0.1-1,0.2-1.9,0.4-2.9c0.2-1,0.4-1.9,0.7-2.8
			c0.3-0.8,0.6-1.7,1.1-2.4c0.4-0.7,0.9-1.4,1.5-1.9c0.6-0.5,1.2-0.9,1.9-1.2c0.7-0.3,1.5-0.4,2.3-0.5c0.1,0.1,0.3,0.2,0.6,0.4
			c0.6,0.4,1.3,0.9,2.1,1.4c1.1,0.6,2.2,1.1,3.4,1.5c2.7,0.9,5.6,0.9,8.4,0c1.2-0.4,2.3-0.9,3.4-1.5c0.8-0.5,1.5-0.9,2.1-1.4
			c0.3-0.2,0.5-0.3,0.6-0.4c0.8,0,1.6,0.2,2.3,0.5c0.7,0.3,1.4,0.7,1.9,1.2c0.6,0.6,1.1,1.2,1.5,1.9c0.4,0.8,0.8,1.6,1.1,2.4
			c0.3,0.9,0.5,1.9,0.7,2.8c0.2,1,0.3,1.9,0.4,2.9l0,0c0.1,0.9,0.1,1.8,0.1,2.8C58.1,58.8,57.5,60.4,56.4,61.5L56.4,61.5z"/>
	</g>
</g>
</svg>
