<?xml version="1.0" encoding="utf-8"?>
<!-- Generator: Adobe Illustrator 24.1.2, SVG Export Plug-In . SVG Version: 6.00 Build 0)  -->
<svg version="1.1" id="Layer_1" xmlns="http://www.w3.org/2000/svg" xmlns:xlink="http://www.w3.org/1999/xlink" x="0px" y="0px"
	 viewBox="0 0 100 100" style="enable-background:new 0 0 100 100;" xml:space="preserve">
<g id="group" transform="translate(0.15 -43.579)">
	<g id="Group_21797" transform="translate(0 51.719)">
		<g id="Group_21796">
			<g id="Path_12111">
				<path class="um0" d="M84.7,43.5h-9.6c-1.2,0-2.3,0.1-3.5,0.4c-2.6-4.8-7.7-7.8-13.2-7.8h-17c-5.6,0-10.6,3-13.2,7.8
					c-1.1-0.3-2.3-0.4-3.5-0.4H15c-8.3,0-15.1,6.8-15.1,15.2v15.4c0,5.2,4.2,9.3,9.3,9.3h81.3c5.1,0,9.3-4.2,9.3-9.3V58.7
					C99.8,50.3,93.1,43.6,84.7,43.5z M7,74.1V58.7c0-4.4,3.6-8,8-8h9.7c0.5,0,1,0.1,1.6,0.2c0,0.1,0,0.3,0,0.4l0,25.1h-17
					C8,76.3,7,75.3,7,74.1z M33.3,76.3V51.2c0-4.4,3.6-8,8-8h17c4.4,0,8,3.6,8,8l0,25.1H33.3z M92.7,74.1c0,1.2-1,2.2-2.2,2.2h-17
					V50.8c0.5-0.1,1-0.1,1.6-0.1h9.6c4.4,0,8,3.6,8,8V74.1z"/>
			</g>
		</g>
	</g>
	<g id="Group_21799" transform="translate(1.436 47.286)">
		<g id="Group_21798" transform="translate(0 0)">
			<g id="Path_12112">
				<path class="um0" d="M27.9,24.6c-2.5-2.5-5.8-4-9.6-4c-7.4,0-13.5,6.1-13.5,13.5c0,7.4,6.1,13.5,13.5,13.5
					c7.4,0,13.5-6.1,13.5-13.5C31.9,30.5,30.3,27.1,27.9,24.6z M18.8,40.6h-0.4c-3.5,0-6.4-2.9-6.4-6.4c0-3.5,2.9-6.4,6.4-6.4
					c3.5,0,6.4,2.9,6.4,6.4c0,1.7-0.7,3.3-1.9,4.5C21.8,39.8,20.4,40.5,18.8,40.6z"/>
			</g>
		</g>
	</g>
	<g id="Group_21801" transform="translate(7.174 43.729)">
		<g id="Group_21800">
			<g id="Path_12113">
				<path class="um0" d="M55.3,13.5c-3.2-3.2-7.7-5.2-12.6-5.2c-9.8,0-17.8,8-17.8,17.8c0,9.8,8,17.8,17.8,17.8s17.8-8,17.8-17.8
					C60.5,21.2,58.5,16.8,55.3,13.5z M42.7,36.8C36.8,36.8,32,32,32,26.1c0-5.9,4.8-10.7,10.7-10.7c5.9,0,10.7,4.8,10.7,10.7
					C53.4,32,48.6,36.8,42.7,36.8z"/>
			</g>
		</g>
	</g>
	<g id="Group_21803" transform="translate(14.838 47.286)">
		<g id="Group_21802" transform="translate(0 0)">
			<g id="Path_12114">
				<path class="um0" d="M74.6,24.6c-2.5-2.5-5.8-4-9.6-4c-7.4,0-13.5,6.1-13.5,13.5c0,7.4,6.1,13.5,13.5,13.5
					c7.4,0,13.5-6.1,13.5-13.5C78.6,30.5,77,27.1,74.6,24.6z M65.1,27.8c3.5,0,6.4,2.9,6.4,6.4c0,3.4-2.6,6.1-5.9,6.4h-0.5
					c-3.5,0-6.4-2.9-6.4-6.4C58.7,30.6,61.6,27.8,65.1,27.8z"/>
			</g>
		</g>
	</g>
</g>
</svg>
