<?xml version="1.0" encoding="utf-8"?>
<!-- Generator: Adobe Illustrator 24.1.0, SVG Export Plug-In . SVG Version: 6.00 Build 0)  -->
<svg version="1.1" id="Layer_1" xmlns="http://www.w3.org/2000/svg" xmlns:xlink="http://www.w3.org/1999/xlink" x="0px" y="0px"
	 viewBox="0 0 100 100" style="enable-background:new 0 0 100 100;" xml:space="preserve">
<style type="text/css">
</style>
<g id="user" transform="translate(0 0)">
	<path id="Path_11227" class="" d="M49.4,48.2c6.4,0.1,12.6-2.5,17-7.1c4.6-4.5,7.1-10.6,7.1-17c0.1-6.4-2.5-12.6-7.1-17
		c-9.4-9.4-24.7-9.4-34.1,0c-4.6,4.5-7.1,10.6-7.1,17c-0.1,6.4,2.5,12.6,7.1,17C36.8,45.7,43,48.3,49.4,48.2z M36.5,11.2
		c7.1-7.1,18.7-7.1,25.8,0c0,0,0,0,0,0c3.5,3.4,5.4,8,5.3,12.9c0.1,4.9-1.8,9.5-5.3,12.9c-7.1,7.1-18.6,7.1-25.8,0c0,0,0,0,0,0
		c-3.5-3.4-5.4-8-5.3-12.9C31.1,19.2,33,14.6,36.5,11.2L36.5,11.2z"/>
	<path id="Path_11228" class="" d="M91.5,76.9c-0.2-2.1-0.4-4.2-0.8-6.3c-0.4-2.1-0.9-4.3-1.5-6.4c-0.7-2.1-1.5-4-2.6-5.9
		c-1.1-1.9-2.4-3.6-3.9-5.1c-1.6-1.5-3.5-2.7-5.6-3.6c-2.3-0.9-4.8-1.3-7.2-1.3C68.3,48.5,67,49,65.8,50c-1.2,0.8-2.6,1.7-4.1,2.6
		c-1.7,1-3.4,1.8-5.3,2.3c-4.2,1.4-8.7,1.4-12.9,0c-1.8-0.6-3.6-1.3-5.3-2.3c-1.5-1-2.9-1.9-4.1-2.6c-1.1-0.9-2.5-1.5-3.9-1.7
		c-2.5,0-4.9,0.4-7.2,1.3c-2.1,0.8-4,2-5.6,3.6c-1.6,1.5-2.9,3.2-3.9,5.1c-1.1,1.9-1.9,3.9-2.6,5.9c-0.7,2.1-1.2,4.2-1.5,6.4
		c-0.4,2.1-0.7,4.2-0.8,6.3c-0.1,1.9-0.2,3.9-0.2,5.9c-0.2,4.7,1.6,9.3,4.9,12.5c3.5,3.2,8,4.8,12.7,4.6h48.2
		c4.7,0.2,9.2-1.5,12.7-4.6c3.3-3.3,5.1-7.9,4.9-12.6C91.7,80.8,91.6,78.8,91.5,76.9L91.5,76.9z M82.7,91.1c-2.4,2.1-5.5,3.2-8.7,3
		H25.9c-3.2,0.2-6.3-0.9-8.7-3c-2.2-2.2-3.3-5.2-3.1-8.3c0-1.9,0.1-3.7,0.2-5.5c0.1-1.9,0.4-3.8,0.7-5.7c0.3-1.9,0.8-3.8,1.4-5.6
		c0.5-1.7,1.3-3.3,2.1-4.8c0.8-1.4,1.8-2.7,2.9-3.8c1.1-1,2.4-1.8,3.8-2.3c1.5-0.6,3-0.9,4.6-0.9c0.2,0.1,0.6,0.3,1.2,0.7
		c1.2,0.8,2.6,1.7,4.1,2.7c2.1,1.3,4.3,2.3,6.6,3c5.4,1.8,11.2,1.8,16.5,0c2.3-0.7,4.6-1.7,6.6-3c1.6-1,2.9-1.9,4.1-2.7
		c0.6-0.4,1-0.6,1.2-0.7c1.6,0,3.1,0.3,4.6,0.9c1.4,0.5,2.7,1.3,3.8,2.3c1.1,1.1,2.1,2.4,2.9,3.8c0.9,1.5,1.6,3.1,2.1,4.8
		c0.6,1.8,1,3.7,1.4,5.6c0.3,1.9,0.6,3.8,0.7,5.7l0,0c0.1,1.8,0.2,3.6,0.2,5.5C86,85.9,84.9,88.9,82.7,91.1L82.7,91.1z"/>
</g>
</svg>
