<?xml version="1.0" encoding="utf-8"?>
<!-- Generator: Adobe Illustrator 24.1.1, SVG Export Plug-In . SVG Version: 6.00 Build 0)  -->
<svg version="1.1" id="Layer_1" xmlns="http://www.w3.org/2000/svg" xmlns:xlink="http://www.w3.org/1999/xlink" x="0px" y="0px"
	 viewBox="0 0 100 100" style="enable-background:new 0 0 100 100;" xml:space="preserve">
<style type="text/css">
	.st0{fill:#FFFFFF;}
	.st1{fill:#203061;}
</style>
<g id="videoOn" transform="translate(0.335)">
	<g id="Ellipse_12">
		<circle class="st0" cx="49.9" cy="50.2" r="49.8"/>
	</g>
	<g id="video-camera" transform="translate(20 26.03)">
		<g id="Group_20979" transform="translate(0 0)">
			<g id="Group_20978">
				<g id="Path_11342">
					<path class="st1" d="M48.9,12.5L48.9,12.5c-0.3,0-0.6,0-0.9,0.1c-0.5,0.1-0.9,0.3-1.2,0.5l-7.4,4.3v-1.3c0-1.6-0.6-3.2-1.8-4.3
						c-1.2-1.2-2.7-1.8-4.3-1.8H13.7c-3.3,0-6.1,2.7-6.1,6.1v15.7c0,3.3,2.8,6.1,6.1,6.1h19.5c3.4,0,6.1-2.7,6.1-6.1v-1.4l7.5,4.3
						c0.7,0.4,1.4,0.6,2.1,0.6c1.4,0,2.8-0.8,3.7-2.1c0.4-0.6,0.6-1.4,0.6-2.1V16.7C53.1,14.4,51.2,12.5,48.9,12.5z M36.5,31.8
						c0,1.8-1.5,3.3-3.3,3.3H13.7c-1.8,0-3.3-1.5-3.3-3.2V16.1c0-1.8,1.5-3.2,3.3-3.3h19.5v-1.4l0,1.4c0.9,0,1.7,0.3,2.3,1
						c0.6,0.6,0.9,1.4,0.9,2.3V31.8z M50.3,31.1c0,0.2-0.1,0.5-0.2,0.8c-0.2,0.3-0.5,0.5-0.8,0.6c-0.3,0.1-0.7,0-1-0.1l-6.6-3.8
						v-9.2l6.6-3.8c0.1-0.1,0.2-0.1,0.3-0.1l0,0c0.1,0,0.2,0,0.3,0c0.8,0,1.4,0.6,1.4,1.4V31.1z"/>
				</g>
			</g>
		</g>
	</g>
</g>
</svg>
