<?xml version="1.0" encoding="utf-8"?>
<!-- Generator: Adobe Illustrator 24.1.2, SVG Export Plug-In . SVG Version: 6.00 Build 0)  -->
<svg version="1.1" id="Capa_1" xmlns="http://www.w3.org/2000/svg" xmlns:xlink="http://www.w3.org/1999/xlink" x="0px" y="0px"
	 viewBox="0 0 100 100" style="enable-background:new 0 0 100 100;" xml:space="preserve">
<style type="text/css">
	.v-file-0{fill:#FFC265;}
	.v-file-1{fill:#FFB541;}
	.v-file-2{fill:#FFE9C8;}
	.v-file-3{fill:#FFDCA7;}
	.v-file-4{fill:#FF4755;}
	.v-file-5{fill:#FC2B3A;}
</style>
<g>
	<circle class="v-file-0" cx="50" cy="50" r="50"/>
	<path class="v-file-1" d="M50,94.6c-26.7,0-48.5-20.9-49.9-47.3C0,48.2,0,49.1,0,50c0,27.6,22.4,50,50,50s50-22.4,50-50
		c0-0.9,0-1.8-0.1-2.7C98.5,73.6,76.7,94.6,50,94.6L50,94.6z"/>
	<circle class="v-file-2" cx="50" cy="50" r="41.9"/>
	<path class="v-file-3" d="M50,86.4c-22.2,0-40.4-17.3-41.8-39.2c-0.1,0.9-0.1,1.8-0.1,2.7c0,23.1,18.8,41.9,41.9,41.9S91.9,73.1,91.9,50
		c0-0.9,0-1.8-0.1-2.7C90.4,69.1,72.2,86.4,50,86.4L50,86.4z"/>
	<path class="v-file-4" d="M42.1,69.3l26.3-16.6c1.9-1.2,1.9-4,0-5.2L42.1,30.7c-2.1-1.3-4.8,0.2-4.8,2.6v33.3
		C37.3,69.1,40,70.6,42.1,69.3z"/>
	<path class="v-file-5" d="M68.3,49L42.1,65.6c-2.1,1.3-4.8-0.2-4.8-2.6v3.6c0,2.4,2.7,3.9,4.8,2.6l26.3-16.6c1.6-1,1.9-3,0.9-4.4
		C69,48.5,68.7,48.8,68.3,49L68.3,49z"/>
</g>
</svg>
