<?xml version="1.0" encoding="utf-8"?>
<!-- Generator: Adobe Illustrator 24.1.1, SVG Export Plug-In . SVG Version: 6.00 Build 0)  -->
<svg version="1.1" id="Layer_1" xmlns="http://www.w3.org/2000/svg" xmlns:xlink="http://www.w3.org/1999/xlink" x="0px" y="0px"
	 viewBox="0 0 100 100" style="enable-background:new 0 0 100 100;" xml:space="preserve">
<style type="text/css">
	.st0{fill:#203061;}
</style>
<g id="videoOn1" transform="translate(1 1)">
	<g id="Group_20979" transform="translate(0 0)">
		<g id="Group_20978">
			<g id="Path_11342">
				<path class="st0" d="M89.7,23.5L89.7,23.5c-0.7,0-1.4,0.1-2.1,0.2c-1,0.2-1.9,0.6-2.6,1.1l-16.3,9.5v-2.8c0-3.6-1.4-6.9-3.9-9.5
					C62.3,19.4,59,18,55.4,18h-43C5,18.1-1,24-1,31.4V66c0,7.3,6,13.3,13.4,13.4h42.9c7.4,0,13.4-6,13.4-13.4V63l16.4,9.5
					c1.5,0.9,3.1,1.3,4.6,1.3c3.2,0,6.3-1.7,8.1-4.7c0.8-1.4,1.2-3,1.2-4.6V32.7C99,27.6,94.8,23.5,89.7,23.5z M62.5,66
					c0,3.9-3.2,7.1-7.2,7.2H12.4c-3.9,0-7.2-3.2-7.2-7.2V31.4c0-3.9,3.2-7.2,7.2-7.2h42.9v-3.1l0.1,3.1c1.9,0,3.7,0.8,5,2.1
					s2.1,3.1,2.1,5V66z M92.8,64.5c0,0.5-0.2,1.1-0.5,1.7c-0.8,1.4-2.6,1.8-4,1l-14.4-8.3V38.5l14.5-8.4c0.2-0.1,0.4-0.2,0.7-0.3h0
					c0.2-0.1,0.4-0.1,0.7-0.1c1.7,0,3,1.3,3,3V64.5z"/>
			</g>
		</g>
	</g>
</g>
</svg>
