<?xml version="1.0" encoding="utf-8"?>
<!-- Generator: Adobe Illustrator 24.1.1, SVG Export Plug-In . SVG Version: 6.00 Build 0)  -->
<svg version="1.1" id="Layer_1" xmlns="http://www.w3.org/2000/svg" xmlns:xlink="http://www.w3.org/1999/xlink" x="0px" y="0px"
	 viewBox="0 0 100 100" style="enable-background:new 0 0 100 100;" xml:space="preserve">
<style type="text/css">
	.st0{fill:#FFFFFF;}
</style>
<g id="video-camera" transform="translate(0 2.3)">
	<g id="Group_20979" transform="translate(0 0)">
		<g id="Group_20978">
			<g id="Path_11342">
				<path id="Path_11619" class="st0" d="M68.8,30.9l0.9-0.6l0,0L68.8,30.9z M68.5,31.5l0.3-0.3L68.5,31.5z M56.1,14.4H13.4
					C6.1,14.3,0.1,20.2,0,27.6c0,0.1,0,0.1,0,0.2v34.6c0.1,5.5,3.5,10.5,8.7,12.5l5.3-5.3h-0.6c-3.9,0.1-7.1-3-7.2-6.9
					c0-0.1,0-0.2,0-0.2V27.8c-0.1-3.9,3-7.1,6.9-7.2c0.1,0,0.2,0,0.2,0h42.7l0,0c1.7,0,3.4,0.6,4.7,1.9l4.7-4.4
					C63,15.6,59.6,14.3,56.1,14.4z"/>
			</g>
		</g>
	</g>
	<g id="Group_20981" transform="translate(21.946 5.341)">
		<g id="Group_20980">
			<g id="Path_11343">
				<path id="Path_11620" class="st0" d="M46.4,26L46.4,26l0.3-0.3L46.4,26z"/>
			</g>
		</g>
	</g>
</g>
<g id="Line_68" transform="translate(2.3)">
	<path id="Path_11621" class="st0" d="M88,22L88,22c-0.7-0.1-1.5,0.1-2.2,0.3c-0.8,0.3-1.7,0.6-2.5,0.9l-16.2,9.3l-0.9,0.6l-0.3,0.3
		l0,0l0.3-0.3l0.9-0.9l18.4-18.4l-4.4-4.4l-15,15l-5,5.3L19.5,71.5l-6.2,6.2l-8.4,8.4l0.6,0.6l3.7,3.7L22,77.7h32.1
		c7.4-0.1,13.3-6,13.4-13.4v-2.8l16.2,9.3c1.4,0.8,3,1.3,4.7,1.2c3.3,0,6.4-1.8,8.1-4.7c0.8-1.4,1.3-3,1.2-4.7V31
		C97.3,25.9,93.1,22,88,22z M60.9,64.3c0.1,3.9-3,7.1-6.9,7.2c-0.1,0-0.2,0-0.2,0H27.9l33-32.7L60.9,64.3L60.9,64.3z M91.2,63.1
		c0.1,0.6-0.2,1.2-0.6,1.6c-0.9,1.4-2.7,1.8-4,0.9l-14.3-8.4V36.9l14.3-8.4c0.3,0,0.3-0.3,0.6-0.3h0.6c1.7,0,3.1,1.4,3.1,3.1v31.8
		H91.2z"/>
	<path id="Path_11622" class="st0" d="M66.5,33.2l-0.6,0.6v-0.3L66.5,33.2z"/>
</g>
</svg>
