<svg xmlns="http://www.w3.org/2000/svg" width="24.95" height="24.95" viewBox="0 0 24.95 24.95">
    <defs>
    </defs>
    <g id="prefix__expand" transform="translate(.5 -1.5)">
        <path id="prefix__Path_11630" d="M7.568 0a1.08 1.08 0 0 0-1.081 1.082v4.325a1.081 1.081 0 0 1-1.081 1.081H1.081a1.081 1.081 0 0 0 0 2.163h4.325a3.248 3.248 0 0 0 3.243-3.244V1.082A1.08 1.08 0 0 0 7.568 0zm0 0" class="zoom__cls-1" data-name="Path 11630" transform="translate(0 2)"/>
        <path id="prefix__Path_11631" d="M342.413 349.982a1.081 1.081 0 0 0 1.081-1.081v-4.325a1.082 1.082 0 0 1 1.081-1.081h4.325a1.081 1.081 0 1 0 0-2.163h-4.325a3.248 3.248 0 0 0-3.244 3.244v4.324a1.08 1.08 0 0 0 1.082 1.082zm0 0" class="zoom__cls-1" data-name="Path 11631" transform="translate(-326.033 -324.033)"/>
        <path id="prefix__Path_11632" d="M1.082 343.495h4.325a1.081 1.081 0 0 1 1.081 1.081v4.324a1.081 1.081 0 1 0 2.163 0v-4.325a3.248 3.248 0 0 0-3.244-3.244H1.082a1.081 1.081 0 1 0 0 2.163zm0 0" class="zoom__cls-1" data-name="Path 11632" transform="translate(0 -324.033)"/>
        <path id="prefix__Path_11633" d="M344.576 8.65h4.324a1.081 1.081 0 0 0 0-2.163h-4.325a1.081 1.081 0 0 1-1.081-1.081V1.081a1.081 1.081 0 1 0-2.162 0v4.325a3.248 3.248 0 0 0 3.244 3.244zm0 0" class="zoom__cls-1" data-name="Path 11633" transform="translate(-326.033 2)"/>
    </g>
</svg>
