<?xml version="1.0" encoding="utf-8"?>
<!-- Generator: Adobe Illustrator 24.1.2, SVG Export Plug-In . SVG Version: 6.00 Build 0)  -->
<svg version="1.1" id="Layer_1" xmlns="http://www.w3.org/2000/svg" xmlns:xlink="http://www.w3.org/1999/xlink" x="0px" y="0px"
	 viewBox="0 0 24.9 24.9" style="enable-background:new 0 0 24.9 24.9;" xml:space="preserve">
<style type="text/css">
	.zoom0{fill:#203061;}
</style>
<g id="zoom" transform="translate(0.5 -1.5)">
	<g id="Path_11630">
		<path class="zoom0" d="M1.1,10.6c0.6,0,1.1-0.5,1.1-1.1c0,0,0,0,0,0V5.2c0-0.6,0.5-1.1,1.1-1.1c0,0,0,0,0,0h4.3
			c0.6,0,1.1-0.5,1.1-1.1S8.2,2,7.6,2l0,0H3.2C1.5,2,0,3.5,0,5.2v4.3C0,10.2,0.5,10.6,1.1,10.6C1.1,10.7,1.1,10.7,1.1,10.6z"/>
		<path class="zoom0" d="M1.1,11.1c-0.4,0-0.8-0.2-1.1-0.5S-0.5,10-0.5,9.6V5.2c0-2.1,1.7-3.7,3.7-3.7h4.3c0.9,0,1.6,0.7,1.6,1.6
			S8.4,4.7,7.6,4.7H3.2c-0.3,0-0.6,0.3-0.6,0.6v4.3c0,0.4-0.2,0.8-0.5,1.1C1.9,11,1.5,11.1,1.1,11.1z M3.2,2.5
			c-1.5,0-2.7,1.2-2.7,2.7v4.3c0,0.3,0.3,0.6,0.6,0.6h0c0,0,0,0,0,0c0.2,0,0.3-0.1,0.4-0.2c0.1-0.1,0.2-0.3,0.2-0.4V5.2
			c0-0.9,0.7-1.6,1.6-1.6h4.3c0.3,0,0.6-0.3,0.6-0.6S7.9,2.5,7.6,2.5H3.2z"/>
	</g>
	<g id="Path_11631">
		<path class="zoom0" d="M22.9,17.3c-0.6,0-1.1,0.5-1.1,1.1c0,0,0,0,0,0v4.3c0,0.6-0.5,1.1-1.1,1.1h-4.3c-0.6,0-1.1,0.5-1.1,1.1
			s0.5,1.1,1.1,1.1c0,0,0,0,0,0h4.3c1.8,0,3.2-1.5,3.2-3.2v-4.3C23.9,17.8,23.5,17.3,22.9,17.3C22.9,17.3,22.9,17.3,22.9,17.3z"/>
		<path class="zoom0" d="M16.4,26.4c-0.4,0-0.8-0.2-1.1-0.5c-0.3-0.3-0.5-0.7-0.5-1.1c0-0.4,0.2-0.8,0.5-1.1c0.3-0.3,0.7-0.5,1.1-0.5
			c0,0,0,0,0,0h4.3c0.3,0,0.6-0.3,0.6-0.6v-4.3c0-0.9,0.7-1.6,1.6-1.6s1.6,0.7,1.6,1.6v4.3c0,2.1-1.7,3.7-3.7,3.7H16.4z M16.4,24.3
			c-0.2,0-0.3,0.1-0.4,0.2c-0.1,0.1-0.2,0.3-0.2,0.4s0.1,0.3,0.2,0.4s0.3,0.2,0.4,0.2h4.3c1.5,0,2.7-1.2,2.7-2.7v-4.3
			c0-0.3-0.3-0.6-0.6-0.6h0c-0.3,0-0.6,0.3-0.6,0.6v4.3c0,0.9-0.7,1.6-1.6,1.6H16.4C16.4,24.3,16.4,24.3,16.4,24.3z"/>
	</g>
	<g id="Path_11632">
		<path class="zoom0" d="M7.6,23.8H3.2c-0.6,0-1.1-0.5-1.1-1.1v-4.3c0-0.6-0.5-1.1-1.1-1.1S0,17.8,0,18.4c0,0,0,0,0,0v4.3
			c0,1.8,1.5,3.2,3.2,3.2h4.3c0.6,0,1.1-0.5,1.1-1.1C8.7,24.3,8.2,23.8,7.6,23.8z"/>
		<path class="zoom0" d="M7.6,26.4H3.2c-2.1,0-3.7-1.7-3.7-3.7v-4.3c0-0.9,0.7-1.6,1.6-1.6s1.6,0.7,1.6,1.6v4.3c0,0.3,0.3,0.6,0.6,0.6
			h4.3c0.9,0,1.6,0.7,1.6,1.6S8.4,26.4,7.6,26.4z M1.1,17.8c-0.3,0-0.6,0.3-0.6,0.6v4.3c0,1.5,1.2,2.7,2.7,2.7h4.3
			c0.3,0,0.6-0.3,0.6-0.6c0-0.3-0.3-0.6-0.6-0.6H3.2c-0.9,0-1.6-0.7-1.6-1.6v-4.3C1.7,18.1,1.4,17.8,1.1,17.8z"/>
	</g>
	<g id="Path_11633">
		<path class="zoom0" d="M20.7,2h-4.3c-0.6,0-1.1,0.5-1.1,1.1s0.5,1.1,1.1,1.1c0,0,0,0,0,0h4.3c0.6,0,1.1,0.5,1.1,1.1v4.3
			c0,0.6,0.5,1.1,1.1,1.1c0.6,0,1.1-0.5,1.1-1.1l0,0V5.2C23.9,3.5,22.5,2,20.7,2z"/>
		<path class="zoom0" d="M22.9,11.1c-0.9,0-1.6-0.7-1.6-1.6V5.2c0-0.3-0.3-0.6-0.6-0.6h-4.3c-0.9,0-1.6-0.7-1.6-1.6
			c0-0.9,0.7-1.6,1.6-1.6h4.3c2.1,0,3.7,1.7,3.7,3.7v4.3C24.4,10.4,23.7,11.1,22.9,11.1z M16.4,2.5c-0.3,0-0.6,0.3-0.6,0.6
			c0,0.3,0.3,0.6,0.6,0.6h4.3c0.9,0,1.6,0.7,1.6,1.6v4.3c0,0.3,0.3,0.6,0.6,0.6c0.3,0,0.6-0.3,0.6-0.6V5.2c0-1.5-1.2-2.7-2.7-2.7
			H16.4z"/>
	</g>
</g>
</svg>
